G04 EAGLE Gerber RS-274X export*
G75*
%MOMM*%
%FSLAX34Y34*%
%LPD*%
%INCopper Layer 15*%
%IPPOS*%
%AMOC8*
5,1,8,0,0,1.08239X$1,22.5*%
G01*
G04 Define Apertures*
%ADD10C,1.275000*%
%ADD11C,0.850000*%
%ADD12C,0.650000*%
%ADD13C,0.500000*%
%ADD14C,0.600000*%
G36*
X234070Y3423D02*
X234571Y3766D01*
X234898Y4277D01*
X235000Y4826D01*
X235000Y21139D01*
X234796Y21901D01*
X234310Y22743D01*
X234310Y28257D01*
X234796Y29099D01*
X235000Y29861D01*
X235000Y33392D01*
X234879Y33987D01*
X234536Y34487D01*
X234025Y34814D01*
X233427Y34915D01*
X232893Y34800D01*
X232373Y34585D01*
X228827Y34585D01*
X225550Y35942D01*
X223042Y38450D01*
X221685Y41727D01*
X221685Y45273D01*
X223042Y48550D01*
X225550Y51058D01*
X228827Y52415D01*
X232373Y52415D01*
X232893Y52200D01*
X233488Y52084D01*
X234082Y52209D01*
X234579Y52556D01*
X234902Y53070D01*
X235000Y53608D01*
X235000Y80076D01*
X234884Y80659D01*
X232460Y86511D01*
X232460Y93489D01*
X234884Y99341D01*
X235000Y99924D01*
X235000Y370076D01*
X234884Y370659D01*
X232460Y376511D01*
X232460Y383489D01*
X234884Y389341D01*
X235000Y389924D01*
X235000Y495174D01*
X234879Y495768D01*
X234536Y496269D01*
X234025Y496596D01*
X233476Y496698D01*
X59626Y496698D01*
X59031Y496577D01*
X58531Y496234D01*
X58204Y495723D01*
X58102Y495125D01*
X58242Y494535D01*
X58548Y494096D01*
X59909Y492736D01*
X60790Y490608D01*
X60790Y488304D01*
X59909Y486176D01*
X58280Y484548D01*
X56152Y483666D01*
X53848Y483666D01*
X51720Y484548D01*
X50294Y485973D01*
X49789Y486308D01*
X49192Y486420D01*
X48600Y486290D01*
X48105Y485939D01*
X48066Y485877D01*
X46280Y484092D01*
X44152Y483210D01*
X41848Y483210D01*
X39720Y484092D01*
X38092Y485720D01*
X37210Y487848D01*
X37210Y490152D01*
X38092Y492280D01*
X39908Y494096D01*
X40243Y494602D01*
X40354Y495198D01*
X40224Y495791D01*
X39873Y496285D01*
X39357Y496604D01*
X38830Y496698D01*
X21170Y496698D01*
X20575Y496577D01*
X20075Y496234D01*
X19748Y495723D01*
X19646Y495125D01*
X19786Y494535D01*
X20092Y494096D01*
X21909Y492280D01*
X22790Y490152D01*
X22790Y487848D01*
X21909Y485720D01*
X20280Y484092D01*
X18152Y483210D01*
X15848Y483210D01*
X13720Y484092D01*
X12092Y485720D01*
X11210Y487848D01*
X11210Y490152D01*
X12092Y492280D01*
X13908Y494096D01*
X14243Y494602D01*
X14354Y495198D01*
X14224Y495791D01*
X13873Y496285D01*
X13357Y496604D01*
X12830Y496698D01*
X4826Y496698D01*
X4232Y496577D01*
X3731Y496234D01*
X3404Y495723D01*
X3302Y495174D01*
X3302Y196170D01*
X3423Y195575D01*
X3766Y195075D01*
X4277Y194748D01*
X4875Y194646D01*
X5465Y194786D01*
X5904Y195092D01*
X7720Y196909D01*
X9848Y197790D01*
X12152Y197790D01*
X14280Y196909D01*
X15909Y195280D01*
X16790Y193152D01*
X16790Y190848D01*
X15909Y188720D01*
X14280Y187092D01*
X12152Y186210D01*
X9848Y186210D01*
X7720Y187092D01*
X5904Y188908D01*
X5398Y189243D01*
X4802Y189354D01*
X4209Y189224D01*
X3715Y188873D01*
X3396Y188357D01*
X3302Y187830D01*
X3302Y4826D01*
X3423Y4232D01*
X3766Y3731D01*
X4277Y3404D01*
X4826Y3302D01*
X233476Y3302D01*
X234070Y3423D01*
G37*
%LPC*%
G36*
X176399Y475210D02*
X173904Y476244D01*
X171994Y478154D01*
X170960Y480649D01*
X170960Y483351D01*
X171994Y485846D01*
X173904Y487756D01*
X176399Y488790D01*
X179101Y488790D01*
X181596Y487756D01*
X183506Y485846D01*
X184540Y483351D01*
X184540Y480649D01*
X183506Y478154D01*
X181596Y476244D01*
X179101Y475210D01*
X176399Y475210D01*
G37*
G36*
X98899Y475210D02*
X96404Y476244D01*
X94494Y478154D01*
X93460Y480649D01*
X93460Y483351D01*
X94494Y485846D01*
X96404Y487756D01*
X98899Y488790D01*
X101601Y488790D01*
X104096Y487756D01*
X106006Y485846D01*
X107040Y483351D01*
X107040Y480649D01*
X106006Y478154D01*
X104096Y476244D01*
X101601Y475210D01*
X98899Y475210D01*
G37*
G36*
X136998Y473960D02*
X135145Y474727D01*
X133727Y476145D01*
X132960Y477998D01*
X132960Y480003D01*
X133727Y481855D01*
X135145Y483273D01*
X136998Y484040D01*
X139003Y484040D01*
X140855Y483273D01*
X142273Y481855D01*
X143040Y480003D01*
X143040Y477998D01*
X142273Y476145D01*
X140855Y474727D01*
X139003Y473960D01*
X136998Y473960D01*
G37*
G36*
X162998Y467960D02*
X161145Y468727D01*
X159727Y470145D01*
X158960Y471998D01*
X158960Y474003D01*
X159727Y475855D01*
X161145Y477273D01*
X162998Y478040D01*
X165003Y478040D01*
X166855Y477273D01*
X168273Y475855D01*
X169040Y474003D01*
X169040Y471998D01*
X168273Y470145D01*
X166855Y468727D01*
X165003Y467960D01*
X162998Y467960D01*
G37*
G36*
X145498Y453460D02*
X143645Y454227D01*
X142227Y455645D01*
X141460Y457498D01*
X141460Y459653D01*
X141339Y460248D01*
X140996Y460748D01*
X140485Y461075D01*
X139887Y461176D01*
X139297Y461037D01*
X138858Y460731D01*
X137855Y459727D01*
X136003Y458960D01*
X133998Y458960D01*
X132145Y459727D01*
X130727Y461145D01*
X129960Y462998D01*
X129960Y465003D01*
X130727Y466855D01*
X132145Y468273D01*
X133998Y469040D01*
X136003Y469040D01*
X137855Y468273D01*
X139273Y466855D01*
X140040Y465003D01*
X140040Y462847D01*
X140161Y462253D01*
X140504Y461752D01*
X141015Y461425D01*
X141613Y461324D01*
X142203Y461463D01*
X142642Y461769D01*
X143645Y462773D01*
X145498Y463540D01*
X147503Y463540D01*
X149355Y462773D01*
X150773Y461355D01*
X151540Y459503D01*
X151540Y457498D01*
X150773Y455645D01*
X149355Y454227D01*
X147503Y453460D01*
X145498Y453460D01*
G37*
G36*
X174477Y435085D02*
X171200Y436442D01*
X168692Y438950D01*
X167335Y442227D01*
X167335Y445773D01*
X167368Y445853D01*
X167484Y446448D01*
X167358Y447042D01*
X167012Y447539D01*
X166498Y447862D01*
X165960Y447960D01*
X162248Y447960D01*
X161188Y448572D01*
X161009Y448660D01*
X160295Y448956D01*
X160126Y449125D01*
X159811Y449367D01*
X159212Y449712D01*
X158867Y450311D01*
X158625Y450626D01*
X158456Y450795D01*
X158160Y451509D01*
X158072Y451688D01*
X157460Y452748D01*
X157460Y456252D01*
X158072Y457312D01*
X158160Y457491D01*
X158456Y458205D01*
X158625Y458374D01*
X158867Y458689D01*
X159212Y459288D01*
X159811Y459633D01*
X160126Y459875D01*
X160295Y460044D01*
X161009Y460340D01*
X161188Y460428D01*
X162248Y461040D01*
X165752Y461040D01*
X166812Y460428D01*
X166991Y460340D01*
X167705Y460044D01*
X167874Y459875D01*
X168189Y459633D01*
X168788Y459288D01*
X169133Y458689D01*
X169375Y458374D01*
X169544Y458205D01*
X169840Y457491D01*
X169928Y457312D01*
X170540Y456252D01*
X170540Y453565D01*
X170661Y452971D01*
X171004Y452471D01*
X171515Y452144D01*
X172113Y452042D01*
X172647Y452157D01*
X174477Y452915D01*
X178023Y452915D01*
X181300Y451558D01*
X183808Y449050D01*
X185165Y445773D01*
X185165Y442227D01*
X183808Y438950D01*
X181300Y436442D01*
X178023Y435085D01*
X174477Y435085D01*
G37*
G36*
X99977Y435085D02*
X96700Y436442D01*
X94192Y438950D01*
X92835Y442227D01*
X92835Y445773D01*
X94192Y449050D01*
X96700Y451558D01*
X99977Y452915D01*
X103523Y452915D01*
X105353Y452157D01*
X105948Y452041D01*
X106542Y452167D01*
X107039Y452514D01*
X107362Y453027D01*
X107460Y453565D01*
X107460Y456252D01*
X108072Y457312D01*
X108160Y457491D01*
X108456Y458205D01*
X108625Y458374D01*
X108867Y458689D01*
X109212Y459288D01*
X109811Y459633D01*
X110126Y459875D01*
X110295Y460044D01*
X111009Y460340D01*
X111188Y460428D01*
X112248Y461040D01*
X115752Y461040D01*
X116812Y460428D01*
X116991Y460340D01*
X117705Y460044D01*
X117874Y459875D01*
X118189Y459633D01*
X118788Y459288D01*
X119133Y458689D01*
X119375Y458374D01*
X119544Y458205D01*
X119840Y457491D01*
X119928Y457312D01*
X120540Y456252D01*
X120540Y452748D01*
X119928Y451688D01*
X119840Y451509D01*
X119587Y450897D01*
X119471Y450302D01*
X119596Y449708D01*
X119943Y449211D01*
X120457Y448888D01*
X120995Y448790D01*
X122152Y448790D01*
X124280Y447909D01*
X125909Y446280D01*
X126790Y444152D01*
X126790Y441848D01*
X125909Y439720D01*
X124280Y438092D01*
X122152Y437210D01*
X119848Y437210D01*
X117720Y438092D01*
X116092Y439720D01*
X115210Y441848D01*
X115210Y444152D01*
X115915Y445853D01*
X116031Y446448D01*
X115905Y447042D01*
X115558Y447539D01*
X115045Y447862D01*
X114507Y447960D01*
X112040Y447960D01*
X111446Y447839D01*
X110945Y447496D01*
X110619Y446985D01*
X110517Y446387D01*
X110632Y445853D01*
X110665Y445773D01*
X110665Y442227D01*
X109308Y438950D01*
X106800Y436442D01*
X103523Y435085D01*
X99977Y435085D01*
G37*
G36*
X200848Y432210D02*
X198720Y433092D01*
X197092Y434720D01*
X196210Y436848D01*
X196210Y439152D01*
X197092Y441280D01*
X198720Y442909D01*
X200848Y443790D01*
X203152Y443790D01*
X205280Y442909D01*
X206909Y441280D01*
X207790Y439152D01*
X207790Y436848D01*
X206909Y434720D01*
X205280Y433092D01*
X203152Y432210D01*
X200848Y432210D01*
G37*
G36*
X216848Y420210D02*
X214720Y421092D01*
X213092Y422720D01*
X212210Y424848D01*
X212210Y427152D01*
X213092Y429280D01*
X214720Y430909D01*
X216848Y431790D01*
X219152Y431790D01*
X221280Y430909D01*
X222909Y429280D01*
X223790Y427152D01*
X223790Y424848D01*
X222909Y422720D01*
X221280Y421092D01*
X219152Y420210D01*
X216848Y420210D01*
G37*
G36*
X203848Y393856D02*
X201720Y394738D01*
X200092Y396366D01*
X199210Y398494D01*
X199210Y400798D01*
X199434Y401340D01*
X199550Y401935D01*
X199425Y402528D01*
X199078Y403026D01*
X198565Y403349D01*
X197966Y403446D01*
X197443Y403331D01*
X197152Y403210D01*
X194848Y403210D01*
X192720Y404092D01*
X191092Y405720D01*
X190210Y407848D01*
X190210Y410152D01*
X191092Y412280D01*
X192720Y413909D01*
X194848Y414790D01*
X197152Y414790D01*
X199280Y413909D01*
X200909Y412280D01*
X201790Y410152D01*
X201790Y407848D01*
X201566Y407306D01*
X201450Y406711D01*
X201575Y406118D01*
X201922Y405620D01*
X202435Y405297D01*
X203034Y405200D01*
X203557Y405315D01*
X203848Y405436D01*
X206152Y405436D01*
X208308Y404543D01*
X208904Y404427D01*
X209497Y404552D01*
X209995Y404899D01*
X210299Y405368D01*
X211092Y407280D01*
X212720Y408909D01*
X214848Y409790D01*
X217152Y409790D01*
X219280Y408909D01*
X220909Y407280D01*
X221790Y405152D01*
X221790Y402848D01*
X220909Y400720D01*
X219280Y399092D01*
X217152Y398210D01*
X214848Y398210D01*
X212692Y399103D01*
X212096Y399219D01*
X211503Y399094D01*
X211006Y398747D01*
X210701Y398278D01*
X209909Y396366D01*
X208280Y394738D01*
X206152Y393856D01*
X203848Y393856D01*
G37*
G36*
X15848Y394210D02*
X13720Y395092D01*
X12092Y396720D01*
X11210Y398848D01*
X11210Y401152D01*
X12092Y403280D01*
X13720Y404909D01*
X15848Y405790D01*
X18152Y405790D01*
X20280Y404909D01*
X21909Y403280D01*
X22790Y401152D01*
X22790Y398848D01*
X21909Y396720D01*
X20280Y395092D01*
X18152Y394210D01*
X15848Y394210D01*
G37*
G36*
X133848Y383210D02*
X131720Y384092D01*
X130092Y385720D01*
X129210Y387848D01*
X129210Y390152D01*
X130092Y392280D01*
X131720Y393909D01*
X133848Y394790D01*
X136152Y394790D01*
X138280Y393909D01*
X139909Y392280D01*
X140790Y390152D01*
X140790Y387848D01*
X139909Y385720D01*
X138280Y384092D01*
X136152Y383210D01*
X133848Y383210D01*
G37*
G36*
X141848Y366210D02*
X139720Y367092D01*
X138092Y368720D01*
X137210Y370848D01*
X137210Y373152D01*
X138092Y375280D01*
X139720Y376909D01*
X141848Y377790D01*
X144152Y377790D01*
X146280Y376909D01*
X147909Y375280D01*
X148790Y373152D01*
X148790Y370848D01*
X147909Y368720D01*
X146280Y367092D01*
X144152Y366210D01*
X141848Y366210D01*
G37*
G36*
X186848Y358524D02*
X184720Y359406D01*
X183092Y361034D01*
X182210Y363162D01*
X182210Y365466D01*
X183092Y367594D01*
X184720Y369223D01*
X186848Y370104D01*
X189152Y370104D01*
X191280Y369223D01*
X192909Y367594D01*
X193790Y365466D01*
X193790Y363162D01*
X192909Y361034D01*
X191280Y359406D01*
X189152Y358524D01*
X186848Y358524D01*
G37*
G36*
X207848Y353210D02*
X205720Y354092D01*
X204092Y355720D01*
X203210Y357848D01*
X203210Y360152D01*
X204092Y362280D01*
X205720Y363909D01*
X207848Y364790D01*
X210152Y364790D01*
X212280Y363909D01*
X213909Y362280D01*
X214790Y360152D01*
X214790Y357848D01*
X213909Y355720D01*
X212280Y354092D01*
X210152Y353210D01*
X207848Y353210D01*
G37*
G36*
X66848Y329210D02*
X64720Y330092D01*
X63092Y331720D01*
X62210Y333848D01*
X62210Y336152D01*
X63092Y338280D01*
X64720Y339909D01*
X66848Y340790D01*
X69152Y340790D01*
X71280Y339909D01*
X72909Y338280D01*
X73790Y336152D01*
X73790Y333848D01*
X72909Y331720D01*
X71280Y330092D01*
X69152Y329210D01*
X66848Y329210D01*
G37*
G36*
X52848Y303210D02*
X50720Y304092D01*
X49092Y305720D01*
X48210Y307848D01*
X48210Y310152D01*
X49092Y312280D01*
X50720Y313909D01*
X52848Y314790D01*
X55152Y314790D01*
X57280Y313909D01*
X58909Y312280D01*
X59790Y310152D01*
X59790Y307848D01*
X58909Y305720D01*
X57280Y304092D01*
X55152Y303210D01*
X52848Y303210D01*
G37*
G36*
X93848Y286210D02*
X91720Y287092D01*
X90092Y288720D01*
X89210Y290848D01*
X89210Y293152D01*
X90092Y295280D01*
X91720Y296909D01*
X93848Y297790D01*
X96152Y297790D01*
X98280Y296909D01*
X99909Y295280D01*
X100790Y293152D01*
X100790Y290848D01*
X99909Y288720D01*
X98280Y287092D01*
X96152Y286210D01*
X93848Y286210D01*
G37*
G36*
X73848Y286210D02*
X71720Y287092D01*
X70092Y288720D01*
X69210Y290848D01*
X69210Y293152D01*
X70092Y295280D01*
X71720Y296909D01*
X73848Y297790D01*
X76152Y297790D01*
X78280Y296909D01*
X79909Y295280D01*
X80790Y293152D01*
X80790Y290848D01*
X79909Y288720D01*
X78280Y287092D01*
X76152Y286210D01*
X73848Y286210D01*
G37*
G36*
X218848Y264210D02*
X216720Y265092D01*
X215092Y266720D01*
X214210Y268848D01*
X214210Y271152D01*
X215092Y273280D01*
X216720Y274909D01*
X218848Y275790D01*
X221152Y275790D01*
X223280Y274909D01*
X224909Y273280D01*
X225790Y271152D01*
X225790Y268848D01*
X224909Y266720D01*
X223280Y265092D01*
X221152Y264210D01*
X218848Y264210D01*
G37*
G36*
X112848Y259210D02*
X110720Y260092D01*
X109092Y261720D01*
X108210Y263848D01*
X108210Y266152D01*
X109092Y268280D01*
X110720Y269909D01*
X112848Y270790D01*
X115152Y270790D01*
X117280Y269909D01*
X118909Y268280D01*
X119790Y266152D01*
X119790Y263848D01*
X118909Y261720D01*
X117280Y260092D01*
X115152Y259210D01*
X112848Y259210D01*
G37*
G36*
X117848Y235210D02*
X115720Y236092D01*
X114092Y237720D01*
X113210Y239848D01*
X113210Y242152D01*
X114092Y244280D01*
X115720Y245909D01*
X117848Y246790D01*
X120152Y246790D01*
X122280Y245909D01*
X123909Y244280D01*
X124790Y242152D01*
X124790Y239848D01*
X123909Y237720D01*
X122280Y236092D01*
X120152Y235210D01*
X117848Y235210D01*
G37*
G36*
X211848Y181210D02*
X209720Y182092D01*
X208092Y183720D01*
X207210Y185848D01*
X207210Y188152D01*
X208092Y190280D01*
X209720Y191909D01*
X211848Y192790D01*
X214152Y192790D01*
X216280Y191909D01*
X217909Y190280D01*
X218790Y188152D01*
X218790Y185848D01*
X217909Y183720D01*
X216280Y182092D01*
X214152Y181210D01*
X211848Y181210D01*
G37*
G36*
X116848Y155210D02*
X114720Y156092D01*
X113092Y157720D01*
X112210Y159848D01*
X112210Y162152D01*
X113092Y164280D01*
X114720Y165909D01*
X116848Y166790D01*
X119152Y166790D01*
X121280Y165909D01*
X122909Y164280D01*
X123790Y162152D01*
X123790Y159848D01*
X122909Y157720D01*
X121280Y156092D01*
X119152Y155210D01*
X116848Y155210D01*
G37*
G36*
X198848Y124210D02*
X196720Y125092D01*
X195092Y126720D01*
X194210Y128848D01*
X194210Y131152D01*
X195092Y133280D01*
X196720Y134909D01*
X198848Y135790D01*
X201152Y135790D01*
X203280Y134909D01*
X204909Y133280D01*
X205790Y131152D01*
X205790Y128848D01*
X204909Y126720D01*
X203280Y125092D01*
X201152Y124210D01*
X198848Y124210D01*
G37*
G36*
X31065Y34585D02*
X27788Y35942D01*
X25280Y38450D01*
X23923Y41727D01*
X23923Y45273D01*
X25280Y48550D01*
X27788Y51058D01*
X31065Y52415D01*
X34611Y52415D01*
X37888Y51058D01*
X40396Y48550D01*
X41753Y45273D01*
X41753Y41727D01*
X40396Y38450D01*
X37888Y35942D01*
X34611Y34585D01*
X31065Y34585D01*
G37*
G36*
X203427Y34585D02*
X200150Y35942D01*
X197642Y38450D01*
X196285Y41727D01*
X196285Y45273D01*
X197642Y48550D01*
X200150Y51058D01*
X203427Y52415D01*
X206973Y52415D01*
X210250Y51058D01*
X212758Y48550D01*
X214115Y45273D01*
X214115Y41727D01*
X212758Y38450D01*
X210250Y35942D01*
X206973Y34585D01*
X203427Y34585D01*
G37*
G36*
X56465Y34585D02*
X53188Y35942D01*
X50680Y38450D01*
X49323Y41727D01*
X49323Y45273D01*
X50680Y48550D01*
X53188Y51058D01*
X56465Y52415D01*
X60011Y52415D01*
X63288Y51058D01*
X65796Y48550D01*
X67153Y45273D01*
X67153Y41727D01*
X65796Y38450D01*
X63288Y35942D01*
X60011Y34585D01*
X56465Y34585D01*
G37*
G36*
X118627Y33585D02*
X115350Y34942D01*
X112842Y37450D01*
X111485Y40727D01*
X111485Y44273D01*
X112842Y47550D01*
X115350Y50058D01*
X118627Y51415D01*
X122173Y51415D01*
X125450Y50058D01*
X127958Y47550D01*
X129315Y44273D01*
X129315Y40727D01*
X127958Y37450D01*
X125450Y34942D01*
X122173Y33585D01*
X118627Y33585D01*
G37*
G36*
X144027Y33585D02*
X140750Y34942D01*
X138242Y37450D01*
X136885Y40727D01*
X136885Y44273D01*
X138242Y47550D01*
X140750Y50058D01*
X144027Y51415D01*
X147573Y51415D01*
X150850Y50058D01*
X153358Y47550D01*
X154715Y44273D01*
X154715Y40727D01*
X153358Y37450D01*
X150850Y34942D01*
X147573Y33585D01*
X144027Y33585D01*
G37*
G36*
X69481Y15210D02*
X67764Y16201D01*
X67585Y16290D01*
X66409Y16777D01*
X66062Y17124D01*
X65746Y17366D01*
X64705Y17967D01*
X64104Y19008D01*
X63862Y19324D01*
X63515Y19671D01*
X63028Y20847D01*
X62939Y21026D01*
X61948Y22743D01*
X61948Y28257D01*
X62939Y29974D01*
X63028Y30153D01*
X63515Y31329D01*
X63862Y31676D01*
X64104Y31992D01*
X64705Y33033D01*
X65746Y33634D01*
X66062Y33876D01*
X66409Y34223D01*
X67585Y34710D01*
X67764Y34799D01*
X69481Y35790D01*
X74995Y35790D01*
X76712Y34799D01*
X76891Y34710D01*
X78067Y34223D01*
X78414Y33876D01*
X78730Y33634D01*
X79771Y33033D01*
X80372Y31992D01*
X80614Y31676D01*
X80961Y31329D01*
X81448Y30153D01*
X81537Y29974D01*
X82528Y28257D01*
X82528Y22743D01*
X81537Y21026D01*
X81448Y20847D01*
X80961Y19671D01*
X80614Y19324D01*
X80372Y19008D01*
X79771Y17967D01*
X78730Y17366D01*
X78414Y17124D01*
X78067Y16777D01*
X76891Y16290D01*
X76712Y16201D01*
X74995Y15210D01*
X69481Y15210D01*
G37*
G36*
X157043Y14210D02*
X155326Y15201D01*
X155147Y15290D01*
X153971Y15777D01*
X153624Y16124D01*
X153308Y16366D01*
X152267Y16967D01*
X151666Y18008D01*
X151424Y18324D01*
X151077Y18671D01*
X150590Y19847D01*
X150501Y20026D01*
X149510Y21743D01*
X149510Y27257D01*
X150501Y28974D01*
X150590Y29153D01*
X151077Y30329D01*
X151424Y30676D01*
X151666Y30992D01*
X152267Y32033D01*
X153308Y32634D01*
X153624Y32876D01*
X153971Y33223D01*
X155147Y33710D01*
X155326Y33799D01*
X157043Y34790D01*
X162557Y34790D01*
X164274Y33799D01*
X164453Y33710D01*
X165629Y33223D01*
X165976Y32876D01*
X166292Y32634D01*
X167333Y32033D01*
X167934Y30992D01*
X168176Y30676D01*
X168523Y30329D01*
X169010Y29153D01*
X169099Y28974D01*
X170090Y27257D01*
X170090Y21743D01*
X169099Y20026D01*
X169010Y19847D01*
X168523Y18671D01*
X168176Y18324D01*
X167934Y18008D01*
X167333Y16967D01*
X166292Y16366D01*
X165976Y16124D01*
X165629Y15777D01*
X164453Y15290D01*
X164274Y15201D01*
X162557Y14210D01*
X157043Y14210D01*
G37*
G36*
X208525Y18862D02*
X208525Y19965D01*
X209952Y23411D01*
X212589Y26048D01*
X216035Y27475D01*
X217138Y27475D01*
X217138Y18862D01*
X208525Y18862D01*
G37*
G36*
X36163Y18862D02*
X36163Y19965D01*
X37590Y23411D01*
X40227Y26048D01*
X43673Y27475D01*
X44776Y27475D01*
X44776Y18862D01*
X36163Y18862D01*
G37*
G36*
X46300Y18862D02*
X46300Y27475D01*
X47403Y27475D01*
X50849Y26048D01*
X53486Y23411D01*
X54913Y19965D01*
X54913Y18862D01*
X46300Y18862D01*
G37*
G36*
X218662Y18862D02*
X218662Y27475D01*
X219765Y27475D01*
X223211Y26048D01*
X225848Y23411D01*
X227275Y19965D01*
X227275Y18862D01*
X218662Y18862D01*
G37*
G36*
X190727Y9185D02*
X187450Y10542D01*
X184942Y13050D01*
X183585Y16327D01*
X183585Y19873D01*
X184942Y23150D01*
X187450Y25658D01*
X190727Y27015D01*
X194273Y27015D01*
X197550Y25658D01*
X200058Y23150D01*
X201415Y19873D01*
X201415Y16327D01*
X200058Y13050D01*
X197550Y10542D01*
X194273Y9185D01*
X190727Y9185D01*
G37*
G36*
X18365Y9185D02*
X15088Y10542D01*
X12580Y13050D01*
X11223Y16327D01*
X11223Y19873D01*
X12580Y23150D01*
X15088Y25658D01*
X18365Y27015D01*
X21911Y27015D01*
X25188Y25658D01*
X27696Y23150D01*
X29053Y19873D01*
X29053Y16327D01*
X27696Y13050D01*
X25188Y10542D01*
X21911Y9185D01*
X18365Y9185D01*
G37*
G36*
X123725Y17862D02*
X123725Y18965D01*
X125152Y22411D01*
X127789Y25048D01*
X131235Y26475D01*
X132338Y26475D01*
X132338Y17862D01*
X123725Y17862D01*
G37*
G36*
X133862Y17862D02*
X133862Y26475D01*
X134965Y26475D01*
X138411Y25048D01*
X141048Y22411D01*
X142475Y18965D01*
X142475Y17862D01*
X133862Y17862D01*
G37*
G36*
X105927Y8185D02*
X102650Y9542D01*
X100142Y12050D01*
X98785Y15327D01*
X98785Y18873D01*
X100142Y22150D01*
X102650Y24658D01*
X105927Y26015D01*
X109473Y26015D01*
X112750Y24658D01*
X115258Y22150D01*
X116615Y18873D01*
X116615Y15327D01*
X115258Y12050D01*
X112750Y9542D01*
X109473Y8185D01*
X105927Y8185D01*
G37*
G36*
X218662Y8725D02*
X218662Y17338D01*
X227275Y17338D01*
X227275Y16235D01*
X225848Y12789D01*
X223211Y10152D01*
X219765Y8725D01*
X218662Y8725D01*
G37*
G36*
X216035Y8725D02*
X212589Y10152D01*
X209952Y12789D01*
X208525Y16235D01*
X208525Y17338D01*
X217138Y17338D01*
X217138Y8725D01*
X216035Y8725D01*
G37*
G36*
X46300Y8725D02*
X46300Y17338D01*
X54913Y17338D01*
X54913Y16235D01*
X53486Y12789D01*
X50849Y10152D01*
X47403Y8725D01*
X46300Y8725D01*
G37*
G36*
X43673Y8725D02*
X40227Y10152D01*
X37590Y12789D01*
X36163Y16235D01*
X36163Y17338D01*
X44776Y17338D01*
X44776Y8725D01*
X43673Y8725D01*
G37*
G36*
X133862Y7725D02*
X133862Y16338D01*
X142475Y16338D01*
X142475Y15235D01*
X141048Y11789D01*
X138411Y9152D01*
X134965Y7725D01*
X133862Y7725D01*
G37*
G36*
X131235Y7725D02*
X127789Y9152D01*
X125152Y11789D01*
X123725Y15235D01*
X123725Y16338D01*
X132338Y16338D01*
X132338Y7725D01*
X131235Y7725D01*
G37*
%LPD*%
G36*
X360070Y2883D02*
X360571Y3226D01*
X360898Y3737D01*
X361000Y4286D01*
X361000Y75638D01*
X360884Y76221D01*
X360210Y77848D01*
X360210Y80152D01*
X360884Y81779D01*
X361000Y82362D01*
X361000Y88180D01*
X360879Y88775D01*
X360554Y89258D01*
X359092Y90720D01*
X358210Y92848D01*
X358210Y95152D01*
X359092Y97280D01*
X360554Y98742D01*
X360889Y99248D01*
X361000Y99820D01*
X361000Y432476D01*
X360879Y433070D01*
X360536Y433571D01*
X360025Y433898D01*
X359476Y434000D01*
X270087Y434000D01*
X270008Y434009D01*
X270006Y434014D01*
X270000Y434074D01*
X270000Y495714D01*
X269879Y496308D01*
X269536Y496809D01*
X269025Y497136D01*
X268476Y497238D01*
X254524Y497238D01*
X253930Y497117D01*
X253429Y496774D01*
X253102Y496263D01*
X253000Y495714D01*
X253000Y398176D01*
X253121Y397582D01*
X253464Y397082D01*
X253941Y396768D01*
X259630Y394412D01*
X264412Y389630D01*
X267000Y383382D01*
X267000Y376619D01*
X264412Y370370D01*
X259630Y365588D01*
X253941Y363232D01*
X253438Y362893D01*
X253107Y362384D01*
X253000Y361824D01*
X253000Y108176D01*
X253121Y107582D01*
X253464Y107082D01*
X253941Y106768D01*
X259630Y104412D01*
X264412Y99630D01*
X267000Y93382D01*
X267000Y86619D01*
X264412Y80370D01*
X259630Y75588D01*
X253941Y73232D01*
X253438Y72893D01*
X253107Y72384D01*
X253000Y71824D01*
X253000Y31002D01*
X253116Y30419D01*
X253325Y29914D01*
X253413Y29735D01*
X254350Y28113D01*
X254350Y22888D01*
X253413Y21265D01*
X253325Y21086D01*
X253116Y20581D01*
X253000Y19998D01*
X253000Y4286D01*
X253121Y3692D01*
X253464Y3191D01*
X253975Y2864D01*
X254524Y2762D01*
X359476Y2762D01*
X360070Y2883D01*
G37*
%LPC*%
G36*
X321848Y322210D02*
X319720Y323092D01*
X318092Y324720D01*
X317210Y326848D01*
X317210Y329152D01*
X318092Y331280D01*
X319720Y332909D01*
X321848Y333790D01*
X324152Y333790D01*
X326280Y332909D01*
X327909Y331280D01*
X328790Y329152D01*
X328790Y326848D01*
X327909Y324720D01*
X326280Y323092D01*
X324152Y322210D01*
X321848Y322210D01*
G37*
G36*
X263848Y266210D02*
X261720Y267092D01*
X260092Y268720D01*
X259210Y270848D01*
X259210Y273152D01*
X260092Y275280D01*
X261720Y276909D01*
X263848Y277790D01*
X266152Y277790D01*
X268280Y276909D01*
X269909Y275280D01*
X270790Y273152D01*
X270790Y270848D01*
X269909Y268720D01*
X268280Y267092D01*
X266152Y266210D01*
X263848Y266210D01*
G37*
G36*
X283848Y199210D02*
X281720Y200092D01*
X280092Y201720D01*
X279210Y203848D01*
X279210Y206152D01*
X280092Y208280D01*
X281720Y209909D01*
X283848Y210790D01*
X286152Y210790D01*
X288280Y209909D01*
X289909Y208280D01*
X290790Y206152D01*
X290790Y203848D01*
X289909Y201720D01*
X288280Y200092D01*
X286152Y199210D01*
X283848Y199210D01*
G37*
G36*
X287848Y126210D02*
X285720Y127092D01*
X284092Y128720D01*
X283210Y130848D01*
X283210Y133152D01*
X284092Y135280D01*
X285720Y136909D01*
X287848Y137790D01*
X290152Y137790D01*
X292280Y136909D01*
X293909Y135280D01*
X294790Y133152D01*
X294790Y130848D01*
X293909Y128720D01*
X292280Y127092D01*
X290152Y126210D01*
X287848Y126210D01*
G37*
G36*
X317134Y35125D02*
X314056Y36400D01*
X311700Y38756D01*
X310425Y41834D01*
X310425Y45166D01*
X311700Y48244D01*
X314056Y50600D01*
X317134Y51875D01*
X320466Y51875D01*
X323544Y50600D01*
X325900Y48244D01*
X327175Y45166D01*
X327175Y41834D01*
X325900Y38756D01*
X323544Y36400D01*
X320466Y35125D01*
X317134Y35125D01*
G37*
G36*
X291734Y35125D02*
X288656Y36400D01*
X286300Y38756D01*
X285025Y41834D01*
X285025Y45166D01*
X286300Y48244D01*
X288656Y50600D01*
X291734Y51875D01*
X295066Y51875D01*
X298144Y50600D01*
X300500Y48244D01*
X301775Y45166D01*
X301775Y41834D01*
X300500Y38756D01*
X298144Y36400D01*
X295066Y35125D01*
X291734Y35125D01*
G37*
G36*
X330188Y15750D02*
X328565Y16687D01*
X328386Y16775D01*
X327277Y17234D01*
X326955Y17556D01*
X326640Y17798D01*
X325663Y18363D01*
X325098Y19340D01*
X324856Y19655D01*
X324534Y19977D01*
X324075Y21086D01*
X323987Y21265D01*
X323050Y22888D01*
X323050Y28113D01*
X323987Y29735D01*
X324075Y29914D01*
X324534Y31023D01*
X324856Y31345D01*
X325098Y31660D01*
X325663Y32638D01*
X326640Y33202D01*
X326955Y33444D01*
X327277Y33766D01*
X328386Y34225D01*
X328565Y34313D01*
X330188Y35250D01*
X335413Y35250D01*
X337035Y34313D01*
X337214Y34225D01*
X338323Y33766D01*
X338645Y33444D01*
X338960Y33202D01*
X339938Y32638D01*
X340502Y31660D01*
X340744Y31345D01*
X341066Y31023D01*
X341525Y29914D01*
X341613Y29735D01*
X342550Y28113D01*
X342550Y22888D01*
X341613Y21265D01*
X341525Y21086D01*
X341066Y19977D01*
X340744Y19655D01*
X340502Y19340D01*
X339938Y18363D01*
X338960Y17798D01*
X338645Y17556D01*
X338323Y17234D01*
X337214Y16775D01*
X337035Y16687D01*
X335413Y15750D01*
X330188Y15750D01*
G37*
G36*
X304434Y9725D02*
X301356Y11000D01*
X299000Y13356D01*
X297725Y16434D01*
X297725Y19766D01*
X299000Y22844D01*
X301356Y25200D01*
X304434Y26475D01*
X307766Y26475D01*
X310844Y25200D01*
X313200Y22844D01*
X314475Y19766D01*
X314475Y16434D01*
X313200Y13356D01*
X310844Y11000D01*
X307766Y9725D01*
X304434Y9725D01*
G37*
G36*
X279034Y9725D02*
X275956Y11000D01*
X273600Y13356D01*
X272325Y16434D01*
X272325Y19766D01*
X273600Y22844D01*
X275956Y25200D01*
X279034Y26475D01*
X282366Y26475D01*
X285444Y25200D01*
X287800Y22844D01*
X289075Y19766D01*
X289075Y16434D01*
X287800Y13356D01*
X285444Y11000D01*
X282366Y9725D01*
X279034Y9725D01*
G37*
%LPD*%
G36*
X453315Y5067D02*
X454315Y5753D01*
X454969Y6775D01*
X455174Y7874D01*
X455174Y153213D01*
X454933Y154402D01*
X454247Y155403D01*
X453225Y156056D01*
X452029Y156260D01*
X450960Y156029D01*
X448196Y154884D01*
X447190Y154206D01*
X446528Y153190D01*
X446314Y152068D01*
X446314Y149545D01*
X445201Y146857D01*
X443143Y144800D01*
X440455Y143686D01*
X437545Y143686D01*
X434857Y144800D01*
X432800Y146857D01*
X431686Y149545D01*
X431686Y152455D01*
X432800Y155143D01*
X434857Y157201D01*
X437066Y158116D01*
X438072Y158794D01*
X438734Y159810D01*
X438948Y160932D01*
X438948Y163455D01*
X440062Y166143D01*
X442119Y168201D01*
X444807Y169314D01*
X447717Y169314D01*
X450960Y167971D01*
X452150Y167739D01*
X453337Y167990D01*
X454332Y168684D01*
X454978Y169711D01*
X455174Y170787D01*
X455174Y287063D01*
X454933Y288252D01*
X454247Y289253D01*
X453225Y289907D01*
X452029Y290110D01*
X450848Y289831D01*
X449971Y289219D01*
X448763Y288011D01*
X448196Y287776D01*
X447190Y287098D01*
X446528Y286082D01*
X446314Y284960D01*
X446314Y283545D01*
X445201Y280857D01*
X443143Y278800D01*
X440455Y277686D01*
X437545Y277686D01*
X434857Y278800D01*
X432800Y280857D01*
X431686Y283545D01*
X431686Y286455D01*
X432800Y289143D01*
X434857Y291201D01*
X435816Y291598D01*
X436822Y292276D01*
X437484Y293293D01*
X437698Y294414D01*
X437698Y295405D01*
X438773Y298001D01*
X440761Y299989D01*
X443357Y301064D01*
X446167Y301064D01*
X448763Y299989D01*
X449971Y298781D01*
X450982Y298111D01*
X452175Y297889D01*
X453359Y298149D01*
X454349Y298851D01*
X454986Y299883D01*
X455174Y300937D01*
X455174Y401825D01*
X454933Y403014D01*
X454247Y404015D01*
X453225Y404669D01*
X452029Y404872D01*
X450848Y404593D01*
X449971Y403981D01*
X449001Y403011D01*
X446405Y401936D01*
X443595Y401936D01*
X440999Y403011D01*
X439011Y404999D01*
X437936Y407595D01*
X437936Y410405D01*
X439199Y413455D01*
X439348Y413679D01*
X439570Y414872D01*
X439310Y416057D01*
X438678Y416979D01*
X437799Y417857D01*
X436686Y420545D01*
X436686Y423455D01*
X437800Y426143D01*
X439857Y428201D01*
X442545Y429314D01*
X445455Y429314D01*
X448143Y428201D01*
X449971Y426373D01*
X450982Y425703D01*
X452175Y425480D01*
X453359Y425741D01*
X454349Y426443D01*
X454986Y427475D01*
X455174Y428528D01*
X455174Y435707D01*
X454933Y436896D01*
X454247Y437896D01*
X453225Y438550D01*
X452029Y438754D01*
X450848Y438474D01*
X449971Y437862D01*
X449718Y437610D01*
X447306Y436611D01*
X444694Y436611D01*
X442282Y437610D01*
X440435Y439456D01*
X439436Y441869D01*
X439436Y444480D01*
X440435Y446893D01*
X442282Y448739D01*
X444694Y449739D01*
X447306Y449739D01*
X449718Y448739D01*
X449971Y448487D01*
X450982Y447817D01*
X452175Y447594D01*
X453359Y447855D01*
X454349Y448556D01*
X454986Y449589D01*
X455174Y450642D01*
X455174Y492126D01*
X454933Y493315D01*
X454247Y494315D01*
X453225Y494969D01*
X452126Y495174D01*
X355921Y495174D01*
X354732Y494933D01*
X353732Y494247D01*
X353078Y493225D01*
X352874Y492029D01*
X353105Y490960D01*
X353314Y490455D01*
X353314Y487545D01*
X352201Y484857D01*
X351999Y484655D01*
X351329Y483644D01*
X351106Y482451D01*
X351367Y481267D01*
X351999Y480345D01*
X354201Y478143D01*
X355314Y475455D01*
X355314Y472545D01*
X354201Y469857D01*
X352143Y467800D01*
X349455Y466686D01*
X346545Y466686D01*
X343857Y467800D01*
X343066Y468590D01*
X342055Y469260D01*
X340862Y469483D01*
X339677Y469223D01*
X338688Y468521D01*
X338367Y468023D01*
X336143Y465800D01*
X333455Y464686D01*
X330545Y464686D01*
X327857Y465800D01*
X325800Y467857D01*
X324686Y470545D01*
X324686Y473455D01*
X325800Y476143D01*
X327590Y477934D01*
X328260Y478945D01*
X328483Y480138D01*
X328223Y481323D01*
X327521Y482312D01*
X327023Y482633D01*
X324800Y484857D01*
X323686Y487545D01*
X323686Y490455D01*
X323895Y490960D01*
X324127Y492150D01*
X323876Y493337D01*
X323182Y494332D01*
X322155Y494978D01*
X321079Y495174D01*
X281048Y495174D01*
X279859Y494933D01*
X278859Y494247D01*
X278205Y493225D01*
X278000Y492126D01*
X278000Y441136D01*
X278241Y439947D01*
X278927Y438947D01*
X279949Y438293D01*
X281135Y438089D01*
X371540Y440665D01*
X372354Y440800D01*
X372882Y440964D01*
X372992Y440988D01*
X373000Y440943D01*
X373000Y440933D01*
X373000Y366993D01*
X373241Y365804D01*
X373927Y364804D01*
X374949Y364150D01*
X376145Y363947D01*
X377214Y364177D01*
X377545Y364314D01*
X380455Y364314D01*
X383143Y363201D01*
X385201Y361143D01*
X386314Y358455D01*
X386314Y355545D01*
X385771Y354234D01*
X385539Y353043D01*
X385790Y351856D01*
X386085Y351422D01*
X387314Y348455D01*
X387314Y345292D01*
X387555Y344103D01*
X388207Y343137D01*
X390201Y341143D01*
X391314Y338455D01*
X391314Y335545D01*
X390201Y332857D01*
X388143Y330800D01*
X385455Y329686D01*
X382545Y329686D01*
X381166Y330257D01*
X379976Y330489D01*
X378834Y330257D01*
X377455Y329686D01*
X376048Y329686D01*
X374859Y329445D01*
X373859Y328759D01*
X373205Y327737D01*
X373000Y326638D01*
X373000Y240165D01*
X373241Y238976D01*
X373927Y237975D01*
X374949Y237322D01*
X376145Y237118D01*
X377214Y237349D01*
X379545Y238314D01*
X382455Y238314D01*
X385143Y237201D01*
X387201Y235143D01*
X388314Y232455D01*
X388314Y229545D01*
X387201Y226857D01*
X386999Y226655D01*
X386329Y225644D01*
X386106Y224451D01*
X386367Y223267D01*
X386999Y222345D01*
X387201Y222143D01*
X388314Y219455D01*
X388314Y216545D01*
X387201Y213857D01*
X387017Y213674D01*
X386347Y212662D01*
X386125Y211470D01*
X386314Y210558D01*
X386314Y207545D01*
X385201Y204857D01*
X383143Y202800D01*
X380455Y201686D01*
X377545Y201686D01*
X377214Y201823D01*
X376024Y202055D01*
X374837Y201804D01*
X373842Y201110D01*
X373196Y200083D01*
X373000Y199007D01*
X373000Y104539D01*
X373241Y103350D01*
X373927Y102350D01*
X374882Y101723D01*
X375473Y101478D01*
X376664Y101246D01*
X377851Y101497D01*
X378795Y102139D01*
X378857Y102201D01*
X381545Y103314D01*
X384455Y103314D01*
X387143Y102201D01*
X389201Y100143D01*
X390314Y97455D01*
X390314Y94545D01*
X389201Y91857D01*
X386714Y89371D01*
X386715Y89370D01*
X386676Y89344D01*
X386015Y88327D01*
X385802Y87133D01*
X386072Y85950D01*
X386783Y84967D01*
X387683Y84391D01*
X388143Y84200D01*
X390201Y82143D01*
X391314Y79455D01*
X391314Y76545D01*
X390201Y73857D01*
X388143Y71800D01*
X385455Y70686D01*
X382545Y70686D01*
X379543Y71930D01*
X379077Y72238D01*
X377884Y72461D01*
X376766Y72229D01*
X374895Y71454D01*
X374896Y71452D01*
X374859Y71445D01*
X373859Y70759D01*
X373205Y69737D01*
X373000Y68638D01*
X373000Y7874D01*
X373241Y6685D01*
X373927Y5685D01*
X374949Y5031D01*
X376048Y4826D01*
X452126Y4826D01*
X453315Y5067D01*
G37*
%LPC*%
G36*
X311545Y454686D02*
X308857Y455800D01*
X306800Y457857D01*
X305686Y460545D01*
X305686Y463455D01*
X306800Y466143D01*
X308857Y468201D01*
X311545Y469314D01*
X314455Y469314D01*
X317143Y468201D01*
X319201Y466143D01*
X320314Y463455D01*
X320314Y460545D01*
X319201Y457857D01*
X317143Y455800D01*
X314455Y454686D01*
X311545Y454686D01*
G37*
G36*
X414545Y14686D02*
X411857Y15800D01*
X409800Y17857D01*
X408686Y20545D01*
X408686Y23455D01*
X409800Y26143D01*
X411857Y28201D01*
X414545Y29314D01*
X417455Y29314D01*
X420143Y28201D01*
X422201Y26143D01*
X423314Y23455D01*
X423314Y20545D01*
X422201Y17857D01*
X420143Y15800D01*
X417455Y14686D01*
X414545Y14686D01*
G37*
%LPD*%
D10*
X318800Y43500D03*
X306100Y18100D03*
X293400Y43500D03*
X280700Y18100D03*
X230600Y43500D03*
X217900Y18100D03*
X205200Y43500D03*
X192500Y18100D03*
X58238Y43500D03*
X45538Y18100D03*
X32838Y43500D03*
X20138Y18100D03*
X145800Y42500D03*
X133100Y17100D03*
X120400Y42500D03*
X107700Y17100D03*
X176250Y444000D03*
X101750Y444000D03*
D11*
X177750Y482000D03*
X100250Y482000D03*
D12*
X119000Y241000D03*
X220000Y270000D03*
X200000Y130000D03*
X213000Y187000D03*
X54000Y309000D03*
X55000Y489456D03*
X17000Y489000D03*
X218000Y426000D03*
X216000Y404000D03*
X209000Y359000D03*
X196000Y409000D03*
X205000Y399646D03*
X188000Y364314D03*
X68000Y335000D03*
X43000Y489000D03*
D13*
X164000Y473000D03*
D12*
X121000Y443000D03*
X75000Y292000D03*
X95000Y292000D03*
X265000Y272000D03*
X369000Y209000D03*
X381000Y231000D03*
X379000Y209000D03*
X381000Y218000D03*
X313000Y462000D03*
X444000Y422000D03*
X371000Y357000D03*
X379000Y357000D03*
X376000Y337000D03*
X368000Y340000D03*
X384000Y337000D03*
X380000Y347000D03*
X372000Y95000D03*
X366000Y79000D03*
X374000Y79000D03*
X384000Y78000D03*
X323000Y328000D03*
X285000Y205000D03*
X439000Y285000D03*
X289000Y132000D03*
X416000Y22000D03*
X439000Y151000D03*
X331000Y489000D03*
X346000Y489000D03*
X332000Y472000D03*
X348000Y474000D03*
X370000Y220000D03*
X370000Y231000D03*
X446262Y162000D03*
D13*
X446000Y443175D03*
D14*
X445000Y409000D03*
X444762Y294000D03*
D12*
X364000Y94000D03*
X383000Y96000D03*
X263000Y492012D03*
X263000Y484000D03*
X263000Y476000D03*
X292000Y340000D03*
X353000Y125000D03*
X342000Y171000D03*
X300000Y174000D03*
X351000Y264000D03*
X354000Y377000D03*
X352000Y37000D03*
X279000Y415000D03*
X339000Y296000D03*
X182000Y171000D03*
X208000Y345000D03*
X81000Y476000D03*
X221000Y493000D03*
X165000Y409000D03*
X187231Y381800D03*
X75000Y307000D03*
X94180Y307346D03*
X281000Y447000D03*
X399000Y422000D03*
X408000Y423000D03*
X418000Y423000D03*
X429000Y422000D03*
X424000Y412000D03*
X411000Y411000D03*
D13*
X405000Y274000D03*
X411000Y276000D03*
X411000Y147000D03*
X406000Y144000D03*
D12*
X413000Y432000D03*
X400000Y434000D03*
X143000Y372000D03*
X11000Y192000D03*
X118000Y161000D03*
D13*
X146500Y458500D03*
X135000Y464000D03*
D12*
X135000Y389000D03*
X17000Y400000D03*
X114000Y265000D03*
X202000Y438000D03*
D13*
X138000Y479000D03*
M02*
