G04 EAGLE Gerber RS-274X export*
G75*
%MOMM*%
%FSLAX34Y34*%
%LPD*%
%INBottom Copper*%
%IPPOS*%
%AMOC8*
5,1,8,0,0,1.08239X$1,22.5*%
G01*
G04 Define Apertures*
%ADD10R,0.920900X0.970200*%
%ADD11R,0.970200X0.920900*%
%ADD12R,1.100000X0.600000*%
%ADD13R,1.275000X1.275000*%
%ADD14C,1.275000*%
%ADD15R,0.600000X1.200000*%
%ADD16R,1.164600X1.815300*%
%ADD17R,0.973900X0.798700*%
%ADD18R,0.511800X0.911800*%
%ADD19C,1.275000*%
%ADD20C,0.900000*%
%ADD21C,0.650000*%
%ADD22C,0.304800*%
%ADD23C,0.500000*%
%ADD24C,0.600000*%
%ADD25C,0.508000*%
%ADD26C,0.812800*%
G36*
X456308Y2883D02*
X456809Y3226D01*
X457136Y3737D01*
X457238Y4286D01*
X457238Y495714D01*
X457117Y496308D01*
X456774Y496809D01*
X456263Y497136D01*
X455714Y497238D01*
X310624Y497238D01*
X310030Y497117D01*
X309529Y496774D01*
X309202Y496263D01*
X309100Y495714D01*
X309100Y483672D01*
X307928Y482500D01*
X300272Y482500D01*
X299100Y483672D01*
X299100Y495714D01*
X298979Y496308D01*
X298636Y496809D01*
X298125Y497136D01*
X297576Y497238D01*
X291624Y497238D01*
X291030Y497117D01*
X290529Y496774D01*
X290202Y496263D01*
X290100Y495714D01*
X290100Y483672D01*
X288928Y482500D01*
X281272Y482500D01*
X280100Y483672D01*
X280100Y495714D01*
X279979Y496308D01*
X279636Y496809D01*
X279125Y497136D01*
X278576Y497238D01*
X269383Y497238D01*
X268789Y497117D01*
X268289Y496774D01*
X267962Y496263D01*
X267860Y495665D01*
X267975Y495131D01*
X268433Y494026D01*
X268763Y493532D01*
X268771Y493524D01*
X269583Y491563D01*
X269583Y489441D01*
X268699Y487307D01*
X268583Y486724D01*
X268583Y485955D01*
X268699Y485371D01*
X268790Y485152D01*
X268790Y482848D01*
X268699Y482629D01*
X268583Y482045D01*
X268583Y477955D01*
X268699Y477371D01*
X268790Y477152D01*
X268790Y474632D01*
X268753Y474444D01*
X268879Y473851D01*
X269200Y473379D01*
X270100Y472479D01*
X270100Y470834D01*
X270221Y470240D01*
X270564Y469739D01*
X271075Y469412D01*
X271624Y469310D01*
X278576Y469310D01*
X279170Y469431D01*
X279671Y469774D01*
X279998Y470285D01*
X280100Y470834D01*
X280100Y472328D01*
X281272Y473500D01*
X289008Y473500D01*
X289278Y473321D01*
X289874Y473210D01*
X290467Y473340D01*
X290700Y473500D01*
X298428Y473500D01*
X299600Y472328D01*
X299600Y458672D01*
X298273Y457345D01*
X297823Y457036D01*
X297496Y456525D01*
X297394Y455976D01*
X297394Y454724D01*
X297515Y454130D01*
X297840Y453647D01*
X299159Y452328D01*
X299159Y440970D01*
X297987Y439798D01*
X287121Y439798D01*
X285830Y441089D01*
X285829Y441097D01*
X285486Y441597D01*
X284975Y441924D01*
X284377Y442026D01*
X283842Y441910D01*
X282152Y441210D01*
X279848Y441210D01*
X277720Y442092D01*
X276092Y443720D01*
X275210Y445848D01*
X275210Y448152D01*
X276092Y450280D01*
X277720Y451909D01*
X279848Y452790D01*
X282152Y452790D01*
X284223Y451932D01*
X284818Y451816D01*
X285412Y451942D01*
X285884Y452263D01*
X287121Y453500D01*
X290282Y453500D01*
X290876Y453621D01*
X291377Y453964D01*
X291704Y454475D01*
X291806Y455024D01*
X291806Y455976D01*
X291685Y456570D01*
X291342Y457071D01*
X290950Y457322D01*
X290928Y457344D01*
X290422Y457679D01*
X289826Y457790D01*
X289233Y457660D01*
X289000Y457500D01*
X281272Y457500D01*
X280100Y458672D01*
X280100Y460166D01*
X279979Y460760D01*
X279636Y461261D01*
X279125Y461588D01*
X278576Y461690D01*
X270808Y461690D01*
X270214Y461569D01*
X269731Y461244D01*
X268928Y460442D01*
X258524Y460442D01*
X257930Y460321D01*
X257429Y459978D01*
X257102Y459467D01*
X257000Y458918D01*
X257000Y434095D01*
X257121Y433501D01*
X257464Y433001D01*
X257975Y432674D01*
X258573Y432572D01*
X259163Y432712D01*
X259384Y432866D01*
X270845Y432866D01*
X272271Y431440D01*
X272776Y431105D01*
X273348Y430994D01*
X285017Y430994D01*
X285611Y431115D01*
X286112Y431458D01*
X286439Y431969D01*
X286541Y432518D01*
X286541Y433587D01*
X287713Y434759D01*
X294487Y434759D01*
X295659Y433587D01*
X295659Y422813D01*
X294487Y421641D01*
X287713Y421641D01*
X286541Y422813D01*
X286541Y423882D01*
X286420Y424476D01*
X286077Y424977D01*
X285566Y425304D01*
X285017Y425406D01*
X273541Y425406D01*
X272947Y425285D01*
X272446Y424942D01*
X272119Y424431D01*
X272017Y423882D01*
X272017Y422050D01*
X270845Y420879D01*
X259372Y420879D01*
X259096Y421061D01*
X258500Y421173D01*
X257907Y421042D01*
X257413Y420692D01*
X257094Y420175D01*
X257000Y419649D01*
X257000Y417791D01*
X257121Y417197D01*
X257464Y416697D01*
X257975Y416370D01*
X258573Y416268D01*
X259163Y416408D01*
X259384Y416562D01*
X270845Y416562D01*
X271025Y416382D01*
X271530Y416047D01*
X272127Y415936D01*
X272719Y416066D01*
X273214Y416417D01*
X273510Y416877D01*
X274092Y418280D01*
X275720Y419909D01*
X277848Y420790D01*
X280152Y420790D01*
X282280Y419909D01*
X283909Y418280D01*
X284790Y416152D01*
X284790Y413848D01*
X283909Y411720D01*
X282280Y410092D01*
X280152Y409210D01*
X277793Y409210D01*
X277198Y409089D01*
X276715Y408764D01*
X275725Y407774D01*
X273541Y407774D01*
X272947Y407653D01*
X272446Y407310D01*
X272119Y406799D01*
X272017Y406250D01*
X272017Y405746D01*
X270845Y404575D01*
X259372Y404575D01*
X259096Y404757D01*
X258500Y404869D01*
X257907Y404738D01*
X257413Y404388D01*
X257094Y403871D01*
X257000Y403345D01*
X257000Y396519D01*
X257121Y395925D01*
X257464Y395425D01*
X257941Y395111D01*
X259630Y394412D01*
X264412Y389630D01*
X267000Y383382D01*
X267000Y376619D01*
X264412Y370370D01*
X259630Y365588D01*
X257941Y364889D01*
X257438Y364550D01*
X257107Y364041D01*
X257000Y363481D01*
X257000Y106519D01*
X257121Y105925D01*
X257464Y105425D01*
X257941Y105111D01*
X259630Y104412D01*
X264412Y99630D01*
X267000Y93382D01*
X267000Y86619D01*
X264412Y80370D01*
X259630Y75588D01*
X257941Y74889D01*
X257438Y74550D01*
X257107Y74041D01*
X257000Y73481D01*
X257000Y4286D01*
X257121Y3692D01*
X257464Y3191D01*
X257975Y2864D01*
X258524Y2762D01*
X455714Y2762D01*
X456308Y2883D01*
G37*
%LPC*%
G36*
X407499Y133471D02*
X407276Y133619D01*
X406704Y133730D01*
X392994Y133730D01*
X392638Y133767D01*
X392448Y133825D01*
X392256Y133920D01*
X392084Y134047D01*
X391935Y134200D01*
X391798Y134401D01*
X391618Y134617D01*
X390915Y135321D01*
X390915Y146748D01*
X391115Y147050D01*
X391226Y147646D01*
X391096Y148238D01*
X390780Y148699D01*
X389931Y149548D01*
X389931Y169358D01*
X390872Y170299D01*
X391207Y170805D01*
X391318Y171401D01*
X391188Y171993D01*
X390872Y172454D01*
X389931Y173395D01*
X389931Y193205D01*
X390733Y194006D01*
X391067Y194512D01*
X391179Y195096D01*
X390541Y277366D01*
X390416Y277959D01*
X390095Y278431D01*
X389931Y278595D01*
X389931Y298409D01*
X390258Y298903D01*
X390370Y299487D01*
X390346Y302561D01*
X390220Y303154D01*
X389931Y303580D01*
X389931Y323507D01*
X390066Y323711D01*
X390177Y324294D01*
X389614Y397002D01*
X389488Y397596D01*
X389167Y398068D01*
X388915Y398321D01*
X388915Y409679D01*
X389060Y409824D01*
X389394Y410330D01*
X389506Y410913D01*
X389049Y469905D01*
X389089Y470292D01*
X389146Y470476D01*
X389243Y470667D01*
X389371Y470838D01*
X389526Y470986D01*
X389703Y471105D01*
X389898Y471193D01*
X390105Y471246D01*
X390382Y471270D01*
X432917Y471270D01*
X433289Y471230D01*
X433476Y471171D01*
X433667Y471075D01*
X433838Y470947D01*
X433986Y470792D01*
X434105Y470615D01*
X434193Y470420D01*
X434246Y470213D01*
X434270Y469936D01*
X434270Y424710D01*
X434386Y424127D01*
X434790Y423152D01*
X434790Y420848D01*
X434386Y419873D01*
X434270Y419290D01*
X434270Y135083D01*
X434230Y134711D01*
X434171Y134524D01*
X434075Y134333D01*
X433947Y134162D01*
X433792Y134014D01*
X433615Y133895D01*
X433420Y133807D01*
X433213Y133754D01*
X432936Y133730D01*
X421788Y133730D01*
X421194Y133609D01*
X420988Y133471D01*
X407499Y133471D01*
G37*
G36*
X352848Y371210D02*
X350720Y372092D01*
X349092Y373720D01*
X348210Y375848D01*
X348210Y378152D01*
X349092Y380280D01*
X350720Y381909D01*
X352848Y382790D01*
X355152Y382790D01*
X357280Y381909D01*
X358909Y380280D01*
X359790Y378152D01*
X359790Y375848D01*
X358909Y373720D01*
X357280Y372092D01*
X355152Y371210D01*
X352848Y371210D01*
G37*
G36*
X290848Y334210D02*
X288720Y335092D01*
X287092Y336720D01*
X286210Y338848D01*
X286210Y341152D01*
X287092Y343280D01*
X288720Y344909D01*
X290848Y345790D01*
X293152Y345790D01*
X295280Y344909D01*
X296909Y343280D01*
X297790Y341152D01*
X297790Y338848D01*
X296909Y336720D01*
X295280Y335092D01*
X293152Y334210D01*
X290848Y334210D01*
G37*
G36*
X337848Y290210D02*
X335720Y291092D01*
X334092Y292720D01*
X333210Y294848D01*
X333210Y297152D01*
X334092Y299280D01*
X335720Y300909D01*
X337848Y301790D01*
X340152Y301790D01*
X342280Y300909D01*
X343909Y299280D01*
X344790Y297152D01*
X344790Y294848D01*
X343909Y292720D01*
X342280Y291092D01*
X340152Y290210D01*
X337848Y290210D01*
G37*
G36*
X349848Y258210D02*
X347720Y259092D01*
X346092Y260720D01*
X345210Y262848D01*
X345210Y265152D01*
X346092Y267280D01*
X347720Y268909D01*
X349848Y269790D01*
X352152Y269790D01*
X354280Y268909D01*
X355909Y267280D01*
X356790Y265152D01*
X356790Y262848D01*
X355909Y260720D01*
X354280Y259092D01*
X352152Y258210D01*
X349848Y258210D01*
G37*
G36*
X298848Y168210D02*
X296720Y169092D01*
X295092Y170720D01*
X294210Y172848D01*
X294210Y175152D01*
X295092Y177280D01*
X296720Y178909D01*
X298848Y179790D01*
X301152Y179790D01*
X303280Y178909D01*
X304909Y177280D01*
X305790Y175152D01*
X305790Y172848D01*
X304909Y170720D01*
X303280Y169092D01*
X301152Y168210D01*
X298848Y168210D01*
G37*
G36*
X340848Y165210D02*
X338720Y166092D01*
X337092Y167720D01*
X336210Y169848D01*
X336210Y172152D01*
X337092Y174280D01*
X338720Y175909D01*
X340848Y176790D01*
X343152Y176790D01*
X345280Y175909D01*
X346909Y174280D01*
X347790Y172152D01*
X347790Y169848D01*
X346909Y167720D01*
X345280Y166092D01*
X343152Y165210D01*
X340848Y165210D01*
G37*
G36*
X351848Y119210D02*
X349720Y120092D01*
X348092Y121720D01*
X347210Y123848D01*
X347210Y126152D01*
X348092Y128280D01*
X349720Y129909D01*
X351848Y130790D01*
X354152Y130790D01*
X356280Y129909D01*
X357909Y128280D01*
X358790Y126152D01*
X358790Y123848D01*
X357909Y121720D01*
X356280Y120092D01*
X354152Y119210D01*
X351848Y119210D01*
G37*
G36*
X291734Y35125D02*
X288656Y36400D01*
X286300Y38756D01*
X285025Y41834D01*
X285025Y45166D01*
X286300Y48244D01*
X288656Y50600D01*
X291734Y51875D01*
X295066Y51875D01*
X298144Y50600D01*
X300500Y48244D01*
X301775Y45166D01*
X301775Y41834D01*
X300500Y38756D01*
X298144Y36400D01*
X295066Y35125D01*
X291734Y35125D01*
G37*
G36*
X350848Y31210D02*
X348720Y32092D01*
X347092Y33720D01*
X346210Y35848D01*
X346210Y38152D01*
X347092Y40280D01*
X348720Y41909D01*
X350848Y42790D01*
X353152Y42790D01*
X355280Y41909D01*
X356909Y40280D01*
X357790Y38152D01*
X357790Y35848D01*
X356909Y33720D01*
X355280Y32092D01*
X353152Y31210D01*
X350848Y31210D01*
G37*
G36*
X330188Y15750D02*
X328565Y16687D01*
X328386Y16775D01*
X327277Y17234D01*
X326955Y17556D01*
X326640Y17798D01*
X325663Y18363D01*
X325098Y19340D01*
X324856Y19655D01*
X324534Y19977D01*
X324075Y21086D01*
X323987Y21265D01*
X323050Y22888D01*
X323050Y28113D01*
X323987Y29735D01*
X324075Y29914D01*
X324534Y31023D01*
X324856Y31345D01*
X325098Y31660D01*
X325663Y32638D01*
X326640Y33202D01*
X326955Y33444D01*
X327277Y33766D01*
X328386Y34225D01*
X328565Y34313D01*
X330188Y35250D01*
X335413Y35250D01*
X337035Y34313D01*
X337214Y34225D01*
X338323Y33766D01*
X338645Y33444D01*
X338960Y33202D01*
X339938Y32638D01*
X340502Y31660D01*
X340744Y31345D01*
X341066Y31023D01*
X341525Y29914D01*
X341613Y29735D01*
X342550Y28113D01*
X342550Y22888D01*
X341613Y21265D01*
X341525Y21086D01*
X341066Y19977D01*
X340744Y19655D01*
X340502Y19340D01*
X339938Y18363D01*
X338960Y17798D01*
X338645Y17556D01*
X338323Y17234D01*
X337214Y16775D01*
X337035Y16687D01*
X335413Y15750D01*
X330188Y15750D01*
G37*
G36*
X304434Y9725D02*
X301356Y11000D01*
X299000Y13356D01*
X297725Y16434D01*
X297725Y19766D01*
X299000Y22844D01*
X301356Y25200D01*
X304434Y26475D01*
X307766Y26475D01*
X310844Y25200D01*
X313200Y22844D01*
X314475Y19766D01*
X314475Y16434D01*
X313200Y13356D01*
X310844Y11000D01*
X307766Y9725D01*
X304434Y9725D01*
G37*
G36*
X279034Y9725D02*
X275956Y11000D01*
X273600Y13356D01*
X272325Y16434D01*
X272325Y19766D01*
X273600Y22844D01*
X275956Y25200D01*
X279034Y26475D01*
X282366Y26475D01*
X285444Y25200D01*
X287800Y22844D01*
X289075Y19766D01*
X289075Y16434D01*
X287800Y13356D01*
X285444Y11000D01*
X282366Y9725D01*
X279034Y9725D01*
G37*
%LPD*%
G36*
X234070Y2883D02*
X234571Y3226D01*
X234898Y3737D01*
X235000Y4286D01*
X235000Y22219D01*
X234850Y22779D01*
X234850Y28221D01*
X235000Y28781D01*
X235000Y81487D01*
X234884Y82070D01*
X233000Y86619D01*
X233000Y93382D01*
X234884Y97930D01*
X235000Y98513D01*
X235000Y371487D01*
X234884Y372070D01*
X233000Y376619D01*
X233000Y383382D01*
X234884Y387930D01*
X235000Y388513D01*
X235000Y495714D01*
X234879Y496308D01*
X234536Y496809D01*
X234025Y497136D01*
X233476Y497238D01*
X227792Y497238D01*
X227198Y497117D01*
X226698Y496774D01*
X226371Y496263D01*
X226269Y495665D01*
X226384Y495131D01*
X226790Y494152D01*
X226790Y491848D01*
X225909Y489720D01*
X224240Y488052D01*
X223905Y487546D01*
X223794Y486950D01*
X223924Y486358D01*
X224275Y485863D01*
X224791Y485544D01*
X225318Y485451D01*
X227379Y485451D01*
X228551Y484279D01*
X228551Y473413D01*
X227379Y472242D01*
X216021Y472242D01*
X214523Y473739D01*
X214017Y474074D01*
X213421Y474185D01*
X212829Y474055D01*
X212368Y473739D01*
X211128Y472500D01*
X203472Y472500D01*
X202300Y473672D01*
X202300Y487328D01*
X203472Y488500D01*
X206717Y488500D01*
X207312Y488621D01*
X207795Y488946D01*
X213485Y494636D01*
X213820Y495142D01*
X213931Y495738D01*
X213801Y496331D01*
X213450Y496825D01*
X212934Y497144D01*
X212407Y497238D01*
X4286Y497238D01*
X3692Y497117D01*
X3191Y496774D01*
X2864Y496263D01*
X2762Y495714D01*
X2762Y194903D01*
X2883Y194309D01*
X3226Y193809D01*
X3737Y193482D01*
X4335Y193380D01*
X4925Y193520D01*
X5414Y193879D01*
X5694Y194320D01*
X6092Y195280D01*
X7720Y196909D01*
X9848Y197790D01*
X12152Y197790D01*
X14280Y196909D01*
X15909Y195280D01*
X16790Y193152D01*
X16790Y190793D01*
X16911Y190198D01*
X17236Y189715D01*
X42711Y164240D01*
X43217Y163905D01*
X43789Y163794D01*
X111974Y163794D01*
X112569Y163915D01*
X113052Y164240D01*
X114720Y165909D01*
X116848Y166790D01*
X119152Y166790D01*
X121280Y165909D01*
X122909Y164280D01*
X123790Y162152D01*
X123790Y159848D01*
X122909Y157720D01*
X121280Y156092D01*
X119152Y155210D01*
X116848Y155210D01*
X114720Y156092D01*
X113052Y157760D01*
X112546Y158095D01*
X111974Y158206D01*
X40843Y158206D01*
X13285Y185764D01*
X12779Y186099D01*
X12207Y186210D01*
X9848Y186210D01*
X7720Y187092D01*
X6092Y188720D01*
X5694Y189680D01*
X5355Y190183D01*
X4847Y190514D01*
X4250Y190620D01*
X3658Y190485D01*
X3166Y190130D01*
X2852Y189612D01*
X2762Y189097D01*
X2762Y4286D01*
X2883Y3692D01*
X3226Y3191D01*
X3737Y2864D01*
X4286Y2762D01*
X233476Y2762D01*
X234070Y2883D01*
G37*
%LPC*%
G36*
X136998Y473960D02*
X135145Y474727D01*
X133727Y476145D01*
X133059Y477759D01*
X132720Y478262D01*
X132211Y478593D01*
X131651Y478700D01*
X120472Y478700D01*
X119300Y479872D01*
X119300Y487528D01*
X120472Y488700D01*
X133128Y488700D01*
X134300Y487528D01*
X134300Y487018D01*
X134421Y486424D01*
X134764Y485923D01*
X135275Y485596D01*
X135373Y485578D01*
X136465Y484486D01*
X136971Y484151D01*
X137543Y484040D01*
X139003Y484040D01*
X140855Y483273D01*
X141698Y482429D01*
X142204Y482094D01*
X142800Y481983D01*
X143393Y482113D01*
X143887Y482464D01*
X144206Y482980D01*
X144300Y483507D01*
X144300Y487528D01*
X145472Y488700D01*
X158128Y488700D01*
X159300Y487528D01*
X159300Y479872D01*
X158128Y478700D01*
X145421Y478700D01*
X145065Y478936D01*
X144469Y479047D01*
X143876Y478917D01*
X143382Y478566D01*
X143085Y478106D01*
X142273Y476145D01*
X140855Y474727D01*
X139003Y473960D01*
X136998Y473960D01*
G37*
G36*
X184472Y472500D02*
X183300Y473672D01*
X183300Y487328D01*
X184472Y488500D01*
X192128Y488500D01*
X193300Y487328D01*
X193300Y473672D01*
X192128Y472500D01*
X184472Y472500D01*
G37*
G36*
X100143Y477530D02*
X100037Y477544D01*
X99933Y477567D01*
X99831Y477599D01*
X99732Y477640D01*
X99638Y477689D01*
X99547Y477747D01*
X99463Y477812D01*
X99384Y477884D01*
X99312Y477963D01*
X99247Y478047D01*
X99189Y478138D01*
X99140Y478232D01*
X99099Y478331D01*
X99067Y478433D01*
X99044Y478537D01*
X99030Y478643D01*
X99024Y478784D01*
X99024Y485216D01*
X99030Y485357D01*
X99044Y485463D01*
X99067Y485567D01*
X99099Y485669D01*
X99140Y485768D01*
X99189Y485862D01*
X99247Y485953D01*
X99312Y486037D01*
X99384Y486116D01*
X99463Y486188D01*
X99547Y486253D01*
X99638Y486311D01*
X99732Y486360D01*
X99831Y486401D01*
X99933Y486433D01*
X100037Y486456D01*
X100143Y486470D01*
X100250Y486475D01*
X100357Y486470D01*
X100463Y486456D01*
X100567Y486433D01*
X100669Y486401D01*
X100768Y486360D01*
X100862Y486311D01*
X100953Y486253D01*
X101037Y486188D01*
X101116Y486116D01*
X101188Y486037D01*
X101253Y485953D01*
X101311Y485862D01*
X101360Y485768D01*
X101401Y485669D01*
X101433Y485567D01*
X101456Y485463D01*
X101470Y485357D01*
X101476Y485216D01*
X101476Y478784D01*
X101470Y478643D01*
X101456Y478537D01*
X101433Y478433D01*
X101401Y478331D01*
X101360Y478232D01*
X101311Y478138D01*
X101253Y478047D01*
X101188Y477963D01*
X101116Y477884D01*
X101037Y477812D01*
X100953Y477747D01*
X100862Y477689D01*
X100768Y477640D01*
X100669Y477599D01*
X100567Y477567D01*
X100463Y477544D01*
X100357Y477530D01*
X100250Y477525D01*
X100143Y477530D01*
G37*
G36*
X177643Y477530D02*
X177537Y477544D01*
X177433Y477567D01*
X177331Y477599D01*
X177232Y477640D01*
X177138Y477689D01*
X177047Y477747D01*
X176963Y477812D01*
X176884Y477884D01*
X176812Y477963D01*
X176747Y478047D01*
X176689Y478138D01*
X176640Y478232D01*
X176599Y478331D01*
X176567Y478433D01*
X176544Y478537D01*
X176530Y478643D01*
X176524Y478784D01*
X176524Y485216D01*
X176530Y485357D01*
X176544Y485463D01*
X176567Y485567D01*
X176599Y485669D01*
X176640Y485768D01*
X176689Y485862D01*
X176747Y485953D01*
X176812Y486037D01*
X176884Y486116D01*
X176963Y486188D01*
X177047Y486253D01*
X177138Y486311D01*
X177232Y486360D01*
X177331Y486401D01*
X177433Y486433D01*
X177537Y486456D01*
X177643Y486470D01*
X177750Y486475D01*
X177857Y486470D01*
X177963Y486456D01*
X178067Y486433D01*
X178169Y486401D01*
X178268Y486360D01*
X178362Y486311D01*
X178453Y486253D01*
X178537Y486188D01*
X178616Y486116D01*
X178688Y486037D01*
X178753Y485953D01*
X178811Y485862D01*
X178860Y485768D01*
X178901Y485669D01*
X178933Y485567D01*
X178956Y485463D01*
X178970Y485357D01*
X178976Y485216D01*
X178976Y478784D01*
X178970Y478643D01*
X178956Y478537D01*
X178933Y478433D01*
X178901Y478331D01*
X178860Y478232D01*
X178811Y478138D01*
X178753Y478047D01*
X178688Y477963D01*
X178616Y477884D01*
X178537Y477812D01*
X178453Y477747D01*
X178362Y477689D01*
X178268Y477640D01*
X178169Y477599D01*
X178067Y477567D01*
X177963Y477544D01*
X177857Y477530D01*
X177750Y477525D01*
X177643Y477530D01*
G37*
G36*
X79848Y470210D02*
X77720Y471092D01*
X76092Y472720D01*
X75210Y474848D01*
X75210Y477152D01*
X76092Y479280D01*
X77720Y480909D01*
X79848Y481790D01*
X82152Y481790D01*
X84280Y480909D01*
X85909Y479280D01*
X86790Y477152D01*
X86790Y474848D01*
X85909Y472720D01*
X84280Y471092D01*
X82152Y470210D01*
X79848Y470210D01*
G37*
G36*
X163279Y448425D02*
X162808Y448500D01*
X162807Y448500D01*
X161977Y448844D01*
X161865Y448885D01*
X160292Y449396D01*
X159494Y450494D01*
X159339Y450676D01*
X158913Y451101D01*
X158798Y451381D01*
X158622Y451694D01*
X158000Y452550D01*
X158000Y456450D01*
X158604Y457280D01*
X158855Y457832D01*
X158872Y458438D01*
X158651Y459003D01*
X158227Y459437D01*
X157371Y459700D01*
X153064Y459700D01*
X152470Y459579D01*
X151969Y459236D01*
X151642Y458725D01*
X151540Y458176D01*
X151540Y457498D01*
X150773Y455645D01*
X149355Y454227D01*
X147503Y453460D01*
X145498Y453460D01*
X143645Y454227D01*
X142227Y455645D01*
X141460Y457498D01*
X141460Y459653D01*
X141339Y460248D01*
X140996Y460748D01*
X140485Y461075D01*
X139887Y461176D01*
X139297Y461037D01*
X138858Y460731D01*
X137855Y459727D01*
X136003Y458960D01*
X133998Y458960D01*
X132491Y459584D01*
X131908Y459700D01*
X120629Y459700D01*
X120035Y459579D01*
X119535Y459236D01*
X119208Y458725D01*
X119106Y458127D01*
X119396Y457280D01*
X120000Y456450D01*
X120000Y452550D01*
X119378Y451694D01*
X119202Y451381D01*
X119087Y451101D01*
X118661Y450676D01*
X118506Y450494D01*
X117708Y449396D01*
X116135Y448885D01*
X116023Y448844D01*
X115193Y448500D01*
X115192Y448500D01*
X114721Y448425D01*
X114000Y448191D01*
X113279Y448425D01*
X112808Y448500D01*
X112807Y448500D01*
X111977Y448844D01*
X111865Y448885D01*
X110292Y449396D01*
X109494Y450494D01*
X109339Y450676D01*
X108913Y451101D01*
X108798Y451381D01*
X108622Y451694D01*
X108000Y452550D01*
X108000Y456450D01*
X108622Y457306D01*
X108798Y457619D01*
X108913Y457899D01*
X109339Y458324D01*
X109494Y458506D01*
X110292Y459604D01*
X111865Y460115D01*
X111977Y460156D01*
X112807Y460500D01*
X112808Y460500D01*
X113279Y460575D01*
X114000Y460809D01*
X114721Y460575D01*
X115192Y460500D01*
X115193Y460500D01*
X116023Y460156D01*
X116135Y460115D01*
X117305Y459735D01*
X117908Y459666D01*
X118489Y459838D01*
X118958Y460223D01*
X119240Y460760D01*
X119300Y461184D01*
X119300Y468528D01*
X120472Y469700D01*
X133128Y469700D01*
X133342Y469486D01*
X133848Y469151D01*
X134420Y469040D01*
X136003Y469040D01*
X137855Y468273D01*
X139273Y466855D01*
X140040Y465003D01*
X140040Y462847D01*
X140161Y462253D01*
X140504Y461752D01*
X141015Y461425D01*
X141613Y461324D01*
X142203Y461463D01*
X142642Y461769D01*
X143854Y462981D01*
X144189Y463487D01*
X144300Y464059D01*
X144300Y468528D01*
X145472Y469700D01*
X158128Y469700D01*
X159300Y468528D01*
X159300Y461379D01*
X159421Y460785D01*
X159764Y460285D01*
X160275Y459958D01*
X160873Y459856D01*
X161295Y459930D01*
X161865Y460115D01*
X161977Y460156D01*
X162807Y460500D01*
X162808Y460500D01*
X163279Y460575D01*
X164000Y460809D01*
X164721Y460575D01*
X165192Y460500D01*
X165193Y460500D01*
X166023Y460156D01*
X166135Y460115D01*
X167708Y459604D01*
X168506Y458506D01*
X168661Y458324D01*
X169087Y457899D01*
X169202Y457619D01*
X169378Y457306D01*
X170000Y456450D01*
X170000Y452550D01*
X169378Y451694D01*
X169202Y451381D01*
X169087Y451101D01*
X168661Y450676D01*
X168506Y450494D01*
X167708Y449396D01*
X166135Y448885D01*
X166023Y448844D01*
X165193Y448500D01*
X165192Y448500D01*
X164721Y448425D01*
X164000Y448191D01*
X163279Y448425D01*
G37*
G36*
X200848Y432210D02*
X200551Y432333D01*
X199968Y432449D01*
X196721Y432449D01*
X195550Y433621D01*
X195550Y439184D01*
X195429Y439779D01*
X195103Y440262D01*
X188311Y447054D01*
X187806Y447389D01*
X187234Y447500D01*
X184472Y447500D01*
X183300Y448672D01*
X183300Y462328D01*
X184472Y463500D01*
X192128Y463500D01*
X193300Y462328D01*
X193300Y450599D01*
X193421Y450004D01*
X193746Y449521D01*
X196670Y446597D01*
X197176Y446262D01*
X197748Y446151D01*
X201141Y446151D01*
X201736Y446272D01*
X202236Y446615D01*
X202563Y447126D01*
X202665Y447724D01*
X202525Y448314D01*
X202300Y448636D01*
X202300Y462328D01*
X203472Y463500D01*
X211128Y463500D01*
X212300Y462328D01*
X212300Y448672D01*
X211128Y447500D01*
X210618Y447500D01*
X210024Y447379D01*
X209523Y447036D01*
X209196Y446525D01*
X209094Y445976D01*
X209094Y442086D01*
X208870Y441748D01*
X208759Y441176D01*
X208759Y433621D01*
X207587Y432449D01*
X204032Y432449D01*
X203449Y432333D01*
X203152Y432210D01*
X200848Y432210D01*
G37*
G36*
X101513Y437036D02*
X101277Y437067D01*
X101045Y437118D01*
X100818Y437190D01*
X100599Y437281D01*
X100388Y437391D01*
X100187Y437518D01*
X99999Y437663D01*
X99823Y437823D01*
X99663Y437999D01*
X99518Y438187D01*
X99391Y438388D01*
X99281Y438599D01*
X99190Y438818D01*
X99118Y439045D01*
X99067Y439277D01*
X99036Y439513D01*
X99024Y439783D01*
X99024Y448217D01*
X99036Y448487D01*
X99067Y448723D01*
X99118Y448955D01*
X99190Y449182D01*
X99281Y449401D01*
X99391Y449613D01*
X99518Y449813D01*
X99663Y450001D01*
X99823Y450177D01*
X99999Y450337D01*
X100187Y450482D01*
X100388Y450609D01*
X100599Y450719D01*
X100818Y450810D01*
X101045Y450882D01*
X101277Y450933D01*
X101513Y450964D01*
X101750Y450975D01*
X101987Y450964D01*
X102223Y450933D01*
X102455Y450882D01*
X102682Y450810D01*
X102901Y450719D01*
X103113Y450609D01*
X103313Y450482D01*
X103501Y450337D01*
X103677Y450177D01*
X103837Y450001D01*
X103982Y449813D01*
X104109Y449613D01*
X104219Y449401D01*
X104310Y449182D01*
X104382Y448955D01*
X104433Y448723D01*
X104464Y448487D01*
X104476Y448217D01*
X104476Y439783D01*
X104464Y439513D01*
X104433Y439277D01*
X104382Y439045D01*
X104310Y438818D01*
X104219Y438599D01*
X104109Y438388D01*
X103982Y438187D01*
X103837Y437999D01*
X103677Y437823D01*
X103501Y437663D01*
X103313Y437518D01*
X103113Y437391D01*
X102901Y437281D01*
X102682Y437190D01*
X102455Y437118D01*
X102223Y437067D01*
X101987Y437036D01*
X101750Y437025D01*
X101513Y437036D01*
G37*
G36*
X176013Y437036D02*
X175777Y437067D01*
X175545Y437118D01*
X175318Y437190D01*
X175099Y437281D01*
X174888Y437391D01*
X174687Y437518D01*
X174499Y437663D01*
X174323Y437823D01*
X174163Y437999D01*
X174018Y438187D01*
X173891Y438388D01*
X173781Y438599D01*
X173690Y438818D01*
X173618Y439045D01*
X173567Y439277D01*
X173536Y439513D01*
X173524Y439783D01*
X173524Y448217D01*
X173536Y448487D01*
X173567Y448723D01*
X173618Y448955D01*
X173690Y449182D01*
X173781Y449401D01*
X173891Y449613D01*
X174018Y449813D01*
X174163Y450001D01*
X174323Y450177D01*
X174499Y450337D01*
X174687Y450482D01*
X174888Y450609D01*
X175099Y450719D01*
X175318Y450810D01*
X175545Y450882D01*
X175777Y450933D01*
X176013Y450964D01*
X176250Y450975D01*
X176487Y450964D01*
X176723Y450933D01*
X176955Y450882D01*
X177182Y450810D01*
X177401Y450719D01*
X177613Y450609D01*
X177813Y450482D01*
X178001Y450337D01*
X178177Y450177D01*
X178337Y450001D01*
X178482Y449813D01*
X178609Y449613D01*
X178719Y449401D01*
X178810Y449182D01*
X178882Y448955D01*
X178933Y448723D01*
X178964Y448487D01*
X178976Y448217D01*
X178976Y439783D01*
X178964Y439513D01*
X178933Y439277D01*
X178882Y439045D01*
X178810Y438818D01*
X178719Y438599D01*
X178609Y438388D01*
X178482Y438187D01*
X178337Y437999D01*
X178177Y437823D01*
X178001Y437663D01*
X177813Y437518D01*
X177613Y437391D01*
X177401Y437281D01*
X177182Y437190D01*
X176955Y437118D01*
X176723Y437067D01*
X176487Y437036D01*
X176250Y437025D01*
X176013Y437036D01*
G37*
G36*
X163848Y403210D02*
X161720Y404092D01*
X160092Y405720D01*
X159210Y407848D01*
X159210Y410152D01*
X160092Y412280D01*
X161720Y413909D01*
X163848Y414790D01*
X166152Y414790D01*
X168280Y413909D01*
X169909Y412280D01*
X170790Y410152D01*
X170790Y407848D01*
X169909Y405720D01*
X168280Y404092D01*
X166152Y403210D01*
X163848Y403210D01*
G37*
G36*
X112848Y259210D02*
X110720Y260092D01*
X109052Y261760D01*
X108546Y262095D01*
X107974Y262206D01*
X59843Y262206D01*
X14206Y307843D01*
X14206Y393974D01*
X14085Y394569D01*
X13760Y395052D01*
X12092Y396720D01*
X11210Y398848D01*
X11210Y401152D01*
X12092Y403280D01*
X13720Y404909D01*
X15848Y405790D01*
X18152Y405790D01*
X20280Y404909D01*
X21909Y403280D01*
X22790Y401152D01*
X22790Y398848D01*
X21909Y396720D01*
X20240Y395052D01*
X19905Y394546D01*
X19794Y393974D01*
X19794Y310789D01*
X19915Y310194D01*
X20240Y309711D01*
X61711Y268240D01*
X62217Y267905D01*
X62789Y267794D01*
X107974Y267794D01*
X108569Y267915D01*
X109052Y268240D01*
X110720Y269909D01*
X112848Y270790D01*
X115152Y270790D01*
X117280Y269909D01*
X118909Y268280D01*
X119790Y266152D01*
X119790Y263848D01*
X118909Y261720D01*
X117280Y260092D01*
X115152Y259210D01*
X112848Y259210D01*
G37*
G36*
X190834Y9725D02*
X187756Y11000D01*
X185400Y13356D01*
X184125Y16434D01*
X184125Y19766D01*
X185400Y22844D01*
X187756Y25200D01*
X190834Y26475D01*
X194166Y26475D01*
X195175Y26057D01*
X195771Y25941D01*
X196364Y26066D01*
X196836Y26387D01*
X203364Y32915D01*
X203699Y33421D01*
X203810Y34017D01*
X203680Y34609D01*
X203329Y35104D01*
X202869Y35400D01*
X200456Y36400D01*
X198100Y38756D01*
X197682Y39765D01*
X197343Y40268D01*
X196835Y40599D01*
X196274Y40706D01*
X192343Y40706D01*
X132206Y100843D01*
X132206Y382974D01*
X132085Y383569D01*
X131760Y384052D01*
X130092Y385720D01*
X129210Y387848D01*
X129210Y390152D01*
X130092Y392280D01*
X131720Y393909D01*
X133848Y394790D01*
X136152Y394790D01*
X138280Y393909D01*
X139909Y392280D01*
X140790Y390152D01*
X140790Y387848D01*
X139909Y385720D01*
X138240Y384052D01*
X137905Y383546D01*
X137794Y382974D01*
X137794Y378391D01*
X137915Y377797D01*
X138258Y377297D01*
X138769Y376970D01*
X139367Y376868D01*
X139901Y376983D01*
X141848Y377790D01*
X144152Y377790D01*
X146280Y376909D01*
X147909Y375280D01*
X148790Y373152D01*
X148790Y370848D01*
X147909Y368720D01*
X146217Y367029D01*
X145882Y366523D01*
X145771Y365951D01*
X145771Y121511D01*
X145891Y120917D01*
X146217Y120434D01*
X217893Y48758D01*
X217893Y38242D01*
X210458Y30807D01*
X209790Y30807D01*
X209195Y30686D01*
X208712Y30361D01*
X200787Y22436D01*
X200452Y21930D01*
X200341Y21334D01*
X200457Y20775D01*
X200875Y19766D01*
X200875Y16434D01*
X199600Y13356D01*
X197244Y11000D01*
X194166Y9725D01*
X190834Y9725D01*
G37*
G36*
X186080Y376010D02*
X183951Y376892D01*
X182323Y378520D01*
X181441Y380648D01*
X181441Y382952D01*
X182323Y385080D01*
X183951Y386709D01*
X186080Y387590D01*
X188383Y387590D01*
X190511Y386709D01*
X192140Y385080D01*
X193021Y382952D01*
X193021Y380648D01*
X192140Y378520D01*
X190511Y376892D01*
X188383Y376010D01*
X186080Y376010D01*
G37*
G36*
X206848Y339210D02*
X204720Y340092D01*
X203092Y341720D01*
X202210Y343848D01*
X202210Y346152D01*
X203092Y348280D01*
X204720Y349909D01*
X206848Y350790D01*
X209152Y350790D01*
X211280Y349909D01*
X212909Y348280D01*
X213790Y346152D01*
X213790Y343848D01*
X212909Y341720D01*
X211280Y340092D01*
X209152Y339210D01*
X206848Y339210D01*
G37*
G36*
X93028Y301556D02*
X90900Y302438D01*
X89271Y304066D01*
X88390Y306194D01*
X88390Y308498D01*
X89271Y310626D01*
X90900Y312255D01*
X93028Y313136D01*
X95331Y313136D01*
X97459Y312255D01*
X99088Y310626D01*
X99970Y308498D01*
X99970Y306194D01*
X99088Y304066D01*
X97459Y302438D01*
X95331Y301556D01*
X93028Y301556D01*
G37*
G36*
X73848Y301210D02*
X71720Y302092D01*
X70092Y303720D01*
X69210Y305848D01*
X69210Y308152D01*
X70092Y310280D01*
X71720Y311909D01*
X73848Y312790D01*
X76152Y312790D01*
X78280Y311909D01*
X79909Y310280D01*
X80790Y308152D01*
X80790Y305848D01*
X79909Y303720D01*
X78280Y302092D01*
X76152Y301210D01*
X73848Y301210D01*
G37*
G36*
X180848Y165210D02*
X178720Y166092D01*
X177092Y167720D01*
X176210Y169848D01*
X176210Y172152D01*
X177092Y174280D01*
X178720Y175909D01*
X180848Y176790D01*
X183152Y176790D01*
X185280Y175909D01*
X186909Y174280D01*
X187790Y172152D01*
X187790Y169848D01*
X186909Y167720D01*
X185280Y166092D01*
X183152Y165210D01*
X180848Y165210D01*
G37*
G36*
X31172Y35125D02*
X28094Y36400D01*
X25738Y38756D01*
X24463Y41834D01*
X24463Y45166D01*
X25738Y48244D01*
X28094Y50600D01*
X31172Y51875D01*
X34504Y51875D01*
X37582Y50600D01*
X39938Y48244D01*
X41213Y45166D01*
X41213Y41834D01*
X39938Y38756D01*
X37582Y36400D01*
X34504Y35125D01*
X31172Y35125D01*
G37*
G36*
X118734Y34125D02*
X115656Y35400D01*
X113300Y37756D01*
X112025Y40834D01*
X112025Y44166D01*
X113300Y47244D01*
X115656Y49600D01*
X118734Y50875D01*
X122066Y50875D01*
X125144Y49600D01*
X127500Y47244D01*
X128775Y44166D01*
X128775Y40834D01*
X127500Y37756D01*
X125144Y35400D01*
X122066Y34125D01*
X118734Y34125D01*
G37*
G36*
X69626Y15750D02*
X68003Y16687D01*
X67824Y16775D01*
X66715Y17234D01*
X66393Y17556D01*
X66078Y17798D01*
X65101Y18363D01*
X64536Y19340D01*
X64294Y19655D01*
X63972Y19977D01*
X63513Y21086D01*
X63425Y21265D01*
X62488Y22888D01*
X62488Y28113D01*
X63425Y29735D01*
X63513Y29914D01*
X63972Y31023D01*
X64294Y31345D01*
X64536Y31660D01*
X65101Y32638D01*
X66078Y33202D01*
X66393Y33444D01*
X66715Y33766D01*
X67824Y34225D01*
X68003Y34313D01*
X69626Y35250D01*
X74851Y35250D01*
X76473Y34313D01*
X76652Y34225D01*
X77761Y33766D01*
X78083Y33444D01*
X78398Y33202D01*
X79376Y32638D01*
X79940Y31660D01*
X80182Y31345D01*
X80504Y31023D01*
X80963Y29914D01*
X81051Y29735D01*
X81988Y28113D01*
X81988Y22888D01*
X81051Y21265D01*
X80963Y21086D01*
X80504Y19977D01*
X80182Y19655D01*
X79940Y19340D01*
X79376Y18363D01*
X78398Y17798D01*
X78083Y17556D01*
X77761Y17234D01*
X76652Y16775D01*
X76473Y16687D01*
X74851Y15750D01*
X69626Y15750D01*
G37*
G36*
X157188Y14750D02*
X155565Y15687D01*
X155386Y15775D01*
X154277Y16234D01*
X153955Y16556D01*
X153640Y16798D01*
X152663Y17363D01*
X152098Y18340D01*
X151856Y18655D01*
X151534Y18977D01*
X151075Y20086D01*
X150987Y20265D01*
X150050Y21888D01*
X150050Y27113D01*
X150987Y28735D01*
X151075Y28914D01*
X151534Y30023D01*
X151856Y30345D01*
X152098Y30660D01*
X152663Y31638D01*
X153640Y32202D01*
X153955Y32444D01*
X154277Y32766D01*
X155386Y33225D01*
X155565Y33313D01*
X157188Y34250D01*
X162413Y34250D01*
X164035Y33313D01*
X164214Y33225D01*
X165323Y32766D01*
X165645Y32444D01*
X165960Y32202D01*
X166938Y31638D01*
X167502Y30660D01*
X167744Y30345D01*
X168066Y30023D01*
X168525Y28914D01*
X168613Y28735D01*
X169550Y27113D01*
X169550Y21888D01*
X168613Y20265D01*
X168525Y20086D01*
X168066Y18977D01*
X167744Y18655D01*
X167502Y18340D01*
X166938Y17363D01*
X165960Y16798D01*
X165645Y16556D01*
X165323Y16234D01*
X164214Y15775D01*
X164035Y15687D01*
X162413Y14750D01*
X157188Y14750D01*
G37*
G36*
X216234Y9725D02*
X213156Y11000D01*
X210800Y13356D01*
X209525Y16434D01*
X209525Y19766D01*
X210800Y22844D01*
X213156Y25200D01*
X216234Y26475D01*
X219566Y26475D01*
X222644Y25200D01*
X225000Y22844D01*
X226275Y19766D01*
X226275Y16434D01*
X225000Y13356D01*
X222644Y11000D01*
X219566Y9725D01*
X216234Y9725D01*
G37*
G36*
X43872Y9725D02*
X40794Y11000D01*
X38438Y13356D01*
X37163Y16434D01*
X37163Y19766D01*
X38438Y22844D01*
X40794Y25200D01*
X43872Y26475D01*
X47204Y26475D01*
X50282Y25200D01*
X52638Y22844D01*
X53913Y19766D01*
X53913Y16434D01*
X52638Y13356D01*
X50282Y11000D01*
X47204Y9725D01*
X43872Y9725D01*
G37*
G36*
X18472Y9725D02*
X15394Y11000D01*
X13038Y13356D01*
X11763Y16434D01*
X11763Y19766D01*
X13038Y22844D01*
X15394Y25200D01*
X18472Y26475D01*
X21804Y26475D01*
X24882Y25200D01*
X27238Y22844D01*
X28513Y19766D01*
X28513Y16434D01*
X27238Y13356D01*
X24882Y11000D01*
X21804Y9725D01*
X18472Y9725D01*
G37*
G36*
X131434Y8725D02*
X128356Y10000D01*
X126000Y12356D01*
X124725Y15434D01*
X124725Y18766D01*
X126000Y21844D01*
X128356Y24200D01*
X131434Y25475D01*
X134766Y25475D01*
X137844Y24200D01*
X140200Y21844D01*
X141475Y18766D01*
X141475Y15434D01*
X140200Y12356D01*
X137844Y10000D01*
X134766Y8725D01*
X131434Y8725D01*
G37*
G36*
X106034Y8725D02*
X102956Y10000D01*
X100600Y12356D01*
X99325Y15434D01*
X99325Y18766D01*
X100600Y21844D01*
X102956Y24200D01*
X106034Y25475D01*
X109366Y25475D01*
X112444Y24200D01*
X114800Y21844D01*
X116075Y18766D01*
X116075Y15434D01*
X114800Y12356D01*
X112444Y10000D01*
X109366Y8725D01*
X106034Y8725D01*
G37*
%LPD*%
G36*
X432070Y135121D02*
X432571Y135464D01*
X432898Y135975D01*
X433000Y136524D01*
X433000Y468476D01*
X432879Y469070D01*
X432536Y469571D01*
X432025Y469898D01*
X431476Y470000D01*
X391854Y470000D01*
X391259Y469879D01*
X390759Y469536D01*
X390432Y469025D01*
X390330Y468464D01*
X392903Y136512D01*
X393028Y135919D01*
X393375Y135421D01*
X393889Y135098D01*
X394427Y135000D01*
X431476Y135000D01*
X432070Y135121D01*
G37*
D10*
X217646Y439300D03*
X202154Y439300D03*
D11*
X221700Y463354D03*
X221700Y478846D03*
D12*
X151800Y483700D03*
X151800Y474200D03*
X151800Y464700D03*
X126800Y464700D03*
X126800Y483700D03*
D13*
X318800Y43500D03*
D14*
X306100Y18100D03*
X293400Y43500D03*
X280700Y18100D03*
D13*
X230600Y43500D03*
D14*
X217900Y18100D03*
X205200Y43500D03*
X192500Y18100D03*
D13*
X58238Y43500D03*
D14*
X45538Y18100D03*
X32838Y43500D03*
X20138Y18100D03*
D13*
X145800Y42500D03*
D14*
X133100Y17100D03*
X120400Y42500D03*
X107700Y17100D03*
D15*
X304100Y465500D03*
X294600Y465500D03*
X285100Y465500D03*
X285100Y490500D03*
X304100Y490500D03*
D10*
X292554Y446649D03*
X308046Y446649D03*
D11*
X263249Y451554D03*
X263249Y467046D03*
D16*
X414246Y270500D03*
X443754Y270500D03*
X414246Y311347D03*
X443754Y311347D03*
X397754Y288500D03*
X368246Y288500D03*
X397754Y313500D03*
X368246Y313500D03*
X414246Y336500D03*
X443754Y336500D03*
X397754Y449500D03*
X368246Y449500D03*
X397754Y420500D03*
X368246Y420500D03*
X414246Y433500D03*
X443754Y433500D03*
X414246Y411500D03*
X443754Y411500D03*
X414246Y458500D03*
X443754Y458500D03*
X397754Y183300D03*
X368246Y183300D03*
X414246Y178700D03*
X443754Y178700D03*
X414246Y144547D03*
X443754Y144547D03*
X414246Y202700D03*
X443754Y202700D03*
X397754Y159453D03*
X368246Y159453D03*
D17*
X265148Y426872D03*
X265148Y410568D03*
D18*
X307100Y428200D03*
X291100Y428200D03*
D15*
X207300Y455500D03*
X197800Y455500D03*
X188300Y455500D03*
X188300Y480500D03*
X207300Y480500D03*
D10*
X380028Y404000D03*
X395520Y404000D03*
X382028Y270000D03*
X397520Y270000D03*
X382028Y141000D03*
X397520Y141000D03*
D19*
X176250Y437625D02*
X176250Y450375D01*
X101750Y450375D02*
X101750Y437625D01*
D20*
X177750Y477500D02*
X177750Y486500D01*
X100250Y486500D02*
X100250Y477500D01*
D21*
X119000Y241000D03*
X220000Y270000D03*
X200000Y130000D03*
X213000Y187000D03*
X54000Y309000D03*
X55000Y489456D03*
X17000Y489000D03*
X218000Y426000D03*
D22*
X217646Y437000D02*
X217646Y439300D01*
X217646Y437000D02*
X217646Y429354D01*
X218000Y429000D02*
X218000Y426000D01*
X218000Y429000D02*
X217646Y429354D01*
X152800Y473200D02*
X151800Y474200D01*
X220700Y462354D02*
X221700Y463354D01*
X220700Y462354D02*
X220700Y440054D01*
X217646Y437000D01*
X196776Y456524D02*
X196776Y458960D01*
X196776Y456524D02*
X197800Y455500D01*
X196776Y458960D02*
X202840Y465024D01*
X220030Y465024D02*
X221700Y463354D01*
X220030Y465024D02*
X202840Y465024D01*
D21*
X216000Y404000D03*
X209000Y359000D03*
X196000Y409000D03*
X205000Y399646D03*
X188000Y364314D03*
X68000Y335000D03*
X43000Y489000D03*
D23*
X164000Y473000D03*
D22*
X162800Y474200D02*
X151800Y474200D01*
X162800Y474200D02*
X164000Y473000D01*
D21*
X121000Y443000D03*
X75000Y292000D03*
X95000Y292000D03*
X265000Y272000D03*
X369000Y209000D03*
X381000Y231000D03*
X379000Y209000D03*
X381000Y218000D03*
D22*
X307600Y462000D02*
X304100Y465500D01*
X307600Y462000D02*
X313000Y462000D01*
D21*
X313000Y462000D03*
D22*
X308046Y457046D01*
X308046Y446649D01*
X308046Y429146D01*
X307100Y428200D01*
D21*
X444000Y422000D03*
X371000Y357000D03*
X379000Y357000D03*
X376000Y337000D03*
X368000Y340000D03*
X384000Y337000D03*
X380000Y347000D03*
X372000Y95000D03*
X366000Y79000D03*
X374000Y79000D03*
X384000Y78000D03*
X323000Y328000D03*
X285000Y205000D03*
X439000Y285000D03*
X289000Y132000D03*
X416000Y22000D03*
X439000Y151000D03*
X331000Y489000D03*
X346000Y489000D03*
X332000Y472000D03*
X348000Y474000D03*
X370000Y220000D03*
X370000Y231000D03*
X446262Y162000D03*
D23*
X446000Y443175D03*
D24*
X445000Y409000D03*
X444762Y294000D03*
D21*
X364000Y94000D03*
X383000Y96000D03*
D25*
X285100Y465500D02*
X264795Y465500D01*
X263249Y467046D01*
D21*
X263000Y492012D03*
X263000Y484000D03*
X263000Y476000D03*
X292000Y340000D03*
X353000Y125000D03*
X342000Y171000D03*
X300000Y174000D03*
D26*
X263249Y467046D02*
X263249Y492012D01*
X262145Y492606D02*
X264249Y490502D01*
D21*
X351000Y264000D03*
X354000Y377000D03*
X352000Y37000D03*
D22*
X274568Y410568D02*
X265148Y410568D01*
X274568Y410568D02*
X279000Y415000D01*
D21*
X279000Y415000D03*
D22*
X263249Y492012D02*
X263000Y492012D01*
X264249Y490763D01*
X264249Y490502D01*
D21*
X339000Y296000D03*
X182000Y171000D03*
X208000Y345000D03*
X81000Y476000D03*
X221000Y493000D03*
D22*
X222629Y480171D02*
X221700Y478846D01*
X215800Y493000D02*
X207300Y484500D01*
X207300Y480500D01*
X215800Y493000D02*
X221000Y493000D01*
X221000Y479546D01*
X221700Y478846D01*
D21*
X165000Y409000D03*
X187231Y381800D03*
X75000Y307000D03*
X94180Y307346D03*
X281000Y447000D03*
D22*
X292203Y447000D01*
X292554Y446649D01*
X294600Y449397D02*
X294600Y465500D01*
X294600Y449397D02*
X292203Y447000D01*
D21*
X399000Y422000D03*
X408000Y423000D03*
X418000Y423000D03*
X429000Y422000D03*
X424000Y412000D03*
X411000Y411000D03*
D23*
X405000Y274000D03*
X411000Y276000D03*
X411000Y147000D03*
X406000Y144000D03*
D21*
X413000Y432000D03*
X400000Y434000D03*
X143000Y372000D03*
D22*
X142977Y371977D01*
X215099Y47600D02*
X215099Y39400D01*
X209300Y33601D01*
X142977Y119723D02*
X142977Y371977D01*
X208001Y33601D02*
X209300Y33601D01*
X208001Y33601D02*
X192500Y18100D01*
X215099Y47600D02*
X142977Y119723D01*
D21*
X11000Y192000D03*
D22*
X42000Y161000D01*
X118000Y161000D01*
D21*
X118000Y161000D03*
D22*
X151800Y463800D02*
X151800Y464700D01*
X151800Y463800D02*
X146500Y458500D01*
D23*
X146500Y458500D03*
D22*
X127500Y464000D02*
X126800Y464700D01*
X127500Y464000D02*
X135000Y464000D01*
D23*
X135000Y464000D03*
D21*
X135000Y389000D03*
D22*
X135000Y102000D01*
X193500Y43500D01*
X205200Y43500D01*
D21*
X17000Y400000D03*
D22*
X17000Y309000D01*
X61000Y265000D01*
X114000Y265000D01*
D21*
X114000Y265000D03*
D22*
X202154Y439300D02*
X203854Y441000D01*
X189276Y454524D02*
X188300Y455500D01*
X189276Y454524D02*
X189276Y450040D01*
X198316Y441000D01*
X203854Y441000D01*
X202154Y438000D02*
X202000Y438000D01*
X202154Y438000D02*
X202154Y439300D01*
D21*
X202000Y438000D03*
D23*
X138000Y479000D03*
D22*
X134300Y482700D01*
X127800Y482700D01*
X126800Y483700D01*
X206300Y454500D02*
X207300Y455500D01*
X206300Y454500D02*
X206300Y443300D01*
X202000Y439000D01*
X202000Y438000D01*
X266476Y428200D02*
X291100Y428200D01*
X266476Y428200D02*
X265148Y426872D01*
M02*
