G04 EAGLE Gerber RS-274X export*
G75*
%MOMM*%
%FSLAX34Y34*%
%LPD*%
%INTop Copper*%
%IPPOS*%
%AMOC8*
5,1,8,0,0,1.08239X$1,22.5*%
G01*
G04 Define Apertures*
%ADD10R,1.894100X0.410000*%
%ADD11C,0.137500*%
%ADD12R,0.406800X1.571900*%
%ADD13R,3.550000X2.460000*%
%ADD14R,0.973900X0.798700*%
%ADD15R,0.511800X0.911800*%
%ADD16R,0.920900X0.970200*%
%ADD17R,0.798700X0.973900*%
%ADD18R,0.970200X0.920900*%
%ADD19R,0.736600X2.794000*%
%ADD20R,3.000000X3.000000*%
%ADD21R,1.275000X1.275000*%
%ADD22C,1.275000*%
%ADD23R,1.525000X0.700000*%
%ADD24R,0.700000X1.150000*%
%ADD25R,1.000000X1.000000*%
%ADD26R,0.911800X0.511800*%
%ADD27R,0.450000X1.300000*%
%ADD28C,1.275000*%
%ADD29C,0.900000*%
%ADD30C,0.304800*%
%ADD31C,0.300000*%
%ADD32C,0.650000*%
%ADD33C,0.500000*%
%ADD34C,0.600000*%
%ADD35C,0.812800*%
G36*
X456535Y2822D02*
X456785Y2994D01*
X456949Y3249D01*
X457000Y3524D01*
X457000Y496476D01*
X456940Y496773D01*
X456768Y497023D01*
X456513Y497187D01*
X456238Y497238D01*
X453715Y497238D01*
X453417Y497178D01*
X453167Y497006D01*
X453004Y496751D01*
X452953Y496476D01*
X452953Y482278D01*
X452904Y481817D01*
X452808Y481499D01*
X452656Y481195D01*
X452418Y480872D01*
X452291Y480597D01*
X452270Y480421D01*
X452270Y449035D01*
X452246Y448775D01*
X452176Y448531D01*
X452060Y448308D01*
X451903Y448112D01*
X451710Y447952D01*
X451490Y447832D01*
X451250Y447759D01*
X450962Y447730D01*
X361035Y447730D01*
X360775Y447754D01*
X360531Y447824D01*
X360308Y447940D01*
X360112Y448097D01*
X359952Y448290D01*
X359832Y448510D01*
X359759Y448750D01*
X359730Y449038D01*
X359730Y496476D01*
X359670Y496773D01*
X359498Y497023D01*
X359243Y497187D01*
X358968Y497238D01*
X267802Y497238D01*
X267505Y497178D01*
X267255Y497006D01*
X267091Y496751D01*
X267040Y496452D01*
X267110Y496157D01*
X267263Y495937D01*
X267909Y495292D01*
X268790Y493164D01*
X268790Y490860D01*
X267909Y488732D01*
X267721Y488545D01*
X267554Y488292D01*
X267498Y487994D01*
X267563Y487698D01*
X267721Y487467D01*
X267909Y487280D01*
X268790Y485152D01*
X268790Y482848D01*
X267909Y480720D01*
X267727Y480539D01*
X267560Y480286D01*
X267504Y479988D01*
X267569Y479692D01*
X267727Y479461D01*
X267909Y479280D01*
X268790Y477152D01*
X268790Y474848D01*
X267909Y472720D01*
X266280Y471091D01*
X264152Y470210D01*
X261848Y470210D01*
X259720Y471091D01*
X258091Y472720D01*
X257466Y474230D01*
X257297Y474482D01*
X257042Y474647D01*
X256744Y474700D01*
X256448Y474633D01*
X256202Y474456D01*
X256045Y474196D01*
X256000Y473939D01*
X256000Y396425D01*
X256060Y396127D01*
X256232Y395877D01*
X256470Y395721D01*
X259630Y394412D01*
X264412Y389630D01*
X267000Y383382D01*
X267000Y376618D01*
X264412Y370370D01*
X259630Y365588D01*
X256470Y364279D01*
X256219Y364110D01*
X256053Y363856D01*
X256000Y363575D01*
X256000Y333437D01*
X256060Y333140D01*
X256232Y332890D01*
X256487Y332726D01*
X256762Y332675D01*
X277291Y332675D01*
X278611Y331355D01*
X278864Y331187D01*
X279125Y331132D01*
X284981Y330939D01*
X285280Y330990D01*
X285536Y331153D01*
X285708Y331403D01*
X285769Y331701D01*
X285769Y333579D01*
X286940Y334751D01*
X287221Y334751D01*
X287518Y334811D01*
X287768Y334983D01*
X287932Y335238D01*
X287983Y335537D01*
X287913Y335832D01*
X287760Y336052D01*
X287091Y336720D01*
X286210Y338848D01*
X286210Y341152D01*
X287091Y343280D01*
X288720Y344909D01*
X290848Y345790D01*
X293152Y345790D01*
X295280Y344909D01*
X296909Y343280D01*
X297790Y341152D01*
X297790Y338848D01*
X296909Y336720D01*
X296240Y336052D01*
X296073Y335799D01*
X296017Y335501D01*
X296082Y335205D01*
X296258Y334957D01*
X296516Y334798D01*
X296779Y334751D01*
X297806Y334751D01*
X298978Y333579D01*
X298978Y322166D01*
X299038Y321869D01*
X299209Y321619D01*
X299465Y321455D01*
X299740Y321404D01*
X358038Y321404D01*
X358335Y321464D01*
X358585Y321636D01*
X358749Y321891D01*
X358800Y322166D01*
X358800Y327298D01*
X359972Y328470D01*
X365774Y328470D01*
X365798Y328453D01*
X366096Y328398D01*
X366392Y328463D01*
X366402Y328470D01*
X372274Y328470D01*
X372298Y328453D01*
X372596Y328398D01*
X372892Y328463D01*
X372902Y328470D01*
X378774Y328470D01*
X378798Y328453D01*
X379096Y328398D01*
X379392Y328463D01*
X379402Y328470D01*
X385274Y328470D01*
X385298Y328453D01*
X385596Y328398D01*
X385892Y328463D01*
X385902Y328470D01*
X391774Y328470D01*
X391798Y328453D01*
X392096Y328398D01*
X392392Y328463D01*
X392402Y328470D01*
X398196Y328470D01*
X399368Y327298D01*
X399368Y309922D01*
X398616Y309170D01*
X398449Y308917D01*
X398393Y308619D01*
X398458Y308323D01*
X398634Y308076D01*
X398892Y307916D01*
X399155Y307870D01*
X401670Y307870D01*
X402842Y306698D01*
X402842Y295347D01*
X402902Y295049D01*
X402914Y295032D01*
X402914Y284154D01*
X402974Y283856D01*
X403145Y283606D01*
X403401Y283443D01*
X403676Y283392D01*
X413279Y283392D01*
X414451Y282220D01*
X414451Y281032D01*
X414511Y280735D01*
X414682Y280485D01*
X414938Y280321D01*
X415213Y280270D01*
X451965Y280270D01*
X452225Y280246D01*
X452470Y280176D01*
X452692Y280060D01*
X452888Y279903D01*
X453048Y279710D01*
X453168Y279490D01*
X453241Y279250D01*
X453270Y278962D01*
X453270Y231035D01*
X453246Y230775D01*
X453176Y230530D01*
X453044Y230276D01*
X452960Y229984D01*
X452997Y229683D01*
X453181Y229386D01*
X453238Y229328D01*
X453238Y228321D01*
X453242Y228246D01*
X453270Y227962D01*
X453270Y179035D01*
X453246Y178775D01*
X453176Y178531D01*
X453060Y178308D01*
X452903Y178112D01*
X452710Y177952D01*
X452490Y177832D01*
X452250Y177759D01*
X451962Y177730D01*
X408035Y177730D01*
X407775Y177754D01*
X407531Y177824D01*
X407308Y177940D01*
X407112Y178097D01*
X406952Y178290D01*
X406832Y178510D01*
X406759Y178750D01*
X406730Y179038D01*
X406730Y181565D01*
X406670Y181863D01*
X406507Y182104D01*
X406216Y182395D01*
X406216Y199771D01*
X406507Y200062D01*
X406674Y200315D01*
X406730Y200601D01*
X406730Y227965D01*
X406754Y228225D01*
X406824Y228469D01*
X406901Y228617D01*
X406984Y228908D01*
X406947Y229209D01*
X406796Y229472D01*
X406554Y229655D01*
X406224Y229730D01*
X401785Y229730D01*
X401525Y229754D01*
X401281Y229824D01*
X401058Y229940D01*
X400862Y230097D01*
X400702Y230290D01*
X400582Y230510D01*
X400509Y230750D01*
X400480Y231038D01*
X400480Y237896D01*
X400420Y238193D01*
X400248Y238443D01*
X399993Y238606D01*
X399718Y238658D01*
X394311Y238658D01*
X394286Y238674D01*
X393988Y238729D01*
X393692Y238664D01*
X393682Y238658D01*
X387811Y238658D01*
X387786Y238674D01*
X387488Y238729D01*
X387192Y238664D01*
X387182Y238658D01*
X381311Y238658D01*
X381286Y238674D01*
X380988Y238729D01*
X380692Y238664D01*
X380682Y238658D01*
X374888Y238658D01*
X373716Y239829D01*
X373716Y257205D01*
X374219Y257708D01*
X374387Y257961D01*
X374442Y258259D01*
X374377Y258555D01*
X374219Y258786D01*
X367776Y265229D01*
X367523Y265397D01*
X367237Y265453D01*
X362338Y265453D01*
X362041Y265392D01*
X361791Y265221D01*
X361628Y264965D01*
X361577Y264666D01*
X361647Y264371D01*
X361800Y264152D01*
X367352Y258600D01*
X367463Y258526D01*
X368784Y257205D01*
X368784Y239829D01*
X367612Y238658D01*
X361888Y238658D01*
X360716Y239829D01*
X360716Y257017D01*
X360656Y257314D01*
X360493Y257556D01*
X357131Y260918D01*
X356878Y261085D01*
X356580Y261141D01*
X356284Y261076D01*
X356036Y260900D01*
X355941Y260753D01*
X354280Y259091D01*
X352152Y258210D01*
X349848Y258210D01*
X347720Y259091D01*
X347640Y259171D01*
X347387Y259339D01*
X347089Y259394D01*
X346793Y259329D01*
X346546Y259154D01*
X346386Y258896D01*
X346340Y258633D01*
X346340Y194760D01*
X346400Y194463D01*
X346563Y194222D01*
X346684Y194100D01*
X346937Y193933D01*
X347223Y193877D01*
X359954Y193877D01*
X360251Y193937D01*
X360501Y194109D01*
X360665Y194364D01*
X360716Y194639D01*
X360716Y199771D01*
X361888Y200943D01*
X367690Y200943D01*
X367714Y200926D01*
X368012Y200871D01*
X368308Y200936D01*
X368318Y200943D01*
X374190Y200943D01*
X374214Y200926D01*
X374512Y200871D01*
X374808Y200936D01*
X374818Y200943D01*
X380690Y200943D01*
X380714Y200926D01*
X381012Y200871D01*
X381308Y200936D01*
X381318Y200943D01*
X387190Y200943D01*
X387214Y200926D01*
X387512Y200871D01*
X387808Y200936D01*
X387818Y200943D01*
X393690Y200943D01*
X393714Y200926D01*
X394012Y200871D01*
X394308Y200936D01*
X394318Y200943D01*
X400112Y200943D01*
X401284Y199771D01*
X401284Y182939D01*
X401342Y182653D01*
X401342Y180932D01*
X401402Y180634D01*
X401574Y180384D01*
X401829Y180221D01*
X402104Y180170D01*
X403370Y180170D01*
X404542Y178998D01*
X404542Y167557D01*
X404462Y167437D01*
X404407Y167139D01*
X404472Y166843D01*
X404647Y166596D01*
X404905Y166436D01*
X405169Y166389D01*
X408115Y166389D01*
X409287Y165218D01*
X409287Y155412D01*
X409347Y155115D01*
X409519Y154865D01*
X409774Y154702D01*
X410049Y154650D01*
X414084Y154650D01*
X415256Y153479D01*
X415256Y150188D01*
X415316Y149891D01*
X415479Y149649D01*
X416040Y149088D01*
X416040Y144912D01*
X415479Y144351D01*
X415311Y144098D01*
X415256Y143812D01*
X415256Y142120D01*
X414084Y140948D01*
X410392Y140948D01*
X410095Y140888D01*
X409853Y140725D01*
X409698Y140571D01*
X409531Y140318D01*
X409475Y140020D01*
X409540Y139724D01*
X409716Y139476D01*
X409974Y139317D01*
X410237Y139270D01*
X451965Y139270D01*
X452225Y139246D01*
X452470Y139176D01*
X452692Y139060D01*
X452888Y138903D01*
X453048Y138710D01*
X453168Y138490D01*
X453241Y138250D01*
X453270Y137962D01*
X453270Y97035D01*
X453241Y96717D01*
X453238Y96648D01*
X453238Y96372D01*
X452066Y95200D01*
X420410Y95200D01*
X420103Y95507D01*
X419850Y95674D01*
X419564Y95730D01*
X397035Y95730D01*
X396775Y95754D01*
X396531Y95824D01*
X396308Y95940D01*
X396112Y96097D01*
X395952Y96290D01*
X395832Y96510D01*
X395759Y96750D01*
X395730Y97038D01*
X395730Y104596D01*
X395670Y104893D01*
X395498Y105143D01*
X395243Y105306D01*
X394968Y105358D01*
X390611Y105358D01*
X390586Y105374D01*
X390288Y105429D01*
X389992Y105364D01*
X389982Y105358D01*
X384111Y105358D01*
X384086Y105374D01*
X383788Y105429D01*
X383492Y105364D01*
X383482Y105358D01*
X377611Y105358D01*
X377586Y105374D01*
X377288Y105429D01*
X376992Y105364D01*
X376982Y105358D01*
X371188Y105358D01*
X370016Y106529D01*
X370016Y123905D01*
X370905Y124794D01*
X371072Y125046D01*
X371128Y125344D01*
X371063Y125641D01*
X370905Y125871D01*
X368452Y128324D01*
X368199Y128491D01*
X367913Y128547D01*
X359896Y128547D01*
X358725Y129719D01*
X358725Y141077D01*
X359896Y142249D01*
X370762Y142249D01*
X371934Y141077D01*
X371934Y133060D01*
X371994Y132763D01*
X372157Y132522D01*
X372916Y131763D01*
X373169Y131595D01*
X373467Y131540D01*
X373763Y131605D01*
X374010Y131780D01*
X374170Y132038D01*
X374217Y132301D01*
X374217Y141077D01*
X375388Y142249D01*
X385793Y142249D01*
X386090Y142309D01*
X386340Y142481D01*
X386503Y142736D01*
X386555Y143011D01*
X386555Y149684D01*
X386494Y149981D01*
X386323Y150231D01*
X386067Y150394D01*
X385793Y150446D01*
X380204Y150446D01*
X379033Y151617D01*
X379033Y158384D01*
X378972Y158681D01*
X378809Y158922D01*
X378250Y159482D01*
X378250Y159517D01*
X378189Y159815D01*
X378111Y159955D01*
X378091Y159983D01*
X378238Y160818D01*
X378250Y160950D01*
X378250Y162481D01*
X378189Y162779D01*
X378018Y163029D01*
X377762Y163192D01*
X377463Y163243D01*
X377168Y163173D01*
X377135Y163151D01*
X372913Y163151D01*
X372615Y163090D01*
X372365Y162919D01*
X372202Y162663D01*
X372151Y162389D01*
X372151Y151617D01*
X370979Y150446D01*
X364167Y150446D01*
X364025Y150539D01*
X363727Y150595D01*
X363431Y150530D01*
X363200Y150372D01*
X361861Y149033D01*
X350465Y149033D01*
X349294Y150204D01*
X349294Y159848D01*
X350465Y161020D01*
X361927Y161020D01*
X361985Y160981D01*
X362283Y160926D01*
X362579Y160991D01*
X362826Y161166D01*
X362986Y161424D01*
X363033Y161688D01*
X363033Y162392D01*
X364204Y163564D01*
X365502Y163564D01*
X365799Y163624D01*
X366049Y163795D01*
X366212Y164051D01*
X366264Y164326D01*
X366264Y167774D01*
X366203Y168071D01*
X366032Y168321D01*
X365776Y168485D01*
X365502Y168536D01*
X363795Y168536D01*
X363497Y168476D01*
X363247Y168304D01*
X363084Y168049D01*
X363033Y167774D01*
X363033Y166508D01*
X361861Y165337D01*
X350465Y165337D01*
X349294Y166508D01*
X349294Y167444D01*
X349233Y167741D01*
X349062Y167991D01*
X348806Y168155D01*
X348532Y168206D01*
X347619Y168206D01*
X347322Y168146D01*
X347072Y167974D01*
X346915Y167736D01*
X346909Y167720D01*
X345280Y166091D01*
X343152Y165210D01*
X340848Y165210D01*
X338638Y166126D01*
X338528Y166198D01*
X338230Y166254D01*
X337934Y166189D01*
X337686Y166013D01*
X337527Y165755D01*
X337480Y165492D01*
X337480Y76787D01*
X337540Y76490D01*
X337703Y76248D01*
X353151Y60800D01*
X353404Y60633D01*
X353690Y60577D01*
X356254Y60577D01*
X356551Y60637D01*
X356801Y60809D01*
X356965Y61064D01*
X357016Y61339D01*
X357016Y66471D01*
X358188Y67643D01*
X363990Y67643D01*
X364014Y67626D01*
X364312Y67571D01*
X364608Y67636D01*
X364618Y67643D01*
X370490Y67643D01*
X370514Y67626D01*
X370812Y67571D01*
X371108Y67636D01*
X371118Y67643D01*
X376990Y67643D01*
X377014Y67626D01*
X377312Y67571D01*
X377608Y67636D01*
X377618Y67643D01*
X383490Y67643D01*
X383514Y67626D01*
X383812Y67571D01*
X384108Y67636D01*
X384118Y67643D01*
X389990Y67643D01*
X390014Y67626D01*
X390312Y67571D01*
X390608Y67636D01*
X390618Y67643D01*
X396412Y67643D01*
X397584Y66471D01*
X397584Y48932D01*
X397644Y48634D01*
X397816Y48384D01*
X398071Y48221D01*
X398346Y48170D01*
X400770Y48170D01*
X401429Y47510D01*
X401682Y47343D01*
X401980Y47287D01*
X402276Y47352D01*
X402524Y47528D01*
X402683Y47786D01*
X402730Y48049D01*
X402730Y48565D01*
X402670Y48863D01*
X402516Y49091D01*
X402516Y66476D01*
X402674Y66715D01*
X402730Y67001D01*
X402730Y86965D01*
X402754Y87225D01*
X402824Y87470D01*
X402940Y87692D01*
X403097Y87888D01*
X403290Y88048D01*
X403510Y88168D01*
X403750Y88241D01*
X404038Y88270D01*
X419164Y88270D01*
X419461Y88330D01*
X419703Y88493D01*
X420410Y89200D01*
X452066Y89200D01*
X453238Y88028D01*
X453238Y87321D01*
X453242Y87246D01*
X453270Y86962D01*
X453270Y36035D01*
X453246Y35775D01*
X453176Y35531D01*
X453060Y35308D01*
X452903Y35112D01*
X452710Y34952D01*
X452490Y34832D01*
X452250Y34759D01*
X451962Y34730D01*
X404035Y34730D01*
X403775Y34754D01*
X403531Y34824D01*
X403308Y34940D01*
X403112Y35097D01*
X402903Y35348D01*
X402896Y35342D01*
X402779Y35482D01*
X402509Y35620D01*
X402206Y35642D01*
X401919Y35544D01*
X401765Y35425D01*
X400770Y34431D01*
X392608Y34431D01*
X392310Y34370D01*
X392060Y34199D01*
X391897Y33943D01*
X391846Y33669D01*
X391846Y30771D01*
X391906Y30473D01*
X392069Y30232D01*
X393042Y29259D01*
X393042Y17863D01*
X391870Y16692D01*
X381945Y16692D01*
X381647Y16631D01*
X381406Y16468D01*
X380883Y15946D01*
X374108Y15946D01*
X372937Y17117D01*
X372937Y27892D01*
X373613Y28568D01*
X373780Y28821D01*
X373836Y29119D01*
X373771Y29415D01*
X373595Y29663D01*
X373337Y29822D01*
X373074Y29869D01*
X365917Y29869D01*
X365620Y29809D01*
X365370Y29637D01*
X365206Y29382D01*
X365155Y29083D01*
X365225Y28788D01*
X365378Y28568D01*
X366055Y27892D01*
X366055Y17117D01*
X364883Y15946D01*
X359305Y15946D01*
X359007Y15885D01*
X358766Y15722D01*
X358398Y15355D01*
X347002Y15355D01*
X345831Y16526D01*
X345831Y26170D01*
X347002Y27342D01*
X356175Y27342D01*
X356472Y27402D01*
X356722Y27573D01*
X356885Y27829D01*
X356888Y27843D01*
X358108Y29064D01*
X363692Y29064D01*
X363989Y29124D01*
X364239Y29295D01*
X364403Y29551D01*
X364454Y29850D01*
X364384Y30145D01*
X364231Y30364D01*
X363555Y31041D01*
X363555Y33183D01*
X363494Y33480D01*
X363323Y33730D01*
X363067Y33893D01*
X362793Y33945D01*
X360332Y33945D01*
X360034Y33884D01*
X359784Y33713D01*
X359621Y33457D01*
X359570Y33183D01*
X359570Y32830D01*
X358398Y31659D01*
X354386Y31659D01*
X354094Y31601D01*
X353152Y31210D01*
X350848Y31210D01*
X349906Y31601D01*
X349614Y31659D01*
X347002Y31659D01*
X345831Y32830D01*
X345831Y42474D01*
X347002Y43646D01*
X354457Y43646D01*
X354754Y43706D01*
X355004Y43877D01*
X355168Y44133D01*
X355219Y44432D01*
X355149Y44727D01*
X354996Y44946D01*
X327206Y72736D01*
X327206Y261207D01*
X327146Y261504D01*
X326983Y261746D01*
X301221Y287508D01*
X300968Y287675D01*
X300682Y287731D01*
X278863Y287731D01*
X278565Y287671D01*
X278324Y287508D01*
X277291Y286475D01*
X256762Y286475D01*
X256465Y286415D01*
X256215Y286243D01*
X256051Y285988D01*
X256000Y285713D01*
X256000Y106425D01*
X256060Y106127D01*
X256232Y105877D01*
X256470Y105721D01*
X259630Y104412D01*
X264412Y99630D01*
X267000Y93382D01*
X267000Y86618D01*
X264412Y80370D01*
X259630Y75588D01*
X256470Y74279D01*
X256219Y74110D01*
X256053Y73856D01*
X256000Y73575D01*
X256000Y3524D01*
X256060Y3227D01*
X256232Y2977D01*
X256487Y2813D01*
X256762Y2762D01*
X456238Y2762D01*
X456535Y2822D01*
G37*
%LPC*%
G36*
X279848Y441210D02*
X277720Y442091D01*
X276091Y443720D01*
X275210Y445848D01*
X275210Y448152D01*
X276091Y450280D01*
X277720Y451909D01*
X279848Y452790D01*
X282152Y452790D01*
X284280Y451909D01*
X285909Y450280D01*
X286790Y448152D01*
X286790Y445848D01*
X285909Y443720D01*
X284280Y442091D01*
X282152Y441210D01*
X279848Y441210D01*
G37*
G36*
X419097Y348603D02*
X418989Y348674D01*
X418703Y348730D01*
X410035Y348730D01*
X409775Y348754D01*
X409531Y348824D01*
X409308Y348940D01*
X409112Y349097D01*
X408952Y349290D01*
X408832Y349510D01*
X408759Y349750D01*
X408730Y350038D01*
X408730Y367968D01*
X408670Y368265D01*
X408498Y368515D01*
X408243Y368679D01*
X407968Y368730D01*
X406630Y368730D01*
X406333Y368670D01*
X406083Y368498D01*
X405919Y368243D01*
X405868Y367968D01*
X405868Y367356D01*
X404696Y366185D01*
X398895Y366185D01*
X398870Y366201D01*
X398572Y366256D01*
X398276Y366191D01*
X398266Y366185D01*
X392395Y366185D01*
X392370Y366201D01*
X392072Y366256D01*
X391776Y366191D01*
X391766Y366185D01*
X385895Y366185D01*
X385870Y366201D01*
X385572Y366256D01*
X385276Y366191D01*
X385266Y366185D01*
X379395Y366185D01*
X379370Y366201D01*
X379072Y366256D01*
X378776Y366191D01*
X378766Y366185D01*
X372972Y366185D01*
X371800Y367356D01*
X371800Y384734D01*
X371964Y384981D01*
X372020Y385279D01*
X371955Y385576D01*
X371797Y385806D01*
X367977Y389626D01*
X367724Y389793D01*
X367438Y389849D01*
X359421Y389849D01*
X358250Y391021D01*
X358250Y402379D01*
X359421Y403551D01*
X370287Y403551D01*
X371459Y402379D01*
X371459Y394362D01*
X371519Y394065D01*
X371682Y393824D01*
X372441Y393065D01*
X372694Y392897D01*
X372992Y392842D01*
X373288Y392907D01*
X373535Y393082D01*
X373695Y393340D01*
X373742Y393603D01*
X373742Y402379D01*
X374913Y403551D01*
X384189Y403551D01*
X384486Y403611D01*
X384736Y403783D01*
X384899Y404038D01*
X384951Y404313D01*
X384951Y404968D01*
X384890Y405265D01*
X384719Y405515D01*
X384463Y405679D01*
X384189Y405730D01*
X362035Y405730D01*
X361775Y405754D01*
X361531Y405824D01*
X361308Y405940D01*
X361112Y406097D01*
X360952Y406290D01*
X360832Y406510D01*
X360759Y406750D01*
X360730Y407038D01*
X360730Y443965D01*
X360754Y444225D01*
X360824Y444470D01*
X360940Y444692D01*
X361097Y444888D01*
X361290Y445048D01*
X361510Y445168D01*
X361750Y445241D01*
X362038Y445270D01*
X449965Y445270D01*
X450225Y445246D01*
X450470Y445176D01*
X450692Y445060D01*
X450888Y444903D01*
X451048Y444710D01*
X451168Y444490D01*
X451241Y444250D01*
X451270Y443962D01*
X451270Y407035D01*
X451246Y406775D01*
X451176Y406531D01*
X451060Y406308D01*
X450903Y406112D01*
X450710Y405952D01*
X450490Y405832D01*
X450250Y405759D01*
X449962Y405730D01*
X414414Y405730D01*
X414116Y405670D01*
X413866Y405498D01*
X413703Y405243D01*
X413652Y404968D01*
X413652Y402032D01*
X413712Y401735D01*
X413883Y401485D01*
X414139Y401321D01*
X414414Y401270D01*
X449965Y401270D01*
X450225Y401246D01*
X450470Y401176D01*
X450692Y401060D01*
X450888Y400903D01*
X451048Y400710D01*
X451168Y400490D01*
X451241Y400250D01*
X451270Y399962D01*
X451270Y382451D01*
X451330Y382154D01*
X451493Y381913D01*
X451974Y381432D01*
X451974Y349775D01*
X450803Y348603D01*
X419097Y348603D01*
G37*
G36*
X277848Y409210D02*
X275720Y410091D01*
X274091Y411720D01*
X273210Y413848D01*
X273210Y416152D01*
X274091Y418280D01*
X275720Y419909D01*
X277848Y420790D01*
X280152Y420790D01*
X282280Y419909D01*
X283909Y418280D01*
X284790Y416152D01*
X284790Y413848D01*
X283909Y411720D01*
X282280Y410091D01*
X280152Y409210D01*
X277848Y409210D01*
G37*
G36*
X359972Y366185D02*
X358800Y367356D01*
X358800Y371772D01*
X358740Y372069D01*
X358568Y372319D01*
X358313Y372483D01*
X358014Y372534D01*
X357719Y372464D01*
X357499Y372311D01*
X357280Y372091D01*
X355152Y371210D01*
X352848Y371210D01*
X350720Y372091D01*
X349091Y373720D01*
X348210Y375848D01*
X348210Y378152D01*
X349091Y380280D01*
X350720Y381909D01*
X352848Y382790D01*
X355152Y382790D01*
X357280Y381909D01*
X357499Y381689D01*
X357752Y381522D01*
X358050Y381466D01*
X358346Y381531D01*
X358594Y381707D01*
X358753Y381965D01*
X358800Y382228D01*
X358800Y384732D01*
X359972Y385904D01*
X365696Y385904D01*
X366868Y384732D01*
X366868Y367356D01*
X365696Y366185D01*
X359972Y366185D01*
G37*
G36*
X406209Y299730D02*
X405949Y299754D01*
X405704Y299824D01*
X405482Y299940D01*
X405286Y300097D01*
X405126Y300290D01*
X405006Y300510D01*
X404933Y300750D01*
X404904Y301038D01*
X404904Y309003D01*
X404844Y309300D01*
X404681Y309541D01*
X404300Y309922D01*
X404300Y327298D01*
X404681Y327679D01*
X404848Y327932D01*
X404904Y328217D01*
X404904Y340965D01*
X404928Y341225D01*
X404998Y341470D01*
X405114Y341692D01*
X405271Y341888D01*
X405464Y342048D01*
X405684Y342168D01*
X405924Y342241D01*
X406212Y342270D01*
X418497Y342270D01*
X418794Y342330D01*
X419036Y342493D01*
X419146Y342603D01*
X450803Y342603D01*
X451974Y341432D01*
X451974Y309775D01*
X451493Y309294D01*
X451326Y309041D01*
X451270Y308755D01*
X451270Y301035D01*
X451246Y300775D01*
X451176Y300531D01*
X451060Y300308D01*
X450903Y300112D01*
X450710Y299952D01*
X450490Y299832D01*
X450250Y299759D01*
X449962Y299730D01*
X406209Y299730D01*
G37*
G36*
X304434Y9725D02*
X301356Y11000D01*
X299000Y13356D01*
X297725Y16434D01*
X297725Y19766D01*
X299000Y22844D01*
X301356Y25200D01*
X302836Y25813D01*
X303087Y25982D01*
X303253Y26237D01*
X303306Y26517D01*
X303306Y141427D01*
X303246Y141724D01*
X303083Y141966D01*
X287616Y157433D01*
X287363Y157600D01*
X287077Y157656D01*
X282107Y157656D01*
X281810Y157596D01*
X281560Y157424D01*
X281396Y157169D01*
X281345Y156894D01*
X281345Y156122D01*
X280173Y154950D01*
X263267Y154950D01*
X262095Y156122D01*
X262095Y164778D01*
X263267Y165950D01*
X277880Y165950D01*
X278178Y166010D01*
X278428Y166182D01*
X278591Y166437D01*
X278642Y166736D01*
X278572Y167031D01*
X278419Y167251D01*
X278243Y167427D01*
X277990Y167594D01*
X277704Y167650D01*
X263267Y167650D01*
X262095Y168822D01*
X262095Y177478D01*
X263267Y178650D01*
X276487Y178650D01*
X276784Y178710D01*
X277034Y178882D01*
X277198Y179137D01*
X277220Y179258D01*
X278421Y180459D01*
X289779Y180459D01*
X290951Y179287D01*
X290951Y177410D01*
X291011Y177113D01*
X291183Y176863D01*
X291438Y176699D01*
X291713Y176648D01*
X294321Y176648D01*
X294618Y176708D01*
X294868Y176880D01*
X295025Y177118D01*
X295091Y177280D01*
X296720Y178909D01*
X298848Y179790D01*
X301152Y179790D01*
X303280Y178909D01*
X304909Y177280D01*
X305790Y175152D01*
X305790Y172848D01*
X304909Y170720D01*
X303280Y169091D01*
X301152Y168210D01*
X298848Y168210D01*
X296720Y169091D01*
X294987Y170825D01*
X294976Y170842D01*
X294721Y171007D01*
X294442Y171060D01*
X291713Y171060D01*
X291416Y171000D01*
X291166Y170828D01*
X291002Y170573D01*
X290951Y170298D01*
X290951Y168421D01*
X289779Y167250D01*
X280714Y167250D01*
X280416Y167189D01*
X280166Y167018D01*
X280003Y166762D01*
X279952Y166463D01*
X280022Y166168D01*
X280175Y165949D01*
X281345Y164778D01*
X281345Y164006D01*
X281405Y163709D01*
X281577Y163459D01*
X281832Y163295D01*
X282107Y163244D01*
X289707Y163244D01*
X308894Y144057D01*
X308894Y26517D01*
X308954Y26220D01*
X309126Y25970D01*
X309364Y25813D01*
X310844Y25200D01*
X313200Y22844D01*
X314475Y19766D01*
X314475Y16434D01*
X313200Y13356D01*
X310844Y11000D01*
X307766Y9725D01*
X304434Y9725D01*
G37*
G36*
X263267Y142250D02*
X262095Y143422D01*
X262095Y152078D01*
X263267Y153250D01*
X280173Y153250D01*
X281345Y152078D01*
X281345Y143422D01*
X280173Y142250D01*
X263267Y142250D01*
G37*
G36*
X358188Y105358D02*
X357016Y106529D01*
X357016Y118984D01*
X356956Y119281D01*
X356793Y119523D01*
X356601Y119715D01*
X356348Y119883D01*
X356050Y119938D01*
X355770Y119880D01*
X354152Y119210D01*
X351848Y119210D01*
X349720Y120091D01*
X348091Y121720D01*
X347210Y123848D01*
X347210Y126152D01*
X348091Y128280D01*
X349720Y129909D01*
X351848Y130790D01*
X354152Y130790D01*
X356280Y129909D01*
X357909Y128280D01*
X358790Y126152D01*
X358790Y125839D01*
X358850Y125541D01*
X359022Y125291D01*
X359277Y125128D01*
X359552Y125077D01*
X363912Y125077D01*
X365084Y123905D01*
X365084Y106529D01*
X363912Y105358D01*
X358188Y105358D01*
G37*
G36*
X291734Y35125D02*
X288656Y36400D01*
X286300Y38756D01*
X285025Y41834D01*
X285025Y45166D01*
X286300Y48244D01*
X288656Y50600D01*
X291734Y51875D01*
X295066Y51875D01*
X298144Y50600D01*
X300500Y48244D01*
X301775Y45166D01*
X301775Y41834D01*
X300500Y38756D01*
X298144Y36400D01*
X295066Y35125D01*
X291734Y35125D01*
G37*
G36*
X330187Y15750D02*
X328522Y16712D01*
X328432Y16756D01*
X327277Y17234D01*
X326884Y17627D01*
X326726Y17748D01*
X325663Y18363D01*
X325048Y19426D01*
X324927Y19584D01*
X324534Y19977D01*
X324056Y21132D01*
X324012Y21222D01*
X323050Y22887D01*
X323050Y28113D01*
X324012Y29778D01*
X324056Y29868D01*
X324534Y31023D01*
X324927Y31416D01*
X325048Y31574D01*
X325663Y32638D01*
X326726Y33252D01*
X326884Y33373D01*
X327277Y33766D01*
X328432Y34244D01*
X328522Y34288D01*
X330187Y35250D01*
X335413Y35250D01*
X337078Y34288D01*
X337168Y34244D01*
X338323Y33766D01*
X338716Y33373D01*
X338874Y33252D01*
X339938Y32638D01*
X340552Y31574D01*
X340673Y31416D01*
X341066Y31023D01*
X341544Y29868D01*
X341588Y29778D01*
X342550Y28113D01*
X342550Y22887D01*
X341588Y21222D01*
X341544Y21132D01*
X341066Y19977D01*
X340673Y19584D01*
X340552Y19426D01*
X339938Y18363D01*
X338874Y17748D01*
X338716Y17627D01*
X338323Y17234D01*
X337168Y16756D01*
X337078Y16712D01*
X335413Y15750D01*
X330187Y15750D01*
G37*
G36*
X279034Y9725D02*
X275956Y11000D01*
X273600Y13356D01*
X272325Y16434D01*
X272325Y19766D01*
X273600Y22844D01*
X275956Y25200D01*
X279034Y26475D01*
X282366Y26475D01*
X285444Y25200D01*
X287800Y22844D01*
X289075Y19766D01*
X289075Y16434D01*
X287800Y13356D01*
X285444Y11000D01*
X282366Y9725D01*
X279034Y9725D01*
G37*
%LPD*%
G36*
X234543Y2821D02*
X234789Y2990D01*
X234950Y3242D01*
X235000Y3512D01*
X235000Y22427D01*
X234900Y22802D01*
X234850Y22888D01*
X234850Y28113D01*
X234900Y28198D01*
X235000Y28573D01*
X235000Y81641D01*
X234943Y81928D01*
X233000Y86618D01*
X233000Y93382D01*
X234943Y98072D01*
X235000Y98359D01*
X235000Y371641D01*
X234943Y371928D01*
X233000Y376618D01*
X233000Y383382D01*
X234943Y388072D01*
X235000Y388359D01*
X235000Y496488D01*
X234941Y496781D01*
X234772Y497027D01*
X234520Y497188D01*
X234250Y497238D01*
X226634Y497238D01*
X226342Y497179D01*
X226095Y497010D01*
X225935Y496758D01*
X225884Y496464D01*
X225941Y496201D01*
X226790Y494152D01*
X226790Y491848D01*
X225909Y489720D01*
X224280Y488091D01*
X222152Y487210D01*
X219848Y487210D01*
X217720Y488091D01*
X216091Y489720D01*
X215210Y491848D01*
X215210Y494152D01*
X216059Y496201D01*
X216116Y496494D01*
X216054Y496786D01*
X215883Y497031D01*
X215631Y497190D01*
X215366Y497238D01*
X3512Y497238D01*
X3219Y497179D01*
X2973Y497010D01*
X2812Y496758D01*
X2762Y496488D01*
X2762Y3512D01*
X2821Y3219D01*
X2990Y2973D01*
X3242Y2812D01*
X3512Y2762D01*
X234250Y2762D01*
X234543Y2821D01*
G37*
%LPC*%
G36*
X100076Y476758D02*
X99903Y476781D01*
X99733Y476819D01*
X99566Y476871D01*
X99405Y476938D01*
X99250Y477019D01*
X99103Y477112D01*
X98965Y477219D01*
X98836Y477336D01*
X98719Y477465D01*
X98612Y477603D01*
X98519Y477750D01*
X98438Y477905D01*
X98371Y478066D01*
X98319Y478233D01*
X98281Y478403D01*
X98258Y478576D01*
X98250Y478766D01*
X98250Y485234D01*
X98258Y485424D01*
X98281Y485597D01*
X98319Y485767D01*
X98371Y485934D01*
X98438Y486095D01*
X98519Y486250D01*
X98612Y486397D01*
X98719Y486535D01*
X98836Y486664D01*
X98965Y486782D01*
X99103Y486888D01*
X99250Y486981D01*
X99405Y487062D01*
X99566Y487129D01*
X99733Y487181D01*
X99903Y487219D01*
X100076Y487242D01*
X100250Y487249D01*
X100424Y487242D01*
X100597Y487219D01*
X100767Y487181D01*
X100934Y487129D01*
X101095Y487062D01*
X101250Y486981D01*
X101397Y486888D01*
X101535Y486782D01*
X101664Y486664D01*
X101782Y486535D01*
X101888Y486397D01*
X101981Y486250D01*
X102062Y486095D01*
X102129Y485934D01*
X102181Y485767D01*
X102219Y485597D01*
X102242Y485424D01*
X102250Y485234D01*
X102250Y478766D01*
X102242Y478576D01*
X102219Y478403D01*
X102181Y478233D01*
X102129Y478066D01*
X102062Y477905D01*
X101981Y477750D01*
X101888Y477603D01*
X101782Y477465D01*
X101664Y477336D01*
X101535Y477219D01*
X101397Y477112D01*
X101250Y477019D01*
X101095Y476938D01*
X100934Y476871D01*
X100767Y476819D01*
X100597Y476781D01*
X100424Y476758D01*
X100250Y476751D01*
X100076Y476758D01*
G37*
G36*
X177576Y476758D02*
X177403Y476781D01*
X177233Y476819D01*
X177066Y476871D01*
X176905Y476938D01*
X176750Y477019D01*
X176603Y477112D01*
X176465Y477219D01*
X176336Y477336D01*
X176219Y477465D01*
X176112Y477603D01*
X176019Y477750D01*
X175938Y477905D01*
X175871Y478066D01*
X175819Y478233D01*
X175781Y478403D01*
X175758Y478576D01*
X175750Y478766D01*
X175750Y485234D01*
X175758Y485424D01*
X175781Y485597D01*
X175819Y485767D01*
X175871Y485934D01*
X175938Y486095D01*
X176019Y486250D01*
X176112Y486397D01*
X176219Y486535D01*
X176336Y486664D01*
X176465Y486782D01*
X176603Y486888D01*
X176750Y486981D01*
X176905Y487062D01*
X177066Y487129D01*
X177233Y487181D01*
X177403Y487219D01*
X177576Y487242D01*
X177750Y487249D01*
X177924Y487242D01*
X178097Y487219D01*
X178267Y487181D01*
X178434Y487129D01*
X178595Y487062D01*
X178750Y486981D01*
X178897Y486888D01*
X179035Y486782D01*
X179164Y486664D01*
X179282Y486535D01*
X179388Y486397D01*
X179481Y486250D01*
X179562Y486095D01*
X179629Y485934D01*
X179681Y485767D01*
X179719Y485597D01*
X179742Y485424D01*
X179750Y485234D01*
X179750Y478766D01*
X179742Y478576D01*
X179719Y478403D01*
X179681Y478233D01*
X179629Y478066D01*
X179562Y477905D01*
X179481Y477750D01*
X179388Y477603D01*
X179282Y477465D01*
X179164Y477336D01*
X179035Y477219D01*
X178897Y477112D01*
X178750Y477019D01*
X178595Y476938D01*
X178434Y476871D01*
X178267Y476819D01*
X178097Y476781D01*
X177924Y476758D01*
X177750Y476751D01*
X177576Y476758D01*
G37*
G36*
X63489Y454150D02*
X62317Y455322D01*
X62317Y484918D01*
X63489Y486090D01*
X72511Y486090D01*
X73683Y484918D01*
X73683Y474445D01*
X73742Y474152D01*
X73911Y473906D01*
X74163Y473745D01*
X74457Y473695D01*
X74747Y473764D01*
X74963Y473915D01*
X75057Y474008D01*
X75222Y474257D01*
X75276Y474550D01*
X75219Y474826D01*
X75210Y474848D01*
X75210Y477152D01*
X76091Y479280D01*
X77720Y480909D01*
X79848Y481790D01*
X82152Y481790D01*
X84280Y480909D01*
X85909Y479280D01*
X86790Y477152D01*
X86790Y474848D01*
X85909Y472720D01*
X84280Y471091D01*
X82152Y470210D01*
X79848Y470210D01*
X79826Y470219D01*
X79533Y470277D01*
X79240Y470215D01*
X79008Y470057D01*
X76277Y467326D01*
X74433Y467326D01*
X74140Y467267D01*
X73894Y467098D01*
X73733Y466846D01*
X73683Y466576D01*
X73683Y455322D01*
X72511Y454150D01*
X63489Y454150D01*
G37*
G36*
X25389Y454150D02*
X24217Y455322D01*
X24217Y484918D01*
X25389Y486090D01*
X34411Y486090D01*
X35583Y484918D01*
X35583Y455322D01*
X34411Y454150D01*
X25389Y454150D01*
G37*
G36*
X106034Y8725D02*
X102956Y10000D01*
X100600Y12356D01*
X99325Y15434D01*
X99325Y18766D01*
X100600Y21844D01*
X102956Y24200D01*
X104443Y24816D01*
X104691Y24983D01*
X104853Y25233D01*
X104906Y25509D01*
X104906Y121832D01*
X104847Y122125D01*
X104686Y122362D01*
X38395Y188654D01*
X38395Y343452D01*
X56810Y361868D01*
X70650Y361868D01*
X70943Y361927D01*
X71189Y362096D01*
X71350Y362348D01*
X71400Y362618D01*
X71400Y363976D01*
X71694Y364270D01*
X71859Y364519D01*
X71914Y364812D01*
X71850Y365104D01*
X71694Y365330D01*
X71238Y365786D01*
X70989Y365951D01*
X70708Y366006D01*
X54298Y366006D01*
X54005Y365947D01*
X53768Y365786D01*
X35852Y347870D01*
X35687Y347622D01*
X35632Y347340D01*
X35632Y51909D01*
X35691Y51616D01*
X35860Y51370D01*
X36095Y51216D01*
X37582Y50600D01*
X39938Y48244D01*
X41213Y45166D01*
X41213Y41834D01*
X39938Y38756D01*
X37582Y36400D01*
X34504Y35125D01*
X31172Y35125D01*
X28094Y36400D01*
X25738Y38756D01*
X24463Y41834D01*
X24463Y45166D01*
X25738Y48244D01*
X28094Y50600D01*
X29581Y51216D01*
X29829Y51383D01*
X29991Y51633D01*
X30044Y51909D01*
X30044Y349965D01*
X51673Y371594D01*
X70708Y371594D01*
X71000Y371653D01*
X71238Y371814D01*
X71694Y372270D01*
X71859Y372519D01*
X71914Y372812D01*
X71850Y373104D01*
X71694Y373330D01*
X71238Y373786D01*
X70989Y373951D01*
X70708Y374006D01*
X44668Y374006D01*
X44375Y373947D01*
X44138Y373786D01*
X23152Y352800D01*
X22987Y352552D01*
X22932Y352270D01*
X22932Y26509D01*
X22991Y26216D01*
X23160Y25970D01*
X23395Y25816D01*
X24882Y25200D01*
X27238Y22844D01*
X28513Y19766D01*
X28513Y16434D01*
X27238Y13356D01*
X24882Y11000D01*
X21804Y9725D01*
X18472Y9725D01*
X15394Y11000D01*
X13038Y13356D01*
X11763Y16434D01*
X11763Y19766D01*
X13038Y22844D01*
X15394Y25200D01*
X16881Y25816D01*
X17129Y25983D01*
X17291Y26233D01*
X17344Y26509D01*
X17344Y188415D01*
X17285Y188708D01*
X17116Y188954D01*
X16864Y189115D01*
X16570Y189165D01*
X16280Y189096D01*
X16039Y188920D01*
X15919Y188731D01*
X14280Y187091D01*
X12152Y186210D01*
X9848Y186210D01*
X7720Y187091D01*
X6091Y188720D01*
X5210Y190848D01*
X5210Y193152D01*
X6091Y195280D01*
X7720Y196909D01*
X7743Y196918D01*
X7991Y197085D01*
X8153Y197335D01*
X8206Y197611D01*
X8206Y367157D01*
X36643Y395594D01*
X70708Y395594D01*
X71000Y395653D01*
X71238Y395814D01*
X72974Y397550D01*
X89500Y397550D01*
X89793Y397609D01*
X90039Y397778D01*
X90200Y398030D01*
X90250Y398300D01*
X90250Y404456D01*
X90191Y404749D01*
X90022Y404995D01*
X89770Y405156D01*
X89500Y405206D01*
X59574Y405206D01*
X52506Y412274D01*
X52506Y412760D01*
X52447Y413053D01*
X52278Y413299D01*
X52026Y413460D01*
X51756Y413510D01*
X50789Y413510D01*
X49480Y414818D01*
X49231Y414983D01*
X48938Y415038D01*
X48647Y414974D01*
X48420Y414818D01*
X47111Y413510D01*
X38089Y413510D01*
X36780Y414818D01*
X36531Y414983D01*
X36238Y415038D01*
X35947Y414974D01*
X35720Y414818D01*
X34411Y413510D01*
X25389Y413510D01*
X24080Y414818D01*
X23831Y414983D01*
X23538Y415038D01*
X23247Y414974D01*
X23020Y414818D01*
X21711Y413510D01*
X20744Y413510D01*
X20451Y413451D01*
X20205Y413282D01*
X20044Y413030D01*
X19994Y412760D01*
X19994Y405505D01*
X20053Y405212D01*
X20214Y404975D01*
X21909Y403280D01*
X22790Y401152D01*
X22790Y398848D01*
X21909Y396720D01*
X20280Y395091D01*
X18152Y394210D01*
X15848Y394210D01*
X13720Y395091D01*
X12091Y396720D01*
X11210Y398848D01*
X11210Y401152D01*
X12091Y403280D01*
X13720Y404909D01*
X13943Y405001D01*
X14191Y405168D01*
X14353Y405418D01*
X14406Y405694D01*
X14406Y412760D01*
X14347Y413053D01*
X14178Y413299D01*
X13926Y413460D01*
X13656Y413510D01*
X12689Y413510D01*
X11517Y414682D01*
X11517Y444278D01*
X12689Y445450D01*
X21711Y445450D01*
X23020Y444142D01*
X23269Y443977D01*
X23562Y443922D01*
X23854Y443986D01*
X24080Y444142D01*
X25389Y445450D01*
X34411Y445450D01*
X35720Y444142D01*
X35969Y443977D01*
X36262Y443922D01*
X36554Y443986D01*
X36780Y444142D01*
X38089Y445450D01*
X47111Y445450D01*
X48420Y444142D01*
X48669Y443977D01*
X48962Y443922D01*
X49254Y443986D01*
X49480Y444142D01*
X50789Y445450D01*
X59811Y445450D01*
X61120Y444142D01*
X61369Y443977D01*
X61662Y443922D01*
X61954Y443986D01*
X62180Y444142D01*
X63489Y445450D01*
X72511Y445450D01*
X73683Y444278D01*
X73683Y433024D01*
X73742Y432731D01*
X73911Y432485D01*
X74163Y432324D01*
X74433Y432274D01*
X96735Y432274D01*
X105794Y423215D01*
X105794Y417092D01*
X105853Y416800D01*
X106014Y416562D01*
X106470Y416106D01*
X106719Y415941D01*
X107012Y415886D01*
X107304Y415951D01*
X107530Y416106D01*
X107824Y416400D01*
X109407Y416400D01*
X109700Y416459D01*
X109937Y416620D01*
X127112Y433794D01*
X134766Y433794D01*
X135058Y433853D01*
X135296Y434014D01*
X135502Y434220D01*
X135667Y434469D01*
X135722Y434762D01*
X135658Y435054D01*
X135485Y435297D01*
X135231Y435454D01*
X134972Y435500D01*
X129422Y435500D01*
X128250Y436672D01*
X128250Y451328D01*
X129422Y452500D01*
X135456Y452500D01*
X135749Y452559D01*
X135995Y452728D01*
X136156Y452980D01*
X136206Y453250D01*
X136206Y458210D01*
X136147Y458503D01*
X135978Y458749D01*
X135726Y458910D01*
X135456Y458960D01*
X132912Y458960D01*
X129960Y461912D01*
X129960Y466088D01*
X132912Y469040D01*
X137088Y469040D01*
X140040Y466088D01*
X140040Y463222D01*
X140099Y462929D01*
X140260Y462692D01*
X141382Y461570D01*
X141630Y461405D01*
X141924Y461350D01*
X142215Y461414D01*
X142442Y461570D01*
X144412Y463540D01*
X147698Y463540D01*
X147991Y463599D01*
X148237Y463768D01*
X148398Y464020D01*
X148448Y464314D01*
X148379Y464604D01*
X148228Y464820D01*
X139308Y473740D01*
X139060Y473905D01*
X138778Y473960D01*
X135912Y473960D01*
X132960Y476912D01*
X132960Y481088D01*
X135912Y484040D01*
X140088Y484040D01*
X143040Y481088D01*
X143040Y478222D01*
X143099Y477929D01*
X143260Y477692D01*
X155858Y465093D01*
X155858Y454624D01*
X155014Y453779D01*
X154849Y453531D01*
X154794Y453249D01*
X154794Y453095D01*
X154853Y452803D01*
X155014Y452565D01*
X156250Y451328D01*
X156250Y440012D01*
X156309Y439719D01*
X156470Y439482D01*
X167938Y428014D01*
X168187Y427849D01*
X168468Y427794D01*
X189532Y427794D01*
X189825Y427853D01*
X190062Y428014D01*
X196643Y434594D01*
X196808Y434843D01*
X196862Y435136D01*
X196805Y435411D01*
X196210Y436848D01*
X196210Y439152D01*
X197091Y441280D01*
X198720Y442909D01*
X200848Y443790D01*
X203152Y443790D01*
X205280Y442909D01*
X206909Y441280D01*
X207790Y439152D01*
X207790Y436848D01*
X206909Y434720D01*
X205280Y433091D01*
X203152Y432210D01*
X202472Y432210D01*
X202179Y432151D01*
X201942Y431990D01*
X192157Y422206D01*
X165843Y422206D01*
X152768Y435280D01*
X152520Y435445D01*
X152238Y435500D01*
X149770Y435500D01*
X149477Y435441D01*
X149231Y435272D01*
X149070Y435020D01*
X149020Y434750D01*
X149020Y433728D01*
X139180Y423888D01*
X133419Y423888D01*
X133127Y423829D01*
X132889Y423668D01*
X126901Y417680D01*
X126736Y417431D01*
X126681Y417138D01*
X126745Y416847D01*
X126918Y416603D01*
X127172Y416446D01*
X127431Y416400D01*
X130176Y416400D01*
X130470Y416106D01*
X130719Y415941D01*
X131012Y415886D01*
X131304Y415951D01*
X131530Y416106D01*
X131824Y416400D01*
X138176Y416400D01*
X138470Y416106D01*
X138719Y415941D01*
X139012Y415886D01*
X139304Y415951D01*
X139530Y416106D01*
X139824Y416400D01*
X146176Y416400D01*
X146470Y416106D01*
X146719Y415941D01*
X147012Y415886D01*
X147304Y415951D01*
X147530Y416106D01*
X147824Y416400D01*
X154176Y416400D01*
X155750Y414826D01*
X155750Y410144D01*
X155809Y409851D01*
X155978Y409605D01*
X156230Y409444D01*
X156500Y409394D01*
X157217Y409394D01*
X157509Y409453D01*
X157755Y409622D01*
X157916Y409874D01*
X157967Y410144D01*
X157967Y414323D01*
X159138Y415494D01*
X170004Y415494D01*
X171176Y414323D01*
X171176Y402964D01*
X170004Y401792D01*
X159138Y401792D01*
X157967Y402964D01*
X157967Y403056D01*
X157907Y403349D01*
X157738Y403595D01*
X157487Y403756D01*
X157217Y403806D01*
X156500Y403806D01*
X156207Y403747D01*
X155961Y403578D01*
X155800Y403326D01*
X155750Y403056D01*
X155750Y398374D01*
X154176Y396800D01*
X147824Y396800D01*
X147530Y397094D01*
X147281Y397259D01*
X146988Y397314D01*
X146697Y397250D01*
X146470Y397094D01*
X146014Y396638D01*
X145849Y396389D01*
X145794Y396108D01*
X145794Y377611D01*
X145853Y377318D01*
X146022Y377072D01*
X146257Y376918D01*
X146280Y376909D01*
X147909Y375280D01*
X148790Y373152D01*
X148790Y370848D01*
X147909Y368720D01*
X146280Y367091D01*
X144152Y366210D01*
X141848Y366210D01*
X139720Y367091D01*
X138091Y368720D01*
X137210Y370848D01*
X137210Y373152D01*
X138091Y375280D01*
X139720Y376909D01*
X139743Y376918D01*
X139991Y377085D01*
X140153Y377335D01*
X140206Y377611D01*
X140206Y384207D01*
X140147Y384500D01*
X139978Y384746D01*
X139726Y384907D01*
X139432Y384957D01*
X139142Y384888D01*
X138926Y384737D01*
X138280Y384091D01*
X136152Y383210D01*
X133848Y383210D01*
X131720Y384091D01*
X130091Y385720D01*
X129210Y387848D01*
X129210Y390152D01*
X130091Y392280D01*
X131720Y393909D01*
X131743Y393918D01*
X131991Y394085D01*
X132153Y394335D01*
X132206Y394611D01*
X132206Y396108D01*
X132147Y396400D01*
X131986Y396638D01*
X131530Y397094D01*
X131281Y397259D01*
X130988Y397314D01*
X130697Y397250D01*
X130470Y397094D01*
X130176Y396800D01*
X123824Y396800D01*
X123530Y397094D01*
X123281Y397259D01*
X122988Y397314D01*
X122697Y397250D01*
X122470Y397094D01*
X122176Y396800D01*
X115824Y396800D01*
X115530Y397094D01*
X115281Y397259D01*
X114988Y397314D01*
X114697Y397250D01*
X114470Y397094D01*
X114176Y396800D01*
X107824Y396800D01*
X107530Y397094D01*
X107281Y397259D01*
X106988Y397314D01*
X106697Y397250D01*
X106470Y397094D01*
X106176Y396800D01*
X99824Y396800D01*
X99530Y397094D01*
X99281Y397259D01*
X98988Y397314D01*
X98697Y397250D01*
X98470Y397094D01*
X98176Y396800D01*
X91750Y396800D01*
X91457Y396741D01*
X91211Y396572D01*
X91050Y396320D01*
X91000Y396050D01*
X91000Y389624D01*
X90706Y389330D01*
X90541Y389081D01*
X90486Y388788D01*
X90551Y388497D01*
X90706Y388270D01*
X91000Y387976D01*
X91000Y381624D01*
X90706Y381330D01*
X90541Y381081D01*
X90486Y380788D01*
X90551Y380497D01*
X90706Y380270D01*
X91000Y379976D01*
X91000Y373624D01*
X90706Y373330D01*
X90541Y373081D01*
X90486Y372788D01*
X90551Y372497D01*
X90706Y372270D01*
X91000Y371976D01*
X91000Y365624D01*
X90706Y365330D01*
X90541Y365081D01*
X90486Y364788D01*
X90551Y364497D01*
X90706Y364270D01*
X91000Y363976D01*
X91000Y357624D01*
X90706Y357330D01*
X90541Y357081D01*
X90486Y356788D01*
X90551Y356497D01*
X90706Y356270D01*
X91000Y355976D01*
X91000Y349624D01*
X90706Y349330D01*
X90541Y349081D01*
X90486Y348788D01*
X90551Y348497D01*
X90706Y348270D01*
X91000Y347976D01*
X91000Y341624D01*
X89426Y340050D01*
X72974Y340050D01*
X71238Y341786D01*
X70989Y341951D01*
X70708Y342006D01*
X67616Y342006D01*
X67323Y341947D01*
X67086Y341786D01*
X60989Y335690D01*
X60824Y335441D01*
X60770Y335160D01*
X60770Y327730D01*
X59598Y326559D01*
X49051Y326559D01*
X48758Y326499D01*
X48512Y326330D01*
X48351Y326079D01*
X48301Y325809D01*
X48301Y202961D01*
X48360Y202669D01*
X48520Y202431D01*
X123194Y127757D01*
X123194Y50909D01*
X123253Y50616D01*
X123422Y50370D01*
X123657Y50216D01*
X125144Y49600D01*
X127500Y47244D01*
X128775Y44166D01*
X128775Y40834D01*
X127500Y37756D01*
X125144Y35400D01*
X122066Y34125D01*
X118734Y34125D01*
X115656Y35400D01*
X113300Y37756D01*
X112025Y40834D01*
X112025Y44166D01*
X113300Y47244D01*
X115656Y49600D01*
X117143Y50216D01*
X117391Y50383D01*
X117553Y50633D01*
X117606Y50909D01*
X117606Y125132D01*
X117547Y125425D01*
X117386Y125662D01*
X45263Y197786D01*
X45014Y197951D01*
X44721Y198005D01*
X44429Y197941D01*
X44186Y197769D01*
X44029Y197515D01*
X43983Y197256D01*
X43983Y191279D01*
X44042Y190987D01*
X44202Y190749D01*
X110494Y124457D01*
X110494Y25509D01*
X110553Y25216D01*
X110722Y24970D01*
X110957Y24816D01*
X112444Y24200D01*
X114800Y21844D01*
X116075Y18766D01*
X116075Y15434D01*
X114800Y12356D01*
X112444Y10000D01*
X109366Y8725D01*
X106034Y8725D01*
G37*
G36*
X113163Y448463D02*
X112931Y448500D01*
X112807Y448500D01*
X111949Y448855D01*
X111894Y448876D01*
X110292Y449396D01*
X109458Y450544D01*
X109382Y450633D01*
X108913Y451101D01*
X108762Y451466D01*
X108676Y451620D01*
X108000Y452550D01*
X108000Y456450D01*
X108676Y457380D01*
X108762Y457534D01*
X108913Y457899D01*
X109382Y458367D01*
X109458Y458456D01*
X110292Y459604D01*
X111894Y460124D01*
X111949Y460145D01*
X112807Y460500D01*
X112931Y460500D01*
X113163Y460537D01*
X114000Y460809D01*
X114837Y460537D01*
X115069Y460500D01*
X115194Y460500D01*
X116051Y460145D01*
X116106Y460124D01*
X117708Y459604D01*
X118542Y458456D01*
X118618Y458367D01*
X119087Y457899D01*
X119238Y457534D01*
X119324Y457380D01*
X120000Y456450D01*
X120000Y452550D01*
X119324Y451620D01*
X119238Y451466D01*
X119087Y451101D01*
X118618Y450633D01*
X118542Y450544D01*
X117708Y449396D01*
X116106Y448876D01*
X116051Y448855D01*
X115194Y448500D01*
X115069Y448500D01*
X114837Y448463D01*
X114000Y448191D01*
X113163Y448463D01*
G37*
G36*
X163163Y448463D02*
X162931Y448500D01*
X162807Y448500D01*
X161949Y448855D01*
X161894Y448876D01*
X160292Y449396D01*
X159458Y450544D01*
X159382Y450633D01*
X158913Y451101D01*
X158762Y451466D01*
X158676Y451620D01*
X158000Y452550D01*
X158000Y456450D01*
X158676Y457380D01*
X158762Y457534D01*
X158913Y457899D01*
X159382Y458367D01*
X159458Y458456D01*
X160292Y459604D01*
X161894Y460124D01*
X161949Y460145D01*
X162807Y460500D01*
X162931Y460500D01*
X163163Y460537D01*
X164000Y460809D01*
X164837Y460537D01*
X165069Y460500D01*
X165194Y460500D01*
X166051Y460145D01*
X166106Y460124D01*
X167708Y459604D01*
X168542Y458456D01*
X168618Y458367D01*
X169087Y457899D01*
X169238Y457534D01*
X169324Y457380D01*
X170000Y456450D01*
X170000Y452550D01*
X169324Y451620D01*
X169238Y451466D01*
X169087Y451101D01*
X168618Y450633D01*
X168542Y450544D01*
X167708Y449396D01*
X166106Y448876D01*
X166051Y448855D01*
X165194Y448500D01*
X165069Y448500D01*
X164837Y448463D01*
X164000Y448191D01*
X163163Y448463D01*
G37*
G36*
X101445Y436264D02*
X101142Y436304D01*
X100844Y436370D01*
X100553Y436462D01*
X100271Y436579D01*
X100000Y436720D01*
X99743Y436884D01*
X99501Y437069D01*
X99276Y437276D01*
X99069Y437501D01*
X98884Y437743D01*
X98720Y438000D01*
X98579Y438271D01*
X98462Y438553D01*
X98370Y438844D01*
X98304Y439142D01*
X98264Y439445D01*
X98250Y439766D01*
X98250Y448234D01*
X98264Y448555D01*
X98304Y448858D01*
X98370Y449156D01*
X98462Y449447D01*
X98579Y449729D01*
X98720Y450000D01*
X98884Y450257D01*
X99069Y450499D01*
X99276Y450724D01*
X99501Y450931D01*
X99743Y451116D01*
X100000Y451280D01*
X100271Y451422D01*
X100553Y451538D01*
X100844Y451630D01*
X101142Y451696D01*
X101445Y451736D01*
X101750Y451749D01*
X102055Y451736D01*
X102358Y451696D01*
X102656Y451630D01*
X102947Y451538D01*
X103229Y451422D01*
X103500Y451280D01*
X103757Y451116D01*
X103999Y450931D01*
X104224Y450724D01*
X104431Y450499D01*
X104616Y450257D01*
X104780Y450000D01*
X104922Y449729D01*
X105038Y449447D01*
X105130Y449156D01*
X105196Y448858D01*
X105236Y448555D01*
X105250Y448234D01*
X105250Y439766D01*
X105236Y439445D01*
X105196Y439142D01*
X105130Y438844D01*
X105038Y438553D01*
X104922Y438271D01*
X104780Y438000D01*
X104616Y437743D01*
X104431Y437501D01*
X104224Y437276D01*
X103999Y437069D01*
X103757Y436884D01*
X103500Y436720D01*
X103229Y436579D01*
X102947Y436462D01*
X102656Y436370D01*
X102358Y436304D01*
X102055Y436264D01*
X101750Y436251D01*
X101445Y436264D01*
G37*
G36*
X175945Y436264D02*
X175642Y436304D01*
X175344Y436370D01*
X175053Y436462D01*
X174771Y436579D01*
X174500Y436720D01*
X174243Y436884D01*
X174001Y437069D01*
X173776Y437276D01*
X173569Y437501D01*
X173384Y437743D01*
X173220Y438000D01*
X173079Y438271D01*
X172962Y438553D01*
X172870Y438844D01*
X172804Y439142D01*
X172764Y439445D01*
X172750Y439766D01*
X172750Y448234D01*
X172764Y448555D01*
X172804Y448858D01*
X172870Y449156D01*
X172962Y449447D01*
X173079Y449729D01*
X173220Y450000D01*
X173384Y450257D01*
X173569Y450499D01*
X173776Y450724D01*
X174001Y450931D01*
X174243Y451116D01*
X174500Y451280D01*
X174771Y451422D01*
X175053Y451538D01*
X175344Y451630D01*
X175642Y451696D01*
X175945Y451736D01*
X176250Y451749D01*
X176555Y451736D01*
X176858Y451696D01*
X177156Y451630D01*
X177447Y451538D01*
X177729Y451422D01*
X178000Y451280D01*
X178257Y451116D01*
X178499Y450931D01*
X178724Y450724D01*
X178931Y450499D01*
X179116Y450257D01*
X179280Y450000D01*
X179422Y449729D01*
X179538Y449447D01*
X179630Y449156D01*
X179696Y448858D01*
X179736Y448555D01*
X179750Y448234D01*
X179750Y439766D01*
X179736Y439445D01*
X179696Y439142D01*
X179630Y438844D01*
X179538Y438553D01*
X179422Y438271D01*
X179280Y438000D01*
X179116Y437743D01*
X178931Y437501D01*
X178724Y437276D01*
X178499Y437069D01*
X178257Y436884D01*
X178000Y436720D01*
X177729Y436579D01*
X177447Y436462D01*
X177156Y436370D01*
X176858Y436304D01*
X176555Y436264D01*
X176250Y436251D01*
X175945Y436264D01*
G37*
G36*
X181552Y375196D02*
X180380Y376367D01*
X180380Y378256D01*
X180321Y378549D01*
X180152Y378795D01*
X179901Y378956D01*
X179630Y379006D01*
X173774Y379006D01*
X172949Y379830D01*
X172700Y379995D01*
X172419Y380050D01*
X156574Y380050D01*
X155000Y381624D01*
X155000Y387976D01*
X156574Y389550D01*
X173026Y389550D01*
X174600Y387976D01*
X174600Y386393D01*
X174659Y386100D01*
X174820Y385863D01*
X175869Y384814D01*
X176117Y384649D01*
X176399Y384594D01*
X179630Y384594D01*
X179923Y384653D01*
X180169Y384822D01*
X180330Y385074D01*
X180380Y385344D01*
X180380Y387233D01*
X181552Y388405D01*
X192911Y388405D01*
X194082Y387233D01*
X194082Y376367D01*
X192911Y375196D01*
X181552Y375196D01*
G37*
G36*
X112848Y259210D02*
X110720Y260091D01*
X109091Y261720D01*
X108210Y263848D01*
X108210Y266152D01*
X109091Y268280D01*
X110720Y269909D01*
X112848Y270790D01*
X115152Y270790D01*
X115175Y270781D01*
X115468Y270724D01*
X115760Y270785D01*
X115992Y270943D01*
X117477Y272428D01*
X127574Y272428D01*
X127867Y272487D01*
X128113Y272656D01*
X128274Y272908D01*
X128324Y273178D01*
X128324Y275313D01*
X128571Y275561D01*
X128736Y275810D01*
X128791Y276103D01*
X128727Y276395D01*
X128554Y276638D01*
X128300Y276795D01*
X128041Y276841D01*
X119313Y276841D01*
X118050Y278104D01*
X117801Y278269D01*
X117508Y278323D01*
X117216Y278259D01*
X116973Y278087D01*
X116816Y277833D01*
X116770Y277573D01*
X116770Y274130D01*
X115598Y272959D01*
X104202Y272959D01*
X103031Y274130D01*
X103031Y283774D01*
X104202Y284946D01*
X115598Y284946D01*
X116130Y284414D01*
X116379Y284249D01*
X116660Y284194D01*
X117391Y284194D01*
X117684Y284253D01*
X117930Y284422D01*
X118091Y284674D01*
X118105Y284752D01*
X119313Y285959D01*
X130087Y285959D01*
X130709Y285338D01*
X130958Y285173D01*
X131251Y285118D01*
X131543Y285182D01*
X131786Y285355D01*
X131943Y285609D01*
X131989Y285868D01*
X131989Y292932D01*
X131930Y293224D01*
X131761Y293471D01*
X131509Y293631D01*
X131215Y293682D01*
X130925Y293613D01*
X130709Y293462D01*
X130087Y292841D01*
X119313Y292841D01*
X118050Y294104D01*
X117801Y294269D01*
X117508Y294323D01*
X117216Y294259D01*
X116973Y294087D01*
X116816Y293833D01*
X116770Y293573D01*
X116770Y290434D01*
X115598Y289263D01*
X104202Y289263D01*
X103031Y290434D01*
X103031Y296864D01*
X102971Y297156D01*
X102811Y297394D01*
X99683Y300522D01*
X99434Y300687D01*
X99153Y300742D01*
X88500Y300742D01*
X87329Y301913D01*
X87329Y312779D01*
X88500Y313951D01*
X89500Y313951D01*
X89793Y314010D01*
X90039Y314179D01*
X90200Y314430D01*
X90250Y314701D01*
X90250Y331226D01*
X91824Y332800D01*
X98176Y332800D01*
X98470Y332506D01*
X98719Y332341D01*
X99012Y332286D01*
X99304Y332351D01*
X99530Y332506D01*
X99824Y332800D01*
X106176Y332800D01*
X106470Y332506D01*
X106719Y332341D01*
X107012Y332286D01*
X107304Y332351D01*
X107530Y332506D01*
X107824Y332800D01*
X114176Y332800D01*
X114470Y332506D01*
X114719Y332341D01*
X115012Y332286D01*
X115304Y332351D01*
X115530Y332506D01*
X115824Y332800D01*
X122176Y332800D01*
X122470Y332506D01*
X122719Y332341D01*
X123012Y332286D01*
X123304Y332351D01*
X123530Y332506D01*
X123824Y332800D01*
X130176Y332800D01*
X130470Y332506D01*
X130719Y332341D01*
X131012Y332286D01*
X131304Y332351D01*
X131530Y332506D01*
X131824Y332800D01*
X138176Y332800D01*
X138470Y332506D01*
X138719Y332341D01*
X139012Y332286D01*
X139304Y332351D01*
X139530Y332506D01*
X139824Y332800D01*
X146176Y332800D01*
X146470Y332506D01*
X146719Y332341D01*
X147012Y332286D01*
X147304Y332351D01*
X147530Y332506D01*
X147824Y332800D01*
X154250Y332800D01*
X154543Y332859D01*
X154789Y333028D01*
X154950Y333280D01*
X155000Y333550D01*
X155000Y339976D01*
X155294Y340270D01*
X155459Y340519D01*
X155514Y340812D01*
X155450Y341104D01*
X155294Y341330D01*
X155000Y341624D01*
X155000Y347976D01*
X155294Y348270D01*
X155459Y348519D01*
X155514Y348812D01*
X155450Y349104D01*
X155294Y349330D01*
X155000Y349624D01*
X155000Y355976D01*
X155294Y356270D01*
X155459Y356519D01*
X155514Y356812D01*
X155450Y357104D01*
X155294Y357330D01*
X155000Y357624D01*
X155000Y363976D01*
X155294Y364270D01*
X155459Y364519D01*
X155514Y364812D01*
X155450Y365104D01*
X155294Y365330D01*
X155000Y365624D01*
X155000Y371976D01*
X156574Y373550D01*
X173026Y373550D01*
X174600Y371976D01*
X174600Y365624D01*
X174306Y365330D01*
X174141Y365081D01*
X174086Y364788D01*
X174151Y364497D01*
X174306Y364270D01*
X174600Y363976D01*
X174600Y362393D01*
X174659Y362100D01*
X174820Y361863D01*
X183236Y353446D01*
X183236Y348355D01*
X183295Y348062D01*
X183456Y347824D01*
X205457Y325823D01*
X205706Y325658D01*
X205999Y325603D01*
X206291Y325667D01*
X206534Y325840D01*
X206691Y326094D01*
X206738Y326353D01*
X206738Y331503D01*
X207909Y332675D01*
X208396Y332675D01*
X208689Y332734D01*
X208935Y332903D01*
X209096Y333155D01*
X209146Y333449D01*
X209077Y333739D01*
X208926Y333955D01*
X206106Y336776D01*
X206106Y337900D01*
X206047Y338192D01*
X205878Y338438D01*
X205626Y338599D01*
X205356Y338650D01*
X203221Y338650D01*
X202049Y339821D01*
X202049Y350687D01*
X203221Y351859D01*
X214579Y351859D01*
X215751Y350687D01*
X215751Y339821D01*
X214579Y338650D01*
X213945Y338650D01*
X213653Y338590D01*
X213407Y338421D01*
X213246Y338170D01*
X213196Y337876D01*
X213265Y337585D01*
X213415Y337369D01*
X217890Y332895D01*
X218139Y332730D01*
X218420Y332675D01*
X228507Y332675D01*
X229679Y331503D01*
X229679Y287647D01*
X228507Y286475D01*
X207909Y286475D01*
X206873Y287511D01*
X206624Y287676D01*
X206342Y287731D01*
X151187Y287731D01*
X138857Y300060D01*
X138608Y300225D01*
X138315Y300280D01*
X138024Y300216D01*
X137780Y300043D01*
X137623Y299789D01*
X137577Y299530D01*
X137577Y277235D01*
X137636Y276942D01*
X137805Y276696D01*
X138057Y276535D01*
X138327Y276485D01*
X140361Y276485D01*
X141533Y275313D01*
X141533Y263955D01*
X140361Y262783D01*
X129496Y262783D01*
X128324Y263955D01*
X128324Y266090D01*
X128265Y266383D01*
X128096Y266629D01*
X127844Y266790D01*
X127574Y266840D01*
X120540Y266840D01*
X120247Y266781D01*
X120001Y266612D01*
X119840Y266360D01*
X119790Y266090D01*
X119790Y263848D01*
X118909Y261720D01*
X117280Y260091D01*
X115152Y259210D01*
X112848Y259210D01*
G37*
G36*
X69421Y300542D02*
X68249Y301713D01*
X68249Y312579D01*
X69421Y313751D01*
X80779Y313751D01*
X81951Y312579D01*
X81951Y301713D01*
X80779Y300542D01*
X69421Y300542D01*
G37*
G36*
X191221Y163850D02*
X190049Y165021D01*
X190049Y166910D01*
X189990Y167203D01*
X189821Y167449D01*
X189569Y167610D01*
X189299Y167660D01*
X187159Y167660D01*
X186866Y167601D01*
X186629Y167440D01*
X185280Y166091D01*
X183152Y165210D01*
X180848Y165210D01*
X178720Y166091D01*
X177091Y167720D01*
X176210Y169848D01*
X176210Y172152D01*
X177091Y174280D01*
X178720Y175909D01*
X180848Y176790D01*
X183152Y176790D01*
X185280Y175909D01*
X186909Y174280D01*
X187144Y173711D01*
X187311Y173463D01*
X187561Y173301D01*
X187837Y173248D01*
X189299Y173248D01*
X189592Y173307D01*
X189838Y173476D01*
X189999Y173728D01*
X190049Y173998D01*
X190049Y175887D01*
X191221Y177059D01*
X202579Y177059D01*
X203751Y175887D01*
X203751Y173998D01*
X203810Y173705D01*
X203979Y173459D01*
X204231Y173298D01*
X204501Y173248D01*
X207105Y173248D01*
X207398Y173307D01*
X207644Y173476D01*
X207805Y173728D01*
X207855Y173998D01*
X207855Y177478D01*
X209027Y178650D01*
X225933Y178650D01*
X227105Y177478D01*
X227105Y168822D01*
X225933Y167650D01*
X208757Y167650D01*
X208706Y167660D01*
X204501Y167660D01*
X204208Y167601D01*
X203962Y167432D01*
X203801Y167180D01*
X203751Y166910D01*
X203751Y165021D01*
X202579Y163850D01*
X191221Y163850D01*
G37*
G36*
X209027Y142250D02*
X207855Y143422D01*
X207855Y152078D01*
X209028Y153251D01*
X209193Y153500D01*
X209247Y153793D01*
X209183Y154085D01*
X209011Y154328D01*
X208757Y154485D01*
X208497Y154532D01*
X120517Y154532D01*
X119992Y155057D01*
X119743Y155222D01*
X119450Y155276D01*
X119175Y155219D01*
X119152Y155210D01*
X116848Y155210D01*
X114720Y156091D01*
X113091Y157720D01*
X112210Y159848D01*
X112210Y162152D01*
X113091Y164280D01*
X114720Y165909D01*
X116848Y166790D01*
X119152Y166790D01*
X121280Y165909D01*
X122909Y164280D01*
X123790Y162152D01*
X123790Y160870D01*
X123849Y160577D01*
X124018Y160331D01*
X124270Y160170D01*
X124540Y160120D01*
X207105Y160120D01*
X207398Y160179D01*
X207644Y160348D01*
X207805Y160599D01*
X207855Y160870D01*
X207855Y164778D01*
X209027Y165950D01*
X225933Y165950D01*
X227105Y164778D01*
X227105Y156122D01*
X225933Y154950D01*
X216242Y154950D01*
X215949Y154891D01*
X215712Y154730D01*
X215512Y154530D01*
X215347Y154281D01*
X215292Y153988D01*
X215356Y153697D01*
X215529Y153453D01*
X215783Y153296D01*
X216042Y153250D01*
X225933Y153250D01*
X227105Y152078D01*
X227105Y143422D01*
X225933Y142250D01*
X209027Y142250D01*
G37*
G36*
X203534Y35125D02*
X200456Y36400D01*
X198100Y38756D01*
X196825Y41834D01*
X196825Y45166D01*
X198100Y48244D01*
X200456Y50600D01*
X203534Y51875D01*
X206866Y51875D01*
X209944Y50600D01*
X212300Y48244D01*
X213575Y45166D01*
X213575Y41834D01*
X212300Y38756D01*
X209944Y36400D01*
X206866Y35125D01*
X203534Y35125D01*
G37*
G36*
X69626Y15750D02*
X67959Y16712D01*
X67871Y16756D01*
X66715Y17234D01*
X66321Y17628D01*
X66166Y17747D01*
X65101Y18363D01*
X64485Y19428D01*
X64366Y19583D01*
X63972Y19977D01*
X63494Y21133D01*
X63450Y21221D01*
X62488Y22888D01*
X62488Y28112D01*
X63450Y29779D01*
X63494Y29867D01*
X63972Y31023D01*
X64366Y31417D01*
X64485Y31572D01*
X65101Y32638D01*
X66166Y33253D01*
X66321Y33372D01*
X66715Y33766D01*
X67871Y34244D01*
X67959Y34288D01*
X69626Y35250D01*
X74850Y35250D01*
X76517Y34288D01*
X76605Y34244D01*
X77761Y33766D01*
X78155Y33372D01*
X78310Y33253D01*
X79376Y32638D01*
X79991Y31572D01*
X80110Y31417D01*
X80504Y31023D01*
X80982Y29867D01*
X81026Y29779D01*
X81988Y28112D01*
X81988Y22888D01*
X81026Y21221D01*
X80982Y21133D01*
X80504Y19977D01*
X80110Y19583D01*
X79991Y19428D01*
X79376Y18363D01*
X78310Y17747D01*
X78155Y17628D01*
X77761Y17234D01*
X76605Y16756D01*
X76517Y16712D01*
X74850Y15750D01*
X69626Y15750D01*
G37*
G36*
X157188Y14750D02*
X155521Y15712D01*
X155433Y15756D01*
X154277Y16234D01*
X153883Y16628D01*
X153728Y16747D01*
X152663Y17363D01*
X152047Y18428D01*
X151928Y18583D01*
X151534Y18977D01*
X151056Y20133D01*
X151012Y20221D01*
X150050Y21888D01*
X150050Y27112D01*
X151012Y28779D01*
X151056Y28867D01*
X151534Y30023D01*
X151928Y30417D01*
X152047Y30572D01*
X152663Y31638D01*
X153728Y32253D01*
X153883Y32372D01*
X154277Y32766D01*
X155433Y33244D01*
X155521Y33288D01*
X157188Y34250D01*
X162412Y34250D01*
X164079Y33288D01*
X164167Y33244D01*
X165323Y32766D01*
X165717Y32372D01*
X165872Y32253D01*
X166938Y31638D01*
X167553Y30572D01*
X167672Y30417D01*
X168066Y30023D01*
X168544Y28867D01*
X168588Y28779D01*
X169550Y27112D01*
X169550Y21888D01*
X168588Y20221D01*
X168544Y20133D01*
X168066Y18977D01*
X167672Y18583D01*
X167553Y18428D01*
X166938Y17363D01*
X165872Y16747D01*
X165717Y16628D01*
X165323Y16234D01*
X164167Y15756D01*
X164079Y15712D01*
X162412Y14750D01*
X157188Y14750D01*
G37*
G36*
X216234Y9725D02*
X213156Y11000D01*
X210800Y13356D01*
X209525Y16434D01*
X209525Y19766D01*
X210800Y22844D01*
X213156Y25200D01*
X216234Y26475D01*
X219566Y26475D01*
X222644Y25200D01*
X225000Y22844D01*
X226275Y19766D01*
X226275Y16434D01*
X225000Y13356D01*
X222644Y11000D01*
X219566Y9725D01*
X216234Y9725D01*
G37*
G36*
X190834Y9725D02*
X187756Y11000D01*
X185400Y13356D01*
X184125Y16434D01*
X184125Y19766D01*
X185400Y22844D01*
X187756Y25200D01*
X190834Y26475D01*
X194166Y26475D01*
X197244Y25200D01*
X199600Y22844D01*
X200875Y19766D01*
X200875Y16434D01*
X199600Y13356D01*
X197244Y11000D01*
X194166Y9725D01*
X190834Y9725D01*
G37*
G36*
X43872Y9725D02*
X40794Y11000D01*
X38438Y13356D01*
X37163Y16434D01*
X37163Y19766D01*
X38438Y22844D01*
X40794Y25200D01*
X43872Y26475D01*
X47204Y26475D01*
X50282Y25200D01*
X52638Y22844D01*
X53913Y19766D01*
X53913Y16434D01*
X52638Y13356D01*
X50282Y11000D01*
X47204Y9725D01*
X43872Y9725D01*
G37*
G36*
X131434Y8725D02*
X128356Y10000D01*
X126000Y12356D01*
X124725Y15434D01*
X124725Y18766D01*
X126000Y21844D01*
X128356Y24200D01*
X131434Y25475D01*
X134766Y25475D01*
X137844Y24200D01*
X140200Y21844D01*
X141475Y18766D01*
X141475Y15434D01*
X140200Y12356D01*
X137844Y10000D01*
X134766Y8725D01*
X131434Y8725D01*
G37*
%LPD*%
G36*
X384021Y407121D02*
X384521Y407464D01*
X384848Y407975D01*
X384849Y407980D01*
X386122Y409253D01*
X396988Y409253D01*
X398272Y407969D01*
X398280Y407930D01*
X398623Y407429D01*
X399134Y407102D01*
X399684Y407000D01*
X437936Y407000D01*
X438530Y407121D01*
X439031Y407464D01*
X439358Y407975D01*
X439460Y408524D01*
X439460Y410102D01*
X440303Y412138D01*
X441862Y413697D01*
X441990Y413750D01*
X442493Y414089D01*
X442824Y414597D01*
X442930Y415194D01*
X442795Y415785D01*
X442440Y416277D01*
X441990Y416566D01*
X440720Y417092D01*
X439092Y418720D01*
X438210Y420848D01*
X438210Y423152D01*
X439092Y425280D01*
X440556Y426745D01*
X440891Y427250D01*
X441003Y427822D01*
X441003Y441766D01*
X440960Y441980D01*
X440960Y442476D01*
X440839Y443070D01*
X440496Y443571D01*
X439985Y443898D01*
X439436Y444000D01*
X363524Y444000D01*
X362930Y443879D01*
X362429Y443536D01*
X362102Y443025D01*
X362000Y442476D01*
X362000Y408524D01*
X362121Y407930D01*
X362464Y407429D01*
X362975Y407102D01*
X363524Y407000D01*
X383427Y407000D01*
X384021Y407121D01*
G37*
G36*
X451070Y36121D02*
X451571Y36464D01*
X451898Y36975D01*
X452000Y37524D01*
X452000Y85476D01*
X451879Y86070D01*
X451536Y86571D01*
X451025Y86898D01*
X450476Y87000D01*
X405524Y87000D01*
X404930Y86879D01*
X404429Y86536D01*
X404102Y86025D01*
X404000Y85476D01*
X404000Y67186D01*
X404084Y66772D01*
X404084Y48503D01*
X404205Y47908D01*
X404548Y47408D01*
X405059Y47081D01*
X405657Y46979D01*
X406247Y47119D01*
X406686Y47425D01*
X407430Y48170D01*
X417074Y48170D01*
X418246Y46998D01*
X418246Y39889D01*
X418366Y39295D01*
X418692Y38811D01*
X418794Y38709D01*
X418794Y37524D01*
X418915Y36930D01*
X419258Y36429D01*
X419769Y36102D01*
X420318Y36000D01*
X450476Y36000D01*
X451070Y36121D01*
G37*
G36*
X451070Y97121D02*
X451571Y97464D01*
X451898Y97975D01*
X452000Y98524D01*
X452000Y136476D01*
X451879Y137070D01*
X451536Y137571D01*
X451025Y137898D01*
X450476Y138000D01*
X403434Y138000D01*
X402840Y137879D01*
X402357Y137554D01*
X397446Y132644D01*
X397111Y132138D01*
X397000Y131566D01*
X397000Y125120D01*
X397121Y124526D01*
X397446Y124043D01*
X397584Y123905D01*
X397584Y106529D01*
X397446Y106391D01*
X397111Y105886D01*
X397000Y105314D01*
X397000Y104631D01*
X397121Y104036D01*
X397464Y103536D01*
X397975Y103209D01*
X398573Y103107D01*
X399163Y103247D01*
X399602Y103553D01*
X402070Y106021D01*
X402405Y106527D01*
X402516Y107099D01*
X402516Y123905D01*
X403688Y125077D01*
X409412Y125077D01*
X410584Y123905D01*
X410584Y106529D01*
X409180Y105125D01*
X408862Y104911D01*
X403996Y100045D01*
X403661Y99539D01*
X403550Y98967D01*
X403550Y98524D01*
X403671Y97930D01*
X404014Y97429D01*
X404525Y97102D01*
X405074Y97000D01*
X450476Y97000D01*
X451070Y97121D01*
G37*
G36*
X451070Y179121D02*
X451571Y179464D01*
X451898Y179975D01*
X452000Y180524D01*
X452000Y226476D01*
X451879Y227070D01*
X451536Y227571D01*
X451025Y227898D01*
X450476Y228000D01*
X409524Y228000D01*
X408930Y227879D01*
X408429Y227536D01*
X408102Y227025D01*
X408000Y226476D01*
X408000Y181694D01*
X408121Y181099D01*
X408464Y180599D01*
X408975Y180272D01*
X409524Y180170D01*
X419674Y180170D01*
X420397Y179446D01*
X420903Y179111D01*
X421475Y179000D01*
X450476Y179000D01*
X451070Y179121D01*
G37*
G36*
X451070Y231121D02*
X451571Y231464D01*
X451898Y231975D01*
X452000Y232524D01*
X452000Y277476D01*
X451879Y278070D01*
X451536Y278571D01*
X451025Y278898D01*
X450476Y279000D01*
X417493Y279000D01*
X416899Y278879D01*
X416399Y278536D01*
X416072Y278025D01*
X415970Y277427D01*
X416040Y277104D01*
X416040Y274998D01*
X415273Y273145D01*
X414897Y272769D01*
X414562Y272264D01*
X414451Y271692D01*
X414451Y270861D01*
X413279Y269690D01*
X408067Y269690D01*
X407484Y269574D01*
X406003Y268960D01*
X404848Y268960D01*
X404254Y268839D01*
X403770Y268514D01*
X402196Y266940D01*
X401861Y266434D01*
X401750Y265862D01*
X401750Y241452D01*
X401871Y240857D01*
X402214Y240357D01*
X402725Y240030D01*
X403274Y239928D01*
X404692Y239928D01*
X405286Y240048D01*
X405787Y240391D01*
X406114Y240902D01*
X406216Y241452D01*
X406216Y257205D01*
X407388Y258377D01*
X413112Y258377D01*
X414284Y257205D01*
X414284Y239829D01*
X413052Y238597D01*
X412756Y238537D01*
X412273Y238211D01*
X408306Y234244D01*
X408180Y234219D01*
X407679Y233876D01*
X407352Y233365D01*
X407250Y232816D01*
X407250Y232524D01*
X407371Y231930D01*
X407714Y231429D01*
X408225Y231102D01*
X408774Y231000D01*
X450476Y231000D01*
X451070Y231121D01*
G37*
G36*
X449070Y301121D02*
X449571Y301464D01*
X449898Y301975D01*
X450000Y302524D01*
X450000Y339476D01*
X449879Y340070D01*
X449536Y340571D01*
X449025Y340898D01*
X448476Y341000D01*
X407698Y341000D01*
X407104Y340879D01*
X406603Y340536D01*
X406276Y340025D01*
X406174Y339476D01*
X406174Y309393D01*
X406295Y308798D01*
X406638Y308298D01*
X407149Y307971D01*
X407699Y307878D01*
X407699Y307870D01*
X407746Y307870D01*
X407747Y307869D01*
X407747Y307870D01*
X417974Y307870D01*
X419146Y306698D01*
X419146Y302524D01*
X419266Y301930D01*
X419609Y301429D01*
X420120Y301102D01*
X420670Y301000D01*
X448476Y301000D01*
X449070Y301121D01*
G37*
G36*
X449070Y350121D02*
X449571Y350464D01*
X449898Y350975D01*
X450000Y351524D01*
X450000Y398476D01*
X449879Y399070D01*
X449536Y399571D01*
X449025Y399898D01*
X448476Y400000D01*
X415176Y400000D01*
X414581Y399879D01*
X414081Y399536D01*
X413754Y399025D01*
X413652Y398476D01*
X413652Y396723D01*
X412480Y395551D01*
X404779Y395551D01*
X404184Y395430D01*
X403701Y395105D01*
X400446Y391850D01*
X400111Y391344D01*
X400000Y390772D01*
X400000Y371524D01*
X400121Y370930D01*
X400464Y370429D01*
X400975Y370102D01*
X401524Y370000D01*
X402776Y370000D01*
X403370Y370121D01*
X403871Y370464D01*
X404198Y370975D01*
X404300Y371524D01*
X404300Y384732D01*
X405472Y385904D01*
X411196Y385904D01*
X412368Y384732D01*
X412368Y367356D01*
X411113Y366101D01*
X410930Y366064D01*
X410429Y365721D01*
X410102Y365210D01*
X410000Y364661D01*
X410000Y351524D01*
X410121Y350930D01*
X410464Y350429D01*
X410975Y350102D01*
X411524Y350000D01*
X448476Y350000D01*
X449070Y350121D01*
G37*
G36*
X450070Y449121D02*
X450571Y449464D01*
X450898Y449975D01*
X451000Y450524D01*
X451000Y495714D01*
X450879Y496308D01*
X450536Y496809D01*
X450025Y497136D01*
X449476Y497238D01*
X362524Y497238D01*
X361930Y497117D01*
X361429Y496774D01*
X361102Y496263D01*
X361000Y495714D01*
X361000Y450524D01*
X361121Y449930D01*
X361464Y449429D01*
X361975Y449102D01*
X362524Y449000D01*
X449476Y449000D01*
X450070Y449121D01*
G37*
G36*
X403953Y497238D02*
X450953Y497238D01*
X450953Y482238D01*
X448453Y482238D01*
X448453Y451238D01*
X406453Y451238D01*
X406453Y482238D01*
X403953Y482238D01*
X403953Y497238D01*
G37*
D10*
X218208Y328625D03*
X218208Y322275D03*
X218208Y315925D03*
X218208Y309575D03*
X218208Y303225D03*
X218208Y296875D03*
X218208Y290525D03*
X218208Y284175D03*
X266992Y284175D03*
X266992Y290525D03*
X266992Y296875D03*
X266992Y303225D03*
X266992Y309575D03*
X266992Y315925D03*
X266992Y322275D03*
X266992Y328625D03*
D11*
X97063Y330113D02*
X97063Y315887D01*
X92937Y315887D01*
X92937Y330113D01*
X97063Y330113D01*
X97063Y317193D02*
X92937Y317193D01*
X92937Y318499D02*
X97063Y318499D01*
X97063Y319805D02*
X92937Y319805D01*
X92937Y321111D02*
X97063Y321111D01*
X97063Y322417D02*
X92937Y322417D01*
X92937Y323723D02*
X97063Y323723D01*
X97063Y325029D02*
X92937Y325029D01*
X92937Y326335D02*
X97063Y326335D01*
X97063Y327641D02*
X92937Y327641D01*
X92937Y328947D02*
X97063Y328947D01*
X105063Y330113D02*
X105063Y315887D01*
X100937Y315887D01*
X100937Y330113D01*
X105063Y330113D01*
X105063Y317193D02*
X100937Y317193D01*
X100937Y318499D02*
X105063Y318499D01*
X105063Y319805D02*
X100937Y319805D01*
X100937Y321111D02*
X105063Y321111D01*
X105063Y322417D02*
X100937Y322417D01*
X100937Y323723D02*
X105063Y323723D01*
X105063Y325029D02*
X100937Y325029D01*
X100937Y326335D02*
X105063Y326335D01*
X105063Y327641D02*
X100937Y327641D01*
X100937Y328947D02*
X105063Y328947D01*
X113063Y330113D02*
X113063Y315887D01*
X108937Y315887D01*
X108937Y330113D01*
X113063Y330113D01*
X113063Y317193D02*
X108937Y317193D01*
X108937Y318499D02*
X113063Y318499D01*
X113063Y319805D02*
X108937Y319805D01*
X108937Y321111D02*
X113063Y321111D01*
X113063Y322417D02*
X108937Y322417D01*
X108937Y323723D02*
X113063Y323723D01*
X113063Y325029D02*
X108937Y325029D01*
X108937Y326335D02*
X113063Y326335D01*
X113063Y327641D02*
X108937Y327641D01*
X108937Y328947D02*
X113063Y328947D01*
X121063Y330113D02*
X121063Y315887D01*
X116937Y315887D01*
X116937Y330113D01*
X121063Y330113D01*
X121063Y317193D02*
X116937Y317193D01*
X116937Y318499D02*
X121063Y318499D01*
X121063Y319805D02*
X116937Y319805D01*
X116937Y321111D02*
X121063Y321111D01*
X121063Y322417D02*
X116937Y322417D01*
X116937Y323723D02*
X121063Y323723D01*
X121063Y325029D02*
X116937Y325029D01*
X116937Y326335D02*
X121063Y326335D01*
X121063Y327641D02*
X116937Y327641D01*
X116937Y328947D02*
X121063Y328947D01*
X129063Y330113D02*
X129063Y315887D01*
X124937Y315887D01*
X124937Y330113D01*
X129063Y330113D01*
X129063Y317193D02*
X124937Y317193D01*
X124937Y318499D02*
X129063Y318499D01*
X129063Y319805D02*
X124937Y319805D01*
X124937Y321111D02*
X129063Y321111D01*
X129063Y322417D02*
X124937Y322417D01*
X124937Y323723D02*
X129063Y323723D01*
X129063Y325029D02*
X124937Y325029D01*
X124937Y326335D02*
X129063Y326335D01*
X129063Y327641D02*
X124937Y327641D01*
X124937Y328947D02*
X129063Y328947D01*
X137063Y330113D02*
X137063Y315887D01*
X132937Y315887D01*
X132937Y330113D01*
X137063Y330113D01*
X137063Y317193D02*
X132937Y317193D01*
X132937Y318499D02*
X137063Y318499D01*
X137063Y319805D02*
X132937Y319805D01*
X132937Y321111D02*
X137063Y321111D01*
X137063Y322417D02*
X132937Y322417D01*
X132937Y323723D02*
X137063Y323723D01*
X137063Y325029D02*
X132937Y325029D01*
X132937Y326335D02*
X137063Y326335D01*
X137063Y327641D02*
X132937Y327641D01*
X132937Y328947D02*
X137063Y328947D01*
X145063Y330113D02*
X145063Y315887D01*
X140937Y315887D01*
X140937Y330113D01*
X145063Y330113D01*
X145063Y317193D02*
X140937Y317193D01*
X140937Y318499D02*
X145063Y318499D01*
X145063Y319805D02*
X140937Y319805D01*
X140937Y321111D02*
X145063Y321111D01*
X145063Y322417D02*
X140937Y322417D01*
X140937Y323723D02*
X145063Y323723D01*
X145063Y325029D02*
X140937Y325029D01*
X140937Y326335D02*
X145063Y326335D01*
X145063Y327641D02*
X140937Y327641D01*
X140937Y328947D02*
X145063Y328947D01*
X153063Y330113D02*
X153063Y315887D01*
X148937Y315887D01*
X148937Y330113D01*
X153063Y330113D01*
X153063Y317193D02*
X148937Y317193D01*
X148937Y318499D02*
X153063Y318499D01*
X153063Y319805D02*
X148937Y319805D01*
X148937Y321111D02*
X153063Y321111D01*
X153063Y322417D02*
X148937Y322417D01*
X148937Y323723D02*
X153063Y323723D01*
X153063Y325029D02*
X148937Y325029D01*
X148937Y326335D02*
X153063Y326335D01*
X153063Y327641D02*
X148937Y327641D01*
X148937Y328947D02*
X153063Y328947D01*
X157687Y338863D02*
X171913Y338863D01*
X171913Y334737D01*
X157687Y334737D01*
X157687Y338863D01*
X157687Y336043D02*
X171913Y336043D01*
X171913Y337349D02*
X157687Y337349D01*
X157687Y338655D02*
X171913Y338655D01*
X171913Y346863D02*
X157687Y346863D01*
X171913Y346863D02*
X171913Y342737D01*
X157687Y342737D01*
X157687Y346863D01*
X157687Y344043D02*
X171913Y344043D01*
X171913Y345349D02*
X157687Y345349D01*
X157687Y346655D02*
X171913Y346655D01*
X171913Y354863D02*
X157687Y354863D01*
X171913Y354863D02*
X171913Y350737D01*
X157687Y350737D01*
X157687Y354863D01*
X157687Y352043D02*
X171913Y352043D01*
X171913Y353349D02*
X157687Y353349D01*
X157687Y354655D02*
X171913Y354655D01*
X171913Y362863D02*
X157687Y362863D01*
X171913Y362863D02*
X171913Y358737D01*
X157687Y358737D01*
X157687Y362863D01*
X157687Y360043D02*
X171913Y360043D01*
X171913Y361349D02*
X157687Y361349D01*
X157687Y362655D02*
X171913Y362655D01*
X171913Y370863D02*
X157687Y370863D01*
X171913Y370863D02*
X171913Y366737D01*
X157687Y366737D01*
X157687Y370863D01*
X157687Y368043D02*
X171913Y368043D01*
X171913Y369349D02*
X157687Y369349D01*
X157687Y370655D02*
X171913Y370655D01*
X171913Y378863D02*
X157687Y378863D01*
X171913Y378863D02*
X171913Y374737D01*
X157687Y374737D01*
X157687Y378863D01*
X157687Y376043D02*
X171913Y376043D01*
X171913Y377349D02*
X157687Y377349D01*
X157687Y378655D02*
X171913Y378655D01*
X171913Y386863D02*
X157687Y386863D01*
X171913Y386863D02*
X171913Y382737D01*
X157687Y382737D01*
X157687Y386863D01*
X157687Y384043D02*
X171913Y384043D01*
X171913Y385349D02*
X157687Y385349D01*
X157687Y386655D02*
X171913Y386655D01*
X171913Y394863D02*
X157687Y394863D01*
X171913Y394863D02*
X171913Y390737D01*
X157687Y390737D01*
X157687Y394863D01*
X157687Y392043D02*
X171913Y392043D01*
X171913Y393349D02*
X157687Y393349D01*
X157687Y394655D02*
X171913Y394655D01*
X148937Y399487D02*
X148937Y413713D01*
X153063Y413713D01*
X153063Y399487D01*
X148937Y399487D01*
X148937Y400793D02*
X153063Y400793D01*
X153063Y402099D02*
X148937Y402099D01*
X148937Y403405D02*
X153063Y403405D01*
X153063Y404711D02*
X148937Y404711D01*
X148937Y406017D02*
X153063Y406017D01*
X153063Y407323D02*
X148937Y407323D01*
X148937Y408629D02*
X153063Y408629D01*
X153063Y409935D02*
X148937Y409935D01*
X148937Y411241D02*
X153063Y411241D01*
X153063Y412547D02*
X148937Y412547D01*
X140937Y413713D02*
X140937Y399487D01*
X140937Y413713D02*
X145063Y413713D01*
X145063Y399487D01*
X140937Y399487D01*
X140937Y400793D02*
X145063Y400793D01*
X145063Y402099D02*
X140937Y402099D01*
X140937Y403405D02*
X145063Y403405D01*
X145063Y404711D02*
X140937Y404711D01*
X140937Y406017D02*
X145063Y406017D01*
X145063Y407323D02*
X140937Y407323D01*
X140937Y408629D02*
X145063Y408629D01*
X145063Y409935D02*
X140937Y409935D01*
X140937Y411241D02*
X145063Y411241D01*
X145063Y412547D02*
X140937Y412547D01*
X132937Y413713D02*
X132937Y399487D01*
X132937Y413713D02*
X137063Y413713D01*
X137063Y399487D01*
X132937Y399487D01*
X132937Y400793D02*
X137063Y400793D01*
X137063Y402099D02*
X132937Y402099D01*
X132937Y403405D02*
X137063Y403405D01*
X137063Y404711D02*
X132937Y404711D01*
X132937Y406017D02*
X137063Y406017D01*
X137063Y407323D02*
X132937Y407323D01*
X132937Y408629D02*
X137063Y408629D01*
X137063Y409935D02*
X132937Y409935D01*
X132937Y411241D02*
X137063Y411241D01*
X137063Y412547D02*
X132937Y412547D01*
X124937Y413713D02*
X124937Y399487D01*
X124937Y413713D02*
X129063Y413713D01*
X129063Y399487D01*
X124937Y399487D01*
X124937Y400793D02*
X129063Y400793D01*
X129063Y402099D02*
X124937Y402099D01*
X124937Y403405D02*
X129063Y403405D01*
X129063Y404711D02*
X124937Y404711D01*
X124937Y406017D02*
X129063Y406017D01*
X129063Y407323D02*
X124937Y407323D01*
X124937Y408629D02*
X129063Y408629D01*
X129063Y409935D02*
X124937Y409935D01*
X124937Y411241D02*
X129063Y411241D01*
X129063Y412547D02*
X124937Y412547D01*
X116937Y413713D02*
X116937Y399487D01*
X116937Y413713D02*
X121063Y413713D01*
X121063Y399487D01*
X116937Y399487D01*
X116937Y400793D02*
X121063Y400793D01*
X121063Y402099D02*
X116937Y402099D01*
X116937Y403405D02*
X121063Y403405D01*
X121063Y404711D02*
X116937Y404711D01*
X116937Y406017D02*
X121063Y406017D01*
X121063Y407323D02*
X116937Y407323D01*
X116937Y408629D02*
X121063Y408629D01*
X121063Y409935D02*
X116937Y409935D01*
X116937Y411241D02*
X121063Y411241D01*
X121063Y412547D02*
X116937Y412547D01*
X108937Y413713D02*
X108937Y399487D01*
X108937Y413713D02*
X113063Y413713D01*
X113063Y399487D01*
X108937Y399487D01*
X108937Y400793D02*
X113063Y400793D01*
X113063Y402099D02*
X108937Y402099D01*
X108937Y403405D02*
X113063Y403405D01*
X113063Y404711D02*
X108937Y404711D01*
X108937Y406017D02*
X113063Y406017D01*
X113063Y407323D02*
X108937Y407323D01*
X108937Y408629D02*
X113063Y408629D01*
X113063Y409935D02*
X108937Y409935D01*
X108937Y411241D02*
X113063Y411241D01*
X113063Y412547D02*
X108937Y412547D01*
X100937Y413713D02*
X100937Y399487D01*
X100937Y413713D02*
X105063Y413713D01*
X105063Y399487D01*
X100937Y399487D01*
X100937Y400793D02*
X105063Y400793D01*
X105063Y402099D02*
X100937Y402099D01*
X100937Y403405D02*
X105063Y403405D01*
X105063Y404711D02*
X100937Y404711D01*
X100937Y406017D02*
X105063Y406017D01*
X105063Y407323D02*
X100937Y407323D01*
X100937Y408629D02*
X105063Y408629D01*
X105063Y409935D02*
X100937Y409935D01*
X100937Y411241D02*
X105063Y411241D01*
X105063Y412547D02*
X100937Y412547D01*
X92937Y413713D02*
X92937Y399487D01*
X92937Y413713D02*
X97063Y413713D01*
X97063Y399487D01*
X92937Y399487D01*
X92937Y400793D02*
X97063Y400793D01*
X97063Y402099D02*
X92937Y402099D01*
X92937Y403405D02*
X97063Y403405D01*
X97063Y404711D02*
X92937Y404711D01*
X92937Y406017D02*
X97063Y406017D01*
X97063Y407323D02*
X92937Y407323D01*
X92937Y408629D02*
X97063Y408629D01*
X97063Y409935D02*
X92937Y409935D01*
X92937Y411241D02*
X97063Y411241D01*
X97063Y412547D02*
X92937Y412547D01*
X88313Y390737D02*
X74087Y390737D01*
X74087Y394863D01*
X88313Y394863D01*
X88313Y390737D01*
X88313Y392043D02*
X74087Y392043D01*
X74087Y393349D02*
X88313Y393349D01*
X88313Y394655D02*
X74087Y394655D01*
X74087Y382737D02*
X88313Y382737D01*
X74087Y382737D02*
X74087Y386863D01*
X88313Y386863D01*
X88313Y382737D01*
X88313Y384043D02*
X74087Y384043D01*
X74087Y385349D02*
X88313Y385349D01*
X88313Y386655D02*
X74087Y386655D01*
X74087Y374737D02*
X88313Y374737D01*
X74087Y374737D02*
X74087Y378863D01*
X88313Y378863D01*
X88313Y374737D01*
X88313Y376043D02*
X74087Y376043D01*
X74087Y377349D02*
X88313Y377349D01*
X88313Y378655D02*
X74087Y378655D01*
X74087Y366737D02*
X88313Y366737D01*
X74087Y366737D02*
X74087Y370863D01*
X88313Y370863D01*
X88313Y366737D01*
X88313Y368043D02*
X74087Y368043D01*
X74087Y369349D02*
X88313Y369349D01*
X88313Y370655D02*
X74087Y370655D01*
X74087Y358737D02*
X88313Y358737D01*
X74087Y358737D02*
X74087Y362863D01*
X88313Y362863D01*
X88313Y358737D01*
X88313Y360043D02*
X74087Y360043D01*
X74087Y361349D02*
X88313Y361349D01*
X88313Y362655D02*
X74087Y362655D01*
X74087Y350737D02*
X88313Y350737D01*
X74087Y350737D02*
X74087Y354863D01*
X88313Y354863D01*
X88313Y350737D01*
X88313Y352043D02*
X74087Y352043D01*
X74087Y353349D02*
X88313Y353349D01*
X88313Y354655D02*
X74087Y354655D01*
X74087Y342737D02*
X88313Y342737D01*
X74087Y342737D02*
X74087Y346863D01*
X88313Y346863D01*
X88313Y342737D01*
X88313Y344043D02*
X74087Y344043D01*
X74087Y345349D02*
X88313Y345349D01*
X88313Y346655D02*
X74087Y346655D01*
X74087Y334737D02*
X88313Y334737D01*
X74087Y334737D02*
X74087Y338863D01*
X88313Y338863D01*
X88313Y334737D01*
X88313Y336043D02*
X74087Y336043D01*
X74087Y337349D02*
X88313Y337349D01*
X88313Y338655D02*
X74087Y338655D01*
D12*
X361050Y57783D03*
X367550Y57783D03*
X374050Y57783D03*
X380550Y57783D03*
X387050Y57783D03*
X393550Y57783D03*
X400050Y57783D03*
X406550Y57783D03*
X406550Y115217D03*
X400050Y115217D03*
X393550Y115217D03*
X387050Y115217D03*
X380550Y115217D03*
X374050Y115217D03*
X367550Y115217D03*
X361050Y115217D03*
D13*
X383800Y86500D03*
D14*
X352700Y21348D03*
X352700Y37652D03*
D15*
X377496Y22505D03*
X361496Y22505D03*
D16*
X393159Y147799D03*
X408651Y147799D03*
X365329Y135398D03*
X380821Y135398D03*
D17*
X395948Y41300D03*
X412252Y41300D03*
X385852Y36739D03*
X369548Y36739D03*
X387048Y23561D03*
X403352Y23561D03*
D14*
X53900Y316248D03*
X53900Y332552D03*
D18*
X208900Y360746D03*
X208900Y345254D03*
X187231Y397292D03*
X187231Y381800D03*
X75100Y291654D03*
X75100Y307146D03*
D19*
X68000Y470120D03*
X68000Y429480D03*
X55300Y470120D03*
X55300Y429480D03*
X42600Y470120D03*
X42600Y429480D03*
X29900Y470120D03*
X29900Y429480D03*
X17200Y470120D03*
X17200Y429480D03*
D12*
X364750Y191083D03*
X371250Y191083D03*
X377750Y191083D03*
X384250Y191083D03*
X390750Y191083D03*
X397250Y191083D03*
X403750Y191083D03*
X410250Y191083D03*
X410250Y248517D03*
X403750Y248517D03*
X397250Y248517D03*
X390750Y248517D03*
X384250Y248517D03*
X377750Y248517D03*
X371250Y248517D03*
X364750Y248517D03*
D13*
X387500Y219800D03*
D14*
X356163Y155026D03*
X356163Y171330D03*
D15*
X383592Y157005D03*
X367592Y157005D03*
D16*
X392354Y276541D03*
X407846Y276541D03*
X364653Y272304D03*
X380145Y272304D03*
D17*
X398548Y173300D03*
X414852Y173300D03*
X388561Y170020D03*
X372257Y170020D03*
X403293Y159520D03*
X419597Y159520D03*
D12*
X362834Y318610D03*
X369334Y318610D03*
X375834Y318610D03*
X382334Y318610D03*
X388834Y318610D03*
X395334Y318610D03*
X401834Y318610D03*
X408334Y318610D03*
X408334Y376044D03*
X401834Y376044D03*
X395334Y376044D03*
X388834Y376044D03*
X382334Y376044D03*
X375834Y376044D03*
X369334Y376044D03*
X362834Y376044D03*
D13*
X385584Y347327D03*
D14*
X351939Y279306D03*
X351939Y295610D03*
D15*
X380368Y283714D03*
X364368Y283714D03*
D16*
X391555Y402402D03*
X407047Y402402D03*
X364854Y396700D03*
X380346Y396700D03*
D17*
X396848Y301000D03*
X413152Y301000D03*
X386800Y298000D03*
X370496Y298000D03*
X396920Y289261D03*
X413224Y289261D03*
D16*
X150421Y269634D03*
X134929Y269634D03*
D20*
X436238Y72200D03*
X436238Y112200D03*
X436238Y213500D03*
X436238Y253500D03*
X434974Y325603D03*
X434974Y365603D03*
D16*
X292373Y327900D03*
X307865Y327900D03*
D18*
X94180Y291854D03*
X94180Y307346D03*
D21*
X318800Y43500D03*
D22*
X306100Y18100D03*
X293400Y43500D03*
X280700Y18100D03*
D21*
X230600Y43500D03*
D22*
X217900Y18100D03*
X205200Y43500D03*
X192500Y18100D03*
D16*
X180063Y408643D03*
X164571Y408643D03*
D21*
X58238Y43500D03*
D22*
X45538Y18100D03*
X32838Y43500D03*
X20138Y18100D03*
D21*
X145800Y42500D03*
D22*
X133100Y17100D03*
X120400Y42500D03*
X107700Y17100D03*
D23*
X217480Y173150D03*
X217480Y160450D03*
X217480Y147750D03*
X217480Y135050D03*
X271720Y135050D03*
X271720Y147750D03*
X271720Y160450D03*
X271720Y173150D03*
D18*
X196900Y185946D03*
X196900Y170454D03*
X284100Y173854D03*
X284100Y189346D03*
D24*
X408403Y434988D03*
X421103Y434988D03*
X433803Y434988D03*
X446503Y434988D03*
D25*
X427453Y474238D03*
D20*
X376762Y481569D03*
X336762Y481569D03*
D14*
X109900Y278952D03*
X109900Y295256D03*
D26*
X124700Y297400D03*
X124700Y281400D03*
D27*
X152000Y444000D03*
X145500Y444000D03*
X139000Y444000D03*
X132500Y444000D03*
X126000Y444000D03*
D28*
X176250Y450375D02*
X176250Y437625D01*
X101750Y437625D02*
X101750Y450375D01*
D29*
X177750Y477500D02*
X177750Y486500D01*
X100250Y486500D02*
X100250Y477500D01*
D30*
X352217Y57783D02*
X361050Y57783D01*
X301912Y296875D02*
X266992Y296875D01*
X301912Y296875D02*
X334686Y264101D01*
X334686Y75314D02*
X352217Y57783D01*
X334686Y75314D02*
X334686Y264101D01*
D31*
X218000Y135570D02*
X217480Y135050D01*
D32*
X119000Y241000D03*
D30*
X218208Y284175D02*
X220000Y282383D01*
X220000Y270000D01*
D32*
X220000Y270000D03*
D30*
X217480Y135050D02*
X212430Y130000D01*
X200000Y130000D01*
D32*
X200000Y130000D03*
D30*
X211946Y185946D02*
X213000Y187000D01*
X211946Y185946D02*
X196900Y185946D01*
D32*
X213000Y187000D03*
X54000Y309000D03*
D30*
X55300Y470120D02*
X42600Y470120D01*
D32*
X55000Y489456D03*
D30*
X55000Y470120D02*
X55300Y470120D01*
X55000Y470120D02*
X55000Y489456D01*
X17000Y489000D02*
X17000Y470320D01*
X17200Y470120D01*
D32*
X17000Y489000D03*
X218000Y426000D03*
D30*
X54000Y316148D02*
X53900Y316248D01*
X54000Y316148D02*
X54000Y309000D01*
D32*
X216000Y404000D03*
X209000Y359000D03*
D30*
X208900Y359100D02*
X208900Y360746D01*
X208900Y359100D02*
X209000Y359000D01*
X209000Y358854D01*
X196000Y409000D02*
X196900Y409900D01*
D32*
X196000Y409000D03*
D30*
X196900Y409100D02*
X196900Y409900D01*
X204000Y400646D02*
X205000Y399646D01*
D32*
X205000Y399646D03*
X188000Y364314D03*
D30*
X81200Y336800D02*
X68000Y336800D01*
X68000Y335000D01*
D32*
X68000Y335000D03*
D30*
X42600Y470120D02*
X43000Y470520D01*
X43000Y489000D01*
D32*
X43000Y489000D03*
D33*
X164000Y473000D03*
D30*
X180520Y409100D02*
X180063Y408643D01*
X180520Y409100D02*
X196900Y409100D01*
X75100Y291654D02*
X74146Y291654D01*
X73723Y291231D01*
X73723Y291277D02*
X75300Y292854D01*
D32*
X121000Y443000D03*
D30*
X164800Y392800D02*
X172792Y392800D01*
X172792Y376800D02*
X172921Y376672D01*
X172792Y376800D02*
X164800Y376800D01*
X180638Y400646D02*
X204000Y400646D01*
X180638Y400646D02*
X172792Y392800D01*
X175643Y376672D02*
X188000Y364314D01*
X175643Y376672D02*
X172921Y376672D01*
X94180Y291854D02*
X93180Y290854D01*
X73723Y291231D02*
X73723Y291277D01*
D32*
X75000Y292000D03*
X95000Y292000D03*
D30*
X139259Y261259D02*
X119000Y241000D01*
X139259Y261259D02*
X140993Y261259D01*
X149368Y269634D02*
X150421Y269634D01*
X149368Y269634D02*
X140993Y261259D01*
X284000Y189446D02*
X284100Y189346D01*
X412252Y41300D02*
X412552Y41000D01*
X266992Y273992D02*
X266992Y284175D01*
X266992Y273992D02*
X265000Y272000D01*
D32*
X265000Y272000D03*
D30*
X271720Y135050D02*
X272000Y134770D01*
X403750Y191083D02*
X404332Y191665D01*
X395000Y208210D02*
X395000Y214300D01*
X395000Y208210D02*
X404332Y198878D01*
X404332Y191665D01*
X389500Y219800D02*
X387500Y219800D01*
X389500Y219800D02*
X395000Y214300D01*
D32*
X369000Y209000D03*
X381000Y231000D03*
X379000Y209000D03*
X381000Y218000D03*
X313000Y462000D03*
D30*
X388629Y350372D02*
X385584Y347327D01*
X401834Y337166D02*
X401834Y318610D01*
X401834Y337166D02*
X388629Y350372D01*
D32*
X444000Y422000D03*
X371000Y357000D03*
X379000Y357000D03*
X376000Y337000D03*
X368000Y340000D03*
X384000Y337000D03*
X380000Y347000D03*
X372000Y95000D03*
X366000Y79000D03*
X374000Y79000D03*
X384000Y78000D03*
D30*
X446503Y424503D02*
X446503Y434988D01*
X446503Y424503D02*
X444000Y422000D01*
X322900Y327900D02*
X307865Y327900D01*
X322900Y327900D02*
X323000Y328000D01*
D32*
X323000Y328000D03*
D30*
X383800Y86500D02*
X385150Y85150D01*
X400050Y70250D01*
X400050Y57783D01*
X284100Y189346D02*
X284100Y204100D01*
X285000Y205000D01*
D32*
X285000Y205000D03*
D30*
X413152Y297848D02*
X413152Y301000D01*
D32*
X439000Y285000D03*
D30*
X274770Y132000D02*
X271720Y135050D01*
X274770Y132000D02*
X289000Y132000D01*
D32*
X289000Y132000D03*
D30*
X369334Y358666D02*
X369334Y376044D01*
X369334Y358666D02*
X371000Y357000D01*
X403352Y23561D02*
X414439Y23561D01*
X416000Y22000D01*
D32*
X416000Y22000D03*
D30*
X383800Y86500D02*
X367550Y102750D01*
X367550Y115217D01*
X381500Y86500D02*
X383800Y86500D01*
X381500Y86500D02*
X374000Y79000D01*
X419597Y168555D02*
X414852Y173300D01*
X419597Y168555D02*
X419597Y159520D01*
X430480Y159520D01*
X439000Y151000D01*
D32*
X439000Y151000D03*
X331000Y489000D03*
X346000Y489000D03*
X332000Y472000D03*
X348000Y474000D03*
X370000Y220000D03*
X370000Y231000D03*
D30*
X386700Y219000D02*
X387500Y219800D01*
X386700Y219000D02*
X371000Y219000D01*
X370000Y220000D01*
X406550Y115217D02*
X406550Y106550D01*
X385150Y85150D01*
X413152Y301000D02*
X413224Y301000D01*
X413224Y289261D01*
X439000Y289261D01*
X439000Y285000D01*
D32*
X446262Y162000D03*
D33*
X446000Y443175D03*
D34*
X445000Y409000D03*
X444762Y294000D03*
D32*
X364000Y94000D03*
X383000Y96000D03*
D30*
X412252Y41300D02*
X416000Y37552D01*
X416000Y22000D01*
X405328Y364661D02*
X407392Y366725D01*
X405328Y364661D02*
X397661Y364661D01*
X380000Y347000D01*
X407392Y375102D02*
X408334Y376044D01*
X407392Y375102D02*
X407392Y366725D01*
X407244Y237134D02*
X400134Y237134D01*
X381000Y218000D01*
X410250Y240140D02*
X410250Y248517D01*
X410250Y240140D02*
X407244Y237134D01*
X292373Y327900D02*
X267100Y328733D01*
X266992Y328625D01*
X284100Y173854D02*
X283396Y173150D01*
X271720Y173150D01*
D32*
X263000Y492012D03*
X263000Y484000D03*
X263000Y476000D03*
D30*
X375834Y318610D02*
X375834Y306987D01*
X372965Y304118D01*
X372965Y300469D01*
X370496Y298000D01*
X370947Y171330D02*
X356163Y171330D01*
X370947Y171330D02*
X372257Y170020D01*
X377750Y179162D02*
X377750Y191083D01*
X377750Y179162D02*
X376726Y178138D01*
X376726Y174489D01*
X372257Y170020D01*
X369548Y36739D02*
X353614Y36739D01*
X352700Y37652D01*
X369548Y36739D02*
X374017Y41207D01*
X374017Y44856D01*
X374050Y44890D01*
X374050Y57783D01*
X368106Y295610D02*
X370496Y298000D01*
X292373Y327900D02*
X292373Y339627D01*
X292000Y340000D01*
D32*
X292000Y340000D03*
D30*
X361050Y119217D02*
X361050Y115217D01*
X361050Y119217D02*
X354134Y126134D01*
X353000Y125000D01*
D32*
X353000Y125000D03*
D30*
X355833Y171000D02*
X356163Y171330D01*
X355833Y171000D02*
X342000Y171000D01*
D32*
X342000Y171000D03*
D30*
X299854Y173854D02*
X284100Y173854D01*
X299854Y173854D02*
X300000Y174000D01*
D32*
X300000Y174000D03*
X351000Y264000D03*
D30*
X354956Y376044D02*
X362834Y376044D01*
X354956Y376044D02*
X354000Y377000D01*
D32*
X354000Y377000D03*
D30*
X352700Y37652D02*
X352048Y37000D01*
X352000Y37000D01*
D32*
X352000Y37000D03*
X279000Y415000D03*
D30*
X339390Y295610D02*
X351939Y295610D01*
X339390Y295610D02*
X339000Y296000D01*
D32*
X339000Y296000D03*
D30*
X351939Y295610D02*
X368106Y295610D01*
X358000Y264000D02*
X364750Y257250D01*
X358000Y264000D02*
X351000Y264000D01*
X364750Y257250D02*
X364750Y248517D01*
X198596Y172150D02*
X196900Y170454D01*
X214784Y170454D02*
X217480Y173150D01*
X214784Y170454D02*
X196900Y170454D01*
X208900Y337933D02*
X208900Y345254D01*
X208900Y337933D02*
X218208Y328625D01*
X196900Y170454D02*
X182546Y170454D01*
X182000Y171000D01*
D32*
X182000Y171000D03*
D30*
X208254Y345254D02*
X208900Y345254D01*
X208254Y345254D02*
X208000Y345000D01*
D32*
X208000Y345000D03*
D30*
X81000Y476000D02*
X75120Y470120D01*
X68000Y470120D01*
D32*
X81000Y476000D03*
X221000Y493000D03*
D30*
X164571Y408643D02*
X162528Y406600D01*
X151000Y406600D01*
D32*
X165000Y409000D03*
D30*
X164928Y409000D02*
X164571Y408643D01*
X164928Y409000D02*
X165000Y409000D01*
D32*
X187231Y381800D03*
D30*
X174931Y381800D01*
X171931Y384800D02*
X164800Y384800D01*
X171931Y384800D02*
X174931Y381800D01*
X94180Y307346D02*
X93180Y307346D01*
D32*
X75000Y307000D03*
D30*
X75100Y307146D02*
X75300Y307346D01*
X75300Y307300D01*
X75000Y307000D01*
X94834Y308000D02*
X95000Y308000D01*
X94834Y308000D02*
X94180Y307346D01*
X95000Y308167D02*
X95000Y323000D01*
X95000Y308167D02*
X94180Y307346D01*
X96810Y307346D01*
X108900Y295256D02*
X109900Y295256D01*
X108900Y295256D02*
X96810Y307346D01*
D32*
X94180Y307346D03*
D30*
X302155Y290525D02*
X330000Y262680D01*
X302155Y290525D02*
X266992Y290525D01*
X358724Y45170D02*
X363314Y45170D01*
X358724Y45170D02*
X330000Y73893D01*
X330000Y262680D01*
X367550Y57783D02*
X367550Y49406D01*
X363314Y45170D01*
X370308Y190141D02*
X371250Y191083D01*
X370308Y190141D02*
X370308Y181764D01*
X359000Y179014D02*
X359000Y178848D01*
X367392Y178848D02*
X370308Y181764D01*
X367392Y178848D02*
X359000Y178848D01*
X301668Y303225D02*
X266992Y303225D01*
X301668Y303225D02*
X339228Y265666D01*
X339228Y191499D01*
X351713Y179014D01*
X359000Y179014D01*
X343546Y267455D02*
X301425Y309575D01*
X343546Y267455D02*
X343546Y193288D01*
X345750Y191083D02*
X364750Y191083D01*
X345750Y191083D02*
X343546Y193288D01*
X301425Y309575D02*
X266992Y309575D01*
X359340Y307227D02*
X366328Y307227D01*
X279178Y313893D02*
X277146Y315925D01*
X352674Y313893D02*
X359340Y307227D01*
X352674Y313893D02*
X279178Y313893D01*
X277146Y315925D02*
X266992Y315925D01*
X369334Y318610D02*
X369334Y310233D01*
X366328Y307227D01*
X362834Y318610D02*
X280811Y318610D01*
X277146Y322275D01*
X266992Y322275D01*
X374050Y126677D02*
X374050Y115217D01*
X374050Y126677D02*
X365329Y135398D01*
X380821Y135398D02*
X380821Y115488D01*
X380550Y115217D01*
D35*
X406803Y433388D02*
X408403Y434988D01*
X406803Y433388D02*
X406803Y403988D01*
D32*
X281000Y447000D03*
D30*
X397250Y248517D02*
X396846Y248113D01*
D32*
X399000Y422000D03*
X408000Y423000D03*
X418000Y423000D03*
X429000Y422000D03*
X424000Y412000D03*
X411000Y411000D03*
D30*
X393550Y132698D02*
X393550Y115217D01*
X393550Y132698D02*
X408651Y147799D01*
X395334Y376044D02*
X395334Y390689D01*
X406803Y402158D01*
X406803Y403988D01*
X407047Y407047D02*
X411000Y411000D01*
X407047Y407047D02*
X407047Y402402D01*
X397250Y265945D02*
X397250Y248517D01*
X397250Y265945D02*
X407846Y276541D01*
D33*
X405000Y274000D03*
X411000Y276000D03*
D30*
X411000Y147799D02*
X408651Y147799D01*
X411000Y147799D02*
X411000Y147000D01*
X410460Y276541D02*
X407846Y276541D01*
X410460Y276541D02*
X411000Y276000D01*
D33*
X411000Y147000D03*
X406000Y144000D03*
D32*
X413000Y432000D03*
X400000Y434000D03*
D30*
X218208Y290525D02*
X152344Y290525D01*
X127000Y315869D01*
X127000Y323000D01*
X135000Y323000D02*
X135000Y315869D01*
X153994Y296875D01*
X218208Y296875D01*
X218208Y303225D02*
X154309Y303225D01*
X143000Y314534D01*
X143000Y323000D01*
X154425Y309575D02*
X218208Y309575D01*
X154425Y309575D02*
X151000Y313000D01*
X151000Y323000D01*
X203054Y315925D02*
X218208Y315925D01*
X203054Y315925D02*
X176124Y342855D01*
X171931Y352800D02*
X164800Y352800D01*
X176124Y348607D02*
X176124Y342855D01*
X176124Y348607D02*
X171931Y352800D01*
X171931Y360800D02*
X180442Y352289D01*
X171931Y360800D02*
X164800Y360800D01*
X205054Y322275D02*
X218208Y322275D01*
X205054Y322275D02*
X180442Y346887D01*
X180442Y352289D01*
D32*
X143000Y372000D03*
D30*
X143000Y406600D01*
X81200Y392800D02*
X37800Y392800D01*
X11000Y366000D01*
X11000Y192000D01*
D32*
X11000Y192000D03*
X118000Y161000D03*
D30*
X214356Y157326D02*
X217480Y160450D01*
X214356Y157326D02*
X121675Y157326D01*
X118000Y161000D01*
X81200Y376800D02*
X43200Y376800D01*
X20138Y353738D01*
X20138Y18100D01*
X52830Y368800D02*
X81200Y368800D01*
X52830Y368800D02*
X32838Y348808D01*
X32838Y43500D01*
X79474Y359074D02*
X81200Y360800D01*
X41189Y342295D02*
X41189Y189812D01*
X57967Y359074D02*
X79474Y359074D01*
X57967Y359074D02*
X41189Y342295D01*
X41189Y189812D02*
X107700Y123300D01*
X107700Y17100D01*
X81200Y352800D02*
X57800Y352800D01*
X45507Y340507D01*
X45507Y201494D02*
X120400Y126600D01*
X45507Y201494D02*
X45507Y340507D01*
X120400Y126600D02*
X120400Y42500D01*
X53900Y332552D02*
X66148Y344800D01*
X81200Y344800D01*
X119000Y406600D02*
X119000Y413731D01*
D33*
X146500Y458500D03*
D30*
X145500Y444000D02*
X146226Y443274D01*
X146500Y454000D02*
X146500Y458500D01*
X131951Y426682D02*
X119000Y413731D01*
X146500Y452234D02*
X146500Y454000D01*
X146500Y452234D02*
X146226Y451960D01*
X146226Y444726D01*
X145500Y444000D01*
X138022Y426682D02*
X131951Y426682D01*
X146226Y434886D02*
X146226Y443274D01*
X146226Y434886D02*
X138022Y426682D01*
D33*
X135000Y464000D03*
D30*
X139000Y460000D01*
X139000Y444000D01*
X139000Y433766D02*
X136234Y431000D01*
X139000Y433766D02*
X139000Y444000D01*
X111726Y414457D02*
X111726Y407326D01*
X111000Y406600D01*
X128269Y431000D02*
X136234Y431000D01*
X128269Y431000D02*
X111726Y414457D01*
D32*
X135000Y389000D03*
D30*
X135000Y406600D01*
X103000Y406600D02*
X103000Y422058D01*
X95578Y429480D02*
X68000Y429480D01*
X95578Y429480D02*
X103000Y422058D01*
X93600Y408000D02*
X95000Y406600D01*
X93600Y408000D02*
X60731Y408000D01*
X55300Y413431D01*
X55300Y429480D01*
X17200Y429480D02*
X17200Y400000D01*
X17000Y400000D01*
D32*
X17000Y400000D03*
X114000Y265000D03*
D30*
X134783Y300086D02*
X119000Y315869D01*
X119000Y323000D01*
X134783Y300086D02*
X134783Y269780D01*
X134929Y269634D01*
X118634Y269634D02*
X114000Y265000D01*
X118634Y269634D02*
X134929Y269634D01*
X390750Y274937D02*
X390750Y248517D01*
X390750Y274937D02*
X392354Y276541D01*
X377750Y259207D02*
X377750Y248517D01*
X377750Y259207D02*
X364653Y272304D01*
X380145Y272304D02*
X384250Y268199D01*
X384250Y248517D01*
X375672Y385882D02*
X364854Y396700D01*
X375834Y386044D02*
X375834Y376044D01*
X375672Y385882D02*
X375834Y386044D01*
X288550Y160450D02*
X271720Y160450D01*
X288550Y160450D02*
X306100Y142900D01*
X306100Y18100D01*
D32*
X202000Y438000D03*
D30*
X202000Y436000D01*
D33*
X138000Y479000D03*
D30*
X152000Y440000D02*
X167000Y425000D01*
X152000Y440000D02*
X152000Y444000D01*
X167000Y425000D02*
X191000Y425000D01*
X202000Y436000D01*
X152000Y444000D02*
X152000Y454717D01*
X153064Y455781D01*
X153064Y463936D01*
X138000Y479000D01*
X393159Y147799D02*
X393159Y140159D01*
X388950Y135950D01*
X388950Y129087D01*
X387050Y127188D01*
X387050Y115217D01*
X395334Y302514D02*
X395334Y318610D01*
X395334Y302514D02*
X396848Y301000D01*
X390750Y191083D02*
X390750Y176613D01*
X389561Y175424D01*
X389561Y170000D01*
X388561Y170020D02*
X391031Y167551D01*
X391031Y166971D01*
X398481Y159520D01*
X403293Y159520D01*
X389541Y170020D02*
X388561Y170020D01*
X389541Y170020D02*
X389561Y170000D01*
X357597Y157005D02*
X357599Y153590D01*
X357597Y157005D02*
X367592Y157005D01*
X357599Y153590D02*
X356163Y155026D01*
X384250Y179556D02*
X384250Y191083D01*
X381044Y160640D02*
X383592Y157005D01*
X381044Y176349D02*
X384250Y179556D01*
X381044Y176349D02*
X381044Y160640D01*
X385852Y36739D02*
X385852Y24757D01*
X387048Y23561D01*
X387050Y37937D02*
X387050Y57783D01*
X387050Y37937D02*
X385852Y36739D01*
X353857Y22505D02*
X352700Y21348D01*
X353857Y22505D02*
X361496Y22505D01*
X378335Y23344D02*
X378335Y43068D01*
X378335Y23344D02*
X377496Y22505D01*
X380550Y45283D02*
X380550Y57783D01*
X380550Y45283D02*
X378335Y43068D01*
X386800Y298000D02*
X388331Y299531D01*
X388331Y301329D01*
X388834Y301833D01*
X388834Y318610D01*
X386800Y297000D02*
X394539Y289261D01*
X386800Y297000D02*
X386800Y298000D01*
X394539Y289261D02*
X396920Y289261D01*
X356347Y283714D02*
X351939Y279306D01*
X356347Y283714D02*
X364368Y283714D01*
X379283Y287671D02*
X379283Y304329D01*
X382334Y307381D02*
X382334Y318610D01*
X382334Y307381D02*
X379283Y304329D01*
X379283Y287671D02*
X380368Y286586D01*
X380368Y283714D01*
X398548Y181408D02*
X398548Y173300D01*
X398548Y181408D02*
X398192Y181764D01*
X398192Y190141D01*
X397250Y191083D01*
X393550Y57783D02*
X393550Y43698D01*
X395948Y41300D01*
X391555Y393017D02*
X391555Y402402D01*
X391555Y393017D02*
X388834Y390296D01*
X388834Y376044D01*
X112348Y281400D02*
X109900Y278952D01*
X112348Y281400D02*
X124700Y281400D01*
X111000Y311100D02*
X111000Y323000D01*
X111000Y311100D02*
X124700Y297400D01*
X380346Y396700D02*
X382334Y394712D01*
X382334Y376044D01*
M02*
