G04 EAGLE Gerber RS-274X export*
G75*
%MOMM*%
%FSLAX34Y34*%
%LPD*%
%IN*%
%IPPOS*%
%AMOC8*
5,1,8,0,0,1.08239X$1,22.5*%
G01*
G04 Define Apertures*
%ADD10C,0.254000*%
D10*
X0Y0D02*
X460000Y0D01*
X460000Y500000D01*
X0Y500000D01*
X0Y0D01*
X97500Y439750D02*
X97516Y439380D01*
X97565Y439012D01*
X97645Y438650D01*
X97756Y438296D01*
X97898Y437954D01*
X98069Y437625D01*
X98269Y437312D01*
X98494Y437018D01*
X98745Y436745D01*
X99018Y436494D01*
X99312Y436269D01*
X99625Y436069D01*
X99954Y435898D01*
X100296Y435756D01*
X100650Y435645D01*
X101012Y435565D01*
X101380Y435516D01*
X101750Y435500D01*
X102120Y435516D01*
X102488Y435565D01*
X102850Y435645D01*
X103204Y435756D01*
X103546Y435898D01*
X103875Y436069D01*
X104188Y436269D01*
X104482Y436494D01*
X104755Y436745D01*
X105006Y437018D01*
X105231Y437312D01*
X105431Y437625D01*
X105602Y437954D01*
X105744Y438296D01*
X105855Y438650D01*
X105935Y439012D01*
X105984Y439380D01*
X106000Y439750D01*
X106000Y448250D01*
X105984Y448620D01*
X105935Y448988D01*
X105855Y449350D01*
X105744Y449704D01*
X105602Y450046D01*
X105431Y450375D01*
X105231Y450688D01*
X105006Y450982D01*
X104755Y451255D01*
X104482Y451506D01*
X104188Y451731D01*
X103875Y451931D01*
X103546Y452102D01*
X103204Y452244D01*
X102850Y452355D01*
X102488Y452435D01*
X102120Y452484D01*
X101750Y452500D01*
X101380Y452484D01*
X101012Y452435D01*
X100650Y452355D01*
X100296Y452244D01*
X99954Y452102D01*
X99625Y451931D01*
X99312Y451731D01*
X99018Y451506D01*
X98745Y451255D01*
X98494Y450982D01*
X98269Y450688D01*
X98069Y450375D01*
X97898Y450046D01*
X97756Y449704D01*
X97645Y449350D01*
X97565Y448988D01*
X97516Y448620D01*
X97500Y448250D01*
X97500Y439750D01*
X97500Y478750D02*
X97510Y478510D01*
X97542Y478272D01*
X97594Y478038D01*
X97666Y477809D01*
X97758Y477588D01*
X97868Y477375D01*
X97997Y477173D01*
X98143Y476982D01*
X98305Y476805D01*
X98482Y476643D01*
X98673Y476497D01*
X98875Y476368D01*
X99088Y476258D01*
X99309Y476166D01*
X99538Y476094D01*
X99772Y476042D01*
X100010Y476010D01*
X100250Y476000D01*
X100490Y476010D01*
X100728Y476042D01*
X100962Y476094D01*
X101191Y476166D01*
X101412Y476258D01*
X101625Y476368D01*
X101827Y476497D01*
X102018Y476643D01*
X102195Y476805D01*
X102357Y476982D01*
X102503Y477173D01*
X102632Y477375D01*
X102742Y477588D01*
X102834Y477809D01*
X102906Y478038D01*
X102958Y478272D01*
X102990Y478510D01*
X103000Y478750D01*
X103000Y485250D01*
X102990Y485490D01*
X102958Y485728D01*
X102906Y485962D01*
X102834Y486191D01*
X102742Y486412D01*
X102632Y486625D01*
X102503Y486827D01*
X102357Y487018D01*
X102195Y487195D01*
X102018Y487357D01*
X101827Y487503D01*
X101625Y487632D01*
X101412Y487742D01*
X101191Y487834D01*
X100962Y487906D01*
X100728Y487958D01*
X100490Y487990D01*
X100250Y488000D01*
X100010Y487990D01*
X99772Y487958D01*
X99538Y487906D01*
X99309Y487834D01*
X99088Y487742D01*
X98875Y487632D01*
X98673Y487503D01*
X98482Y487357D01*
X98305Y487195D01*
X98143Y487018D01*
X97997Y486827D01*
X97868Y486625D01*
X97758Y486412D01*
X97666Y486191D01*
X97594Y485962D01*
X97542Y485728D01*
X97510Y485490D01*
X97500Y485250D01*
X97500Y478750D01*
X172000Y439750D02*
X172016Y439380D01*
X172065Y439012D01*
X172145Y438650D01*
X172256Y438296D01*
X172398Y437954D01*
X172569Y437625D01*
X172769Y437312D01*
X172994Y437018D01*
X173245Y436745D01*
X173518Y436494D01*
X173812Y436269D01*
X174125Y436069D01*
X174454Y435898D01*
X174796Y435756D01*
X175150Y435645D01*
X175512Y435565D01*
X175880Y435516D01*
X176250Y435500D01*
X176620Y435516D01*
X176988Y435565D01*
X177350Y435645D01*
X177704Y435756D01*
X178046Y435898D01*
X178375Y436069D01*
X178688Y436269D01*
X178982Y436494D01*
X179255Y436745D01*
X179506Y437018D01*
X179731Y437312D01*
X179931Y437625D01*
X180102Y437954D01*
X180244Y438296D01*
X180355Y438650D01*
X180435Y439012D01*
X180484Y439380D01*
X180500Y439750D01*
X180500Y448250D01*
X180484Y448620D01*
X180435Y448988D01*
X180355Y449350D01*
X180244Y449704D01*
X180102Y450046D01*
X179931Y450375D01*
X179731Y450688D01*
X179506Y450982D01*
X179255Y451255D01*
X178982Y451506D01*
X178688Y451731D01*
X178375Y451931D01*
X178046Y452102D01*
X177704Y452244D01*
X177350Y452355D01*
X176988Y452435D01*
X176620Y452484D01*
X176250Y452500D01*
X175880Y452484D01*
X175512Y452435D01*
X175150Y452355D01*
X174796Y452244D01*
X174454Y452102D01*
X174125Y451931D01*
X173812Y451731D01*
X173518Y451506D01*
X173245Y451255D01*
X172994Y450982D01*
X172769Y450688D01*
X172569Y450375D01*
X172398Y450046D01*
X172256Y449704D01*
X172145Y449350D01*
X172065Y448988D01*
X172016Y448620D01*
X172000Y448250D01*
X172000Y439750D01*
X175000Y478750D02*
X175010Y478510D01*
X175042Y478272D01*
X175094Y478038D01*
X175166Y477809D01*
X175258Y477588D01*
X175368Y477375D01*
X175497Y477173D01*
X175643Y476982D01*
X175805Y476805D01*
X175982Y476643D01*
X176173Y476497D01*
X176375Y476368D01*
X176588Y476258D01*
X176809Y476166D01*
X177038Y476094D01*
X177272Y476042D01*
X177510Y476010D01*
X177750Y476000D01*
X177990Y476010D01*
X178228Y476042D01*
X178462Y476094D01*
X178691Y476166D01*
X178912Y476258D01*
X179125Y476368D01*
X179327Y476497D01*
X179518Y476643D01*
X179695Y476805D01*
X179857Y476982D01*
X180003Y477173D01*
X180132Y477375D01*
X180242Y477588D01*
X180334Y477809D01*
X180406Y478038D01*
X180458Y478272D01*
X180490Y478510D01*
X180500Y478750D01*
X180500Y485250D01*
X180490Y485490D01*
X180458Y485728D01*
X180406Y485962D01*
X180334Y486191D01*
X180242Y486412D01*
X180132Y486625D01*
X180003Y486827D01*
X179857Y487018D01*
X179695Y487195D01*
X179518Y487357D01*
X179327Y487503D01*
X179125Y487632D01*
X178912Y487742D01*
X178691Y487834D01*
X178462Y487906D01*
X178228Y487958D01*
X177990Y487990D01*
X177750Y488000D01*
X177510Y487990D01*
X177272Y487958D01*
X177038Y487906D01*
X176809Y487834D01*
X176588Y487742D01*
X176375Y487632D01*
X176173Y487503D01*
X175982Y487357D01*
X175805Y487195D01*
X175643Y487018D01*
X175497Y486827D01*
X175368Y486625D01*
X175258Y486412D01*
X175166Y486191D01*
X175094Y485962D01*
X175042Y485728D01*
X175010Y485490D01*
X175000Y485250D01*
X175000Y478750D01*
X265000Y89464D02*
X264924Y88396D01*
X264771Y87335D01*
X264543Y86288D01*
X264241Y85260D01*
X263867Y84256D01*
X263422Y83281D01*
X262908Y82341D01*
X262329Y81440D01*
X261687Y80582D01*
X260985Y79772D01*
X260228Y79015D01*
X259418Y78313D01*
X258560Y77671D01*
X257659Y77092D01*
X256719Y76578D01*
X255744Y76133D01*
X254740Y75759D01*
X253712Y75457D01*
X252665Y75229D01*
X251604Y75076D01*
X250536Y75000D01*
X249464Y75000D01*
X248396Y75076D01*
X247335Y75229D01*
X246288Y75457D01*
X245260Y75759D01*
X244256Y76133D01*
X243281Y76578D01*
X242341Y77092D01*
X241440Y77671D01*
X240582Y78313D01*
X239772Y79015D01*
X239015Y79772D01*
X238313Y80582D01*
X237671Y81440D01*
X237092Y82341D01*
X236578Y83281D01*
X236133Y84256D01*
X235759Y85260D01*
X235457Y86288D01*
X235229Y87335D01*
X235076Y88396D01*
X235000Y89464D01*
X235000Y90536D01*
X235076Y91604D01*
X235229Y92665D01*
X235457Y93712D01*
X235759Y94740D01*
X236133Y95744D01*
X236578Y96719D01*
X237092Y97659D01*
X237671Y98560D01*
X238313Y99418D01*
X239015Y100228D01*
X239772Y100985D01*
X240582Y101687D01*
X241440Y102329D01*
X242341Y102908D01*
X243281Y103422D01*
X244256Y103867D01*
X245260Y104241D01*
X246288Y104543D01*
X247335Y104771D01*
X248396Y104924D01*
X249464Y105000D01*
X250536Y105000D01*
X251604Y104924D01*
X252665Y104771D01*
X253712Y104543D01*
X254740Y104241D01*
X255744Y103867D01*
X256719Y103422D01*
X257659Y102908D01*
X258560Y102329D01*
X259418Y101687D01*
X260228Y100985D01*
X260985Y100228D01*
X261687Y99418D01*
X262329Y98560D01*
X262908Y97659D01*
X263422Y96719D01*
X263867Y95744D01*
X264241Y94740D01*
X264543Y93712D01*
X264771Y92665D01*
X264924Y91604D01*
X265000Y90536D01*
X265000Y89464D01*
X265000Y379464D02*
X264924Y378396D01*
X264771Y377335D01*
X264543Y376288D01*
X264241Y375260D01*
X263867Y374256D01*
X263422Y373281D01*
X262908Y372341D01*
X262329Y371440D01*
X261687Y370582D01*
X260985Y369772D01*
X260228Y369015D01*
X259418Y368313D01*
X258560Y367671D01*
X257659Y367092D01*
X256719Y366578D01*
X255744Y366133D01*
X254740Y365759D01*
X253712Y365457D01*
X252665Y365229D01*
X251604Y365076D01*
X250536Y365000D01*
X249464Y365000D01*
X248396Y365076D01*
X247335Y365229D01*
X246288Y365457D01*
X245260Y365759D01*
X244256Y366133D01*
X243281Y366578D01*
X242341Y367092D01*
X241440Y367671D01*
X240582Y368313D01*
X239772Y369015D01*
X239015Y369772D01*
X238313Y370582D01*
X237671Y371440D01*
X237092Y372341D01*
X236578Y373281D01*
X236133Y374256D01*
X235759Y375260D01*
X235457Y376288D01*
X235229Y377335D01*
X235076Y378396D01*
X235000Y379464D01*
X235000Y380536D01*
X235076Y381604D01*
X235229Y382665D01*
X235457Y383712D01*
X235759Y384740D01*
X236133Y385744D01*
X236578Y386719D01*
X237092Y387659D01*
X237671Y388560D01*
X238313Y389418D01*
X239015Y390228D01*
X239772Y390985D01*
X240582Y391687D01*
X241440Y392329D01*
X242341Y392908D01*
X243281Y393422D01*
X244256Y393867D01*
X245260Y394241D01*
X246288Y394543D01*
X247335Y394771D01*
X248396Y394924D01*
X249464Y395000D01*
X250536Y395000D01*
X251604Y394924D01*
X252665Y394771D01*
X253712Y394543D01*
X254740Y394241D01*
X255744Y393867D01*
X256719Y393422D01*
X257659Y392908D01*
X258560Y392329D01*
X259418Y391687D01*
X260228Y390985D01*
X260985Y390228D01*
X261687Y389418D01*
X262329Y388560D01*
X262908Y387659D01*
X263422Y386719D01*
X263867Y385744D01*
X264241Y384740D01*
X264543Y383712D01*
X264771Y382665D01*
X264924Y381604D01*
X265000Y380536D01*
X265000Y379464D01*
X340550Y25119D02*
X340475Y24361D01*
X340327Y23615D01*
X340106Y22886D01*
X339814Y22182D01*
X339455Y21511D01*
X339032Y20878D01*
X338549Y20289D01*
X338011Y19751D01*
X337422Y19268D01*
X336789Y18845D01*
X336118Y18486D01*
X335414Y18194D01*
X334685Y17973D01*
X333939Y17825D01*
X333181Y17750D01*
X332419Y17750D01*
X331661Y17825D01*
X330915Y17973D01*
X330186Y18194D01*
X329482Y18486D01*
X328811Y18845D01*
X328178Y19268D01*
X327589Y19751D01*
X327051Y20289D01*
X326568Y20878D01*
X326145Y21511D01*
X325786Y22182D01*
X325494Y22886D01*
X325273Y23615D01*
X325125Y24361D01*
X325050Y25119D01*
X325050Y25881D01*
X325125Y26639D01*
X325273Y27385D01*
X325494Y28114D01*
X325786Y28818D01*
X326145Y29489D01*
X326568Y30122D01*
X327051Y30711D01*
X327589Y31249D01*
X328178Y31732D01*
X328811Y32155D01*
X329482Y32514D01*
X330186Y32806D01*
X330915Y33027D01*
X331661Y33175D01*
X332419Y33250D01*
X333181Y33250D01*
X333939Y33175D01*
X334685Y33027D01*
X335414Y32806D01*
X336118Y32514D01*
X336789Y32155D01*
X337422Y31732D01*
X338011Y31249D01*
X338549Y30711D01*
X339032Y30122D01*
X339455Y29489D01*
X339814Y28818D01*
X340106Y28114D01*
X340327Y27385D01*
X340475Y26639D01*
X340550Y25881D01*
X340550Y25119D01*
X252350Y25119D02*
X252275Y24361D01*
X252127Y23615D01*
X251906Y22886D01*
X251614Y22182D01*
X251255Y21511D01*
X250832Y20878D01*
X250349Y20289D01*
X249811Y19751D01*
X249222Y19268D01*
X248589Y18845D01*
X247918Y18486D01*
X247214Y18194D01*
X246485Y17973D01*
X245739Y17825D01*
X244981Y17750D01*
X244219Y17750D01*
X243461Y17825D01*
X242715Y17973D01*
X241986Y18194D01*
X241282Y18486D01*
X240611Y18845D01*
X239978Y19268D01*
X239389Y19751D01*
X238851Y20289D01*
X238368Y20878D01*
X237945Y21511D01*
X237586Y22182D01*
X237294Y22886D01*
X237073Y23615D01*
X236925Y24361D01*
X236850Y25119D01*
X236850Y25881D01*
X236925Y26639D01*
X237073Y27385D01*
X237294Y28114D01*
X237586Y28818D01*
X237945Y29489D01*
X238368Y30122D01*
X238851Y30711D01*
X239389Y31249D01*
X239978Y31732D01*
X240611Y32155D01*
X241282Y32514D01*
X241986Y32806D01*
X242715Y33027D01*
X243461Y33175D01*
X244219Y33250D01*
X244981Y33250D01*
X245739Y33175D01*
X246485Y33027D01*
X247214Y32806D01*
X247918Y32514D01*
X248589Y32155D01*
X249222Y31732D01*
X249811Y31249D01*
X250349Y30711D01*
X250832Y30122D01*
X251255Y29489D01*
X251614Y28818D01*
X251906Y28114D01*
X252127Y27385D01*
X252275Y26639D01*
X252350Y25881D01*
X252350Y25119D01*
X79988Y25119D02*
X79913Y24361D01*
X79765Y23615D01*
X79544Y22886D01*
X79252Y22182D01*
X78893Y21511D01*
X78470Y20878D01*
X77987Y20289D01*
X77449Y19751D01*
X76860Y19268D01*
X76227Y18845D01*
X75556Y18486D01*
X74852Y18194D01*
X74123Y17973D01*
X73377Y17825D01*
X72619Y17750D01*
X71857Y17750D01*
X71099Y17825D01*
X70353Y17973D01*
X69624Y18194D01*
X68920Y18486D01*
X68249Y18845D01*
X67616Y19268D01*
X67027Y19751D01*
X66489Y20289D01*
X66006Y20878D01*
X65583Y21511D01*
X65224Y22182D01*
X64932Y22886D01*
X64711Y23615D01*
X64563Y24361D01*
X64488Y25119D01*
X64488Y25881D01*
X64563Y26639D01*
X64711Y27385D01*
X64932Y28114D01*
X65224Y28818D01*
X65583Y29489D01*
X66006Y30122D01*
X66489Y30711D01*
X67027Y31249D01*
X67616Y31732D01*
X68249Y32155D01*
X68920Y32514D01*
X69624Y32806D01*
X70353Y33027D01*
X71099Y33175D01*
X71857Y33250D01*
X72619Y33250D01*
X73377Y33175D01*
X74123Y33027D01*
X74852Y32806D01*
X75556Y32514D01*
X76227Y32155D01*
X76860Y31732D01*
X77449Y31249D01*
X77987Y30711D01*
X78470Y30122D01*
X78893Y29489D01*
X79252Y28818D01*
X79544Y28114D01*
X79765Y27385D01*
X79913Y26639D01*
X79988Y25881D01*
X79988Y25119D01*
X167550Y24119D02*
X167475Y23361D01*
X167327Y22615D01*
X167106Y21886D01*
X166814Y21182D01*
X166455Y20511D01*
X166032Y19878D01*
X165549Y19289D01*
X165011Y18751D01*
X164422Y18268D01*
X163789Y17845D01*
X163118Y17486D01*
X162414Y17194D01*
X161685Y16973D01*
X160939Y16825D01*
X160181Y16750D01*
X159419Y16750D01*
X158661Y16825D01*
X157915Y16973D01*
X157186Y17194D01*
X156482Y17486D01*
X155811Y17845D01*
X155178Y18268D01*
X154589Y18751D01*
X154051Y19289D01*
X153568Y19878D01*
X153145Y20511D01*
X152786Y21182D01*
X152494Y21886D01*
X152273Y22615D01*
X152125Y23361D01*
X152050Y24119D01*
X152050Y24881D01*
X152125Y25639D01*
X152273Y26385D01*
X152494Y27114D01*
X152786Y27818D01*
X153145Y28489D01*
X153568Y29122D01*
X154051Y29711D01*
X154589Y30249D01*
X155178Y30732D01*
X155811Y31155D01*
X156482Y31514D01*
X157186Y31806D01*
X157915Y32027D01*
X158661Y32175D01*
X159419Y32250D01*
X160181Y32250D01*
X160939Y32175D01*
X161685Y32027D01*
X162414Y31806D01*
X163118Y31514D01*
X163789Y31155D01*
X164422Y30732D01*
X165011Y30249D01*
X165549Y29711D01*
X166032Y29122D01*
X166455Y28489D01*
X166814Y27818D01*
X167106Y27114D01*
X167327Y26385D01*
X167475Y25639D01*
X167550Y24881D01*
X167550Y24119D01*
X160000Y454762D02*
X160068Y455282D01*
X160204Y455789D01*
X160405Y456273D01*
X160667Y456727D01*
X160986Y457143D01*
X161357Y457514D01*
X161773Y457833D01*
X162227Y458095D01*
X162711Y458296D01*
X163218Y458432D01*
X163738Y458500D01*
X164262Y458500D01*
X164782Y458432D01*
X165289Y458296D01*
X165773Y458095D01*
X166227Y457833D01*
X166643Y457514D01*
X167014Y457143D01*
X167333Y456727D01*
X167595Y456273D01*
X167796Y455789D01*
X167932Y455282D01*
X168000Y454762D01*
X168000Y454238D01*
X167932Y453718D01*
X167796Y453211D01*
X167595Y452727D01*
X167333Y452273D01*
X167014Y451857D01*
X166643Y451486D01*
X166227Y451167D01*
X165773Y450905D01*
X165289Y450704D01*
X164782Y450568D01*
X164262Y450500D01*
X163738Y450500D01*
X163218Y450568D01*
X162711Y450704D01*
X162227Y450905D01*
X161773Y451167D01*
X161357Y451486D01*
X160986Y451857D01*
X160667Y452273D01*
X160405Y452727D01*
X160204Y453211D01*
X160068Y453718D01*
X160000Y454238D01*
X160000Y454762D01*
X110000Y454762D02*
X110068Y455282D01*
X110204Y455789D01*
X110405Y456273D01*
X110667Y456727D01*
X110986Y457143D01*
X111357Y457514D01*
X111773Y457833D01*
X112227Y458095D01*
X112711Y458296D01*
X113218Y458432D01*
X113738Y458500D01*
X114262Y458500D01*
X114782Y458432D01*
X115289Y458296D01*
X115773Y458095D01*
X116227Y457833D01*
X116643Y457514D01*
X117014Y457143D01*
X117333Y456727D01*
X117595Y456273D01*
X117796Y455789D01*
X117932Y455282D01*
X118000Y454762D01*
X118000Y454238D01*
X117932Y453718D01*
X117796Y453211D01*
X117595Y452727D01*
X117333Y452273D01*
X117014Y451857D01*
X116643Y451486D01*
X116227Y451167D01*
X115773Y450905D01*
X115289Y450704D01*
X114782Y450568D01*
X114262Y450500D01*
X113738Y450500D01*
X113218Y450568D01*
X112711Y450704D01*
X112227Y450905D01*
X111773Y451167D01*
X111357Y451486D01*
X110986Y451857D01*
X110667Y452273D01*
X110405Y452727D01*
X110204Y453211D01*
X110068Y453718D01*
X110000Y454238D01*
X110000Y454762D01*
M02*
