G04 EAGLE Gerber RS-274X export*
G75*
%MOMM*%
%FSLAX34Y34*%
%LPD*%
%INSilkscreen Top*%
%IPPOS*%
%AMOC8*
5,1,8,0,0,1.08239X$1,22.5*%
G01*
G04 Define Apertures*
%ADD10C,0.304800*%
%ADD11C,0.500000*%
%ADD12C,0.120000*%
%ADD13C,0.152400*%
%ADD14C,0.200000*%
%ADD15C,0.127000*%
%ADD16C,0.254000*%
%ADD17C,0.100000*%
G36*
X241419Y344462D02*
X241774Y344490D01*
X242107Y344537D01*
X242419Y344603D01*
X242709Y344687D01*
X242977Y344790D01*
X243223Y344912D01*
X243447Y345052D01*
X243647Y345210D01*
X243821Y345383D01*
X243968Y345571D01*
X244088Y345775D01*
X244181Y345994D01*
X244248Y346228D01*
X244288Y346478D01*
X244301Y346743D01*
X244294Y346952D01*
X244271Y347147D01*
X244234Y347327D01*
X244181Y347494D01*
X244037Y347792D01*
X243848Y348048D01*
X243616Y348265D01*
X243346Y348446D01*
X243048Y348598D01*
X242728Y348729D01*
X242390Y348841D01*
X242036Y348936D01*
X241311Y349107D01*
X240405Y349328D01*
X240088Y349425D01*
X239861Y349513D01*
X239689Y349600D01*
X239539Y349696D01*
X239411Y349801D01*
X239303Y349916D01*
X239219Y350043D01*
X239158Y350185D01*
X239122Y350344D01*
X239110Y350518D01*
X239118Y350668D01*
X239141Y350809D01*
X239180Y350941D01*
X239235Y351062D01*
X239305Y351174D01*
X239390Y351277D01*
X239492Y351370D01*
X239609Y351453D01*
X239886Y351590D01*
X240219Y351688D01*
X240608Y351747D01*
X241053Y351767D01*
X241461Y351749D01*
X241822Y351696D01*
X242136Y351607D01*
X242403Y351484D01*
X242627Y351321D01*
X242812Y351115D01*
X242957Y350866D01*
X243064Y350574D01*
X244116Y350759D01*
X244038Y350997D01*
X243947Y351218D01*
X243842Y351420D01*
X243724Y351605D01*
X243593Y351771D01*
X243449Y351919D01*
X243291Y352049D01*
X243120Y352161D01*
X242932Y352258D01*
X242725Y352341D01*
X242497Y352412D01*
X242250Y352470D01*
X241984Y352515D01*
X241697Y352547D01*
X241391Y352567D01*
X241065Y352573D01*
X240714Y352564D01*
X240384Y352539D01*
X240075Y352496D01*
X239787Y352436D01*
X239520Y352359D01*
X239274Y352264D01*
X239048Y352153D01*
X238844Y352024D01*
X238662Y351880D01*
X238505Y351721D01*
X238371Y351547D01*
X238262Y351359D01*
X238178Y351157D01*
X238117Y350940D01*
X238081Y350708D01*
X238069Y350462D01*
X238078Y350247D01*
X238106Y350045D01*
X238152Y349855D01*
X238217Y349678D01*
X238299Y349512D01*
X238398Y349358D01*
X238514Y349214D01*
X238645Y349081D01*
X238798Y348957D01*
X238976Y348838D01*
X239180Y348726D01*
X239410Y348619D01*
X239680Y348516D01*
X240007Y348412D01*
X240829Y348205D01*
X241809Y347975D01*
X242221Y347856D01*
X242571Y347712D01*
X242722Y347629D01*
X242854Y347534D01*
X242969Y347430D01*
X243066Y347315D01*
X243144Y347185D01*
X243199Y347037D01*
X243232Y346871D01*
X243243Y346687D01*
X243234Y346520D01*
X243208Y346364D01*
X243164Y346218D01*
X243102Y346082D01*
X243023Y345957D01*
X242926Y345842D01*
X242812Y345737D01*
X242680Y345643D01*
X242532Y345560D01*
X242369Y345487D01*
X242191Y345426D01*
X241999Y345376D01*
X241570Y345310D01*
X241081Y345287D01*
X240606Y345308D01*
X240184Y345371D01*
X239814Y345475D01*
X239497Y345621D01*
X239357Y345710D01*
X239231Y345811D01*
X239116Y345924D01*
X239015Y346048D01*
X238926Y346185D01*
X238850Y346333D01*
X238786Y346493D01*
X238735Y346665D01*
X237699Y346458D01*
X237766Y346215D01*
X237852Y345988D01*
X237956Y345776D01*
X238080Y345581D01*
X238223Y345401D01*
X238384Y345236D01*
X238565Y345087D01*
X238764Y344954D01*
X238983Y344837D01*
X239220Y344735D01*
X239476Y344649D01*
X239752Y344578D01*
X240046Y344524D01*
X240359Y344484D01*
X240691Y344461D01*
X241042Y344453D01*
X241419Y344462D01*
G37*
G36*
X250653Y345422D02*
X248732Y345422D01*
X248732Y352455D01*
X247802Y352455D01*
X245938Y351173D01*
X245938Y350221D01*
X247718Y351492D01*
X247718Y345422D01*
X245708Y345422D01*
X245708Y344565D01*
X250653Y344565D01*
X250653Y345422D01*
G37*
G36*
X236119Y352455D02*
X235049Y352455D01*
X235049Y344565D01*
X236119Y344565D01*
X236119Y352455D01*
G37*
G36*
X407119Y733852D02*
X407602Y733893D01*
X408067Y733961D01*
X408514Y734056D01*
X408944Y734179D01*
X409356Y734328D01*
X409751Y734505D01*
X410127Y734709D01*
X410485Y734938D01*
X410820Y735189D01*
X411133Y735463D01*
X411425Y735758D01*
X411695Y736076D01*
X411942Y736416D01*
X412168Y736778D01*
X412373Y737163D01*
X412554Y737567D01*
X412711Y737988D01*
X412843Y738426D01*
X412952Y738881D01*
X413037Y739352D01*
X413097Y739841D01*
X413133Y740346D01*
X413145Y740868D01*
X413133Y741411D01*
X413095Y741936D01*
X413032Y742442D01*
X412944Y742931D01*
X412832Y743401D01*
X412693Y743853D01*
X412530Y744286D01*
X412342Y744702D01*
X412130Y745097D01*
X411895Y745468D01*
X411638Y745817D01*
X411359Y746143D01*
X411057Y746446D01*
X410733Y746726D01*
X410386Y746983D01*
X410017Y747217D01*
X409628Y747425D01*
X409220Y747606D01*
X408795Y747759D01*
X408352Y747884D01*
X407890Y747981D01*
X407411Y748051D01*
X406913Y748092D01*
X406398Y748106D01*
X395614Y748106D01*
X395614Y745775D01*
X406263Y745775D01*
X406855Y745755D01*
X407410Y745694D01*
X407929Y745593D01*
X408411Y745452D01*
X408857Y745270D01*
X409266Y745047D01*
X409638Y744784D01*
X409974Y744481D01*
X410272Y744141D01*
X410530Y743769D01*
X410748Y743364D01*
X410926Y742927D01*
X411065Y742458D01*
X411164Y741956D01*
X411224Y741422D01*
X411244Y740856D01*
X411225Y740305D01*
X411167Y739788D01*
X411071Y739304D01*
X410937Y738853D01*
X410765Y738436D01*
X410554Y738052D01*
X410305Y737701D01*
X410017Y737384D01*
X409693Y737102D01*
X409332Y736858D01*
X408936Y736651D01*
X408505Y736482D01*
X408038Y736351D01*
X407535Y736257D01*
X406997Y736200D01*
X406422Y736182D01*
X395614Y736182D01*
X395614Y733838D01*
X406619Y733838D01*
X407119Y733852D01*
G37*
G36*
X412900Y762803D02*
X411023Y762803D01*
X411023Y758595D01*
X395614Y758595D01*
X395614Y756558D01*
X398424Y752473D01*
X400509Y752473D01*
X397724Y756374D01*
X411023Y756374D01*
X411023Y751970D01*
X412900Y751970D01*
X412900Y762803D01*
G37*
G36*
X342487Y80063D02*
X342708Y80082D01*
X342920Y80113D01*
X343124Y80156D01*
X343508Y80280D01*
X343860Y80454D01*
X344176Y80673D01*
X344453Y80933D01*
X344689Y81233D01*
X344885Y81574D01*
X345040Y81951D01*
X345150Y82358D01*
X345216Y82796D01*
X345238Y83265D01*
X345215Y83753D01*
X345146Y84207D01*
X345032Y84628D01*
X344871Y85015D01*
X344667Y85365D01*
X344423Y85673D01*
X344137Y85939D01*
X343810Y86163D01*
X343446Y86341D01*
X343050Y86468D01*
X342839Y86512D01*
X342620Y86544D01*
X342393Y86563D01*
X342158Y86569D01*
X337236Y86569D01*
X337236Y85505D01*
X342096Y85505D01*
X342367Y85496D01*
X342620Y85469D01*
X342857Y85422D01*
X343077Y85358D01*
X343281Y85275D01*
X343467Y85173D01*
X343637Y85053D01*
X343790Y84915D01*
X343926Y84760D01*
X344044Y84590D01*
X344144Y84405D01*
X344225Y84206D01*
X344289Y83991D01*
X344334Y83762D01*
X344361Y83518D01*
X344370Y83260D01*
X344361Y83008D01*
X344335Y82772D01*
X344291Y82551D01*
X344230Y82346D01*
X344151Y82155D01*
X344055Y81980D01*
X343941Y81820D01*
X343810Y81675D01*
X343662Y81546D01*
X343497Y81435D01*
X343317Y81341D01*
X343120Y81263D01*
X342907Y81203D01*
X342677Y81161D01*
X342431Y81135D01*
X342169Y81126D01*
X337236Y81126D01*
X337236Y80057D01*
X342259Y80057D01*
X342487Y80063D01*
G37*
G36*
X345126Y93255D02*
X344269Y93255D01*
X344269Y89139D01*
X344071Y89236D01*
X343870Y89360D01*
X343664Y89510D01*
X343454Y89688D01*
X343006Y90134D01*
X342505Y90712D01*
X341678Y91694D01*
X341358Y92043D01*
X341100Y92297D01*
X340873Y92492D01*
X340646Y92660D01*
X340419Y92804D01*
X340192Y92922D01*
X339965Y93013D01*
X339737Y93079D01*
X339509Y93118D01*
X339280Y93132D01*
X339028Y93121D01*
X338791Y93091D01*
X338569Y93041D01*
X338362Y92971D01*
X338170Y92881D01*
X337992Y92771D01*
X337829Y92641D01*
X337681Y92490D01*
X337549Y92321D01*
X337435Y92135D01*
X337338Y91932D01*
X337259Y91711D01*
X337197Y91473D01*
X337153Y91218D01*
X337127Y90946D01*
X337118Y90656D01*
X337127Y90391D01*
X337153Y90138D01*
X337197Y89897D01*
X337258Y89669D01*
X337337Y89453D01*
X337433Y89249D01*
X337547Y89057D01*
X337678Y88878D01*
X337824Y88714D01*
X337982Y88569D01*
X338152Y88441D01*
X338335Y88332D01*
X338529Y88240D01*
X338735Y88167D01*
X338954Y88112D01*
X339184Y88075D01*
X339280Y89105D01*
X338981Y89163D01*
X338718Y89264D01*
X338490Y89408D01*
X338297Y89595D01*
X338144Y89818D01*
X338034Y90069D01*
X337969Y90348D01*
X337947Y90656D01*
X337969Y90977D01*
X338036Y91260D01*
X338148Y91506D01*
X338305Y91715D01*
X338503Y91881D01*
X338736Y92000D01*
X339007Y92072D01*
X339313Y92096D01*
X339548Y92082D01*
X339770Y92040D01*
X339979Y91971D01*
X340176Y91874D01*
X340364Y91755D01*
X340548Y91619D01*
X340904Y91295D01*
X341251Y90915D01*
X341598Y90491D01*
X341960Y90044D01*
X342351Y89592D01*
X342781Y89149D01*
X343258Y88727D01*
X343519Y88529D01*
X343798Y88347D01*
X344097Y88181D01*
X344415Y88030D01*
X345126Y88030D01*
X345126Y93255D01*
G37*
G36*
X341182Y12489D02*
X343641Y12489D01*
X345690Y9213D01*
X346922Y9213D01*
X345636Y11165D01*
X344682Y12612D01*
X344902Y12658D01*
X345109Y12718D01*
X345304Y12792D01*
X345487Y12880D01*
X345586Y12939D01*
X345657Y12981D01*
X345816Y13096D01*
X345962Y13225D01*
X346096Y13368D01*
X346216Y13522D01*
X346320Y13685D01*
X346408Y13857D01*
X346481Y14037D01*
X346537Y14227D01*
X346577Y14424D01*
X346601Y14631D01*
X346609Y14847D01*
X346597Y15105D01*
X346563Y15349D01*
X346507Y15579D01*
X346427Y15794D01*
X346325Y15994D01*
X346201Y16180D01*
X346053Y16351D01*
X345883Y16507D01*
X345693Y16647D01*
X345483Y16768D01*
X345254Y16870D01*
X345006Y16954D01*
X344740Y17019D01*
X344454Y17066D01*
X344149Y17094D01*
X343825Y17103D01*
X340113Y17103D01*
X340113Y9213D01*
X341182Y9213D01*
X341182Y12489D01*
G37*
G36*
X350963Y9110D02*
X351258Y9138D01*
X351533Y9185D01*
X351790Y9251D01*
X352029Y9335D01*
X352249Y9438D01*
X352450Y9560D01*
X352633Y9700D01*
X352796Y9858D01*
X352937Y10031D01*
X353056Y10219D01*
X353154Y10423D01*
X353230Y10642D01*
X353284Y10876D01*
X353317Y11126D01*
X353327Y11391D01*
X353320Y11576D01*
X353297Y11753D01*
X353258Y11922D01*
X353204Y12083D01*
X353135Y12236D01*
X353050Y12380D01*
X352950Y12517D01*
X352835Y12646D01*
X352705Y12764D01*
X352564Y12870D01*
X352410Y12963D01*
X352244Y13043D01*
X352066Y13111D01*
X351875Y13167D01*
X351672Y13209D01*
X351457Y13239D01*
X351457Y13262D01*
X351836Y13365D01*
X352168Y13506D01*
X352451Y13685D01*
X352686Y13903D01*
X352871Y14157D01*
X352944Y14298D01*
X353003Y14447D01*
X353050Y14605D01*
X353083Y14772D01*
X353102Y14948D01*
X353109Y15132D01*
X353099Y15372D01*
X353068Y15598D01*
X353017Y15810D01*
X352945Y16009D01*
X352852Y16195D01*
X352739Y16366D01*
X352605Y16525D01*
X352451Y16669D01*
X352278Y16799D01*
X352089Y16911D01*
X351883Y17005D01*
X351661Y17083D01*
X351422Y17143D01*
X351166Y17186D01*
X350894Y17212D01*
X350606Y17221D01*
X350340Y17212D01*
X350087Y17187D01*
X349847Y17145D01*
X349618Y17085D01*
X349402Y17009D01*
X349198Y16915D01*
X349007Y16805D01*
X348828Y16678D01*
X348664Y16535D01*
X348518Y16380D01*
X348391Y16211D01*
X348281Y16028D01*
X348190Y15833D01*
X348117Y15624D01*
X348061Y15401D01*
X348024Y15166D01*
X349038Y15087D01*
X349093Y15381D01*
X349191Y15639D01*
X349332Y15862D01*
X349517Y16051D01*
X349738Y16200D01*
X349992Y16307D01*
X350277Y16371D01*
X350595Y16392D01*
X350939Y16369D01*
X351238Y16300D01*
X351492Y16186D01*
X351701Y16025D01*
X351864Y15825D01*
X351980Y15592D01*
X352050Y15326D01*
X352073Y15026D01*
X352066Y14871D01*
X352045Y14724D01*
X352009Y14586D01*
X351959Y14457D01*
X351895Y14336D01*
X351816Y14224D01*
X351617Y14026D01*
X351365Y13868D01*
X351067Y13755D01*
X350723Y13688D01*
X350332Y13665D01*
X349783Y13665D01*
X349783Y12791D01*
X350354Y12791D01*
X350794Y12769D01*
X351179Y12701D01*
X351351Y12650D01*
X351509Y12588D01*
X351654Y12515D01*
X351785Y12430D01*
X351901Y12335D01*
X352002Y12232D01*
X352087Y12120D01*
X352156Y11998D01*
X352211Y11868D01*
X352249Y11729D01*
X352273Y11582D01*
X352280Y11425D01*
X352274Y11246D01*
X352253Y11078D01*
X352219Y10922D01*
X352172Y10777D01*
X352111Y10643D01*
X352036Y10521D01*
X351948Y10410D01*
X351846Y10311D01*
X351609Y10146D01*
X351330Y10029D01*
X351011Y9959D01*
X350651Y9935D01*
X350292Y9957D01*
X349974Y10023D01*
X349698Y10132D01*
X349462Y10285D01*
X349268Y10482D01*
X349115Y10723D01*
X349002Y11007D01*
X348932Y11335D01*
X347890Y11240D01*
X347933Y10984D01*
X347993Y10743D01*
X348072Y10519D01*
X348169Y10311D01*
X348284Y10120D01*
X348418Y9944D01*
X348569Y9785D01*
X348738Y9641D01*
X348924Y9515D01*
X349126Y9405D01*
X349342Y9312D01*
X349573Y9236D01*
X349820Y9177D01*
X350082Y9135D01*
X350359Y9109D01*
X350651Y9101D01*
X350963Y9110D01*
G37*
%LPC*%
G36*
X341182Y13335D02*
X341182Y16247D01*
X343719Y16247D01*
X344133Y16224D01*
X344495Y16156D01*
X344806Y16043D01*
X344943Y15970D01*
X345066Y15885D01*
X345175Y15790D01*
X345270Y15684D01*
X345351Y15568D01*
X345417Y15442D01*
X345468Y15306D01*
X345504Y15159D01*
X345526Y15002D01*
X345533Y14835D01*
X345526Y14663D01*
X345505Y14500D01*
X345468Y14346D01*
X345418Y14203D01*
X345353Y14070D01*
X345274Y13947D01*
X345180Y13833D01*
X345071Y13729D01*
X344950Y13637D01*
X344816Y13557D01*
X344671Y13489D01*
X344514Y13433D01*
X344344Y13390D01*
X344163Y13359D01*
X343969Y13341D01*
X343764Y13335D01*
X341182Y13335D01*
G37*
%LPD*%
G36*
X365341Y4335D02*
X365614Y4358D01*
X365878Y4396D01*
X366135Y4449D01*
X366382Y4518D01*
X366622Y4602D01*
X366853Y4701D01*
X367075Y4815D01*
X367288Y4943D01*
X367487Y5085D01*
X367675Y5240D01*
X367850Y5409D01*
X368012Y5591D01*
X368162Y5786D01*
X368300Y5995D01*
X368425Y6217D01*
X368537Y6451D01*
X368633Y6694D01*
X368715Y6947D01*
X368782Y7209D01*
X368834Y7481D01*
X368871Y7763D01*
X368894Y8053D01*
X368901Y8354D01*
X368884Y8804D01*
X368833Y9228D01*
X368748Y9625D01*
X368629Y9995D01*
X368475Y10339D01*
X368288Y10657D01*
X368067Y10948D01*
X367812Y11213D01*
X367525Y11448D01*
X367210Y11652D01*
X366866Y11825D01*
X366494Y11967D01*
X366093Y12077D01*
X365663Y12155D01*
X365205Y12202D01*
X364718Y12218D01*
X362108Y12218D01*
X362108Y4328D01*
X365059Y4328D01*
X365341Y4335D01*
G37*
%LPC*%
G36*
X363178Y5184D02*
X363178Y11361D01*
X364695Y11361D01*
X365065Y11349D01*
X365412Y11313D01*
X365737Y11253D01*
X366039Y11169D01*
X366318Y11060D01*
X366575Y10928D01*
X366810Y10772D01*
X367022Y10591D01*
X367210Y10388D01*
X367374Y10162D01*
X367512Y9916D01*
X367625Y9647D01*
X367713Y9356D01*
X367776Y9044D01*
X367813Y8710D01*
X367826Y8354D01*
X367804Y7883D01*
X367738Y7444D01*
X367627Y7037D01*
X367473Y6663D01*
X367277Y6325D01*
X367044Y6030D01*
X366772Y5776D01*
X366462Y5565D01*
X366120Y5398D01*
X365752Y5279D01*
X365357Y5208D01*
X364936Y5184D01*
X363178Y5184D01*
G37*
%LPD*%
G36*
X375267Y5184D02*
X373346Y5184D01*
X373346Y12218D01*
X372417Y12218D01*
X370552Y10935D01*
X370552Y9983D01*
X372333Y11255D01*
X372333Y5184D01*
X370322Y5184D01*
X370322Y4328D01*
X375267Y4328D01*
X375267Y5184D01*
G37*
G36*
X405188Y125166D02*
X405487Y125188D01*
X405775Y125223D01*
X406053Y125273D01*
X406321Y125338D01*
X406577Y125416D01*
X406824Y125509D01*
X407059Y125616D01*
X407283Y125736D01*
X407493Y125870D01*
X407690Y126016D01*
X407874Y126176D01*
X408044Y126348D01*
X408202Y126533D01*
X408345Y126732D01*
X408476Y126943D01*
X408592Y127166D01*
X408693Y127398D01*
X408778Y127641D01*
X408848Y127894D01*
X408902Y128157D01*
X408941Y128430D01*
X408964Y128713D01*
X408972Y129006D01*
X408963Y129293D01*
X408938Y129571D01*
X408897Y129840D01*
X408839Y130101D01*
X408764Y130352D01*
X408672Y130595D01*
X408564Y130828D01*
X408440Y131053D01*
X408299Y131268D01*
X408143Y131470D01*
X407972Y131659D01*
X407786Y131837D01*
X407584Y132002D01*
X407368Y132154D01*
X407136Y132294D01*
X406888Y132422D01*
X406452Y131549D01*
X406836Y131327D01*
X407169Y131080D01*
X407451Y130807D01*
X407682Y130509D01*
X407862Y130184D01*
X407990Y129834D01*
X408035Y129650D01*
X408067Y129458D01*
X408086Y129261D01*
X408092Y129057D01*
X408079Y128742D01*
X408037Y128443D01*
X407968Y128162D01*
X407872Y127897D01*
X407748Y127649D01*
X407596Y127417D01*
X407417Y127203D01*
X407210Y127004D01*
X406981Y126827D01*
X406734Y126672D01*
X406469Y126542D01*
X406186Y126435D01*
X405886Y126352D01*
X405568Y126293D01*
X405232Y126258D01*
X404878Y126246D01*
X404521Y126257D01*
X404183Y126291D01*
X403865Y126348D01*
X403567Y126428D01*
X403288Y126530D01*
X403028Y126655D01*
X402788Y126803D01*
X402568Y126974D01*
X402370Y127165D01*
X402199Y127374D01*
X402054Y127602D01*
X401936Y127847D01*
X401844Y128111D01*
X401778Y128393D01*
X401738Y128694D01*
X401725Y129012D01*
X401748Y129415D01*
X401816Y129790D01*
X401930Y130136D01*
X402089Y130454D01*
X402292Y130737D01*
X402534Y130978D01*
X402818Y131178D01*
X403142Y131336D01*
X402806Y132350D01*
X402571Y132243D01*
X402351Y132123D01*
X402146Y131988D01*
X401956Y131840D01*
X401781Y131678D01*
X401621Y131501D01*
X401475Y131311D01*
X401344Y131106D01*
X401229Y130889D01*
X401129Y130658D01*
X401044Y130414D01*
X400975Y130157D01*
X400921Y129888D01*
X400882Y129605D01*
X400859Y129309D01*
X400852Y129001D01*
X400868Y128562D01*
X400918Y128148D01*
X401002Y127759D01*
X401119Y127394D01*
X401269Y127053D01*
X401453Y126737D01*
X401671Y126446D01*
X401921Y126178D01*
X402201Y125940D01*
X402507Y125733D01*
X402838Y125557D01*
X403195Y125414D01*
X403578Y125303D01*
X403986Y125223D01*
X404419Y125175D01*
X404878Y125159D01*
X405188Y125166D01*
G37*
G36*
X408860Y138676D02*
X408003Y138676D01*
X408003Y136756D01*
X400969Y136756D01*
X400969Y135826D01*
X402252Y133961D01*
X403204Y133961D01*
X401932Y135742D01*
X408003Y135742D01*
X408003Y133732D01*
X408860Y133732D01*
X408860Y138676D01*
G37*
G36*
X350463Y130635D02*
X350741Y130660D01*
X351010Y130702D01*
X351271Y130760D01*
X351522Y130835D01*
X351765Y130926D01*
X351998Y131034D01*
X352223Y131159D01*
X352438Y131300D01*
X352640Y131455D01*
X352829Y131627D01*
X353007Y131813D01*
X353172Y132014D01*
X353324Y132231D01*
X353464Y132463D01*
X353592Y132710D01*
X352719Y133147D01*
X352497Y132762D01*
X352250Y132429D01*
X351977Y132147D01*
X351679Y131916D01*
X351354Y131737D01*
X351004Y131609D01*
X350820Y131564D01*
X350628Y131532D01*
X350431Y131513D01*
X350227Y131506D01*
X349912Y131520D01*
X349613Y131561D01*
X349332Y131630D01*
X349067Y131727D01*
X348819Y131851D01*
X348587Y132002D01*
X348373Y132181D01*
X348174Y132388D01*
X347997Y132618D01*
X347842Y132865D01*
X347712Y133130D01*
X347605Y133412D01*
X347522Y133713D01*
X347463Y134031D01*
X347428Y134367D01*
X347416Y134721D01*
X347427Y135078D01*
X347461Y135415D01*
X347518Y135733D01*
X347598Y136032D01*
X347700Y136311D01*
X347825Y136570D01*
X347973Y136810D01*
X348144Y137031D01*
X348335Y137228D01*
X348544Y137399D01*
X348772Y137544D01*
X349017Y137663D01*
X349281Y137755D01*
X349563Y137821D01*
X349864Y137860D01*
X350182Y137873D01*
X350585Y137851D01*
X350960Y137782D01*
X351306Y137669D01*
X351624Y137509D01*
X351907Y137307D01*
X352148Y137064D01*
X352348Y136781D01*
X352506Y136457D01*
X353520Y136793D01*
X353413Y137027D01*
X353293Y137247D01*
X353158Y137452D01*
X353010Y137642D01*
X352848Y137818D01*
X352671Y137978D01*
X352481Y138124D01*
X352276Y138254D01*
X352059Y138370D01*
X351828Y138470D01*
X351584Y138554D01*
X351327Y138624D01*
X351058Y138678D01*
X350775Y138716D01*
X350479Y138739D01*
X350171Y138747D01*
X349732Y138730D01*
X349318Y138680D01*
X348929Y138597D01*
X348564Y138480D01*
X348223Y138329D01*
X347907Y138145D01*
X347616Y137928D01*
X347348Y137677D01*
X347110Y137397D01*
X346903Y137091D01*
X346727Y136760D01*
X346584Y136403D01*
X346473Y136021D01*
X346393Y135613D01*
X346345Y135180D01*
X346329Y134721D01*
X346336Y134411D01*
X346358Y134112D01*
X346393Y133823D01*
X346443Y133545D01*
X346508Y133278D01*
X346586Y133021D01*
X346679Y132775D01*
X346786Y132539D01*
X346906Y132316D01*
X347040Y132105D01*
X347186Y131908D01*
X347346Y131725D01*
X347518Y131554D01*
X347703Y131397D01*
X347902Y131253D01*
X348113Y131123D01*
X348336Y131006D01*
X348568Y130906D01*
X348811Y130821D01*
X349064Y130751D01*
X349327Y130697D01*
X349600Y130658D01*
X349883Y130635D01*
X350176Y130627D01*
X350463Y130635D01*
G37*
G36*
X359830Y131596D02*
X355714Y131596D01*
X355811Y131794D01*
X355935Y131995D01*
X356085Y132201D01*
X356263Y132411D01*
X356709Y132859D01*
X357287Y133360D01*
X358269Y134187D01*
X358618Y134507D01*
X358872Y134765D01*
X359067Y134992D01*
X359235Y135219D01*
X359379Y135446D01*
X359497Y135673D01*
X359588Y135900D01*
X359654Y136128D01*
X359693Y136356D01*
X359707Y136585D01*
X359696Y136837D01*
X359666Y137074D01*
X359616Y137296D01*
X359546Y137503D01*
X359456Y137696D01*
X359346Y137873D01*
X359216Y138036D01*
X359065Y138184D01*
X358896Y138316D01*
X358710Y138430D01*
X358507Y138527D01*
X358286Y138606D01*
X358048Y138668D01*
X357793Y138712D01*
X357521Y138738D01*
X357231Y138747D01*
X356966Y138738D01*
X356713Y138712D01*
X356472Y138668D01*
X356244Y138607D01*
X356028Y138528D01*
X355824Y138432D01*
X355632Y138318D01*
X355453Y138187D01*
X355289Y138041D01*
X355144Y137883D01*
X355016Y137713D01*
X354907Y137530D01*
X354815Y137336D01*
X354742Y137130D01*
X354687Y136911D01*
X354650Y136681D01*
X355680Y136585D01*
X355738Y136884D01*
X355839Y137147D01*
X355983Y137375D01*
X356170Y137568D01*
X356393Y137721D01*
X356644Y137831D01*
X356923Y137896D01*
X357231Y137918D01*
X357552Y137896D01*
X357835Y137829D01*
X358081Y137717D01*
X358290Y137560D01*
X358456Y137362D01*
X358575Y137129D01*
X358647Y136858D01*
X358671Y136552D01*
X358657Y136317D01*
X358615Y136095D01*
X358546Y135886D01*
X358449Y135689D01*
X358330Y135501D01*
X358194Y135317D01*
X357870Y134961D01*
X357490Y134614D01*
X357066Y134267D01*
X356619Y133905D01*
X356167Y133514D01*
X355724Y133084D01*
X355302Y132607D01*
X355104Y132346D01*
X354922Y132067D01*
X354756Y131768D01*
X354605Y131450D01*
X354605Y130739D01*
X359830Y130739D01*
X359830Y131596D01*
G37*
G36*
X417782Y29935D02*
X420241Y29935D01*
X422290Y26659D01*
X423522Y26659D01*
X422236Y28611D01*
X421282Y30058D01*
X421502Y30104D01*
X421709Y30164D01*
X421904Y30238D01*
X422087Y30326D01*
X422186Y30385D01*
X422257Y30427D01*
X422416Y30542D01*
X422562Y30671D01*
X422696Y30814D01*
X422816Y30968D01*
X422920Y31131D01*
X423008Y31303D01*
X423081Y31483D01*
X423137Y31673D01*
X423177Y31870D01*
X423201Y32077D01*
X423209Y32293D01*
X423197Y32551D01*
X423163Y32795D01*
X423107Y33025D01*
X423027Y33240D01*
X422925Y33440D01*
X422801Y33626D01*
X422653Y33797D01*
X422483Y33953D01*
X422293Y34093D01*
X422083Y34214D01*
X421854Y34316D01*
X421606Y34400D01*
X421340Y34465D01*
X421054Y34512D01*
X420749Y34540D01*
X420425Y34549D01*
X416713Y34549D01*
X416713Y26659D01*
X417782Y26659D01*
X417782Y29935D01*
G37*
G36*
X427470Y26558D02*
X427772Y26592D01*
X428056Y26648D01*
X428322Y26726D01*
X428571Y26827D01*
X428801Y26950D01*
X429013Y27096D01*
X429208Y27264D01*
X429382Y27451D01*
X429533Y27655D01*
X429660Y27876D01*
X429764Y28114D01*
X429846Y28368D01*
X429904Y28638D01*
X429938Y28926D01*
X429950Y29229D01*
X429939Y29497D01*
X429907Y29752D01*
X429853Y29994D01*
X429777Y30223D01*
X429680Y30440D01*
X429561Y30643D01*
X429420Y30833D01*
X429258Y31010D01*
X429078Y31170D01*
X428883Y31309D01*
X428673Y31427D01*
X428448Y31523D01*
X428209Y31597D01*
X427955Y31651D01*
X427686Y31683D01*
X427402Y31693D01*
X427163Y31686D01*
X426935Y31662D01*
X426716Y31623D01*
X426507Y31567D01*
X426309Y31497D01*
X426120Y31410D01*
X425941Y31308D01*
X425772Y31189D01*
X425924Y33693D01*
X429491Y33693D01*
X429491Y34549D01*
X425005Y34549D01*
X424742Y30305D01*
X425728Y30305D01*
X425904Y30447D01*
X426080Y30568D01*
X426257Y30666D01*
X426433Y30741D01*
X426613Y30798D01*
X426800Y30838D01*
X426994Y30862D01*
X427195Y30870D01*
X427386Y30863D01*
X427567Y30841D01*
X427737Y30806D01*
X427898Y30755D01*
X428049Y30691D01*
X428190Y30612D01*
X428320Y30519D01*
X428441Y30411D01*
X428549Y30292D01*
X428643Y30164D01*
X428722Y30026D01*
X428787Y29880D01*
X428838Y29725D01*
X428874Y29562D01*
X428895Y29389D01*
X428903Y29207D01*
X428896Y28999D01*
X428874Y28802D01*
X428838Y28616D01*
X428788Y28442D01*
X428723Y28279D01*
X428644Y28128D01*
X428551Y27988D01*
X428444Y27860D01*
X428323Y27745D01*
X428192Y27646D01*
X428049Y27562D01*
X427896Y27493D01*
X427732Y27439D01*
X427556Y27401D01*
X427370Y27378D01*
X427172Y27370D01*
X426858Y27388D01*
X426574Y27443D01*
X426322Y27535D01*
X426101Y27663D01*
X425912Y27827D01*
X425754Y28029D01*
X425627Y28266D01*
X425532Y28541D01*
X424512Y28423D01*
X424565Y28202D01*
X424633Y27994D01*
X424717Y27799D01*
X424816Y27618D01*
X424931Y27450D01*
X425061Y27296D01*
X425208Y27156D01*
X425369Y27029D01*
X425545Y26916D01*
X425735Y26818D01*
X425937Y26735D01*
X426153Y26667D01*
X426382Y26615D01*
X426625Y26577D01*
X426881Y26555D01*
X427150Y26547D01*
X427470Y26558D01*
G37*
%LPC*%
G36*
X417782Y30781D02*
X417782Y33693D01*
X420319Y33693D01*
X420733Y33670D01*
X421095Y33602D01*
X421406Y33489D01*
X421543Y33416D01*
X421666Y33331D01*
X421775Y33236D01*
X421870Y33130D01*
X421951Y33014D01*
X422017Y32888D01*
X422068Y32752D01*
X422104Y32605D01*
X422126Y32448D01*
X422133Y32281D01*
X422126Y32109D01*
X422105Y31946D01*
X422068Y31792D01*
X422018Y31649D01*
X421953Y31516D01*
X421874Y31393D01*
X421780Y31279D01*
X421671Y31175D01*
X421550Y31083D01*
X421416Y31003D01*
X421271Y30935D01*
X421114Y30879D01*
X420944Y30836D01*
X420763Y30805D01*
X420569Y30787D01*
X420364Y30781D01*
X417782Y30781D01*
G37*
%LPD*%
G36*
X356382Y43527D02*
X358841Y43527D01*
X360890Y40252D01*
X362122Y40252D01*
X360836Y42204D01*
X359882Y43651D01*
X360102Y43697D01*
X360309Y43757D01*
X360504Y43830D01*
X360687Y43918D01*
X360786Y43977D01*
X360857Y44019D01*
X361016Y44135D01*
X361162Y44264D01*
X361296Y44407D01*
X361416Y44561D01*
X361520Y44724D01*
X361608Y44895D01*
X361681Y45076D01*
X361737Y45265D01*
X361777Y45463D01*
X361801Y45670D01*
X361809Y45885D01*
X361797Y46144D01*
X361763Y46388D01*
X361707Y46617D01*
X361627Y46832D01*
X361525Y47032D01*
X361401Y47218D01*
X361253Y47389D01*
X361083Y47545D01*
X360893Y47685D01*
X360683Y47806D01*
X360454Y47909D01*
X360206Y47993D01*
X359940Y48058D01*
X359654Y48105D01*
X359349Y48133D01*
X359025Y48142D01*
X355313Y48142D01*
X355313Y40252D01*
X356382Y40252D01*
X356382Y43527D01*
G37*
G36*
X367587Y42038D02*
X368695Y42038D01*
X368695Y42833D01*
X367587Y42833D01*
X367587Y48142D01*
X366528Y48142D01*
X362916Y42822D01*
X362916Y42038D01*
X366635Y42038D01*
X366635Y40252D01*
X367587Y40252D01*
X367587Y42038D01*
G37*
%LPC*%
G36*
X356382Y44373D02*
X356382Y47285D01*
X358919Y47285D01*
X359333Y47262D01*
X359695Y47195D01*
X360006Y47082D01*
X360143Y47009D01*
X360266Y46924D01*
X360375Y46828D01*
X360470Y46723D01*
X360551Y46607D01*
X360617Y46481D01*
X360668Y46344D01*
X360704Y46198D01*
X360726Y46041D01*
X360733Y45874D01*
X360726Y45701D01*
X360705Y45538D01*
X360668Y45385D01*
X360618Y45242D01*
X360553Y45108D01*
X360474Y44985D01*
X360380Y44872D01*
X360271Y44768D01*
X360150Y44675D01*
X360016Y44595D01*
X359871Y44527D01*
X359714Y44472D01*
X359544Y44429D01*
X359363Y44398D01*
X359169Y44379D01*
X358964Y44373D01*
X356382Y44373D01*
G37*
G36*
X363846Y42833D02*
X363936Y42945D01*
X364238Y43359D01*
X366260Y46339D01*
X366478Y46708D01*
X366635Y47005D01*
X366635Y42833D01*
X363846Y42833D01*
G37*
%LPD*%
G36*
X388882Y8196D02*
X391341Y8196D01*
X393390Y4920D01*
X394622Y4920D01*
X393336Y6872D01*
X392382Y8319D01*
X392602Y8365D01*
X392809Y8425D01*
X393004Y8499D01*
X393187Y8587D01*
X393286Y8646D01*
X393357Y8688D01*
X393516Y8803D01*
X393662Y8932D01*
X393796Y9075D01*
X393916Y9229D01*
X394020Y9392D01*
X394108Y9564D01*
X394181Y9744D01*
X394237Y9934D01*
X394277Y10131D01*
X394301Y10338D01*
X394309Y10554D01*
X394297Y10812D01*
X394263Y11056D01*
X394207Y11286D01*
X394127Y11501D01*
X394025Y11701D01*
X393901Y11887D01*
X393753Y12058D01*
X393583Y12214D01*
X393393Y12354D01*
X393183Y12475D01*
X392954Y12577D01*
X392706Y12661D01*
X392440Y12726D01*
X392154Y12773D01*
X391849Y12801D01*
X391525Y12810D01*
X387813Y12810D01*
X387813Y4920D01*
X388882Y4920D01*
X388882Y8196D01*
G37*
G36*
X398770Y4819D02*
X399044Y4853D01*
X399302Y4910D01*
X399544Y4989D01*
X399769Y5090D01*
X399979Y5214D01*
X400172Y5361D01*
X400350Y5530D01*
X400509Y5719D01*
X400646Y5924D01*
X400763Y6146D01*
X400858Y6384D01*
X400932Y6639D01*
X400985Y6910D01*
X401017Y7198D01*
X401027Y7502D01*
X401017Y7783D01*
X400987Y8049D01*
X400937Y8301D01*
X400867Y8538D01*
X400777Y8760D01*
X400667Y8967D01*
X400537Y9160D01*
X400386Y9338D01*
X400219Y9499D01*
X400038Y9637D01*
X399842Y9755D01*
X399632Y9851D01*
X399409Y9926D01*
X399171Y9979D01*
X398919Y10011D01*
X398653Y10022D01*
X398340Y10005D01*
X398046Y9955D01*
X397769Y9872D01*
X397511Y9756D01*
X397276Y9607D01*
X397068Y9429D01*
X396889Y9220D01*
X396738Y8980D01*
X396745Y9350D01*
X396767Y9697D01*
X396804Y10021D01*
X396856Y10323D01*
X396923Y10603D01*
X397004Y10860D01*
X397100Y11095D01*
X397211Y11307D01*
X397335Y11495D01*
X397472Y11658D01*
X397621Y11796D01*
X397782Y11909D01*
X397955Y11997D01*
X398140Y12060D01*
X398337Y12098D01*
X398547Y12110D01*
X398786Y12095D01*
X399004Y12050D01*
X399199Y11975D01*
X399373Y11870D01*
X399524Y11734D01*
X399653Y11569D01*
X399761Y11373D01*
X399846Y11147D01*
X400809Y11321D01*
X400672Y11697D01*
X400494Y12024D01*
X400275Y12300D01*
X400014Y12526D01*
X399868Y12620D01*
X399712Y12702D01*
X399545Y12771D01*
X399369Y12828D01*
X399181Y12871D01*
X398984Y12903D01*
X398776Y12922D01*
X398558Y12928D01*
X398229Y12911D01*
X397919Y12859D01*
X397629Y12774D01*
X397358Y12654D01*
X397107Y12499D01*
X396875Y12311D01*
X396662Y12088D01*
X396469Y11830D01*
X396297Y11541D01*
X396148Y11222D01*
X396022Y10873D01*
X395919Y10495D01*
X395839Y10087D01*
X395781Y9648D01*
X395747Y9181D01*
X395736Y8683D01*
X395747Y8224D01*
X395780Y7793D01*
X395835Y7390D01*
X395912Y7016D01*
X396011Y6669D01*
X396132Y6351D01*
X396276Y6061D01*
X396441Y5799D01*
X396627Y5567D01*
X396833Y5366D01*
X397059Y5195D01*
X397304Y5056D01*
X397568Y4947D01*
X397852Y4870D01*
X398156Y4824D01*
X398480Y4808D01*
X398770Y4819D01*
G37*
%LPC*%
G36*
X388882Y9042D02*
X388882Y11954D01*
X391419Y11954D01*
X391833Y11931D01*
X392195Y11863D01*
X392506Y11750D01*
X392643Y11677D01*
X392766Y11592D01*
X392875Y11497D01*
X392970Y11391D01*
X393051Y11275D01*
X393117Y11149D01*
X393168Y11013D01*
X393204Y10866D01*
X393226Y10709D01*
X393233Y10542D01*
X393226Y10370D01*
X393205Y10207D01*
X393168Y10053D01*
X393118Y9910D01*
X393053Y9777D01*
X392974Y9654D01*
X392880Y9540D01*
X392771Y9436D01*
X392650Y9344D01*
X392516Y9264D01*
X392371Y9196D01*
X392214Y9140D01*
X392044Y9097D01*
X391863Y9066D01*
X391669Y9048D01*
X391464Y9042D01*
X388882Y9042D01*
G37*
G36*
X398273Y5629D02*
X398109Y5656D01*
X397953Y5702D01*
X397804Y5766D01*
X397663Y5847D01*
X397531Y5948D01*
X397406Y6066D01*
X397290Y6202D01*
X397184Y6353D01*
X397092Y6514D01*
X397015Y6686D01*
X396951Y6867D01*
X396902Y7059D01*
X396867Y7262D01*
X396846Y7475D01*
X396839Y7698D01*
X396845Y7873D01*
X396866Y8039D01*
X396900Y8196D01*
X396947Y8342D01*
X397008Y8479D01*
X397083Y8606D01*
X397171Y8724D01*
X397273Y8832D01*
X397507Y9012D01*
X397775Y9140D01*
X397921Y9185D01*
X398076Y9217D01*
X398240Y9237D01*
X398412Y9243D01*
X398595Y9236D01*
X398767Y9214D01*
X398929Y9178D01*
X399080Y9127D01*
X399221Y9062D01*
X399352Y8982D01*
X399473Y8887D01*
X399583Y8778D01*
X399681Y8656D01*
X399766Y8521D01*
X399839Y8375D01*
X399898Y8216D01*
X399944Y8044D01*
X399976Y7861D01*
X399996Y7665D01*
X400003Y7457D01*
X399996Y7248D01*
X399977Y7051D01*
X399944Y6866D01*
X399899Y6692D01*
X399841Y6529D01*
X399770Y6378D01*
X399685Y6238D01*
X399588Y6110D01*
X399480Y5995D01*
X399362Y5896D01*
X399233Y5811D01*
X399096Y5742D01*
X398948Y5689D01*
X398790Y5651D01*
X398623Y5628D01*
X398446Y5620D01*
X398273Y5629D01*
G37*
%LPD*%
G36*
X48282Y341689D02*
X50741Y341689D01*
X52790Y338413D01*
X54022Y338413D01*
X52736Y340365D01*
X51782Y341812D01*
X52002Y341858D01*
X52209Y341918D01*
X52404Y341992D01*
X52587Y342080D01*
X52686Y342139D01*
X52757Y342181D01*
X52916Y342296D01*
X53062Y342425D01*
X53196Y342568D01*
X53316Y342722D01*
X53420Y342885D01*
X53508Y343057D01*
X53581Y343237D01*
X53637Y343427D01*
X53677Y343624D01*
X53701Y343831D01*
X53709Y344047D01*
X53697Y344305D01*
X53663Y344549D01*
X53607Y344779D01*
X53527Y344994D01*
X53425Y345194D01*
X53301Y345380D01*
X53153Y345551D01*
X52983Y345707D01*
X52793Y345847D01*
X52583Y345968D01*
X52354Y346070D01*
X52106Y346154D01*
X51840Y346219D01*
X51554Y346266D01*
X51249Y346294D01*
X50925Y346303D01*
X47213Y346303D01*
X47213Y338413D01*
X48282Y338413D01*
X48282Y341689D01*
G37*
%LPC*%
G36*
X48282Y342535D02*
X48282Y345447D01*
X50819Y345447D01*
X51233Y345424D01*
X51595Y345356D01*
X51906Y345243D01*
X52043Y345170D01*
X52166Y345085D01*
X52275Y344990D01*
X52370Y344884D01*
X52451Y344768D01*
X52517Y344642D01*
X52568Y344506D01*
X52604Y344359D01*
X52626Y344202D01*
X52633Y344035D01*
X52626Y343863D01*
X52605Y343700D01*
X52568Y343546D01*
X52518Y343403D01*
X52453Y343270D01*
X52374Y343147D01*
X52280Y343033D01*
X52171Y342929D01*
X52050Y342837D01*
X51916Y342757D01*
X51771Y342689D01*
X51614Y342633D01*
X51444Y342590D01*
X51263Y342559D01*
X51069Y342541D01*
X50864Y342535D01*
X48282Y342535D01*
G37*
%LPD*%
G36*
X57665Y338954D02*
X57712Y339487D01*
X57790Y340010D01*
X57899Y340524D01*
X58039Y341036D01*
X58211Y341550D01*
X58413Y342069D01*
X58647Y342591D01*
X58940Y343164D01*
X59323Y343838D01*
X59794Y344612D01*
X60355Y345486D01*
X60355Y346303D01*
X55141Y346303D01*
X55141Y345447D01*
X59380Y345447D01*
X58684Y344389D01*
X58094Y343395D01*
X57840Y342922D01*
X57613Y342464D01*
X57412Y342022D01*
X57238Y341597D01*
X57088Y341181D01*
X56958Y340771D01*
X56848Y340365D01*
X56757Y339965D01*
X56687Y339569D01*
X56637Y339179D01*
X56607Y338793D01*
X56597Y338413D01*
X57650Y338413D01*
X57665Y338954D01*
G37*
G36*
X205388Y364137D02*
X205666Y364162D01*
X205935Y364204D01*
X206196Y364262D01*
X206447Y364337D01*
X206690Y364428D01*
X206923Y364536D01*
X207148Y364661D01*
X207363Y364802D01*
X207565Y364957D01*
X207754Y365129D01*
X207932Y365315D01*
X208097Y365516D01*
X208249Y365733D01*
X208389Y365965D01*
X208517Y366212D01*
X207644Y366649D01*
X207422Y366264D01*
X207175Y365931D01*
X206902Y365649D01*
X206604Y365418D01*
X206279Y365239D01*
X205929Y365111D01*
X205745Y365066D01*
X205553Y365034D01*
X205356Y365015D01*
X205152Y365008D01*
X204837Y365022D01*
X204538Y365063D01*
X204257Y365132D01*
X203992Y365229D01*
X203744Y365353D01*
X203512Y365504D01*
X203298Y365683D01*
X203099Y365890D01*
X202922Y366120D01*
X202767Y366367D01*
X202637Y366632D01*
X202530Y366914D01*
X202447Y367215D01*
X202388Y367533D01*
X202353Y367869D01*
X202341Y368223D01*
X202352Y368580D01*
X202386Y368917D01*
X202443Y369235D01*
X202523Y369534D01*
X202625Y369813D01*
X202750Y370072D01*
X202898Y370312D01*
X203069Y370533D01*
X203260Y370730D01*
X203469Y370901D01*
X203697Y371046D01*
X203942Y371165D01*
X204206Y371257D01*
X204488Y371323D01*
X204789Y371362D01*
X205107Y371375D01*
X205510Y371353D01*
X205885Y371284D01*
X206231Y371171D01*
X206549Y371011D01*
X206832Y370809D01*
X207073Y370566D01*
X207273Y370283D01*
X207431Y369959D01*
X208445Y370295D01*
X208338Y370529D01*
X208218Y370749D01*
X208083Y370954D01*
X207935Y371144D01*
X207773Y371320D01*
X207596Y371480D01*
X207406Y371626D01*
X207201Y371756D01*
X206984Y371872D01*
X206753Y371972D01*
X206509Y372056D01*
X206252Y372126D01*
X205983Y372180D01*
X205700Y372218D01*
X205404Y372241D01*
X205096Y372249D01*
X204657Y372232D01*
X204243Y372182D01*
X203854Y372099D01*
X203489Y371982D01*
X203148Y371831D01*
X202832Y371647D01*
X202541Y371430D01*
X202273Y371179D01*
X202035Y370899D01*
X201828Y370593D01*
X201652Y370262D01*
X201509Y369905D01*
X201398Y369523D01*
X201318Y369115D01*
X201270Y368682D01*
X201254Y368223D01*
X201261Y367913D01*
X201283Y367614D01*
X201318Y367325D01*
X201368Y367047D01*
X201433Y366780D01*
X201511Y366523D01*
X201604Y366277D01*
X201711Y366041D01*
X201831Y365818D01*
X201965Y365607D01*
X202111Y365410D01*
X202271Y365227D01*
X202443Y365056D01*
X202628Y364899D01*
X202827Y364755D01*
X203038Y364625D01*
X203261Y364508D01*
X203493Y364408D01*
X203736Y364323D01*
X203989Y364253D01*
X204252Y364199D01*
X204525Y364160D01*
X204808Y364137D01*
X205101Y364129D01*
X205388Y364137D01*
G37*
G36*
X212065Y364782D02*
X212112Y365315D01*
X212190Y365838D01*
X212299Y366352D01*
X212439Y366864D01*
X212611Y367378D01*
X212813Y367897D01*
X213047Y368419D01*
X213340Y368992D01*
X213723Y369666D01*
X214194Y370440D01*
X214755Y371314D01*
X214755Y372131D01*
X209541Y372131D01*
X209541Y371275D01*
X213780Y371275D01*
X213084Y370217D01*
X212494Y369223D01*
X212240Y368750D01*
X212013Y368292D01*
X211812Y367850D01*
X211638Y367425D01*
X211488Y367009D01*
X211358Y366599D01*
X211248Y366193D01*
X211157Y365793D01*
X211087Y365397D01*
X211037Y365007D01*
X211007Y364621D01*
X210997Y364241D01*
X212050Y364241D01*
X212065Y364782D01*
G37*
G36*
X208644Y386537D02*
X208941Y386566D01*
X209218Y386613D01*
X209477Y386680D01*
X209717Y386766D01*
X209937Y386871D01*
X210139Y386995D01*
X210322Y387138D01*
X210485Y387298D01*
X210626Y387473D01*
X210746Y387663D01*
X210843Y387869D01*
X210919Y388089D01*
X210973Y388324D01*
X211006Y388575D01*
X211017Y388840D01*
X211010Y389031D01*
X210991Y389213D01*
X210958Y389387D01*
X210912Y389554D01*
X210781Y389861D01*
X210597Y390137D01*
X210576Y390157D01*
X210366Y390371D01*
X210093Y390556D01*
X209941Y390630D01*
X209778Y390692D01*
X209605Y390741D01*
X209421Y390778D01*
X209421Y390800D01*
X209728Y390888D01*
X210002Y391023D01*
X210229Y391196D01*
X210241Y391205D01*
X210446Y391433D01*
X210610Y391696D01*
X210727Y391980D01*
X210797Y392287D01*
X210821Y392615D01*
X210810Y392842D01*
X210779Y393058D01*
X210726Y393262D01*
X210652Y393453D01*
X210557Y393633D01*
X210441Y393800D01*
X210304Y393955D01*
X210146Y394099D01*
X209970Y394227D01*
X209778Y394339D01*
X209571Y394433D01*
X209349Y394510D01*
X209111Y394570D01*
X208858Y394613D01*
X208590Y394639D01*
X208306Y394647D01*
X208029Y394639D01*
X207767Y394612D01*
X207519Y394569D01*
X207285Y394507D01*
X207066Y394429D01*
X206861Y394332D01*
X206671Y394219D01*
X206495Y394087D01*
X206337Y393942D01*
X206200Y393786D01*
X206084Y393619D01*
X205989Y393442D01*
X205915Y393254D01*
X205862Y393055D01*
X205831Y392846D01*
X205820Y392626D01*
X205843Y392298D01*
X205913Y391992D01*
X206029Y391707D01*
X206192Y391444D01*
X206396Y391214D01*
X206633Y391028D01*
X206904Y390887D01*
X207209Y390789D01*
X207209Y390767D01*
X207040Y390732D01*
X206880Y390685D01*
X206582Y390551D01*
X206314Y390366D01*
X206078Y390128D01*
X205884Y389850D01*
X205808Y389699D01*
X205746Y389540D01*
X205697Y389374D01*
X205663Y389200D01*
X205642Y389018D01*
X205635Y388829D01*
X205646Y388561D01*
X205680Y388309D01*
X205736Y388073D01*
X205814Y387852D01*
X205914Y387647D01*
X206037Y387458D01*
X206182Y387284D01*
X206349Y387127D01*
X206536Y386986D01*
X206741Y386865D01*
X206962Y386762D01*
X207201Y386677D01*
X207457Y386612D01*
X207730Y386565D01*
X208021Y386537D01*
X208329Y386528D01*
X208644Y386537D01*
G37*
G36*
X201572Y386536D02*
X201850Y386561D01*
X202119Y386602D01*
X202379Y386660D01*
X202631Y386735D01*
X202873Y386827D01*
X203107Y386935D01*
X203332Y387059D01*
X203546Y387200D01*
X203748Y387356D01*
X203938Y387527D01*
X204115Y387713D01*
X204280Y387915D01*
X204433Y388132D01*
X204573Y388364D01*
X204701Y388611D01*
X203828Y389047D01*
X203606Y388663D01*
X203359Y388330D01*
X203086Y388048D01*
X202787Y387817D01*
X202463Y387637D01*
X202113Y387509D01*
X201928Y387464D01*
X201737Y387432D01*
X201540Y387413D01*
X201336Y387407D01*
X201021Y387420D01*
X200722Y387462D01*
X200441Y387531D01*
X200176Y387627D01*
X199927Y387751D01*
X199696Y387903D01*
X199481Y388082D01*
X199283Y388289D01*
X199105Y388518D01*
X198951Y388765D01*
X198821Y389030D01*
X198714Y389313D01*
X198631Y389613D01*
X198572Y389931D01*
X198536Y390267D01*
X198524Y390621D01*
X198536Y390978D01*
X198570Y391316D01*
X198627Y391634D01*
X198706Y391932D01*
X198809Y392211D01*
X198934Y392471D01*
X199082Y392711D01*
X199252Y392931D01*
X199443Y393129D01*
X199653Y393300D01*
X199880Y393445D01*
X200126Y393563D01*
X200390Y393655D01*
X200672Y393721D01*
X200972Y393761D01*
X201291Y393774D01*
X201694Y393751D01*
X202068Y393683D01*
X202415Y393569D01*
X202733Y393410D01*
X203016Y393208D01*
X203257Y392965D01*
X203457Y392681D01*
X203615Y392357D01*
X204628Y392693D01*
X204522Y392928D01*
X204402Y393148D01*
X204267Y393353D01*
X204119Y393543D01*
X203956Y393718D01*
X203780Y393879D01*
X203590Y394024D01*
X203385Y394155D01*
X203167Y394270D01*
X202936Y394370D01*
X202693Y394455D01*
X202436Y394524D01*
X202166Y394578D01*
X201884Y394617D01*
X201588Y394640D01*
X201280Y394647D01*
X200841Y394631D01*
X200427Y394581D01*
X200037Y394497D01*
X199672Y394380D01*
X199332Y394230D01*
X199016Y394046D01*
X198724Y393829D01*
X198457Y393578D01*
X198218Y393298D01*
X198011Y392992D01*
X197836Y392661D01*
X197693Y392304D01*
X197581Y391922D01*
X197502Y391514D01*
X197454Y391080D01*
X197438Y390621D01*
X197445Y390311D01*
X197466Y390012D01*
X197502Y389724D01*
X197552Y389446D01*
X197616Y389178D01*
X197695Y388922D01*
X197787Y388675D01*
X197894Y388440D01*
X198015Y388216D01*
X198148Y388006D01*
X198295Y387809D01*
X198454Y387625D01*
X198627Y387455D01*
X198812Y387297D01*
X199010Y387154D01*
X199222Y387023D01*
X199444Y386907D01*
X199677Y386806D01*
X199920Y386721D01*
X200173Y386651D01*
X200436Y386597D01*
X200709Y386559D01*
X200992Y386535D01*
X201285Y386528D01*
X201572Y386536D01*
G37*
%LPC*%
G36*
X208139Y387290D02*
X207950Y387309D01*
X207775Y387341D01*
X207612Y387385D01*
X207463Y387443D01*
X207326Y387513D01*
X207203Y387595D01*
X207093Y387691D01*
X206995Y387799D01*
X206911Y387920D01*
X206839Y388054D01*
X206781Y388200D01*
X206735Y388359D01*
X206703Y388531D01*
X206683Y388716D01*
X206677Y388913D01*
X206684Y389083D01*
X206704Y389244D01*
X206737Y389396D01*
X206785Y389538D01*
X206845Y389671D01*
X206919Y389795D01*
X207108Y390013D01*
X207345Y390189D01*
X207479Y390257D01*
X207623Y390314D01*
X207778Y390358D01*
X207944Y390389D01*
X208120Y390408D01*
X208306Y390414D01*
X208679Y390391D01*
X209008Y390321D01*
X209292Y390204D01*
X209533Y390041D01*
X209635Y389943D01*
X209724Y389833D01*
X209799Y389711D01*
X209860Y389579D01*
X209908Y389435D01*
X209942Y389280D01*
X209963Y389113D01*
X209970Y388935D01*
X209963Y388727D01*
X209944Y388534D01*
X209913Y388354D01*
X209869Y388190D01*
X209812Y388040D01*
X209743Y387905D01*
X209661Y387784D01*
X209566Y387678D01*
X209459Y387586D01*
X209339Y387506D01*
X209205Y387438D01*
X209058Y387382D01*
X208898Y387339D01*
X208725Y387308D01*
X208539Y387290D01*
X208340Y387283D01*
X208139Y387290D01*
G37*
G36*
X207987Y391192D02*
X207697Y391259D01*
X207446Y391370D01*
X207234Y391525D01*
X207066Y391723D01*
X206946Y391962D01*
X206874Y392240D01*
X206856Y392394D01*
X206850Y392559D01*
X206874Y392871D01*
X206944Y393142D01*
X207060Y393372D01*
X207223Y393561D01*
X207430Y393708D01*
X207680Y393813D01*
X207972Y393876D01*
X208306Y393897D01*
X208650Y393876D01*
X208948Y393813D01*
X209200Y393709D01*
X209407Y393562D01*
X209567Y393374D01*
X209682Y393144D01*
X209751Y392872D01*
X209774Y392559D01*
X209750Y392217D01*
X209721Y392066D01*
X209680Y391927D01*
X209628Y391800D01*
X209564Y391687D01*
X209488Y391586D01*
X209401Y391497D01*
X209194Y391354D01*
X208944Y391252D01*
X208652Y391190D01*
X208318Y391170D01*
X207987Y391192D01*
G37*
%LPD*%
G36*
X73865Y275536D02*
X74179Y275587D01*
X74473Y275673D01*
X74747Y275792D01*
X75001Y275946D01*
X75236Y276133D01*
X75451Y276355D01*
X75646Y276611D01*
X75820Y276899D01*
X75971Y277216D01*
X76098Y277562D01*
X76203Y277938D01*
X76284Y278343D01*
X76342Y278778D01*
X76377Y279242D01*
X76388Y279736D01*
X76378Y280209D01*
X76346Y280652D01*
X76293Y281064D01*
X76219Y281445D01*
X76124Y281796D01*
X76007Y282116D01*
X75870Y282406D01*
X75711Y282665D01*
X75531Y282893D01*
X75332Y283091D01*
X75113Y283258D01*
X74874Y283395D01*
X74614Y283502D01*
X74335Y283578D01*
X74036Y283624D01*
X73717Y283639D01*
X73416Y283628D01*
X73132Y283595D01*
X72865Y283539D01*
X72615Y283462D01*
X72382Y283362D01*
X72166Y283240D01*
X71967Y283097D01*
X71785Y282931D01*
X71622Y282745D01*
X71481Y282543D01*
X71362Y282325D01*
X71264Y282090D01*
X71188Y281838D01*
X71134Y281570D01*
X71102Y281286D01*
X71091Y280985D01*
X71101Y280691D01*
X71131Y280412D01*
X71180Y280149D01*
X71250Y279900D01*
X71340Y279666D01*
X71450Y279446D01*
X71579Y279242D01*
X71729Y279053D01*
X71895Y278882D01*
X72075Y278734D01*
X72268Y278609D01*
X72474Y278507D01*
X72693Y278427D01*
X72926Y278370D01*
X73172Y278336D01*
X73432Y278325D01*
X73750Y278344D01*
X74055Y278401D01*
X74346Y278496D01*
X74624Y278630D01*
X74876Y278795D01*
X75088Y278985D01*
X75260Y279199D01*
X75392Y279439D01*
X75379Y279076D01*
X75352Y278734D01*
X75311Y278414D01*
X75256Y278116D01*
X75186Y277839D01*
X75103Y277584D01*
X75005Y277350D01*
X74893Y277137D01*
X74768Y276948D01*
X74631Y276785D01*
X74481Y276646D01*
X74319Y276533D01*
X74145Y276444D01*
X73959Y276381D01*
X73760Y276344D01*
X73549Y276331D01*
X73303Y276346D01*
X73079Y276393D01*
X72879Y276470D01*
X72701Y276577D01*
X72545Y276716D01*
X72413Y276885D01*
X72303Y277086D01*
X72216Y277317D01*
X71253Y277165D01*
X71393Y276761D01*
X71573Y276417D01*
X71678Y276267D01*
X71792Y276133D01*
X71917Y276013D01*
X72051Y275908D01*
X72196Y275817D01*
X72353Y275738D01*
X72521Y275671D01*
X72700Y275616D01*
X72891Y275574D01*
X73093Y275543D01*
X73307Y275525D01*
X73532Y275519D01*
X73865Y275536D01*
G37*
G36*
X66988Y275527D02*
X67266Y275552D01*
X67535Y275594D01*
X67796Y275652D01*
X68047Y275727D01*
X68290Y275818D01*
X68523Y275926D01*
X68748Y276051D01*
X68963Y276192D01*
X69165Y276347D01*
X69354Y276519D01*
X69532Y276705D01*
X69697Y276906D01*
X69849Y277123D01*
X69989Y277355D01*
X70117Y277602D01*
X69244Y278039D01*
X69022Y277654D01*
X68775Y277321D01*
X68502Y277039D01*
X68204Y276808D01*
X67879Y276629D01*
X67529Y276501D01*
X67345Y276456D01*
X67153Y276424D01*
X66956Y276405D01*
X66752Y276398D01*
X66437Y276412D01*
X66138Y276453D01*
X65857Y276522D01*
X65592Y276619D01*
X65344Y276743D01*
X65112Y276894D01*
X64898Y277073D01*
X64699Y277280D01*
X64522Y277510D01*
X64367Y277757D01*
X64237Y278022D01*
X64130Y278304D01*
X64047Y278605D01*
X63988Y278923D01*
X63953Y279259D01*
X63941Y279613D01*
X63952Y279970D01*
X63986Y280307D01*
X64043Y280625D01*
X64123Y280924D01*
X64225Y281203D01*
X64350Y281462D01*
X64498Y281702D01*
X64669Y281923D01*
X64860Y282120D01*
X65069Y282291D01*
X65297Y282436D01*
X65542Y282555D01*
X65806Y282647D01*
X66088Y282713D01*
X66389Y282752D01*
X66707Y282765D01*
X67110Y282743D01*
X67485Y282674D01*
X67831Y282561D01*
X68149Y282401D01*
X68432Y282199D01*
X68673Y281956D01*
X68873Y281673D01*
X69031Y281349D01*
X70045Y281685D01*
X69938Y281919D01*
X69818Y282139D01*
X69683Y282344D01*
X69535Y282534D01*
X69373Y282710D01*
X69196Y282870D01*
X69006Y283016D01*
X68801Y283146D01*
X68584Y283262D01*
X68353Y283362D01*
X68109Y283446D01*
X67852Y283516D01*
X67583Y283570D01*
X67300Y283608D01*
X67004Y283631D01*
X66696Y283639D01*
X66257Y283622D01*
X65843Y283572D01*
X65454Y283489D01*
X65089Y283372D01*
X64748Y283221D01*
X64432Y283037D01*
X64141Y282820D01*
X63873Y282569D01*
X63635Y282289D01*
X63428Y281983D01*
X63252Y281652D01*
X63109Y281295D01*
X62998Y280913D01*
X62918Y280505D01*
X62870Y280072D01*
X62854Y279613D01*
X62861Y279303D01*
X62883Y279004D01*
X62918Y278715D01*
X62968Y278437D01*
X63033Y278170D01*
X63111Y277913D01*
X63204Y277667D01*
X63311Y277431D01*
X63431Y277208D01*
X63565Y276997D01*
X63711Y276800D01*
X63871Y276617D01*
X64043Y276446D01*
X64228Y276289D01*
X64427Y276145D01*
X64638Y276015D01*
X64861Y275898D01*
X65093Y275798D01*
X65336Y275713D01*
X65589Y275643D01*
X65852Y275589D01*
X66125Y275550D01*
X66408Y275527D01*
X66701Y275519D01*
X66988Y275527D01*
G37*
%LPC*%
G36*
X73498Y279128D02*
X73332Y279151D01*
X73176Y279190D01*
X73030Y279245D01*
X72892Y279316D01*
X72764Y279402D01*
X72645Y279504D01*
X72536Y279621D01*
X72437Y279752D01*
X72352Y279894D01*
X72280Y280048D01*
X72221Y280212D01*
X72175Y280389D01*
X72142Y280576D01*
X72122Y280775D01*
X72116Y280985D01*
X72122Y281191D01*
X72142Y281385D01*
X72175Y281570D01*
X72221Y281743D01*
X72280Y281905D01*
X72352Y282056D01*
X72437Y282196D01*
X72536Y282326D01*
X72645Y282442D01*
X72765Y282543D01*
X72894Y282628D01*
X73033Y282697D01*
X73181Y282752D01*
X73339Y282790D01*
X73506Y282814D01*
X73684Y282821D01*
X73862Y282812D01*
X74032Y282785D01*
X74192Y282740D01*
X74343Y282676D01*
X74485Y282595D01*
X74617Y282495D01*
X74740Y282378D01*
X74854Y282242D01*
X74956Y282091D01*
X75045Y281929D01*
X75120Y281755D01*
X75182Y281569D01*
X75229Y281372D01*
X75263Y281163D01*
X75284Y280942D01*
X75291Y280710D01*
X75277Y280484D01*
X75237Y280271D01*
X75169Y280070D01*
X75075Y279881D01*
X74957Y279710D01*
X74820Y279559D01*
X74662Y279428D01*
X74484Y279319D01*
X74293Y279232D01*
X74094Y279169D01*
X73887Y279132D01*
X73672Y279120D01*
X73498Y279128D01*
G37*
%LPD*%
G36*
X70025Y491243D02*
X68225Y491243D01*
X68225Y497836D01*
X67353Y497836D01*
X65605Y496634D01*
X65605Y495742D01*
X67274Y496933D01*
X67274Y491243D01*
X65390Y491243D01*
X65390Y490440D01*
X70025Y490440D01*
X70025Y491243D01*
G37*
G36*
X70009Y402343D02*
X66151Y402343D01*
X66242Y402529D01*
X66359Y402718D01*
X66500Y402910D01*
X66666Y403107D01*
X67084Y403527D01*
X67626Y403997D01*
X68546Y404772D01*
X68873Y405072D01*
X69112Y405314D01*
X69294Y405527D01*
X69452Y405739D01*
X69587Y405952D01*
X69697Y406164D01*
X69783Y406377D01*
X69845Y406591D01*
X69881Y406805D01*
X69894Y407020D01*
X69884Y407256D01*
X69856Y407478D01*
X69809Y407686D01*
X69744Y407880D01*
X69659Y408061D01*
X69556Y408227D01*
X69434Y408380D01*
X69293Y408519D01*
X69134Y408642D01*
X68960Y408749D01*
X68769Y408840D01*
X68562Y408914D01*
X68340Y408972D01*
X68100Y409013D01*
X67845Y409038D01*
X67574Y409046D01*
X67325Y409038D01*
X67088Y409013D01*
X66862Y408972D01*
X66648Y408915D01*
X66445Y408841D01*
X66254Y408751D01*
X66075Y408644D01*
X65907Y408521D01*
X65754Y408384D01*
X65617Y408236D01*
X65497Y408077D01*
X65395Y407906D01*
X65309Y407724D01*
X65240Y407530D01*
X65189Y407325D01*
X65154Y407109D01*
X66120Y407020D01*
X66174Y407300D01*
X66269Y407547D01*
X66404Y407761D01*
X66579Y407941D01*
X66788Y408085D01*
X67023Y408187D01*
X67285Y408249D01*
X67574Y408269D01*
X67874Y408248D01*
X68139Y408185D01*
X68370Y408080D01*
X68566Y407933D01*
X68722Y407748D01*
X68833Y407529D01*
X68900Y407276D01*
X68923Y406988D01*
X68910Y406769D01*
X68871Y406561D01*
X68806Y406365D01*
X68715Y406180D01*
X68476Y405831D01*
X68172Y405498D01*
X67816Y405172D01*
X67419Y404847D01*
X67000Y404508D01*
X66576Y404141D01*
X66161Y403738D01*
X65765Y403291D01*
X65580Y403047D01*
X65409Y402785D01*
X65253Y402505D01*
X65112Y402207D01*
X65112Y401540D01*
X70009Y401540D01*
X70009Y402343D01*
G37*
G36*
X43077Y399889D02*
X38961Y399889D01*
X39058Y400087D01*
X39182Y400288D01*
X39332Y400494D01*
X39509Y400704D01*
X39956Y401152D01*
X40534Y401653D01*
X41516Y402480D01*
X41865Y402800D01*
X42119Y403058D01*
X42313Y403285D01*
X42482Y403512D01*
X42626Y403739D01*
X42743Y403966D01*
X42835Y404193D01*
X42901Y404421D01*
X42940Y404649D01*
X42953Y404878D01*
X42943Y405130D01*
X42913Y405367D01*
X42863Y405589D01*
X42793Y405796D01*
X42703Y405989D01*
X42593Y406166D01*
X42462Y406329D01*
X42312Y406477D01*
X42143Y406609D01*
X41957Y406723D01*
X41754Y406820D01*
X41533Y406899D01*
X41295Y406961D01*
X41040Y407005D01*
X40768Y407031D01*
X40478Y407040D01*
X40213Y407031D01*
X39960Y407005D01*
X39719Y406961D01*
X39490Y406900D01*
X39274Y406821D01*
X39071Y406725D01*
X38879Y406611D01*
X38700Y406480D01*
X38536Y406334D01*
X38391Y406176D01*
X38263Y406006D01*
X38153Y405823D01*
X38062Y405629D01*
X37989Y405423D01*
X37934Y405204D01*
X37897Y404974D01*
X38927Y404878D01*
X38985Y405177D01*
X39086Y405440D01*
X39230Y405668D01*
X39417Y405861D01*
X39640Y406014D01*
X39891Y406124D01*
X40170Y406189D01*
X40478Y406211D01*
X40798Y406189D01*
X41082Y406122D01*
X41328Y406010D01*
X41537Y405853D01*
X41703Y405655D01*
X41822Y405422D01*
X41894Y405151D01*
X41917Y404845D01*
X41904Y404610D01*
X41862Y404388D01*
X41793Y404179D01*
X41696Y403982D01*
X41577Y403794D01*
X41441Y403610D01*
X41117Y403254D01*
X40736Y402907D01*
X40313Y402560D01*
X39866Y402198D01*
X39414Y401807D01*
X38971Y401377D01*
X38549Y400900D01*
X38351Y400639D01*
X38169Y400360D01*
X38002Y400061D01*
X37852Y399743D01*
X37852Y399032D01*
X43077Y399032D01*
X43077Y399889D01*
G37*
G36*
X34347Y398930D02*
X34596Y398961D01*
X34830Y399013D01*
X35050Y399084D01*
X35256Y399177D01*
X35447Y399290D01*
X35624Y399424D01*
X35787Y399578D01*
X35932Y399750D01*
X36059Y399938D01*
X36165Y400140D01*
X36253Y400358D01*
X36321Y400592D01*
X36369Y400841D01*
X36398Y401105D01*
X36408Y401384D01*
X36408Y406922D01*
X33827Y406922D01*
X33827Y406049D01*
X35344Y406049D01*
X35344Y401362D01*
X35323Y400998D01*
X35260Y400682D01*
X35155Y400412D01*
X35008Y400188D01*
X34825Y400013D01*
X34611Y399888D01*
X34366Y399813D01*
X34232Y399794D01*
X34090Y399788D01*
X33835Y399811D01*
X33603Y399879D01*
X33393Y399993D01*
X33205Y400152D01*
X33044Y400352D01*
X32915Y400587D01*
X32818Y400859D01*
X32751Y401166D01*
X31704Y400992D01*
X31757Y400741D01*
X31823Y400506D01*
X31902Y400288D01*
X31994Y400085D01*
X32098Y399899D01*
X32215Y399729D01*
X32344Y399576D01*
X32487Y399438D01*
X32642Y399317D01*
X32810Y399211D01*
X32990Y399122D01*
X33184Y399049D01*
X33390Y398993D01*
X33608Y398952D01*
X33840Y398928D01*
X34084Y398920D01*
X34347Y398930D01*
G37*
G36*
X346187Y213363D02*
X346408Y213382D01*
X346620Y213413D01*
X346824Y213456D01*
X347208Y213580D01*
X347560Y213754D01*
X347876Y213973D01*
X348153Y214233D01*
X348389Y214533D01*
X348585Y214874D01*
X348740Y215251D01*
X348850Y215658D01*
X348916Y216096D01*
X348938Y216565D01*
X348915Y217053D01*
X348846Y217507D01*
X348732Y217928D01*
X348571Y218315D01*
X348367Y218665D01*
X348123Y218973D01*
X347837Y219239D01*
X347510Y219463D01*
X347146Y219641D01*
X346750Y219768D01*
X346539Y219812D01*
X346320Y219844D01*
X346093Y219863D01*
X345858Y219869D01*
X340936Y219869D01*
X340936Y218805D01*
X345796Y218805D01*
X346067Y218796D01*
X346320Y218769D01*
X346557Y218722D01*
X346777Y218658D01*
X346981Y218575D01*
X347167Y218473D01*
X347337Y218353D01*
X347490Y218215D01*
X347626Y218060D01*
X347744Y217890D01*
X347844Y217705D01*
X347925Y217506D01*
X347989Y217291D01*
X348034Y217062D01*
X348061Y216818D01*
X348070Y216560D01*
X348061Y216308D01*
X348035Y216072D01*
X347991Y215851D01*
X347930Y215646D01*
X347851Y215455D01*
X347755Y215280D01*
X347641Y215120D01*
X347510Y214975D01*
X347362Y214846D01*
X347197Y214735D01*
X347017Y214641D01*
X346820Y214563D01*
X346607Y214503D01*
X346377Y214461D01*
X346131Y214435D01*
X345869Y214426D01*
X340936Y214426D01*
X340936Y213357D01*
X345959Y213357D01*
X346187Y213363D01*
G37*
G36*
X347055Y221233D02*
X347296Y221293D01*
X347520Y221372D01*
X347728Y221469D01*
X347919Y221584D01*
X348095Y221718D01*
X348254Y221869D01*
X348398Y222038D01*
X348524Y222224D01*
X348634Y222426D01*
X348727Y222642D01*
X348803Y222873D01*
X348862Y223120D01*
X348904Y223382D01*
X348930Y223659D01*
X348938Y223951D01*
X348929Y224263D01*
X348901Y224558D01*
X348854Y224833D01*
X348788Y225090D01*
X348704Y225329D01*
X348601Y225549D01*
X348479Y225750D01*
X348339Y225933D01*
X348181Y226096D01*
X348008Y226237D01*
X347820Y226356D01*
X347616Y226454D01*
X347397Y226530D01*
X347163Y226584D01*
X346913Y226617D01*
X346648Y226627D01*
X346463Y226620D01*
X346286Y226597D01*
X346117Y226558D01*
X345956Y226504D01*
X345803Y226435D01*
X345659Y226350D01*
X345522Y226250D01*
X345393Y226135D01*
X345275Y226005D01*
X345169Y225864D01*
X345076Y225710D01*
X344996Y225544D01*
X344928Y225366D01*
X344872Y225175D01*
X344830Y224972D01*
X344800Y224757D01*
X344777Y224757D01*
X344674Y225136D01*
X344533Y225468D01*
X344354Y225751D01*
X344136Y225986D01*
X343882Y226171D01*
X343741Y226244D01*
X343592Y226303D01*
X343434Y226350D01*
X343267Y226383D01*
X343091Y226402D01*
X342907Y226409D01*
X342667Y226399D01*
X342441Y226368D01*
X342229Y226317D01*
X342030Y226245D01*
X341844Y226152D01*
X341673Y226039D01*
X341514Y225905D01*
X341370Y225751D01*
X341240Y225578D01*
X341128Y225389D01*
X341034Y225183D01*
X340956Y224961D01*
X340896Y224722D01*
X340853Y224466D01*
X340827Y224194D01*
X340818Y223906D01*
X340827Y223640D01*
X340852Y223387D01*
X340894Y223147D01*
X340954Y222918D01*
X341030Y222702D01*
X341124Y222498D01*
X341234Y222307D01*
X341361Y222128D01*
X341504Y221964D01*
X341659Y221818D01*
X341829Y221691D01*
X342011Y221581D01*
X342207Y221490D01*
X342415Y221417D01*
X342638Y221361D01*
X342873Y221324D01*
X342952Y222338D01*
X342658Y222393D01*
X342400Y222491D01*
X342177Y222632D01*
X341988Y222817D01*
X341839Y223038D01*
X341732Y223292D01*
X341668Y223577D01*
X341647Y223895D01*
X341670Y224239D01*
X341739Y224538D01*
X341853Y224792D01*
X342014Y225001D01*
X342214Y225164D01*
X342447Y225280D01*
X342713Y225350D01*
X343013Y225373D01*
X343169Y225366D01*
X343315Y225345D01*
X343453Y225309D01*
X343582Y225259D01*
X343703Y225195D01*
X343815Y225116D01*
X344013Y224917D01*
X344171Y224665D01*
X344284Y224367D01*
X344351Y224023D01*
X344374Y223632D01*
X344374Y223083D01*
X345248Y223083D01*
X345248Y223654D01*
X345270Y224094D01*
X345338Y224479D01*
X345389Y224651D01*
X345451Y224809D01*
X345524Y224954D01*
X345609Y225085D01*
X345704Y225201D01*
X345807Y225302D01*
X345920Y225387D01*
X346041Y225456D01*
X346171Y225511D01*
X346310Y225549D01*
X346457Y225573D01*
X346614Y225580D01*
X346793Y225574D01*
X346961Y225553D01*
X347117Y225519D01*
X347262Y225472D01*
X347396Y225411D01*
X347518Y225336D01*
X347629Y225248D01*
X347728Y225146D01*
X347893Y224909D01*
X348010Y224630D01*
X348080Y224311D01*
X348104Y223951D01*
X348082Y223592D01*
X348016Y223274D01*
X347907Y222998D01*
X347754Y222762D01*
X347557Y222568D01*
X347316Y222415D01*
X347032Y222302D01*
X346704Y222232D01*
X346799Y221190D01*
X347055Y221233D01*
G37*
G36*
X345804Y150860D02*
X342528Y150860D01*
X342528Y153319D01*
X345804Y155368D01*
X345804Y156600D01*
X343852Y155314D01*
X342405Y154360D01*
X342359Y154580D01*
X342299Y154787D01*
X342225Y154982D01*
X342137Y155165D01*
X342078Y155264D01*
X342036Y155335D01*
X341921Y155494D01*
X341792Y155640D01*
X341649Y155774D01*
X341495Y155894D01*
X341332Y155998D01*
X341160Y156086D01*
X340980Y156159D01*
X340790Y156215D01*
X340593Y156255D01*
X340386Y156279D01*
X340170Y156287D01*
X339912Y156275D01*
X339668Y156241D01*
X339438Y156185D01*
X339223Y156105D01*
X339023Y156003D01*
X338837Y155879D01*
X338666Y155731D01*
X338510Y155561D01*
X338370Y155371D01*
X338249Y155161D01*
X338147Y154932D01*
X338063Y154684D01*
X337998Y154418D01*
X337951Y154132D01*
X337923Y153827D01*
X337914Y153503D01*
X337914Y149791D01*
X345804Y149791D01*
X345804Y150860D01*
G37*
G36*
X345804Y162949D02*
X344947Y162949D01*
X344947Y161029D01*
X337914Y161029D01*
X337914Y160099D01*
X339196Y158234D01*
X340148Y158234D01*
X338877Y160015D01*
X344947Y160015D01*
X344947Y158005D01*
X345804Y158005D01*
X345804Y162949D01*
G37*
%LPC*%
G36*
X338770Y150860D02*
X338770Y153397D01*
X338793Y153811D01*
X338861Y154173D01*
X338974Y154484D01*
X339047Y154621D01*
X339132Y154744D01*
X339227Y154853D01*
X339333Y154948D01*
X339449Y155029D01*
X339575Y155095D01*
X339711Y155146D01*
X339858Y155182D01*
X340015Y155204D01*
X340182Y155211D01*
X340355Y155204D01*
X340517Y155183D01*
X340671Y155146D01*
X340814Y155096D01*
X340947Y155031D01*
X341070Y154952D01*
X341184Y154858D01*
X341288Y154749D01*
X341380Y154628D01*
X341460Y154494D01*
X341528Y154349D01*
X341584Y154192D01*
X341627Y154022D01*
X341658Y153841D01*
X341676Y153647D01*
X341682Y153442D01*
X341682Y150860D01*
X338770Y150860D01*
G37*
%LPD*%
G36*
X350254Y142052D02*
X350527Y142075D01*
X350791Y142113D01*
X351048Y142166D01*
X351295Y142235D01*
X351535Y142319D01*
X351766Y142418D01*
X351988Y142532D01*
X352201Y142660D01*
X352400Y142802D01*
X352588Y142957D01*
X352763Y143126D01*
X352925Y143308D01*
X353075Y143503D01*
X353213Y143712D01*
X353338Y143934D01*
X353450Y144168D01*
X353546Y144411D01*
X353628Y144664D01*
X353695Y144926D01*
X353747Y145198D01*
X353784Y145480D01*
X353807Y145770D01*
X353814Y146071D01*
X353797Y146521D01*
X353746Y146945D01*
X353661Y147342D01*
X353542Y147712D01*
X353388Y148056D01*
X353201Y148374D01*
X352980Y148665D01*
X352725Y148930D01*
X352438Y149165D01*
X352123Y149369D01*
X351779Y149542D01*
X351407Y149684D01*
X351006Y149794D01*
X350576Y149872D01*
X350118Y149919D01*
X349631Y149935D01*
X347021Y149935D01*
X347021Y142045D01*
X349972Y142045D01*
X350254Y142052D01*
G37*
%LPC*%
G36*
X348091Y142901D02*
X348091Y149078D01*
X349608Y149078D01*
X349978Y149066D01*
X350325Y149030D01*
X350650Y148970D01*
X350952Y148886D01*
X351231Y148777D01*
X351488Y148645D01*
X351723Y148489D01*
X351935Y148308D01*
X352123Y148105D01*
X352287Y147879D01*
X352425Y147633D01*
X352538Y147364D01*
X352626Y147073D01*
X352689Y146761D01*
X352726Y146427D01*
X352739Y146071D01*
X352717Y145600D01*
X352651Y145161D01*
X352540Y144754D01*
X352386Y144380D01*
X352190Y144042D01*
X351957Y143747D01*
X351685Y143493D01*
X351375Y143282D01*
X351033Y143115D01*
X350665Y142996D01*
X350270Y142925D01*
X349849Y142901D01*
X348091Y142901D01*
G37*
%LPD*%
G36*
X360163Y142901D02*
X356047Y142901D01*
X356145Y143099D01*
X356268Y143301D01*
X356419Y143507D01*
X356596Y143716D01*
X357043Y144165D01*
X357621Y144665D01*
X358602Y145493D01*
X358951Y145813D01*
X359206Y146071D01*
X359400Y146298D01*
X359569Y146524D01*
X359712Y146751D01*
X359830Y146978D01*
X359922Y147205D01*
X359988Y147433D01*
X360027Y147662D01*
X360040Y147891D01*
X360030Y148142D01*
X360000Y148379D01*
X359950Y148601D01*
X359880Y148809D01*
X359790Y149001D01*
X359679Y149179D01*
X359549Y149342D01*
X359399Y149490D01*
X359230Y149622D01*
X359044Y149736D01*
X358840Y149833D01*
X358620Y149912D01*
X358382Y149973D01*
X358127Y150017D01*
X357854Y150044D01*
X357565Y150052D01*
X357299Y150044D01*
X357046Y150017D01*
X356806Y149974D01*
X356577Y149912D01*
X356361Y149834D01*
X356157Y149737D01*
X355966Y149624D01*
X355787Y149492D01*
X355623Y149346D01*
X355477Y149188D01*
X355350Y149018D01*
X355240Y148836D01*
X355149Y148642D01*
X355075Y148435D01*
X355020Y148217D01*
X354983Y147986D01*
X356014Y147891D01*
X356072Y148190D01*
X356173Y148453D01*
X356317Y148681D01*
X356504Y148874D01*
X356726Y149027D01*
X356978Y149136D01*
X357257Y149202D01*
X357565Y149224D01*
X357885Y149201D01*
X358168Y149134D01*
X358414Y149022D01*
X358623Y148865D01*
X358790Y148668D01*
X358909Y148434D01*
X358980Y148164D01*
X359004Y147857D01*
X358990Y147623D01*
X358949Y147401D01*
X358880Y147192D01*
X358783Y146995D01*
X358664Y146807D01*
X358527Y146622D01*
X358203Y146267D01*
X357823Y145920D01*
X357400Y145572D01*
X356952Y145211D01*
X356501Y144819D01*
X356058Y144389D01*
X355636Y143912D01*
X355438Y143652D01*
X355256Y143372D01*
X355089Y143074D01*
X354938Y142756D01*
X354938Y142045D01*
X360163Y142045D01*
X360163Y142901D01*
G37*
G36*
X405447Y254361D02*
X405746Y254383D01*
X406034Y254418D01*
X406312Y254468D01*
X406580Y254533D01*
X406836Y254611D01*
X407083Y254704D01*
X407318Y254811D01*
X407542Y254931D01*
X407752Y255065D01*
X407949Y255211D01*
X408133Y255371D01*
X408303Y255543D01*
X408461Y255728D01*
X408604Y255927D01*
X408735Y256138D01*
X408851Y256361D01*
X408952Y256593D01*
X409037Y256836D01*
X409107Y257089D01*
X409161Y257352D01*
X409200Y257625D01*
X409223Y257908D01*
X409230Y258201D01*
X409222Y258488D01*
X409197Y258766D01*
X409156Y259035D01*
X409098Y259296D01*
X409023Y259547D01*
X408931Y259790D01*
X408823Y260023D01*
X408699Y260248D01*
X408558Y260463D01*
X408402Y260665D01*
X408231Y260854D01*
X408045Y261032D01*
X407843Y261197D01*
X407626Y261349D01*
X407395Y261489D01*
X407147Y261617D01*
X406711Y260744D01*
X407095Y260522D01*
X407428Y260275D01*
X407710Y260002D01*
X407941Y259704D01*
X408121Y259379D01*
X408249Y259029D01*
X408294Y258845D01*
X408326Y258653D01*
X408345Y258456D01*
X408351Y258252D01*
X408338Y257937D01*
X408296Y257638D01*
X408227Y257357D01*
X408131Y257092D01*
X408007Y256844D01*
X407855Y256612D01*
X407676Y256398D01*
X407469Y256199D01*
X407240Y256022D01*
X406993Y255867D01*
X406728Y255737D01*
X406445Y255630D01*
X406145Y255547D01*
X405827Y255488D01*
X405491Y255453D01*
X405137Y255441D01*
X404780Y255452D01*
X404442Y255486D01*
X404124Y255543D01*
X403826Y255623D01*
X403547Y255725D01*
X403287Y255850D01*
X403047Y255998D01*
X402827Y256169D01*
X402629Y256360D01*
X402458Y256569D01*
X402313Y256797D01*
X402195Y257042D01*
X402103Y257306D01*
X402037Y257588D01*
X401997Y257889D01*
X401984Y258207D01*
X402007Y258610D01*
X402075Y258985D01*
X402189Y259331D01*
X402348Y259649D01*
X402550Y259932D01*
X402793Y260173D01*
X403077Y260373D01*
X403401Y260531D01*
X403065Y261545D01*
X402830Y261438D01*
X402610Y261318D01*
X402405Y261183D01*
X402215Y261035D01*
X402040Y260873D01*
X401880Y260696D01*
X401734Y260506D01*
X401603Y260301D01*
X401488Y260084D01*
X401388Y259853D01*
X401303Y259609D01*
X401234Y259352D01*
X401180Y259083D01*
X401141Y258800D01*
X401118Y258504D01*
X401111Y258196D01*
X401127Y257757D01*
X401177Y257343D01*
X401261Y256954D01*
X401378Y256589D01*
X401528Y256248D01*
X401712Y255932D01*
X401929Y255641D01*
X402180Y255373D01*
X402460Y255135D01*
X402766Y254928D01*
X403097Y254752D01*
X403454Y254609D01*
X403837Y254498D01*
X404244Y254418D01*
X404678Y254370D01*
X405137Y254354D01*
X405447Y254361D01*
G37*
G36*
X407348Y262533D02*
X407588Y262593D01*
X407812Y262672D01*
X408020Y262769D01*
X408212Y262884D01*
X408388Y263018D01*
X408547Y263169D01*
X408690Y263338D01*
X408817Y263524D01*
X408927Y263726D01*
X409019Y263942D01*
X409095Y264173D01*
X409155Y264420D01*
X409197Y264682D01*
X409222Y264959D01*
X409230Y265251D01*
X409221Y265563D01*
X409193Y265858D01*
X409146Y266133D01*
X409081Y266390D01*
X408996Y266629D01*
X408893Y266849D01*
X408772Y267050D01*
X408631Y267233D01*
X408474Y267396D01*
X408301Y267537D01*
X408113Y267656D01*
X407909Y267754D01*
X407690Y267830D01*
X407455Y267884D01*
X407205Y267917D01*
X406940Y267927D01*
X406755Y267920D01*
X406578Y267897D01*
X406409Y267858D01*
X406249Y267804D01*
X406096Y267735D01*
X405951Y267650D01*
X405814Y267550D01*
X405686Y267435D01*
X405567Y267305D01*
X405462Y267164D01*
X405369Y267010D01*
X405288Y266844D01*
X405220Y266666D01*
X405165Y266475D01*
X405122Y266272D01*
X405092Y266057D01*
X405070Y266057D01*
X404967Y266436D01*
X404825Y266768D01*
X404646Y267051D01*
X404429Y267286D01*
X404174Y267471D01*
X404034Y267544D01*
X403885Y267603D01*
X403727Y267650D01*
X403560Y267683D01*
X403384Y267702D01*
X403199Y267709D01*
X402960Y267699D01*
X402734Y267668D01*
X402521Y267617D01*
X402322Y267545D01*
X402137Y267452D01*
X401965Y267339D01*
X401807Y267205D01*
X401662Y267051D01*
X401533Y266878D01*
X401421Y266689D01*
X401326Y266483D01*
X401248Y266261D01*
X401188Y266022D01*
X401145Y265766D01*
X401119Y265494D01*
X401111Y265206D01*
X401119Y264940D01*
X401145Y264687D01*
X401187Y264447D01*
X401246Y264218D01*
X401323Y264002D01*
X401416Y263798D01*
X401526Y263607D01*
X401654Y263428D01*
X401796Y263264D01*
X401952Y263118D01*
X402121Y262991D01*
X402303Y262881D01*
X402499Y262790D01*
X402708Y262717D01*
X402930Y262661D01*
X403166Y262624D01*
X403244Y263638D01*
X402951Y263693D01*
X402693Y263791D01*
X402469Y263932D01*
X402281Y264117D01*
X402132Y264338D01*
X402025Y264592D01*
X401961Y264877D01*
X401939Y265195D01*
X401962Y265539D01*
X402031Y265838D01*
X402146Y266092D01*
X402306Y266301D01*
X402506Y266464D01*
X402739Y266580D01*
X403006Y266650D01*
X403306Y266673D01*
X403461Y266666D01*
X403608Y266645D01*
X403746Y266609D01*
X403875Y266559D01*
X403995Y266495D01*
X404107Y266416D01*
X404305Y266217D01*
X404463Y265965D01*
X404576Y265667D01*
X404644Y265323D01*
X404667Y264932D01*
X404667Y264383D01*
X405540Y264383D01*
X405540Y264954D01*
X405563Y265394D01*
X405630Y265779D01*
X405681Y265951D01*
X405743Y266109D01*
X405817Y266254D01*
X405901Y266385D01*
X405996Y266501D01*
X406100Y266602D01*
X406212Y266687D01*
X406333Y266756D01*
X406463Y266811D01*
X406602Y266849D01*
X406750Y266873D01*
X406907Y266880D01*
X407086Y266874D01*
X407253Y266853D01*
X407410Y266819D01*
X407555Y266772D01*
X407688Y266711D01*
X407811Y266636D01*
X407921Y266548D01*
X408021Y266446D01*
X408185Y266209D01*
X408302Y265930D01*
X408373Y265611D01*
X408396Y265251D01*
X408374Y264892D01*
X408309Y264574D01*
X408199Y264298D01*
X408046Y264062D01*
X407849Y263868D01*
X407609Y263715D01*
X407324Y263602D01*
X406996Y263532D01*
X407091Y262490D01*
X407348Y262533D01*
G37*
G36*
X357569Y258334D02*
X359356Y258334D01*
X359356Y259286D01*
X357569Y259286D01*
X357569Y260394D01*
X356774Y260394D01*
X356774Y259286D01*
X351465Y259286D01*
X351465Y258227D01*
X356785Y254615D01*
X357569Y254615D01*
X357569Y258334D01*
G37*
G36*
X355684Y246660D02*
X355983Y246682D01*
X356271Y246717D01*
X356549Y246767D01*
X356817Y246832D01*
X357073Y246910D01*
X357320Y247003D01*
X357555Y247110D01*
X357779Y247230D01*
X357989Y247364D01*
X358186Y247510D01*
X358370Y247670D01*
X358540Y247842D01*
X358698Y248027D01*
X358841Y248226D01*
X358972Y248437D01*
X359088Y248660D01*
X359189Y248892D01*
X359274Y249135D01*
X359344Y249388D01*
X359398Y249651D01*
X359437Y249924D01*
X359460Y250207D01*
X359467Y250500D01*
X359459Y250787D01*
X359434Y251065D01*
X359393Y251334D01*
X359335Y251595D01*
X359260Y251846D01*
X359168Y252089D01*
X359060Y252322D01*
X358936Y252547D01*
X358795Y252762D01*
X358639Y252964D01*
X358468Y253153D01*
X358282Y253331D01*
X358080Y253496D01*
X357863Y253648D01*
X357632Y253788D01*
X357384Y253916D01*
X356948Y253043D01*
X357332Y252821D01*
X357665Y252574D01*
X357947Y252301D01*
X358178Y252003D01*
X358358Y251678D01*
X358486Y251328D01*
X358531Y251144D01*
X358563Y250952D01*
X358582Y250755D01*
X358588Y250551D01*
X358575Y250236D01*
X358533Y249937D01*
X358464Y249656D01*
X358368Y249391D01*
X358244Y249143D01*
X358092Y248911D01*
X357913Y248697D01*
X357706Y248498D01*
X357477Y248321D01*
X357230Y248166D01*
X356965Y248036D01*
X356682Y247929D01*
X356382Y247846D01*
X356064Y247787D01*
X355728Y247752D01*
X355374Y247740D01*
X355017Y247751D01*
X354679Y247785D01*
X354361Y247842D01*
X354063Y247922D01*
X353784Y248024D01*
X353524Y248149D01*
X353284Y248297D01*
X353064Y248468D01*
X352866Y248659D01*
X352695Y248868D01*
X352550Y249096D01*
X352432Y249341D01*
X352340Y249605D01*
X352274Y249887D01*
X352234Y250188D01*
X352221Y250506D01*
X352244Y250909D01*
X352312Y251284D01*
X352426Y251630D01*
X352585Y251948D01*
X352787Y252231D01*
X353030Y252472D01*
X353314Y252672D01*
X353638Y252830D01*
X353302Y253844D01*
X353067Y253737D01*
X352847Y253617D01*
X352642Y253482D01*
X352452Y253334D01*
X352277Y253172D01*
X352117Y252995D01*
X351971Y252805D01*
X351840Y252600D01*
X351725Y252383D01*
X351625Y252152D01*
X351540Y251908D01*
X351471Y251651D01*
X351417Y251382D01*
X351378Y251099D01*
X351355Y250803D01*
X351348Y250495D01*
X351364Y250056D01*
X351414Y249642D01*
X351498Y249253D01*
X351615Y248888D01*
X351765Y248547D01*
X351949Y248231D01*
X352166Y247940D01*
X352417Y247672D01*
X352697Y247434D01*
X353003Y247227D01*
X353334Y247051D01*
X353691Y246908D01*
X354074Y246797D01*
X354481Y246717D01*
X354915Y246669D01*
X355374Y246653D01*
X355684Y246660D01*
G37*
%LPC*%
G36*
X356662Y255635D02*
X356248Y255937D01*
X353268Y257959D01*
X352899Y258177D01*
X352602Y258334D01*
X356774Y258334D01*
X356774Y255545D01*
X356662Y255635D01*
G37*
%LPD*%
G36*
X426341Y171382D02*
X423065Y171382D01*
X423065Y173841D01*
X426341Y175890D01*
X426341Y177122D01*
X424389Y175836D01*
X422942Y174882D01*
X422896Y175102D01*
X422836Y175309D01*
X422762Y175504D01*
X422674Y175687D01*
X422615Y175786D01*
X422573Y175857D01*
X422458Y176016D01*
X422329Y176162D01*
X422186Y176296D01*
X422032Y176416D01*
X421869Y176520D01*
X421697Y176608D01*
X421517Y176681D01*
X421327Y176737D01*
X421130Y176777D01*
X420923Y176801D01*
X420707Y176809D01*
X420449Y176797D01*
X420205Y176763D01*
X419975Y176707D01*
X419760Y176627D01*
X419560Y176525D01*
X419374Y176401D01*
X419203Y176253D01*
X419047Y176083D01*
X418907Y175893D01*
X418786Y175683D01*
X418684Y175454D01*
X418600Y175206D01*
X418535Y174940D01*
X418488Y174654D01*
X418460Y174349D01*
X418451Y174025D01*
X418451Y170313D01*
X426341Y170313D01*
X426341Y171382D01*
G37*
G36*
X426341Y183455D02*
X425484Y183455D01*
X425484Y179339D01*
X425286Y179436D01*
X425085Y179560D01*
X424879Y179710D01*
X424669Y179888D01*
X424221Y180334D01*
X423720Y180912D01*
X422893Y181894D01*
X422573Y182243D01*
X422315Y182497D01*
X422088Y182692D01*
X421861Y182860D01*
X421634Y183004D01*
X421407Y183122D01*
X421180Y183213D01*
X420952Y183279D01*
X420724Y183318D01*
X420495Y183332D01*
X420243Y183321D01*
X420006Y183291D01*
X419784Y183241D01*
X419577Y183171D01*
X419385Y183081D01*
X419207Y182971D01*
X419044Y182841D01*
X418896Y182690D01*
X418764Y182521D01*
X418650Y182335D01*
X418553Y182132D01*
X418474Y181911D01*
X418412Y181673D01*
X418368Y181418D01*
X418342Y181146D01*
X418333Y180856D01*
X418342Y180591D01*
X418368Y180338D01*
X418412Y180097D01*
X418473Y179869D01*
X418552Y179653D01*
X418648Y179449D01*
X418762Y179257D01*
X418893Y179078D01*
X419039Y178914D01*
X419197Y178769D01*
X419367Y178641D01*
X419550Y178532D01*
X419744Y178440D01*
X419950Y178367D01*
X420169Y178312D01*
X420399Y178275D01*
X420495Y179305D01*
X420196Y179363D01*
X419933Y179464D01*
X419705Y179608D01*
X419512Y179795D01*
X419359Y180018D01*
X419249Y180269D01*
X419184Y180548D01*
X419162Y180856D01*
X419184Y181177D01*
X419251Y181460D01*
X419363Y181706D01*
X419520Y181915D01*
X419718Y182081D01*
X419951Y182200D01*
X420222Y182272D01*
X420528Y182296D01*
X420763Y182282D01*
X420985Y182240D01*
X421194Y182171D01*
X421391Y182074D01*
X421579Y181955D01*
X421763Y181819D01*
X422119Y181495D01*
X422466Y181115D01*
X422813Y180691D01*
X423175Y180244D01*
X423566Y179792D01*
X423996Y179349D01*
X424473Y178927D01*
X424734Y178729D01*
X425013Y178547D01*
X425312Y178381D01*
X425630Y178230D01*
X426341Y178230D01*
X426341Y183455D01*
G37*
%LPC*%
G36*
X419307Y171382D02*
X419307Y173919D01*
X419330Y174333D01*
X419398Y174695D01*
X419511Y175006D01*
X419584Y175143D01*
X419669Y175266D01*
X419764Y175375D01*
X419870Y175470D01*
X419986Y175551D01*
X420112Y175617D01*
X420248Y175668D01*
X420395Y175704D01*
X420552Y175726D01*
X420719Y175733D01*
X420892Y175726D01*
X421054Y175705D01*
X421208Y175668D01*
X421351Y175618D01*
X421484Y175553D01*
X421607Y175474D01*
X421721Y175380D01*
X421825Y175271D01*
X421917Y175150D01*
X421997Y175016D01*
X422065Y174871D01*
X422121Y174714D01*
X422164Y174544D01*
X422195Y174363D01*
X422213Y174169D01*
X422219Y173964D01*
X422219Y171382D01*
X419307Y171382D01*
G37*
%LPD*%
G36*
X364051Y174237D02*
X364348Y174265D01*
X364625Y174313D01*
X364884Y174380D01*
X365124Y174465D01*
X365345Y174570D01*
X365547Y174694D01*
X365730Y174837D01*
X365892Y174998D01*
X366034Y175173D01*
X366153Y175363D01*
X366251Y175568D01*
X366326Y175789D01*
X366381Y176024D01*
X366413Y176274D01*
X366424Y176540D01*
X366418Y176730D01*
X366398Y176913D01*
X366365Y177087D01*
X366319Y177253D01*
X366188Y177561D01*
X366004Y177836D01*
X365984Y177857D01*
X365773Y178071D01*
X365500Y178255D01*
X365348Y178329D01*
X365185Y178391D01*
X365012Y178440D01*
X364828Y178477D01*
X364828Y178500D01*
X365136Y178588D01*
X365409Y178722D01*
X365637Y178895D01*
X365648Y178904D01*
X365853Y179133D01*
X366017Y179395D01*
X366134Y179680D01*
X366205Y179986D01*
X366228Y180314D01*
X366218Y180542D01*
X366186Y180758D01*
X366133Y180961D01*
X366059Y181153D01*
X365965Y181332D01*
X365849Y181500D01*
X365711Y181655D01*
X365553Y181798D01*
X365377Y181927D01*
X365185Y182038D01*
X364978Y182133D01*
X364756Y182210D01*
X364518Y182270D01*
X364265Y182313D01*
X363997Y182338D01*
X363714Y182347D01*
X363437Y182338D01*
X363174Y182312D01*
X362926Y182268D01*
X362692Y182207D01*
X362473Y182128D01*
X362268Y182032D01*
X362078Y181918D01*
X361902Y181787D01*
X361744Y181642D01*
X361607Y181486D01*
X361491Y181319D01*
X361396Y181142D01*
X361322Y180954D01*
X361269Y180755D01*
X361238Y180545D01*
X361227Y180325D01*
X361251Y179997D01*
X361320Y179691D01*
X361437Y179407D01*
X361600Y179144D01*
X361803Y178914D01*
X362040Y178728D01*
X362311Y178586D01*
X362616Y178489D01*
X362616Y178466D01*
X362448Y178432D01*
X362287Y178384D01*
X361989Y178251D01*
X361722Y178065D01*
X361485Y177828D01*
X361291Y177549D01*
X361215Y177398D01*
X361153Y177240D01*
X361105Y177074D01*
X361070Y176900D01*
X361049Y176718D01*
X361043Y176529D01*
X361054Y176261D01*
X361087Y176008D01*
X361143Y175772D01*
X361221Y175551D01*
X361321Y175346D01*
X361444Y175157D01*
X361589Y174984D01*
X361757Y174826D01*
X361944Y174686D01*
X362148Y174564D01*
X362370Y174461D01*
X362608Y174377D01*
X362864Y174311D01*
X363138Y174264D01*
X363428Y174236D01*
X363736Y174227D01*
X364051Y174237D01*
G37*
G36*
X354273Y177615D02*
X356732Y177615D01*
X358781Y174339D01*
X360013Y174339D01*
X358727Y176291D01*
X357773Y177738D01*
X357993Y177784D01*
X358200Y177844D01*
X358395Y177918D01*
X358578Y178006D01*
X358677Y178065D01*
X358748Y178107D01*
X358907Y178222D01*
X359053Y178351D01*
X359187Y178494D01*
X359307Y178648D01*
X359411Y178811D01*
X359499Y178983D01*
X359572Y179163D01*
X359628Y179353D01*
X359668Y179550D01*
X359692Y179757D01*
X359700Y179973D01*
X359688Y180231D01*
X359654Y180475D01*
X359598Y180705D01*
X359518Y180920D01*
X359416Y181120D01*
X359292Y181306D01*
X359144Y181477D01*
X358974Y181633D01*
X358784Y181773D01*
X358574Y181894D01*
X358345Y181996D01*
X358097Y182080D01*
X357831Y182145D01*
X357545Y182192D01*
X357240Y182220D01*
X356916Y182229D01*
X353204Y182229D01*
X353204Y174339D01*
X354273Y174339D01*
X354273Y177615D01*
G37*
%LPC*%
G36*
X354273Y178461D02*
X354273Y181373D01*
X356810Y181373D01*
X357224Y181350D01*
X357586Y181282D01*
X357897Y181169D01*
X358034Y181096D01*
X358157Y181011D01*
X358266Y180916D01*
X358361Y180810D01*
X358442Y180694D01*
X358508Y180568D01*
X358559Y180432D01*
X358595Y180285D01*
X358617Y180128D01*
X358624Y179961D01*
X358617Y179789D01*
X358596Y179626D01*
X358559Y179472D01*
X358509Y179329D01*
X358444Y179196D01*
X358365Y179073D01*
X358271Y178959D01*
X358162Y178855D01*
X358041Y178763D01*
X357907Y178683D01*
X357762Y178615D01*
X357605Y178559D01*
X357435Y178516D01*
X357254Y178485D01*
X357060Y178467D01*
X356855Y178461D01*
X354273Y178461D01*
G37*
G36*
X363546Y174989D02*
X363358Y175008D01*
X363182Y175040D01*
X363020Y175085D01*
X362870Y175142D01*
X362734Y175212D01*
X362610Y175295D01*
X362500Y175390D01*
X362402Y175499D01*
X362318Y175620D01*
X362247Y175753D01*
X362188Y175900D01*
X362143Y176059D01*
X362110Y176231D01*
X362091Y176415D01*
X362084Y176613D01*
X362091Y176783D01*
X362111Y176944D01*
X362145Y177095D01*
X362192Y177238D01*
X362253Y177371D01*
X362327Y177494D01*
X362515Y177713D01*
X362752Y177888D01*
X362886Y177957D01*
X363031Y178013D01*
X363186Y178057D01*
X363351Y178088D01*
X363527Y178107D01*
X363714Y178113D01*
X364086Y178090D01*
X364415Y178020D01*
X364700Y177904D01*
X364940Y177741D01*
X365042Y177642D01*
X365131Y177532D01*
X365206Y177411D01*
X365268Y177278D01*
X365315Y177134D01*
X365350Y176979D01*
X365370Y176813D01*
X365377Y176635D01*
X365371Y176427D01*
X365352Y176233D01*
X365320Y176054D01*
X365276Y175889D01*
X365219Y175740D01*
X365150Y175604D01*
X365068Y175484D01*
X364974Y175378D01*
X364866Y175285D01*
X364746Y175205D01*
X364612Y175137D01*
X364466Y175082D01*
X364306Y175039D01*
X364133Y175008D01*
X363947Y174989D01*
X363747Y174983D01*
X363546Y174989D01*
G37*
G36*
X363395Y178892D02*
X363104Y178958D01*
X362853Y179069D01*
X362641Y179225D01*
X362473Y179423D01*
X362354Y179661D01*
X362282Y179940D01*
X362264Y180094D01*
X362258Y180258D01*
X362281Y180571D01*
X362351Y180842D01*
X362467Y181072D01*
X362630Y181261D01*
X362837Y181408D01*
X363087Y181513D01*
X363379Y181576D01*
X363714Y181597D01*
X364058Y181576D01*
X364356Y181513D01*
X364608Y181408D01*
X364814Y181262D01*
X364975Y181074D01*
X365089Y180844D01*
X365158Y180572D01*
X365181Y180258D01*
X365158Y179917D01*
X365129Y179765D01*
X365088Y179626D01*
X365035Y179500D01*
X364971Y179386D01*
X364896Y179285D01*
X364809Y179197D01*
X364601Y179054D01*
X364351Y178951D01*
X364059Y178890D01*
X363725Y178869D01*
X363395Y178892D01*
G37*
%LPD*%
G36*
X430121Y155128D02*
X426845Y155128D01*
X426845Y157586D01*
X430121Y159636D01*
X430121Y160868D01*
X428169Y159581D01*
X426722Y158628D01*
X426676Y158847D01*
X426616Y159054D01*
X426542Y159249D01*
X426455Y159432D01*
X426395Y159532D01*
X426353Y159603D01*
X426238Y159761D01*
X426109Y159908D01*
X425966Y160042D01*
X425812Y160162D01*
X425649Y160266D01*
X425477Y160354D01*
X425297Y160426D01*
X425108Y160482D01*
X424910Y160522D01*
X424703Y160546D01*
X424488Y160554D01*
X424229Y160543D01*
X423985Y160509D01*
X423755Y160452D01*
X423540Y160373D01*
X423340Y160271D01*
X423155Y160146D01*
X422984Y159999D01*
X422827Y159829D01*
X422687Y159638D01*
X422566Y159428D01*
X422464Y159200D01*
X422380Y158952D01*
X422315Y158685D01*
X422268Y158399D01*
X422240Y158095D01*
X422231Y157771D01*
X422231Y154058D01*
X430121Y154058D01*
X430121Y155128D01*
G37*
G36*
X425061Y161946D02*
X425340Y161976D01*
X425604Y162026D01*
X425853Y162096D01*
X426087Y162186D01*
X426306Y162295D01*
X426510Y162425D01*
X426700Y162575D01*
X426870Y162741D01*
X427018Y162920D01*
X427143Y163113D01*
X427246Y163319D01*
X427325Y163539D01*
X427382Y163772D01*
X427416Y164018D01*
X427428Y164277D01*
X427408Y164595D01*
X427351Y164900D01*
X427256Y165191D01*
X427122Y165470D01*
X426957Y165721D01*
X426767Y165933D01*
X426553Y166105D01*
X426313Y166237D01*
X426676Y166224D01*
X427018Y166197D01*
X427338Y166156D01*
X427636Y166101D01*
X427913Y166032D01*
X428168Y165948D01*
X428402Y165850D01*
X428615Y165739D01*
X428804Y165613D01*
X428967Y165476D01*
X429106Y165326D01*
X429219Y165165D01*
X429308Y164990D01*
X429371Y164804D01*
X429408Y164605D01*
X429421Y164395D01*
X429406Y164148D01*
X429359Y163925D01*
X429282Y163724D01*
X429175Y163546D01*
X429036Y163391D01*
X428867Y163258D01*
X428667Y163149D01*
X428436Y163062D01*
X428587Y162099D01*
X428991Y162239D01*
X429335Y162418D01*
X429485Y162523D01*
X429619Y162638D01*
X429739Y162762D01*
X429844Y162897D01*
X429935Y163042D01*
X430014Y163198D01*
X430081Y163366D01*
X430136Y163545D01*
X430178Y163736D01*
X430209Y163939D01*
X430227Y164152D01*
X430233Y164378D01*
X430216Y164711D01*
X430165Y165024D01*
X430080Y165318D01*
X429960Y165592D01*
X429807Y165847D01*
X429619Y166081D01*
X429397Y166296D01*
X429141Y166492D01*
X428853Y166666D01*
X428536Y166816D01*
X428190Y166944D01*
X427814Y167048D01*
X427409Y167129D01*
X426974Y167187D01*
X426510Y167222D01*
X426016Y167234D01*
X425543Y167223D01*
X425100Y167191D01*
X424688Y167138D01*
X424307Y167064D01*
X423956Y166969D01*
X423636Y166853D01*
X423346Y166715D01*
X423088Y166556D01*
X422859Y166377D01*
X422661Y166177D01*
X422494Y165958D01*
X422357Y165719D01*
X422250Y165460D01*
X422174Y165181D01*
X422128Y164882D01*
X422113Y164563D01*
X422124Y164262D01*
X422157Y163978D01*
X422213Y163711D01*
X422290Y163461D01*
X422390Y163228D01*
X422512Y163012D01*
X422655Y162813D01*
X422822Y162631D01*
X423007Y162468D01*
X423209Y162327D01*
X423427Y162207D01*
X423662Y162110D01*
X423914Y162034D01*
X424182Y161980D01*
X424466Y161947D01*
X424768Y161936D01*
X425061Y161946D01*
G37*
%LPC*%
G36*
X423088Y155128D02*
X423088Y157664D01*
X423110Y158078D01*
X423178Y158441D01*
X423291Y158752D01*
X423364Y158888D01*
X423449Y159011D01*
X423544Y159121D01*
X423650Y159216D01*
X423766Y159296D01*
X423892Y159362D01*
X424028Y159413D01*
X424175Y159450D01*
X424332Y159472D01*
X424499Y159479D01*
X424672Y159472D01*
X424835Y159450D01*
X424988Y159414D01*
X425131Y159363D01*
X425264Y159298D01*
X425388Y159219D01*
X425501Y159125D01*
X425605Y159017D01*
X425697Y158895D01*
X425777Y158762D01*
X425845Y158616D01*
X425901Y158459D01*
X425944Y158290D01*
X425975Y158108D01*
X425993Y157915D01*
X426000Y157709D01*
X426000Y155128D01*
X423088Y155128D01*
G37*
G36*
X424562Y162968D02*
X424367Y162987D01*
X424183Y163020D01*
X424009Y163066D01*
X423847Y163125D01*
X423696Y163197D01*
X423556Y163283D01*
X423426Y163381D01*
X423310Y163491D01*
X423209Y163610D01*
X423124Y163739D01*
X423055Y163878D01*
X423000Y164026D01*
X422962Y164184D01*
X422938Y164352D01*
X422931Y164529D01*
X422940Y164708D01*
X422967Y164877D01*
X423012Y165037D01*
X423076Y165188D01*
X423157Y165330D01*
X423257Y165462D01*
X423374Y165586D01*
X423510Y165699D01*
X423661Y165802D01*
X423823Y165890D01*
X423997Y165966D01*
X424183Y166027D01*
X424380Y166075D01*
X424589Y166109D01*
X424810Y166129D01*
X425042Y166136D01*
X425268Y166123D01*
X425482Y166082D01*
X425682Y166015D01*
X425871Y165921D01*
X426042Y165803D01*
X426193Y165665D01*
X426324Y165507D01*
X426434Y165330D01*
X426520Y165138D01*
X426583Y164939D01*
X426620Y164732D01*
X426632Y164518D01*
X426624Y164343D01*
X426601Y164178D01*
X426562Y164022D01*
X426507Y163875D01*
X426437Y163738D01*
X426350Y163610D01*
X426249Y163491D01*
X426131Y163381D01*
X426000Y163283D01*
X425858Y163197D01*
X425704Y163125D01*
X425540Y163066D01*
X425364Y163020D01*
X425176Y162987D01*
X424977Y162968D01*
X424768Y162961D01*
X424562Y162968D01*
G37*
%LPD*%
G36*
X348124Y350262D02*
X349910Y350262D01*
X349910Y351214D01*
X348124Y351214D01*
X348124Y352322D01*
X347328Y352322D01*
X347328Y351214D01*
X342020Y351214D01*
X342020Y350155D01*
X347340Y346543D01*
X348124Y346543D01*
X348124Y350262D01*
G37*
G36*
X347271Y338890D02*
X347492Y338909D01*
X347704Y338940D01*
X347908Y338983D01*
X348292Y339107D01*
X348644Y339281D01*
X348960Y339500D01*
X349237Y339760D01*
X349473Y340060D01*
X349669Y340401D01*
X349824Y340778D01*
X349934Y341185D01*
X350000Y341623D01*
X350022Y342092D01*
X349999Y342580D01*
X349930Y343034D01*
X349816Y343455D01*
X349655Y343842D01*
X349451Y344192D01*
X349207Y344500D01*
X348921Y344766D01*
X348594Y344990D01*
X348230Y345168D01*
X347834Y345295D01*
X347623Y345339D01*
X347404Y345371D01*
X347177Y345390D01*
X346942Y345396D01*
X342020Y345396D01*
X342020Y344332D01*
X346880Y344332D01*
X347151Y344323D01*
X347404Y344296D01*
X347641Y344249D01*
X347861Y344185D01*
X348065Y344102D01*
X348251Y344000D01*
X348421Y343880D01*
X348574Y343742D01*
X348710Y343587D01*
X348828Y343417D01*
X348928Y343232D01*
X349009Y343033D01*
X349073Y342818D01*
X349118Y342589D01*
X349145Y342345D01*
X349154Y342087D01*
X349145Y341835D01*
X349119Y341599D01*
X349075Y341378D01*
X349014Y341173D01*
X348935Y340982D01*
X348839Y340807D01*
X348725Y340647D01*
X348594Y340502D01*
X348446Y340373D01*
X348281Y340262D01*
X348101Y340168D01*
X347904Y340090D01*
X347691Y340030D01*
X347461Y339988D01*
X347215Y339962D01*
X346953Y339953D01*
X342020Y339953D01*
X342020Y338884D01*
X347043Y338884D01*
X347271Y338890D01*
G37*
%LPC*%
G36*
X347216Y347563D02*
X346802Y347865D01*
X343823Y349887D01*
X343453Y350105D01*
X343156Y350262D01*
X347328Y350262D01*
X347328Y347473D01*
X347216Y347563D01*
G37*
%LPD*%
G36*
X336114Y285057D02*
X336567Y285089D01*
X336989Y285142D01*
X337382Y285217D01*
X337745Y285313D01*
X338079Y285431D01*
X338382Y285569D01*
X338656Y285730D01*
X338899Y285911D01*
X339109Y286113D01*
X339287Y286337D01*
X339433Y286582D01*
X339546Y286848D01*
X339627Y287135D01*
X339676Y287444D01*
X339692Y287773D01*
X339676Y288103D01*
X339627Y288412D01*
X339546Y288701D01*
X339432Y288968D01*
X339285Y289215D01*
X339106Y289441D01*
X338895Y289647D01*
X338650Y289831D01*
X338375Y289995D01*
X338071Y290137D01*
X337738Y290256D01*
X337375Y290354D01*
X336983Y290431D01*
X336562Y290485D01*
X336112Y290518D01*
X335632Y290529D01*
X335145Y290518D01*
X334688Y290487D01*
X334263Y290435D01*
X333868Y290363D01*
X333504Y290269D01*
X333171Y290155D01*
X332868Y290021D01*
X332597Y289865D01*
X332357Y289688D01*
X332149Y289488D01*
X331972Y289265D01*
X331828Y289019D01*
X331716Y288750D01*
X331636Y288459D01*
X331588Y288144D01*
X331572Y287807D01*
X331588Y287461D01*
X331635Y287138D01*
X331715Y286840D01*
X331825Y286566D01*
X331968Y286316D01*
X332142Y286090D01*
X332348Y285888D01*
X332586Y285710D01*
X332855Y285554D01*
X333156Y285420D01*
X333489Y285306D01*
X333854Y285212D01*
X334251Y285140D01*
X334679Y285088D01*
X335140Y285057D01*
X335632Y285046D01*
X336114Y285057D01*
G37*
G36*
X339580Y271952D02*
X336304Y271952D01*
X336304Y274411D01*
X339580Y276460D01*
X339580Y277692D01*
X337628Y276406D01*
X336181Y275452D01*
X336135Y275672D01*
X336075Y275879D01*
X336001Y276074D01*
X335913Y276257D01*
X335854Y276357D01*
X335812Y276427D01*
X335697Y276586D01*
X335568Y276732D01*
X335425Y276866D01*
X335271Y276987D01*
X335108Y277091D01*
X334936Y277179D01*
X334756Y277251D01*
X334566Y277307D01*
X334369Y277347D01*
X334162Y277371D01*
X333946Y277379D01*
X333688Y277367D01*
X333444Y277334D01*
X333214Y277277D01*
X332999Y277198D01*
X332799Y277096D01*
X332613Y276971D01*
X332442Y276824D01*
X332286Y276654D01*
X332146Y276463D01*
X332025Y276253D01*
X331923Y276024D01*
X331839Y275777D01*
X331774Y275510D01*
X331727Y275224D01*
X331699Y274919D01*
X331690Y274596D01*
X331690Y270883D01*
X339580Y270883D01*
X339580Y271952D01*
G37*
%LPC*%
G36*
X335215Y286072D02*
X334828Y286091D01*
X334471Y286123D01*
X334145Y286167D01*
X333850Y286224D01*
X333585Y286294D01*
X333350Y286376D01*
X333146Y286472D01*
X332968Y286581D01*
X332815Y286707D01*
X332685Y286850D01*
X332579Y287008D01*
X332496Y287184D01*
X332437Y287375D01*
X332401Y287583D01*
X332390Y287807D01*
X332402Y288026D01*
X332438Y288229D01*
X332498Y288415D01*
X332581Y288586D01*
X332689Y288741D01*
X332821Y288880D01*
X332977Y289002D01*
X333157Y289109D01*
X333363Y289202D01*
X333599Y289282D01*
X333865Y289350D01*
X334159Y289405D01*
X334483Y289448D01*
X334837Y289479D01*
X335220Y289498D01*
X335632Y289504D01*
X336030Y289497D01*
X336402Y289478D01*
X336747Y289446D01*
X337066Y289400D01*
X337358Y289342D01*
X337623Y289271D01*
X337862Y289187D01*
X338074Y289089D01*
X338260Y288978D01*
X338422Y288853D01*
X338558Y288712D01*
X338670Y288556D01*
X338757Y288386D01*
X338819Y288200D01*
X338856Y288000D01*
X338869Y287785D01*
X338857Y287568D01*
X338820Y287367D01*
X338759Y287181D01*
X338674Y287010D01*
X338565Y286854D01*
X338431Y286713D01*
X338273Y286588D01*
X338090Y286477D01*
X337882Y286381D01*
X337645Y286297D01*
X337380Y286226D01*
X337087Y286168D01*
X336765Y286123D01*
X336416Y286091D01*
X336038Y286072D01*
X335632Y286066D01*
X335215Y286072D01*
G37*
%LPD*%
G36*
X339580Y284042D02*
X338723Y284042D01*
X338723Y282121D01*
X331690Y282121D01*
X331690Y281191D01*
X332972Y279327D01*
X333924Y279327D01*
X332653Y281107D01*
X338723Y281107D01*
X338723Y279097D01*
X339580Y279097D01*
X339580Y284042D01*
G37*
%LPC*%
G36*
X332546Y271952D02*
X332546Y274489D01*
X332569Y274903D01*
X332637Y275266D01*
X332750Y275577D01*
X332823Y275713D01*
X332908Y275836D01*
X333003Y275946D01*
X333109Y276041D01*
X333225Y276121D01*
X333351Y276187D01*
X333487Y276238D01*
X333634Y276274D01*
X333791Y276296D01*
X333958Y276304D01*
X334131Y276296D01*
X334293Y276275D01*
X334447Y276239D01*
X334590Y276188D01*
X334723Y276123D01*
X334846Y276044D01*
X334960Y275950D01*
X335064Y275842D01*
X335156Y275720D01*
X335236Y275587D01*
X335304Y275441D01*
X335360Y275284D01*
X335403Y275114D01*
X335434Y274933D01*
X335452Y274739D01*
X335458Y274534D01*
X335458Y271952D01*
X332546Y271952D01*
G37*
%LPD*%
G36*
X348478Y266343D02*
X348751Y266366D01*
X349015Y266404D01*
X349272Y266457D01*
X349519Y266526D01*
X349759Y266610D01*
X349990Y266709D01*
X350212Y266823D01*
X350425Y266951D01*
X350624Y267093D01*
X350812Y267248D01*
X350987Y267417D01*
X351149Y267599D01*
X351299Y267794D01*
X351437Y268003D01*
X351562Y268225D01*
X351674Y268459D01*
X351770Y268702D01*
X351852Y268955D01*
X351919Y269217D01*
X351971Y269489D01*
X352008Y269771D01*
X352031Y270061D01*
X352038Y270362D01*
X352021Y270812D01*
X351970Y271236D01*
X351885Y271633D01*
X351766Y272003D01*
X351612Y272347D01*
X351425Y272665D01*
X351204Y272956D01*
X350949Y273221D01*
X350662Y273456D01*
X350347Y273660D01*
X350003Y273833D01*
X349631Y273975D01*
X349230Y274085D01*
X348800Y274163D01*
X348342Y274210D01*
X347855Y274226D01*
X345245Y274226D01*
X345245Y266336D01*
X348196Y266336D01*
X348478Y266343D01*
G37*
%LPC*%
G36*
X346315Y267192D02*
X346315Y273369D01*
X347832Y273369D01*
X348202Y273357D01*
X348549Y273321D01*
X348874Y273261D01*
X349176Y273177D01*
X349455Y273068D01*
X349712Y272936D01*
X349947Y272780D01*
X350159Y272599D01*
X350347Y272396D01*
X350511Y272170D01*
X350649Y271924D01*
X350762Y271655D01*
X350850Y271364D01*
X350913Y271052D01*
X350950Y270718D01*
X350963Y270362D01*
X350941Y269891D01*
X350875Y269452D01*
X350764Y269045D01*
X350610Y268671D01*
X350414Y268333D01*
X350181Y268038D01*
X349909Y267784D01*
X349599Y267573D01*
X349257Y267406D01*
X348889Y267287D01*
X348494Y267216D01*
X348073Y267192D01*
X346315Y267192D01*
G37*
%LPD*%
G36*
X356096Y266233D02*
X356390Y266261D01*
X356666Y266308D01*
X356923Y266373D01*
X357161Y266458D01*
X357381Y266561D01*
X357583Y266682D01*
X357766Y266823D01*
X357928Y266980D01*
X358069Y267153D01*
X358189Y267341D01*
X358286Y267545D01*
X358362Y267764D01*
X358417Y267999D01*
X358449Y268249D01*
X358460Y268514D01*
X358452Y268699D01*
X358429Y268876D01*
X358391Y269045D01*
X358337Y269205D01*
X358268Y269358D01*
X358183Y269503D01*
X358083Y269640D01*
X357967Y269768D01*
X357838Y269887D01*
X357696Y269992D01*
X357542Y270085D01*
X357376Y270166D01*
X357198Y270234D01*
X357008Y270289D01*
X356805Y270332D01*
X356590Y270362D01*
X356590Y270384D01*
X356969Y270487D01*
X357300Y270629D01*
X357583Y270808D01*
X357819Y271025D01*
X358004Y271280D01*
X358076Y271420D01*
X358136Y271569D01*
X358182Y271727D01*
X358215Y271894D01*
X358235Y272070D01*
X358242Y272255D01*
X358231Y272494D01*
X358200Y272720D01*
X358149Y272933D01*
X358077Y273132D01*
X357985Y273317D01*
X357871Y273489D01*
X357738Y273647D01*
X357584Y273792D01*
X357411Y273921D01*
X357222Y274033D01*
X357016Y274128D01*
X356793Y274206D01*
X356554Y274266D01*
X356299Y274309D01*
X356027Y274335D01*
X355738Y274343D01*
X355473Y274335D01*
X355220Y274310D01*
X354979Y274267D01*
X354751Y274208D01*
X354535Y274131D01*
X354331Y274038D01*
X354139Y273928D01*
X353960Y273800D01*
X353797Y273658D01*
X353651Y273502D01*
X353523Y273333D01*
X353414Y273151D01*
X353322Y272955D01*
X353249Y272746D01*
X353194Y272524D01*
X353157Y272288D01*
X354170Y272210D01*
X354226Y272503D01*
X354324Y272761D01*
X354465Y272985D01*
X354649Y273173D01*
X354871Y273323D01*
X355125Y273429D01*
X355410Y273493D01*
X355727Y273515D01*
X356071Y273492D01*
X356371Y273423D01*
X356624Y273308D01*
X356833Y273148D01*
X356996Y272948D01*
X357113Y272715D01*
X357182Y272448D01*
X357206Y272148D01*
X357198Y271993D01*
X357177Y271846D01*
X357141Y271708D01*
X357092Y271579D01*
X357027Y271459D01*
X356949Y271347D01*
X356749Y271149D01*
X356498Y270991D01*
X356200Y270878D01*
X355855Y270810D01*
X355464Y270787D01*
X354915Y270787D01*
X354915Y269914D01*
X355486Y269914D01*
X355927Y269891D01*
X356312Y269824D01*
X356484Y269773D01*
X356642Y269711D01*
X356786Y269637D01*
X356917Y269553D01*
X357033Y269458D01*
X357134Y269354D01*
X357219Y269242D01*
X357289Y269121D01*
X357343Y268991D01*
X357382Y268852D01*
X357405Y268704D01*
X357413Y268547D01*
X357406Y268368D01*
X357386Y268201D01*
X357352Y268044D01*
X357304Y267899D01*
X357243Y267766D01*
X357169Y267643D01*
X357081Y267533D01*
X356979Y267433D01*
X356741Y267269D01*
X356463Y267152D01*
X356144Y267081D01*
X355783Y267058D01*
X355424Y267080D01*
X355107Y267145D01*
X354830Y267255D01*
X354595Y267408D01*
X354400Y267605D01*
X354247Y267845D01*
X354135Y268130D01*
X354064Y268458D01*
X353022Y268363D01*
X353065Y268106D01*
X353126Y267866D01*
X353205Y267642D01*
X353302Y267434D01*
X353417Y267242D01*
X353550Y267066D01*
X353701Y266907D01*
X353871Y266764D01*
X354057Y266637D01*
X354258Y266527D01*
X354474Y266435D01*
X354706Y266359D01*
X354953Y266300D01*
X355214Y266257D01*
X355491Y266232D01*
X355783Y266224D01*
X356096Y266233D01*
G37*
G36*
X413585Y395562D02*
X413884Y395584D01*
X414173Y395619D01*
X414451Y395669D01*
X414718Y395734D01*
X414975Y395812D01*
X415221Y395905D01*
X415457Y396012D01*
X415680Y396132D01*
X415891Y396266D01*
X416088Y396412D01*
X416271Y396572D01*
X416442Y396744D01*
X416599Y396929D01*
X416743Y397128D01*
X416873Y397339D01*
X416990Y397562D01*
X417090Y397794D01*
X417175Y398037D01*
X417245Y398290D01*
X417299Y398553D01*
X417338Y398826D01*
X417361Y399109D01*
X417369Y399402D01*
X417361Y399689D01*
X417336Y399967D01*
X417294Y400236D01*
X417236Y400497D01*
X417161Y400748D01*
X417070Y400991D01*
X416962Y401224D01*
X416837Y401449D01*
X416696Y401664D01*
X416541Y401866D01*
X416370Y402055D01*
X416183Y402233D01*
X415982Y402398D01*
X415765Y402550D01*
X415533Y402690D01*
X415286Y402818D01*
X414849Y401945D01*
X415234Y401723D01*
X415567Y401476D01*
X415849Y401203D01*
X416080Y400905D01*
X416259Y400580D01*
X416387Y400230D01*
X416432Y400046D01*
X416464Y399854D01*
X416483Y399657D01*
X416490Y399453D01*
X416476Y399138D01*
X416435Y398839D01*
X416366Y398558D01*
X416269Y398293D01*
X416145Y398045D01*
X415994Y397813D01*
X415815Y397599D01*
X415608Y397400D01*
X415378Y397223D01*
X415131Y397068D01*
X414866Y396938D01*
X414584Y396831D01*
X414283Y396748D01*
X413965Y396689D01*
X413629Y396654D01*
X413275Y396642D01*
X412918Y396653D01*
X412581Y396687D01*
X412263Y396744D01*
X411964Y396824D01*
X411685Y396926D01*
X411426Y397051D01*
X411186Y397199D01*
X410965Y397370D01*
X410768Y397561D01*
X410597Y397770D01*
X410452Y397998D01*
X410333Y398243D01*
X410241Y398507D01*
X410175Y398789D01*
X410136Y399090D01*
X410123Y399408D01*
X410145Y399811D01*
X410214Y400186D01*
X410327Y400532D01*
X410487Y400850D01*
X410689Y401133D01*
X410932Y401374D01*
X411215Y401574D01*
X411539Y401732D01*
X411203Y402746D01*
X410969Y402639D01*
X410749Y402519D01*
X410544Y402384D01*
X410354Y402236D01*
X410178Y402074D01*
X410018Y401897D01*
X409873Y401707D01*
X409742Y401502D01*
X409626Y401285D01*
X409526Y401054D01*
X409442Y400810D01*
X409372Y400553D01*
X409318Y400284D01*
X409280Y400001D01*
X409257Y399705D01*
X409249Y399397D01*
X409266Y398958D01*
X409316Y398544D01*
X409399Y398155D01*
X409516Y397790D01*
X409667Y397449D01*
X409851Y397133D01*
X410068Y396842D01*
X410319Y396574D01*
X410599Y396336D01*
X410905Y396129D01*
X411236Y395953D01*
X411593Y395810D01*
X411975Y395699D01*
X412383Y395619D01*
X412816Y395571D01*
X413275Y395555D01*
X413585Y395562D01*
G37*
G36*
X415715Y403766D02*
X415922Y403834D01*
X416117Y403918D01*
X416298Y404017D01*
X416466Y404132D01*
X416620Y404262D01*
X416760Y404409D01*
X416887Y404570D01*
X417000Y404746D01*
X417098Y404936D01*
X417181Y405138D01*
X417249Y405354D01*
X417301Y405583D01*
X417339Y405826D01*
X417361Y406082D01*
X417369Y406351D01*
X417358Y406671D01*
X417324Y406973D01*
X417268Y407257D01*
X417190Y407523D01*
X417089Y407772D01*
X416966Y408002D01*
X416820Y408214D01*
X416652Y408409D01*
X416465Y408583D01*
X416261Y408734D01*
X416040Y408861D01*
X415802Y408965D01*
X415548Y409047D01*
X415278Y409105D01*
X414991Y409139D01*
X414687Y409151D01*
X414419Y409140D01*
X414164Y409108D01*
X413922Y409054D01*
X413693Y408978D01*
X413477Y408881D01*
X413273Y408762D01*
X413083Y408621D01*
X412906Y408459D01*
X412746Y408279D01*
X412607Y408084D01*
X412490Y407874D01*
X412393Y407649D01*
X412319Y407410D01*
X412265Y407156D01*
X412233Y406887D01*
X412223Y406603D01*
X412231Y406364D01*
X412254Y406136D01*
X412294Y405917D01*
X412349Y405708D01*
X412420Y405510D01*
X412506Y405321D01*
X412609Y405142D01*
X412727Y404973D01*
X410223Y405125D01*
X410223Y408692D01*
X409367Y408692D01*
X409367Y404206D01*
X413611Y403943D01*
X413611Y404929D01*
X413469Y405105D01*
X413348Y405281D01*
X413250Y405458D01*
X413175Y405634D01*
X413118Y405814D01*
X413078Y406001D01*
X413054Y406195D01*
X413046Y406396D01*
X413053Y406587D01*
X413075Y406768D01*
X413110Y406938D01*
X413161Y407099D01*
X413225Y407250D01*
X413304Y407391D01*
X413397Y407521D01*
X413505Y407642D01*
X413624Y407750D01*
X413752Y407844D01*
X413890Y407923D01*
X414036Y407988D01*
X414191Y408039D01*
X414354Y408075D01*
X414527Y408096D01*
X414709Y408104D01*
X414918Y408097D01*
X415115Y408075D01*
X415300Y408039D01*
X415474Y407989D01*
X415637Y407924D01*
X415788Y407845D01*
X415928Y407752D01*
X416056Y407645D01*
X416171Y407524D01*
X416270Y407393D01*
X416354Y407250D01*
X416423Y407097D01*
X416477Y406933D01*
X416515Y406757D01*
X416538Y406571D01*
X416546Y406373D01*
X416528Y406059D01*
X416473Y405775D01*
X416381Y405523D01*
X416253Y405302D01*
X416089Y405113D01*
X415887Y404955D01*
X415650Y404828D01*
X415375Y404733D01*
X415493Y403713D01*
X415715Y403766D01*
G37*
G36*
X357655Y409147D02*
X358086Y409180D01*
X358489Y409235D01*
X358863Y409312D01*
X359210Y409411D01*
X359528Y409532D01*
X359818Y409676D01*
X360080Y409841D01*
X360312Y410027D01*
X360513Y410233D01*
X360684Y410459D01*
X360823Y410704D01*
X360932Y410968D01*
X361009Y411252D01*
X361056Y411556D01*
X361071Y411880D01*
X361060Y412170D01*
X361026Y412444D01*
X360969Y412702D01*
X360890Y412944D01*
X360789Y413169D01*
X360665Y413379D01*
X360518Y413572D01*
X360349Y413750D01*
X360160Y413909D01*
X359955Y414046D01*
X359733Y414163D01*
X359495Y414258D01*
X359240Y414332D01*
X358969Y414385D01*
X358681Y414417D01*
X358377Y414427D01*
X358096Y414417D01*
X357830Y414387D01*
X357578Y414337D01*
X357341Y414267D01*
X357119Y414177D01*
X356912Y414067D01*
X356719Y413937D01*
X356541Y413786D01*
X356381Y413619D01*
X356242Y413438D01*
X356124Y413242D01*
X356028Y413032D01*
X355954Y412809D01*
X355900Y412571D01*
X355868Y412319D01*
X355857Y412053D01*
X355874Y411740D01*
X355924Y411446D01*
X356007Y411169D01*
X356123Y410911D01*
X356272Y410676D01*
X356450Y410468D01*
X356659Y410289D01*
X356899Y410138D01*
X356529Y410145D01*
X356182Y410167D01*
X355858Y410204D01*
X355556Y410256D01*
X355276Y410323D01*
X355019Y410404D01*
X354784Y410500D01*
X354572Y410611D01*
X354384Y410735D01*
X354221Y410872D01*
X354083Y411021D01*
X353970Y411182D01*
X353882Y411355D01*
X353819Y411540D01*
X353781Y411737D01*
X353769Y411947D01*
X353784Y412186D01*
X353829Y412404D01*
X353904Y412599D01*
X354009Y412773D01*
X354145Y412924D01*
X354310Y413053D01*
X354506Y413161D01*
X354732Y413246D01*
X354558Y414209D01*
X354182Y414072D01*
X353855Y413894D01*
X353579Y413675D01*
X353353Y413414D01*
X353259Y413268D01*
X353177Y413112D01*
X353108Y412945D01*
X353052Y412769D01*
X353008Y412581D01*
X352976Y412384D01*
X352957Y412176D01*
X352951Y411958D01*
X352968Y411629D01*
X353020Y411319D01*
X353105Y411029D01*
X353225Y410758D01*
X353380Y410507D01*
X353568Y410275D01*
X353791Y410062D01*
X354049Y409869D01*
X354338Y409697D01*
X354657Y409548D01*
X355006Y409422D01*
X355384Y409319D01*
X355793Y409239D01*
X356231Y409181D01*
X356698Y409147D01*
X357196Y409136D01*
X357655Y409147D01*
G37*
G36*
X357287Y400861D02*
X357586Y400883D01*
X357875Y400918D01*
X358153Y400968D01*
X358420Y401033D01*
X358677Y401111D01*
X358923Y401204D01*
X359159Y401311D01*
X359382Y401431D01*
X359593Y401565D01*
X359790Y401711D01*
X359973Y401871D01*
X360144Y402043D01*
X360301Y402228D01*
X360445Y402427D01*
X360575Y402638D01*
X360692Y402861D01*
X360792Y403093D01*
X360877Y403336D01*
X360947Y403589D01*
X361001Y403852D01*
X361040Y404125D01*
X361063Y404408D01*
X361071Y404701D01*
X361063Y404988D01*
X361038Y405266D01*
X360996Y405535D01*
X360938Y405796D01*
X360863Y406047D01*
X360772Y406290D01*
X360664Y406523D01*
X360539Y406748D01*
X360398Y406963D01*
X360243Y407165D01*
X360072Y407354D01*
X359885Y407532D01*
X359684Y407697D01*
X359467Y407849D01*
X359235Y407989D01*
X358988Y408117D01*
X358551Y407244D01*
X358936Y407022D01*
X359269Y406775D01*
X359551Y406502D01*
X359782Y406204D01*
X359961Y405879D01*
X360089Y405529D01*
X360134Y405345D01*
X360166Y405153D01*
X360185Y404956D01*
X360192Y404752D01*
X360178Y404437D01*
X360137Y404138D01*
X360068Y403857D01*
X359971Y403592D01*
X359847Y403344D01*
X359696Y403112D01*
X359517Y402898D01*
X359310Y402699D01*
X359080Y402522D01*
X358833Y402367D01*
X358568Y402237D01*
X358286Y402130D01*
X357985Y402047D01*
X357667Y401988D01*
X357331Y401953D01*
X356977Y401941D01*
X356620Y401952D01*
X356283Y401986D01*
X355965Y402043D01*
X355666Y402123D01*
X355387Y402225D01*
X355128Y402350D01*
X354888Y402498D01*
X354667Y402669D01*
X354470Y402860D01*
X354299Y403069D01*
X354154Y403297D01*
X354035Y403542D01*
X353943Y403806D01*
X353877Y404088D01*
X353838Y404389D01*
X353825Y404707D01*
X353847Y405110D01*
X353916Y405485D01*
X354029Y405831D01*
X354189Y406149D01*
X354391Y406432D01*
X354634Y406673D01*
X354917Y406873D01*
X355241Y407031D01*
X354905Y408045D01*
X354671Y407938D01*
X354451Y407818D01*
X354246Y407683D01*
X354056Y407535D01*
X353880Y407373D01*
X353720Y407196D01*
X353575Y407006D01*
X353444Y406801D01*
X353328Y406584D01*
X353228Y406353D01*
X353144Y406109D01*
X353074Y405852D01*
X353020Y405583D01*
X352982Y405300D01*
X352959Y405004D01*
X352951Y404696D01*
X352968Y404257D01*
X353018Y403843D01*
X353101Y403454D01*
X353218Y403089D01*
X353369Y402748D01*
X353553Y402432D01*
X353770Y402141D01*
X354021Y401873D01*
X354301Y401635D01*
X354607Y401428D01*
X354938Y401252D01*
X355295Y401109D01*
X355677Y400998D01*
X356085Y400918D01*
X356518Y400870D01*
X356977Y400854D01*
X357287Y400861D01*
G37*
%LPC*%
G36*
X358006Y410245D02*
X357840Y410266D01*
X357683Y410300D01*
X357537Y410347D01*
X357400Y410408D01*
X357273Y410483D01*
X357155Y410571D01*
X357047Y410673D01*
X356867Y410907D01*
X356739Y411175D01*
X356694Y411321D01*
X356662Y411476D01*
X356642Y411640D01*
X356636Y411812D01*
X356643Y411995D01*
X356665Y412167D01*
X356701Y412329D01*
X356752Y412480D01*
X356817Y412621D01*
X356897Y412752D01*
X356992Y412873D01*
X357101Y412983D01*
X357223Y413081D01*
X357358Y413166D01*
X357504Y413239D01*
X357663Y413298D01*
X357835Y413344D01*
X358018Y413376D01*
X358214Y413396D01*
X358422Y413403D01*
X358631Y413396D01*
X358828Y413377D01*
X359013Y413344D01*
X359187Y413299D01*
X359350Y413241D01*
X359501Y413170D01*
X359641Y413085D01*
X359769Y412988D01*
X359884Y412880D01*
X359983Y412762D01*
X360068Y412633D01*
X360137Y412496D01*
X360190Y412348D01*
X360228Y412190D01*
X360251Y412023D01*
X360259Y411846D01*
X360250Y411673D01*
X360223Y411509D01*
X360177Y411353D01*
X360113Y411204D01*
X360032Y411063D01*
X359931Y410931D01*
X359813Y410806D01*
X359677Y410690D01*
X359526Y410584D01*
X359365Y410492D01*
X359193Y410415D01*
X359012Y410351D01*
X358820Y410302D01*
X358617Y410267D01*
X358404Y410246D01*
X358181Y410239D01*
X358006Y410245D01*
G37*
%LPD*%
G36*
X417917Y298789D02*
X420375Y298789D01*
X422425Y295513D01*
X423657Y295513D01*
X422370Y297465D01*
X421417Y298912D01*
X421636Y298958D01*
X421843Y299018D01*
X422038Y299092D01*
X422221Y299180D01*
X422321Y299239D01*
X422392Y299281D01*
X422550Y299396D01*
X422696Y299525D01*
X422831Y299668D01*
X422951Y299822D01*
X423055Y299985D01*
X423143Y300157D01*
X423215Y300337D01*
X423271Y300527D01*
X423311Y300724D01*
X423335Y300931D01*
X423343Y301147D01*
X423332Y301405D01*
X423298Y301649D01*
X423241Y301879D01*
X423162Y302094D01*
X423060Y302294D01*
X422935Y302480D01*
X422788Y302651D01*
X422618Y302807D01*
X422427Y302947D01*
X422217Y303068D01*
X421988Y303170D01*
X421741Y303254D01*
X421474Y303319D01*
X421188Y303366D01*
X420884Y303394D01*
X420560Y303403D01*
X416847Y303403D01*
X416847Y295513D01*
X417917Y295513D01*
X417917Y298789D01*
G37*
G36*
X430006Y296370D02*
X428085Y296370D01*
X428085Y303403D01*
X427155Y303403D01*
X425291Y302121D01*
X425291Y301169D01*
X427071Y302440D01*
X427071Y296370D01*
X425061Y296370D01*
X425061Y295513D01*
X430006Y295513D01*
X430006Y296370D01*
G37*
G36*
X435537Y296370D02*
X433616Y296370D01*
X433616Y303403D01*
X432687Y303403D01*
X430822Y302121D01*
X430822Y301169D01*
X432603Y302440D01*
X432603Y296370D01*
X430592Y296370D01*
X430592Y295513D01*
X435537Y295513D01*
X435537Y296370D01*
G37*
%LPC*%
G36*
X417917Y299635D02*
X417917Y302547D01*
X420453Y302547D01*
X420867Y302524D01*
X421230Y302456D01*
X421541Y302343D01*
X421677Y302270D01*
X421800Y302185D01*
X421910Y302090D01*
X422005Y301984D01*
X422085Y301868D01*
X422151Y301742D01*
X422202Y301606D01*
X422239Y301459D01*
X422261Y301302D01*
X422268Y301135D01*
X422261Y300963D01*
X422239Y300800D01*
X422203Y300646D01*
X422152Y300503D01*
X422087Y300370D01*
X422008Y300247D01*
X421914Y300133D01*
X421806Y300029D01*
X421684Y299937D01*
X421551Y299857D01*
X421405Y299789D01*
X421248Y299733D01*
X421078Y299690D01*
X420897Y299659D01*
X420704Y299641D01*
X420498Y299635D01*
X417917Y299635D01*
G37*
%LPD*%
G36*
X345847Y304635D02*
X348305Y304635D01*
X350355Y301359D01*
X351587Y301359D01*
X350300Y303311D01*
X349347Y304758D01*
X349566Y304804D01*
X349773Y304864D01*
X349968Y304938D01*
X350151Y305026D01*
X350251Y305085D01*
X350322Y305127D01*
X350480Y305242D01*
X350627Y305371D01*
X350761Y305514D01*
X350881Y305668D01*
X350985Y305831D01*
X351073Y306003D01*
X351145Y306183D01*
X351201Y306373D01*
X351241Y306570D01*
X351265Y306777D01*
X351273Y306993D01*
X351262Y307251D01*
X351228Y307495D01*
X351171Y307725D01*
X351092Y307940D01*
X350990Y308140D01*
X350865Y308326D01*
X350718Y308497D01*
X350548Y308653D01*
X350357Y308793D01*
X350147Y308914D01*
X349919Y309016D01*
X349671Y309100D01*
X349404Y309165D01*
X349118Y309212D01*
X348814Y309240D01*
X348490Y309249D01*
X344777Y309249D01*
X344777Y301359D01*
X345847Y301359D01*
X345847Y304635D01*
G37*
G36*
X364294Y302216D02*
X360178Y302216D01*
X360276Y302414D01*
X360399Y302615D01*
X360550Y302821D01*
X360727Y303031D01*
X361174Y303479D01*
X361752Y303980D01*
X362733Y304807D01*
X363082Y305127D01*
X363337Y305385D01*
X363531Y305612D01*
X363700Y305839D01*
X363843Y306066D01*
X363961Y306293D01*
X364053Y306520D01*
X364119Y306748D01*
X364158Y306976D01*
X364171Y307205D01*
X364161Y307457D01*
X364131Y307694D01*
X364081Y307916D01*
X364011Y308123D01*
X363921Y308316D01*
X363810Y308493D01*
X363680Y308656D01*
X363530Y308804D01*
X363361Y308936D01*
X363175Y309050D01*
X362971Y309147D01*
X362751Y309226D01*
X362513Y309288D01*
X362258Y309332D01*
X361985Y309358D01*
X361696Y309367D01*
X361430Y309358D01*
X361177Y309332D01*
X360937Y309288D01*
X360708Y309227D01*
X360492Y309148D01*
X360288Y309052D01*
X360097Y308938D01*
X359918Y308807D01*
X359754Y308661D01*
X359608Y308503D01*
X359481Y308333D01*
X359371Y308150D01*
X359280Y307956D01*
X359206Y307750D01*
X359151Y307531D01*
X359114Y307301D01*
X360145Y307205D01*
X360203Y307504D01*
X360304Y307767D01*
X360448Y307995D01*
X360635Y308188D01*
X360857Y308341D01*
X361109Y308451D01*
X361388Y308516D01*
X361696Y308538D01*
X362016Y308516D01*
X362299Y308449D01*
X362545Y308337D01*
X362754Y308180D01*
X362921Y307982D01*
X363040Y307749D01*
X363111Y307478D01*
X363135Y307172D01*
X363121Y306937D01*
X363080Y306715D01*
X363011Y306506D01*
X362914Y306309D01*
X362795Y306121D01*
X362658Y305937D01*
X362334Y305581D01*
X361954Y305234D01*
X361531Y304887D01*
X361083Y304525D01*
X360632Y304134D01*
X360189Y303704D01*
X359767Y303227D01*
X359569Y302966D01*
X359387Y302687D01*
X359220Y302388D01*
X359069Y302070D01*
X359069Y301359D01*
X364294Y301359D01*
X364294Y302216D01*
G37*
G36*
X357936Y302216D02*
X356015Y302216D01*
X356015Y309249D01*
X355086Y309249D01*
X353221Y307967D01*
X353221Y307015D01*
X355002Y308286D01*
X355002Y302216D01*
X352991Y302216D01*
X352991Y301359D01*
X357936Y301359D01*
X357936Y302216D01*
G37*
%LPC*%
G36*
X345847Y305481D02*
X345847Y308393D01*
X348384Y308393D01*
X348797Y308370D01*
X349160Y308302D01*
X349471Y308189D01*
X349607Y308116D01*
X349730Y308031D01*
X349840Y307936D01*
X349935Y307830D01*
X350015Y307714D01*
X350081Y307588D01*
X350132Y307452D01*
X350169Y307305D01*
X350191Y307148D01*
X350198Y306981D01*
X350191Y306809D01*
X350169Y306646D01*
X350133Y306492D01*
X350082Y306349D01*
X350017Y306216D01*
X349938Y306093D01*
X349844Y305979D01*
X349736Y305875D01*
X349614Y305783D01*
X349481Y305703D01*
X349336Y305635D01*
X349178Y305579D01*
X349009Y305536D01*
X348827Y305505D01*
X348634Y305487D01*
X348428Y305481D01*
X345847Y305481D01*
G37*
%LPD*%
G36*
X418423Y287528D02*
X420881Y287528D01*
X422931Y284252D01*
X424163Y284252D01*
X422876Y286204D01*
X421923Y287651D01*
X422142Y287697D01*
X422349Y287757D01*
X422544Y287831D01*
X422727Y287919D01*
X422827Y287978D01*
X422898Y288020D01*
X423056Y288135D01*
X423203Y288264D01*
X423337Y288407D01*
X423457Y288561D01*
X423561Y288724D01*
X423649Y288896D01*
X423721Y289076D01*
X423777Y289266D01*
X423817Y289463D01*
X423841Y289670D01*
X423849Y289886D01*
X423838Y290144D01*
X423804Y290388D01*
X423747Y290618D01*
X423668Y290833D01*
X423566Y291033D01*
X423441Y291219D01*
X423294Y291390D01*
X423124Y291546D01*
X422933Y291686D01*
X422723Y291807D01*
X422495Y291909D01*
X422247Y291993D01*
X421980Y292058D01*
X421694Y292105D01*
X421390Y292133D01*
X421066Y292142D01*
X417353Y292142D01*
X417353Y284252D01*
X418423Y284252D01*
X418423Y287528D01*
G37*
G36*
X434579Y284149D02*
X434873Y284177D01*
X435149Y284224D01*
X435406Y284290D01*
X435644Y284374D01*
X435864Y284477D01*
X436066Y284599D01*
X436249Y284739D01*
X436411Y284897D01*
X436552Y285070D01*
X436672Y285258D01*
X436769Y285462D01*
X436845Y285681D01*
X436900Y285915D01*
X436932Y286165D01*
X436943Y286430D01*
X436935Y286615D01*
X436912Y286792D01*
X436874Y286961D01*
X436820Y287122D01*
X436751Y287275D01*
X436666Y287419D01*
X436566Y287556D01*
X436450Y287685D01*
X436321Y287803D01*
X436179Y287909D01*
X436025Y288002D01*
X435859Y288082D01*
X435681Y288150D01*
X435491Y288206D01*
X435288Y288248D01*
X435073Y288278D01*
X435073Y288301D01*
X435452Y288404D01*
X435783Y288545D01*
X436066Y288724D01*
X436302Y288942D01*
X436487Y289196D01*
X436559Y289337D01*
X436619Y289486D01*
X436665Y289644D01*
X436698Y289811D01*
X436718Y289987D01*
X436725Y290171D01*
X436714Y290411D01*
X436683Y290637D01*
X436632Y290849D01*
X436560Y291048D01*
X436468Y291234D01*
X436354Y291405D01*
X436221Y291564D01*
X436067Y291708D01*
X435894Y291838D01*
X435705Y291950D01*
X435499Y292044D01*
X435276Y292122D01*
X435037Y292182D01*
X434782Y292225D01*
X434510Y292251D01*
X434221Y292260D01*
X433956Y292251D01*
X433703Y292226D01*
X433462Y292184D01*
X433234Y292124D01*
X433018Y292048D01*
X432814Y291954D01*
X432622Y291844D01*
X432443Y291717D01*
X432280Y291574D01*
X432134Y291419D01*
X432006Y291250D01*
X431897Y291067D01*
X431805Y290872D01*
X431732Y290663D01*
X431677Y290440D01*
X431640Y290205D01*
X432653Y290126D01*
X432709Y290420D01*
X432807Y290678D01*
X432948Y290901D01*
X433132Y291090D01*
X433354Y291239D01*
X433608Y291346D01*
X433893Y291410D01*
X434210Y291431D01*
X434554Y291408D01*
X434854Y291339D01*
X435107Y291225D01*
X435316Y291064D01*
X435479Y290864D01*
X435596Y290631D01*
X435665Y290365D01*
X435689Y290065D01*
X435681Y289910D01*
X435660Y289763D01*
X435624Y289625D01*
X435575Y289496D01*
X435510Y289375D01*
X435432Y289263D01*
X435232Y289065D01*
X434981Y288907D01*
X434683Y288794D01*
X434338Y288727D01*
X433947Y288704D01*
X433398Y288704D01*
X433398Y287830D01*
X433969Y287830D01*
X434410Y287808D01*
X434795Y287740D01*
X434967Y287689D01*
X435125Y287627D01*
X435269Y287554D01*
X435400Y287469D01*
X435516Y287374D01*
X435617Y287271D01*
X435702Y287159D01*
X435772Y287037D01*
X435826Y286907D01*
X435865Y286768D01*
X435888Y286621D01*
X435896Y286464D01*
X435889Y286285D01*
X435869Y286117D01*
X435835Y285961D01*
X435787Y285816D01*
X435726Y285682D01*
X435652Y285560D01*
X435564Y285449D01*
X435462Y285350D01*
X435224Y285185D01*
X434946Y285068D01*
X434627Y284998D01*
X434266Y284974D01*
X433907Y284996D01*
X433590Y285062D01*
X433313Y285171D01*
X433078Y285324D01*
X432883Y285521D01*
X432730Y285762D01*
X432618Y286046D01*
X432547Y286374D01*
X431505Y286279D01*
X431548Y286023D01*
X431609Y285782D01*
X431688Y285558D01*
X431785Y285350D01*
X431900Y285159D01*
X432033Y284983D01*
X432184Y284824D01*
X432354Y284680D01*
X432540Y284554D01*
X432741Y284444D01*
X432957Y284351D01*
X433189Y284275D01*
X433436Y284216D01*
X433697Y284174D01*
X433974Y284148D01*
X434266Y284140D01*
X434579Y284149D01*
G37*
G36*
X430512Y285109D02*
X428591Y285109D01*
X428591Y292142D01*
X427662Y292142D01*
X425797Y290860D01*
X425797Y289908D01*
X427578Y291179D01*
X427578Y285109D01*
X425567Y285109D01*
X425567Y284252D01*
X430512Y284252D01*
X430512Y285109D01*
G37*
%LPC*%
G36*
X418423Y288374D02*
X418423Y291286D01*
X420960Y291286D01*
X421373Y291263D01*
X421736Y291195D01*
X422047Y291082D01*
X422183Y291009D01*
X422306Y290924D01*
X422416Y290829D01*
X422511Y290723D01*
X422591Y290607D01*
X422657Y290481D01*
X422708Y290345D01*
X422745Y290198D01*
X422767Y290041D01*
X422774Y289874D01*
X422767Y289702D01*
X422745Y289539D01*
X422709Y289385D01*
X422658Y289242D01*
X422593Y289109D01*
X422514Y288986D01*
X422420Y288872D01*
X422312Y288768D01*
X422190Y288676D01*
X422057Y288596D01*
X421912Y288528D01*
X421754Y288472D01*
X421585Y288429D01*
X421403Y288398D01*
X421210Y288380D01*
X421004Y288374D01*
X418423Y288374D01*
G37*
%LPD*%
G36*
X150400Y252493D02*
X151508Y252493D01*
X151508Y253289D01*
X150400Y253289D01*
X150400Y258597D01*
X149341Y258597D01*
X145729Y253277D01*
X145729Y252493D01*
X149448Y252493D01*
X149448Y250707D01*
X150400Y250707D01*
X150400Y252493D01*
G37*
G36*
X135526Y250603D02*
X135804Y250628D01*
X136073Y250670D01*
X136334Y250728D01*
X136585Y250803D01*
X136828Y250894D01*
X137061Y251002D01*
X137286Y251127D01*
X137501Y251268D01*
X137703Y251423D01*
X137892Y251595D01*
X138070Y251781D01*
X138235Y251982D01*
X138387Y252199D01*
X138527Y252431D01*
X138655Y252678D01*
X137782Y253115D01*
X137560Y252730D01*
X137313Y252397D01*
X137040Y252115D01*
X136742Y251884D01*
X136417Y251705D01*
X136067Y251577D01*
X135883Y251532D01*
X135691Y251500D01*
X135494Y251481D01*
X135290Y251474D01*
X134975Y251488D01*
X134676Y251529D01*
X134395Y251598D01*
X134130Y251695D01*
X133882Y251819D01*
X133650Y251970D01*
X133436Y252149D01*
X133237Y252356D01*
X133060Y252586D01*
X132905Y252833D01*
X132775Y253098D01*
X132668Y253380D01*
X132585Y253681D01*
X132526Y253999D01*
X132491Y254335D01*
X132479Y254689D01*
X132490Y255046D01*
X132524Y255383D01*
X132581Y255701D01*
X132661Y256000D01*
X132763Y256279D01*
X132888Y256538D01*
X133036Y256778D01*
X133207Y256999D01*
X133398Y257196D01*
X133607Y257367D01*
X133835Y257512D01*
X134080Y257631D01*
X134344Y257723D01*
X134626Y257789D01*
X134927Y257828D01*
X135245Y257841D01*
X135648Y257819D01*
X136023Y257750D01*
X136369Y257637D01*
X136687Y257477D01*
X136970Y257275D01*
X137211Y257032D01*
X137411Y256749D01*
X137569Y256425D01*
X138583Y256761D01*
X138476Y256995D01*
X138356Y257215D01*
X138221Y257420D01*
X138073Y257610D01*
X137911Y257786D01*
X137734Y257946D01*
X137544Y258092D01*
X137339Y258222D01*
X137122Y258338D01*
X136891Y258438D01*
X136647Y258522D01*
X136390Y258592D01*
X136121Y258646D01*
X135838Y258684D01*
X135542Y258707D01*
X135234Y258715D01*
X134795Y258698D01*
X134381Y258648D01*
X133992Y258565D01*
X133627Y258448D01*
X133286Y258297D01*
X132970Y258113D01*
X132679Y257896D01*
X132411Y257645D01*
X132173Y257365D01*
X131966Y257059D01*
X131790Y256728D01*
X131647Y256371D01*
X131536Y255989D01*
X131456Y255581D01*
X131408Y255148D01*
X131392Y254689D01*
X131399Y254379D01*
X131421Y254080D01*
X131456Y253791D01*
X131506Y253513D01*
X131571Y253246D01*
X131649Y252989D01*
X131742Y252743D01*
X131849Y252507D01*
X131969Y252284D01*
X132103Y252073D01*
X132249Y251876D01*
X132409Y251693D01*
X132581Y251522D01*
X132766Y251365D01*
X132965Y251221D01*
X133176Y251091D01*
X133399Y250974D01*
X133631Y250874D01*
X133874Y250789D01*
X134127Y250719D01*
X134390Y250665D01*
X134663Y250626D01*
X134946Y250603D01*
X135239Y250595D01*
X135526Y250603D01*
G37*
G36*
X144909Y251564D02*
X142989Y251564D01*
X142989Y258597D01*
X142059Y258597D01*
X140194Y257315D01*
X140194Y256363D01*
X141975Y257634D01*
X141975Y251564D01*
X139965Y251564D01*
X139965Y250707D01*
X144909Y250707D01*
X144909Y251564D01*
G37*
%LPC*%
G36*
X146659Y253289D02*
X146749Y253401D01*
X147051Y253815D01*
X149073Y256794D01*
X149291Y257164D01*
X149448Y257461D01*
X149448Y253289D01*
X146659Y253289D01*
G37*
%LPD*%
G36*
X301320Y338137D02*
X301598Y338162D01*
X301867Y338204D01*
X302127Y338262D01*
X302378Y338337D01*
X302621Y338428D01*
X302855Y338536D01*
X303080Y338661D01*
X303294Y338802D01*
X303496Y338957D01*
X303686Y339129D01*
X303863Y339315D01*
X304028Y339516D01*
X304181Y339733D01*
X304321Y339965D01*
X304449Y340212D01*
X303575Y340649D01*
X303354Y340264D01*
X303107Y339931D01*
X302834Y339649D01*
X302535Y339418D01*
X302211Y339239D01*
X301861Y339111D01*
X301676Y339066D01*
X301485Y339034D01*
X301287Y339015D01*
X301083Y339008D01*
X300768Y339022D01*
X300470Y339063D01*
X300188Y339132D01*
X299923Y339229D01*
X299675Y339353D01*
X299444Y339504D01*
X299229Y339683D01*
X299031Y339890D01*
X298853Y340120D01*
X298699Y340367D01*
X298569Y340632D01*
X298462Y340914D01*
X298379Y341215D01*
X298320Y341533D01*
X298284Y341869D01*
X298272Y342223D01*
X298284Y342580D01*
X298318Y342917D01*
X298375Y343235D01*
X298454Y343534D01*
X298557Y343813D01*
X298682Y344072D01*
X298830Y344312D01*
X299000Y344533D01*
X299191Y344730D01*
X299401Y344901D01*
X299628Y345046D01*
X299874Y345165D01*
X300138Y345257D01*
X300420Y345323D01*
X300720Y345362D01*
X301039Y345375D01*
X301442Y345353D01*
X301816Y345284D01*
X302163Y345171D01*
X302481Y345011D01*
X302764Y344809D01*
X303005Y344566D01*
X303205Y344283D01*
X303363Y343959D01*
X304376Y344295D01*
X304270Y344529D01*
X304149Y344749D01*
X304015Y344954D01*
X303867Y345144D01*
X303704Y345320D01*
X303528Y345480D01*
X303337Y345626D01*
X303133Y345756D01*
X302915Y345872D01*
X302684Y345972D01*
X302440Y346056D01*
X302184Y346126D01*
X301914Y346180D01*
X301631Y346218D01*
X301336Y346241D01*
X301027Y346249D01*
X300589Y346232D01*
X300175Y346182D01*
X299785Y346099D01*
X299420Y345982D01*
X299080Y345831D01*
X298764Y345647D01*
X298472Y345430D01*
X298205Y345179D01*
X297966Y344899D01*
X297759Y344593D01*
X297584Y344262D01*
X297441Y343905D01*
X297329Y343523D01*
X297249Y343115D01*
X297202Y342682D01*
X297186Y342223D01*
X297193Y341913D01*
X297214Y341614D01*
X297250Y341325D01*
X297300Y341047D01*
X297364Y340780D01*
X297442Y340523D01*
X297535Y340277D01*
X297642Y340041D01*
X297763Y339818D01*
X297896Y339607D01*
X298043Y339410D01*
X298202Y339227D01*
X298375Y339056D01*
X298560Y338899D01*
X298758Y338755D01*
X298969Y338625D01*
X299192Y338508D01*
X299425Y338408D01*
X299668Y338323D01*
X299921Y338253D01*
X300184Y338199D01*
X300457Y338160D01*
X300740Y338137D01*
X301033Y338129D01*
X301320Y338137D01*
G37*
G36*
X314676Y338140D02*
X314979Y338174D01*
X315263Y338230D01*
X315529Y338308D01*
X315777Y338409D01*
X316008Y338532D01*
X316220Y338678D01*
X316414Y338846D01*
X316588Y339033D01*
X316739Y339237D01*
X316867Y339458D01*
X316971Y339696D01*
X317052Y339950D01*
X317110Y340220D01*
X317145Y340508D01*
X317156Y340811D01*
X317146Y341079D01*
X317113Y341334D01*
X317059Y341576D01*
X316984Y341805D01*
X316886Y342022D01*
X316767Y342225D01*
X316627Y342415D01*
X316465Y342592D01*
X316285Y342752D01*
X316089Y342891D01*
X315880Y343009D01*
X315655Y343105D01*
X315415Y343179D01*
X315161Y343233D01*
X314892Y343265D01*
X314608Y343275D01*
X314370Y343268D01*
X314141Y343244D01*
X313923Y343205D01*
X313714Y343149D01*
X313515Y343079D01*
X313326Y342992D01*
X313148Y342890D01*
X312979Y342771D01*
X313130Y345275D01*
X316697Y345275D01*
X316697Y346131D01*
X312212Y346131D01*
X311948Y341887D01*
X312934Y341887D01*
X313110Y342029D01*
X313287Y342150D01*
X313463Y342248D01*
X313640Y342323D01*
X313820Y342380D01*
X314006Y342420D01*
X314200Y342444D01*
X314401Y342452D01*
X314592Y342445D01*
X314773Y342423D01*
X314944Y342388D01*
X315105Y342337D01*
X315255Y342273D01*
X315396Y342194D01*
X315527Y342101D01*
X315647Y341993D01*
X315755Y341874D01*
X315849Y341746D01*
X315929Y341608D01*
X315994Y341462D01*
X316044Y341307D01*
X316080Y341144D01*
X316102Y340971D01*
X316109Y340789D01*
X316102Y340581D01*
X316081Y340384D01*
X316045Y340198D01*
X315994Y340024D01*
X315930Y339861D01*
X315851Y339710D01*
X315758Y339570D01*
X315650Y339442D01*
X315530Y339327D01*
X315398Y339228D01*
X315256Y339144D01*
X315103Y339075D01*
X314938Y339021D01*
X314763Y338983D01*
X314576Y338960D01*
X314379Y338952D01*
X314064Y338970D01*
X313781Y339025D01*
X313529Y339117D01*
X313308Y339245D01*
X313118Y339409D01*
X312960Y339611D01*
X312833Y339848D01*
X312738Y340123D01*
X311719Y340005D01*
X311771Y339784D01*
X311840Y339576D01*
X311923Y339381D01*
X312023Y339200D01*
X312138Y339032D01*
X312268Y338878D01*
X312414Y338738D01*
X312576Y338611D01*
X312752Y338498D01*
X312941Y338400D01*
X313144Y338317D01*
X313360Y338249D01*
X313589Y338197D01*
X313831Y338159D01*
X314087Y338137D01*
X314356Y338129D01*
X314676Y338140D01*
G37*
G36*
X310703Y339098D02*
X308782Y339098D01*
X308782Y346131D01*
X307853Y346131D01*
X305988Y344849D01*
X305988Y343897D01*
X307769Y345168D01*
X307769Y339098D01*
X305758Y339098D01*
X305758Y338241D01*
X310703Y338241D01*
X310703Y339098D01*
G37*
G36*
X100125Y280535D02*
X100434Y280584D01*
X100723Y280665D01*
X100990Y280779D01*
X101237Y280926D01*
X101463Y281105D01*
X101669Y281316D01*
X101853Y281561D01*
X102017Y281836D01*
X102158Y282140D01*
X102278Y282473D01*
X102376Y282836D01*
X102452Y283228D01*
X102507Y283649D01*
X102540Y284099D01*
X102550Y284579D01*
X102540Y285066D01*
X102509Y285523D01*
X102457Y285948D01*
X102385Y286343D01*
X102291Y286707D01*
X102177Y287040D01*
X102042Y287343D01*
X101887Y287614D01*
X101710Y287854D01*
X101509Y288063D01*
X101286Y288239D01*
X101041Y288383D01*
X100772Y288495D01*
X100480Y288575D01*
X100166Y288623D01*
X99829Y288639D01*
X99483Y288623D01*
X99160Y288576D01*
X98862Y288496D01*
X98588Y288386D01*
X98338Y288243D01*
X98112Y288069D01*
X97910Y287863D01*
X97732Y287625D01*
X97576Y287356D01*
X97441Y287055D01*
X97327Y286722D01*
X97234Y286357D01*
X97161Y285960D01*
X97110Y285532D01*
X97078Y285071D01*
X97068Y284579D01*
X97079Y284097D01*
X97111Y283644D01*
X97164Y283222D01*
X97239Y282829D01*
X97335Y282466D01*
X97452Y282132D01*
X97591Y281829D01*
X97751Y281555D01*
X97933Y281312D01*
X98135Y281102D01*
X98359Y280924D01*
X98604Y280778D01*
X98870Y280665D01*
X99157Y280584D01*
X99466Y280535D01*
X99795Y280519D01*
X100125Y280535D01*
G37*
%LPC*%
G36*
X99590Y281354D02*
X99389Y281391D01*
X99203Y281452D01*
X99032Y281537D01*
X98876Y281646D01*
X98735Y281780D01*
X98609Y281938D01*
X98499Y282121D01*
X98402Y282329D01*
X98319Y282566D01*
X98248Y282831D01*
X98190Y283124D01*
X98145Y283446D01*
X98113Y283795D01*
X98094Y284173D01*
X98087Y284579D01*
X98094Y284996D01*
X98113Y285383D01*
X98144Y285740D01*
X98189Y286066D01*
X98246Y286361D01*
X98316Y286626D01*
X98398Y286861D01*
X98493Y287065D01*
X98603Y287243D01*
X98729Y287396D01*
X98871Y287526D01*
X99030Y287632D01*
X99205Y287715D01*
X99397Y287774D01*
X99605Y287810D01*
X99829Y287821D01*
X100048Y287809D01*
X100250Y287773D01*
X100437Y287713D01*
X100608Y287630D01*
X100763Y287522D01*
X100901Y287390D01*
X101024Y287234D01*
X101131Y287054D01*
X101223Y286848D01*
X101304Y286612D01*
X101371Y286346D01*
X101427Y286052D01*
X101470Y285728D01*
X101501Y285374D01*
X101520Y284991D01*
X101526Y284579D01*
X101519Y284181D01*
X101500Y283809D01*
X101467Y283464D01*
X101422Y283145D01*
X101364Y282853D01*
X101293Y282588D01*
X101208Y282349D01*
X101111Y282137D01*
X101000Y281951D01*
X100874Y281789D01*
X100734Y281653D01*
X100578Y281541D01*
X100407Y281454D01*
X100222Y281392D01*
X100022Y281355D01*
X99807Y281342D01*
X99590Y281354D01*
G37*
%LPD*%
G36*
X86680Y280527D02*
X86958Y280552D01*
X87227Y280594D01*
X87488Y280652D01*
X87739Y280727D01*
X87982Y280818D01*
X88215Y280926D01*
X88440Y281051D01*
X88655Y281192D01*
X88857Y281347D01*
X89046Y281519D01*
X89224Y281705D01*
X89389Y281906D01*
X89541Y282123D01*
X89681Y282355D01*
X89809Y282602D01*
X88936Y283039D01*
X88714Y282654D01*
X88467Y282321D01*
X88194Y282039D01*
X87896Y281808D01*
X87571Y281629D01*
X87221Y281501D01*
X87037Y281456D01*
X86845Y281424D01*
X86648Y281405D01*
X86444Y281398D01*
X86129Y281412D01*
X85830Y281453D01*
X85549Y281522D01*
X85284Y281619D01*
X85036Y281743D01*
X84804Y281894D01*
X84590Y282073D01*
X84391Y282280D01*
X84214Y282510D01*
X84059Y282757D01*
X83929Y283022D01*
X83822Y283304D01*
X83739Y283605D01*
X83680Y283923D01*
X83645Y284259D01*
X83633Y284613D01*
X83644Y284970D01*
X83678Y285307D01*
X83735Y285625D01*
X83815Y285924D01*
X83917Y286203D01*
X84042Y286462D01*
X84190Y286702D01*
X84361Y286923D01*
X84552Y287120D01*
X84761Y287291D01*
X84989Y287436D01*
X85234Y287555D01*
X85498Y287647D01*
X85780Y287713D01*
X86081Y287752D01*
X86399Y287765D01*
X86802Y287743D01*
X87177Y287674D01*
X87523Y287561D01*
X87841Y287401D01*
X88124Y287199D01*
X88365Y286956D01*
X88565Y286673D01*
X88723Y286349D01*
X89737Y286685D01*
X89630Y286919D01*
X89510Y287139D01*
X89375Y287344D01*
X89227Y287534D01*
X89065Y287710D01*
X88888Y287870D01*
X88698Y288016D01*
X88493Y288146D01*
X88276Y288262D01*
X88045Y288362D01*
X87801Y288446D01*
X87544Y288516D01*
X87275Y288570D01*
X86992Y288608D01*
X86696Y288631D01*
X86388Y288639D01*
X85949Y288622D01*
X85535Y288572D01*
X85146Y288489D01*
X84781Y288372D01*
X84440Y288221D01*
X84124Y288037D01*
X83833Y287820D01*
X83565Y287569D01*
X83327Y287289D01*
X83120Y286983D01*
X82944Y286652D01*
X82801Y286295D01*
X82690Y285913D01*
X82610Y285505D01*
X82562Y285072D01*
X82546Y284613D01*
X82553Y284303D01*
X82575Y284004D01*
X82610Y283715D01*
X82660Y283437D01*
X82725Y283170D01*
X82803Y282913D01*
X82896Y282667D01*
X83003Y282431D01*
X83123Y282208D01*
X83257Y281997D01*
X83403Y281800D01*
X83563Y281617D01*
X83735Y281446D01*
X83920Y281289D01*
X84119Y281145D01*
X84330Y281015D01*
X84553Y280898D01*
X84785Y280798D01*
X85028Y280713D01*
X85281Y280643D01*
X85544Y280589D01*
X85817Y280550D01*
X86100Y280527D01*
X86393Y280519D01*
X86680Y280527D01*
G37*
G36*
X96063Y281488D02*
X94143Y281488D01*
X94143Y288521D01*
X93213Y288521D01*
X91348Y287239D01*
X91348Y286287D01*
X93129Y287558D01*
X93129Y281488D01*
X91119Y281488D01*
X91119Y280631D01*
X96063Y280631D01*
X96063Y281488D01*
G37*
G36*
X274460Y63397D02*
X274754Y63425D01*
X275030Y63472D01*
X275287Y63538D01*
X275526Y63622D01*
X275746Y63725D01*
X275947Y63847D01*
X276130Y63987D01*
X276293Y64145D01*
X276434Y64318D01*
X276553Y64506D01*
X276651Y64710D01*
X276727Y64929D01*
X276781Y65163D01*
X276814Y65413D01*
X276824Y65678D01*
X276817Y65863D01*
X276794Y66040D01*
X276755Y66209D01*
X276701Y66370D01*
X276632Y66523D01*
X276547Y66667D01*
X276447Y66804D01*
X276332Y66933D01*
X276202Y67051D01*
X276061Y67157D01*
X275907Y67250D01*
X275741Y67330D01*
X275562Y67398D01*
X275372Y67454D01*
X275169Y67496D01*
X274954Y67526D01*
X274954Y67549D01*
X275333Y67652D01*
X275664Y67793D01*
X275948Y67972D01*
X276183Y68190D01*
X276368Y68444D01*
X276441Y68585D01*
X276500Y68734D01*
X276547Y68892D01*
X276580Y69059D01*
X276599Y69235D01*
X276606Y69419D01*
X276596Y69659D01*
X276565Y69885D01*
X276513Y70097D01*
X276441Y70296D01*
X276349Y70482D01*
X276236Y70653D01*
X276102Y70812D01*
X275948Y70956D01*
X275775Y71086D01*
X275586Y71198D01*
X275380Y71292D01*
X275158Y71370D01*
X274919Y71430D01*
X274663Y71473D01*
X274391Y71499D01*
X274103Y71508D01*
X273837Y71499D01*
X273584Y71474D01*
X273344Y71432D01*
X273115Y71372D01*
X272899Y71296D01*
X272695Y71202D01*
X272504Y71092D01*
X272325Y70965D01*
X272161Y70822D01*
X272015Y70667D01*
X271888Y70498D01*
X271778Y70315D01*
X271687Y70120D01*
X271613Y69911D01*
X271558Y69688D01*
X271521Y69453D01*
X272535Y69374D01*
X272590Y69668D01*
X272688Y69926D01*
X272829Y70149D01*
X273014Y70338D01*
X273235Y70487D01*
X273489Y70594D01*
X273774Y70658D01*
X274092Y70679D01*
X274436Y70656D01*
X274735Y70587D01*
X274989Y70473D01*
X275198Y70312D01*
X275361Y70112D01*
X275477Y69879D01*
X275547Y69613D01*
X275570Y69313D01*
X275563Y69158D01*
X275541Y69011D01*
X275506Y68873D01*
X275456Y68744D01*
X275392Y68623D01*
X275313Y68511D01*
X275114Y68313D01*
X274862Y68155D01*
X274564Y68042D01*
X274220Y67975D01*
X273828Y67952D01*
X273280Y67952D01*
X273280Y67078D01*
X273851Y67078D01*
X274291Y67056D01*
X274676Y66988D01*
X274848Y66937D01*
X275006Y66875D01*
X275151Y66802D01*
X275282Y66717D01*
X275398Y66622D01*
X275498Y66519D01*
X275584Y66407D01*
X275653Y66285D01*
X275707Y66155D01*
X275746Y66016D01*
X275769Y65869D01*
X275777Y65712D01*
X275770Y65533D01*
X275750Y65365D01*
X275716Y65209D01*
X275669Y65064D01*
X275608Y64930D01*
X275533Y64808D01*
X275445Y64697D01*
X275343Y64598D01*
X275106Y64433D01*
X274827Y64316D01*
X274508Y64246D01*
X274148Y64222D01*
X273789Y64244D01*
X273471Y64310D01*
X273194Y64419D01*
X272959Y64572D01*
X272765Y64769D01*
X272611Y65010D01*
X272499Y65294D01*
X272428Y65622D01*
X271387Y65527D01*
X271429Y65271D01*
X271490Y65030D01*
X271569Y64806D01*
X271666Y64598D01*
X271781Y64407D01*
X271914Y64231D01*
X272066Y64072D01*
X272235Y63928D01*
X272421Y63802D01*
X272622Y63692D01*
X272839Y63599D01*
X273070Y63523D01*
X273317Y63464D01*
X273579Y63422D01*
X273856Y63396D01*
X274148Y63388D01*
X274460Y63397D01*
G37*
G36*
X268022Y63398D02*
X268271Y63429D01*
X268505Y63481D01*
X268725Y63552D01*
X268931Y63645D01*
X269122Y63758D01*
X269299Y63892D01*
X269462Y64046D01*
X269607Y64218D01*
X269734Y64406D01*
X269840Y64608D01*
X269928Y64826D01*
X269996Y65060D01*
X270044Y65309D01*
X270073Y65573D01*
X270083Y65852D01*
X270083Y71390D01*
X267502Y71390D01*
X267502Y70517D01*
X269019Y70517D01*
X269019Y65830D01*
X268998Y65466D01*
X268935Y65150D01*
X268830Y64880D01*
X268683Y64656D01*
X268500Y64481D01*
X268286Y64356D01*
X268041Y64281D01*
X267907Y64262D01*
X267765Y64256D01*
X267510Y64279D01*
X267278Y64347D01*
X267068Y64461D01*
X266880Y64620D01*
X266719Y64820D01*
X266590Y65055D01*
X266493Y65327D01*
X266426Y65634D01*
X265379Y65460D01*
X265432Y65209D01*
X265498Y64974D01*
X265577Y64756D01*
X265669Y64553D01*
X265773Y64367D01*
X265890Y64197D01*
X266019Y64044D01*
X266162Y63906D01*
X266317Y63785D01*
X266485Y63679D01*
X266665Y63590D01*
X266859Y63517D01*
X267065Y63461D01*
X267283Y63420D01*
X267515Y63396D01*
X267759Y63388D01*
X268022Y63398D01*
G37*
G36*
X187684Y65286D02*
X188792Y65286D01*
X188792Y66082D01*
X187684Y66082D01*
X187684Y71390D01*
X186625Y71390D01*
X183013Y66070D01*
X183013Y65286D01*
X186732Y65286D01*
X186732Y63500D01*
X187684Y63500D01*
X187684Y65286D01*
G37*
G36*
X179822Y63398D02*
X180071Y63429D01*
X180305Y63481D01*
X180525Y63552D01*
X180731Y63645D01*
X180922Y63758D01*
X181099Y63892D01*
X181262Y64046D01*
X181407Y64218D01*
X181534Y64406D01*
X181640Y64608D01*
X181728Y64826D01*
X181796Y65060D01*
X181844Y65309D01*
X181873Y65573D01*
X181883Y65852D01*
X181883Y71390D01*
X179302Y71390D01*
X179302Y70517D01*
X180819Y70517D01*
X180819Y65830D01*
X180798Y65466D01*
X180735Y65150D01*
X180630Y64880D01*
X180483Y64656D01*
X180300Y64481D01*
X180086Y64356D01*
X179841Y64281D01*
X179707Y64262D01*
X179565Y64256D01*
X179310Y64279D01*
X179078Y64347D01*
X178868Y64461D01*
X178680Y64620D01*
X178519Y64820D01*
X178390Y65055D01*
X178293Y65327D01*
X178226Y65634D01*
X177179Y65460D01*
X177232Y65209D01*
X177298Y64974D01*
X177377Y64756D01*
X177469Y64553D01*
X177573Y64367D01*
X177690Y64197D01*
X177819Y64044D01*
X177962Y63906D01*
X178117Y63785D01*
X178285Y63679D01*
X178465Y63590D01*
X178659Y63517D01*
X178865Y63461D01*
X179083Y63420D01*
X179315Y63396D01*
X179559Y63388D01*
X179822Y63398D01*
G37*
%LPC*%
G36*
X183943Y66082D02*
X184032Y66194D01*
X184335Y66608D01*
X186356Y69587D01*
X186575Y69957D01*
X186732Y70254D01*
X186732Y66082D01*
X183943Y66082D01*
G37*
%LPD*%
G36*
X176074Y420074D02*
X176348Y420107D01*
X176606Y420164D01*
X176848Y420243D01*
X177074Y420344D01*
X177283Y420469D01*
X177477Y420615D01*
X177654Y420785D01*
X177813Y420973D01*
X177951Y421179D01*
X178067Y421400D01*
X178163Y421639D01*
X178237Y421893D01*
X178290Y422164D01*
X178321Y422452D01*
X178332Y422756D01*
X178322Y423037D01*
X178292Y423303D01*
X178242Y423555D01*
X178172Y423792D01*
X178082Y424014D01*
X177971Y424222D01*
X177841Y424414D01*
X177691Y424593D01*
X177523Y424753D01*
X177342Y424892D01*
X177147Y425009D01*
X176937Y425105D01*
X176713Y425180D01*
X176475Y425233D01*
X176224Y425265D01*
X175958Y425276D01*
X175645Y425259D01*
X175350Y425209D01*
X175074Y425126D01*
X174815Y425010D01*
X174580Y424862D01*
X174373Y424683D01*
X174194Y424474D01*
X174042Y424234D01*
X174050Y424604D01*
X174072Y424951D01*
X174109Y425275D01*
X174161Y425578D01*
X174227Y425857D01*
X174309Y426114D01*
X174405Y426349D01*
X174516Y426561D01*
X174640Y426749D01*
X174777Y426913D01*
X174925Y427051D01*
X175086Y427164D01*
X175259Y427252D01*
X175444Y427314D01*
X175642Y427352D01*
X175851Y427365D01*
X176091Y427350D01*
X176308Y427304D01*
X176504Y427229D01*
X176677Y427124D01*
X176829Y426988D01*
X176958Y426823D01*
X177065Y426627D01*
X177150Y426401D01*
X178114Y426575D01*
X177977Y426952D01*
X177799Y427278D01*
X177579Y427554D01*
X177318Y427780D01*
X177173Y427875D01*
X177016Y427956D01*
X176850Y428025D01*
X176673Y428082D01*
X176486Y428126D01*
X176288Y428157D01*
X176081Y428176D01*
X175862Y428182D01*
X175533Y428165D01*
X175224Y428114D01*
X174933Y428028D01*
X174663Y427908D01*
X174411Y427753D01*
X174179Y427565D01*
X173967Y427342D01*
X173774Y427085D01*
X173602Y426795D01*
X173453Y426476D01*
X173327Y426128D01*
X173223Y425749D01*
X173143Y425341D01*
X173086Y424903D01*
X173051Y424435D01*
X173040Y423937D01*
X173051Y423478D01*
X173084Y423047D01*
X173139Y422645D01*
X173216Y422270D01*
X173316Y421924D01*
X173437Y421605D01*
X173580Y421315D01*
X173746Y421053D01*
X173932Y420821D01*
X174138Y420620D01*
X174363Y420449D01*
X174608Y420310D01*
X174873Y420202D01*
X175157Y420124D01*
X175461Y420078D01*
X175784Y420062D01*
X176074Y420074D01*
G37*
G36*
X162518Y420071D02*
X162796Y420096D01*
X163065Y420137D01*
X163325Y420195D01*
X163576Y420270D01*
X163819Y420361D01*
X164053Y420470D01*
X164278Y420594D01*
X164492Y420735D01*
X164694Y420891D01*
X164884Y421062D01*
X165061Y421248D01*
X165226Y421450D01*
X165379Y421666D01*
X165519Y421898D01*
X165647Y422145D01*
X164773Y422582D01*
X164552Y422198D01*
X164305Y421864D01*
X164032Y421582D01*
X163733Y421352D01*
X163409Y421172D01*
X163059Y421044D01*
X162874Y420999D01*
X162683Y420967D01*
X162485Y420948D01*
X162281Y420941D01*
X161966Y420955D01*
X161668Y420997D01*
X161386Y421065D01*
X161121Y421162D01*
X160873Y421286D01*
X160642Y421438D01*
X160427Y421617D01*
X160229Y421823D01*
X160051Y422053D01*
X159897Y422300D01*
X159767Y422565D01*
X159660Y422848D01*
X159577Y423148D01*
X159518Y423466D01*
X159482Y423802D01*
X159470Y424156D01*
X159482Y424513D01*
X159516Y424850D01*
X159573Y425168D01*
X159652Y425467D01*
X159755Y425746D01*
X159880Y426005D01*
X160028Y426245D01*
X160198Y426466D01*
X160389Y426663D01*
X160599Y426835D01*
X160826Y426979D01*
X161072Y427098D01*
X161336Y427190D01*
X161618Y427256D01*
X161918Y427295D01*
X162237Y427309D01*
X162640Y427286D01*
X163014Y427218D01*
X163361Y427104D01*
X163679Y426945D01*
X163962Y426742D01*
X164203Y426499D01*
X164403Y426216D01*
X164561Y425892D01*
X165574Y426228D01*
X165468Y426463D01*
X165347Y426682D01*
X165213Y426887D01*
X165065Y427078D01*
X164902Y427253D01*
X164726Y427413D01*
X164535Y427559D01*
X164331Y427689D01*
X164113Y427805D01*
X163882Y427905D01*
X163638Y427990D01*
X163382Y428059D01*
X163112Y428113D01*
X162829Y428151D01*
X162534Y428175D01*
X162225Y428182D01*
X161787Y428166D01*
X161373Y428115D01*
X160983Y428032D01*
X160618Y427915D01*
X160278Y427764D01*
X159962Y427581D01*
X159670Y427363D01*
X159403Y427113D01*
X159164Y426832D01*
X158957Y426527D01*
X158782Y426195D01*
X158639Y425839D01*
X158527Y425456D01*
X158447Y425048D01*
X158400Y424615D01*
X158384Y424156D01*
X158391Y423846D01*
X158412Y423547D01*
X158448Y423258D01*
X158498Y422981D01*
X158562Y422713D01*
X158640Y422456D01*
X158733Y422210D01*
X158840Y421975D01*
X158961Y421751D01*
X159094Y421541D01*
X159241Y421344D01*
X159400Y421160D01*
X159573Y420989D01*
X159758Y420832D01*
X159956Y420688D01*
X160167Y420558D01*
X160390Y420442D01*
X160623Y420341D01*
X160866Y420256D01*
X161119Y420186D01*
X161382Y420132D01*
X161655Y420093D01*
X161938Y420070D01*
X162231Y420062D01*
X162518Y420071D01*
G37*
G36*
X171901Y421031D02*
X169980Y421031D01*
X169980Y428065D01*
X169051Y428065D01*
X167186Y426782D01*
X167186Y425830D01*
X168967Y427101D01*
X168967Y421031D01*
X166956Y421031D01*
X166956Y420174D01*
X171901Y420174D01*
X171901Y421031D01*
G37*
%LPC*%
G36*
X175578Y420883D02*
X175414Y420911D01*
X175257Y420956D01*
X175109Y421020D01*
X174968Y421102D01*
X174835Y421202D01*
X174711Y421320D01*
X174594Y421457D01*
X174488Y421607D01*
X174397Y421768D01*
X174319Y421940D01*
X174256Y422122D01*
X174207Y422314D01*
X174171Y422516D01*
X174150Y422729D01*
X174143Y422952D01*
X174150Y423128D01*
X174170Y423294D01*
X174204Y423450D01*
X174252Y423597D01*
X174313Y423733D01*
X174387Y423861D01*
X174475Y423978D01*
X174577Y424086D01*
X174811Y424266D01*
X175079Y424395D01*
X175226Y424440D01*
X175381Y424472D01*
X175545Y424491D01*
X175717Y424497D01*
X175899Y424490D01*
X176071Y424468D01*
X176233Y424432D01*
X176385Y424381D01*
X176526Y424316D01*
X176657Y424236D01*
X176777Y424142D01*
X176887Y424033D01*
X176986Y423910D01*
X177071Y423776D01*
X177143Y423629D01*
X177202Y423470D01*
X177248Y423299D01*
X177281Y423115D01*
X177301Y422919D01*
X177307Y422711D01*
X177301Y422503D01*
X177281Y422306D01*
X177249Y422120D01*
X177204Y421946D01*
X177145Y421783D01*
X177074Y421632D01*
X176990Y421492D01*
X176893Y421364D01*
X176784Y421249D01*
X176666Y421150D01*
X176538Y421066D01*
X176400Y420997D01*
X176252Y420943D01*
X176095Y420905D01*
X175928Y420882D01*
X175750Y420874D01*
X175578Y420883D01*
G37*
%LPD*%
G36*
X13805Y63399D02*
X14107Y63433D01*
X14391Y63489D01*
X14657Y63567D01*
X14906Y63668D01*
X15136Y63791D01*
X15348Y63937D01*
X15543Y64105D01*
X15717Y64292D01*
X15867Y64496D01*
X15995Y64717D01*
X16099Y64955D01*
X16180Y65209D01*
X16238Y65479D01*
X16273Y65767D01*
X16285Y66070D01*
X16274Y66338D01*
X16242Y66593D01*
X16188Y66835D01*
X16112Y67064D01*
X16015Y67281D01*
X15896Y67484D01*
X15755Y67674D01*
X15593Y67851D01*
X15413Y68011D01*
X15218Y68150D01*
X15008Y68268D01*
X14783Y68364D01*
X14544Y68438D01*
X14290Y68492D01*
X14021Y68524D01*
X13737Y68534D01*
X13498Y68527D01*
X13270Y68503D01*
X13051Y68464D01*
X12842Y68408D01*
X12643Y68338D01*
X12455Y68251D01*
X12276Y68149D01*
X12107Y68030D01*
X12258Y70534D01*
X15826Y70534D01*
X15826Y71390D01*
X11340Y71390D01*
X11077Y67146D01*
X12062Y67146D01*
X12239Y67288D01*
X12415Y67409D01*
X12592Y67507D01*
X12768Y67582D01*
X12948Y67639D01*
X13135Y67679D01*
X13329Y67703D01*
X13530Y67711D01*
X13721Y67704D01*
X13901Y67682D01*
X14072Y67647D01*
X14233Y67596D01*
X14384Y67532D01*
X14524Y67453D01*
X14655Y67360D01*
X14776Y67252D01*
X14884Y67133D01*
X14978Y67005D01*
X15057Y66867D01*
X15122Y66721D01*
X15173Y66566D01*
X15209Y66403D01*
X15230Y66230D01*
X15238Y66048D01*
X15230Y65840D01*
X15209Y65643D01*
X15173Y65457D01*
X15123Y65283D01*
X15058Y65120D01*
X14979Y64969D01*
X14886Y64829D01*
X14778Y64701D01*
X14658Y64586D01*
X14527Y64487D01*
X14384Y64403D01*
X14231Y64334D01*
X14067Y64280D01*
X13891Y64242D01*
X13705Y64219D01*
X13507Y64211D01*
X13192Y64229D01*
X12909Y64284D01*
X12657Y64376D01*
X12436Y64504D01*
X12247Y64668D01*
X12089Y64870D01*
X11962Y65107D01*
X11866Y65382D01*
X10847Y65264D01*
X10900Y65043D01*
X10968Y64835D01*
X11052Y64640D01*
X11151Y64459D01*
X11266Y64291D01*
X11396Y64137D01*
X11542Y63997D01*
X11704Y63870D01*
X11880Y63757D01*
X12069Y63659D01*
X12272Y63576D01*
X12488Y63508D01*
X12717Y63456D01*
X12960Y63418D01*
X13216Y63396D01*
X13485Y63388D01*
X13805Y63399D01*
G37*
G36*
X7460Y63398D02*
X7709Y63429D01*
X7943Y63481D01*
X8163Y63552D01*
X8369Y63645D01*
X8560Y63758D01*
X8737Y63892D01*
X8900Y64046D01*
X9045Y64218D01*
X9172Y64406D01*
X9278Y64608D01*
X9366Y64826D01*
X9434Y65060D01*
X9482Y65309D01*
X9511Y65573D01*
X9521Y65852D01*
X9521Y71390D01*
X6940Y71390D01*
X6940Y70517D01*
X8457Y70517D01*
X8457Y65830D01*
X8436Y65466D01*
X8373Y65150D01*
X8268Y64880D01*
X8121Y64656D01*
X7938Y64481D01*
X7724Y64356D01*
X7479Y64281D01*
X7345Y64262D01*
X7203Y64256D01*
X6948Y64279D01*
X6716Y64347D01*
X6506Y64461D01*
X6318Y64620D01*
X6157Y64820D01*
X6028Y65055D01*
X5931Y65327D01*
X5864Y65634D01*
X4817Y65460D01*
X4870Y65209D01*
X4936Y64974D01*
X5015Y64756D01*
X5107Y64553D01*
X5211Y64367D01*
X5328Y64197D01*
X5457Y64044D01*
X5600Y63906D01*
X5755Y63785D01*
X5923Y63679D01*
X6103Y63590D01*
X6297Y63517D01*
X6503Y63461D01*
X6721Y63420D01*
X6953Y63396D01*
X7197Y63388D01*
X7460Y63398D01*
G37*
G36*
X101567Y62399D02*
X101841Y62433D01*
X102099Y62490D01*
X102340Y62569D01*
X102566Y62670D01*
X102776Y62794D01*
X102969Y62941D01*
X103147Y63110D01*
X103306Y63299D01*
X103443Y63504D01*
X103560Y63726D01*
X103655Y63964D01*
X103729Y64219D01*
X103782Y64490D01*
X103814Y64778D01*
X103824Y65082D01*
X103814Y65363D01*
X103784Y65629D01*
X103734Y65881D01*
X103664Y66118D01*
X103574Y66340D01*
X103464Y66547D01*
X103333Y66740D01*
X103183Y66918D01*
X103016Y67079D01*
X102834Y67217D01*
X102639Y67335D01*
X102429Y67431D01*
X102206Y67506D01*
X101968Y67559D01*
X101716Y67591D01*
X101450Y67602D01*
X101137Y67585D01*
X100842Y67535D01*
X100566Y67452D01*
X100308Y67336D01*
X100072Y67187D01*
X99865Y67009D01*
X99686Y66800D01*
X99535Y66560D01*
X99542Y66930D01*
X99564Y67277D01*
X99601Y67601D01*
X99653Y67903D01*
X99720Y68183D01*
X99801Y68440D01*
X99897Y68675D01*
X100008Y68887D01*
X100132Y69075D01*
X100269Y69238D01*
X100418Y69376D01*
X100578Y69489D01*
X100752Y69577D01*
X100937Y69640D01*
X101134Y69678D01*
X101344Y69690D01*
X101583Y69675D01*
X101801Y69630D01*
X101996Y69555D01*
X102170Y69450D01*
X102321Y69314D01*
X102450Y69149D01*
X102558Y68953D01*
X102643Y68727D01*
X103606Y68901D01*
X103469Y69277D01*
X103291Y69604D01*
X103072Y69880D01*
X102811Y70106D01*
X102665Y70200D01*
X102509Y70282D01*
X102342Y70351D01*
X102165Y70408D01*
X101978Y70451D01*
X101781Y70483D01*
X101573Y70502D01*
X101355Y70508D01*
X101026Y70491D01*
X100716Y70439D01*
X100426Y70354D01*
X100155Y70234D01*
X99904Y70079D01*
X99672Y69891D01*
X99459Y69668D01*
X99266Y69410D01*
X99094Y69121D01*
X98945Y68802D01*
X98819Y68453D01*
X98716Y68075D01*
X98636Y67667D01*
X98578Y67228D01*
X98544Y66761D01*
X98532Y66263D01*
X98543Y65804D01*
X98576Y65373D01*
X98632Y64970D01*
X98709Y64596D01*
X98808Y64249D01*
X98929Y63931D01*
X99073Y63641D01*
X99238Y63379D01*
X99424Y63147D01*
X99630Y62946D01*
X99855Y62775D01*
X100100Y62636D01*
X100365Y62527D01*
X100649Y62450D01*
X100953Y62404D01*
X101276Y62388D01*
X101567Y62399D01*
G37*
G36*
X95022Y62398D02*
X95271Y62429D01*
X95505Y62481D01*
X95725Y62552D01*
X95931Y62645D01*
X96122Y62758D01*
X96299Y62892D01*
X96462Y63046D01*
X96607Y63218D01*
X96734Y63406D01*
X96840Y63608D01*
X96928Y63826D01*
X96996Y64060D01*
X97044Y64309D01*
X97073Y64573D01*
X97083Y64852D01*
X97083Y70390D01*
X94502Y70390D01*
X94502Y69517D01*
X96019Y69517D01*
X96019Y64830D01*
X95998Y64466D01*
X95935Y64150D01*
X95830Y63880D01*
X95683Y63656D01*
X95500Y63481D01*
X95286Y63356D01*
X95041Y63281D01*
X94907Y63262D01*
X94765Y63256D01*
X94510Y63279D01*
X94278Y63347D01*
X94068Y63461D01*
X93880Y63620D01*
X93719Y63820D01*
X93590Y64055D01*
X93493Y64327D01*
X93426Y64634D01*
X92379Y64460D01*
X92432Y64209D01*
X92498Y63974D01*
X92577Y63756D01*
X92669Y63553D01*
X92773Y63367D01*
X92890Y63197D01*
X93019Y63044D01*
X93162Y62906D01*
X93317Y62785D01*
X93485Y62679D01*
X93665Y62590D01*
X93859Y62517D01*
X94065Y62461D01*
X94283Y62420D01*
X94515Y62396D01*
X94759Y62388D01*
X95022Y62398D01*
G37*
%LPC*%
G36*
X101070Y63209D02*
X100906Y63236D01*
X100749Y63282D01*
X100601Y63346D01*
X100460Y63427D01*
X100328Y63528D01*
X100203Y63646D01*
X100086Y63782D01*
X99981Y63933D01*
X99889Y64094D01*
X99812Y64266D01*
X99748Y64447D01*
X99699Y64639D01*
X99664Y64842D01*
X99643Y65055D01*
X99636Y65278D01*
X99642Y65453D01*
X99663Y65619D01*
X99697Y65776D01*
X99744Y65922D01*
X99805Y66059D01*
X99880Y66186D01*
X99968Y66304D01*
X100070Y66412D01*
X100304Y66592D01*
X100571Y66720D01*
X100718Y66765D01*
X100873Y66797D01*
X101037Y66817D01*
X101209Y66823D01*
X101392Y66816D01*
X101564Y66794D01*
X101726Y66758D01*
X101877Y66707D01*
X102018Y66642D01*
X102149Y66562D01*
X102269Y66467D01*
X102380Y66358D01*
X102478Y66236D01*
X102563Y66101D01*
X102636Y65955D01*
X102695Y65796D01*
X102741Y65624D01*
X102773Y65441D01*
X102793Y65245D01*
X102800Y65037D01*
X102793Y64828D01*
X102774Y64631D01*
X102741Y64446D01*
X102696Y64272D01*
X102638Y64109D01*
X102566Y63958D01*
X102482Y63818D01*
X102385Y63690D01*
X102277Y63575D01*
X102158Y63476D01*
X102030Y63391D01*
X101892Y63322D01*
X101745Y63269D01*
X101587Y63231D01*
X101420Y63208D01*
X101243Y63200D01*
X101070Y63209D01*
G37*
%LPD*%
G36*
X243582Y188032D02*
X243860Y188057D01*
X244129Y188099D01*
X244389Y188157D01*
X244641Y188232D01*
X244883Y188323D01*
X245117Y188431D01*
X245342Y188556D01*
X245556Y188697D01*
X245758Y188852D01*
X245948Y189024D01*
X246125Y189210D01*
X246290Y189411D01*
X246443Y189628D01*
X246583Y189860D01*
X246711Y190107D01*
X245838Y190544D01*
X245616Y190159D01*
X245369Y189826D01*
X245096Y189544D01*
X244797Y189313D01*
X244473Y189134D01*
X244123Y189006D01*
X243938Y188961D01*
X243747Y188929D01*
X243550Y188910D01*
X243346Y188903D01*
X243031Y188917D01*
X242732Y188958D01*
X242451Y189027D01*
X242186Y189124D01*
X241938Y189248D01*
X241706Y189399D01*
X241491Y189578D01*
X241293Y189785D01*
X241115Y190015D01*
X240961Y190262D01*
X240831Y190527D01*
X240724Y190809D01*
X240641Y191110D01*
X240582Y191428D01*
X240546Y191764D01*
X240534Y192118D01*
X240546Y192475D01*
X240580Y192812D01*
X240637Y193130D01*
X240716Y193429D01*
X240819Y193708D01*
X240944Y193967D01*
X241092Y194207D01*
X241262Y194428D01*
X241454Y194625D01*
X241663Y194796D01*
X241890Y194941D01*
X242136Y195060D01*
X242400Y195152D01*
X242682Y195218D01*
X242982Y195257D01*
X243301Y195270D01*
X243704Y195248D01*
X244079Y195179D01*
X244425Y195066D01*
X244743Y194906D01*
X245026Y194704D01*
X245267Y194461D01*
X245467Y194178D01*
X245625Y193854D01*
X246638Y194190D01*
X246532Y194424D01*
X246412Y194644D01*
X246277Y194849D01*
X246129Y195039D01*
X245966Y195215D01*
X245790Y195375D01*
X245600Y195521D01*
X245395Y195651D01*
X245177Y195767D01*
X244946Y195867D01*
X244703Y195951D01*
X244446Y196021D01*
X244176Y196075D01*
X243894Y196113D01*
X243598Y196136D01*
X243290Y196144D01*
X242851Y196127D01*
X242437Y196077D01*
X242047Y195994D01*
X241682Y195877D01*
X241342Y195726D01*
X241026Y195542D01*
X240734Y195325D01*
X240467Y195074D01*
X240228Y194794D01*
X240021Y194488D01*
X239846Y194157D01*
X239703Y193800D01*
X239591Y193418D01*
X239512Y193010D01*
X239464Y192577D01*
X239448Y192118D01*
X239455Y191808D01*
X239477Y191509D01*
X239512Y191220D01*
X239562Y190942D01*
X239626Y190675D01*
X239705Y190418D01*
X239797Y190172D01*
X239904Y189936D01*
X240025Y189713D01*
X240159Y189502D01*
X240305Y189305D01*
X240464Y189122D01*
X240637Y188951D01*
X240822Y188794D01*
X241020Y188650D01*
X241232Y188520D01*
X241454Y188403D01*
X241687Y188303D01*
X241930Y188218D01*
X242183Y188148D01*
X242446Y188094D01*
X242719Y188055D01*
X243002Y188032D01*
X243295Y188024D01*
X243582Y188032D01*
G37*
G36*
X252948Y188993D02*
X248832Y188993D01*
X248930Y189191D01*
X249054Y189392D01*
X249204Y189598D01*
X249381Y189808D01*
X249828Y190256D01*
X250406Y190757D01*
X251387Y191584D01*
X251736Y191904D01*
X251991Y192162D01*
X252185Y192389D01*
X252354Y192616D01*
X252497Y192843D01*
X252615Y193070D01*
X252707Y193297D01*
X252773Y193525D01*
X252812Y193753D01*
X252825Y193982D01*
X252815Y194234D01*
X252785Y194471D01*
X252735Y194693D01*
X252665Y194900D01*
X252575Y195093D01*
X252465Y195270D01*
X252334Y195433D01*
X252184Y195581D01*
X252015Y195713D01*
X251829Y195827D01*
X251626Y195924D01*
X251405Y196003D01*
X251167Y196065D01*
X250912Y196109D01*
X250640Y196135D01*
X250350Y196144D01*
X250085Y196135D01*
X249832Y196109D01*
X249591Y196065D01*
X249362Y196004D01*
X249146Y195925D01*
X248943Y195829D01*
X248751Y195715D01*
X248572Y195584D01*
X248408Y195438D01*
X248262Y195280D01*
X248135Y195110D01*
X248025Y194927D01*
X247934Y194733D01*
X247861Y194527D01*
X247806Y194308D01*
X247768Y194078D01*
X248799Y193982D01*
X248857Y194281D01*
X248958Y194544D01*
X249102Y194772D01*
X249289Y194965D01*
X249512Y195118D01*
X249763Y195228D01*
X250042Y195293D01*
X250350Y195315D01*
X250670Y195293D01*
X250953Y195226D01*
X251200Y195114D01*
X251408Y194957D01*
X251575Y194759D01*
X251694Y194526D01*
X251765Y194255D01*
X251789Y193949D01*
X251775Y193714D01*
X251734Y193492D01*
X251665Y193283D01*
X251568Y193086D01*
X251449Y192898D01*
X251313Y192714D01*
X250988Y192358D01*
X250608Y192011D01*
X250185Y191664D01*
X249738Y191302D01*
X249286Y190911D01*
X248843Y190481D01*
X248421Y190004D01*
X248223Y189743D01*
X248041Y189464D01*
X247874Y189165D01*
X247724Y188847D01*
X247724Y188136D01*
X252948Y188136D01*
X252948Y188993D01*
G37*
G36*
X237806Y196026D02*
X236737Y196026D01*
X236737Y188136D01*
X237806Y188136D01*
X237806Y196026D01*
G37*
G36*
X193001Y191137D02*
X193279Y191162D01*
X193548Y191204D01*
X193808Y191262D01*
X194059Y191337D01*
X194302Y191428D01*
X194536Y191536D01*
X194761Y191661D01*
X194975Y191802D01*
X195177Y191957D01*
X195367Y192129D01*
X195544Y192315D01*
X195709Y192516D01*
X195862Y192733D01*
X196002Y192965D01*
X196130Y193212D01*
X195256Y193649D01*
X195035Y193264D01*
X194788Y192931D01*
X194515Y192649D01*
X194216Y192418D01*
X193892Y192239D01*
X193542Y192111D01*
X193357Y192066D01*
X193166Y192034D01*
X192968Y192015D01*
X192764Y192008D01*
X192449Y192022D01*
X192151Y192063D01*
X191869Y192132D01*
X191604Y192229D01*
X191356Y192353D01*
X191125Y192504D01*
X190910Y192683D01*
X190712Y192890D01*
X190534Y193120D01*
X190380Y193367D01*
X190250Y193632D01*
X190143Y193914D01*
X190060Y194215D01*
X190001Y194533D01*
X189965Y194869D01*
X189953Y195223D01*
X189965Y195580D01*
X189999Y195917D01*
X190056Y196235D01*
X190135Y196534D01*
X190238Y196813D01*
X190363Y197072D01*
X190511Y197312D01*
X190681Y197533D01*
X190872Y197730D01*
X191082Y197901D01*
X191309Y198046D01*
X191555Y198165D01*
X191819Y198257D01*
X192101Y198323D01*
X192401Y198362D01*
X192720Y198375D01*
X193123Y198353D01*
X193497Y198284D01*
X193844Y198171D01*
X194162Y198011D01*
X194445Y197809D01*
X194686Y197566D01*
X194886Y197283D01*
X195044Y196959D01*
X196057Y197295D01*
X195951Y197529D01*
X195830Y197749D01*
X195696Y197954D01*
X195548Y198144D01*
X195385Y198320D01*
X195209Y198480D01*
X195018Y198626D01*
X194814Y198756D01*
X194596Y198872D01*
X194365Y198972D01*
X194121Y199056D01*
X193865Y199126D01*
X193595Y199180D01*
X193312Y199218D01*
X193017Y199241D01*
X192708Y199249D01*
X192270Y199232D01*
X191856Y199182D01*
X191466Y199099D01*
X191101Y198982D01*
X190761Y198831D01*
X190445Y198647D01*
X190153Y198430D01*
X189886Y198179D01*
X189647Y197899D01*
X189440Y197593D01*
X189265Y197262D01*
X189122Y196905D01*
X189010Y196523D01*
X188930Y196115D01*
X188883Y195682D01*
X188867Y195223D01*
X188874Y194913D01*
X188895Y194614D01*
X188931Y194325D01*
X188981Y194047D01*
X189045Y193780D01*
X189123Y193523D01*
X189216Y193277D01*
X189323Y193041D01*
X189444Y192818D01*
X189577Y192607D01*
X189724Y192410D01*
X189883Y192227D01*
X190056Y192056D01*
X190241Y191899D01*
X190439Y191755D01*
X190650Y191625D01*
X190873Y191508D01*
X191106Y191408D01*
X191349Y191323D01*
X191602Y191253D01*
X191865Y191199D01*
X192138Y191160D01*
X192421Y191137D01*
X192714Y191129D01*
X193001Y191137D01*
G37*
G36*
X202384Y192098D02*
X200463Y192098D01*
X200463Y199131D01*
X199534Y199131D01*
X197669Y197849D01*
X197669Y196897D01*
X199450Y198168D01*
X199450Y192098D01*
X197439Y192098D01*
X197439Y191241D01*
X202384Y191241D01*
X202384Y192098D01*
G37*
G36*
X206053Y191782D02*
X206100Y192315D01*
X206178Y192838D01*
X206287Y193352D01*
X206427Y193864D01*
X206598Y194378D01*
X206801Y194897D01*
X207034Y195419D01*
X207328Y195992D01*
X207710Y196666D01*
X208182Y197440D01*
X208742Y198314D01*
X208742Y199131D01*
X203529Y199131D01*
X203529Y198275D01*
X207768Y198275D01*
X207071Y197217D01*
X206482Y196223D01*
X206228Y195750D01*
X206000Y195292D01*
X205800Y194850D01*
X205626Y194425D01*
X205476Y194009D01*
X205345Y193599D01*
X205235Y193193D01*
X205145Y192793D01*
X205075Y192397D01*
X205025Y192007D01*
X204995Y191621D01*
X204985Y191241D01*
X206037Y191241D01*
X206053Y191782D01*
G37*
G36*
X293048Y193529D02*
X293344Y193557D01*
X293622Y193605D01*
X293881Y193672D01*
X294120Y193757D01*
X294341Y193862D01*
X294543Y193986D01*
X294726Y194129D01*
X294889Y194290D01*
X295030Y194465D01*
X295149Y194655D01*
X295247Y194860D01*
X295323Y195081D01*
X295377Y195316D01*
X295410Y195566D01*
X295421Y195832D01*
X295414Y196022D01*
X295394Y196205D01*
X295362Y196379D01*
X295316Y196545D01*
X295184Y196853D01*
X295001Y197128D01*
X294980Y197149D01*
X294770Y197363D01*
X294497Y197547D01*
X294344Y197621D01*
X294182Y197683D01*
X294008Y197732D01*
X293825Y197769D01*
X293825Y197792D01*
X294132Y197880D01*
X294406Y198014D01*
X294633Y198187D01*
X294645Y198196D01*
X294849Y198425D01*
X295014Y198687D01*
X295131Y198972D01*
X295201Y199278D01*
X295225Y199606D01*
X295214Y199834D01*
X295182Y200050D01*
X295130Y200253D01*
X295056Y200445D01*
X294961Y200624D01*
X294845Y200792D01*
X294708Y200947D01*
X294550Y201090D01*
X294373Y201219D01*
X294182Y201330D01*
X293975Y201425D01*
X293753Y201502D01*
X293515Y201562D01*
X293262Y201605D01*
X292994Y201630D01*
X292710Y201639D01*
X292433Y201630D01*
X292171Y201604D01*
X291923Y201560D01*
X291689Y201499D01*
X291470Y201420D01*
X291265Y201324D01*
X291075Y201210D01*
X290899Y201079D01*
X290740Y200934D01*
X290603Y200778D01*
X290487Y200611D01*
X290393Y200434D01*
X290319Y200246D01*
X290266Y200047D01*
X290234Y199837D01*
X290224Y199617D01*
X290247Y199289D01*
X290317Y198983D01*
X290433Y198699D01*
X290596Y198436D01*
X290799Y198206D01*
X291037Y198020D01*
X291308Y197878D01*
X291613Y197781D01*
X291613Y197758D01*
X291444Y197724D01*
X291284Y197676D01*
X290985Y197543D01*
X290718Y197357D01*
X290481Y197120D01*
X290288Y196841D01*
X290212Y196690D01*
X290150Y196532D01*
X290101Y196366D01*
X290067Y196192D01*
X290046Y196010D01*
X290039Y195821D01*
X290050Y195553D01*
X290084Y195300D01*
X290139Y195064D01*
X290218Y194843D01*
X290318Y194638D01*
X290441Y194449D01*
X290586Y194276D01*
X290753Y194118D01*
X290940Y193978D01*
X291144Y193856D01*
X291366Y193753D01*
X291605Y193669D01*
X291861Y193603D01*
X292134Y193556D01*
X292425Y193528D01*
X292733Y193519D01*
X293048Y193529D01*
G37*
G36*
X279601Y193527D02*
X279879Y193552D01*
X280148Y193594D01*
X280408Y193652D01*
X280659Y193727D01*
X280902Y193818D01*
X281136Y193926D01*
X281361Y194051D01*
X281575Y194192D01*
X281777Y194347D01*
X281967Y194519D01*
X282144Y194705D01*
X282309Y194906D01*
X282462Y195123D01*
X282602Y195355D01*
X282730Y195602D01*
X281856Y196039D01*
X281635Y195654D01*
X281388Y195321D01*
X281115Y195039D01*
X280816Y194808D01*
X280492Y194629D01*
X280142Y194501D01*
X279957Y194456D01*
X279766Y194424D01*
X279568Y194405D01*
X279364Y194398D01*
X279049Y194412D01*
X278751Y194453D01*
X278469Y194522D01*
X278204Y194619D01*
X277956Y194743D01*
X277725Y194894D01*
X277510Y195073D01*
X277312Y195280D01*
X277134Y195510D01*
X276980Y195757D01*
X276850Y196022D01*
X276743Y196304D01*
X276660Y196605D01*
X276601Y196923D01*
X276565Y197259D01*
X276553Y197613D01*
X276565Y197970D01*
X276599Y198307D01*
X276656Y198625D01*
X276735Y198924D01*
X276838Y199203D01*
X276963Y199462D01*
X277111Y199702D01*
X277281Y199923D01*
X277472Y200120D01*
X277682Y200291D01*
X277909Y200436D01*
X278155Y200555D01*
X278419Y200647D01*
X278701Y200713D01*
X279001Y200752D01*
X279320Y200765D01*
X279723Y200743D01*
X280097Y200674D01*
X280444Y200561D01*
X280762Y200401D01*
X281045Y200199D01*
X281286Y199956D01*
X281486Y199673D01*
X281644Y199349D01*
X282657Y199685D01*
X282551Y199919D01*
X282430Y200139D01*
X282296Y200344D01*
X282148Y200534D01*
X281985Y200710D01*
X281809Y200870D01*
X281618Y201016D01*
X281414Y201146D01*
X281196Y201262D01*
X280965Y201362D01*
X280721Y201446D01*
X280465Y201516D01*
X280195Y201570D01*
X279912Y201608D01*
X279617Y201631D01*
X279308Y201639D01*
X278870Y201622D01*
X278456Y201572D01*
X278066Y201489D01*
X277701Y201372D01*
X277361Y201221D01*
X277045Y201037D01*
X276753Y200820D01*
X276486Y200569D01*
X276247Y200289D01*
X276040Y199983D01*
X275865Y199652D01*
X275722Y199295D01*
X275610Y198913D01*
X275530Y198505D01*
X275483Y198072D01*
X275467Y197613D01*
X275474Y197303D01*
X275495Y197004D01*
X275531Y196715D01*
X275581Y196437D01*
X275645Y196170D01*
X275723Y195913D01*
X275816Y195667D01*
X275923Y195431D01*
X276044Y195208D01*
X276177Y194997D01*
X276324Y194800D01*
X276483Y194617D01*
X276656Y194446D01*
X276841Y194289D01*
X277039Y194145D01*
X277250Y194015D01*
X277473Y193898D01*
X277706Y193798D01*
X277949Y193713D01*
X278202Y193643D01*
X278465Y193589D01*
X278738Y193550D01*
X279021Y193527D01*
X279314Y193519D01*
X279601Y193527D01*
G37*
G36*
X288984Y194488D02*
X287063Y194488D01*
X287063Y201521D01*
X286134Y201521D01*
X284269Y200239D01*
X284269Y199287D01*
X286050Y200558D01*
X286050Y194488D01*
X284039Y194488D01*
X284039Y193631D01*
X288984Y193631D01*
X288984Y194488D01*
G37*
%LPC*%
G36*
X292542Y194281D02*
X292354Y194300D01*
X292179Y194332D01*
X292016Y194377D01*
X291867Y194434D01*
X291730Y194504D01*
X291607Y194587D01*
X291496Y194682D01*
X291399Y194791D01*
X291315Y194912D01*
X291243Y195045D01*
X291185Y195192D01*
X291139Y195351D01*
X291107Y195523D01*
X291087Y195707D01*
X291081Y195905D01*
X291087Y196075D01*
X291108Y196236D01*
X291141Y196387D01*
X291188Y196530D01*
X291249Y196663D01*
X291323Y196786D01*
X291512Y197005D01*
X291748Y197180D01*
X291882Y197249D01*
X292027Y197305D01*
X292182Y197349D01*
X292348Y197380D01*
X292524Y197399D01*
X292710Y197405D01*
X293083Y197382D01*
X293412Y197312D01*
X293696Y197196D01*
X293937Y197033D01*
X294039Y196934D01*
X294128Y196824D01*
X294203Y196703D01*
X294264Y196570D01*
X294312Y196426D01*
X294346Y196271D01*
X294367Y196105D01*
X294373Y195927D01*
X294367Y195719D01*
X294348Y195525D01*
X294317Y195346D01*
X294273Y195181D01*
X294216Y195032D01*
X294147Y194896D01*
X294065Y194776D01*
X293970Y194670D01*
X293863Y194577D01*
X293742Y194497D01*
X293609Y194429D01*
X293462Y194374D01*
X293302Y194331D01*
X293129Y194300D01*
X292943Y194281D01*
X292744Y194275D01*
X292542Y194281D01*
G37*
G36*
X292391Y198184D02*
X292101Y198250D01*
X291849Y198361D01*
X291638Y198517D01*
X291470Y198715D01*
X291350Y198953D01*
X291278Y199232D01*
X291260Y199386D01*
X291254Y199550D01*
X291277Y199863D01*
X291347Y200134D01*
X291464Y200364D01*
X291627Y200553D01*
X291834Y200700D01*
X292084Y200805D01*
X292376Y200868D01*
X292710Y200889D01*
X293054Y200868D01*
X293352Y200805D01*
X293604Y200700D01*
X293811Y200554D01*
X293971Y200366D01*
X294086Y200136D01*
X294154Y199864D01*
X294177Y199550D01*
X294154Y199209D01*
X294125Y199057D01*
X294084Y198918D01*
X294032Y198792D01*
X293968Y198678D01*
X293892Y198577D01*
X293805Y198489D01*
X293598Y198346D01*
X293348Y198243D01*
X293056Y198182D01*
X292721Y198161D01*
X292391Y198184D01*
G37*
%LPD*%
G36*
X426442Y505245D02*
X426689Y505268D01*
X426941Y505306D01*
X427198Y505360D01*
X427198Y506110D01*
X426869Y506056D01*
X426554Y506038D01*
X426281Y506057D01*
X426033Y506116D01*
X425809Y506214D01*
X425611Y506351D01*
X425433Y506533D01*
X425274Y506763D01*
X425132Y507042D01*
X425009Y507370D01*
X425372Y507433D01*
X425715Y507523D01*
X426038Y507641D01*
X426340Y507786D01*
X426622Y507959D01*
X426883Y508159D01*
X427124Y508387D01*
X427344Y508642D01*
X427541Y508920D01*
X427711Y509216D01*
X427856Y509531D01*
X427974Y509865D01*
X428066Y510217D01*
X428131Y510588D01*
X428171Y510978D01*
X428184Y511386D01*
X428177Y511691D01*
X428155Y511987D01*
X428118Y512272D01*
X428067Y512546D01*
X428001Y512811D01*
X427921Y513065D01*
X427826Y513308D01*
X427716Y513542D01*
X427593Y513763D01*
X427456Y513971D01*
X427307Y514165D01*
X427144Y514346D01*
X426969Y514513D01*
X426780Y514667D01*
X426579Y514807D01*
X426364Y514933D01*
X426138Y515045D01*
X425902Y515143D01*
X425655Y515225D01*
X425399Y515292D01*
X425133Y515345D01*
X424857Y515382D01*
X424571Y515404D01*
X424275Y515412D01*
X423826Y515395D01*
X423402Y515345D01*
X423003Y515262D01*
X422630Y515145D01*
X422282Y514995D01*
X421960Y514812D01*
X421663Y514595D01*
X421391Y514345D01*
X421148Y514066D01*
X420938Y513760D01*
X420760Y513429D01*
X420614Y513072D01*
X420501Y512689D01*
X420420Y512280D01*
X420371Y511846D01*
X420355Y511386D01*
X420362Y511092D01*
X420382Y510807D01*
X420415Y510532D01*
X420461Y510265D01*
X420520Y510007D01*
X420593Y509759D01*
X420679Y509519D01*
X420778Y509288D01*
X420890Y509069D01*
X421013Y508861D01*
X421149Y508666D01*
X421296Y508483D01*
X421455Y508313D01*
X421626Y508155D01*
X421809Y508010D01*
X422004Y507877D01*
X422210Y507758D01*
X422425Y507652D01*
X422650Y507560D01*
X422884Y507483D01*
X423128Y507420D01*
X423381Y507371D01*
X423644Y507335D01*
X423917Y507314D01*
X424103Y506795D01*
X424314Y506355D01*
X424549Y505995D01*
X424677Y505845D01*
X424810Y505716D01*
X424951Y505603D01*
X425102Y505506D01*
X425262Y505424D01*
X425431Y505357D01*
X425609Y505304D01*
X425797Y505267D01*
X425995Y505244D01*
X426202Y505237D01*
X426442Y505245D01*
G37*
%LPC*%
G36*
X423941Y508174D02*
X423637Y508214D01*
X423350Y508282D01*
X423082Y508378D01*
X422831Y508500D01*
X422599Y508650D01*
X422385Y508827D01*
X422189Y509031D01*
X422014Y509258D01*
X421862Y509505D01*
X421734Y509770D01*
X421628Y510055D01*
X421547Y510359D01*
X421488Y510682D01*
X421453Y511024D01*
X421442Y511386D01*
X421453Y511749D01*
X421488Y512092D01*
X421545Y512413D01*
X421626Y512714D01*
X421730Y512994D01*
X421857Y513254D01*
X422007Y513492D01*
X422181Y513710D01*
X422375Y513904D01*
X422589Y514072D01*
X422822Y514215D01*
X423074Y514331D01*
X423345Y514422D01*
X423636Y514487D01*
X423946Y514525D01*
X424275Y514538D01*
X424602Y514525D01*
X424909Y514486D01*
X425198Y514420D01*
X425467Y514328D01*
X425718Y514210D01*
X425949Y514066D01*
X426162Y513895D01*
X426356Y513698D01*
X426528Y513478D01*
X426678Y513239D01*
X426804Y512979D01*
X426908Y512700D01*
X426988Y512401D01*
X427046Y512082D01*
X427080Y511744D01*
X427092Y511386D01*
X427080Y511011D01*
X427046Y510659D01*
X426989Y510329D01*
X426909Y510020D01*
X426806Y509733D01*
X426681Y509468D01*
X426532Y509224D01*
X426361Y509003D01*
X426168Y508805D01*
X425956Y508634D01*
X425724Y508489D01*
X425471Y508371D01*
X425199Y508279D01*
X424907Y508213D01*
X424596Y508173D01*
X424264Y508160D01*
X423941Y508174D01*
G37*
%LPD*%
G36*
X434520Y508261D02*
X430404Y508261D01*
X430501Y508459D01*
X430625Y508660D01*
X430775Y508866D01*
X430953Y509076D01*
X431399Y509524D01*
X431977Y510025D01*
X432959Y510852D01*
X433308Y511172D01*
X433562Y511430D01*
X433757Y511657D01*
X433925Y511884D01*
X434069Y512111D01*
X434187Y512338D01*
X434278Y512565D01*
X434344Y512793D01*
X434383Y513021D01*
X434397Y513250D01*
X434387Y513502D01*
X434356Y513739D01*
X434306Y513961D01*
X434236Y514168D01*
X434146Y514361D01*
X434036Y514538D01*
X433906Y514701D01*
X433755Y514849D01*
X433586Y514981D01*
X433400Y515095D01*
X433197Y515192D01*
X432976Y515271D01*
X432738Y515333D01*
X432483Y515377D01*
X432211Y515403D01*
X431921Y515412D01*
X431656Y515403D01*
X431403Y515377D01*
X431162Y515333D01*
X430934Y515272D01*
X430718Y515193D01*
X430514Y515097D01*
X430322Y514983D01*
X430143Y514852D01*
X429980Y514706D01*
X429834Y514548D01*
X429706Y514378D01*
X429597Y514195D01*
X429505Y514001D01*
X429432Y513795D01*
X429377Y513576D01*
X429340Y513346D01*
X430370Y513250D01*
X430428Y513549D01*
X430529Y513812D01*
X430673Y514040D01*
X430860Y514233D01*
X431083Y514386D01*
X431334Y514496D01*
X431614Y514561D01*
X431921Y514583D01*
X432242Y514561D01*
X432525Y514494D01*
X432771Y514382D01*
X432980Y514225D01*
X433146Y514027D01*
X433265Y513794D01*
X433337Y513523D01*
X433361Y513217D01*
X433347Y512982D01*
X433305Y512760D01*
X433236Y512551D01*
X433139Y512354D01*
X433020Y512166D01*
X432884Y511982D01*
X432560Y511626D01*
X432180Y511279D01*
X431756Y510932D01*
X431309Y510570D01*
X430857Y510179D01*
X430414Y509749D01*
X429992Y509272D01*
X429794Y509011D01*
X429612Y508732D01*
X429446Y508433D01*
X429295Y508115D01*
X429295Y507404D01*
X434520Y507404D01*
X434520Y508261D01*
G37*
G36*
X92895Y271193D02*
X95353Y271193D01*
X97403Y267917D01*
X98635Y267917D01*
X97348Y269869D01*
X96395Y271316D01*
X96614Y271362D01*
X96821Y271422D01*
X97016Y271496D01*
X97199Y271584D01*
X97299Y271643D01*
X97370Y271685D01*
X97528Y271800D01*
X97675Y271929D01*
X97809Y272072D01*
X97929Y272226D01*
X98033Y272389D01*
X98121Y272561D01*
X98193Y272741D01*
X98249Y272931D01*
X98289Y273128D01*
X98313Y273335D01*
X98321Y273551D01*
X98310Y273809D01*
X98276Y274053D01*
X98219Y274283D01*
X98140Y274498D01*
X98038Y274698D01*
X97913Y274884D01*
X97766Y275055D01*
X97596Y275211D01*
X97405Y275351D01*
X97195Y275472D01*
X96967Y275574D01*
X96719Y275658D01*
X96452Y275723D01*
X96166Y275770D01*
X95862Y275798D01*
X95538Y275807D01*
X91825Y275807D01*
X91825Y267917D01*
X92895Y267917D01*
X92895Y271193D01*
G37*
G36*
X110474Y269703D02*
X111583Y269703D01*
X111583Y270499D01*
X110474Y270499D01*
X110474Y275807D01*
X109416Y275807D01*
X105804Y270487D01*
X105804Y269703D01*
X109522Y269703D01*
X109522Y267917D01*
X110474Y267917D01*
X110474Y269703D01*
G37*
G36*
X104984Y268774D02*
X103063Y268774D01*
X103063Y275807D01*
X102134Y275807D01*
X100269Y274525D01*
X100269Y273573D01*
X102050Y274844D01*
X102050Y268774D01*
X100039Y268774D01*
X100039Y267917D01*
X104984Y267917D01*
X104984Y268774D01*
G37*
%LPC*%
G36*
X92895Y272039D02*
X92895Y274951D01*
X95432Y274951D01*
X95845Y274928D01*
X96208Y274860D01*
X96519Y274747D01*
X96655Y274674D01*
X96778Y274589D01*
X96888Y274494D01*
X96983Y274388D01*
X97063Y274272D01*
X97129Y274146D01*
X97180Y274010D01*
X97217Y273863D01*
X97239Y273706D01*
X97246Y273539D01*
X97239Y273367D01*
X97217Y273204D01*
X97181Y273050D01*
X97130Y272907D01*
X97065Y272774D01*
X96986Y272651D01*
X96892Y272537D01*
X96784Y272433D01*
X96662Y272341D01*
X96529Y272261D01*
X96384Y272193D01*
X96226Y272137D01*
X96057Y272094D01*
X95875Y272063D01*
X95682Y272045D01*
X95476Y272039D01*
X92895Y272039D01*
G37*
G36*
X106733Y270499D02*
X106823Y270611D01*
X107125Y271025D01*
X109147Y274004D01*
X109365Y274374D01*
X109522Y274671D01*
X109522Y270499D01*
X106733Y270499D01*
G37*
%LPD*%
G36*
X138445Y285757D02*
X138718Y285779D01*
X138983Y285818D01*
X139239Y285871D01*
X139487Y285939D01*
X139726Y286023D01*
X139957Y286122D01*
X140180Y286236D01*
X140392Y286365D01*
X140592Y286507D01*
X140779Y286662D01*
X140954Y286830D01*
X141117Y287013D01*
X141267Y287208D01*
X141404Y287417D01*
X141529Y287639D01*
X141641Y287873D01*
X141738Y288116D01*
X141820Y288369D01*
X141886Y288631D01*
X141939Y288903D01*
X141976Y289184D01*
X141998Y289475D01*
X142005Y289775D01*
X141988Y290226D01*
X141937Y290649D01*
X141852Y291046D01*
X141733Y291417D01*
X141580Y291761D01*
X141393Y292079D01*
X141172Y292370D01*
X140916Y292634D01*
X140630Y292870D01*
X140314Y293074D01*
X139971Y293247D01*
X139598Y293388D01*
X139197Y293498D01*
X138767Y293577D01*
X138309Y293624D01*
X137822Y293639D01*
X135213Y293639D01*
X135213Y285749D01*
X138164Y285749D01*
X138445Y285757D01*
G37*
%LPC*%
G36*
X136282Y286606D02*
X136282Y292783D01*
X137800Y292783D01*
X138169Y292771D01*
X138516Y292734D01*
X138841Y292674D01*
X139143Y292590D01*
X139423Y292482D01*
X139680Y292349D01*
X139915Y292193D01*
X140127Y292013D01*
X140315Y291809D01*
X140478Y291584D01*
X140616Y291337D01*
X140729Y291068D01*
X140817Y290778D01*
X140880Y290465D01*
X140918Y290131D01*
X140930Y289775D01*
X140908Y289304D01*
X140842Y288865D01*
X140732Y288459D01*
X140577Y288084D01*
X140382Y287747D01*
X140148Y287451D01*
X139877Y287198D01*
X139567Y286987D01*
X139225Y286820D01*
X138856Y286701D01*
X138462Y286630D01*
X138041Y286606D01*
X136282Y286606D01*
G37*
%LPD*%
G36*
X145970Y285648D02*
X146272Y285682D01*
X146556Y285738D01*
X146822Y285816D01*
X147071Y285917D01*
X147301Y286040D01*
X147513Y286186D01*
X147708Y286354D01*
X147882Y286541D01*
X148033Y286745D01*
X148160Y286966D01*
X148264Y287204D01*
X148346Y287458D01*
X148404Y287728D01*
X148438Y288016D01*
X148450Y288319D01*
X148439Y288587D01*
X148407Y288842D01*
X148353Y289084D01*
X148277Y289313D01*
X148180Y289530D01*
X148061Y289733D01*
X147920Y289923D01*
X147758Y290100D01*
X147578Y290260D01*
X147383Y290399D01*
X147173Y290517D01*
X146948Y290613D01*
X146709Y290687D01*
X146455Y290741D01*
X146186Y290773D01*
X145902Y290783D01*
X145663Y290776D01*
X145435Y290752D01*
X145216Y290713D01*
X145007Y290657D01*
X144809Y290587D01*
X144620Y290500D01*
X144441Y290398D01*
X144272Y290279D01*
X144424Y292783D01*
X147991Y292783D01*
X147991Y293639D01*
X143505Y293639D01*
X143242Y289395D01*
X144228Y289395D01*
X144404Y289537D01*
X144580Y289658D01*
X144757Y289756D01*
X144933Y289831D01*
X145113Y289888D01*
X145300Y289928D01*
X145494Y289952D01*
X145695Y289960D01*
X145886Y289953D01*
X146067Y289931D01*
X146237Y289896D01*
X146398Y289845D01*
X146549Y289781D01*
X146690Y289702D01*
X146820Y289609D01*
X146941Y289501D01*
X147049Y289382D01*
X147143Y289254D01*
X147222Y289116D01*
X147287Y288970D01*
X147338Y288815D01*
X147374Y288652D01*
X147395Y288479D01*
X147403Y288297D01*
X147396Y288089D01*
X147374Y287892D01*
X147338Y287706D01*
X147288Y287532D01*
X147223Y287369D01*
X147144Y287218D01*
X147051Y287078D01*
X146944Y286950D01*
X146823Y286835D01*
X146692Y286736D01*
X146549Y286652D01*
X146396Y286583D01*
X146232Y286529D01*
X146056Y286491D01*
X145870Y286468D01*
X145672Y286460D01*
X145358Y286478D01*
X145074Y286533D01*
X144822Y286625D01*
X144601Y286753D01*
X144412Y286917D01*
X144254Y287119D01*
X144127Y287356D01*
X144032Y287631D01*
X143012Y287513D01*
X143065Y287292D01*
X143133Y287084D01*
X143217Y286889D01*
X143316Y286708D01*
X143431Y286540D01*
X143561Y286386D01*
X143708Y286246D01*
X143869Y286119D01*
X144045Y286006D01*
X144235Y285908D01*
X144437Y285825D01*
X144653Y285757D01*
X144882Y285705D01*
X145125Y285667D01*
X145381Y285645D01*
X145650Y285637D01*
X145970Y285648D01*
G37*
G36*
X85306Y486454D02*
X85555Y486485D01*
X85789Y486537D01*
X86009Y486608D01*
X86215Y486701D01*
X86406Y486814D01*
X86583Y486948D01*
X86746Y487102D01*
X86891Y487274D01*
X87018Y487462D01*
X87124Y487664D01*
X87212Y487882D01*
X87280Y488116D01*
X87328Y488365D01*
X87357Y488629D01*
X87367Y488908D01*
X87367Y494446D01*
X84786Y494446D01*
X84786Y493573D01*
X86303Y493573D01*
X86303Y488886D01*
X86282Y488522D01*
X86219Y488206D01*
X86114Y487936D01*
X85967Y487712D01*
X85784Y487537D01*
X85570Y487412D01*
X85325Y487337D01*
X85191Y487318D01*
X85049Y487312D01*
X84794Y487335D01*
X84562Y487403D01*
X84352Y487517D01*
X84164Y487676D01*
X84003Y487876D01*
X83874Y488111D01*
X83777Y488383D01*
X83710Y488690D01*
X82663Y488516D01*
X82716Y488265D01*
X82782Y488030D01*
X82861Y487812D01*
X82953Y487609D01*
X83057Y487423D01*
X83174Y487253D01*
X83303Y487100D01*
X83446Y486962D01*
X83601Y486841D01*
X83769Y486735D01*
X83949Y486646D01*
X84143Y486573D01*
X84349Y486517D01*
X84567Y486476D01*
X84799Y486452D01*
X85043Y486444D01*
X85306Y486454D01*
G37*
G36*
X91346Y487097D02*
X91393Y487630D01*
X91471Y488153D01*
X91580Y488667D01*
X91720Y489179D01*
X91891Y489693D01*
X92094Y490212D01*
X92328Y490734D01*
X92621Y491307D01*
X93004Y491981D01*
X93475Y492755D01*
X94036Y493629D01*
X94036Y494446D01*
X88822Y494446D01*
X88822Y493590D01*
X93061Y493590D01*
X92365Y492532D01*
X91775Y491538D01*
X91521Y491065D01*
X91294Y490607D01*
X91093Y490165D01*
X90919Y489740D01*
X90769Y489324D01*
X90639Y488914D01*
X90528Y488508D01*
X90438Y488108D01*
X90368Y487712D01*
X90318Y487322D01*
X90288Y486936D01*
X90278Y486556D01*
X91331Y486556D01*
X91346Y487097D01*
G37*
D10*
X370000Y455000D02*
X380000Y455000D01*
X375000Y460000D02*
X375000Y450000D01*
D11*
X215919Y335715D03*
D12*
X223100Y333815D02*
X262100Y333815D01*
X262100Y278985D02*
X223100Y278985D01*
D13*
X89000Y328300D02*
X86500Y328300D01*
X86500Y330800D01*
X86500Y398800D02*
X86500Y401300D01*
X89000Y401300D01*
X157000Y401300D02*
X159500Y401300D01*
X159500Y398800D01*
X159500Y330800D02*
X159500Y328300D01*
X157000Y328300D01*
D14*
X94000Y307800D02*
X94002Y307863D01*
X94008Y307925D01*
X94018Y307987D01*
X94031Y308049D01*
X94049Y308109D01*
X94070Y308168D01*
X94095Y308226D01*
X94124Y308282D01*
X94156Y308336D01*
X94191Y308388D01*
X94229Y308437D01*
X94271Y308485D01*
X94315Y308529D01*
X94363Y308571D01*
X94412Y308609D01*
X94464Y308644D01*
X94518Y308676D01*
X94574Y308705D01*
X94632Y308730D01*
X94691Y308751D01*
X94751Y308769D01*
X94813Y308782D01*
X94875Y308792D01*
X94937Y308798D01*
X95000Y308800D01*
X95063Y308798D01*
X95125Y308792D01*
X95187Y308782D01*
X95249Y308769D01*
X95309Y308751D01*
X95368Y308730D01*
X95426Y308705D01*
X95482Y308676D01*
X95536Y308644D01*
X95588Y308609D01*
X95637Y308571D01*
X95685Y308529D01*
X95729Y308485D01*
X95771Y308437D01*
X95809Y308388D01*
X95844Y308336D01*
X95876Y308282D01*
X95905Y308226D01*
X95930Y308168D01*
X95951Y308109D01*
X95969Y308049D01*
X95982Y307987D01*
X95992Y307925D01*
X95998Y307863D01*
X96000Y307800D01*
X95998Y307737D01*
X95992Y307675D01*
X95982Y307613D01*
X95969Y307551D01*
X95951Y307491D01*
X95930Y307432D01*
X95905Y307374D01*
X95876Y307318D01*
X95844Y307264D01*
X95809Y307212D01*
X95771Y307163D01*
X95729Y307115D01*
X95685Y307071D01*
X95637Y307029D01*
X95588Y306991D01*
X95536Y306956D01*
X95482Y306924D01*
X95426Y306895D01*
X95368Y306870D01*
X95309Y306849D01*
X95249Y306831D01*
X95187Y306818D01*
X95125Y306808D01*
X95063Y306802D01*
X95000Y306800D01*
X94937Y306802D01*
X94875Y306808D01*
X94813Y306818D01*
X94751Y306831D01*
X94691Y306849D01*
X94632Y306870D01*
X94574Y306895D01*
X94518Y306924D01*
X94464Y306956D01*
X94412Y306991D01*
X94363Y307029D01*
X94315Y307071D01*
X94271Y307115D01*
X94229Y307163D01*
X94191Y307212D01*
X94156Y307264D01*
X94124Y307318D01*
X94095Y307374D01*
X94070Y307432D01*
X94049Y307491D01*
X94031Y307551D01*
X94018Y307613D01*
X94008Y307675D01*
X94002Y307737D01*
X94000Y307800D01*
D11*
X353976Y56962D03*
D12*
X355876Y64000D02*
X355876Y109000D01*
X411724Y109000D02*
X411724Y64000D01*
D15*
X344691Y38000D02*
X344691Y21000D01*
X360709Y21000D02*
X360709Y38000D01*
X361496Y14806D02*
X382595Y14806D01*
X382595Y30204D01*
X361496Y30204D01*
X392155Y155790D02*
X409655Y155790D01*
X409655Y139808D02*
X392155Y139808D01*
X381825Y143389D02*
X364325Y143389D01*
X364325Y127407D02*
X381825Y127407D01*
X395600Y49309D02*
X412600Y49309D01*
X412600Y33291D02*
X395600Y33291D01*
X386200Y28730D02*
X369200Y28730D01*
X369200Y44748D02*
X386200Y44748D01*
X386700Y31570D02*
X403700Y31570D01*
X403700Y15552D02*
X386700Y15552D01*
X45891Y315900D02*
X45891Y332900D01*
X61909Y332900D02*
X61909Y315900D01*
X216891Y344250D02*
X216891Y361750D01*
X200909Y361750D02*
X200909Y344250D01*
X195222Y380796D02*
X195222Y398296D01*
X179240Y398296D02*
X179240Y380796D01*
X67109Y308150D02*
X67109Y290650D01*
X83091Y290650D02*
X83091Y308150D01*
D16*
X79430Y411700D02*
X5770Y411700D01*
X5770Y487900D01*
X79430Y487900D01*
X79430Y411700D01*
D11*
X357676Y190262D03*
D12*
X359576Y197300D02*
X359576Y242300D01*
X415424Y242300D02*
X415424Y197300D01*
D15*
X348154Y171678D02*
X348154Y154678D01*
X364172Y154678D02*
X364172Y171678D01*
X367592Y149306D02*
X388691Y149306D01*
X388691Y164704D01*
X367592Y164704D01*
X391350Y284532D02*
X408850Y284532D01*
X408850Y268550D02*
X391350Y268550D01*
X381149Y280295D02*
X363649Y280295D01*
X363649Y264313D02*
X381149Y264313D01*
X398200Y181309D02*
X415200Y181309D01*
X415200Y165291D02*
X398200Y165291D01*
X388909Y162011D02*
X371909Y162011D01*
X371909Y178029D02*
X388909Y178029D01*
X402945Y167529D02*
X419945Y167529D01*
X419945Y151511D02*
X402945Y151511D01*
D11*
X355760Y317789D03*
D12*
X357660Y324827D02*
X357660Y369827D01*
X413508Y369827D02*
X413508Y324827D01*
D15*
X343930Y295958D02*
X343930Y278958D01*
X359948Y278958D02*
X359948Y295958D01*
X364368Y276015D02*
X385467Y276015D01*
X385467Y291413D01*
X364368Y291413D01*
X390551Y410393D02*
X408051Y410393D01*
X408051Y394411D02*
X390551Y394411D01*
X381350Y404691D02*
X363850Y404691D01*
X363850Y388709D02*
X381350Y388709D01*
X396500Y309009D02*
X413500Y309009D01*
X413500Y292991D02*
X396500Y292991D01*
X387148Y289991D02*
X370148Y289991D01*
X370148Y306009D02*
X387148Y306009D01*
X396572Y297270D02*
X413572Y297270D01*
X413572Y281252D02*
X396572Y281252D01*
X151425Y261643D02*
X133925Y261643D01*
X133925Y277625D02*
X151425Y277625D01*
X291369Y335891D02*
X308869Y335891D01*
X308869Y319909D02*
X291369Y319909D01*
X86189Y308350D02*
X86189Y290850D01*
X102171Y290850D02*
X102171Y308350D01*
X335250Y56800D02*
X335250Y36500D01*
X335250Y14500D02*
X335250Y4800D01*
X264550Y4800D01*
X264550Y56800D01*
X335250Y56800D01*
D14*
X317800Y63580D02*
X317802Y63643D01*
X317808Y63705D01*
X317818Y63767D01*
X317831Y63829D01*
X317849Y63889D01*
X317870Y63948D01*
X317895Y64006D01*
X317924Y64062D01*
X317956Y64116D01*
X317991Y64168D01*
X318029Y64217D01*
X318071Y64265D01*
X318115Y64309D01*
X318163Y64351D01*
X318212Y64389D01*
X318264Y64424D01*
X318318Y64456D01*
X318374Y64485D01*
X318432Y64510D01*
X318491Y64531D01*
X318551Y64549D01*
X318613Y64562D01*
X318675Y64572D01*
X318737Y64578D01*
X318800Y64580D01*
X318863Y64578D01*
X318925Y64572D01*
X318987Y64562D01*
X319049Y64549D01*
X319109Y64531D01*
X319168Y64510D01*
X319226Y64485D01*
X319282Y64456D01*
X319336Y64424D01*
X319388Y64389D01*
X319437Y64351D01*
X319485Y64309D01*
X319529Y64265D01*
X319571Y64217D01*
X319609Y64168D01*
X319644Y64116D01*
X319676Y64062D01*
X319705Y64006D01*
X319730Y63948D01*
X319751Y63889D01*
X319769Y63829D01*
X319782Y63767D01*
X319792Y63705D01*
X319798Y63643D01*
X319800Y63580D01*
X319798Y63517D01*
X319792Y63455D01*
X319782Y63393D01*
X319769Y63331D01*
X319751Y63271D01*
X319730Y63212D01*
X319705Y63154D01*
X319676Y63098D01*
X319644Y63044D01*
X319609Y62992D01*
X319571Y62943D01*
X319529Y62895D01*
X319485Y62851D01*
X319437Y62809D01*
X319388Y62771D01*
X319336Y62736D01*
X319282Y62704D01*
X319226Y62675D01*
X319168Y62650D01*
X319109Y62629D01*
X319049Y62611D01*
X318987Y62598D01*
X318925Y62588D01*
X318863Y62582D01*
X318800Y62580D01*
X318737Y62582D01*
X318675Y62588D01*
X318613Y62598D01*
X318551Y62611D01*
X318491Y62629D01*
X318432Y62650D01*
X318374Y62675D01*
X318318Y62704D01*
X318264Y62736D01*
X318212Y62771D01*
X318163Y62809D01*
X318115Y62851D01*
X318071Y62895D01*
X318029Y62943D01*
X317991Y62992D01*
X317956Y63044D01*
X317924Y63098D01*
X317895Y63154D01*
X317870Y63212D01*
X317849Y63271D01*
X317831Y63331D01*
X317818Y63393D01*
X317808Y63455D01*
X317802Y63517D01*
X317800Y63580D01*
D15*
X247050Y56800D02*
X247050Y36500D01*
X247050Y14500D02*
X247050Y4800D01*
X176350Y4800D01*
X176350Y56800D01*
X247050Y56800D01*
D14*
X229600Y63580D02*
X229602Y63643D01*
X229608Y63705D01*
X229618Y63767D01*
X229631Y63829D01*
X229649Y63889D01*
X229670Y63948D01*
X229695Y64006D01*
X229724Y64062D01*
X229756Y64116D01*
X229791Y64168D01*
X229829Y64217D01*
X229871Y64265D01*
X229915Y64309D01*
X229963Y64351D01*
X230012Y64389D01*
X230064Y64424D01*
X230118Y64456D01*
X230174Y64485D01*
X230232Y64510D01*
X230291Y64531D01*
X230351Y64549D01*
X230413Y64562D01*
X230475Y64572D01*
X230537Y64578D01*
X230600Y64580D01*
X230663Y64578D01*
X230725Y64572D01*
X230787Y64562D01*
X230849Y64549D01*
X230909Y64531D01*
X230968Y64510D01*
X231026Y64485D01*
X231082Y64456D01*
X231136Y64424D01*
X231188Y64389D01*
X231237Y64351D01*
X231285Y64309D01*
X231329Y64265D01*
X231371Y64217D01*
X231409Y64168D01*
X231444Y64116D01*
X231476Y64062D01*
X231505Y64006D01*
X231530Y63948D01*
X231551Y63889D01*
X231569Y63829D01*
X231582Y63767D01*
X231592Y63705D01*
X231598Y63643D01*
X231600Y63580D01*
X231598Y63517D01*
X231592Y63455D01*
X231582Y63393D01*
X231569Y63331D01*
X231551Y63271D01*
X231530Y63212D01*
X231505Y63154D01*
X231476Y63098D01*
X231444Y63044D01*
X231409Y62992D01*
X231371Y62943D01*
X231329Y62895D01*
X231285Y62851D01*
X231237Y62809D01*
X231188Y62771D01*
X231136Y62736D01*
X231082Y62704D01*
X231026Y62675D01*
X230968Y62650D01*
X230909Y62629D01*
X230849Y62611D01*
X230787Y62598D01*
X230725Y62588D01*
X230663Y62582D01*
X230600Y62580D01*
X230537Y62582D01*
X230475Y62588D01*
X230413Y62598D01*
X230351Y62611D01*
X230291Y62629D01*
X230232Y62650D01*
X230174Y62675D01*
X230118Y62704D01*
X230064Y62736D01*
X230012Y62771D01*
X229963Y62809D01*
X229915Y62851D01*
X229871Y62895D01*
X229829Y62943D01*
X229791Y62992D01*
X229756Y63044D01*
X229724Y63098D01*
X229695Y63154D01*
X229670Y63212D01*
X229649Y63271D01*
X229631Y63331D01*
X229618Y63393D01*
X229608Y63455D01*
X229602Y63517D01*
X229600Y63580D01*
D15*
X181067Y400652D02*
X163567Y400652D01*
X163567Y416634D02*
X181067Y416634D01*
X74688Y56800D02*
X74688Y36500D01*
X74688Y14500D02*
X74688Y4800D01*
X3988Y4800D01*
X3988Y56800D01*
X74688Y56800D01*
D14*
X57238Y63580D02*
X57240Y63643D01*
X57246Y63705D01*
X57256Y63767D01*
X57269Y63829D01*
X57287Y63889D01*
X57308Y63948D01*
X57333Y64006D01*
X57362Y64062D01*
X57394Y64116D01*
X57429Y64168D01*
X57467Y64217D01*
X57509Y64265D01*
X57553Y64309D01*
X57601Y64351D01*
X57650Y64389D01*
X57702Y64424D01*
X57756Y64456D01*
X57812Y64485D01*
X57870Y64510D01*
X57929Y64531D01*
X57989Y64549D01*
X58051Y64562D01*
X58113Y64572D01*
X58175Y64578D01*
X58238Y64580D01*
X58301Y64578D01*
X58363Y64572D01*
X58425Y64562D01*
X58487Y64549D01*
X58547Y64531D01*
X58606Y64510D01*
X58664Y64485D01*
X58720Y64456D01*
X58774Y64424D01*
X58826Y64389D01*
X58875Y64351D01*
X58923Y64309D01*
X58967Y64265D01*
X59009Y64217D01*
X59047Y64168D01*
X59082Y64116D01*
X59114Y64062D01*
X59143Y64006D01*
X59168Y63948D01*
X59189Y63889D01*
X59207Y63829D01*
X59220Y63767D01*
X59230Y63705D01*
X59236Y63643D01*
X59238Y63580D01*
X59236Y63517D01*
X59230Y63455D01*
X59220Y63393D01*
X59207Y63331D01*
X59189Y63271D01*
X59168Y63212D01*
X59143Y63154D01*
X59114Y63098D01*
X59082Y63044D01*
X59047Y62992D01*
X59009Y62943D01*
X58967Y62895D01*
X58923Y62851D01*
X58875Y62809D01*
X58826Y62771D01*
X58774Y62736D01*
X58720Y62704D01*
X58664Y62675D01*
X58606Y62650D01*
X58547Y62629D01*
X58487Y62611D01*
X58425Y62598D01*
X58363Y62588D01*
X58301Y62582D01*
X58238Y62580D01*
X58175Y62582D01*
X58113Y62588D01*
X58051Y62598D01*
X57989Y62611D01*
X57929Y62629D01*
X57870Y62650D01*
X57812Y62675D01*
X57756Y62704D01*
X57702Y62736D01*
X57650Y62771D01*
X57601Y62809D01*
X57553Y62851D01*
X57509Y62895D01*
X57467Y62943D01*
X57429Y62992D01*
X57394Y63044D01*
X57362Y63098D01*
X57333Y63154D01*
X57308Y63212D01*
X57287Y63271D01*
X57269Y63331D01*
X57256Y63393D01*
X57246Y63455D01*
X57240Y63517D01*
X57238Y63580D01*
D15*
X162250Y55800D02*
X162250Y35500D01*
X162250Y13500D02*
X162250Y3800D01*
X91550Y3800D01*
X91550Y55800D01*
X162250Y55800D01*
D14*
X144800Y62580D02*
X144802Y62643D01*
X144808Y62705D01*
X144818Y62767D01*
X144831Y62829D01*
X144849Y62889D01*
X144870Y62948D01*
X144895Y63006D01*
X144924Y63062D01*
X144956Y63116D01*
X144991Y63168D01*
X145029Y63217D01*
X145071Y63265D01*
X145115Y63309D01*
X145163Y63351D01*
X145212Y63389D01*
X145264Y63424D01*
X145318Y63456D01*
X145374Y63485D01*
X145432Y63510D01*
X145491Y63531D01*
X145551Y63549D01*
X145613Y63562D01*
X145675Y63572D01*
X145737Y63578D01*
X145800Y63580D01*
X145863Y63578D01*
X145925Y63572D01*
X145987Y63562D01*
X146049Y63549D01*
X146109Y63531D01*
X146168Y63510D01*
X146226Y63485D01*
X146282Y63456D01*
X146336Y63424D01*
X146388Y63389D01*
X146437Y63351D01*
X146485Y63309D01*
X146529Y63265D01*
X146571Y63217D01*
X146609Y63168D01*
X146644Y63116D01*
X146676Y63062D01*
X146705Y63006D01*
X146730Y62948D01*
X146751Y62889D01*
X146769Y62829D01*
X146782Y62767D01*
X146792Y62705D01*
X146798Y62643D01*
X146800Y62580D01*
X146798Y62517D01*
X146792Y62455D01*
X146782Y62393D01*
X146769Y62331D01*
X146751Y62271D01*
X146730Y62212D01*
X146705Y62154D01*
X146676Y62098D01*
X146644Y62044D01*
X146609Y61992D01*
X146571Y61943D01*
X146529Y61895D01*
X146485Y61851D01*
X146437Y61809D01*
X146388Y61771D01*
X146336Y61736D01*
X146282Y61704D01*
X146226Y61675D01*
X146168Y61650D01*
X146109Y61629D01*
X146049Y61611D01*
X145987Y61598D01*
X145925Y61588D01*
X145863Y61582D01*
X145800Y61580D01*
X145737Y61582D01*
X145675Y61588D01*
X145613Y61598D01*
X145551Y61611D01*
X145491Y61629D01*
X145432Y61650D01*
X145374Y61675D01*
X145318Y61704D01*
X145264Y61736D01*
X145212Y61771D01*
X145163Y61809D01*
X145115Y61851D01*
X145071Y61895D01*
X145029Y61943D01*
X144991Y61992D01*
X144956Y62044D01*
X144924Y62098D01*
X144895Y62154D01*
X144870Y62212D01*
X144849Y62271D01*
X144831Y62331D01*
X144818Y62393D01*
X144808Y62455D01*
X144802Y62517D01*
X144800Y62580D01*
X228600Y178600D02*
X260600Y178600D01*
X260600Y129600D01*
X228600Y129600D01*
X228600Y178600D01*
X225100Y180150D02*
X209850Y180150D01*
D15*
X204891Y186950D02*
X204891Y169450D01*
X188909Y169450D02*
X188909Y186950D01*
X276109Y190350D02*
X276109Y172850D01*
X292091Y172850D02*
X292091Y190350D01*
D17*
X407453Y424238D02*
X407497Y424240D01*
X407540Y424246D01*
X407582Y424255D01*
X407624Y424268D01*
X407664Y424285D01*
X407703Y424305D01*
X407740Y424328D01*
X407774Y424355D01*
X407807Y424384D01*
X407836Y424417D01*
X407863Y424451D01*
X407886Y424488D01*
X407906Y424527D01*
X407923Y424567D01*
X407936Y424609D01*
X407945Y424651D01*
X407951Y424694D01*
X407953Y424738D01*
X407951Y424782D01*
X407945Y424825D01*
X407936Y424867D01*
X407923Y424909D01*
X407906Y424949D01*
X407886Y424988D01*
X407863Y425025D01*
X407836Y425059D01*
X407807Y425092D01*
X407774Y425121D01*
X407740Y425148D01*
X407703Y425171D01*
X407664Y425191D01*
X407624Y425208D01*
X407582Y425221D01*
X407540Y425230D01*
X407497Y425236D01*
X407453Y425238D01*
X407409Y425236D01*
X407366Y425230D01*
X407324Y425221D01*
X407282Y425208D01*
X407242Y425191D01*
X407203Y425171D01*
X407166Y425148D01*
X407132Y425121D01*
X407099Y425092D01*
X407070Y425059D01*
X407043Y425025D01*
X407020Y424988D01*
X407000Y424949D01*
X406983Y424909D01*
X406970Y424867D01*
X406961Y424825D01*
X406955Y424782D01*
X406953Y424738D01*
X406955Y424694D01*
X406961Y424651D01*
X406970Y424609D01*
X406983Y424567D01*
X407000Y424527D01*
X407020Y424488D01*
X407043Y424451D01*
X407070Y424417D01*
X407099Y424384D01*
X407132Y424355D01*
X407166Y424328D01*
X407203Y424305D01*
X407242Y424285D01*
X407282Y424268D01*
X407324Y424255D01*
X407366Y424246D01*
X407409Y424240D01*
X407453Y424238D01*
D15*
X101891Y295604D02*
X101891Y278604D01*
X117909Y278604D02*
X117909Y295604D01*
X132399Y302499D02*
X132399Y281400D01*
X132399Y302499D02*
X117001Y302499D01*
X117001Y281400D01*
D14*
X158000Y439000D02*
X167000Y439000D01*
X120000Y439000D02*
X111000Y439000D01*
X180000Y459000D02*
X180000Y470000D01*
X98000Y470000D02*
X98000Y459000D01*
X180000Y494000D02*
X180000Y507000D01*
X98000Y507000D01*
X98000Y494000D01*
X158000Y444500D02*
X158002Y444563D01*
X158008Y444625D01*
X158018Y444687D01*
X158031Y444749D01*
X158049Y444809D01*
X158070Y444868D01*
X158095Y444926D01*
X158124Y444982D01*
X158156Y445036D01*
X158191Y445088D01*
X158229Y445137D01*
X158271Y445185D01*
X158315Y445229D01*
X158363Y445271D01*
X158412Y445309D01*
X158464Y445344D01*
X158518Y445376D01*
X158574Y445405D01*
X158632Y445430D01*
X158691Y445451D01*
X158751Y445469D01*
X158813Y445482D01*
X158875Y445492D01*
X158937Y445498D01*
X159000Y445500D01*
X159063Y445498D01*
X159125Y445492D01*
X159187Y445482D01*
X159249Y445469D01*
X159309Y445451D01*
X159368Y445430D01*
X159426Y445405D01*
X159482Y445376D01*
X159536Y445344D01*
X159588Y445309D01*
X159637Y445271D01*
X159685Y445229D01*
X159729Y445185D01*
X159771Y445137D01*
X159809Y445088D01*
X159844Y445036D01*
X159876Y444982D01*
X159905Y444926D01*
X159930Y444868D01*
X159951Y444809D01*
X159969Y444749D01*
X159982Y444687D01*
X159992Y444625D01*
X159998Y444563D01*
X160000Y444500D01*
X159998Y444437D01*
X159992Y444375D01*
X159982Y444313D01*
X159969Y444251D01*
X159951Y444191D01*
X159930Y444132D01*
X159905Y444074D01*
X159876Y444018D01*
X159844Y443964D01*
X159809Y443912D01*
X159771Y443863D01*
X159729Y443815D01*
X159685Y443771D01*
X159637Y443729D01*
X159588Y443691D01*
X159536Y443656D01*
X159482Y443624D01*
X159426Y443595D01*
X159368Y443570D01*
X159309Y443549D01*
X159249Y443531D01*
X159187Y443518D01*
X159125Y443508D01*
X159063Y443502D01*
X159000Y443500D01*
X158937Y443502D01*
X158875Y443508D01*
X158813Y443518D01*
X158751Y443531D01*
X158691Y443549D01*
X158632Y443570D01*
X158574Y443595D01*
X158518Y443624D01*
X158464Y443656D01*
X158412Y443691D01*
X158363Y443729D01*
X158315Y443771D01*
X158271Y443815D01*
X158229Y443863D01*
X158191Y443912D01*
X158156Y443964D01*
X158124Y444018D01*
X158095Y444074D01*
X158070Y444132D01*
X158049Y444191D01*
X158031Y444251D01*
X158018Y444313D01*
X158008Y444375D01*
X158002Y444437D01*
X158000Y444500D01*
M02*
