G04 EAGLE Gerber RS-274X export*
G75*
%MOMM*%
%FSLAX34Y34*%
%LPD*%
%INSilkscreen Bottom*%
%IPPOS*%
%AMOC8*
5,1,8,0,0,1.08239X$1,22.5*%
G01*
G04 Define Apertures*
%ADD10C,0.127000*%
%ADD11C,0.200000*%
%ADD12C,0.250000*%
G36*
X228279Y446537D02*
X228562Y446560D01*
X228835Y446599D01*
X229098Y446653D01*
X229351Y446723D01*
X229594Y446808D01*
X229827Y446908D01*
X230050Y447025D01*
X230261Y447155D01*
X230459Y447299D01*
X230644Y447456D01*
X230817Y447627D01*
X230976Y447810D01*
X231123Y448007D01*
X231256Y448218D01*
X231377Y448441D01*
X231484Y448677D01*
X231577Y448923D01*
X231655Y449180D01*
X231719Y449447D01*
X231769Y449725D01*
X231805Y450014D01*
X231826Y450313D01*
X231833Y450623D01*
X231817Y451082D01*
X231770Y451515D01*
X231690Y451923D01*
X231578Y452305D01*
X231435Y452662D01*
X231260Y452993D01*
X231053Y453299D01*
X230814Y453579D01*
X230547Y453830D01*
X230255Y454047D01*
X229939Y454231D01*
X229599Y454382D01*
X229234Y454499D01*
X228844Y454582D01*
X228430Y454632D01*
X227992Y454649D01*
X227683Y454641D01*
X227388Y454618D01*
X227105Y454580D01*
X226835Y454526D01*
X226579Y454456D01*
X226335Y454372D01*
X226104Y454272D01*
X225886Y454156D01*
X225682Y454026D01*
X225491Y453880D01*
X225315Y453720D01*
X225152Y453544D01*
X225004Y453354D01*
X224870Y453149D01*
X224749Y452929D01*
X224643Y452695D01*
X225656Y452359D01*
X225815Y452683D01*
X226014Y452966D01*
X226256Y453209D01*
X226538Y453411D01*
X226856Y453571D01*
X227203Y453684D01*
X227577Y453753D01*
X227980Y453775D01*
X228299Y453762D01*
X228599Y453723D01*
X228881Y453657D01*
X229145Y453565D01*
X229391Y453446D01*
X229618Y453301D01*
X229828Y453130D01*
X230019Y452933D01*
X230189Y452712D01*
X230337Y452472D01*
X230462Y452213D01*
X230565Y451934D01*
X230644Y451635D01*
X230701Y451317D01*
X230735Y450980D01*
X230747Y450623D01*
X230735Y450269D01*
X230699Y449933D01*
X230640Y449615D01*
X230557Y449314D01*
X230450Y449032D01*
X230320Y448767D01*
X230166Y448520D01*
X229988Y448290D01*
X229790Y448083D01*
X229575Y447904D01*
X229344Y447753D01*
X229096Y447629D01*
X228831Y447532D01*
X228549Y447463D01*
X228251Y447422D01*
X227936Y447408D01*
X227732Y447415D01*
X227534Y447434D01*
X227343Y447466D01*
X227158Y447511D01*
X226808Y447639D01*
X226484Y447818D01*
X226185Y448049D01*
X225912Y448331D01*
X225665Y448664D01*
X225444Y449049D01*
X224570Y448612D01*
X224698Y448365D01*
X224838Y448133D01*
X224991Y447916D01*
X225156Y447715D01*
X225333Y447529D01*
X225523Y447357D01*
X225725Y447202D01*
X225939Y447061D01*
X226164Y446936D01*
X226398Y446828D01*
X226641Y446737D01*
X226892Y446662D01*
X227152Y446604D01*
X227421Y446562D01*
X227699Y446537D01*
X227986Y446529D01*
X228279Y446537D01*
G37*
G36*
X217183Y447352D02*
X217032Y447670D01*
X216866Y447969D01*
X216683Y448248D01*
X216485Y448509D01*
X216063Y448986D01*
X215620Y449416D01*
X215169Y449807D01*
X214721Y450169D01*
X214298Y450516D01*
X213918Y450863D01*
X213594Y451219D01*
X213457Y451403D01*
X213338Y451591D01*
X213241Y451788D01*
X213172Y451997D01*
X213131Y452219D01*
X213117Y452454D01*
X213141Y452760D01*
X213212Y453031D01*
X213331Y453264D01*
X213498Y453462D01*
X213707Y453619D01*
X213953Y453731D01*
X214236Y453798D01*
X214556Y453820D01*
X214864Y453798D01*
X215144Y453733D01*
X215395Y453623D01*
X215617Y453470D01*
X215804Y453277D01*
X215949Y453049D01*
X216049Y452786D01*
X216107Y452487D01*
X217138Y452583D01*
X217101Y452813D01*
X217046Y453032D01*
X216972Y453238D01*
X216881Y453432D01*
X216771Y453615D01*
X216644Y453785D01*
X216498Y453943D01*
X216334Y454089D01*
X216155Y454220D01*
X215964Y454334D01*
X215760Y454430D01*
X215544Y454509D01*
X215315Y454570D01*
X215075Y454614D01*
X214822Y454640D01*
X214556Y454649D01*
X214267Y454640D01*
X213994Y454614D01*
X213739Y454570D01*
X213501Y454508D01*
X213281Y454429D01*
X213077Y454332D01*
X212891Y454218D01*
X212722Y454086D01*
X212572Y453938D01*
X212442Y453775D01*
X212331Y453598D01*
X212241Y453405D01*
X212171Y453198D01*
X212121Y452976D01*
X212091Y452739D01*
X212081Y452487D01*
X212094Y452258D01*
X212134Y452030D01*
X212199Y451802D01*
X212291Y451575D01*
X212409Y451348D01*
X212552Y451121D01*
X212721Y450894D01*
X212915Y450667D01*
X213170Y450409D01*
X213519Y450089D01*
X214500Y449262D01*
X215078Y448761D01*
X215525Y448313D01*
X215702Y448103D01*
X215853Y447897D01*
X215977Y447696D01*
X216074Y447498D01*
X211958Y447498D01*
X211958Y446641D01*
X217183Y446641D01*
X217183Y447352D01*
G37*
G36*
X223261Y447498D02*
X221250Y447498D01*
X221250Y453568D01*
X223031Y452297D01*
X223031Y453249D01*
X221166Y454531D01*
X220237Y454531D01*
X220237Y447498D01*
X218316Y447498D01*
X218316Y446641D01*
X223261Y446641D01*
X223261Y447498D01*
G37*
G36*
X232279Y486937D02*
X232562Y486960D01*
X232835Y486999D01*
X233098Y487053D01*
X233351Y487123D01*
X233594Y487208D01*
X233827Y487308D01*
X234050Y487425D01*
X234261Y487555D01*
X234459Y487699D01*
X234644Y487856D01*
X234817Y488027D01*
X234976Y488210D01*
X235123Y488407D01*
X235256Y488618D01*
X235377Y488841D01*
X235484Y489077D01*
X235577Y489323D01*
X235655Y489580D01*
X235719Y489847D01*
X235769Y490125D01*
X235805Y490414D01*
X235826Y490713D01*
X235833Y491023D01*
X235817Y491482D01*
X235770Y491915D01*
X235690Y492323D01*
X235578Y492705D01*
X235435Y493062D01*
X235260Y493393D01*
X235053Y493699D01*
X234814Y493979D01*
X234547Y494230D01*
X234255Y494447D01*
X233939Y494631D01*
X233599Y494782D01*
X233234Y494899D01*
X232844Y494982D01*
X232430Y495032D01*
X231992Y495049D01*
X231683Y495041D01*
X231388Y495018D01*
X231105Y494980D01*
X230835Y494926D01*
X230579Y494856D01*
X230335Y494772D01*
X230104Y494672D01*
X229886Y494556D01*
X229682Y494426D01*
X229491Y494280D01*
X229315Y494120D01*
X229152Y493944D01*
X229004Y493754D01*
X228870Y493549D01*
X228749Y493329D01*
X228643Y493095D01*
X229656Y492759D01*
X229815Y493083D01*
X230014Y493366D01*
X230256Y493609D01*
X230538Y493811D01*
X230856Y493971D01*
X231203Y494084D01*
X231577Y494153D01*
X231980Y494175D01*
X232299Y494162D01*
X232599Y494123D01*
X232881Y494057D01*
X233145Y493965D01*
X233391Y493846D01*
X233618Y493701D01*
X233828Y493530D01*
X234019Y493333D01*
X234189Y493112D01*
X234337Y492872D01*
X234462Y492613D01*
X234565Y492334D01*
X234644Y492035D01*
X234701Y491717D01*
X234735Y491380D01*
X234747Y491023D01*
X234735Y490669D01*
X234699Y490333D01*
X234640Y490015D01*
X234557Y489714D01*
X234450Y489432D01*
X234320Y489167D01*
X234166Y488920D01*
X233988Y488690D01*
X233790Y488483D01*
X233575Y488304D01*
X233344Y488153D01*
X233096Y488029D01*
X232831Y487932D01*
X232549Y487863D01*
X232251Y487822D01*
X231936Y487808D01*
X231732Y487815D01*
X231534Y487834D01*
X231343Y487866D01*
X231158Y487911D01*
X230808Y488039D01*
X230484Y488218D01*
X230185Y488449D01*
X229912Y488731D01*
X229665Y489064D01*
X229444Y489449D01*
X228570Y489012D01*
X228698Y488765D01*
X228838Y488533D01*
X228991Y488316D01*
X229156Y488115D01*
X229333Y487929D01*
X229523Y487757D01*
X229725Y487602D01*
X229939Y487461D01*
X230164Y487336D01*
X230398Y487228D01*
X230641Y487137D01*
X230892Y487062D01*
X231152Y487004D01*
X231421Y486962D01*
X231699Y486937D01*
X231986Y486929D01*
X232279Y486937D01*
G37*
G36*
X218854Y486937D02*
X219131Y486963D01*
X219392Y487005D01*
X219639Y487064D01*
X219871Y487140D01*
X220087Y487233D01*
X220288Y487343D01*
X220474Y487469D01*
X220644Y487613D01*
X220795Y487772D01*
X220928Y487948D01*
X221043Y488139D01*
X221140Y488347D01*
X221219Y488571D01*
X221280Y488812D01*
X221323Y489068D01*
X220281Y489163D01*
X220210Y488835D01*
X220098Y488551D01*
X219945Y488310D01*
X219750Y488113D01*
X219515Y487960D01*
X219238Y487851D01*
X218921Y487785D01*
X218562Y487763D01*
X218201Y487787D01*
X217882Y487857D01*
X217604Y487974D01*
X217366Y488139D01*
X217265Y488238D01*
X217176Y488349D01*
X217102Y488471D01*
X217041Y488605D01*
X216993Y488750D01*
X216959Y488906D01*
X216939Y489074D01*
X216932Y489253D01*
X216940Y489410D01*
X216963Y489557D01*
X217002Y489696D01*
X217056Y489826D01*
X217126Y489948D01*
X217211Y490060D01*
X217312Y490163D01*
X217428Y490258D01*
X217559Y490343D01*
X217703Y490416D01*
X217861Y490478D01*
X218033Y490529D01*
X218418Y490597D01*
X218859Y490619D01*
X219430Y490619D01*
X219430Y491493D01*
X218881Y491493D01*
X218490Y491516D01*
X218145Y491583D01*
X217847Y491696D01*
X217596Y491854D01*
X217396Y492052D01*
X217318Y492164D01*
X217254Y492285D01*
X217204Y492414D01*
X217168Y492552D01*
X217147Y492699D01*
X217139Y492854D01*
X217163Y493154D01*
X217233Y493420D01*
X217349Y493653D01*
X217512Y493853D01*
X217721Y494014D01*
X217975Y494128D01*
X218274Y494197D01*
X218618Y494220D01*
X218935Y494199D01*
X219221Y494135D01*
X219474Y494028D01*
X219696Y493879D01*
X219880Y493690D01*
X220021Y493467D01*
X220119Y493209D01*
X220175Y492915D01*
X221188Y492994D01*
X221151Y493229D01*
X221096Y493452D01*
X221023Y493661D01*
X220931Y493856D01*
X220822Y494039D01*
X220694Y494208D01*
X220548Y494363D01*
X220385Y494506D01*
X220206Y494633D01*
X220014Y494743D01*
X219810Y494837D01*
X219594Y494913D01*
X219366Y494973D01*
X219125Y495015D01*
X218872Y495040D01*
X218607Y495049D01*
X218318Y495040D01*
X218046Y495014D01*
X217791Y494971D01*
X217552Y494911D01*
X217329Y494833D01*
X217124Y494739D01*
X216934Y494627D01*
X216761Y494497D01*
X216607Y494353D01*
X216474Y494194D01*
X216360Y494023D01*
X216268Y493837D01*
X216196Y493638D01*
X216145Y493426D01*
X216114Y493200D01*
X216103Y492960D01*
X216110Y492776D01*
X216130Y492600D01*
X216163Y492433D01*
X216209Y492275D01*
X216269Y492126D01*
X216341Y491985D01*
X216526Y491731D01*
X216762Y491513D01*
X217045Y491334D01*
X217376Y491193D01*
X217755Y491090D01*
X217755Y491067D01*
X217540Y491037D01*
X217338Y490995D01*
X217147Y490939D01*
X216969Y490871D01*
X216803Y490791D01*
X216649Y490698D01*
X216507Y490592D01*
X216378Y490474D01*
X216262Y490345D01*
X216162Y490208D01*
X216078Y490064D01*
X216008Y489911D01*
X215954Y489750D01*
X215916Y489581D01*
X215893Y489404D01*
X215885Y489219D01*
X215896Y488954D01*
X215928Y488704D01*
X215983Y488470D01*
X216059Y488251D01*
X216156Y488047D01*
X216276Y487859D01*
X216417Y487686D01*
X216579Y487528D01*
X216762Y487388D01*
X216964Y487266D01*
X217184Y487163D01*
X217422Y487079D01*
X217679Y487013D01*
X217955Y486966D01*
X218249Y486938D01*
X218562Y486929D01*
X218854Y486937D01*
G37*
G36*
X227261Y487898D02*
X225250Y487898D01*
X225250Y493968D01*
X227031Y492697D01*
X227031Y493649D01*
X225166Y494931D01*
X224237Y494931D01*
X224237Y487898D01*
X222316Y487898D01*
X222316Y487041D01*
X227261Y487041D01*
X227261Y487898D01*
G37*
G36*
X117187Y493062D02*
X114578Y493062D01*
X114091Y493047D01*
X113633Y493000D01*
X113203Y492921D01*
X112802Y492811D01*
X112429Y492670D01*
X112086Y492497D01*
X111770Y492293D01*
X111484Y492057D01*
X111229Y491793D01*
X111007Y491502D01*
X110820Y491184D01*
X110667Y490840D01*
X110548Y490469D01*
X110463Y490072D01*
X110412Y489649D01*
X110395Y489198D01*
X110402Y488898D01*
X110424Y488607D01*
X110462Y488326D01*
X110514Y488054D01*
X110581Y487792D01*
X110662Y487539D01*
X110759Y487296D01*
X110871Y487062D01*
X110996Y486840D01*
X111133Y486631D01*
X111283Y486436D01*
X111446Y486253D01*
X111621Y486085D01*
X111808Y485930D01*
X112008Y485788D01*
X112220Y485659D01*
X112443Y485545D01*
X112674Y485446D01*
X112913Y485362D01*
X113161Y485294D01*
X113417Y485241D01*
X113682Y485202D01*
X113955Y485180D01*
X114236Y485172D01*
X117187Y485172D01*
X117187Y493062D01*
G37*
%LPC*%
G36*
X114359Y486029D02*
X113938Y486053D01*
X113544Y486124D01*
X113176Y486243D01*
X112833Y486410D01*
X112523Y486621D01*
X112252Y486874D01*
X112018Y487170D01*
X111823Y487507D01*
X111668Y487882D01*
X111558Y488288D01*
X111492Y488727D01*
X111470Y489198D01*
X111482Y489554D01*
X111520Y489888D01*
X111583Y490201D01*
X111671Y490491D01*
X111784Y490760D01*
X111922Y491007D01*
X112085Y491232D01*
X112273Y491436D01*
X112486Y491616D01*
X112720Y491772D01*
X112977Y491905D01*
X113257Y492013D01*
X113559Y492097D01*
X113884Y492157D01*
X114231Y492194D01*
X114600Y492206D01*
X116118Y492206D01*
X116118Y486029D01*
X114359Y486029D01*
G37*
%LPD*%
G36*
X105865Y486958D02*
X109584Y486958D01*
X109584Y487742D01*
X105972Y493062D01*
X104913Y493062D01*
X104913Y487754D01*
X103805Y487754D01*
X103805Y486958D01*
X104913Y486958D01*
X104913Y485172D01*
X105865Y485172D01*
X105865Y486958D01*
G37*
%LPC*%
G36*
X105865Y487754D02*
X105865Y491926D01*
X106022Y491629D01*
X106241Y491259D01*
X108262Y488280D01*
X108565Y487866D01*
X108654Y487754D01*
X105865Y487754D01*
G37*
%LPD*%
G36*
X320598Y473832D02*
X320881Y473855D01*
X321154Y473894D01*
X321417Y473948D01*
X321670Y474018D01*
X321913Y474103D01*
X322146Y474203D01*
X322368Y474320D01*
X322580Y474450D01*
X322778Y474594D01*
X322963Y474751D01*
X323136Y474922D01*
X323295Y475105D01*
X323442Y475302D01*
X323575Y475513D01*
X323696Y475736D01*
X323803Y475972D01*
X323895Y476218D01*
X323974Y476475D01*
X324038Y476742D01*
X324088Y477020D01*
X324123Y477309D01*
X324145Y477608D01*
X324152Y477918D01*
X324136Y478377D01*
X324088Y478810D01*
X324009Y479218D01*
X323897Y479600D01*
X323754Y479957D01*
X323579Y480288D01*
X323372Y480594D01*
X323133Y480874D01*
X322866Y481125D01*
X322574Y481342D01*
X322258Y481526D01*
X321918Y481677D01*
X321553Y481794D01*
X321163Y481877D01*
X320749Y481927D01*
X320310Y481944D01*
X320002Y481936D01*
X319706Y481913D01*
X319424Y481875D01*
X319154Y481821D01*
X318897Y481751D01*
X318654Y481667D01*
X318423Y481567D01*
X318205Y481451D01*
X318000Y481321D01*
X317810Y481175D01*
X317634Y481015D01*
X317471Y480839D01*
X317323Y480649D01*
X317188Y480444D01*
X317068Y480224D01*
X316962Y479990D01*
X317975Y479654D01*
X318133Y479978D01*
X318333Y480261D01*
X318574Y480504D01*
X318857Y480706D01*
X319175Y480866D01*
X319522Y480979D01*
X319896Y481048D01*
X320299Y481070D01*
X320618Y481057D01*
X320918Y481018D01*
X321200Y480952D01*
X321464Y480860D01*
X321710Y480741D01*
X321937Y480596D01*
X322147Y480425D01*
X322338Y480228D01*
X322508Y480007D01*
X322656Y479767D01*
X322781Y479508D01*
X322884Y479229D01*
X322963Y478930D01*
X323020Y478612D01*
X323054Y478275D01*
X323066Y477918D01*
X323054Y477564D01*
X323018Y477228D01*
X322959Y476910D01*
X322876Y476609D01*
X322769Y476327D01*
X322639Y476062D01*
X322485Y475815D01*
X322307Y475585D01*
X322109Y475378D01*
X321894Y475199D01*
X321663Y475048D01*
X321414Y474924D01*
X321149Y474827D01*
X320868Y474758D01*
X320569Y474717D01*
X320254Y474703D01*
X320050Y474710D01*
X319853Y474729D01*
X319662Y474761D01*
X319477Y474806D01*
X319127Y474934D01*
X318803Y475113D01*
X318504Y475344D01*
X318231Y475626D01*
X317984Y475959D01*
X317762Y476344D01*
X316889Y475907D01*
X317017Y475660D01*
X317157Y475428D01*
X317310Y475211D01*
X317475Y475010D01*
X317652Y474824D01*
X317842Y474652D01*
X318044Y474497D01*
X318258Y474356D01*
X318483Y474231D01*
X318717Y474123D01*
X318959Y474032D01*
X319211Y473957D01*
X319471Y473899D01*
X319740Y473857D01*
X320018Y473832D01*
X320305Y473824D01*
X320598Y473832D01*
G37*
G36*
X315580Y474793D02*
X313569Y474793D01*
X313569Y480863D01*
X315350Y479592D01*
X315350Y480544D01*
X313485Y481826D01*
X312556Y481826D01*
X312556Y474793D01*
X310635Y474793D01*
X310635Y473936D01*
X315580Y473936D01*
X315580Y474793D01*
G37*
G36*
X326864Y481826D02*
X325794Y481826D01*
X325794Y473936D01*
X326864Y473936D01*
X326864Y481826D01*
G37*
G36*
X314405Y441074D02*
X314619Y441092D01*
X314822Y441123D01*
X315013Y441165D01*
X315192Y441220D01*
X315360Y441287D01*
X315516Y441366D01*
X315661Y441457D01*
X315796Y441562D01*
X315920Y441682D01*
X316035Y441816D01*
X316140Y441966D01*
X316319Y442310D01*
X316459Y442714D01*
X315496Y442866D01*
X315409Y442635D01*
X315300Y442434D01*
X315167Y442265D01*
X315012Y442126D01*
X314834Y442019D01*
X314633Y441942D01*
X314410Y441895D01*
X314163Y441880D01*
X313953Y441893D01*
X313754Y441930D01*
X313568Y441993D01*
X313393Y442082D01*
X313232Y442195D01*
X313082Y442334D01*
X312945Y442497D01*
X312819Y442686D01*
X312708Y442899D01*
X312610Y443133D01*
X312526Y443388D01*
X312457Y443665D01*
X312402Y443963D01*
X312361Y444283D01*
X312334Y444625D01*
X312321Y444988D01*
X312453Y444748D01*
X312625Y444534D01*
X312837Y444344D01*
X313088Y444179D01*
X313366Y444045D01*
X313658Y443950D01*
X313963Y443893D01*
X314281Y443874D01*
X314540Y443885D01*
X314786Y443919D01*
X315019Y443976D01*
X315239Y444056D01*
X315445Y444158D01*
X315638Y444283D01*
X315817Y444431D01*
X315983Y444602D01*
X316133Y444791D01*
X316263Y444995D01*
X316372Y445215D01*
X316462Y445449D01*
X316532Y445698D01*
X316582Y445961D01*
X316612Y446240D01*
X316622Y446534D01*
X316611Y446835D01*
X316578Y447119D01*
X316524Y447387D01*
X316448Y447639D01*
X316351Y447874D01*
X316231Y448092D01*
X316090Y448294D01*
X315927Y448480D01*
X315745Y448646D01*
X315546Y448789D01*
X315330Y448911D01*
X315097Y449011D01*
X314847Y449088D01*
X314580Y449144D01*
X314296Y449177D01*
X313995Y449188D01*
X313676Y449173D01*
X313377Y449127D01*
X313098Y449051D01*
X312839Y448944D01*
X312600Y448807D01*
X312381Y448640D01*
X312181Y448442D01*
X312002Y448214D01*
X311843Y447955D01*
X311705Y447665D01*
X311589Y447345D01*
X311494Y446994D01*
X311420Y446613D01*
X311367Y446201D01*
X311335Y445758D01*
X311324Y445285D01*
X311336Y444791D01*
X311371Y444327D01*
X311429Y443892D01*
X311510Y443487D01*
X311614Y443111D01*
X311742Y442765D01*
X311892Y442448D01*
X312066Y442160D01*
X312262Y441904D01*
X312477Y441682D01*
X312711Y441495D01*
X312966Y441341D01*
X313240Y441222D01*
X313534Y441136D01*
X313847Y441085D01*
X314180Y441068D01*
X314405Y441074D01*
G37*
G36*
X327679Y441076D02*
X327962Y441099D01*
X328235Y441138D01*
X328498Y441192D01*
X328751Y441262D01*
X328994Y441347D01*
X329227Y441447D01*
X329450Y441564D01*
X329661Y441694D01*
X329859Y441838D01*
X330044Y441995D01*
X330217Y442166D01*
X330376Y442349D01*
X330523Y442546D01*
X330656Y442757D01*
X330777Y442980D01*
X330884Y443216D01*
X330977Y443462D01*
X331055Y443719D01*
X331119Y443986D01*
X331169Y444264D01*
X331205Y444553D01*
X331226Y444852D01*
X331233Y445162D01*
X331217Y445621D01*
X331170Y446054D01*
X331090Y446462D01*
X330978Y446844D01*
X330835Y447201D01*
X330660Y447532D01*
X330453Y447838D01*
X330214Y448118D01*
X329947Y448369D01*
X329655Y448586D01*
X329339Y448770D01*
X328999Y448921D01*
X328634Y449038D01*
X328244Y449121D01*
X327830Y449171D01*
X327392Y449188D01*
X327083Y449180D01*
X326788Y449157D01*
X326505Y449119D01*
X326235Y449065D01*
X325979Y448995D01*
X325735Y448911D01*
X325504Y448811D01*
X325286Y448695D01*
X325082Y448565D01*
X324891Y448419D01*
X324715Y448259D01*
X324552Y448083D01*
X324404Y447893D01*
X324270Y447688D01*
X324149Y447468D01*
X324043Y447234D01*
X325056Y446898D01*
X325215Y447222D01*
X325414Y447505D01*
X325656Y447748D01*
X325938Y447950D01*
X326256Y448110D01*
X326603Y448223D01*
X326977Y448292D01*
X327380Y448314D01*
X327699Y448301D01*
X327999Y448262D01*
X328281Y448196D01*
X328545Y448104D01*
X328791Y447985D01*
X329018Y447840D01*
X329228Y447669D01*
X329419Y447472D01*
X329589Y447251D01*
X329737Y447011D01*
X329862Y446752D01*
X329965Y446473D01*
X330044Y446174D01*
X330101Y445856D01*
X330135Y445519D01*
X330147Y445162D01*
X330135Y444808D01*
X330099Y444472D01*
X330040Y444154D01*
X329957Y443853D01*
X329850Y443571D01*
X329720Y443306D01*
X329566Y443059D01*
X329388Y442829D01*
X329190Y442622D01*
X328975Y442443D01*
X328744Y442292D01*
X328496Y442168D01*
X328231Y442071D01*
X327949Y442002D01*
X327651Y441961D01*
X327336Y441947D01*
X327132Y441954D01*
X326934Y441973D01*
X326743Y442005D01*
X326558Y442050D01*
X326208Y442178D01*
X325884Y442357D01*
X325585Y442588D01*
X325312Y442870D01*
X325065Y443203D01*
X324844Y443588D01*
X323970Y443151D01*
X324098Y442904D01*
X324238Y442672D01*
X324391Y442455D01*
X324556Y442254D01*
X324733Y442068D01*
X324923Y441896D01*
X325125Y441741D01*
X325339Y441600D01*
X325564Y441475D01*
X325798Y441367D01*
X326041Y441276D01*
X326292Y441201D01*
X326552Y441143D01*
X326821Y441101D01*
X327099Y441076D01*
X327386Y441068D01*
X327679Y441076D01*
G37*
G36*
X322661Y442037D02*
X320650Y442037D01*
X320650Y448107D01*
X322431Y446836D01*
X322431Y447788D01*
X320566Y449070D01*
X319637Y449070D01*
X319637Y442037D01*
X317716Y442037D01*
X317716Y441180D01*
X322661Y441180D01*
X322661Y442037D01*
G37*
%LPC*%
G36*
X313826Y444681D02*
X313619Y444718D01*
X313420Y444781D01*
X313228Y444868D01*
X313051Y444977D01*
X312893Y445108D01*
X312755Y445259D01*
X312637Y445430D01*
X312543Y445619D01*
X312476Y445820D01*
X312435Y446033D01*
X312422Y446259D01*
X312429Y446491D01*
X312449Y446712D01*
X312483Y446921D01*
X312531Y447118D01*
X312592Y447304D01*
X312668Y447478D01*
X312756Y447640D01*
X312859Y447791D01*
X312972Y447927D01*
X313096Y448044D01*
X313228Y448144D01*
X313370Y448225D01*
X313521Y448289D01*
X313681Y448334D01*
X313850Y448361D01*
X314029Y448370D01*
X314206Y448363D01*
X314374Y448339D01*
X314532Y448301D01*
X314680Y448246D01*
X314819Y448177D01*
X314948Y448092D01*
X315067Y447991D01*
X315177Y447875D01*
X315275Y447745D01*
X315361Y447605D01*
X315433Y447454D01*
X315492Y447292D01*
X315538Y447119D01*
X315571Y446934D01*
X315590Y446740D01*
X315597Y446534D01*
X315590Y446324D01*
X315571Y446125D01*
X315538Y445938D01*
X315492Y445761D01*
X315433Y445597D01*
X315361Y445443D01*
X315275Y445301D01*
X315177Y445170D01*
X315067Y445053D01*
X314948Y444951D01*
X314820Y444865D01*
X314683Y444794D01*
X314536Y444739D01*
X314380Y444700D01*
X314215Y444677D01*
X314040Y444669D01*
X313826Y444681D01*
G37*
%LPD*%
G36*
X255714Y441494D02*
X256022Y441543D01*
X256310Y441624D01*
X256576Y441737D01*
X256821Y441883D01*
X257044Y442061D01*
X257247Y442271D01*
X257428Y442514D01*
X257588Y442788D01*
X257727Y443091D01*
X257845Y443425D01*
X257941Y443788D01*
X258015Y444181D01*
X258069Y444603D01*
X258101Y445056D01*
X258111Y445538D01*
X258101Y446030D01*
X258070Y446491D01*
X258018Y446919D01*
X257946Y447316D01*
X257852Y447681D01*
X257738Y448014D01*
X257603Y448315D01*
X257448Y448584D01*
X257270Y448822D01*
X257068Y449028D01*
X256842Y449202D01*
X256592Y449345D01*
X256318Y449455D01*
X256019Y449535D01*
X255697Y449582D01*
X255351Y449598D01*
X255013Y449582D01*
X254699Y449534D01*
X254408Y449454D01*
X254139Y449342D01*
X253893Y449198D01*
X253670Y449022D01*
X253470Y448813D01*
X253293Y448573D01*
X253137Y448302D01*
X253002Y447999D01*
X252888Y447666D01*
X252795Y447302D01*
X252722Y446907D01*
X252671Y446482D01*
X252639Y446025D01*
X252629Y445538D01*
X252640Y445058D01*
X252673Y444608D01*
X252727Y444187D01*
X252803Y443795D01*
X252901Y443432D01*
X253021Y443099D01*
X253163Y442795D01*
X253326Y442520D01*
X253511Y442275D01*
X253716Y442064D01*
X253942Y441885D01*
X254189Y441738D01*
X254457Y441624D01*
X254745Y441543D01*
X255054Y441494D01*
X255384Y441478D01*
X255714Y441494D01*
G37*
%LPC*%
G36*
X255158Y442314D02*
X254958Y442351D01*
X254772Y442413D01*
X254602Y442500D01*
X254446Y442612D01*
X254305Y442748D01*
X254179Y442910D01*
X254068Y443096D01*
X253971Y443308D01*
X253887Y443547D01*
X253816Y443812D01*
X253757Y444104D01*
X253712Y444423D01*
X253680Y444768D01*
X253660Y445140D01*
X253654Y445538D01*
X253660Y445950D01*
X253679Y446333D01*
X253709Y446687D01*
X253753Y447011D01*
X253808Y447305D01*
X253876Y447571D01*
X253956Y447807D01*
X254049Y448013D01*
X254155Y448193D01*
X254278Y448349D01*
X254417Y448481D01*
X254572Y448589D01*
X254742Y448672D01*
X254929Y448732D01*
X255132Y448768D01*
X255351Y448780D01*
X255575Y448769D01*
X255783Y448733D01*
X255974Y448674D01*
X256149Y448591D01*
X256308Y448485D01*
X256450Y448355D01*
X256577Y448202D01*
X256686Y448024D01*
X256781Y447820D01*
X256864Y447585D01*
X256934Y447320D01*
X256991Y447025D01*
X257035Y446699D01*
X257067Y446342D01*
X257086Y445955D01*
X257092Y445538D01*
X257086Y445132D01*
X257066Y444754D01*
X257034Y444405D01*
X256989Y444083D01*
X256931Y443790D01*
X256861Y443525D01*
X256777Y443288D01*
X256681Y443080D01*
X256570Y442897D01*
X256445Y442739D01*
X256304Y442605D01*
X256148Y442496D01*
X255977Y442411D01*
X255791Y442350D01*
X255589Y442313D01*
X255373Y442301D01*
X255158Y442314D01*
G37*
%LPD*%
G36*
X269079Y441486D02*
X269362Y441509D01*
X269635Y441548D01*
X269898Y441602D01*
X270151Y441672D01*
X270394Y441757D01*
X270627Y441857D01*
X270850Y441974D01*
X271061Y442104D01*
X271259Y442248D01*
X271444Y442405D01*
X271617Y442576D01*
X271776Y442759D01*
X271923Y442956D01*
X272056Y443167D01*
X272177Y443390D01*
X272284Y443626D01*
X272377Y443872D01*
X272455Y444129D01*
X272519Y444396D01*
X272569Y444674D01*
X272605Y444963D01*
X272626Y445262D01*
X272633Y445572D01*
X272617Y446031D01*
X272570Y446464D01*
X272490Y446872D01*
X272378Y447254D01*
X272235Y447611D01*
X272060Y447942D01*
X271853Y448248D01*
X271614Y448528D01*
X271347Y448779D01*
X271055Y448996D01*
X270739Y449180D01*
X270399Y449331D01*
X270034Y449448D01*
X269644Y449531D01*
X269230Y449581D01*
X268792Y449598D01*
X268483Y449590D01*
X268188Y449567D01*
X267905Y449529D01*
X267635Y449475D01*
X267379Y449405D01*
X267135Y449321D01*
X266904Y449221D01*
X266686Y449105D01*
X266482Y448975D01*
X266291Y448829D01*
X266115Y448669D01*
X265952Y448493D01*
X265804Y448303D01*
X265670Y448098D01*
X265549Y447878D01*
X265443Y447644D01*
X266456Y447308D01*
X266615Y447632D01*
X266814Y447915D01*
X267056Y448158D01*
X267338Y448360D01*
X267656Y448520D01*
X268003Y448633D01*
X268377Y448702D01*
X268780Y448724D01*
X269099Y448711D01*
X269399Y448672D01*
X269681Y448606D01*
X269945Y448514D01*
X270191Y448395D01*
X270418Y448250D01*
X270628Y448079D01*
X270819Y447882D01*
X270989Y447661D01*
X271137Y447421D01*
X271262Y447162D01*
X271365Y446883D01*
X271444Y446584D01*
X271501Y446266D01*
X271535Y445929D01*
X271547Y445572D01*
X271535Y445218D01*
X271499Y444882D01*
X271440Y444564D01*
X271357Y444263D01*
X271250Y443981D01*
X271120Y443716D01*
X270966Y443469D01*
X270788Y443239D01*
X270590Y443032D01*
X270375Y442853D01*
X270144Y442702D01*
X269896Y442578D01*
X269631Y442481D01*
X269349Y442412D01*
X269051Y442371D01*
X268736Y442357D01*
X268532Y442364D01*
X268334Y442383D01*
X268143Y442415D01*
X267958Y442460D01*
X267608Y442588D01*
X267284Y442767D01*
X266985Y442998D01*
X266712Y443280D01*
X266465Y443613D01*
X266244Y443998D01*
X265370Y443561D01*
X265498Y443314D01*
X265638Y443082D01*
X265791Y442865D01*
X265956Y442664D01*
X266133Y442478D01*
X266323Y442306D01*
X266525Y442151D01*
X266739Y442010D01*
X266964Y441885D01*
X267198Y441777D01*
X267441Y441686D01*
X267692Y441611D01*
X267952Y441553D01*
X268221Y441511D01*
X268499Y441486D01*
X268786Y441478D01*
X269079Y441486D01*
G37*
G36*
X264358Y442301D02*
X264207Y442619D01*
X264041Y442918D01*
X263858Y443197D01*
X263660Y443458D01*
X263238Y443935D01*
X262795Y444365D01*
X262344Y444756D01*
X261896Y445118D01*
X261473Y445465D01*
X261093Y445812D01*
X260769Y446168D01*
X260632Y446352D01*
X260513Y446540D01*
X260416Y446737D01*
X260347Y446946D01*
X260306Y447168D01*
X260292Y447403D01*
X260316Y447709D01*
X260387Y447980D01*
X260506Y448213D01*
X260673Y448411D01*
X260882Y448568D01*
X261128Y448680D01*
X261411Y448747D01*
X261731Y448769D01*
X262039Y448747D01*
X262319Y448682D01*
X262570Y448572D01*
X262792Y448419D01*
X262979Y448226D01*
X263124Y447998D01*
X263224Y447735D01*
X263282Y447436D01*
X264313Y447532D01*
X264276Y447762D01*
X264221Y447981D01*
X264147Y448187D01*
X264056Y448381D01*
X263946Y448564D01*
X263819Y448734D01*
X263673Y448892D01*
X263509Y449038D01*
X263330Y449169D01*
X263139Y449283D01*
X262935Y449379D01*
X262719Y449458D01*
X262490Y449519D01*
X262250Y449563D01*
X261997Y449589D01*
X261731Y449598D01*
X261442Y449589D01*
X261169Y449563D01*
X260914Y449519D01*
X260676Y449457D01*
X260456Y449378D01*
X260252Y449281D01*
X260066Y449167D01*
X259897Y449035D01*
X259747Y448887D01*
X259617Y448724D01*
X259506Y448547D01*
X259416Y448354D01*
X259346Y448147D01*
X259296Y447925D01*
X259266Y447688D01*
X259256Y447436D01*
X259269Y447207D01*
X259309Y446979D01*
X259374Y446751D01*
X259466Y446524D01*
X259584Y446297D01*
X259727Y446070D01*
X259896Y445843D01*
X260090Y445616D01*
X260345Y445358D01*
X260694Y445038D01*
X261675Y444211D01*
X262253Y443710D01*
X262700Y443262D01*
X262877Y443052D01*
X263028Y442846D01*
X263152Y442645D01*
X263249Y442447D01*
X259133Y442447D01*
X259133Y441590D01*
X264358Y441590D01*
X264358Y442301D01*
G37*
G36*
X453379Y247701D02*
X453662Y247724D01*
X453935Y247763D01*
X454198Y247817D01*
X454451Y247887D01*
X454694Y247972D01*
X454927Y248072D01*
X455150Y248189D01*
X455361Y248319D01*
X455559Y248463D01*
X455744Y248620D01*
X455917Y248791D01*
X456076Y248974D01*
X456223Y249171D01*
X456356Y249382D01*
X456477Y249605D01*
X456584Y249841D01*
X456677Y250087D01*
X456755Y250344D01*
X456819Y250611D01*
X456869Y250889D01*
X456905Y251178D01*
X456926Y251477D01*
X456933Y251787D01*
X456917Y252246D01*
X456870Y252679D01*
X456790Y253087D01*
X456678Y253469D01*
X456535Y253826D01*
X456360Y254157D01*
X456153Y254463D01*
X455914Y254743D01*
X455647Y254994D01*
X455355Y255211D01*
X455039Y255395D01*
X454699Y255546D01*
X454334Y255663D01*
X453944Y255746D01*
X453530Y255796D01*
X453092Y255813D01*
X452783Y255805D01*
X452488Y255782D01*
X452205Y255744D01*
X451935Y255690D01*
X451679Y255620D01*
X451435Y255536D01*
X451204Y255436D01*
X450986Y255320D01*
X450782Y255190D01*
X450591Y255044D01*
X450415Y254884D01*
X450252Y254708D01*
X450104Y254518D01*
X449970Y254313D01*
X449849Y254093D01*
X449743Y253859D01*
X450756Y253523D01*
X450915Y253847D01*
X451114Y254130D01*
X451356Y254373D01*
X451638Y254575D01*
X451956Y254735D01*
X452303Y254848D01*
X452677Y254917D01*
X453080Y254939D01*
X453399Y254926D01*
X453699Y254887D01*
X453981Y254821D01*
X454245Y254729D01*
X454491Y254610D01*
X454718Y254465D01*
X454928Y254294D01*
X455119Y254097D01*
X455289Y253876D01*
X455437Y253636D01*
X455562Y253377D01*
X455665Y253098D01*
X455744Y252799D01*
X455801Y252481D01*
X455835Y252144D01*
X455847Y251787D01*
X455835Y251433D01*
X455799Y251097D01*
X455740Y250779D01*
X455657Y250478D01*
X455550Y250196D01*
X455420Y249931D01*
X455266Y249684D01*
X455088Y249454D01*
X454890Y249247D01*
X454675Y249068D01*
X454444Y248917D01*
X454196Y248793D01*
X453931Y248696D01*
X453649Y248627D01*
X453351Y248586D01*
X453036Y248572D01*
X452832Y248579D01*
X452634Y248598D01*
X452443Y248630D01*
X452258Y248675D01*
X451908Y248803D01*
X451584Y248982D01*
X451285Y249213D01*
X451012Y249495D01*
X450765Y249828D01*
X450544Y250213D01*
X449670Y249776D01*
X449798Y249529D01*
X449938Y249297D01*
X450091Y249080D01*
X450256Y248879D01*
X450433Y248693D01*
X450623Y248521D01*
X450825Y248366D01*
X451039Y248225D01*
X451264Y248100D01*
X451498Y247992D01*
X451741Y247901D01*
X451992Y247826D01*
X452252Y247768D01*
X452521Y247726D01*
X452799Y247701D01*
X453086Y247693D01*
X453379Y247701D01*
G37*
G36*
X448658Y248516D02*
X448507Y248834D01*
X448341Y249133D01*
X448158Y249412D01*
X447960Y249673D01*
X447538Y250150D01*
X447095Y250580D01*
X446644Y250971D01*
X446196Y251333D01*
X445773Y251680D01*
X445393Y252027D01*
X445069Y252383D01*
X444932Y252567D01*
X444813Y252755D01*
X444716Y252952D01*
X444647Y253161D01*
X444606Y253383D01*
X444592Y253618D01*
X444616Y253924D01*
X444687Y254195D01*
X444806Y254428D01*
X444973Y254626D01*
X445182Y254783D01*
X445428Y254895D01*
X445711Y254962D01*
X446031Y254984D01*
X446339Y254962D01*
X446619Y254897D01*
X446870Y254787D01*
X447092Y254634D01*
X447279Y254441D01*
X447424Y254213D01*
X447524Y253950D01*
X447582Y253651D01*
X448613Y253747D01*
X448576Y253977D01*
X448521Y254196D01*
X448447Y254402D01*
X448356Y254596D01*
X448246Y254779D01*
X448119Y254949D01*
X447973Y255107D01*
X447809Y255253D01*
X447630Y255384D01*
X447439Y255498D01*
X447235Y255594D01*
X447019Y255673D01*
X446790Y255734D01*
X446550Y255778D01*
X446297Y255804D01*
X446031Y255813D01*
X445742Y255804D01*
X445469Y255778D01*
X445214Y255734D01*
X444976Y255672D01*
X444756Y255593D01*
X444552Y255496D01*
X444366Y255382D01*
X444197Y255250D01*
X444047Y255102D01*
X443917Y254939D01*
X443806Y254762D01*
X443716Y254569D01*
X443646Y254362D01*
X443596Y254140D01*
X443566Y253903D01*
X443556Y253651D01*
X443569Y253422D01*
X443609Y253194D01*
X443674Y252966D01*
X443766Y252739D01*
X443884Y252512D01*
X444027Y252285D01*
X444196Y252058D01*
X444390Y251831D01*
X444645Y251573D01*
X444994Y251253D01*
X445975Y250426D01*
X446553Y249925D01*
X447000Y249477D01*
X447177Y249267D01*
X447328Y249061D01*
X447452Y248860D01*
X447549Y248662D01*
X443433Y248662D01*
X443433Y247805D01*
X448658Y247805D01*
X448658Y248516D01*
G37*
G36*
X441986Y248662D02*
X439975Y248662D01*
X439975Y254732D01*
X441756Y253461D01*
X441756Y254413D01*
X439891Y255695D01*
X438962Y255695D01*
X438962Y248662D01*
X437041Y248662D01*
X437041Y247805D01*
X441986Y247805D01*
X441986Y248662D01*
G37*
G36*
X452379Y320548D02*
X452662Y320571D01*
X452935Y320610D01*
X453198Y320664D01*
X453451Y320734D01*
X453694Y320819D01*
X453927Y320919D01*
X454150Y321036D01*
X454361Y321166D01*
X454559Y321310D01*
X454744Y321467D01*
X454917Y321638D01*
X455076Y321821D01*
X455223Y322018D01*
X455356Y322229D01*
X455477Y322452D01*
X455584Y322688D01*
X455677Y322934D01*
X455755Y323191D01*
X455819Y323458D01*
X455869Y323736D01*
X455905Y324025D01*
X455926Y324324D01*
X455933Y324634D01*
X455917Y325093D01*
X455870Y325526D01*
X455790Y325934D01*
X455678Y326316D01*
X455535Y326673D01*
X455360Y327004D01*
X455153Y327310D01*
X454914Y327590D01*
X454647Y327841D01*
X454355Y328058D01*
X454039Y328242D01*
X453699Y328393D01*
X453334Y328510D01*
X452944Y328593D01*
X452530Y328643D01*
X452092Y328660D01*
X451783Y328652D01*
X451488Y328629D01*
X451205Y328591D01*
X450935Y328537D01*
X450679Y328467D01*
X450435Y328383D01*
X450204Y328283D01*
X449986Y328167D01*
X449782Y328037D01*
X449591Y327891D01*
X449415Y327731D01*
X449252Y327555D01*
X449104Y327365D01*
X448970Y327160D01*
X448849Y326940D01*
X448743Y326706D01*
X449756Y326370D01*
X449915Y326694D01*
X450114Y326977D01*
X450356Y327220D01*
X450638Y327422D01*
X450956Y327582D01*
X451303Y327695D01*
X451677Y327764D01*
X452080Y327786D01*
X452399Y327773D01*
X452699Y327734D01*
X452981Y327668D01*
X453245Y327576D01*
X453491Y327457D01*
X453718Y327312D01*
X453928Y327141D01*
X454119Y326944D01*
X454289Y326723D01*
X454437Y326483D01*
X454562Y326224D01*
X454665Y325945D01*
X454744Y325646D01*
X454801Y325328D01*
X454835Y324991D01*
X454847Y324634D01*
X454835Y324280D01*
X454799Y323944D01*
X454740Y323626D01*
X454657Y323325D01*
X454550Y323043D01*
X454420Y322778D01*
X454266Y322531D01*
X454088Y322301D01*
X453890Y322094D01*
X453675Y321915D01*
X453444Y321764D01*
X453196Y321640D01*
X452931Y321543D01*
X452649Y321474D01*
X452351Y321433D01*
X452036Y321419D01*
X451832Y321426D01*
X451634Y321445D01*
X451443Y321477D01*
X451258Y321522D01*
X450908Y321650D01*
X450584Y321829D01*
X450285Y322060D01*
X450012Y322342D01*
X449765Y322675D01*
X449544Y323060D01*
X448670Y322623D01*
X448798Y322376D01*
X448938Y322144D01*
X449091Y321927D01*
X449256Y321726D01*
X449433Y321540D01*
X449623Y321368D01*
X449825Y321213D01*
X450039Y321072D01*
X450264Y320947D01*
X450498Y320839D01*
X450741Y320748D01*
X450992Y320673D01*
X451252Y320615D01*
X451521Y320573D01*
X451799Y320548D01*
X452086Y320540D01*
X452379Y320548D01*
G37*
G36*
X441283Y321363D02*
X441132Y321681D01*
X440966Y321980D01*
X440783Y322259D01*
X440585Y322520D01*
X440163Y322997D01*
X439720Y323427D01*
X439269Y323818D01*
X438821Y324180D01*
X438398Y324527D01*
X438018Y324874D01*
X437694Y325230D01*
X437557Y325414D01*
X437438Y325602D01*
X437341Y325799D01*
X437272Y326008D01*
X437231Y326230D01*
X437217Y326465D01*
X437241Y326771D01*
X437312Y327042D01*
X437431Y327275D01*
X437598Y327473D01*
X437807Y327630D01*
X438053Y327742D01*
X438336Y327809D01*
X438656Y327831D01*
X438964Y327809D01*
X439244Y327744D01*
X439495Y327634D01*
X439717Y327481D01*
X439904Y327288D01*
X440049Y327060D01*
X440149Y326797D01*
X440207Y326498D01*
X441238Y326594D01*
X441201Y326824D01*
X441146Y327043D01*
X441072Y327249D01*
X440981Y327443D01*
X440871Y327626D01*
X440744Y327796D01*
X440598Y327954D01*
X440434Y328100D01*
X440255Y328231D01*
X440064Y328345D01*
X439860Y328441D01*
X439644Y328520D01*
X439415Y328581D01*
X439175Y328625D01*
X438922Y328651D01*
X438656Y328660D01*
X438367Y328651D01*
X438094Y328625D01*
X437839Y328581D01*
X437601Y328519D01*
X437381Y328440D01*
X437177Y328343D01*
X436991Y328229D01*
X436822Y328097D01*
X436672Y327949D01*
X436542Y327786D01*
X436431Y327609D01*
X436341Y327416D01*
X436271Y327209D01*
X436221Y326987D01*
X436191Y326750D01*
X436181Y326498D01*
X436194Y326269D01*
X436234Y326041D01*
X436299Y325813D01*
X436391Y325586D01*
X436509Y325359D01*
X436652Y325132D01*
X436821Y324905D01*
X437015Y324678D01*
X437270Y324420D01*
X437619Y324100D01*
X438600Y323273D01*
X439178Y322772D01*
X439625Y322324D01*
X439802Y322114D01*
X439953Y321908D01*
X440077Y321707D01*
X440174Y321509D01*
X436058Y321509D01*
X436058Y320652D01*
X441283Y320652D01*
X441283Y321363D01*
G37*
G36*
X447658Y321363D02*
X447507Y321681D01*
X447341Y321980D01*
X447158Y322259D01*
X446960Y322520D01*
X446538Y322997D01*
X446095Y323427D01*
X445644Y323818D01*
X445196Y324180D01*
X444773Y324527D01*
X444393Y324874D01*
X444069Y325230D01*
X443932Y325414D01*
X443813Y325602D01*
X443716Y325799D01*
X443647Y326008D01*
X443606Y326230D01*
X443592Y326465D01*
X443616Y326771D01*
X443687Y327042D01*
X443806Y327275D01*
X443973Y327473D01*
X444182Y327630D01*
X444428Y327742D01*
X444711Y327809D01*
X445031Y327831D01*
X445339Y327809D01*
X445619Y327744D01*
X445870Y327634D01*
X446092Y327481D01*
X446279Y327288D01*
X446424Y327060D01*
X446524Y326797D01*
X446582Y326498D01*
X447613Y326594D01*
X447576Y326824D01*
X447521Y327043D01*
X447447Y327249D01*
X447356Y327443D01*
X447246Y327626D01*
X447119Y327796D01*
X446973Y327954D01*
X446809Y328100D01*
X446630Y328231D01*
X446439Y328345D01*
X446235Y328441D01*
X446019Y328520D01*
X445790Y328581D01*
X445550Y328625D01*
X445297Y328651D01*
X445031Y328660D01*
X444742Y328651D01*
X444469Y328625D01*
X444214Y328581D01*
X443976Y328519D01*
X443756Y328440D01*
X443552Y328343D01*
X443366Y328229D01*
X443197Y328097D01*
X443047Y327949D01*
X442917Y327786D01*
X442806Y327609D01*
X442716Y327416D01*
X442646Y327209D01*
X442596Y326987D01*
X442566Y326750D01*
X442556Y326498D01*
X442569Y326269D01*
X442609Y326041D01*
X442674Y325813D01*
X442766Y325586D01*
X442884Y325359D01*
X443027Y325132D01*
X443196Y324905D01*
X443390Y324678D01*
X443645Y324420D01*
X443994Y324100D01*
X444975Y323273D01*
X445553Y322772D01*
X446000Y322324D01*
X446177Y322114D01*
X446328Y321908D01*
X446452Y321707D01*
X446549Y321509D01*
X442433Y321509D01*
X442433Y320652D01*
X447658Y320652D01*
X447658Y321363D01*
G37*
G36*
X365379Y284963D02*
X365662Y284986D01*
X365935Y285025D01*
X366198Y285079D01*
X366451Y285149D01*
X366694Y285234D01*
X366927Y285334D01*
X367150Y285451D01*
X367361Y285581D01*
X367559Y285725D01*
X367744Y285882D01*
X367917Y286053D01*
X368076Y286236D01*
X368223Y286433D01*
X368356Y286644D01*
X368477Y286867D01*
X368584Y287103D01*
X368677Y287349D01*
X368755Y287606D01*
X368819Y287873D01*
X368869Y288151D01*
X368905Y288440D01*
X368926Y288739D01*
X368933Y289049D01*
X368917Y289508D01*
X368870Y289941D01*
X368790Y290349D01*
X368678Y290731D01*
X368535Y291088D01*
X368360Y291419D01*
X368153Y291725D01*
X367914Y292005D01*
X367647Y292256D01*
X367355Y292473D01*
X367039Y292657D01*
X366699Y292808D01*
X366334Y292925D01*
X365944Y293008D01*
X365530Y293058D01*
X365092Y293075D01*
X364783Y293067D01*
X364488Y293044D01*
X364205Y293006D01*
X363935Y292952D01*
X363679Y292882D01*
X363435Y292798D01*
X363204Y292698D01*
X362986Y292582D01*
X362782Y292452D01*
X362591Y292306D01*
X362415Y292146D01*
X362252Y291970D01*
X362104Y291780D01*
X361970Y291575D01*
X361849Y291355D01*
X361743Y291121D01*
X362756Y290785D01*
X362915Y291109D01*
X363114Y291392D01*
X363356Y291635D01*
X363638Y291837D01*
X363956Y291997D01*
X364303Y292110D01*
X364677Y292179D01*
X365080Y292201D01*
X365399Y292188D01*
X365699Y292149D01*
X365981Y292083D01*
X366245Y291991D01*
X366491Y291872D01*
X366718Y291727D01*
X366928Y291556D01*
X367119Y291359D01*
X367289Y291138D01*
X367437Y290898D01*
X367562Y290639D01*
X367665Y290360D01*
X367744Y290061D01*
X367801Y289743D01*
X367835Y289406D01*
X367847Y289049D01*
X367835Y288695D01*
X367799Y288359D01*
X367740Y288041D01*
X367657Y287740D01*
X367550Y287458D01*
X367420Y287193D01*
X367266Y286946D01*
X367088Y286716D01*
X366890Y286509D01*
X366675Y286330D01*
X366444Y286179D01*
X366196Y286055D01*
X365931Y285958D01*
X365649Y285889D01*
X365351Y285848D01*
X365036Y285834D01*
X364832Y285841D01*
X364634Y285860D01*
X364443Y285892D01*
X364258Y285937D01*
X363908Y286065D01*
X363584Y286244D01*
X363285Y286475D01*
X363012Y286757D01*
X362765Y287090D01*
X362544Y287475D01*
X361670Y287038D01*
X361798Y286791D01*
X361938Y286559D01*
X362091Y286342D01*
X362256Y286141D01*
X362433Y285955D01*
X362623Y285783D01*
X362825Y285628D01*
X363039Y285487D01*
X363264Y285362D01*
X363498Y285254D01*
X363741Y285163D01*
X363992Y285088D01*
X364252Y285030D01*
X364521Y284988D01*
X364799Y284963D01*
X365086Y284955D01*
X365379Y284963D01*
G37*
G36*
X351954Y284963D02*
X352231Y284989D01*
X352492Y285031D01*
X352739Y285090D01*
X352971Y285166D01*
X353187Y285259D01*
X353388Y285369D01*
X353574Y285495D01*
X353744Y285639D01*
X353895Y285798D01*
X354028Y285974D01*
X354143Y286165D01*
X354240Y286373D01*
X354319Y286597D01*
X354380Y286838D01*
X354423Y287094D01*
X353381Y287189D01*
X353310Y286861D01*
X353198Y286577D01*
X353045Y286336D01*
X352850Y286139D01*
X352615Y285986D01*
X352338Y285877D01*
X352021Y285811D01*
X351662Y285789D01*
X351301Y285813D01*
X350982Y285883D01*
X350704Y286000D01*
X350466Y286165D01*
X350365Y286264D01*
X350276Y286375D01*
X350202Y286497D01*
X350141Y286631D01*
X350093Y286776D01*
X350059Y286932D01*
X350039Y287100D01*
X350032Y287279D01*
X350040Y287436D01*
X350063Y287583D01*
X350102Y287722D01*
X350156Y287852D01*
X350226Y287974D01*
X350311Y288086D01*
X350412Y288189D01*
X350528Y288284D01*
X350659Y288369D01*
X350803Y288442D01*
X350961Y288504D01*
X351133Y288555D01*
X351518Y288623D01*
X351959Y288645D01*
X352530Y288645D01*
X352530Y289519D01*
X351981Y289519D01*
X351590Y289542D01*
X351245Y289609D01*
X350947Y289722D01*
X350696Y289880D01*
X350496Y290078D01*
X350418Y290190D01*
X350354Y290311D01*
X350304Y290440D01*
X350268Y290578D01*
X350247Y290725D01*
X350239Y290880D01*
X350263Y291180D01*
X350333Y291446D01*
X350449Y291679D01*
X350612Y291879D01*
X350821Y292040D01*
X351075Y292154D01*
X351374Y292223D01*
X351718Y292246D01*
X352035Y292225D01*
X352321Y292161D01*
X352574Y292054D01*
X352796Y291905D01*
X352980Y291716D01*
X353121Y291493D01*
X353219Y291235D01*
X353275Y290941D01*
X354288Y291020D01*
X354251Y291255D01*
X354196Y291478D01*
X354123Y291687D01*
X354031Y291882D01*
X353922Y292065D01*
X353794Y292234D01*
X353648Y292389D01*
X353485Y292532D01*
X353306Y292659D01*
X353114Y292769D01*
X352910Y292863D01*
X352694Y292939D01*
X352466Y292999D01*
X352225Y293041D01*
X351972Y293066D01*
X351707Y293075D01*
X351418Y293066D01*
X351146Y293040D01*
X350891Y292997D01*
X350652Y292937D01*
X350429Y292859D01*
X350224Y292765D01*
X350034Y292653D01*
X349861Y292523D01*
X349707Y292379D01*
X349574Y292220D01*
X349460Y292049D01*
X349368Y291863D01*
X349296Y291664D01*
X349245Y291452D01*
X349214Y291226D01*
X349203Y290986D01*
X349210Y290802D01*
X349230Y290626D01*
X349263Y290459D01*
X349309Y290301D01*
X349369Y290152D01*
X349441Y290011D01*
X349626Y289757D01*
X349862Y289539D01*
X350145Y289360D01*
X350476Y289219D01*
X350855Y289116D01*
X350855Y289093D01*
X350640Y289063D01*
X350438Y289021D01*
X350247Y288965D01*
X350069Y288897D01*
X349903Y288817D01*
X349749Y288724D01*
X349607Y288618D01*
X349478Y288500D01*
X349362Y288371D01*
X349262Y288234D01*
X349178Y288090D01*
X349108Y287937D01*
X349054Y287776D01*
X349016Y287607D01*
X348993Y287430D01*
X348985Y287245D01*
X348996Y286980D01*
X349028Y286730D01*
X349083Y286496D01*
X349159Y286277D01*
X349256Y286073D01*
X349376Y285885D01*
X349517Y285712D01*
X349679Y285554D01*
X349862Y285414D01*
X350064Y285292D01*
X350284Y285189D01*
X350522Y285105D01*
X350779Y285039D01*
X351055Y284992D01*
X351349Y284964D01*
X351662Y284955D01*
X351954Y284963D01*
G37*
G36*
X360658Y285778D02*
X360507Y286096D01*
X360341Y286395D01*
X360158Y286674D01*
X359960Y286935D01*
X359538Y287412D01*
X359095Y287842D01*
X358644Y288233D01*
X358196Y288595D01*
X357773Y288942D01*
X357393Y289289D01*
X357069Y289645D01*
X356932Y289829D01*
X356813Y290017D01*
X356716Y290214D01*
X356647Y290423D01*
X356606Y290645D01*
X356592Y290880D01*
X356616Y291186D01*
X356687Y291457D01*
X356806Y291690D01*
X356973Y291888D01*
X357182Y292045D01*
X357428Y292157D01*
X357711Y292224D01*
X358031Y292246D01*
X358339Y292224D01*
X358619Y292159D01*
X358870Y292049D01*
X359092Y291896D01*
X359279Y291703D01*
X359424Y291475D01*
X359524Y291212D01*
X359582Y290913D01*
X360613Y291009D01*
X360576Y291239D01*
X360521Y291458D01*
X360447Y291664D01*
X360356Y291858D01*
X360246Y292041D01*
X360119Y292211D01*
X359973Y292369D01*
X359809Y292515D01*
X359630Y292646D01*
X359439Y292760D01*
X359235Y292856D01*
X359019Y292935D01*
X358790Y292996D01*
X358550Y293040D01*
X358297Y293066D01*
X358031Y293075D01*
X357742Y293066D01*
X357469Y293040D01*
X357214Y292996D01*
X356976Y292934D01*
X356756Y292855D01*
X356552Y292758D01*
X356366Y292644D01*
X356197Y292512D01*
X356047Y292364D01*
X355917Y292201D01*
X355806Y292024D01*
X355716Y291831D01*
X355646Y291624D01*
X355596Y291402D01*
X355566Y291165D01*
X355556Y290913D01*
X355569Y290684D01*
X355609Y290456D01*
X355674Y290228D01*
X355766Y290001D01*
X355884Y289774D01*
X356027Y289547D01*
X356196Y289320D01*
X356390Y289093D01*
X356645Y288835D01*
X356994Y288515D01*
X357975Y287688D01*
X358553Y287187D01*
X359000Y286739D01*
X359177Y286529D01*
X359328Y286323D01*
X359452Y286122D01*
X359549Y285924D01*
X355433Y285924D01*
X355433Y285067D01*
X360658Y285067D01*
X360658Y285778D01*
G37*
G36*
X340878Y315853D02*
X344596Y315853D01*
X344596Y316637D01*
X340984Y321957D01*
X339926Y321957D01*
X339926Y316649D01*
X338817Y316649D01*
X338817Y315853D01*
X339926Y315853D01*
X339926Y314067D01*
X340878Y314067D01*
X340878Y315853D01*
G37*
G36*
X355379Y313963D02*
X355662Y313986D01*
X355935Y314025D01*
X356198Y314079D01*
X356451Y314149D01*
X356694Y314234D01*
X356927Y314334D01*
X357150Y314451D01*
X357361Y314581D01*
X357559Y314725D01*
X357744Y314882D01*
X357917Y315053D01*
X358076Y315236D01*
X358223Y315433D01*
X358356Y315644D01*
X358477Y315867D01*
X358584Y316103D01*
X358677Y316349D01*
X358755Y316606D01*
X358819Y316873D01*
X358869Y317151D01*
X358905Y317440D01*
X358926Y317739D01*
X358933Y318049D01*
X358917Y318508D01*
X358870Y318941D01*
X358790Y319349D01*
X358678Y319731D01*
X358535Y320088D01*
X358360Y320419D01*
X358153Y320725D01*
X357914Y321005D01*
X357647Y321256D01*
X357355Y321473D01*
X357039Y321657D01*
X356699Y321808D01*
X356334Y321925D01*
X355944Y322008D01*
X355530Y322058D01*
X355092Y322075D01*
X354783Y322067D01*
X354488Y322044D01*
X354205Y322006D01*
X353935Y321952D01*
X353679Y321882D01*
X353435Y321798D01*
X353204Y321698D01*
X352986Y321582D01*
X352782Y321452D01*
X352591Y321306D01*
X352415Y321146D01*
X352252Y320970D01*
X352104Y320780D01*
X351970Y320575D01*
X351849Y320355D01*
X351743Y320121D01*
X352756Y319785D01*
X352915Y320109D01*
X353114Y320392D01*
X353356Y320635D01*
X353638Y320837D01*
X353956Y320997D01*
X354303Y321110D01*
X354677Y321179D01*
X355080Y321201D01*
X355399Y321188D01*
X355699Y321149D01*
X355981Y321083D01*
X356245Y320991D01*
X356491Y320872D01*
X356718Y320727D01*
X356928Y320556D01*
X357119Y320359D01*
X357289Y320138D01*
X357437Y319898D01*
X357562Y319639D01*
X357665Y319360D01*
X357744Y319061D01*
X357801Y318743D01*
X357835Y318406D01*
X357847Y318049D01*
X357835Y317695D01*
X357799Y317359D01*
X357740Y317041D01*
X357657Y316740D01*
X357550Y316458D01*
X357420Y316193D01*
X357266Y315946D01*
X357088Y315716D01*
X356890Y315509D01*
X356675Y315330D01*
X356444Y315179D01*
X356196Y315055D01*
X355931Y314958D01*
X355649Y314889D01*
X355351Y314848D01*
X355036Y314834D01*
X354832Y314841D01*
X354634Y314860D01*
X354443Y314892D01*
X354258Y314937D01*
X353908Y315065D01*
X353584Y315244D01*
X353285Y315475D01*
X353012Y315757D01*
X352765Y316090D01*
X352544Y316475D01*
X351670Y316038D01*
X351798Y315791D01*
X351938Y315559D01*
X352091Y315342D01*
X352256Y315141D01*
X352433Y314955D01*
X352623Y314783D01*
X352825Y314628D01*
X353039Y314487D01*
X353264Y314362D01*
X353498Y314254D01*
X353741Y314163D01*
X353992Y314088D01*
X354252Y314030D01*
X354521Y313988D01*
X354799Y313963D01*
X355086Y313955D01*
X355379Y313963D01*
G37*
G36*
X350658Y314778D02*
X350507Y315096D01*
X350341Y315395D01*
X350158Y315674D01*
X349960Y315935D01*
X349538Y316412D01*
X349095Y316842D01*
X348644Y317233D01*
X348196Y317595D01*
X347773Y317942D01*
X347393Y318289D01*
X347069Y318645D01*
X346932Y318829D01*
X346813Y319017D01*
X346716Y319214D01*
X346647Y319423D01*
X346606Y319645D01*
X346592Y319880D01*
X346616Y320186D01*
X346687Y320457D01*
X346806Y320690D01*
X346973Y320888D01*
X347182Y321045D01*
X347428Y321157D01*
X347711Y321224D01*
X348031Y321246D01*
X348339Y321224D01*
X348619Y321159D01*
X348870Y321049D01*
X349092Y320896D01*
X349279Y320703D01*
X349424Y320475D01*
X349524Y320212D01*
X349582Y319913D01*
X350613Y320009D01*
X350576Y320239D01*
X350521Y320458D01*
X350447Y320664D01*
X350356Y320858D01*
X350246Y321041D01*
X350119Y321211D01*
X349973Y321369D01*
X349809Y321515D01*
X349630Y321646D01*
X349439Y321760D01*
X349235Y321856D01*
X349019Y321935D01*
X348790Y321996D01*
X348550Y322040D01*
X348297Y322066D01*
X348031Y322075D01*
X347742Y322066D01*
X347469Y322040D01*
X347214Y321996D01*
X346976Y321934D01*
X346756Y321855D01*
X346552Y321758D01*
X346366Y321644D01*
X346197Y321512D01*
X346047Y321364D01*
X345917Y321201D01*
X345806Y321024D01*
X345716Y320831D01*
X345646Y320624D01*
X345596Y320402D01*
X345566Y320165D01*
X345556Y319913D01*
X345569Y319684D01*
X345609Y319456D01*
X345674Y319228D01*
X345766Y319001D01*
X345884Y318774D01*
X346027Y318547D01*
X346196Y318320D01*
X346390Y318093D01*
X346645Y317835D01*
X346994Y317515D01*
X347975Y316688D01*
X348553Y316187D01*
X349000Y315739D01*
X349177Y315529D01*
X349328Y315323D01*
X349452Y315122D01*
X349549Y314924D01*
X345433Y314924D01*
X345433Y314067D01*
X350658Y314067D01*
X350658Y314778D01*
G37*
%LPC*%
G36*
X340878Y316649D02*
X340878Y320821D01*
X341035Y320524D01*
X341253Y320154D01*
X343275Y317175D01*
X343577Y316761D01*
X343667Y316649D01*
X340878Y316649D01*
G37*
%LPD*%
G36*
X455379Y348701D02*
X455662Y348724D01*
X455935Y348763D01*
X456198Y348817D01*
X456451Y348887D01*
X456694Y348972D01*
X456927Y349072D01*
X457150Y349189D01*
X457361Y349319D01*
X457559Y349463D01*
X457744Y349620D01*
X457917Y349791D01*
X458076Y349974D01*
X458223Y350171D01*
X458356Y350382D01*
X458477Y350605D01*
X458584Y350841D01*
X458677Y351087D01*
X458755Y351344D01*
X458819Y351611D01*
X458869Y351889D01*
X458905Y352178D01*
X458926Y352477D01*
X458933Y352787D01*
X458917Y353246D01*
X458870Y353679D01*
X458790Y354087D01*
X458678Y354469D01*
X458535Y354826D01*
X458360Y355157D01*
X458153Y355463D01*
X457914Y355743D01*
X457647Y355994D01*
X457355Y356211D01*
X457039Y356395D01*
X456699Y356546D01*
X456334Y356663D01*
X455944Y356746D01*
X455530Y356796D01*
X455092Y356813D01*
X454783Y356805D01*
X454488Y356782D01*
X454205Y356744D01*
X453935Y356690D01*
X453679Y356620D01*
X453435Y356536D01*
X453204Y356436D01*
X452986Y356320D01*
X452782Y356190D01*
X452591Y356044D01*
X452415Y355884D01*
X452252Y355708D01*
X452104Y355518D01*
X451970Y355313D01*
X451849Y355093D01*
X451743Y354859D01*
X452756Y354523D01*
X452915Y354847D01*
X453114Y355130D01*
X453356Y355373D01*
X453638Y355575D01*
X453956Y355735D01*
X454303Y355848D01*
X454677Y355917D01*
X455080Y355939D01*
X455399Y355926D01*
X455699Y355887D01*
X455981Y355821D01*
X456245Y355729D01*
X456491Y355610D01*
X456718Y355465D01*
X456928Y355294D01*
X457119Y355097D01*
X457289Y354876D01*
X457437Y354636D01*
X457562Y354377D01*
X457665Y354098D01*
X457744Y353799D01*
X457801Y353481D01*
X457835Y353144D01*
X457847Y352787D01*
X457835Y352433D01*
X457799Y352097D01*
X457740Y351779D01*
X457657Y351478D01*
X457550Y351196D01*
X457420Y350931D01*
X457266Y350684D01*
X457088Y350454D01*
X456890Y350247D01*
X456675Y350068D01*
X456444Y349917D01*
X456196Y349793D01*
X455931Y349696D01*
X455649Y349627D01*
X455351Y349586D01*
X455036Y349572D01*
X454832Y349579D01*
X454634Y349598D01*
X454443Y349630D01*
X454258Y349675D01*
X453908Y349803D01*
X453584Y349982D01*
X453285Y350213D01*
X453012Y350495D01*
X452765Y350828D01*
X452544Y351213D01*
X451670Y350776D01*
X451798Y350529D01*
X451938Y350297D01*
X452091Y350080D01*
X452256Y349879D01*
X452433Y349693D01*
X452623Y349521D01*
X452825Y349366D01*
X453039Y349225D01*
X453264Y349100D01*
X453498Y348992D01*
X453741Y348901D01*
X453992Y348826D01*
X454252Y348768D01*
X454521Y348726D01*
X454799Y348701D01*
X455086Y348693D01*
X455379Y348701D01*
G37*
G36*
X442032Y348701D02*
X442288Y348723D01*
X442530Y348761D01*
X442759Y348813D01*
X442975Y348881D01*
X443178Y348964D01*
X443367Y349062D01*
X443543Y349175D01*
X443705Y349302D01*
X443851Y349442D01*
X443982Y349596D01*
X444096Y349764D01*
X444196Y349945D01*
X444279Y350140D01*
X444348Y350348D01*
X444400Y350569D01*
X443381Y350687D01*
X443286Y350412D01*
X443159Y350175D01*
X443001Y349973D01*
X442811Y349809D01*
X442590Y349681D01*
X442338Y349589D01*
X442055Y349534D01*
X441740Y349516D01*
X441543Y349524D01*
X441356Y349547D01*
X441181Y349585D01*
X441016Y349639D01*
X440863Y349708D01*
X440721Y349792D01*
X440589Y349891D01*
X440469Y350006D01*
X440361Y350134D01*
X440268Y350274D01*
X440189Y350425D01*
X440125Y350588D01*
X440074Y350762D01*
X440039Y350948D01*
X440017Y351145D01*
X440010Y351353D01*
X440017Y351535D01*
X440039Y351708D01*
X440075Y351871D01*
X440125Y352026D01*
X440190Y352172D01*
X440270Y352310D01*
X440364Y352438D01*
X440472Y352557D01*
X440592Y352665D01*
X440723Y352758D01*
X440864Y352837D01*
X441014Y352901D01*
X441175Y352952D01*
X441346Y352987D01*
X441527Y353009D01*
X441718Y353016D01*
X441919Y353008D01*
X442113Y352984D01*
X442300Y352944D01*
X442479Y352887D01*
X442656Y352812D01*
X442832Y352714D01*
X443009Y352593D01*
X443185Y352451D01*
X444171Y352451D01*
X443907Y356695D01*
X439422Y356695D01*
X439422Y355839D01*
X442989Y355839D01*
X443140Y353335D01*
X442971Y353454D01*
X442793Y353556D01*
X442604Y353643D01*
X442405Y353713D01*
X442197Y353769D01*
X441978Y353808D01*
X441749Y353832D01*
X441511Y353839D01*
X441227Y353829D01*
X440958Y353797D01*
X440704Y353743D01*
X440464Y353669D01*
X440239Y353573D01*
X440030Y353455D01*
X439835Y353316D01*
X439654Y353156D01*
X439492Y352979D01*
X439352Y352789D01*
X439233Y352586D01*
X439136Y352369D01*
X439060Y352140D01*
X439006Y351898D01*
X438973Y351643D01*
X438963Y351375D01*
X438974Y351072D01*
X439009Y350784D01*
X439067Y350514D01*
X439148Y350260D01*
X439252Y350022D01*
X439380Y349801D01*
X439531Y349597D01*
X439705Y349410D01*
X439899Y349242D01*
X440112Y349096D01*
X440342Y348973D01*
X440590Y348872D01*
X440856Y348794D01*
X441140Y348738D01*
X441443Y348704D01*
X441763Y348693D01*
X442032Y348701D01*
G37*
G36*
X450658Y349516D02*
X450507Y349834D01*
X450341Y350133D01*
X450158Y350412D01*
X449960Y350673D01*
X449538Y351150D01*
X449095Y351580D01*
X448644Y351971D01*
X448196Y352333D01*
X447773Y352680D01*
X447393Y353027D01*
X447069Y353383D01*
X446932Y353567D01*
X446813Y353755D01*
X446716Y353952D01*
X446647Y354161D01*
X446606Y354383D01*
X446592Y354618D01*
X446616Y354924D01*
X446687Y355195D01*
X446806Y355428D01*
X446973Y355626D01*
X447182Y355783D01*
X447428Y355895D01*
X447711Y355962D01*
X448031Y355984D01*
X448339Y355962D01*
X448619Y355897D01*
X448870Y355787D01*
X449092Y355634D01*
X449279Y355441D01*
X449424Y355213D01*
X449524Y354950D01*
X449582Y354651D01*
X450613Y354747D01*
X450576Y354977D01*
X450521Y355196D01*
X450447Y355402D01*
X450356Y355596D01*
X450246Y355779D01*
X450119Y355949D01*
X449973Y356107D01*
X449809Y356253D01*
X449630Y356384D01*
X449439Y356498D01*
X449235Y356594D01*
X449019Y356673D01*
X448790Y356734D01*
X448550Y356778D01*
X448297Y356804D01*
X448031Y356813D01*
X447742Y356804D01*
X447469Y356778D01*
X447214Y356734D01*
X446976Y356672D01*
X446756Y356593D01*
X446552Y356496D01*
X446366Y356382D01*
X446197Y356250D01*
X446047Y356102D01*
X445917Y355939D01*
X445806Y355762D01*
X445716Y355569D01*
X445646Y355362D01*
X445596Y355140D01*
X445566Y354903D01*
X445556Y354651D01*
X445569Y354422D01*
X445609Y354194D01*
X445674Y353966D01*
X445766Y353739D01*
X445884Y353512D01*
X446027Y353285D01*
X446196Y353058D01*
X446390Y352831D01*
X446645Y352573D01*
X446994Y352253D01*
X447975Y351426D01*
X448553Y350925D01*
X449000Y350477D01*
X449177Y350267D01*
X449328Y350061D01*
X449452Y349860D01*
X449549Y349662D01*
X445433Y349662D01*
X445433Y348805D01*
X450658Y348805D01*
X450658Y349516D01*
G37*
G36*
X359379Y447963D02*
X359662Y447986D01*
X359935Y448025D01*
X360198Y448079D01*
X360451Y448149D01*
X360694Y448234D01*
X360927Y448334D01*
X361150Y448451D01*
X361361Y448581D01*
X361559Y448725D01*
X361744Y448882D01*
X361917Y449053D01*
X362076Y449236D01*
X362223Y449433D01*
X362356Y449644D01*
X362477Y449867D01*
X362584Y450103D01*
X362677Y450349D01*
X362755Y450606D01*
X362819Y450873D01*
X362869Y451151D01*
X362905Y451440D01*
X362926Y451739D01*
X362933Y452049D01*
X362917Y452508D01*
X362870Y452941D01*
X362790Y453349D01*
X362678Y453731D01*
X362535Y454088D01*
X362360Y454419D01*
X362153Y454725D01*
X361914Y455005D01*
X361647Y455256D01*
X361355Y455473D01*
X361039Y455657D01*
X360699Y455808D01*
X360334Y455925D01*
X359944Y456008D01*
X359530Y456058D01*
X359092Y456075D01*
X358783Y456067D01*
X358488Y456044D01*
X358205Y456006D01*
X357935Y455952D01*
X357679Y455882D01*
X357435Y455798D01*
X357204Y455698D01*
X356986Y455582D01*
X356782Y455452D01*
X356591Y455306D01*
X356415Y455146D01*
X356252Y454970D01*
X356104Y454780D01*
X355970Y454575D01*
X355849Y454355D01*
X355743Y454121D01*
X356756Y453785D01*
X356915Y454109D01*
X357114Y454392D01*
X357356Y454635D01*
X357638Y454837D01*
X357956Y454997D01*
X358303Y455110D01*
X358677Y455179D01*
X359080Y455201D01*
X359399Y455188D01*
X359699Y455149D01*
X359981Y455083D01*
X360245Y454991D01*
X360491Y454872D01*
X360718Y454727D01*
X360928Y454556D01*
X361119Y454359D01*
X361289Y454138D01*
X361437Y453898D01*
X361562Y453639D01*
X361665Y453360D01*
X361744Y453061D01*
X361801Y452743D01*
X361835Y452406D01*
X361847Y452049D01*
X361835Y451695D01*
X361799Y451359D01*
X361740Y451041D01*
X361657Y450740D01*
X361550Y450458D01*
X361420Y450193D01*
X361266Y449946D01*
X361088Y449716D01*
X360890Y449509D01*
X360675Y449330D01*
X360444Y449179D01*
X360196Y449055D01*
X359931Y448958D01*
X359649Y448889D01*
X359351Y448848D01*
X359036Y448834D01*
X358832Y448841D01*
X358634Y448860D01*
X358443Y448892D01*
X358258Y448937D01*
X357908Y449065D01*
X357584Y449244D01*
X357285Y449475D01*
X357012Y449757D01*
X356765Y450090D01*
X356544Y450475D01*
X355670Y450038D01*
X355798Y449791D01*
X355938Y449559D01*
X356091Y449342D01*
X356256Y449141D01*
X356433Y448955D01*
X356623Y448783D01*
X356825Y448628D01*
X357039Y448487D01*
X357264Y448362D01*
X357498Y448254D01*
X357741Y448163D01*
X357992Y448088D01*
X358252Y448030D01*
X358521Y447988D01*
X358799Y447963D01*
X359086Y447955D01*
X359379Y447963D01*
G37*
G36*
X345954Y447963D02*
X346231Y447989D01*
X346492Y448031D01*
X346739Y448090D01*
X346971Y448166D01*
X347187Y448259D01*
X347388Y448369D01*
X347574Y448495D01*
X347744Y448639D01*
X347895Y448798D01*
X348028Y448974D01*
X348143Y449165D01*
X348240Y449373D01*
X348319Y449597D01*
X348380Y449838D01*
X348423Y450094D01*
X347381Y450189D01*
X347310Y449861D01*
X347198Y449577D01*
X347045Y449336D01*
X346850Y449139D01*
X346615Y448986D01*
X346338Y448877D01*
X346021Y448811D01*
X345662Y448789D01*
X345301Y448813D01*
X344982Y448883D01*
X344704Y449000D01*
X344466Y449165D01*
X344365Y449264D01*
X344276Y449375D01*
X344202Y449497D01*
X344141Y449631D01*
X344093Y449776D01*
X344059Y449932D01*
X344039Y450100D01*
X344032Y450279D01*
X344040Y450436D01*
X344063Y450583D01*
X344102Y450722D01*
X344156Y450852D01*
X344226Y450974D01*
X344311Y451086D01*
X344412Y451189D01*
X344528Y451284D01*
X344659Y451369D01*
X344803Y451442D01*
X344961Y451504D01*
X345133Y451555D01*
X345518Y451623D01*
X345959Y451645D01*
X346530Y451645D01*
X346530Y452519D01*
X345981Y452519D01*
X345590Y452542D01*
X345245Y452609D01*
X344947Y452722D01*
X344696Y452880D01*
X344496Y453078D01*
X344418Y453190D01*
X344354Y453311D01*
X344304Y453440D01*
X344268Y453578D01*
X344247Y453725D01*
X344239Y453880D01*
X344263Y454180D01*
X344333Y454446D01*
X344449Y454679D01*
X344612Y454879D01*
X344821Y455040D01*
X345075Y455154D01*
X345374Y455223D01*
X345718Y455246D01*
X346035Y455225D01*
X346321Y455161D01*
X346574Y455054D01*
X346796Y454905D01*
X346980Y454716D01*
X347121Y454493D01*
X347219Y454235D01*
X347275Y453941D01*
X348288Y454020D01*
X348251Y454255D01*
X348196Y454478D01*
X348123Y454687D01*
X348031Y454882D01*
X347922Y455065D01*
X347794Y455234D01*
X347648Y455389D01*
X347485Y455532D01*
X347306Y455659D01*
X347114Y455769D01*
X346910Y455863D01*
X346694Y455939D01*
X346466Y455999D01*
X346225Y456041D01*
X345972Y456066D01*
X345707Y456075D01*
X345418Y456066D01*
X345146Y456040D01*
X344891Y455997D01*
X344652Y455937D01*
X344429Y455859D01*
X344224Y455765D01*
X344034Y455653D01*
X343861Y455523D01*
X343707Y455379D01*
X343574Y455220D01*
X343460Y455049D01*
X343368Y454863D01*
X343296Y454664D01*
X343245Y454452D01*
X343214Y454226D01*
X343203Y453986D01*
X343210Y453802D01*
X343230Y453626D01*
X343263Y453459D01*
X343309Y453301D01*
X343369Y453152D01*
X343441Y453011D01*
X343626Y452757D01*
X343862Y452539D01*
X344145Y452360D01*
X344476Y452219D01*
X344855Y452116D01*
X344855Y452093D01*
X344640Y452063D01*
X344438Y452021D01*
X344247Y451965D01*
X344069Y451897D01*
X343903Y451817D01*
X343749Y451724D01*
X343607Y451618D01*
X343478Y451500D01*
X343362Y451371D01*
X343262Y451234D01*
X343178Y451090D01*
X343108Y450937D01*
X343054Y450776D01*
X343016Y450607D01*
X342993Y450430D01*
X342985Y450245D01*
X342996Y449980D01*
X343028Y449730D01*
X343083Y449496D01*
X343159Y449277D01*
X343256Y449073D01*
X343376Y448885D01*
X343517Y448712D01*
X343679Y448554D01*
X343862Y448414D01*
X344064Y448292D01*
X344284Y448189D01*
X344522Y448105D01*
X344779Y448039D01*
X345055Y447992D01*
X345349Y447964D01*
X345662Y447955D01*
X345954Y447963D01*
G37*
G36*
X352329Y447963D02*
X352606Y447989D01*
X352867Y448031D01*
X353114Y448090D01*
X353346Y448166D01*
X353562Y448259D01*
X353763Y448369D01*
X353949Y448495D01*
X354119Y448639D01*
X354270Y448798D01*
X354403Y448974D01*
X354518Y449165D01*
X354615Y449373D01*
X354694Y449597D01*
X354755Y449838D01*
X354798Y450094D01*
X353756Y450189D01*
X353685Y449861D01*
X353573Y449577D01*
X353420Y449336D01*
X353225Y449139D01*
X352990Y448986D01*
X352713Y448877D01*
X352396Y448811D01*
X352037Y448789D01*
X351676Y448813D01*
X351357Y448883D01*
X351079Y449000D01*
X350841Y449165D01*
X350740Y449264D01*
X350651Y449375D01*
X350577Y449497D01*
X350516Y449631D01*
X350468Y449776D01*
X350434Y449932D01*
X350414Y450100D01*
X350407Y450279D01*
X350415Y450436D01*
X350438Y450583D01*
X350477Y450722D01*
X350531Y450852D01*
X350601Y450974D01*
X350686Y451086D01*
X350787Y451189D01*
X350903Y451284D01*
X351034Y451369D01*
X351178Y451442D01*
X351336Y451504D01*
X351508Y451555D01*
X351893Y451623D01*
X352334Y451645D01*
X352905Y451645D01*
X352905Y452519D01*
X352356Y452519D01*
X351965Y452542D01*
X351620Y452609D01*
X351322Y452722D01*
X351071Y452880D01*
X350871Y453078D01*
X350793Y453190D01*
X350729Y453311D01*
X350679Y453440D01*
X350643Y453578D01*
X350622Y453725D01*
X350614Y453880D01*
X350638Y454180D01*
X350708Y454446D01*
X350824Y454679D01*
X350987Y454879D01*
X351196Y455040D01*
X351450Y455154D01*
X351749Y455223D01*
X352093Y455246D01*
X352410Y455225D01*
X352696Y455161D01*
X352949Y455054D01*
X353171Y454905D01*
X353355Y454716D01*
X353496Y454493D01*
X353594Y454235D01*
X353650Y453941D01*
X354663Y454020D01*
X354626Y454255D01*
X354571Y454478D01*
X354498Y454687D01*
X354406Y454882D01*
X354297Y455065D01*
X354169Y455234D01*
X354023Y455389D01*
X353860Y455532D01*
X353681Y455659D01*
X353489Y455769D01*
X353285Y455863D01*
X353069Y455939D01*
X352841Y455999D01*
X352600Y456041D01*
X352347Y456066D01*
X352082Y456075D01*
X351793Y456066D01*
X351521Y456040D01*
X351266Y455997D01*
X351027Y455937D01*
X350804Y455859D01*
X350599Y455765D01*
X350409Y455653D01*
X350236Y455523D01*
X350082Y455379D01*
X349949Y455220D01*
X349835Y455049D01*
X349743Y454863D01*
X349671Y454664D01*
X349620Y454452D01*
X349589Y454226D01*
X349578Y453986D01*
X349585Y453802D01*
X349605Y453626D01*
X349638Y453459D01*
X349684Y453301D01*
X349744Y453152D01*
X349816Y453011D01*
X350001Y452757D01*
X350237Y452539D01*
X350520Y452360D01*
X350851Y452219D01*
X351230Y452116D01*
X351230Y452093D01*
X351015Y452063D01*
X350813Y452021D01*
X350622Y451965D01*
X350444Y451897D01*
X350278Y451817D01*
X350124Y451724D01*
X349982Y451618D01*
X349853Y451500D01*
X349737Y451371D01*
X349637Y451234D01*
X349553Y451090D01*
X349483Y450937D01*
X349429Y450776D01*
X349391Y450607D01*
X349368Y450430D01*
X349360Y450245D01*
X349371Y449980D01*
X349403Y449730D01*
X349458Y449496D01*
X349534Y449277D01*
X349631Y449073D01*
X349751Y448885D01*
X349892Y448712D01*
X350054Y448554D01*
X350237Y448414D01*
X350439Y448292D01*
X350659Y448189D01*
X350897Y448105D01*
X351154Y448039D01*
X351430Y447992D01*
X351724Y447964D01*
X352037Y447955D01*
X352329Y447963D01*
G37*
G36*
X345878Y420853D02*
X349596Y420853D01*
X349596Y421637D01*
X345984Y426957D01*
X344926Y426957D01*
X344926Y421649D01*
X343817Y421649D01*
X343817Y420853D01*
X344926Y420853D01*
X344926Y419067D01*
X345878Y419067D01*
X345878Y420853D01*
G37*
G36*
X360379Y418963D02*
X360662Y418986D01*
X360935Y419025D01*
X361198Y419079D01*
X361451Y419149D01*
X361694Y419234D01*
X361927Y419334D01*
X362150Y419451D01*
X362361Y419581D01*
X362559Y419725D01*
X362744Y419882D01*
X362917Y420053D01*
X363076Y420236D01*
X363223Y420433D01*
X363356Y420644D01*
X363477Y420867D01*
X363584Y421103D01*
X363677Y421349D01*
X363755Y421606D01*
X363819Y421873D01*
X363869Y422151D01*
X363905Y422440D01*
X363926Y422739D01*
X363933Y423049D01*
X363917Y423508D01*
X363870Y423941D01*
X363790Y424349D01*
X363678Y424731D01*
X363535Y425088D01*
X363360Y425419D01*
X363153Y425725D01*
X362914Y426005D01*
X362647Y426256D01*
X362355Y426473D01*
X362039Y426657D01*
X361699Y426808D01*
X361334Y426925D01*
X360944Y427008D01*
X360530Y427058D01*
X360092Y427075D01*
X359783Y427067D01*
X359488Y427044D01*
X359205Y427006D01*
X358935Y426952D01*
X358679Y426882D01*
X358435Y426798D01*
X358204Y426698D01*
X357986Y426582D01*
X357782Y426452D01*
X357591Y426306D01*
X357415Y426146D01*
X357252Y425970D01*
X357104Y425780D01*
X356970Y425575D01*
X356849Y425355D01*
X356743Y425121D01*
X357756Y424785D01*
X357915Y425109D01*
X358114Y425392D01*
X358356Y425635D01*
X358638Y425837D01*
X358956Y425997D01*
X359303Y426110D01*
X359677Y426179D01*
X360080Y426201D01*
X360399Y426188D01*
X360699Y426149D01*
X360981Y426083D01*
X361245Y425991D01*
X361491Y425872D01*
X361718Y425727D01*
X361928Y425556D01*
X362119Y425359D01*
X362289Y425138D01*
X362437Y424898D01*
X362562Y424639D01*
X362665Y424360D01*
X362744Y424061D01*
X362801Y423743D01*
X362835Y423406D01*
X362847Y423049D01*
X362835Y422695D01*
X362799Y422359D01*
X362740Y422041D01*
X362657Y421740D01*
X362550Y421458D01*
X362420Y421193D01*
X362266Y420946D01*
X362088Y420716D01*
X361890Y420509D01*
X361675Y420330D01*
X361444Y420179D01*
X361196Y420055D01*
X360931Y419958D01*
X360649Y419889D01*
X360351Y419848D01*
X360036Y419834D01*
X359832Y419841D01*
X359634Y419860D01*
X359443Y419892D01*
X359258Y419937D01*
X358908Y420065D01*
X358584Y420244D01*
X358285Y420475D01*
X358012Y420757D01*
X357765Y421090D01*
X357544Y421475D01*
X356670Y421038D01*
X356798Y420791D01*
X356938Y420559D01*
X357091Y420342D01*
X357256Y420141D01*
X357433Y419955D01*
X357623Y419783D01*
X357825Y419628D01*
X358039Y419487D01*
X358264Y419362D01*
X358498Y419254D01*
X358741Y419163D01*
X358992Y419088D01*
X359252Y419030D01*
X359521Y418988D01*
X359799Y418963D01*
X360086Y418955D01*
X360379Y418963D01*
G37*
G36*
X353329Y418963D02*
X353606Y418989D01*
X353867Y419031D01*
X354114Y419090D01*
X354346Y419166D01*
X354562Y419259D01*
X354763Y419369D01*
X354949Y419495D01*
X355119Y419639D01*
X355270Y419798D01*
X355403Y419974D01*
X355518Y420165D01*
X355615Y420373D01*
X355694Y420597D01*
X355755Y420838D01*
X355798Y421094D01*
X354756Y421189D01*
X354685Y420861D01*
X354573Y420577D01*
X354420Y420336D01*
X354225Y420139D01*
X353990Y419986D01*
X353713Y419877D01*
X353396Y419811D01*
X353037Y419789D01*
X352676Y419813D01*
X352357Y419883D01*
X352079Y420000D01*
X351841Y420165D01*
X351740Y420264D01*
X351651Y420375D01*
X351577Y420497D01*
X351516Y420631D01*
X351468Y420776D01*
X351434Y420932D01*
X351414Y421100D01*
X351407Y421279D01*
X351415Y421436D01*
X351438Y421583D01*
X351477Y421722D01*
X351531Y421852D01*
X351601Y421974D01*
X351686Y422086D01*
X351787Y422189D01*
X351903Y422284D01*
X352034Y422369D01*
X352178Y422442D01*
X352336Y422504D01*
X352508Y422555D01*
X352893Y422623D01*
X353334Y422645D01*
X353905Y422645D01*
X353905Y423519D01*
X353356Y423519D01*
X352965Y423542D01*
X352620Y423609D01*
X352322Y423722D01*
X352071Y423880D01*
X351871Y424078D01*
X351793Y424190D01*
X351729Y424311D01*
X351679Y424440D01*
X351643Y424578D01*
X351622Y424725D01*
X351614Y424880D01*
X351638Y425180D01*
X351708Y425446D01*
X351824Y425679D01*
X351987Y425879D01*
X352196Y426040D01*
X352450Y426154D01*
X352749Y426223D01*
X353093Y426246D01*
X353410Y426225D01*
X353696Y426161D01*
X353949Y426054D01*
X354171Y425905D01*
X354355Y425716D01*
X354496Y425493D01*
X354594Y425235D01*
X354650Y424941D01*
X355663Y425020D01*
X355626Y425255D01*
X355571Y425478D01*
X355498Y425687D01*
X355406Y425882D01*
X355297Y426065D01*
X355169Y426234D01*
X355023Y426389D01*
X354860Y426532D01*
X354681Y426659D01*
X354489Y426769D01*
X354285Y426863D01*
X354069Y426939D01*
X353841Y426999D01*
X353600Y427041D01*
X353347Y427066D01*
X353082Y427075D01*
X352793Y427066D01*
X352521Y427040D01*
X352266Y426997D01*
X352027Y426937D01*
X351804Y426859D01*
X351599Y426765D01*
X351409Y426653D01*
X351236Y426523D01*
X351082Y426379D01*
X350949Y426220D01*
X350835Y426049D01*
X350743Y425863D01*
X350671Y425664D01*
X350620Y425452D01*
X350589Y425226D01*
X350578Y424986D01*
X350585Y424802D01*
X350605Y424626D01*
X350638Y424459D01*
X350684Y424301D01*
X350744Y424152D01*
X350816Y424011D01*
X351001Y423757D01*
X351237Y423539D01*
X351520Y423360D01*
X351851Y423219D01*
X352230Y423116D01*
X352230Y423093D01*
X352015Y423063D01*
X351813Y423021D01*
X351622Y422965D01*
X351444Y422897D01*
X351278Y422817D01*
X351124Y422724D01*
X350982Y422618D01*
X350853Y422500D01*
X350737Y422371D01*
X350637Y422234D01*
X350553Y422090D01*
X350483Y421937D01*
X350429Y421776D01*
X350391Y421607D01*
X350368Y421430D01*
X350360Y421245D01*
X350371Y420980D01*
X350403Y420730D01*
X350458Y420496D01*
X350534Y420277D01*
X350631Y420073D01*
X350751Y419885D01*
X350892Y419712D01*
X351054Y419554D01*
X351237Y419414D01*
X351439Y419292D01*
X351659Y419189D01*
X351897Y419105D01*
X352154Y419039D01*
X352430Y418992D01*
X352724Y418964D01*
X353037Y418955D01*
X353329Y418963D01*
G37*
%LPC*%
G36*
X345878Y421649D02*
X345878Y425821D01*
X346035Y425524D01*
X346253Y425154D01*
X348275Y422175D01*
X348577Y421761D01*
X348667Y421649D01*
X345878Y421649D01*
G37*
%LPD*%
G36*
X456379Y437701D02*
X456662Y437724D01*
X456935Y437763D01*
X457198Y437817D01*
X457451Y437887D01*
X457694Y437972D01*
X457927Y438072D01*
X458150Y438189D01*
X458361Y438319D01*
X458559Y438463D01*
X458744Y438620D01*
X458917Y438791D01*
X459076Y438974D01*
X459223Y439171D01*
X459356Y439382D01*
X459477Y439605D01*
X459584Y439841D01*
X459677Y440087D01*
X459755Y440344D01*
X459819Y440611D01*
X459869Y440889D01*
X459905Y441178D01*
X459926Y441477D01*
X459933Y441787D01*
X459917Y442246D01*
X459870Y442679D01*
X459790Y443087D01*
X459678Y443469D01*
X459535Y443826D01*
X459360Y444157D01*
X459153Y444463D01*
X458914Y444743D01*
X458647Y444994D01*
X458355Y445211D01*
X458039Y445395D01*
X457699Y445546D01*
X457334Y445663D01*
X456944Y445746D01*
X456530Y445796D01*
X456092Y445813D01*
X455783Y445805D01*
X455488Y445782D01*
X455205Y445744D01*
X454935Y445690D01*
X454679Y445620D01*
X454435Y445536D01*
X454204Y445436D01*
X453986Y445320D01*
X453782Y445190D01*
X453591Y445044D01*
X453415Y444884D01*
X453252Y444708D01*
X453104Y444518D01*
X452970Y444313D01*
X452849Y444093D01*
X452743Y443859D01*
X453756Y443523D01*
X453915Y443847D01*
X454114Y444130D01*
X454356Y444373D01*
X454638Y444575D01*
X454956Y444735D01*
X455303Y444848D01*
X455677Y444917D01*
X456080Y444939D01*
X456399Y444926D01*
X456699Y444887D01*
X456981Y444821D01*
X457245Y444729D01*
X457491Y444610D01*
X457718Y444465D01*
X457928Y444294D01*
X458119Y444097D01*
X458289Y443876D01*
X458437Y443636D01*
X458562Y443377D01*
X458665Y443098D01*
X458744Y442799D01*
X458801Y442481D01*
X458835Y442144D01*
X458847Y441787D01*
X458835Y441433D01*
X458799Y441097D01*
X458740Y440779D01*
X458657Y440478D01*
X458550Y440196D01*
X458420Y439931D01*
X458266Y439684D01*
X458088Y439454D01*
X457890Y439247D01*
X457675Y439068D01*
X457444Y438917D01*
X457196Y438793D01*
X456931Y438696D01*
X456649Y438627D01*
X456351Y438586D01*
X456036Y438572D01*
X455832Y438579D01*
X455634Y438598D01*
X455443Y438630D01*
X455258Y438675D01*
X454908Y438803D01*
X454584Y438982D01*
X454285Y439213D01*
X454012Y439495D01*
X453765Y439828D01*
X453544Y440213D01*
X452670Y439776D01*
X452798Y439529D01*
X452938Y439297D01*
X453091Y439080D01*
X453256Y438879D01*
X453433Y438693D01*
X453623Y438521D01*
X453825Y438366D01*
X454039Y438225D01*
X454264Y438100D01*
X454498Y437992D01*
X454741Y437901D01*
X454992Y437826D01*
X455252Y437768D01*
X455521Y437726D01*
X455799Y437701D01*
X456086Y437693D01*
X456379Y437701D01*
G37*
G36*
X443032Y437701D02*
X443288Y437723D01*
X443530Y437761D01*
X443759Y437813D01*
X443975Y437881D01*
X444178Y437964D01*
X444367Y438062D01*
X444543Y438175D01*
X444705Y438302D01*
X444851Y438442D01*
X444982Y438596D01*
X445096Y438764D01*
X445196Y438945D01*
X445279Y439140D01*
X445348Y439348D01*
X445400Y439569D01*
X444381Y439687D01*
X444286Y439412D01*
X444159Y439175D01*
X444001Y438973D01*
X443811Y438809D01*
X443590Y438681D01*
X443338Y438589D01*
X443055Y438534D01*
X442740Y438516D01*
X442543Y438524D01*
X442356Y438547D01*
X442181Y438585D01*
X442016Y438639D01*
X441863Y438708D01*
X441721Y438792D01*
X441589Y438891D01*
X441469Y439006D01*
X441361Y439134D01*
X441268Y439274D01*
X441189Y439425D01*
X441125Y439588D01*
X441074Y439762D01*
X441039Y439948D01*
X441017Y440145D01*
X441010Y440353D01*
X441017Y440535D01*
X441039Y440708D01*
X441075Y440871D01*
X441125Y441026D01*
X441190Y441172D01*
X441270Y441310D01*
X441364Y441438D01*
X441472Y441557D01*
X441592Y441665D01*
X441723Y441758D01*
X441864Y441837D01*
X442014Y441901D01*
X442175Y441952D01*
X442346Y441987D01*
X442527Y442009D01*
X442718Y442016D01*
X442919Y442008D01*
X443113Y441984D01*
X443300Y441944D01*
X443479Y441887D01*
X443656Y441812D01*
X443832Y441714D01*
X444009Y441593D01*
X444185Y441451D01*
X445171Y441451D01*
X444907Y445695D01*
X440422Y445695D01*
X440422Y444839D01*
X443989Y444839D01*
X444140Y442335D01*
X443971Y442454D01*
X443793Y442556D01*
X443604Y442643D01*
X443405Y442713D01*
X443197Y442769D01*
X442978Y442808D01*
X442749Y442832D01*
X442511Y442839D01*
X442227Y442829D01*
X441958Y442797D01*
X441704Y442743D01*
X441464Y442669D01*
X441239Y442573D01*
X441030Y442455D01*
X440835Y442316D01*
X440654Y442156D01*
X440492Y441979D01*
X440352Y441789D01*
X440233Y441586D01*
X440136Y441369D01*
X440060Y441140D01*
X440006Y440898D01*
X439973Y440643D01*
X439963Y440375D01*
X439974Y440072D01*
X440009Y439784D01*
X440067Y439514D01*
X440148Y439260D01*
X440252Y439022D01*
X440380Y438801D01*
X440531Y438597D01*
X440705Y438410D01*
X440899Y438242D01*
X441112Y438096D01*
X441342Y437973D01*
X441590Y437872D01*
X441856Y437794D01*
X442140Y437738D01*
X442443Y437704D01*
X442763Y437693D01*
X443032Y437701D01*
G37*
G36*
X449329Y437701D02*
X449606Y437727D01*
X449867Y437769D01*
X450114Y437828D01*
X450346Y437904D01*
X450562Y437997D01*
X450763Y438107D01*
X450949Y438233D01*
X451119Y438377D01*
X451270Y438536D01*
X451403Y438712D01*
X451518Y438903D01*
X451615Y439111D01*
X451694Y439335D01*
X451755Y439576D01*
X451798Y439832D01*
X450756Y439927D01*
X450685Y439599D01*
X450573Y439315D01*
X450420Y439074D01*
X450225Y438877D01*
X449990Y438724D01*
X449713Y438615D01*
X449396Y438549D01*
X449037Y438527D01*
X448676Y438551D01*
X448357Y438621D01*
X448079Y438738D01*
X447841Y438903D01*
X447740Y439002D01*
X447651Y439113D01*
X447577Y439235D01*
X447516Y439369D01*
X447468Y439514D01*
X447434Y439670D01*
X447414Y439838D01*
X447407Y440017D01*
X447415Y440174D01*
X447438Y440321D01*
X447477Y440460D01*
X447531Y440590D01*
X447601Y440712D01*
X447686Y440824D01*
X447787Y440927D01*
X447903Y441022D01*
X448034Y441107D01*
X448178Y441180D01*
X448336Y441242D01*
X448508Y441293D01*
X448893Y441361D01*
X449334Y441383D01*
X449905Y441383D01*
X449905Y442257D01*
X449356Y442257D01*
X448965Y442280D01*
X448620Y442347D01*
X448322Y442460D01*
X448071Y442618D01*
X447871Y442816D01*
X447793Y442928D01*
X447729Y443049D01*
X447679Y443178D01*
X447643Y443316D01*
X447622Y443463D01*
X447614Y443618D01*
X447638Y443918D01*
X447708Y444184D01*
X447824Y444417D01*
X447987Y444617D01*
X448196Y444778D01*
X448450Y444892D01*
X448749Y444961D01*
X449093Y444984D01*
X449410Y444963D01*
X449696Y444899D01*
X449949Y444792D01*
X450171Y444643D01*
X450355Y444454D01*
X450496Y444231D01*
X450594Y443973D01*
X450650Y443679D01*
X451663Y443758D01*
X451626Y443993D01*
X451571Y444216D01*
X451498Y444425D01*
X451406Y444620D01*
X451297Y444803D01*
X451169Y444972D01*
X451023Y445127D01*
X450860Y445270D01*
X450681Y445397D01*
X450489Y445507D01*
X450285Y445601D01*
X450069Y445677D01*
X449841Y445737D01*
X449600Y445779D01*
X449347Y445804D01*
X449082Y445813D01*
X448793Y445804D01*
X448521Y445778D01*
X448266Y445735D01*
X448027Y445675D01*
X447804Y445597D01*
X447599Y445503D01*
X447409Y445391D01*
X447236Y445261D01*
X447082Y445117D01*
X446949Y444958D01*
X446835Y444787D01*
X446743Y444601D01*
X446671Y444402D01*
X446620Y444190D01*
X446589Y443964D01*
X446578Y443724D01*
X446585Y443540D01*
X446605Y443364D01*
X446638Y443197D01*
X446684Y443039D01*
X446744Y442890D01*
X446816Y442749D01*
X447001Y442495D01*
X447237Y442277D01*
X447520Y442098D01*
X447851Y441957D01*
X448230Y441854D01*
X448230Y441831D01*
X448015Y441801D01*
X447813Y441759D01*
X447622Y441703D01*
X447444Y441635D01*
X447278Y441555D01*
X447124Y441462D01*
X446982Y441356D01*
X446853Y441238D01*
X446737Y441109D01*
X446637Y440972D01*
X446553Y440828D01*
X446483Y440675D01*
X446429Y440514D01*
X446391Y440345D01*
X446368Y440168D01*
X446360Y439983D01*
X446371Y439718D01*
X446403Y439468D01*
X446458Y439234D01*
X446534Y439015D01*
X446631Y438811D01*
X446751Y438623D01*
X446892Y438450D01*
X447054Y438292D01*
X447237Y438152D01*
X447439Y438030D01*
X447659Y437927D01*
X447897Y437843D01*
X448154Y437777D01*
X448430Y437730D01*
X448724Y437702D01*
X449037Y437693D01*
X449329Y437701D01*
G37*
G36*
X421856Y399709D02*
X422160Y399755D01*
X422444Y399832D01*
X422709Y399941D01*
X422954Y400080D01*
X423179Y400251D01*
X423385Y400452D01*
X423571Y400684D01*
X423737Y400946D01*
X423880Y401236D01*
X424001Y401554D01*
X424101Y401901D01*
X424178Y402275D01*
X424233Y402678D01*
X424266Y403109D01*
X424277Y403568D01*
X424266Y404066D01*
X424231Y404533D01*
X424174Y404972D01*
X424094Y405380D01*
X423990Y405758D01*
X423864Y406107D01*
X423715Y406426D01*
X423543Y406715D01*
X423350Y406973D01*
X423138Y407196D01*
X422906Y407384D01*
X422654Y407539D01*
X422384Y407659D01*
X422093Y407744D01*
X421784Y407796D01*
X421455Y407813D01*
X421236Y407807D01*
X421029Y407788D01*
X420831Y407756D01*
X420644Y407713D01*
X420467Y407656D01*
X420301Y407587D01*
X420144Y407505D01*
X419999Y407411D01*
X419738Y407185D01*
X419518Y406909D01*
X419340Y406582D01*
X419203Y406206D01*
X420167Y406032D01*
X420252Y406258D01*
X420359Y406454D01*
X420488Y406619D01*
X420640Y406755D01*
X420813Y406860D01*
X421009Y406935D01*
X421226Y406980D01*
X421466Y406995D01*
X421675Y406983D01*
X421873Y406945D01*
X422058Y406882D01*
X422231Y406794D01*
X422392Y406681D01*
X422540Y406543D01*
X422677Y406380D01*
X422801Y406192D01*
X422912Y405980D01*
X423008Y405745D01*
X423090Y405488D01*
X423156Y405208D01*
X423208Y404906D01*
X423245Y404582D01*
X423267Y404235D01*
X423275Y403865D01*
X423123Y404105D01*
X422944Y404314D01*
X422737Y404492D01*
X422502Y404641D01*
X422244Y404757D01*
X421967Y404840D01*
X421672Y404890D01*
X421359Y404907D01*
X421093Y404896D01*
X420842Y404864D01*
X420604Y404811D01*
X420380Y404736D01*
X420171Y404640D01*
X419975Y404522D01*
X419794Y404384D01*
X419626Y404223D01*
X419476Y404045D01*
X419346Y403852D01*
X419235Y403645D01*
X419145Y403423D01*
X419075Y403186D01*
X419025Y402934D01*
X418995Y402668D01*
X418985Y402387D01*
X418996Y402083D01*
X419027Y401795D01*
X419080Y401524D01*
X419154Y401269D01*
X419250Y401031D01*
X419366Y400809D01*
X419504Y400604D01*
X419663Y400415D01*
X419840Y400246D01*
X420034Y400099D01*
X420243Y399975D01*
X420469Y399874D01*
X420711Y399795D01*
X420969Y399738D01*
X421243Y399704D01*
X421533Y399693D01*
X421856Y399709D01*
G37*
G36*
X435379Y399701D02*
X435662Y399724D01*
X435935Y399763D01*
X436198Y399817D01*
X436451Y399887D01*
X436694Y399972D01*
X436927Y400072D01*
X437150Y400189D01*
X437361Y400319D01*
X437559Y400463D01*
X437744Y400620D01*
X437917Y400791D01*
X438076Y400974D01*
X438223Y401171D01*
X438356Y401382D01*
X438477Y401605D01*
X438584Y401841D01*
X438677Y402087D01*
X438755Y402344D01*
X438819Y402611D01*
X438869Y402889D01*
X438905Y403178D01*
X438926Y403477D01*
X438933Y403787D01*
X438917Y404246D01*
X438870Y404679D01*
X438790Y405087D01*
X438678Y405469D01*
X438535Y405826D01*
X438360Y406157D01*
X438153Y406463D01*
X437914Y406743D01*
X437647Y406994D01*
X437355Y407211D01*
X437039Y407395D01*
X436699Y407546D01*
X436334Y407663D01*
X435944Y407746D01*
X435530Y407796D01*
X435092Y407813D01*
X434783Y407805D01*
X434488Y407782D01*
X434205Y407744D01*
X433935Y407690D01*
X433679Y407620D01*
X433435Y407536D01*
X433204Y407436D01*
X432986Y407320D01*
X432782Y407190D01*
X432591Y407044D01*
X432415Y406884D01*
X432252Y406708D01*
X432104Y406518D01*
X431970Y406313D01*
X431849Y406093D01*
X431743Y405859D01*
X432756Y405523D01*
X432915Y405847D01*
X433114Y406130D01*
X433356Y406373D01*
X433638Y406575D01*
X433956Y406735D01*
X434303Y406848D01*
X434677Y406917D01*
X435080Y406939D01*
X435399Y406926D01*
X435699Y406887D01*
X435981Y406821D01*
X436245Y406729D01*
X436491Y406610D01*
X436718Y406465D01*
X436928Y406294D01*
X437119Y406097D01*
X437289Y405876D01*
X437437Y405636D01*
X437562Y405377D01*
X437665Y405098D01*
X437744Y404799D01*
X437801Y404481D01*
X437835Y404144D01*
X437847Y403787D01*
X437835Y403433D01*
X437799Y403097D01*
X437740Y402779D01*
X437657Y402478D01*
X437550Y402196D01*
X437420Y401931D01*
X437266Y401684D01*
X437088Y401454D01*
X436890Y401247D01*
X436675Y401068D01*
X436444Y400917D01*
X436196Y400793D01*
X435931Y400696D01*
X435649Y400627D01*
X435351Y400586D01*
X435036Y400572D01*
X434832Y400579D01*
X434634Y400598D01*
X434443Y400630D01*
X434258Y400675D01*
X433908Y400803D01*
X433584Y400982D01*
X433285Y401213D01*
X433012Y401495D01*
X432765Y401828D01*
X432544Y402213D01*
X431670Y401776D01*
X431798Y401529D01*
X431938Y401297D01*
X432091Y401080D01*
X432256Y400879D01*
X432433Y400693D01*
X432623Y400521D01*
X432825Y400366D01*
X433039Y400225D01*
X433264Y400100D01*
X433498Y399992D01*
X433741Y399901D01*
X433992Y399826D01*
X434252Y399768D01*
X434521Y399726D01*
X434799Y399701D01*
X435086Y399693D01*
X435379Y399701D01*
G37*
G36*
X428329Y399701D02*
X428606Y399727D01*
X428867Y399769D01*
X429114Y399828D01*
X429346Y399904D01*
X429562Y399997D01*
X429763Y400107D01*
X429949Y400233D01*
X430119Y400377D01*
X430270Y400536D01*
X430403Y400712D01*
X430518Y400903D01*
X430615Y401111D01*
X430694Y401335D01*
X430755Y401576D01*
X430798Y401832D01*
X429756Y401927D01*
X429685Y401599D01*
X429573Y401315D01*
X429420Y401074D01*
X429225Y400877D01*
X428990Y400724D01*
X428713Y400615D01*
X428396Y400549D01*
X428037Y400527D01*
X427676Y400551D01*
X427357Y400621D01*
X427079Y400738D01*
X426841Y400903D01*
X426740Y401002D01*
X426651Y401113D01*
X426577Y401235D01*
X426516Y401369D01*
X426468Y401514D01*
X426434Y401670D01*
X426414Y401838D01*
X426407Y402017D01*
X426415Y402174D01*
X426438Y402321D01*
X426477Y402460D01*
X426531Y402590D01*
X426601Y402712D01*
X426686Y402824D01*
X426787Y402927D01*
X426903Y403022D01*
X427034Y403107D01*
X427178Y403180D01*
X427336Y403242D01*
X427508Y403293D01*
X427893Y403361D01*
X428334Y403383D01*
X428905Y403383D01*
X428905Y404257D01*
X428356Y404257D01*
X427965Y404280D01*
X427620Y404347D01*
X427322Y404460D01*
X427071Y404618D01*
X426871Y404816D01*
X426793Y404928D01*
X426729Y405049D01*
X426679Y405178D01*
X426643Y405316D01*
X426622Y405463D01*
X426614Y405618D01*
X426638Y405918D01*
X426708Y406184D01*
X426824Y406417D01*
X426987Y406617D01*
X427196Y406778D01*
X427450Y406892D01*
X427749Y406961D01*
X428093Y406984D01*
X428410Y406963D01*
X428696Y406899D01*
X428949Y406792D01*
X429171Y406643D01*
X429355Y406454D01*
X429496Y406231D01*
X429594Y405973D01*
X429650Y405679D01*
X430663Y405758D01*
X430626Y405993D01*
X430571Y406216D01*
X430498Y406425D01*
X430406Y406620D01*
X430297Y406803D01*
X430169Y406972D01*
X430023Y407127D01*
X429860Y407270D01*
X429681Y407397D01*
X429489Y407507D01*
X429285Y407601D01*
X429069Y407677D01*
X428841Y407737D01*
X428600Y407779D01*
X428347Y407804D01*
X428082Y407813D01*
X427793Y407804D01*
X427521Y407778D01*
X427266Y407735D01*
X427027Y407675D01*
X426804Y407597D01*
X426599Y407503D01*
X426409Y407391D01*
X426236Y407261D01*
X426082Y407117D01*
X425949Y406958D01*
X425835Y406787D01*
X425743Y406601D01*
X425671Y406402D01*
X425620Y406190D01*
X425589Y405964D01*
X425578Y405724D01*
X425585Y405540D01*
X425605Y405364D01*
X425638Y405197D01*
X425684Y405039D01*
X425744Y404890D01*
X425816Y404749D01*
X426001Y404495D01*
X426237Y404277D01*
X426520Y404098D01*
X426851Y403957D01*
X427230Y403854D01*
X427230Y403831D01*
X427015Y403801D01*
X426813Y403759D01*
X426622Y403703D01*
X426444Y403635D01*
X426278Y403555D01*
X426124Y403462D01*
X425982Y403356D01*
X425853Y403238D01*
X425737Y403109D01*
X425637Y402972D01*
X425553Y402828D01*
X425483Y402675D01*
X425429Y402514D01*
X425391Y402345D01*
X425368Y402168D01*
X425360Y401983D01*
X425371Y401718D01*
X425403Y401468D01*
X425458Y401234D01*
X425534Y401015D01*
X425631Y400811D01*
X425751Y400623D01*
X425892Y400450D01*
X426054Y400292D01*
X426237Y400152D01*
X426439Y400030D01*
X426659Y399927D01*
X426897Y399843D01*
X427154Y399777D01*
X427430Y399730D01*
X427724Y399702D01*
X428037Y399693D01*
X428329Y399701D01*
G37*
%LPC*%
G36*
X421390Y400513D02*
X421222Y400536D01*
X421065Y400574D01*
X420917Y400627D01*
X420779Y400696D01*
X420651Y400781D01*
X420533Y400880D01*
X420424Y400995D01*
X420327Y401123D01*
X420243Y401263D01*
X420172Y401414D01*
X420113Y401577D01*
X420068Y401751D01*
X420036Y401936D01*
X420016Y402133D01*
X420010Y402342D01*
X420016Y402550D01*
X420036Y402746D01*
X420069Y402929D01*
X420115Y403101D01*
X420174Y403260D01*
X420246Y403406D01*
X420331Y403541D01*
X420430Y403663D01*
X420540Y403772D01*
X420660Y403867D01*
X420791Y403947D01*
X420932Y404012D01*
X421084Y404063D01*
X421246Y404099D01*
X421418Y404121D01*
X421600Y404128D01*
X421772Y404122D01*
X421936Y404102D01*
X422091Y404070D01*
X422238Y404025D01*
X422506Y403897D01*
X422740Y403717D01*
X422842Y403609D01*
X422930Y403491D01*
X423004Y403364D01*
X423065Y403227D01*
X423113Y403081D01*
X423147Y402924D01*
X423167Y402758D01*
X423174Y402583D01*
X423167Y402360D01*
X423146Y402147D01*
X423110Y401944D01*
X423061Y401752D01*
X422998Y401571D01*
X422920Y401399D01*
X422829Y401238D01*
X422723Y401087D01*
X422606Y400951D01*
X422482Y400833D01*
X422349Y400732D01*
X422209Y400651D01*
X422060Y400587D01*
X421903Y400541D01*
X421739Y400514D01*
X421567Y400505D01*
X421390Y400513D01*
G37*
%LPD*%
G36*
X457379Y470701D02*
X457662Y470724D01*
X457935Y470763D01*
X458198Y470817D01*
X458451Y470887D01*
X458694Y470972D01*
X458927Y471072D01*
X459150Y471189D01*
X459361Y471319D01*
X459559Y471463D01*
X459744Y471620D01*
X459917Y471791D01*
X460076Y471974D01*
X460223Y472171D01*
X460356Y472382D01*
X460477Y472605D01*
X460584Y472841D01*
X460677Y473087D01*
X460755Y473344D01*
X460819Y473611D01*
X460869Y473889D01*
X460905Y474178D01*
X460926Y474477D01*
X460933Y474787D01*
X460917Y475246D01*
X460870Y475679D01*
X460790Y476087D01*
X460678Y476469D01*
X460535Y476826D01*
X460360Y477157D01*
X460153Y477463D01*
X459914Y477743D01*
X459647Y477994D01*
X459355Y478211D01*
X459039Y478395D01*
X458699Y478546D01*
X458334Y478663D01*
X457944Y478746D01*
X457530Y478796D01*
X457092Y478813D01*
X456783Y478805D01*
X456488Y478782D01*
X456205Y478744D01*
X455935Y478690D01*
X455679Y478620D01*
X455435Y478536D01*
X455204Y478436D01*
X454986Y478320D01*
X454782Y478190D01*
X454591Y478044D01*
X454415Y477884D01*
X454252Y477708D01*
X454104Y477518D01*
X453970Y477313D01*
X453849Y477093D01*
X453743Y476859D01*
X454756Y476523D01*
X454915Y476847D01*
X455114Y477130D01*
X455356Y477373D01*
X455638Y477575D01*
X455956Y477735D01*
X456303Y477848D01*
X456677Y477917D01*
X457080Y477939D01*
X457399Y477926D01*
X457699Y477887D01*
X457981Y477821D01*
X458245Y477729D01*
X458491Y477610D01*
X458718Y477465D01*
X458928Y477294D01*
X459119Y477097D01*
X459289Y476876D01*
X459437Y476636D01*
X459562Y476377D01*
X459665Y476098D01*
X459744Y475799D01*
X459801Y475481D01*
X459835Y475144D01*
X459847Y474787D01*
X459835Y474433D01*
X459799Y474097D01*
X459740Y473779D01*
X459657Y473478D01*
X459550Y473196D01*
X459420Y472931D01*
X459266Y472684D01*
X459088Y472454D01*
X458890Y472247D01*
X458675Y472068D01*
X458444Y471917D01*
X458196Y471793D01*
X457931Y471696D01*
X457649Y471627D01*
X457351Y471586D01*
X457036Y471572D01*
X456832Y471579D01*
X456634Y471598D01*
X456443Y471630D01*
X456258Y471675D01*
X455908Y471803D01*
X455584Y471982D01*
X455285Y472213D01*
X455012Y472495D01*
X454765Y472828D01*
X454544Y473213D01*
X453670Y472776D01*
X453798Y472529D01*
X453938Y472297D01*
X454091Y472080D01*
X454256Y471879D01*
X454433Y471693D01*
X454623Y471521D01*
X454825Y471366D01*
X455039Y471225D01*
X455264Y471100D01*
X455498Y470992D01*
X455741Y470901D01*
X455992Y470826D01*
X456252Y470768D01*
X456521Y470726D01*
X456799Y470701D01*
X457086Y470693D01*
X457379Y470701D01*
G37*
G36*
X450329Y470701D02*
X450606Y470727D01*
X450867Y470769D01*
X451114Y470828D01*
X451346Y470904D01*
X451562Y470997D01*
X451763Y471107D01*
X451949Y471233D01*
X452119Y471377D01*
X452270Y471536D01*
X452403Y471712D01*
X452518Y471903D01*
X452615Y472111D01*
X452694Y472335D01*
X452755Y472576D01*
X452798Y472832D01*
X451756Y472927D01*
X451685Y472599D01*
X451573Y472315D01*
X451420Y472074D01*
X451225Y471877D01*
X450990Y471724D01*
X450713Y471615D01*
X450396Y471549D01*
X450037Y471527D01*
X449676Y471551D01*
X449357Y471621D01*
X449079Y471738D01*
X448841Y471903D01*
X448740Y472002D01*
X448651Y472113D01*
X448577Y472235D01*
X448516Y472369D01*
X448468Y472514D01*
X448434Y472670D01*
X448414Y472838D01*
X448407Y473017D01*
X448415Y473174D01*
X448438Y473321D01*
X448477Y473460D01*
X448531Y473590D01*
X448601Y473712D01*
X448686Y473824D01*
X448787Y473927D01*
X448903Y474022D01*
X449034Y474107D01*
X449178Y474180D01*
X449336Y474242D01*
X449508Y474293D01*
X449893Y474361D01*
X450334Y474383D01*
X450905Y474383D01*
X450905Y475257D01*
X450356Y475257D01*
X449965Y475280D01*
X449620Y475347D01*
X449322Y475460D01*
X449071Y475618D01*
X448871Y475816D01*
X448793Y475928D01*
X448729Y476049D01*
X448679Y476178D01*
X448643Y476316D01*
X448622Y476463D01*
X448614Y476618D01*
X448638Y476918D01*
X448708Y477184D01*
X448824Y477417D01*
X448987Y477617D01*
X449196Y477778D01*
X449450Y477892D01*
X449749Y477961D01*
X450093Y477984D01*
X450410Y477963D01*
X450696Y477899D01*
X450949Y477792D01*
X451171Y477643D01*
X451355Y477454D01*
X451496Y477231D01*
X451594Y476973D01*
X451650Y476679D01*
X452663Y476758D01*
X452626Y476993D01*
X452571Y477216D01*
X452498Y477425D01*
X452406Y477620D01*
X452297Y477803D01*
X452169Y477972D01*
X452023Y478127D01*
X451860Y478270D01*
X451681Y478397D01*
X451489Y478507D01*
X451285Y478601D01*
X451069Y478677D01*
X450841Y478737D01*
X450600Y478779D01*
X450347Y478804D01*
X450082Y478813D01*
X449793Y478804D01*
X449521Y478778D01*
X449266Y478735D01*
X449027Y478675D01*
X448804Y478597D01*
X448599Y478503D01*
X448409Y478391D01*
X448236Y478261D01*
X448082Y478117D01*
X447949Y477958D01*
X447835Y477787D01*
X447743Y477601D01*
X447671Y477402D01*
X447620Y477190D01*
X447589Y476964D01*
X447578Y476724D01*
X447585Y476540D01*
X447605Y476364D01*
X447638Y476197D01*
X447684Y476039D01*
X447744Y475890D01*
X447816Y475749D01*
X448001Y475495D01*
X448237Y475277D01*
X448520Y475098D01*
X448851Y474957D01*
X449230Y474854D01*
X449230Y474831D01*
X449015Y474801D01*
X448813Y474759D01*
X448622Y474703D01*
X448444Y474635D01*
X448278Y474555D01*
X448124Y474462D01*
X447982Y474356D01*
X447853Y474238D01*
X447737Y474109D01*
X447637Y473972D01*
X447553Y473828D01*
X447483Y473675D01*
X447429Y473514D01*
X447391Y473345D01*
X447368Y473168D01*
X447360Y472983D01*
X447371Y472718D01*
X447403Y472468D01*
X447458Y472234D01*
X447534Y472015D01*
X447631Y471811D01*
X447751Y471623D01*
X447892Y471450D01*
X448054Y471292D01*
X448237Y471152D01*
X448439Y471030D01*
X448659Y470927D01*
X448897Y470843D01*
X449154Y470777D01*
X449430Y470730D01*
X449724Y470702D01*
X450037Y470693D01*
X450329Y470701D01*
G37*
G36*
X444805Y471185D02*
X444775Y471571D01*
X444725Y471961D01*
X444655Y472357D01*
X444565Y472757D01*
X444455Y473163D01*
X444324Y473573D01*
X444174Y473989D01*
X444000Y474414D01*
X443800Y474856D01*
X443572Y475314D01*
X443318Y475787D01*
X442729Y476781D01*
X442032Y477839D01*
X446271Y477839D01*
X446271Y478695D01*
X441058Y478695D01*
X441058Y477878D01*
X441618Y477004D01*
X442090Y476230D01*
X442472Y475556D01*
X442766Y474983D01*
X442999Y474461D01*
X443202Y473942D01*
X443373Y473428D01*
X443513Y472916D01*
X443622Y472402D01*
X443700Y471879D01*
X443747Y471346D01*
X443763Y470805D01*
X444815Y470805D01*
X444805Y471185D01*
G37*
G36*
X345105Y182761D02*
X345319Y182779D01*
X345522Y182810D01*
X345713Y182852D01*
X345892Y182907D01*
X346060Y182974D01*
X346216Y183053D01*
X346361Y183144D01*
X346496Y183249D01*
X346620Y183369D01*
X346735Y183503D01*
X346840Y183653D01*
X347019Y183997D01*
X347159Y184401D01*
X346196Y184553D01*
X346109Y184322D01*
X346000Y184121D01*
X345867Y183952D01*
X345712Y183813D01*
X345534Y183706D01*
X345333Y183629D01*
X345110Y183582D01*
X344863Y183567D01*
X344653Y183580D01*
X344454Y183617D01*
X344268Y183680D01*
X344093Y183769D01*
X343932Y183882D01*
X343782Y184021D01*
X343645Y184184D01*
X343519Y184373D01*
X343408Y184586D01*
X343310Y184820D01*
X343226Y185075D01*
X343157Y185352D01*
X343102Y185650D01*
X343061Y185970D01*
X343034Y186312D01*
X343021Y186675D01*
X343153Y186435D01*
X343325Y186221D01*
X343537Y186031D01*
X343788Y185866D01*
X344066Y185732D01*
X344358Y185637D01*
X344663Y185580D01*
X344981Y185561D01*
X345240Y185572D01*
X345486Y185606D01*
X345719Y185663D01*
X345939Y185743D01*
X346145Y185845D01*
X346338Y185970D01*
X346517Y186118D01*
X346683Y186289D01*
X346833Y186478D01*
X346963Y186682D01*
X347072Y186902D01*
X347162Y187136D01*
X347232Y187385D01*
X347282Y187648D01*
X347312Y187927D01*
X347322Y188221D01*
X347311Y188522D01*
X347278Y188806D01*
X347224Y189074D01*
X347148Y189326D01*
X347051Y189561D01*
X346931Y189779D01*
X346790Y189981D01*
X346627Y190167D01*
X346445Y190333D01*
X346246Y190476D01*
X346030Y190598D01*
X345797Y190698D01*
X345547Y190775D01*
X345280Y190831D01*
X344996Y190864D01*
X344695Y190875D01*
X344376Y190860D01*
X344077Y190814D01*
X343798Y190738D01*
X343539Y190631D01*
X343300Y190494D01*
X343081Y190327D01*
X342881Y190129D01*
X342702Y189901D01*
X342543Y189642D01*
X342405Y189352D01*
X342289Y189032D01*
X342194Y188681D01*
X342120Y188300D01*
X342067Y187888D01*
X342035Y187445D01*
X342024Y186972D01*
X342036Y186478D01*
X342071Y186014D01*
X342129Y185579D01*
X342210Y185174D01*
X342314Y184798D01*
X342442Y184452D01*
X342592Y184135D01*
X342766Y183847D01*
X342962Y183591D01*
X343177Y183369D01*
X343411Y183182D01*
X343666Y183028D01*
X343940Y182909D01*
X344234Y182823D01*
X344547Y182772D01*
X344880Y182755D01*
X345105Y182761D01*
G37*
G36*
X358379Y182763D02*
X358662Y182786D01*
X358935Y182825D01*
X359198Y182879D01*
X359451Y182949D01*
X359694Y183034D01*
X359927Y183134D01*
X360150Y183251D01*
X360361Y183381D01*
X360559Y183525D01*
X360744Y183682D01*
X360917Y183853D01*
X361076Y184036D01*
X361223Y184233D01*
X361356Y184444D01*
X361477Y184667D01*
X361584Y184903D01*
X361677Y185149D01*
X361755Y185406D01*
X361819Y185673D01*
X361869Y185951D01*
X361905Y186240D01*
X361926Y186539D01*
X361933Y186849D01*
X361917Y187308D01*
X361870Y187741D01*
X361790Y188149D01*
X361678Y188531D01*
X361535Y188888D01*
X361360Y189219D01*
X361153Y189525D01*
X360914Y189805D01*
X360647Y190056D01*
X360355Y190273D01*
X360039Y190457D01*
X359699Y190608D01*
X359334Y190725D01*
X358944Y190808D01*
X358530Y190858D01*
X358092Y190875D01*
X357783Y190867D01*
X357488Y190844D01*
X357205Y190806D01*
X356935Y190752D01*
X356679Y190682D01*
X356435Y190598D01*
X356204Y190498D01*
X355986Y190382D01*
X355782Y190252D01*
X355591Y190106D01*
X355415Y189946D01*
X355252Y189770D01*
X355104Y189580D01*
X354970Y189375D01*
X354849Y189155D01*
X354743Y188921D01*
X355756Y188585D01*
X355915Y188909D01*
X356114Y189192D01*
X356356Y189435D01*
X356638Y189637D01*
X356956Y189797D01*
X357303Y189910D01*
X357677Y189979D01*
X358080Y190001D01*
X358399Y189988D01*
X358699Y189949D01*
X358981Y189883D01*
X359245Y189791D01*
X359491Y189672D01*
X359718Y189527D01*
X359928Y189356D01*
X360119Y189159D01*
X360289Y188938D01*
X360437Y188698D01*
X360562Y188439D01*
X360665Y188160D01*
X360744Y187861D01*
X360801Y187543D01*
X360835Y187206D01*
X360847Y186849D01*
X360835Y186495D01*
X360799Y186159D01*
X360740Y185841D01*
X360657Y185540D01*
X360550Y185258D01*
X360420Y184993D01*
X360266Y184746D01*
X360088Y184516D01*
X359890Y184309D01*
X359675Y184130D01*
X359444Y183979D01*
X359196Y183855D01*
X358931Y183758D01*
X358649Y183689D01*
X358351Y183648D01*
X358036Y183634D01*
X357832Y183641D01*
X357634Y183660D01*
X357443Y183692D01*
X357258Y183737D01*
X356908Y183865D01*
X356584Y184044D01*
X356285Y184275D01*
X356012Y184557D01*
X355765Y184890D01*
X355544Y185275D01*
X354670Y184838D01*
X354798Y184591D01*
X354938Y184359D01*
X355091Y184142D01*
X355256Y183941D01*
X355433Y183755D01*
X355623Y183583D01*
X355825Y183428D01*
X356039Y183287D01*
X356264Y183162D01*
X356498Y183054D01*
X356741Y182963D01*
X356992Y182888D01*
X357252Y182830D01*
X357521Y182788D01*
X357799Y182763D01*
X358086Y182755D01*
X358379Y182763D01*
G37*
G36*
X351329Y182763D02*
X351606Y182789D01*
X351867Y182831D01*
X352114Y182890D01*
X352346Y182966D01*
X352562Y183059D01*
X352763Y183169D01*
X352949Y183295D01*
X353119Y183439D01*
X353270Y183598D01*
X353403Y183774D01*
X353518Y183965D01*
X353615Y184173D01*
X353694Y184397D01*
X353755Y184638D01*
X353798Y184894D01*
X352756Y184989D01*
X352685Y184661D01*
X352573Y184377D01*
X352420Y184136D01*
X352225Y183939D01*
X351990Y183786D01*
X351713Y183677D01*
X351396Y183611D01*
X351037Y183589D01*
X350676Y183613D01*
X350357Y183683D01*
X350079Y183800D01*
X349841Y183965D01*
X349740Y184064D01*
X349651Y184175D01*
X349577Y184297D01*
X349516Y184431D01*
X349468Y184576D01*
X349434Y184732D01*
X349414Y184900D01*
X349407Y185079D01*
X349415Y185236D01*
X349438Y185383D01*
X349477Y185522D01*
X349531Y185652D01*
X349601Y185774D01*
X349686Y185886D01*
X349787Y185989D01*
X349903Y186084D01*
X350034Y186169D01*
X350178Y186242D01*
X350336Y186304D01*
X350508Y186355D01*
X350893Y186423D01*
X351334Y186445D01*
X351905Y186445D01*
X351905Y187319D01*
X351356Y187319D01*
X350965Y187342D01*
X350620Y187409D01*
X350322Y187522D01*
X350071Y187680D01*
X349871Y187878D01*
X349793Y187990D01*
X349729Y188111D01*
X349679Y188240D01*
X349643Y188378D01*
X349622Y188525D01*
X349614Y188680D01*
X349638Y188980D01*
X349708Y189246D01*
X349824Y189479D01*
X349987Y189679D01*
X350196Y189840D01*
X350450Y189954D01*
X350749Y190023D01*
X351093Y190046D01*
X351410Y190025D01*
X351696Y189961D01*
X351949Y189854D01*
X352171Y189705D01*
X352355Y189516D01*
X352496Y189293D01*
X352594Y189035D01*
X352650Y188741D01*
X353663Y188820D01*
X353626Y189055D01*
X353571Y189278D01*
X353498Y189487D01*
X353406Y189682D01*
X353297Y189865D01*
X353169Y190034D01*
X353023Y190189D01*
X352860Y190332D01*
X352681Y190459D01*
X352489Y190569D01*
X352285Y190663D01*
X352069Y190739D01*
X351841Y190799D01*
X351600Y190841D01*
X351347Y190866D01*
X351082Y190875D01*
X350793Y190866D01*
X350521Y190840D01*
X350266Y190797D01*
X350027Y190737D01*
X349804Y190659D01*
X349599Y190565D01*
X349409Y190453D01*
X349236Y190323D01*
X349082Y190179D01*
X348949Y190020D01*
X348835Y189849D01*
X348743Y189663D01*
X348671Y189464D01*
X348620Y189252D01*
X348589Y189026D01*
X348578Y188786D01*
X348585Y188602D01*
X348605Y188426D01*
X348638Y188259D01*
X348684Y188101D01*
X348744Y187952D01*
X348816Y187811D01*
X349001Y187557D01*
X349237Y187339D01*
X349520Y187160D01*
X349851Y187019D01*
X350230Y186916D01*
X350230Y186893D01*
X350015Y186863D01*
X349813Y186821D01*
X349622Y186765D01*
X349444Y186697D01*
X349278Y186617D01*
X349124Y186524D01*
X348982Y186418D01*
X348853Y186300D01*
X348737Y186171D01*
X348637Y186034D01*
X348553Y185890D01*
X348483Y185737D01*
X348429Y185576D01*
X348391Y185407D01*
X348368Y185230D01*
X348360Y185045D01*
X348371Y184780D01*
X348403Y184530D01*
X348458Y184296D01*
X348534Y184077D01*
X348631Y183873D01*
X348751Y183685D01*
X348892Y183512D01*
X349054Y183354D01*
X349237Y183214D01*
X349439Y183092D01*
X349659Y182989D01*
X349897Y182905D01*
X350154Y182839D01*
X350430Y182792D01*
X350724Y182764D01*
X351037Y182755D01*
X351329Y182763D01*
G37*
%LPC*%
G36*
X344526Y186368D02*
X344319Y186405D01*
X344120Y186468D01*
X343928Y186555D01*
X343751Y186664D01*
X343593Y186795D01*
X343455Y186946D01*
X343337Y187117D01*
X343243Y187306D01*
X343176Y187507D01*
X343135Y187720D01*
X343122Y187946D01*
X343129Y188178D01*
X343149Y188399D01*
X343183Y188608D01*
X343231Y188805D01*
X343292Y188991D01*
X343368Y189165D01*
X343456Y189327D01*
X343559Y189478D01*
X343672Y189614D01*
X343796Y189731D01*
X343928Y189831D01*
X344070Y189912D01*
X344221Y189976D01*
X344381Y190021D01*
X344550Y190048D01*
X344729Y190057D01*
X344906Y190050D01*
X345074Y190026D01*
X345232Y189988D01*
X345380Y189933D01*
X345519Y189864D01*
X345648Y189779D01*
X345767Y189678D01*
X345877Y189562D01*
X345975Y189432D01*
X346061Y189292D01*
X346133Y189141D01*
X346192Y188979D01*
X346238Y188806D01*
X346271Y188621D01*
X346290Y188427D01*
X346297Y188221D01*
X346290Y188011D01*
X346271Y187812D01*
X346238Y187625D01*
X346192Y187448D01*
X346133Y187284D01*
X346061Y187130D01*
X345975Y186988D01*
X345877Y186857D01*
X345767Y186740D01*
X345648Y186638D01*
X345520Y186552D01*
X345383Y186481D01*
X345236Y186426D01*
X345080Y186387D01*
X344915Y186364D01*
X344740Y186356D01*
X344526Y186368D01*
G37*
%LPD*%
G36*
X443014Y156909D02*
X443322Y156958D01*
X443610Y157039D01*
X443876Y157152D01*
X444121Y157298D01*
X444344Y157476D01*
X444547Y157686D01*
X444728Y157929D01*
X444888Y158203D01*
X445027Y158506D01*
X445145Y158840D01*
X445241Y159203D01*
X445315Y159596D01*
X445369Y160018D01*
X445401Y160471D01*
X445411Y160953D01*
X445401Y161445D01*
X445370Y161906D01*
X445318Y162334D01*
X445246Y162731D01*
X445152Y163096D01*
X445038Y163429D01*
X444903Y163730D01*
X444748Y163999D01*
X444570Y164237D01*
X444368Y164443D01*
X444142Y164617D01*
X443892Y164760D01*
X443618Y164870D01*
X443319Y164950D01*
X442997Y164997D01*
X442651Y165013D01*
X442313Y164997D01*
X441999Y164949D01*
X441708Y164869D01*
X441439Y164757D01*
X441193Y164613D01*
X440970Y164437D01*
X440770Y164228D01*
X440593Y163988D01*
X440437Y163717D01*
X440302Y163414D01*
X440188Y163081D01*
X440095Y162717D01*
X440022Y162322D01*
X439971Y161897D01*
X439939Y161440D01*
X439929Y160953D01*
X439940Y160473D01*
X439973Y160023D01*
X440027Y159602D01*
X440103Y159210D01*
X440201Y158847D01*
X440321Y158514D01*
X440463Y158210D01*
X440626Y157935D01*
X440811Y157690D01*
X441016Y157479D01*
X441242Y157300D01*
X441489Y157153D01*
X441757Y157039D01*
X442045Y156958D01*
X442354Y156909D01*
X442684Y156893D01*
X443014Y156909D01*
G37*
G36*
X448253Y158791D02*
X451971Y158791D01*
X451971Y159575D01*
X448359Y164895D01*
X447301Y164895D01*
X447301Y159587D01*
X446192Y159587D01*
X446192Y158791D01*
X447301Y158791D01*
X447301Y157005D01*
X448253Y157005D01*
X448253Y158791D01*
G37*
%LPC*%
G36*
X442458Y157729D02*
X442258Y157766D01*
X442072Y157828D01*
X441902Y157915D01*
X441746Y158027D01*
X441605Y158163D01*
X441479Y158325D01*
X441368Y158511D01*
X441271Y158723D01*
X441187Y158962D01*
X441116Y159227D01*
X441057Y159519D01*
X441012Y159838D01*
X440980Y160183D01*
X440960Y160555D01*
X440954Y160953D01*
X440960Y161365D01*
X440979Y161748D01*
X441009Y162102D01*
X441053Y162426D01*
X441108Y162720D01*
X441176Y162986D01*
X441256Y163222D01*
X441349Y163428D01*
X441455Y163608D01*
X441578Y163764D01*
X441717Y163896D01*
X441872Y164004D01*
X442042Y164087D01*
X442229Y164147D01*
X442432Y164183D01*
X442651Y164195D01*
X442875Y164184D01*
X443083Y164148D01*
X443274Y164089D01*
X443449Y164006D01*
X443608Y163900D01*
X443750Y163770D01*
X443877Y163617D01*
X443986Y163439D01*
X444081Y163235D01*
X444164Y163000D01*
X444234Y162735D01*
X444291Y162440D01*
X444335Y162114D01*
X444367Y161757D01*
X444386Y161370D01*
X444392Y160953D01*
X444386Y160547D01*
X444366Y160169D01*
X444334Y159820D01*
X444289Y159498D01*
X444231Y159205D01*
X444161Y158940D01*
X444077Y158703D01*
X443981Y158495D01*
X443870Y158312D01*
X443745Y158154D01*
X443604Y158020D01*
X443448Y157911D01*
X443277Y157826D01*
X443091Y157765D01*
X442889Y157728D01*
X442673Y157716D01*
X442458Y157729D01*
G37*
%LPD*%
G36*
X456379Y156901D02*
X456662Y156924D01*
X456935Y156963D01*
X457198Y157017D01*
X457451Y157087D01*
X457694Y157172D01*
X457927Y157272D01*
X458150Y157389D01*
X458361Y157519D01*
X458559Y157663D01*
X458744Y157820D01*
X458917Y157991D01*
X459076Y158174D01*
X459223Y158371D01*
X459356Y158582D01*
X459477Y158805D01*
X459584Y159041D01*
X459677Y159287D01*
X459755Y159544D01*
X459819Y159811D01*
X459869Y160089D01*
X459905Y160378D01*
X459926Y160677D01*
X459933Y160987D01*
X459917Y161446D01*
X459870Y161879D01*
X459790Y162287D01*
X459678Y162669D01*
X459535Y163026D01*
X459360Y163357D01*
X459153Y163663D01*
X458914Y163943D01*
X458647Y164194D01*
X458355Y164411D01*
X458039Y164595D01*
X457699Y164746D01*
X457334Y164863D01*
X456944Y164946D01*
X456530Y164996D01*
X456092Y165013D01*
X455783Y165005D01*
X455488Y164982D01*
X455205Y164944D01*
X454935Y164890D01*
X454679Y164820D01*
X454435Y164736D01*
X454204Y164636D01*
X453986Y164520D01*
X453782Y164390D01*
X453591Y164244D01*
X453415Y164084D01*
X453252Y163908D01*
X453104Y163718D01*
X452970Y163513D01*
X452849Y163293D01*
X452743Y163059D01*
X453756Y162723D01*
X453915Y163047D01*
X454114Y163330D01*
X454356Y163573D01*
X454638Y163775D01*
X454956Y163935D01*
X455303Y164048D01*
X455677Y164117D01*
X456080Y164139D01*
X456399Y164126D01*
X456699Y164087D01*
X456981Y164021D01*
X457245Y163929D01*
X457491Y163810D01*
X457718Y163665D01*
X457928Y163494D01*
X458119Y163297D01*
X458289Y163076D01*
X458437Y162836D01*
X458562Y162577D01*
X458665Y162298D01*
X458744Y161999D01*
X458801Y161681D01*
X458835Y161344D01*
X458847Y160987D01*
X458835Y160633D01*
X458799Y160297D01*
X458740Y159979D01*
X458657Y159678D01*
X458550Y159396D01*
X458420Y159131D01*
X458266Y158884D01*
X458088Y158654D01*
X457890Y158447D01*
X457675Y158268D01*
X457444Y158117D01*
X457196Y157993D01*
X456931Y157896D01*
X456649Y157827D01*
X456351Y157786D01*
X456036Y157772D01*
X455832Y157779D01*
X455634Y157798D01*
X455443Y157830D01*
X455258Y157875D01*
X454908Y158003D01*
X454584Y158182D01*
X454285Y158413D01*
X454012Y158695D01*
X453765Y159028D01*
X453544Y159413D01*
X452670Y158976D01*
X452798Y158729D01*
X452938Y158497D01*
X453091Y158280D01*
X453256Y158079D01*
X453433Y157893D01*
X453623Y157721D01*
X453825Y157566D01*
X454039Y157425D01*
X454264Y157300D01*
X454498Y157192D01*
X454741Y157101D01*
X454992Y157026D01*
X455252Y156968D01*
X455521Y156926D01*
X455799Y156901D01*
X456086Y156893D01*
X456379Y156901D01*
G37*
%LPC*%
G36*
X448253Y159587D02*
X448253Y163759D01*
X448410Y163462D01*
X448628Y163092D01*
X450650Y160113D01*
X450952Y159699D01*
X451042Y159587D01*
X448253Y159587D01*
G37*
%LPD*%
G36*
X446253Y119638D02*
X449971Y119638D01*
X449971Y120422D01*
X446359Y125742D01*
X445301Y125742D01*
X445301Y120434D01*
X444192Y120434D01*
X444192Y119638D01*
X445301Y119638D01*
X445301Y117852D01*
X446253Y117852D01*
X446253Y119638D01*
G37*
G36*
X454379Y117748D02*
X454662Y117771D01*
X454935Y117810D01*
X455198Y117864D01*
X455451Y117934D01*
X455694Y118019D01*
X455927Y118119D01*
X456150Y118236D01*
X456361Y118366D01*
X456559Y118510D01*
X456744Y118667D01*
X456917Y118838D01*
X457076Y119021D01*
X457223Y119218D01*
X457356Y119429D01*
X457477Y119652D01*
X457584Y119888D01*
X457677Y120134D01*
X457755Y120391D01*
X457819Y120658D01*
X457869Y120936D01*
X457905Y121225D01*
X457926Y121524D01*
X457933Y121834D01*
X457917Y122293D01*
X457870Y122726D01*
X457790Y123134D01*
X457678Y123516D01*
X457535Y123873D01*
X457360Y124204D01*
X457153Y124510D01*
X456914Y124790D01*
X456647Y125041D01*
X456355Y125258D01*
X456039Y125442D01*
X455699Y125593D01*
X455334Y125710D01*
X454944Y125793D01*
X454530Y125843D01*
X454092Y125860D01*
X453783Y125852D01*
X453488Y125829D01*
X453205Y125791D01*
X452935Y125737D01*
X452679Y125667D01*
X452435Y125583D01*
X452204Y125483D01*
X451986Y125367D01*
X451782Y125237D01*
X451591Y125091D01*
X451415Y124931D01*
X451252Y124755D01*
X451104Y124565D01*
X450970Y124360D01*
X450849Y124140D01*
X450743Y123906D01*
X451756Y123570D01*
X451915Y123894D01*
X452114Y124177D01*
X452356Y124420D01*
X452638Y124622D01*
X452956Y124782D01*
X453303Y124895D01*
X453677Y124964D01*
X454080Y124986D01*
X454399Y124973D01*
X454699Y124934D01*
X454981Y124868D01*
X455245Y124776D01*
X455491Y124657D01*
X455718Y124512D01*
X455928Y124341D01*
X456119Y124144D01*
X456289Y123923D01*
X456437Y123683D01*
X456562Y123424D01*
X456665Y123145D01*
X456744Y122846D01*
X456801Y122528D01*
X456835Y122191D01*
X456847Y121834D01*
X456835Y121480D01*
X456799Y121144D01*
X456740Y120826D01*
X456657Y120525D01*
X456550Y120243D01*
X456420Y119978D01*
X456266Y119731D01*
X456088Y119501D01*
X455890Y119294D01*
X455675Y119115D01*
X455444Y118964D01*
X455196Y118840D01*
X454931Y118743D01*
X454649Y118674D01*
X454351Y118633D01*
X454036Y118619D01*
X453832Y118626D01*
X453634Y118645D01*
X453443Y118677D01*
X453258Y118722D01*
X452908Y118850D01*
X452584Y119029D01*
X452285Y119260D01*
X452012Y119542D01*
X451765Y119875D01*
X451544Y120260D01*
X450670Y119823D01*
X450798Y119576D01*
X450938Y119344D01*
X451091Y119127D01*
X451256Y118926D01*
X451433Y118740D01*
X451623Y118568D01*
X451825Y118413D01*
X452039Y118272D01*
X452264Y118147D01*
X452498Y118039D01*
X452741Y117948D01*
X452992Y117873D01*
X453252Y117815D01*
X453521Y117773D01*
X453799Y117748D01*
X454086Y117740D01*
X454379Y117748D01*
G37*
G36*
X442986Y118709D02*
X440975Y118709D01*
X440975Y124779D01*
X442756Y123508D01*
X442756Y124460D01*
X440891Y125742D01*
X439962Y125742D01*
X439962Y118709D01*
X438041Y118709D01*
X438041Y117852D01*
X442986Y117852D01*
X442986Y118709D01*
G37*
%LPC*%
G36*
X446253Y120434D02*
X446253Y124606D01*
X446410Y124309D01*
X446628Y123939D01*
X448650Y120960D01*
X448952Y120546D01*
X449042Y120434D01*
X446253Y120434D01*
G37*
%LPD*%
G36*
X447253Y215791D02*
X450971Y215791D01*
X450971Y216575D01*
X447359Y221895D01*
X446301Y221895D01*
X446301Y216587D01*
X445192Y216587D01*
X445192Y215791D01*
X446301Y215791D01*
X446301Y214005D01*
X447253Y214005D01*
X447253Y215791D01*
G37*
G36*
X455379Y213901D02*
X455662Y213924D01*
X455935Y213963D01*
X456198Y214017D01*
X456451Y214087D01*
X456694Y214172D01*
X456927Y214272D01*
X457150Y214389D01*
X457361Y214519D01*
X457559Y214663D01*
X457744Y214820D01*
X457917Y214991D01*
X458076Y215174D01*
X458223Y215371D01*
X458356Y215582D01*
X458477Y215805D01*
X458584Y216041D01*
X458677Y216287D01*
X458755Y216544D01*
X458819Y216811D01*
X458869Y217089D01*
X458905Y217378D01*
X458926Y217677D01*
X458933Y217987D01*
X458917Y218446D01*
X458870Y218879D01*
X458790Y219287D01*
X458678Y219669D01*
X458535Y220026D01*
X458360Y220357D01*
X458153Y220663D01*
X457914Y220943D01*
X457647Y221194D01*
X457355Y221411D01*
X457039Y221595D01*
X456699Y221746D01*
X456334Y221863D01*
X455944Y221946D01*
X455530Y221996D01*
X455092Y222013D01*
X454783Y222005D01*
X454488Y221982D01*
X454205Y221944D01*
X453935Y221890D01*
X453679Y221820D01*
X453435Y221736D01*
X453204Y221636D01*
X452986Y221520D01*
X452782Y221390D01*
X452591Y221244D01*
X452415Y221084D01*
X452252Y220908D01*
X452104Y220718D01*
X451970Y220513D01*
X451849Y220293D01*
X451743Y220059D01*
X452756Y219723D01*
X452915Y220047D01*
X453114Y220330D01*
X453356Y220573D01*
X453638Y220775D01*
X453956Y220935D01*
X454303Y221048D01*
X454677Y221117D01*
X455080Y221139D01*
X455399Y221126D01*
X455699Y221087D01*
X455981Y221021D01*
X456245Y220929D01*
X456491Y220810D01*
X456718Y220665D01*
X456928Y220494D01*
X457119Y220297D01*
X457289Y220076D01*
X457437Y219836D01*
X457562Y219577D01*
X457665Y219298D01*
X457744Y218999D01*
X457801Y218681D01*
X457835Y218344D01*
X457847Y217987D01*
X457835Y217633D01*
X457799Y217297D01*
X457740Y216979D01*
X457657Y216678D01*
X457550Y216396D01*
X457420Y216131D01*
X457266Y215884D01*
X457088Y215654D01*
X456890Y215447D01*
X456675Y215268D01*
X456444Y215117D01*
X456196Y214993D01*
X455931Y214896D01*
X455649Y214827D01*
X455351Y214786D01*
X455036Y214772D01*
X454832Y214779D01*
X454634Y214798D01*
X454443Y214830D01*
X454258Y214875D01*
X453908Y215003D01*
X453584Y215182D01*
X453285Y215413D01*
X453012Y215695D01*
X452765Y216028D01*
X452544Y216413D01*
X451670Y215976D01*
X451798Y215729D01*
X451938Y215497D01*
X452091Y215280D01*
X452256Y215079D01*
X452433Y214893D01*
X452623Y214721D01*
X452825Y214566D01*
X453039Y214425D01*
X453264Y214300D01*
X453498Y214192D01*
X453741Y214101D01*
X453992Y214026D01*
X454252Y213968D01*
X454521Y213926D01*
X454799Y213901D01*
X455086Y213893D01*
X455379Y213901D01*
G37*
G36*
X444283Y214716D02*
X444132Y215034D01*
X443966Y215333D01*
X443783Y215612D01*
X443585Y215873D01*
X443163Y216350D01*
X442720Y216780D01*
X442269Y217171D01*
X441821Y217533D01*
X441398Y217880D01*
X441018Y218227D01*
X440694Y218583D01*
X440557Y218767D01*
X440438Y218955D01*
X440341Y219152D01*
X440272Y219361D01*
X440231Y219583D01*
X440217Y219818D01*
X440241Y220124D01*
X440312Y220395D01*
X440431Y220628D01*
X440598Y220826D01*
X440807Y220983D01*
X441053Y221095D01*
X441336Y221162D01*
X441656Y221184D01*
X441964Y221162D01*
X442244Y221097D01*
X442495Y220987D01*
X442717Y220834D01*
X442904Y220641D01*
X443049Y220413D01*
X443149Y220150D01*
X443207Y219851D01*
X444238Y219947D01*
X444201Y220177D01*
X444146Y220396D01*
X444072Y220602D01*
X443981Y220796D01*
X443871Y220979D01*
X443744Y221149D01*
X443598Y221307D01*
X443434Y221453D01*
X443255Y221584D01*
X443064Y221698D01*
X442860Y221794D01*
X442644Y221873D01*
X442415Y221934D01*
X442175Y221978D01*
X441922Y222004D01*
X441656Y222013D01*
X441367Y222004D01*
X441094Y221978D01*
X440839Y221934D01*
X440601Y221872D01*
X440381Y221793D01*
X440177Y221696D01*
X439991Y221582D01*
X439822Y221450D01*
X439672Y221302D01*
X439542Y221139D01*
X439431Y220962D01*
X439341Y220769D01*
X439271Y220562D01*
X439221Y220340D01*
X439191Y220103D01*
X439181Y219851D01*
X439194Y219622D01*
X439234Y219394D01*
X439299Y219166D01*
X439391Y218939D01*
X439509Y218712D01*
X439652Y218485D01*
X439821Y218258D01*
X440015Y218031D01*
X440270Y217773D01*
X440619Y217453D01*
X441600Y216626D01*
X442178Y216125D01*
X442625Y215677D01*
X442802Y215467D01*
X442953Y215261D01*
X443077Y215060D01*
X443174Y214862D01*
X439058Y214862D01*
X439058Y214005D01*
X444283Y214005D01*
X444283Y214716D01*
G37*
%LPC*%
G36*
X447253Y216587D02*
X447253Y220759D01*
X447410Y220462D01*
X447628Y220092D01*
X449650Y217113D01*
X449952Y216699D01*
X450042Y216587D01*
X447253Y216587D01*
G37*
%LPD*%
G36*
X347253Y158806D02*
X350971Y158806D01*
X350971Y159590D01*
X347359Y164910D01*
X346301Y164910D01*
X346301Y159602D01*
X345192Y159602D01*
X345192Y158806D01*
X346301Y158806D01*
X346301Y157020D01*
X347253Y157020D01*
X347253Y158806D01*
G37*
G36*
X355379Y156916D02*
X355662Y156939D01*
X355935Y156978D01*
X356198Y157032D01*
X356451Y157102D01*
X356694Y157187D01*
X356927Y157287D01*
X357150Y157404D01*
X357361Y157534D01*
X357559Y157678D01*
X357744Y157835D01*
X357917Y158006D01*
X358076Y158189D01*
X358223Y158386D01*
X358356Y158597D01*
X358477Y158820D01*
X358584Y159056D01*
X358677Y159302D01*
X358755Y159559D01*
X358819Y159826D01*
X358869Y160104D01*
X358905Y160393D01*
X358926Y160692D01*
X358933Y161002D01*
X358917Y161461D01*
X358870Y161894D01*
X358790Y162302D01*
X358678Y162684D01*
X358535Y163041D01*
X358360Y163372D01*
X358153Y163678D01*
X357914Y163958D01*
X357647Y164209D01*
X357355Y164426D01*
X357039Y164610D01*
X356699Y164761D01*
X356334Y164878D01*
X355944Y164961D01*
X355530Y165011D01*
X355092Y165028D01*
X354783Y165020D01*
X354488Y164997D01*
X354205Y164959D01*
X353935Y164905D01*
X353679Y164835D01*
X353435Y164751D01*
X353204Y164651D01*
X352986Y164535D01*
X352782Y164405D01*
X352591Y164259D01*
X352415Y164099D01*
X352252Y163923D01*
X352104Y163733D01*
X351970Y163528D01*
X351849Y163308D01*
X351743Y163074D01*
X352756Y162738D01*
X352915Y163062D01*
X353114Y163345D01*
X353356Y163588D01*
X353638Y163790D01*
X353956Y163950D01*
X354303Y164063D01*
X354677Y164132D01*
X355080Y164154D01*
X355399Y164141D01*
X355699Y164102D01*
X355981Y164036D01*
X356245Y163944D01*
X356491Y163825D01*
X356718Y163680D01*
X356928Y163509D01*
X357119Y163312D01*
X357289Y163091D01*
X357437Y162851D01*
X357562Y162592D01*
X357665Y162313D01*
X357744Y162014D01*
X357801Y161696D01*
X357835Y161359D01*
X357847Y161002D01*
X357835Y160648D01*
X357799Y160312D01*
X357740Y159994D01*
X357657Y159693D01*
X357550Y159411D01*
X357420Y159146D01*
X357266Y158899D01*
X357088Y158669D01*
X356890Y158462D01*
X356675Y158283D01*
X356444Y158132D01*
X356196Y158008D01*
X355931Y157911D01*
X355649Y157842D01*
X355351Y157801D01*
X355036Y157787D01*
X354832Y157794D01*
X354634Y157813D01*
X354443Y157845D01*
X354258Y157890D01*
X353908Y158018D01*
X353584Y158197D01*
X353285Y158428D01*
X353012Y158710D01*
X352765Y159043D01*
X352544Y159428D01*
X351670Y158991D01*
X351798Y158744D01*
X351938Y158512D01*
X352091Y158295D01*
X352256Y158094D01*
X352433Y157908D01*
X352623Y157736D01*
X352825Y157581D01*
X353039Y157440D01*
X353264Y157315D01*
X353498Y157207D01*
X353741Y157116D01*
X353992Y157041D01*
X354252Y156983D01*
X354521Y156941D01*
X354799Y156916D01*
X355086Y156908D01*
X355379Y156916D01*
G37*
G36*
X341954Y156916D02*
X342231Y156942D01*
X342492Y156984D01*
X342739Y157043D01*
X342971Y157119D01*
X343187Y157212D01*
X343388Y157322D01*
X343574Y157448D01*
X343744Y157592D01*
X343895Y157751D01*
X344028Y157927D01*
X344143Y158118D01*
X344240Y158326D01*
X344319Y158550D01*
X344380Y158791D01*
X344423Y159047D01*
X343381Y159142D01*
X343310Y158814D01*
X343198Y158530D01*
X343045Y158289D01*
X342850Y158092D01*
X342615Y157939D01*
X342338Y157830D01*
X342021Y157764D01*
X341662Y157742D01*
X341301Y157766D01*
X340982Y157836D01*
X340704Y157953D01*
X340466Y158118D01*
X340365Y158217D01*
X340276Y158328D01*
X340202Y158450D01*
X340141Y158584D01*
X340093Y158729D01*
X340059Y158885D01*
X340039Y159053D01*
X340032Y159232D01*
X340040Y159389D01*
X340063Y159536D01*
X340102Y159675D01*
X340156Y159805D01*
X340226Y159927D01*
X340311Y160039D01*
X340412Y160142D01*
X340528Y160237D01*
X340659Y160322D01*
X340803Y160395D01*
X340961Y160457D01*
X341133Y160508D01*
X341518Y160576D01*
X341959Y160598D01*
X342530Y160598D01*
X342530Y161472D01*
X341981Y161472D01*
X341590Y161495D01*
X341245Y161562D01*
X340947Y161675D01*
X340696Y161833D01*
X340496Y162031D01*
X340418Y162143D01*
X340354Y162264D01*
X340304Y162393D01*
X340268Y162531D01*
X340247Y162678D01*
X340239Y162833D01*
X340263Y163133D01*
X340333Y163399D01*
X340449Y163632D01*
X340612Y163832D01*
X340821Y163993D01*
X341075Y164107D01*
X341374Y164176D01*
X341718Y164199D01*
X342035Y164178D01*
X342321Y164114D01*
X342574Y164007D01*
X342796Y163858D01*
X342980Y163669D01*
X343121Y163446D01*
X343219Y163188D01*
X343275Y162894D01*
X344288Y162973D01*
X344251Y163208D01*
X344196Y163431D01*
X344123Y163640D01*
X344031Y163835D01*
X343922Y164018D01*
X343794Y164187D01*
X343648Y164342D01*
X343485Y164485D01*
X343306Y164612D01*
X343114Y164722D01*
X342910Y164816D01*
X342694Y164892D01*
X342466Y164952D01*
X342225Y164994D01*
X341972Y165019D01*
X341707Y165028D01*
X341418Y165019D01*
X341146Y164993D01*
X340891Y164950D01*
X340652Y164890D01*
X340429Y164812D01*
X340224Y164718D01*
X340034Y164606D01*
X339861Y164476D01*
X339707Y164332D01*
X339574Y164173D01*
X339460Y164002D01*
X339368Y163816D01*
X339296Y163617D01*
X339245Y163405D01*
X339214Y163179D01*
X339203Y162939D01*
X339210Y162755D01*
X339230Y162579D01*
X339263Y162412D01*
X339309Y162254D01*
X339369Y162105D01*
X339441Y161964D01*
X339626Y161710D01*
X339862Y161492D01*
X340145Y161313D01*
X340476Y161172D01*
X340855Y161069D01*
X340855Y161046D01*
X340640Y161016D01*
X340438Y160974D01*
X340247Y160918D01*
X340069Y160850D01*
X339903Y160770D01*
X339749Y160677D01*
X339607Y160571D01*
X339478Y160453D01*
X339362Y160324D01*
X339262Y160187D01*
X339178Y160043D01*
X339108Y159890D01*
X339054Y159729D01*
X339016Y159560D01*
X338993Y159383D01*
X338985Y159198D01*
X338996Y158933D01*
X339028Y158683D01*
X339083Y158449D01*
X339159Y158230D01*
X339256Y158026D01*
X339376Y157838D01*
X339517Y157665D01*
X339679Y157507D01*
X339862Y157367D01*
X340064Y157245D01*
X340284Y157142D01*
X340522Y157058D01*
X340779Y156992D01*
X341055Y156945D01*
X341349Y156917D01*
X341662Y156908D01*
X341954Y156916D01*
G37*
%LPC*%
G36*
X347253Y159602D02*
X347253Y163774D01*
X347410Y163477D01*
X347628Y163107D01*
X349650Y160128D01*
X349952Y159714D01*
X350042Y159602D01*
X347253Y159602D01*
G37*
%LPD*%
G36*
X271327Y399936D02*
X273785Y399936D01*
X273785Y396661D01*
X274855Y396661D01*
X274855Y404551D01*
X271142Y404551D01*
X270818Y404542D01*
X270514Y404514D01*
X270228Y404467D01*
X269961Y404402D01*
X269713Y404318D01*
X269485Y404215D01*
X269275Y404094D01*
X269084Y403954D01*
X268914Y403798D01*
X268767Y403627D01*
X268642Y403441D01*
X268540Y403241D01*
X268461Y403026D01*
X268404Y402797D01*
X268370Y402553D01*
X268359Y402294D01*
X268367Y402079D01*
X268391Y401872D01*
X268431Y401674D01*
X268487Y401485D01*
X268559Y401304D01*
X268647Y401133D01*
X268751Y400970D01*
X268871Y400816D01*
X269005Y400673D01*
X269152Y400544D01*
X269310Y400428D01*
X269381Y400386D01*
X269481Y400327D01*
X269664Y400239D01*
X269859Y400166D01*
X270066Y400106D01*
X270285Y400060D01*
X269332Y398613D01*
X268045Y396661D01*
X269277Y396661D01*
X271327Y399936D01*
G37*
G36*
X258312Y396556D02*
X258568Y396579D01*
X258810Y396616D01*
X259039Y396669D01*
X259255Y396737D01*
X259458Y396819D01*
X259647Y396917D01*
X259823Y397030D01*
X259985Y397157D01*
X260131Y397298D01*
X260262Y397452D01*
X260376Y397619D01*
X260476Y397801D01*
X260559Y397995D01*
X260628Y398203D01*
X260680Y398424D01*
X259661Y398542D01*
X259566Y398268D01*
X259439Y398030D01*
X259281Y397829D01*
X259091Y397664D01*
X258870Y397536D01*
X258618Y397445D01*
X258335Y397390D01*
X258020Y397372D01*
X257823Y397379D01*
X257636Y397402D01*
X257461Y397441D01*
X257296Y397494D01*
X257143Y397563D01*
X257001Y397647D01*
X256869Y397747D01*
X256749Y397862D01*
X256641Y397990D01*
X256548Y398130D01*
X256469Y398281D01*
X256405Y398443D01*
X256354Y398617D01*
X256319Y398803D01*
X256297Y399000D01*
X256290Y399208D01*
X256297Y399390D01*
X256319Y399563D01*
X256355Y399727D01*
X256405Y399882D01*
X256470Y400028D01*
X256550Y400165D01*
X256644Y400293D01*
X256752Y400412D01*
X256872Y400520D01*
X257003Y400613D01*
X257144Y400692D01*
X257294Y400757D01*
X257455Y400807D01*
X257626Y400843D01*
X257807Y400865D01*
X257998Y400872D01*
X258199Y400864D01*
X258393Y400839D01*
X258580Y400799D01*
X258759Y400743D01*
X258936Y400667D01*
X259112Y400569D01*
X259289Y400449D01*
X259465Y400306D01*
X260451Y400306D01*
X260187Y404551D01*
X255702Y404551D01*
X255702Y403694D01*
X259269Y403694D01*
X259420Y401191D01*
X259251Y401309D01*
X259073Y401411D01*
X258884Y401498D01*
X258685Y401569D01*
X258477Y401624D01*
X258258Y401663D01*
X258029Y401687D01*
X257791Y401695D01*
X257507Y401684D01*
X257238Y401652D01*
X256984Y401599D01*
X256744Y401524D01*
X256519Y401428D01*
X256310Y401311D01*
X256115Y401172D01*
X255934Y401012D01*
X255772Y400834D01*
X255632Y400644D01*
X255513Y400441D01*
X255416Y400225D01*
X255340Y399996D01*
X255286Y399754D01*
X255253Y399499D01*
X255243Y399231D01*
X255254Y398927D01*
X255289Y398640D01*
X255347Y398369D01*
X255428Y398115D01*
X255532Y397878D01*
X255660Y397657D01*
X255811Y397453D01*
X255985Y397265D01*
X256179Y397097D01*
X256392Y396952D01*
X256622Y396828D01*
X256870Y396728D01*
X257136Y396649D01*
X257420Y396593D01*
X257723Y396560D01*
X258043Y396549D01*
X258312Y396556D01*
G37*
G36*
X266641Y397517D02*
X264630Y397517D01*
X264630Y403588D01*
X266411Y402316D01*
X266411Y403268D01*
X264546Y404551D01*
X263617Y404551D01*
X263617Y397517D01*
X261696Y397517D01*
X261696Y396661D01*
X266641Y396661D01*
X266641Y397517D01*
G37*
%LPC*%
G36*
X271204Y400782D02*
X270998Y400788D01*
X270805Y400807D01*
X270623Y400838D01*
X270454Y400881D01*
X270297Y400936D01*
X270151Y401004D01*
X270018Y401084D01*
X269896Y401177D01*
X269788Y401281D01*
X269694Y401394D01*
X269615Y401517D01*
X269550Y401651D01*
X269499Y401794D01*
X269463Y401947D01*
X269441Y402110D01*
X269434Y402283D01*
X269441Y402450D01*
X269463Y402607D01*
X269500Y402753D01*
X269551Y402890D01*
X269617Y403016D01*
X269697Y403132D01*
X269792Y403237D01*
X269902Y403333D01*
X270025Y403418D01*
X270161Y403491D01*
X270472Y403604D01*
X270835Y403671D01*
X271248Y403694D01*
X273785Y403694D01*
X273785Y400782D01*
X271204Y400782D01*
G37*
%LPD*%
G36*
X327487Y434139D02*
X324878Y434139D01*
X324391Y434124D01*
X323933Y434077D01*
X323503Y433998D01*
X323102Y433888D01*
X322729Y433747D01*
X322386Y433574D01*
X322070Y433370D01*
X321784Y433134D01*
X321529Y432870D01*
X321307Y432579D01*
X321120Y432261D01*
X320967Y431917D01*
X320848Y431546D01*
X320763Y431149D01*
X320712Y430726D01*
X320695Y430275D01*
X320702Y429975D01*
X320724Y429684D01*
X320762Y429403D01*
X320814Y429131D01*
X320881Y428869D01*
X320962Y428616D01*
X321059Y428373D01*
X321171Y428139D01*
X321296Y427917D01*
X321433Y427708D01*
X321583Y427513D01*
X321746Y427330D01*
X321921Y427162D01*
X322108Y427007D01*
X322308Y426865D01*
X322520Y426736D01*
X322743Y426622D01*
X322974Y426523D01*
X323213Y426439D01*
X323461Y426371D01*
X323717Y426318D01*
X323982Y426279D01*
X324255Y426257D01*
X324536Y426249D01*
X327487Y426249D01*
X327487Y434139D01*
G37*
G36*
X317144Y426153D02*
X317448Y426199D01*
X317732Y426276D01*
X317997Y426385D01*
X318242Y426524D01*
X318467Y426695D01*
X318673Y426896D01*
X318859Y427128D01*
X319024Y427390D01*
X319168Y427680D01*
X319289Y427998D01*
X319388Y428345D01*
X319465Y428719D01*
X319520Y429122D01*
X319553Y429553D01*
X319565Y430012D01*
X319553Y430510D01*
X319519Y430977D01*
X319461Y431416D01*
X319381Y431824D01*
X319278Y432202D01*
X319152Y432551D01*
X319003Y432870D01*
X318831Y433159D01*
X318638Y433417D01*
X318425Y433640D01*
X318193Y433828D01*
X317942Y433983D01*
X317671Y434103D01*
X317381Y434188D01*
X317071Y434240D01*
X316742Y434257D01*
X316524Y434251D01*
X316316Y434232D01*
X316119Y434200D01*
X315932Y434157D01*
X315755Y434100D01*
X315588Y434031D01*
X315432Y433949D01*
X315286Y433855D01*
X315025Y433629D01*
X314806Y433353D01*
X314628Y433026D01*
X314491Y432650D01*
X315454Y432476D01*
X315539Y432702D01*
X315647Y432898D01*
X315776Y433063D01*
X315927Y433199D01*
X316101Y433304D01*
X316296Y433379D01*
X316514Y433424D01*
X316753Y433439D01*
X316963Y433427D01*
X317160Y433389D01*
X317345Y433326D01*
X317518Y433238D01*
X317679Y433125D01*
X317828Y432987D01*
X317965Y432824D01*
X318089Y432636D01*
X318200Y432424D01*
X318296Y432189D01*
X318377Y431932D01*
X318444Y431652D01*
X318496Y431350D01*
X318533Y431026D01*
X318555Y430679D01*
X318562Y430309D01*
X318411Y430549D01*
X318232Y430758D01*
X318025Y430936D01*
X317789Y431085D01*
X317531Y431201D01*
X317255Y431284D01*
X316960Y431334D01*
X316647Y431351D01*
X316381Y431340D01*
X316129Y431308D01*
X315891Y431255D01*
X315668Y431180D01*
X315458Y431084D01*
X315263Y430966D01*
X315081Y430828D01*
X314914Y430667D01*
X314763Y430489D01*
X314633Y430296D01*
X314523Y430089D01*
X314433Y429867D01*
X314363Y429630D01*
X314313Y429378D01*
X314283Y429112D01*
X314273Y428831D01*
X314283Y428527D01*
X314315Y428239D01*
X314368Y427968D01*
X314442Y427713D01*
X314537Y427475D01*
X314654Y427253D01*
X314791Y427048D01*
X314950Y426859D01*
X315128Y426690D01*
X315321Y426543D01*
X315531Y426419D01*
X315757Y426318D01*
X315998Y426239D01*
X316256Y426182D01*
X316530Y426148D01*
X316821Y426137D01*
X317144Y426153D01*
G37*
%LPC*%
G36*
X324659Y427106D02*
X324238Y427130D01*
X323844Y427201D01*
X323476Y427320D01*
X323133Y427487D01*
X322823Y427698D01*
X322552Y427951D01*
X322318Y428247D01*
X322123Y428584D01*
X321968Y428959D01*
X321858Y429365D01*
X321792Y429804D01*
X321770Y430275D01*
X321782Y430631D01*
X321820Y430965D01*
X321883Y431278D01*
X321971Y431568D01*
X322084Y431837D01*
X322222Y432084D01*
X322385Y432309D01*
X322573Y432513D01*
X322786Y432693D01*
X323020Y432849D01*
X323277Y432982D01*
X323557Y433090D01*
X323859Y433174D01*
X324184Y433234D01*
X324531Y433271D01*
X324900Y433283D01*
X326418Y433283D01*
X326418Y427106D01*
X324659Y427106D01*
G37*
G36*
X316677Y426957D02*
X316510Y426980D01*
X316352Y427018D01*
X316205Y427071D01*
X316067Y427140D01*
X315939Y427225D01*
X315820Y427324D01*
X315712Y427439D01*
X315615Y427567D01*
X315530Y427707D01*
X315459Y427858D01*
X315401Y428021D01*
X315356Y428195D01*
X315323Y428380D01*
X315304Y428577D01*
X315297Y428786D01*
X315304Y428994D01*
X315324Y429190D01*
X315356Y429373D01*
X315402Y429545D01*
X315461Y429704D01*
X315534Y429850D01*
X315619Y429985D01*
X315717Y430107D01*
X315827Y430216D01*
X315948Y430311D01*
X316079Y430391D01*
X316220Y430456D01*
X316371Y430507D01*
X316533Y430543D01*
X316705Y430565D01*
X316888Y430572D01*
X317060Y430566D01*
X317224Y430546D01*
X317379Y430514D01*
X317525Y430469D01*
X317793Y430341D01*
X318027Y430161D01*
X318129Y430053D01*
X318217Y429935D01*
X318292Y429808D01*
X318353Y429671D01*
X318400Y429525D01*
X318434Y429368D01*
X318455Y429202D01*
X318461Y429027D01*
X318454Y428804D01*
X318433Y428591D01*
X318398Y428388D01*
X318349Y428196D01*
X318285Y428015D01*
X318208Y427843D01*
X318116Y427682D01*
X318011Y427531D01*
X317894Y427395D01*
X317769Y427277D01*
X317637Y427176D01*
X317496Y427095D01*
X317347Y427031D01*
X317191Y426985D01*
X317027Y426958D01*
X316854Y426949D01*
X316677Y426957D01*
G37*
%LPD*%
G36*
X178598Y489032D02*
X178881Y489055D01*
X179154Y489094D01*
X179417Y489148D01*
X179670Y489218D01*
X179913Y489303D01*
X180146Y489403D01*
X180368Y489520D01*
X180580Y489650D01*
X180778Y489794D01*
X180963Y489951D01*
X181136Y490122D01*
X181295Y490305D01*
X181442Y490502D01*
X181575Y490713D01*
X181696Y490936D01*
X181803Y491172D01*
X181895Y491418D01*
X181974Y491675D01*
X182038Y491942D01*
X182088Y492220D01*
X182123Y492509D01*
X182145Y492808D01*
X182152Y493118D01*
X182136Y493577D01*
X182088Y494010D01*
X182009Y494418D01*
X181897Y494800D01*
X181754Y495157D01*
X181579Y495488D01*
X181372Y495794D01*
X181133Y496074D01*
X180866Y496325D01*
X180574Y496542D01*
X180258Y496726D01*
X179918Y496877D01*
X179553Y496994D01*
X179163Y497077D01*
X178749Y497127D01*
X178310Y497144D01*
X178002Y497136D01*
X177706Y497113D01*
X177424Y497075D01*
X177154Y497021D01*
X176897Y496951D01*
X176654Y496867D01*
X176423Y496767D01*
X176205Y496651D01*
X176000Y496521D01*
X175810Y496375D01*
X175634Y496215D01*
X175471Y496039D01*
X175323Y495849D01*
X175188Y495644D01*
X175068Y495424D01*
X174962Y495190D01*
X175975Y494854D01*
X176133Y495178D01*
X176333Y495461D01*
X176574Y495704D01*
X176857Y495906D01*
X177175Y496066D01*
X177522Y496179D01*
X177896Y496248D01*
X178299Y496270D01*
X178618Y496257D01*
X178918Y496218D01*
X179200Y496152D01*
X179464Y496060D01*
X179710Y495941D01*
X179937Y495796D01*
X180147Y495625D01*
X180338Y495428D01*
X180508Y495207D01*
X180656Y494967D01*
X180781Y494708D01*
X180884Y494429D01*
X180963Y494130D01*
X181020Y493812D01*
X181054Y493475D01*
X181066Y493118D01*
X181054Y492764D01*
X181018Y492428D01*
X180959Y492110D01*
X180876Y491809D01*
X180769Y491527D01*
X180639Y491262D01*
X180485Y491015D01*
X180307Y490785D01*
X180109Y490578D01*
X179894Y490399D01*
X179663Y490248D01*
X179414Y490124D01*
X179149Y490027D01*
X178868Y489958D01*
X178569Y489917D01*
X178254Y489903D01*
X178050Y489910D01*
X177853Y489929D01*
X177662Y489961D01*
X177477Y490006D01*
X177127Y490134D01*
X176803Y490313D01*
X176504Y490544D01*
X176231Y490826D01*
X175984Y491159D01*
X175762Y491544D01*
X174889Y491107D01*
X175017Y490860D01*
X175157Y490628D01*
X175310Y490411D01*
X175475Y490210D01*
X175652Y490024D01*
X175842Y489852D01*
X176044Y489697D01*
X176258Y489556D01*
X176483Y489431D01*
X176717Y489323D01*
X176959Y489232D01*
X177211Y489157D01*
X177471Y489099D01*
X177740Y489057D01*
X178018Y489032D01*
X178305Y489024D01*
X178598Y489032D01*
G37*
G36*
X171548Y489032D02*
X171824Y489058D01*
X172086Y489100D01*
X172333Y489159D01*
X172564Y489235D01*
X172781Y489328D01*
X172982Y489438D01*
X173168Y489564D01*
X173337Y489708D01*
X173489Y489867D01*
X173622Y490043D01*
X173737Y490234D01*
X173834Y490442D01*
X173913Y490666D01*
X173974Y490907D01*
X174016Y491163D01*
X172975Y491258D01*
X172904Y490930D01*
X172792Y490646D01*
X172639Y490405D01*
X172444Y490208D01*
X172209Y490055D01*
X171932Y489946D01*
X171614Y489880D01*
X171256Y489858D01*
X170895Y489882D01*
X170576Y489952D01*
X170297Y490069D01*
X170060Y490234D01*
X169958Y490333D01*
X169870Y490444D01*
X169796Y490566D01*
X169734Y490700D01*
X169687Y490845D01*
X169653Y491001D01*
X169633Y491169D01*
X169626Y491348D01*
X169634Y491505D01*
X169657Y491652D01*
X169696Y491791D01*
X169750Y491921D01*
X169820Y492043D01*
X169905Y492155D01*
X170005Y492258D01*
X170122Y492353D01*
X170252Y492438D01*
X170397Y492511D01*
X170555Y492573D01*
X170727Y492624D01*
X171112Y492692D01*
X171552Y492714D01*
X172124Y492714D01*
X172124Y493588D01*
X171575Y493588D01*
X171184Y493611D01*
X170839Y493678D01*
X170541Y493791D01*
X170290Y493949D01*
X170090Y494147D01*
X170011Y494259D01*
X169947Y494380D01*
X169897Y494509D01*
X169862Y494647D01*
X169840Y494794D01*
X169833Y494949D01*
X169856Y495249D01*
X169926Y495515D01*
X170043Y495748D01*
X170206Y495948D01*
X170414Y496109D01*
X170668Y496223D01*
X170967Y496292D01*
X171312Y496315D01*
X171629Y496294D01*
X171914Y496230D01*
X172168Y496123D01*
X172390Y495974D01*
X172574Y495785D01*
X172715Y495562D01*
X172813Y495304D01*
X172868Y495010D01*
X173882Y495089D01*
X173845Y495324D01*
X173790Y495547D01*
X173716Y495756D01*
X173625Y495951D01*
X173516Y496134D01*
X173388Y496303D01*
X173242Y496458D01*
X173078Y496601D01*
X172899Y496728D01*
X172708Y496838D01*
X172504Y496932D01*
X172288Y497008D01*
X172060Y497068D01*
X171819Y497110D01*
X171566Y497135D01*
X171300Y497144D01*
X171012Y497135D01*
X170740Y497109D01*
X170484Y497066D01*
X170245Y497006D01*
X170023Y496928D01*
X169817Y496834D01*
X169628Y496722D01*
X169455Y496592D01*
X169301Y496448D01*
X169167Y496289D01*
X169054Y496118D01*
X168962Y495932D01*
X168890Y495733D01*
X168838Y495521D01*
X168807Y495295D01*
X168797Y495055D01*
X168804Y494871D01*
X168824Y494695D01*
X168857Y494528D01*
X168903Y494370D01*
X168962Y494221D01*
X169035Y494080D01*
X169220Y493826D01*
X169455Y493608D01*
X169739Y493429D01*
X170070Y493288D01*
X170449Y493185D01*
X170449Y493162D01*
X170234Y493132D01*
X170031Y493090D01*
X169841Y493034D01*
X169662Y492966D01*
X169496Y492886D01*
X169342Y492793D01*
X169201Y492687D01*
X169072Y492569D01*
X168956Y492440D01*
X168856Y492303D01*
X168771Y492159D01*
X168702Y492006D01*
X168648Y491845D01*
X168610Y491676D01*
X168586Y491499D01*
X168579Y491314D01*
X168590Y491049D01*
X168622Y490799D01*
X168676Y490565D01*
X168752Y490346D01*
X168850Y490142D01*
X168969Y489954D01*
X169110Y489781D01*
X169273Y489623D01*
X169456Y489483D01*
X169657Y489361D01*
X169877Y489258D01*
X170116Y489174D01*
X170373Y489108D01*
X170649Y489061D01*
X170943Y489033D01*
X171256Y489024D01*
X171548Y489032D01*
G37*
G36*
X184864Y497026D02*
X183794Y497026D01*
X183794Y489136D01*
X184864Y489136D01*
X184864Y497026D01*
G37*
G36*
X350731Y392427D02*
X351014Y392450D01*
X351287Y392489D01*
X351550Y392543D01*
X351803Y392613D01*
X352046Y392698D01*
X352279Y392798D01*
X352501Y392915D01*
X352713Y393045D01*
X352911Y393189D01*
X353096Y393346D01*
X353268Y393517D01*
X353428Y393700D01*
X353574Y393897D01*
X353708Y394108D01*
X353828Y394331D01*
X353935Y394567D01*
X354028Y394813D01*
X354107Y395070D01*
X354171Y395337D01*
X354221Y395615D01*
X354256Y395904D01*
X354278Y396203D01*
X354285Y396513D01*
X354269Y396972D01*
X354221Y397405D01*
X354142Y397813D01*
X354030Y398195D01*
X353887Y398552D01*
X353712Y398883D01*
X353505Y399189D01*
X353266Y399469D01*
X352999Y399720D01*
X352707Y399937D01*
X352391Y400121D01*
X352050Y400272D01*
X351685Y400389D01*
X351296Y400472D01*
X350882Y400522D01*
X350443Y400539D01*
X350135Y400531D01*
X349839Y400508D01*
X349557Y400470D01*
X349287Y400416D01*
X349030Y400346D01*
X348786Y400262D01*
X348556Y400162D01*
X348338Y400046D01*
X348133Y399916D01*
X347943Y399770D01*
X347767Y399610D01*
X347604Y399434D01*
X347456Y399244D01*
X347321Y399039D01*
X347201Y398819D01*
X347095Y398585D01*
X348108Y398249D01*
X348266Y398573D01*
X348466Y398856D01*
X348707Y399099D01*
X348990Y399301D01*
X349308Y399461D01*
X349654Y399574D01*
X350029Y399643D01*
X350432Y399665D01*
X350751Y399652D01*
X351051Y399613D01*
X351333Y399547D01*
X351597Y399455D01*
X351843Y399336D01*
X352070Y399191D01*
X352279Y399020D01*
X352470Y398823D01*
X352641Y398602D01*
X352789Y398362D01*
X352914Y398103D01*
X353016Y397824D01*
X353096Y397525D01*
X353153Y397207D01*
X353187Y396870D01*
X353198Y396513D01*
X353187Y396159D01*
X353151Y395823D01*
X353092Y395505D01*
X353009Y395204D01*
X352902Y394922D01*
X352772Y394657D01*
X352618Y394410D01*
X352440Y394180D01*
X352242Y393973D01*
X352027Y393794D01*
X351795Y393643D01*
X351547Y393519D01*
X351282Y393422D01*
X351001Y393353D01*
X350702Y393312D01*
X350387Y393298D01*
X350183Y393305D01*
X349986Y393324D01*
X349795Y393356D01*
X349610Y393401D01*
X349260Y393529D01*
X348936Y393708D01*
X348637Y393939D01*
X348364Y394221D01*
X348117Y394554D01*
X347895Y394939D01*
X347022Y394502D01*
X347150Y394255D01*
X347290Y394023D01*
X347443Y393806D01*
X347608Y393605D01*
X347785Y393419D01*
X347975Y393247D01*
X348177Y393092D01*
X348391Y392951D01*
X348616Y392826D01*
X348850Y392718D01*
X349092Y392627D01*
X349344Y392552D01*
X349604Y392494D01*
X349873Y392452D01*
X350151Y392427D01*
X350438Y392419D01*
X350731Y392427D01*
G37*
G36*
X340181Y393388D02*
X338171Y393388D01*
X338171Y399458D01*
X339952Y398187D01*
X339952Y399139D01*
X338087Y400421D01*
X337157Y400421D01*
X337157Y393388D01*
X335236Y393388D01*
X335236Y392531D01*
X340181Y392531D01*
X340181Y393388D01*
G37*
G36*
X345712Y393388D02*
X343702Y393388D01*
X343702Y399458D01*
X345483Y398187D01*
X345483Y399139D01*
X343618Y400421D01*
X342688Y400421D01*
X342688Y393388D01*
X340768Y393388D01*
X340768Y392531D01*
X345712Y392531D01*
X345712Y393388D01*
G37*
G36*
X374630Y250435D02*
X374934Y250481D01*
X375218Y250558D01*
X375483Y250667D01*
X375728Y250806D01*
X375953Y250977D01*
X376159Y251178D01*
X376345Y251410D01*
X376510Y251672D01*
X376654Y251962D01*
X376775Y252280D01*
X376874Y252627D01*
X376951Y253001D01*
X377006Y253404D01*
X377039Y253835D01*
X377051Y254294D01*
X377039Y254792D01*
X377005Y255259D01*
X376947Y255698D01*
X376867Y256106D01*
X376764Y256484D01*
X376638Y256833D01*
X376489Y257152D01*
X376317Y257441D01*
X376124Y257699D01*
X375911Y257922D01*
X375679Y258110D01*
X375428Y258265D01*
X375157Y258385D01*
X374867Y258470D01*
X374557Y258522D01*
X374228Y258539D01*
X374010Y258533D01*
X373802Y258514D01*
X373605Y258482D01*
X373418Y258439D01*
X373241Y258382D01*
X373074Y258313D01*
X372918Y258231D01*
X372772Y258137D01*
X372511Y257911D01*
X372292Y257635D01*
X372114Y257308D01*
X371977Y256932D01*
X372940Y256758D01*
X373025Y256984D01*
X373133Y257180D01*
X373262Y257345D01*
X373413Y257481D01*
X373587Y257586D01*
X373782Y257661D01*
X374000Y257706D01*
X374239Y257721D01*
X374449Y257709D01*
X374646Y257671D01*
X374831Y257608D01*
X375004Y257520D01*
X375165Y257407D01*
X375314Y257269D01*
X375451Y257106D01*
X375575Y256918D01*
X375686Y256706D01*
X375782Y256471D01*
X375863Y256214D01*
X375930Y255934D01*
X375982Y255632D01*
X376019Y255308D01*
X376041Y254961D01*
X376048Y254591D01*
X375897Y254831D01*
X375718Y255040D01*
X375511Y255218D01*
X375275Y255367D01*
X375017Y255483D01*
X374741Y255566D01*
X374446Y255616D01*
X374133Y255633D01*
X373867Y255622D01*
X373615Y255590D01*
X373377Y255537D01*
X373154Y255462D01*
X372944Y255366D01*
X372749Y255248D01*
X372567Y255110D01*
X372400Y254949D01*
X372249Y254771D01*
X372119Y254578D01*
X372009Y254371D01*
X371919Y254149D01*
X371849Y253912D01*
X371799Y253660D01*
X371769Y253394D01*
X371759Y253113D01*
X371769Y252809D01*
X371801Y252521D01*
X371854Y252250D01*
X371928Y251995D01*
X372023Y251757D01*
X372140Y251535D01*
X372277Y251330D01*
X372436Y251141D01*
X372614Y250972D01*
X372807Y250825D01*
X373017Y250701D01*
X373243Y250600D01*
X373484Y250521D01*
X373742Y250464D01*
X374016Y250430D01*
X374307Y250419D01*
X374630Y250435D01*
G37*
G36*
X388153Y250427D02*
X388436Y250450D01*
X388709Y250489D01*
X388972Y250543D01*
X389225Y250613D01*
X389468Y250698D01*
X389700Y250798D01*
X389923Y250915D01*
X390134Y251045D01*
X390333Y251189D01*
X390518Y251346D01*
X390690Y251517D01*
X390850Y251700D01*
X390996Y251897D01*
X391130Y252108D01*
X391250Y252331D01*
X391357Y252567D01*
X391450Y252813D01*
X391528Y253070D01*
X391593Y253337D01*
X391643Y253615D01*
X391678Y253904D01*
X391700Y254203D01*
X391707Y254513D01*
X391691Y254972D01*
X391643Y255405D01*
X391563Y255813D01*
X391452Y256195D01*
X391309Y256552D01*
X391133Y256883D01*
X390926Y257189D01*
X390688Y257469D01*
X390421Y257720D01*
X390129Y257937D01*
X389813Y258121D01*
X389472Y258272D01*
X389107Y258389D01*
X388718Y258472D01*
X388304Y258522D01*
X387865Y258539D01*
X387557Y258531D01*
X387261Y258508D01*
X386978Y258470D01*
X386709Y258416D01*
X386452Y258346D01*
X386208Y258262D01*
X385977Y258162D01*
X385760Y258046D01*
X385555Y257916D01*
X385365Y257770D01*
X385188Y257610D01*
X385026Y257434D01*
X384878Y257244D01*
X384743Y257039D01*
X384623Y256819D01*
X384516Y256585D01*
X385530Y256249D01*
X385688Y256573D01*
X385888Y256856D01*
X386129Y257099D01*
X386412Y257301D01*
X386730Y257461D01*
X387076Y257574D01*
X387451Y257643D01*
X387854Y257665D01*
X388172Y257652D01*
X388473Y257613D01*
X388755Y257547D01*
X389019Y257455D01*
X389264Y257336D01*
X389492Y257191D01*
X389701Y257020D01*
X389892Y256823D01*
X390063Y256602D01*
X390211Y256362D01*
X390336Y256103D01*
X390438Y255824D01*
X390518Y255525D01*
X390575Y255207D01*
X390609Y254870D01*
X390620Y254513D01*
X390609Y254159D01*
X390573Y253823D01*
X390514Y253505D01*
X390431Y253204D01*
X390324Y252922D01*
X390194Y252657D01*
X390039Y252410D01*
X389862Y252180D01*
X389664Y251973D01*
X389449Y251794D01*
X389217Y251643D01*
X388969Y251519D01*
X388704Y251422D01*
X388423Y251353D01*
X388124Y251312D01*
X387809Y251298D01*
X387605Y251305D01*
X387408Y251324D01*
X387217Y251356D01*
X387032Y251401D01*
X386682Y251529D01*
X386357Y251708D01*
X386059Y251939D01*
X385786Y252221D01*
X385539Y252554D01*
X385317Y252939D01*
X384444Y252502D01*
X384572Y252255D01*
X384712Y252023D01*
X384865Y251806D01*
X385029Y251605D01*
X385207Y251419D01*
X385396Y251247D01*
X385598Y251092D01*
X385813Y250951D01*
X386038Y250826D01*
X386271Y250718D01*
X386514Y250627D01*
X386765Y250552D01*
X387026Y250494D01*
X387295Y250452D01*
X387573Y250427D01*
X387860Y250419D01*
X388153Y250427D01*
G37*
G36*
X383431Y251242D02*
X383280Y251560D01*
X383114Y251859D01*
X382932Y252138D01*
X382734Y252399D01*
X382312Y252876D01*
X381869Y253306D01*
X381417Y253697D01*
X380970Y254059D01*
X380546Y254406D01*
X380166Y254753D01*
X379842Y255109D01*
X379706Y255293D01*
X379587Y255481D01*
X379490Y255678D01*
X379421Y255887D01*
X379379Y256109D01*
X379366Y256344D01*
X379389Y256650D01*
X379461Y256921D01*
X379580Y257154D01*
X379746Y257352D01*
X379955Y257509D01*
X380201Y257621D01*
X380484Y257688D01*
X380805Y257710D01*
X381113Y257688D01*
X381392Y257623D01*
X381643Y257513D01*
X381866Y257360D01*
X382053Y257167D01*
X382197Y256939D01*
X382298Y256676D01*
X382356Y256377D01*
X383386Y256473D01*
X383349Y256703D01*
X383294Y256922D01*
X383221Y257128D01*
X383129Y257322D01*
X383020Y257505D01*
X382892Y257675D01*
X382747Y257833D01*
X382583Y257979D01*
X382404Y258110D01*
X382212Y258224D01*
X382008Y258320D01*
X381792Y258399D01*
X381564Y258460D01*
X381323Y258504D01*
X381070Y258530D01*
X380805Y258539D01*
X380515Y258530D01*
X380243Y258504D01*
X379988Y258460D01*
X379750Y258398D01*
X379529Y258319D01*
X379326Y258222D01*
X379140Y258108D01*
X378971Y257976D01*
X378820Y257828D01*
X378690Y257665D01*
X378580Y257488D01*
X378490Y257295D01*
X378420Y257088D01*
X378370Y256866D01*
X378340Y256629D01*
X378330Y256377D01*
X378343Y256148D01*
X378382Y255920D01*
X378448Y255692D01*
X378540Y255465D01*
X378657Y255238D01*
X378801Y255011D01*
X378970Y254784D01*
X379164Y254557D01*
X379418Y254299D01*
X379767Y253979D01*
X380749Y253152D01*
X381327Y252651D01*
X381774Y252203D01*
X381951Y251993D01*
X382101Y251787D01*
X382225Y251586D01*
X382322Y251388D01*
X378206Y251388D01*
X378206Y250531D01*
X383431Y250531D01*
X383431Y251242D01*
G37*
%LPC*%
G36*
X374163Y251239D02*
X373996Y251262D01*
X373838Y251300D01*
X373691Y251353D01*
X373553Y251422D01*
X373425Y251507D01*
X373306Y251606D01*
X373198Y251721D01*
X373101Y251849D01*
X373016Y251989D01*
X372945Y252140D01*
X372887Y252303D01*
X372842Y252477D01*
X372809Y252662D01*
X372790Y252859D01*
X372783Y253068D01*
X372790Y253276D01*
X372810Y253472D01*
X372842Y253655D01*
X372888Y253827D01*
X372947Y253986D01*
X373020Y254132D01*
X373105Y254267D01*
X373203Y254389D01*
X373313Y254498D01*
X373434Y254593D01*
X373565Y254673D01*
X373706Y254738D01*
X373857Y254789D01*
X374019Y254825D01*
X374191Y254847D01*
X374374Y254854D01*
X374546Y254848D01*
X374710Y254828D01*
X374865Y254796D01*
X375011Y254751D01*
X375279Y254623D01*
X375513Y254443D01*
X375615Y254335D01*
X375703Y254217D01*
X375778Y254090D01*
X375839Y253953D01*
X375886Y253807D01*
X375920Y253650D01*
X375941Y253484D01*
X375947Y253309D01*
X375940Y253086D01*
X375919Y252873D01*
X375884Y252670D01*
X375835Y252478D01*
X375771Y252297D01*
X375694Y252125D01*
X375602Y251964D01*
X375497Y251813D01*
X375380Y251677D01*
X375255Y251559D01*
X375123Y251458D01*
X374982Y251377D01*
X374833Y251313D01*
X374677Y251267D01*
X374513Y251240D01*
X374340Y251231D01*
X374163Y251239D01*
G37*
%LPD*%
G36*
X369153Y135427D02*
X369436Y135450D01*
X369709Y135489D01*
X369972Y135543D01*
X370225Y135613D01*
X370468Y135698D01*
X370700Y135798D01*
X370923Y135915D01*
X371134Y136045D01*
X371333Y136189D01*
X371518Y136346D01*
X371690Y136517D01*
X371850Y136700D01*
X371996Y136897D01*
X372130Y137108D01*
X372250Y137331D01*
X372357Y137567D01*
X372450Y137813D01*
X372528Y138070D01*
X372593Y138337D01*
X372643Y138615D01*
X372678Y138904D01*
X372700Y139203D01*
X372707Y139513D01*
X372691Y139972D01*
X372643Y140405D01*
X372563Y140813D01*
X372452Y141195D01*
X372309Y141552D01*
X372133Y141883D01*
X371926Y142189D01*
X371688Y142469D01*
X371421Y142720D01*
X371129Y142937D01*
X370813Y143121D01*
X370472Y143272D01*
X370107Y143389D01*
X369718Y143472D01*
X369304Y143522D01*
X368865Y143539D01*
X368557Y143531D01*
X368261Y143508D01*
X367978Y143470D01*
X367709Y143416D01*
X367452Y143346D01*
X367208Y143262D01*
X366977Y143162D01*
X366760Y143046D01*
X366555Y142916D01*
X366365Y142770D01*
X366188Y142610D01*
X366026Y142434D01*
X365878Y142244D01*
X365743Y142039D01*
X365623Y141819D01*
X365516Y141585D01*
X366530Y141249D01*
X366688Y141573D01*
X366888Y141856D01*
X367129Y142099D01*
X367412Y142301D01*
X367730Y142461D01*
X368076Y142574D01*
X368451Y142643D01*
X368854Y142665D01*
X369172Y142652D01*
X369473Y142613D01*
X369755Y142547D01*
X370019Y142455D01*
X370264Y142336D01*
X370492Y142191D01*
X370701Y142020D01*
X370892Y141823D01*
X371063Y141602D01*
X371211Y141362D01*
X371336Y141103D01*
X371438Y140824D01*
X371518Y140525D01*
X371575Y140207D01*
X371609Y139870D01*
X371620Y139513D01*
X371609Y139159D01*
X371573Y138823D01*
X371514Y138505D01*
X371431Y138204D01*
X371324Y137922D01*
X371194Y137657D01*
X371039Y137410D01*
X370862Y137180D01*
X370664Y136973D01*
X370449Y136794D01*
X370217Y136643D01*
X369969Y136519D01*
X369704Y136422D01*
X369423Y136353D01*
X369124Y136312D01*
X368809Y136298D01*
X368605Y136305D01*
X368408Y136324D01*
X368217Y136356D01*
X368032Y136401D01*
X367682Y136529D01*
X367357Y136708D01*
X367059Y136939D01*
X366786Y137221D01*
X366539Y137554D01*
X366317Y137939D01*
X365444Y137502D01*
X365572Y137255D01*
X365712Y137023D01*
X365865Y136806D01*
X366029Y136605D01*
X366207Y136419D01*
X366396Y136247D01*
X366598Y136092D01*
X366813Y135951D01*
X367038Y135826D01*
X367271Y135718D01*
X367514Y135627D01*
X367765Y135552D01*
X368026Y135494D01*
X368295Y135452D01*
X368573Y135427D01*
X368860Y135419D01*
X369153Y135427D01*
G37*
G36*
X364431Y136242D02*
X364280Y136560D01*
X364114Y136859D01*
X363932Y137138D01*
X363734Y137399D01*
X363312Y137876D01*
X362869Y138306D01*
X362417Y138697D01*
X361970Y139059D01*
X361546Y139406D01*
X361166Y139753D01*
X360842Y140109D01*
X360706Y140293D01*
X360587Y140481D01*
X360490Y140678D01*
X360421Y140887D01*
X360379Y141109D01*
X360366Y141344D01*
X360389Y141650D01*
X360461Y141921D01*
X360580Y142154D01*
X360746Y142352D01*
X360955Y142509D01*
X361201Y142621D01*
X361484Y142688D01*
X361805Y142710D01*
X362113Y142688D01*
X362392Y142623D01*
X362643Y142513D01*
X362866Y142360D01*
X363053Y142167D01*
X363197Y141939D01*
X363298Y141676D01*
X363356Y141377D01*
X364386Y141473D01*
X364349Y141703D01*
X364294Y141922D01*
X364221Y142128D01*
X364129Y142322D01*
X364020Y142505D01*
X363892Y142675D01*
X363747Y142833D01*
X363583Y142979D01*
X363404Y143110D01*
X363212Y143224D01*
X363008Y143320D01*
X362792Y143399D01*
X362564Y143460D01*
X362323Y143504D01*
X362070Y143530D01*
X361805Y143539D01*
X361515Y143530D01*
X361243Y143504D01*
X360988Y143460D01*
X360750Y143398D01*
X360529Y143319D01*
X360326Y143222D01*
X360140Y143108D01*
X359971Y142976D01*
X359820Y142828D01*
X359690Y142665D01*
X359580Y142488D01*
X359490Y142295D01*
X359420Y142088D01*
X359370Y141866D01*
X359340Y141629D01*
X359330Y141377D01*
X359343Y141148D01*
X359382Y140920D01*
X359448Y140692D01*
X359540Y140465D01*
X359657Y140238D01*
X359801Y140011D01*
X359970Y139784D01*
X360164Y139557D01*
X360418Y139299D01*
X360767Y138979D01*
X361749Y138152D01*
X362327Y137651D01*
X362774Y137203D01*
X362951Y136993D01*
X363101Y136787D01*
X363225Y136586D01*
X363322Y136388D01*
X359206Y136388D01*
X359206Y135531D01*
X364431Y135531D01*
X364431Y136242D01*
G37*
G36*
X356579Y135911D02*
X356549Y136297D01*
X356499Y136687D01*
X356429Y137083D01*
X356338Y137483D01*
X356228Y137889D01*
X356098Y138299D01*
X355948Y138715D01*
X355774Y139140D01*
X355573Y139582D01*
X355346Y140040D01*
X355092Y140513D01*
X354502Y141507D01*
X353806Y142565D01*
X358045Y142565D01*
X358045Y143421D01*
X352831Y143421D01*
X352831Y142604D01*
X353392Y141730D01*
X353863Y140956D01*
X354246Y140282D01*
X354539Y139709D01*
X354773Y139187D01*
X354975Y138668D01*
X355147Y138154D01*
X355287Y137642D01*
X355396Y137128D01*
X355474Y136605D01*
X355521Y136072D01*
X355536Y135531D01*
X356589Y135531D01*
X356579Y135911D01*
G37*
D10*
X201150Y447291D02*
X218650Y447291D01*
X218650Y431309D02*
X201150Y431309D01*
X229691Y462350D02*
X229691Y479850D01*
X213709Y479850D02*
X213709Y462350D01*
D11*
X143300Y489700D02*
X135300Y489700D01*
X135300Y458700D02*
X143300Y458700D01*
X130300Y471200D02*
X130300Y477200D01*
D12*
X153430Y490850D02*
X153432Y490878D01*
X153438Y490905D01*
X153447Y490931D01*
X153460Y490956D01*
X153477Y490979D01*
X153496Y490999D01*
X153518Y491016D01*
X153542Y491030D01*
X153568Y491040D01*
X153595Y491047D01*
X153623Y491050D01*
X153651Y491049D01*
X153678Y491044D01*
X153705Y491035D01*
X153730Y491023D01*
X153753Y491008D01*
X153774Y490989D01*
X153792Y490968D01*
X153807Y490944D01*
X153818Y490918D01*
X153826Y490892D01*
X153830Y490864D01*
X153830Y490836D01*
X153826Y490808D01*
X153818Y490782D01*
X153807Y490756D01*
X153792Y490732D01*
X153774Y490711D01*
X153753Y490692D01*
X153730Y490677D01*
X153705Y490665D01*
X153678Y490656D01*
X153651Y490651D01*
X153623Y490650D01*
X153595Y490653D01*
X153568Y490660D01*
X153542Y490670D01*
X153518Y490684D01*
X153496Y490701D01*
X153477Y490721D01*
X153460Y490744D01*
X153447Y490769D01*
X153438Y490795D01*
X153432Y490822D01*
X153430Y490850D01*
D11*
X309100Y481000D02*
X309100Y475000D01*
X309100Y481000D02*
X280100Y481000D01*
X280100Y475000D01*
X309100Y475000D01*
X309600Y471500D02*
X309600Y459500D01*
D10*
X309050Y438658D02*
X291550Y438658D01*
X291550Y454640D02*
X309050Y454640D01*
X271240Y450550D02*
X271240Y468050D01*
X255258Y468050D02*
X255258Y450550D01*
X412000Y258283D02*
X446000Y258283D01*
X446000Y282717D02*
X412000Y282717D01*
X412000Y299130D02*
X446000Y299130D01*
X446000Y323564D02*
X412000Y323564D01*
X400000Y300717D02*
X366000Y300717D01*
X366000Y276283D02*
X400000Y276283D01*
X400000Y325717D02*
X366000Y325717D01*
X366000Y301283D02*
X400000Y301283D01*
X412000Y324283D02*
X446000Y324283D01*
X446000Y348717D02*
X412000Y348717D01*
X400000Y461717D02*
X366000Y461717D01*
X366000Y437283D02*
X400000Y437283D01*
X400000Y432717D02*
X366000Y432717D01*
X366000Y408283D02*
X400000Y408283D01*
X412000Y421283D02*
X446000Y421283D01*
X446000Y445717D02*
X412000Y445717D01*
X412000Y399283D02*
X446000Y399283D01*
X446000Y423717D02*
X412000Y423717D01*
X412000Y446283D02*
X446000Y446283D01*
X446000Y470717D02*
X412000Y470717D01*
X400000Y195517D02*
X366000Y195517D01*
X366000Y171083D02*
X400000Y171083D01*
X412000Y166483D02*
X446000Y166483D01*
X446000Y190917D02*
X412000Y190917D01*
X412000Y132330D02*
X446000Y132330D01*
X446000Y156764D02*
X412000Y156764D01*
X412000Y190483D02*
X446000Y190483D01*
X446000Y214917D02*
X412000Y214917D01*
X400000Y171670D02*
X366000Y171670D01*
X366000Y147236D02*
X400000Y147236D01*
X257139Y410220D02*
X257139Y427220D01*
X273157Y427220D02*
X273157Y410220D01*
X291100Y435899D02*
X312199Y435899D01*
X312199Y420501D01*
X291100Y420501D01*
D11*
X212300Y465000D02*
X212300Y471000D01*
X183300Y471000D01*
X183300Y465000D01*
X212300Y465000D01*
X212800Y461500D02*
X212800Y449500D01*
D10*
X379024Y396009D02*
X396524Y396009D01*
X396524Y411991D02*
X379024Y411991D01*
X381024Y262009D02*
X398524Y262009D01*
X398524Y277991D02*
X381024Y277991D01*
X381024Y133009D02*
X398524Y133009D01*
X398524Y148991D02*
X381024Y148991D01*
M02*
