G04 EAGLE Gerber RS-274X export*
G75*
%MOMM*%
%FSLAX34Y34*%
%LPD*%
%INSoldermask Top*%
%IPPOS*%
%AMOC8*
5,1,8,0,0,1.08239X$1,22.5*%
G01*
G04 Define Apertures*
%ADD10C,3.200000*%
%ADD11R,2.094100X0.610000*%
%ADD12C,0.337500*%
%ADD13R,0.606800X1.771900*%
%ADD14R,3.750000X2.660000*%
%ADD15R,1.173900X0.998700*%
%ADD16R,0.711800X1.111800*%
%ADD17R,1.120900X1.170200*%
%ADD18R,0.998700X1.173900*%
%ADD19R,1.170200X1.120900*%
%ADD20R,0.936600X2.994000*%
%ADD21R,3.200000X3.200000*%
%ADD22R,1.475000X1.475000*%
%ADD23C,1.475000*%
%ADD24C,1.750000*%
%ADD25R,1.725000X0.900000*%
%ADD26R,0.900000X1.350000*%
%ADD27R,1.200000X1.200000*%
%ADD28R,1.111800X0.711800*%
%ADD29R,0.650000X1.500000*%
%ADD30C,1.475000*%
%ADD31C,1.100000*%
%ADD32C,1.000000*%
%ADD33C,0.850000*%
%ADD34C,0.700000*%
%ADD35C,0.800000*%
D10*
X250000Y90000D03*
X250000Y380000D03*
D11*
X218208Y328625D03*
X218208Y322275D03*
X218208Y315925D03*
X218208Y309575D03*
X218208Y303225D03*
X218208Y296875D03*
X218208Y290525D03*
X218208Y284175D03*
X266992Y284175D03*
X266992Y290525D03*
X266992Y296875D03*
X266992Y303225D03*
X266992Y309575D03*
X266992Y315925D03*
X266992Y322275D03*
X266992Y328625D03*
D12*
X97063Y330113D02*
X97063Y315887D01*
X92937Y315887D01*
X92937Y330113D01*
X97063Y330113D01*
X97063Y319093D02*
X92937Y319093D01*
X92937Y322299D02*
X97063Y322299D01*
X97063Y325505D02*
X92937Y325505D01*
X92937Y328711D02*
X97063Y328711D01*
X105063Y330113D02*
X105063Y315887D01*
X100937Y315887D01*
X100937Y330113D01*
X105063Y330113D01*
X105063Y319093D02*
X100937Y319093D01*
X100937Y322299D02*
X105063Y322299D01*
X105063Y325505D02*
X100937Y325505D01*
X100937Y328711D02*
X105063Y328711D01*
X113063Y330113D02*
X113063Y315887D01*
X108937Y315887D01*
X108937Y330113D01*
X113063Y330113D01*
X113063Y319093D02*
X108937Y319093D01*
X108937Y322299D02*
X113063Y322299D01*
X113063Y325505D02*
X108937Y325505D01*
X108937Y328711D02*
X113063Y328711D01*
X121063Y330113D02*
X121063Y315887D01*
X116937Y315887D01*
X116937Y330113D01*
X121063Y330113D01*
X121063Y319093D02*
X116937Y319093D01*
X116937Y322299D02*
X121063Y322299D01*
X121063Y325505D02*
X116937Y325505D01*
X116937Y328711D02*
X121063Y328711D01*
X129063Y330113D02*
X129063Y315887D01*
X124937Y315887D01*
X124937Y330113D01*
X129063Y330113D01*
X129063Y319093D02*
X124937Y319093D01*
X124937Y322299D02*
X129063Y322299D01*
X129063Y325505D02*
X124937Y325505D01*
X124937Y328711D02*
X129063Y328711D01*
X137063Y330113D02*
X137063Y315887D01*
X132937Y315887D01*
X132937Y330113D01*
X137063Y330113D01*
X137063Y319093D02*
X132937Y319093D01*
X132937Y322299D02*
X137063Y322299D01*
X137063Y325505D02*
X132937Y325505D01*
X132937Y328711D02*
X137063Y328711D01*
X145063Y330113D02*
X145063Y315887D01*
X140937Y315887D01*
X140937Y330113D01*
X145063Y330113D01*
X145063Y319093D02*
X140937Y319093D01*
X140937Y322299D02*
X145063Y322299D01*
X145063Y325505D02*
X140937Y325505D01*
X140937Y328711D02*
X145063Y328711D01*
X153063Y330113D02*
X153063Y315887D01*
X148937Y315887D01*
X148937Y330113D01*
X153063Y330113D01*
X153063Y319093D02*
X148937Y319093D01*
X148937Y322299D02*
X153063Y322299D01*
X153063Y325505D02*
X148937Y325505D01*
X148937Y328711D02*
X153063Y328711D01*
X157687Y338863D02*
X171913Y338863D01*
X171913Y334737D01*
X157687Y334737D01*
X157687Y338863D01*
X157687Y337943D02*
X171913Y337943D01*
X171913Y346863D02*
X157687Y346863D01*
X171913Y346863D02*
X171913Y342737D01*
X157687Y342737D01*
X157687Y346863D01*
X157687Y345943D02*
X171913Y345943D01*
X171913Y354863D02*
X157687Y354863D01*
X171913Y354863D02*
X171913Y350737D01*
X157687Y350737D01*
X157687Y354863D01*
X157687Y353943D02*
X171913Y353943D01*
X171913Y362863D02*
X157687Y362863D01*
X171913Y362863D02*
X171913Y358737D01*
X157687Y358737D01*
X157687Y362863D01*
X157687Y361943D02*
X171913Y361943D01*
X171913Y370863D02*
X157687Y370863D01*
X171913Y370863D02*
X171913Y366737D01*
X157687Y366737D01*
X157687Y370863D01*
X157687Y369943D02*
X171913Y369943D01*
X171913Y378863D02*
X157687Y378863D01*
X171913Y378863D02*
X171913Y374737D01*
X157687Y374737D01*
X157687Y378863D01*
X157687Y377943D02*
X171913Y377943D01*
X171913Y386863D02*
X157687Y386863D01*
X171913Y386863D02*
X171913Y382737D01*
X157687Y382737D01*
X157687Y386863D01*
X157687Y385943D02*
X171913Y385943D01*
X171913Y394863D02*
X157687Y394863D01*
X171913Y394863D02*
X171913Y390737D01*
X157687Y390737D01*
X157687Y394863D01*
X157687Y393943D02*
X171913Y393943D01*
X148937Y399487D02*
X148937Y413713D01*
X153063Y413713D01*
X153063Y399487D01*
X148937Y399487D01*
X148937Y402693D02*
X153063Y402693D01*
X153063Y405899D02*
X148937Y405899D01*
X148937Y409105D02*
X153063Y409105D01*
X153063Y412311D02*
X148937Y412311D01*
X140937Y413713D02*
X140937Y399487D01*
X140937Y413713D02*
X145063Y413713D01*
X145063Y399487D01*
X140937Y399487D01*
X140937Y402693D02*
X145063Y402693D01*
X145063Y405899D02*
X140937Y405899D01*
X140937Y409105D02*
X145063Y409105D01*
X145063Y412311D02*
X140937Y412311D01*
X132937Y413713D02*
X132937Y399487D01*
X132937Y413713D02*
X137063Y413713D01*
X137063Y399487D01*
X132937Y399487D01*
X132937Y402693D02*
X137063Y402693D01*
X137063Y405899D02*
X132937Y405899D01*
X132937Y409105D02*
X137063Y409105D01*
X137063Y412311D02*
X132937Y412311D01*
X124937Y413713D02*
X124937Y399487D01*
X124937Y413713D02*
X129063Y413713D01*
X129063Y399487D01*
X124937Y399487D01*
X124937Y402693D02*
X129063Y402693D01*
X129063Y405899D02*
X124937Y405899D01*
X124937Y409105D02*
X129063Y409105D01*
X129063Y412311D02*
X124937Y412311D01*
X116937Y413713D02*
X116937Y399487D01*
X116937Y413713D02*
X121063Y413713D01*
X121063Y399487D01*
X116937Y399487D01*
X116937Y402693D02*
X121063Y402693D01*
X121063Y405899D02*
X116937Y405899D01*
X116937Y409105D02*
X121063Y409105D01*
X121063Y412311D02*
X116937Y412311D01*
X108937Y413713D02*
X108937Y399487D01*
X108937Y413713D02*
X113063Y413713D01*
X113063Y399487D01*
X108937Y399487D01*
X108937Y402693D02*
X113063Y402693D01*
X113063Y405899D02*
X108937Y405899D01*
X108937Y409105D02*
X113063Y409105D01*
X113063Y412311D02*
X108937Y412311D01*
X100937Y413713D02*
X100937Y399487D01*
X100937Y413713D02*
X105063Y413713D01*
X105063Y399487D01*
X100937Y399487D01*
X100937Y402693D02*
X105063Y402693D01*
X105063Y405899D02*
X100937Y405899D01*
X100937Y409105D02*
X105063Y409105D01*
X105063Y412311D02*
X100937Y412311D01*
X92937Y413713D02*
X92937Y399487D01*
X92937Y413713D02*
X97063Y413713D01*
X97063Y399487D01*
X92937Y399487D01*
X92937Y402693D02*
X97063Y402693D01*
X97063Y405899D02*
X92937Y405899D01*
X92937Y409105D02*
X97063Y409105D01*
X97063Y412311D02*
X92937Y412311D01*
X88313Y390737D02*
X74087Y390737D01*
X74087Y394863D01*
X88313Y394863D01*
X88313Y390737D01*
X88313Y393943D02*
X74087Y393943D01*
X74087Y382737D02*
X88313Y382737D01*
X74087Y382737D02*
X74087Y386863D01*
X88313Y386863D01*
X88313Y382737D01*
X88313Y385943D02*
X74087Y385943D01*
X74087Y374737D02*
X88313Y374737D01*
X74087Y374737D02*
X74087Y378863D01*
X88313Y378863D01*
X88313Y374737D01*
X88313Y377943D02*
X74087Y377943D01*
X74087Y366737D02*
X88313Y366737D01*
X74087Y366737D02*
X74087Y370863D01*
X88313Y370863D01*
X88313Y366737D01*
X88313Y369943D02*
X74087Y369943D01*
X74087Y358737D02*
X88313Y358737D01*
X74087Y358737D02*
X74087Y362863D01*
X88313Y362863D01*
X88313Y358737D01*
X88313Y361943D02*
X74087Y361943D01*
X74087Y350737D02*
X88313Y350737D01*
X74087Y350737D02*
X74087Y354863D01*
X88313Y354863D01*
X88313Y350737D01*
X88313Y353943D02*
X74087Y353943D01*
X74087Y342737D02*
X88313Y342737D01*
X74087Y342737D02*
X74087Y346863D01*
X88313Y346863D01*
X88313Y342737D01*
X88313Y345943D02*
X74087Y345943D01*
X74087Y334737D02*
X88313Y334737D01*
X74087Y334737D02*
X74087Y338863D01*
X88313Y338863D01*
X88313Y334737D01*
X88313Y337943D02*
X74087Y337943D01*
D13*
X361050Y57783D03*
X367550Y57783D03*
X374050Y57783D03*
X380550Y57783D03*
X387050Y57783D03*
X393550Y57783D03*
X400050Y57783D03*
X406550Y57783D03*
X406550Y115217D03*
X400050Y115217D03*
X393550Y115217D03*
X387050Y115217D03*
X380550Y115217D03*
X374050Y115217D03*
X367550Y115217D03*
X361050Y115217D03*
D14*
X383800Y86500D03*
D15*
X352700Y21348D03*
X352700Y37652D03*
D16*
X377496Y22505D03*
X361496Y22505D03*
D17*
X393159Y147799D03*
X408651Y147799D03*
X365329Y135398D03*
X380821Y135398D03*
D18*
X395948Y41300D03*
X412252Y41300D03*
X385852Y36739D03*
X369548Y36739D03*
X387048Y23561D03*
X403352Y23561D03*
D15*
X53900Y316248D03*
X53900Y332552D03*
D19*
X208900Y360746D03*
X208900Y345254D03*
X187231Y397292D03*
X187231Y381800D03*
X75100Y291654D03*
X75100Y307146D03*
D20*
X68000Y470120D03*
X68000Y429480D03*
X55300Y470120D03*
X55300Y429480D03*
X42600Y470120D03*
X42600Y429480D03*
X29900Y470120D03*
X29900Y429480D03*
X17200Y470120D03*
X17200Y429480D03*
D13*
X364750Y191083D03*
X371250Y191083D03*
X377750Y191083D03*
X384250Y191083D03*
X390750Y191083D03*
X397250Y191083D03*
X403750Y191083D03*
X410250Y191083D03*
X410250Y248517D03*
X403750Y248517D03*
X397250Y248517D03*
X390750Y248517D03*
X384250Y248517D03*
X377750Y248517D03*
X371250Y248517D03*
X364750Y248517D03*
D14*
X387500Y219800D03*
D15*
X356163Y155026D03*
X356163Y171330D03*
D16*
X383592Y157005D03*
X367592Y157005D03*
D17*
X392354Y276541D03*
X407846Y276541D03*
X364653Y272304D03*
X380145Y272304D03*
D18*
X398548Y173300D03*
X414852Y173300D03*
X388561Y170020D03*
X372257Y170020D03*
X403293Y159520D03*
X419597Y159520D03*
D13*
X362834Y318610D03*
X369334Y318610D03*
X375834Y318610D03*
X382334Y318610D03*
X388834Y318610D03*
X395334Y318610D03*
X401834Y318610D03*
X408334Y318610D03*
X408334Y376044D03*
X401834Y376044D03*
X395334Y376044D03*
X388834Y376044D03*
X382334Y376044D03*
X375834Y376044D03*
X369334Y376044D03*
X362834Y376044D03*
D14*
X385584Y347327D03*
D15*
X351939Y279306D03*
X351939Y295610D03*
D16*
X380368Y283714D03*
X364368Y283714D03*
D17*
X391555Y402402D03*
X407047Y402402D03*
X364854Y396700D03*
X380346Y396700D03*
D18*
X396848Y301000D03*
X413152Y301000D03*
X386800Y298000D03*
X370496Y298000D03*
X396920Y289261D03*
X413224Y289261D03*
D17*
X150421Y269634D03*
X134929Y269634D03*
D21*
X436238Y72200D03*
X436238Y112200D03*
X436238Y213500D03*
X436238Y253500D03*
X434974Y325603D03*
X434974Y365603D03*
D17*
X292373Y327900D03*
X307865Y327900D03*
D19*
X94180Y291854D03*
X94180Y307346D03*
D22*
X318800Y43500D03*
D23*
X306100Y18100D03*
X293400Y43500D03*
X280700Y18100D03*
D24*
X332800Y25500D03*
D22*
X230600Y43500D03*
D23*
X217900Y18100D03*
X205200Y43500D03*
X192500Y18100D03*
D24*
X244600Y25500D03*
D17*
X180063Y408643D03*
X164571Y408643D03*
D22*
X58238Y43500D03*
D23*
X45538Y18100D03*
X32838Y43500D03*
X20138Y18100D03*
D24*
X72238Y25500D03*
D22*
X145800Y42500D03*
D23*
X133100Y17100D03*
X120400Y42500D03*
X107700Y17100D03*
D24*
X159800Y24500D03*
D25*
X217480Y173150D03*
X217480Y160450D03*
X217480Y147750D03*
X217480Y135050D03*
X271720Y135050D03*
X271720Y147750D03*
X271720Y160450D03*
X271720Y173150D03*
D19*
X196900Y185946D03*
X196900Y170454D03*
X284100Y173854D03*
X284100Y189346D03*
D26*
X408403Y434988D03*
X421103Y434988D03*
X433803Y434988D03*
X446503Y434988D03*
D27*
X427453Y474238D03*
D21*
X376762Y481569D03*
X336762Y481569D03*
D15*
X109900Y278952D03*
X109900Y295256D03*
D28*
X124700Y297400D03*
X124700Y281400D03*
D29*
X152000Y444000D03*
X145500Y444000D03*
X139000Y444000D03*
X132500Y444000D03*
X126000Y444000D03*
D30*
X176250Y450375D02*
X176250Y437625D01*
X101750Y437625D02*
X101750Y450375D01*
D31*
X177750Y477500D02*
X177750Y486500D01*
X100250Y486500D02*
X100250Y477500D01*
D32*
X164000Y454500D03*
X114000Y454500D03*
D33*
X119000Y241000D03*
X220000Y270000D03*
X200000Y130000D03*
X213000Y187000D03*
X54000Y309000D03*
X55000Y489456D03*
X17000Y489000D03*
X218000Y426000D03*
X216000Y404000D03*
X209000Y359000D03*
X196000Y409000D03*
X205000Y399646D03*
X188000Y364314D03*
X68000Y335000D03*
X43000Y489000D03*
D34*
X164000Y473000D03*
D33*
X121000Y443000D03*
X75000Y292000D03*
X95000Y292000D03*
X265000Y272000D03*
X369000Y209000D03*
X381000Y231000D03*
X379000Y209000D03*
X381000Y218000D03*
X313000Y462000D03*
X444000Y422000D03*
X371000Y357000D03*
X379000Y357000D03*
X376000Y337000D03*
X368000Y340000D03*
X384000Y337000D03*
X380000Y347000D03*
X372000Y95000D03*
X366000Y79000D03*
X374000Y79000D03*
X384000Y78000D03*
X323000Y328000D03*
X285000Y205000D03*
X439000Y285000D03*
X289000Y132000D03*
X416000Y22000D03*
X439000Y151000D03*
X331000Y489000D03*
X346000Y489000D03*
X332000Y472000D03*
X348000Y474000D03*
X370000Y220000D03*
X370000Y231000D03*
X446262Y162000D03*
D34*
X446000Y443175D03*
D35*
X445000Y409000D03*
X444762Y294000D03*
D33*
X364000Y94000D03*
X383000Y96000D03*
X263000Y492012D03*
X263000Y484000D03*
X263000Y476000D03*
X292000Y340000D03*
X353000Y125000D03*
X342000Y171000D03*
X300000Y174000D03*
X351000Y264000D03*
X354000Y377000D03*
X352000Y37000D03*
X279000Y415000D03*
X339000Y296000D03*
X182000Y171000D03*
X208000Y345000D03*
X81000Y476000D03*
X221000Y493000D03*
X165000Y409000D03*
X187231Y381800D03*
X75000Y307000D03*
X94180Y307346D03*
X281000Y447000D03*
X399000Y422000D03*
X408000Y423000D03*
X418000Y423000D03*
X429000Y422000D03*
X424000Y412000D03*
X411000Y411000D03*
D34*
X405000Y274000D03*
X411000Y276000D03*
X411000Y147000D03*
X406000Y144000D03*
D33*
X413000Y432000D03*
X400000Y434000D03*
X143000Y372000D03*
X11000Y192000D03*
X118000Y161000D03*
D34*
X146500Y458500D03*
X135000Y464000D03*
D33*
X135000Y389000D03*
X17000Y400000D03*
X114000Y265000D03*
X202000Y438000D03*
D34*
X138000Y479000D03*
M02*
