G04 EAGLE Gerber RS-274X export*
G75*
%MOMM*%
%FSLAX34Y34*%
%LPD*%
%INSolderpaste Bottom*%
%IPPOS*%
%AMOC8*
5,1,8,0,0,1.08239X$1,22.5*%
G01*
G04 Define Apertures*
%ADD10R,0.920900X0.970200*%
%ADD11R,0.970200X0.920900*%
%ADD12R,1.100000X0.600000*%
%ADD13R,0.600000X1.200000*%
%ADD14R,1.164600X1.815300*%
%ADD15R,0.973900X0.798700*%
%ADD16R,0.511800X0.911800*%
D10*
X217646Y439300D03*
X202154Y439300D03*
D11*
X221700Y463354D03*
X221700Y478846D03*
D12*
X151800Y483700D03*
X151800Y474200D03*
X151800Y464700D03*
X126800Y464700D03*
X126800Y483700D03*
D13*
X304100Y465500D03*
X294600Y465500D03*
X285100Y465500D03*
X285100Y490500D03*
X304100Y490500D03*
D10*
X292554Y446649D03*
X308046Y446649D03*
D11*
X263249Y451554D03*
X263249Y467046D03*
D14*
X414246Y270500D03*
X443754Y270500D03*
X414246Y311347D03*
X443754Y311347D03*
X397754Y288500D03*
X368246Y288500D03*
X397754Y313500D03*
X368246Y313500D03*
X414246Y336500D03*
X443754Y336500D03*
X397754Y449500D03*
X368246Y449500D03*
X397754Y420500D03*
X368246Y420500D03*
X414246Y433500D03*
X443754Y433500D03*
X414246Y411500D03*
X443754Y411500D03*
X414246Y458500D03*
X443754Y458500D03*
X397754Y183300D03*
X368246Y183300D03*
X414246Y178700D03*
X443754Y178700D03*
X414246Y144547D03*
X443754Y144547D03*
X414246Y202700D03*
X443754Y202700D03*
X397754Y159453D03*
X368246Y159453D03*
D15*
X265148Y426872D03*
X265148Y410568D03*
D16*
X307100Y428200D03*
X291100Y428200D03*
D13*
X207300Y455500D03*
X197800Y455500D03*
X188300Y455500D03*
X188300Y480500D03*
X207300Y480500D03*
D10*
X380028Y404000D03*
X395520Y404000D03*
X382028Y270000D03*
X397520Y270000D03*
X382028Y141000D03*
X397520Y141000D03*
M02*
