G04 EAGLE Gerber RS-274X export*
G75*
%MOMM*%
%FSLAX34Y34*%
%LPD*%
%INSolderpaste Top*%
%IPPOS*%
%AMOC8*
5,1,8,0,0,1.08239X$1,22.5*%
G01*
G04 Define Apertures*
%ADD10R,1.894100X0.410000*%
%ADD11C,0.137500*%
%ADD12R,0.406800X1.571900*%
%ADD13R,3.330000X3.720000*%
%ADD14R,0.973900X0.798700*%
%ADD15R,0.511800X0.911800*%
%ADD16R,0.920900X0.970200*%
%ADD17R,0.798700X0.973900*%
%ADD18R,0.970200X0.920900*%
%ADD19R,0.736600X2.794000*%
%ADD20R,3.000000X3.000000*%
%ADD21R,1.525000X0.700000*%
%ADD22R,0.700000X1.150000*%
%ADD23R,1.000000X1.000000*%
%ADD24R,0.911800X0.511800*%
%ADD25R,0.450000X1.300000*%
D10*
X218208Y328625D03*
X218208Y322275D03*
X218208Y315925D03*
X218208Y309575D03*
X218208Y303225D03*
X218208Y296875D03*
X218208Y290525D03*
X218208Y284175D03*
X266992Y284175D03*
X266992Y290525D03*
X266992Y296875D03*
X266992Y303225D03*
X266992Y309575D03*
X266992Y315925D03*
X266992Y322275D03*
X266992Y328625D03*
D11*
X97063Y330113D02*
X97063Y315887D01*
X92937Y315887D01*
X92937Y330113D01*
X97063Y330113D01*
X97063Y317193D02*
X92937Y317193D01*
X92937Y318499D02*
X97063Y318499D01*
X97063Y319805D02*
X92937Y319805D01*
X92937Y321111D02*
X97063Y321111D01*
X97063Y322417D02*
X92937Y322417D01*
X92937Y323723D02*
X97063Y323723D01*
X97063Y325029D02*
X92937Y325029D01*
X92937Y326335D02*
X97063Y326335D01*
X97063Y327641D02*
X92937Y327641D01*
X92937Y328947D02*
X97063Y328947D01*
X105063Y330113D02*
X105063Y315887D01*
X100937Y315887D01*
X100937Y330113D01*
X105063Y330113D01*
X105063Y317193D02*
X100937Y317193D01*
X100937Y318499D02*
X105063Y318499D01*
X105063Y319805D02*
X100937Y319805D01*
X100937Y321111D02*
X105063Y321111D01*
X105063Y322417D02*
X100937Y322417D01*
X100937Y323723D02*
X105063Y323723D01*
X105063Y325029D02*
X100937Y325029D01*
X100937Y326335D02*
X105063Y326335D01*
X105063Y327641D02*
X100937Y327641D01*
X100937Y328947D02*
X105063Y328947D01*
X113063Y330113D02*
X113063Y315887D01*
X108937Y315887D01*
X108937Y330113D01*
X113063Y330113D01*
X113063Y317193D02*
X108937Y317193D01*
X108937Y318499D02*
X113063Y318499D01*
X113063Y319805D02*
X108937Y319805D01*
X108937Y321111D02*
X113063Y321111D01*
X113063Y322417D02*
X108937Y322417D01*
X108937Y323723D02*
X113063Y323723D01*
X113063Y325029D02*
X108937Y325029D01*
X108937Y326335D02*
X113063Y326335D01*
X113063Y327641D02*
X108937Y327641D01*
X108937Y328947D02*
X113063Y328947D01*
X121063Y330113D02*
X121063Y315887D01*
X116937Y315887D01*
X116937Y330113D01*
X121063Y330113D01*
X121063Y317193D02*
X116937Y317193D01*
X116937Y318499D02*
X121063Y318499D01*
X121063Y319805D02*
X116937Y319805D01*
X116937Y321111D02*
X121063Y321111D01*
X121063Y322417D02*
X116937Y322417D01*
X116937Y323723D02*
X121063Y323723D01*
X121063Y325029D02*
X116937Y325029D01*
X116937Y326335D02*
X121063Y326335D01*
X121063Y327641D02*
X116937Y327641D01*
X116937Y328947D02*
X121063Y328947D01*
X129063Y330113D02*
X129063Y315887D01*
X124937Y315887D01*
X124937Y330113D01*
X129063Y330113D01*
X129063Y317193D02*
X124937Y317193D01*
X124937Y318499D02*
X129063Y318499D01*
X129063Y319805D02*
X124937Y319805D01*
X124937Y321111D02*
X129063Y321111D01*
X129063Y322417D02*
X124937Y322417D01*
X124937Y323723D02*
X129063Y323723D01*
X129063Y325029D02*
X124937Y325029D01*
X124937Y326335D02*
X129063Y326335D01*
X129063Y327641D02*
X124937Y327641D01*
X124937Y328947D02*
X129063Y328947D01*
X137063Y330113D02*
X137063Y315887D01*
X132937Y315887D01*
X132937Y330113D01*
X137063Y330113D01*
X137063Y317193D02*
X132937Y317193D01*
X132937Y318499D02*
X137063Y318499D01*
X137063Y319805D02*
X132937Y319805D01*
X132937Y321111D02*
X137063Y321111D01*
X137063Y322417D02*
X132937Y322417D01*
X132937Y323723D02*
X137063Y323723D01*
X137063Y325029D02*
X132937Y325029D01*
X132937Y326335D02*
X137063Y326335D01*
X137063Y327641D02*
X132937Y327641D01*
X132937Y328947D02*
X137063Y328947D01*
X145063Y330113D02*
X145063Y315887D01*
X140937Y315887D01*
X140937Y330113D01*
X145063Y330113D01*
X145063Y317193D02*
X140937Y317193D01*
X140937Y318499D02*
X145063Y318499D01*
X145063Y319805D02*
X140937Y319805D01*
X140937Y321111D02*
X145063Y321111D01*
X145063Y322417D02*
X140937Y322417D01*
X140937Y323723D02*
X145063Y323723D01*
X145063Y325029D02*
X140937Y325029D01*
X140937Y326335D02*
X145063Y326335D01*
X145063Y327641D02*
X140937Y327641D01*
X140937Y328947D02*
X145063Y328947D01*
X153063Y330113D02*
X153063Y315887D01*
X148937Y315887D01*
X148937Y330113D01*
X153063Y330113D01*
X153063Y317193D02*
X148937Y317193D01*
X148937Y318499D02*
X153063Y318499D01*
X153063Y319805D02*
X148937Y319805D01*
X148937Y321111D02*
X153063Y321111D01*
X153063Y322417D02*
X148937Y322417D01*
X148937Y323723D02*
X153063Y323723D01*
X153063Y325029D02*
X148937Y325029D01*
X148937Y326335D02*
X153063Y326335D01*
X153063Y327641D02*
X148937Y327641D01*
X148937Y328947D02*
X153063Y328947D01*
X157687Y338863D02*
X171913Y338863D01*
X171913Y334737D01*
X157687Y334737D01*
X157687Y338863D01*
X157687Y336043D02*
X171913Y336043D01*
X171913Y337349D02*
X157687Y337349D01*
X157687Y338655D02*
X171913Y338655D01*
X171913Y346863D02*
X157687Y346863D01*
X171913Y346863D02*
X171913Y342737D01*
X157687Y342737D01*
X157687Y346863D01*
X157687Y344043D02*
X171913Y344043D01*
X171913Y345349D02*
X157687Y345349D01*
X157687Y346655D02*
X171913Y346655D01*
X171913Y354863D02*
X157687Y354863D01*
X171913Y354863D02*
X171913Y350737D01*
X157687Y350737D01*
X157687Y354863D01*
X157687Y352043D02*
X171913Y352043D01*
X171913Y353349D02*
X157687Y353349D01*
X157687Y354655D02*
X171913Y354655D01*
X171913Y362863D02*
X157687Y362863D01*
X171913Y362863D02*
X171913Y358737D01*
X157687Y358737D01*
X157687Y362863D01*
X157687Y360043D02*
X171913Y360043D01*
X171913Y361349D02*
X157687Y361349D01*
X157687Y362655D02*
X171913Y362655D01*
X171913Y370863D02*
X157687Y370863D01*
X171913Y370863D02*
X171913Y366737D01*
X157687Y366737D01*
X157687Y370863D01*
X157687Y368043D02*
X171913Y368043D01*
X171913Y369349D02*
X157687Y369349D01*
X157687Y370655D02*
X171913Y370655D01*
X171913Y378863D02*
X157687Y378863D01*
X171913Y378863D02*
X171913Y374737D01*
X157687Y374737D01*
X157687Y378863D01*
X157687Y376043D02*
X171913Y376043D01*
X171913Y377349D02*
X157687Y377349D01*
X157687Y378655D02*
X171913Y378655D01*
X171913Y386863D02*
X157687Y386863D01*
X171913Y386863D02*
X171913Y382737D01*
X157687Y382737D01*
X157687Y386863D01*
X157687Y384043D02*
X171913Y384043D01*
X171913Y385349D02*
X157687Y385349D01*
X157687Y386655D02*
X171913Y386655D01*
X171913Y394863D02*
X157687Y394863D01*
X171913Y394863D02*
X171913Y390737D01*
X157687Y390737D01*
X157687Y394863D01*
X157687Y392043D02*
X171913Y392043D01*
X171913Y393349D02*
X157687Y393349D01*
X157687Y394655D02*
X171913Y394655D01*
X148937Y399487D02*
X148937Y413713D01*
X153063Y413713D01*
X153063Y399487D01*
X148937Y399487D01*
X148937Y400793D02*
X153063Y400793D01*
X153063Y402099D02*
X148937Y402099D01*
X148937Y403405D02*
X153063Y403405D01*
X153063Y404711D02*
X148937Y404711D01*
X148937Y406017D02*
X153063Y406017D01*
X153063Y407323D02*
X148937Y407323D01*
X148937Y408629D02*
X153063Y408629D01*
X153063Y409935D02*
X148937Y409935D01*
X148937Y411241D02*
X153063Y411241D01*
X153063Y412547D02*
X148937Y412547D01*
X140937Y413713D02*
X140937Y399487D01*
X140937Y413713D02*
X145063Y413713D01*
X145063Y399487D01*
X140937Y399487D01*
X140937Y400793D02*
X145063Y400793D01*
X145063Y402099D02*
X140937Y402099D01*
X140937Y403405D02*
X145063Y403405D01*
X145063Y404711D02*
X140937Y404711D01*
X140937Y406017D02*
X145063Y406017D01*
X145063Y407323D02*
X140937Y407323D01*
X140937Y408629D02*
X145063Y408629D01*
X145063Y409935D02*
X140937Y409935D01*
X140937Y411241D02*
X145063Y411241D01*
X145063Y412547D02*
X140937Y412547D01*
X132937Y413713D02*
X132937Y399487D01*
X132937Y413713D02*
X137063Y413713D01*
X137063Y399487D01*
X132937Y399487D01*
X132937Y400793D02*
X137063Y400793D01*
X137063Y402099D02*
X132937Y402099D01*
X132937Y403405D02*
X137063Y403405D01*
X137063Y404711D02*
X132937Y404711D01*
X132937Y406017D02*
X137063Y406017D01*
X137063Y407323D02*
X132937Y407323D01*
X132937Y408629D02*
X137063Y408629D01*
X137063Y409935D02*
X132937Y409935D01*
X132937Y411241D02*
X137063Y411241D01*
X137063Y412547D02*
X132937Y412547D01*
X124937Y413713D02*
X124937Y399487D01*
X124937Y413713D02*
X129063Y413713D01*
X129063Y399487D01*
X124937Y399487D01*
X124937Y400793D02*
X129063Y400793D01*
X129063Y402099D02*
X124937Y402099D01*
X124937Y403405D02*
X129063Y403405D01*
X129063Y404711D02*
X124937Y404711D01*
X124937Y406017D02*
X129063Y406017D01*
X129063Y407323D02*
X124937Y407323D01*
X124937Y408629D02*
X129063Y408629D01*
X129063Y409935D02*
X124937Y409935D01*
X124937Y411241D02*
X129063Y411241D01*
X129063Y412547D02*
X124937Y412547D01*
X116937Y413713D02*
X116937Y399487D01*
X116937Y413713D02*
X121063Y413713D01*
X121063Y399487D01*
X116937Y399487D01*
X116937Y400793D02*
X121063Y400793D01*
X121063Y402099D02*
X116937Y402099D01*
X116937Y403405D02*
X121063Y403405D01*
X121063Y404711D02*
X116937Y404711D01*
X116937Y406017D02*
X121063Y406017D01*
X121063Y407323D02*
X116937Y407323D01*
X116937Y408629D02*
X121063Y408629D01*
X121063Y409935D02*
X116937Y409935D01*
X116937Y411241D02*
X121063Y411241D01*
X121063Y412547D02*
X116937Y412547D01*
X108937Y413713D02*
X108937Y399487D01*
X108937Y413713D02*
X113063Y413713D01*
X113063Y399487D01*
X108937Y399487D01*
X108937Y400793D02*
X113063Y400793D01*
X113063Y402099D02*
X108937Y402099D01*
X108937Y403405D02*
X113063Y403405D01*
X113063Y404711D02*
X108937Y404711D01*
X108937Y406017D02*
X113063Y406017D01*
X113063Y407323D02*
X108937Y407323D01*
X108937Y408629D02*
X113063Y408629D01*
X113063Y409935D02*
X108937Y409935D01*
X108937Y411241D02*
X113063Y411241D01*
X113063Y412547D02*
X108937Y412547D01*
X100937Y413713D02*
X100937Y399487D01*
X100937Y413713D02*
X105063Y413713D01*
X105063Y399487D01*
X100937Y399487D01*
X100937Y400793D02*
X105063Y400793D01*
X105063Y402099D02*
X100937Y402099D01*
X100937Y403405D02*
X105063Y403405D01*
X105063Y404711D02*
X100937Y404711D01*
X100937Y406017D02*
X105063Y406017D01*
X105063Y407323D02*
X100937Y407323D01*
X100937Y408629D02*
X105063Y408629D01*
X105063Y409935D02*
X100937Y409935D01*
X100937Y411241D02*
X105063Y411241D01*
X105063Y412547D02*
X100937Y412547D01*
X92937Y413713D02*
X92937Y399487D01*
X92937Y413713D02*
X97063Y413713D01*
X97063Y399487D01*
X92937Y399487D01*
X92937Y400793D02*
X97063Y400793D01*
X97063Y402099D02*
X92937Y402099D01*
X92937Y403405D02*
X97063Y403405D01*
X97063Y404711D02*
X92937Y404711D01*
X92937Y406017D02*
X97063Y406017D01*
X97063Y407323D02*
X92937Y407323D01*
X92937Y408629D02*
X97063Y408629D01*
X97063Y409935D02*
X92937Y409935D01*
X92937Y411241D02*
X97063Y411241D01*
X97063Y412547D02*
X92937Y412547D01*
X88313Y390737D02*
X74087Y390737D01*
X74087Y394863D01*
X88313Y394863D01*
X88313Y390737D01*
X88313Y392043D02*
X74087Y392043D01*
X74087Y393349D02*
X88313Y393349D01*
X88313Y394655D02*
X74087Y394655D01*
X74087Y382737D02*
X88313Y382737D01*
X74087Y382737D02*
X74087Y386863D01*
X88313Y386863D01*
X88313Y382737D01*
X88313Y384043D02*
X74087Y384043D01*
X74087Y385349D02*
X88313Y385349D01*
X88313Y386655D02*
X74087Y386655D01*
X74087Y374737D02*
X88313Y374737D01*
X74087Y374737D02*
X74087Y378863D01*
X88313Y378863D01*
X88313Y374737D01*
X88313Y376043D02*
X74087Y376043D01*
X74087Y377349D02*
X88313Y377349D01*
X88313Y378655D02*
X74087Y378655D01*
X74087Y366737D02*
X88313Y366737D01*
X74087Y366737D02*
X74087Y370863D01*
X88313Y370863D01*
X88313Y366737D01*
X88313Y368043D02*
X74087Y368043D01*
X74087Y369349D02*
X88313Y369349D01*
X88313Y370655D02*
X74087Y370655D01*
X74087Y358737D02*
X88313Y358737D01*
X74087Y358737D02*
X74087Y362863D01*
X88313Y362863D01*
X88313Y358737D01*
X88313Y360043D02*
X74087Y360043D01*
X74087Y361349D02*
X88313Y361349D01*
X88313Y362655D02*
X74087Y362655D01*
X74087Y350737D02*
X88313Y350737D01*
X74087Y350737D02*
X74087Y354863D01*
X88313Y354863D01*
X88313Y350737D01*
X88313Y352043D02*
X74087Y352043D01*
X74087Y353349D02*
X88313Y353349D01*
X88313Y354655D02*
X74087Y354655D01*
X74087Y342737D02*
X88313Y342737D01*
X74087Y342737D02*
X74087Y346863D01*
X88313Y346863D01*
X88313Y342737D01*
X88313Y344043D02*
X74087Y344043D01*
X74087Y345349D02*
X88313Y345349D01*
X88313Y346655D02*
X74087Y346655D01*
X74087Y334737D02*
X88313Y334737D01*
X74087Y334737D02*
X74087Y338863D01*
X88313Y338863D01*
X88313Y334737D01*
X88313Y336043D02*
X74087Y336043D01*
X74087Y337349D02*
X88313Y337349D01*
X88313Y338655D02*
X74087Y338655D01*
D12*
X361050Y57783D03*
X367550Y57783D03*
X374050Y57783D03*
X380550Y57783D03*
X387050Y57783D03*
X393550Y57783D03*
X400050Y57783D03*
X406550Y57783D03*
X406550Y115217D03*
X400050Y115217D03*
X393550Y115217D03*
X387050Y115217D03*
X380550Y115217D03*
X374050Y115217D03*
X367550Y115217D03*
X361050Y115217D03*
D13*
X403700Y86500D03*
X363900Y86500D03*
D14*
X352700Y21348D03*
X352700Y37652D03*
D15*
X377496Y22505D03*
X361496Y22505D03*
D16*
X393159Y147799D03*
X408651Y147799D03*
X365329Y135398D03*
X380821Y135398D03*
D17*
X395948Y41300D03*
X412252Y41300D03*
X385852Y36739D03*
X369548Y36739D03*
X387048Y23561D03*
X403352Y23561D03*
D14*
X53900Y316248D03*
X53900Y332552D03*
D18*
X208900Y360746D03*
X208900Y345254D03*
X187231Y397292D03*
X187231Y381800D03*
X75100Y291654D03*
X75100Y307146D03*
D19*
X68000Y470120D03*
X68000Y429480D03*
X55300Y470120D03*
X55300Y429480D03*
X42600Y470120D03*
X42600Y429480D03*
X29900Y470120D03*
X29900Y429480D03*
X17200Y470120D03*
X17200Y429480D03*
D12*
X364750Y191083D03*
X371250Y191083D03*
X377750Y191083D03*
X384250Y191083D03*
X390750Y191083D03*
X397250Y191083D03*
X403750Y191083D03*
X410250Y191083D03*
X410250Y248517D03*
X403750Y248517D03*
X397250Y248517D03*
X390750Y248517D03*
X384250Y248517D03*
X377750Y248517D03*
X371250Y248517D03*
X364750Y248517D03*
D13*
X407400Y219800D03*
X367600Y219800D03*
D14*
X356163Y155026D03*
X356163Y171330D03*
D15*
X383592Y157005D03*
X367592Y157005D03*
D16*
X392354Y276541D03*
X407846Y276541D03*
X364653Y272304D03*
X380145Y272304D03*
D17*
X398548Y173300D03*
X414852Y173300D03*
X388561Y170020D03*
X372257Y170020D03*
X403293Y159520D03*
X419597Y159520D03*
D12*
X362834Y318610D03*
X369334Y318610D03*
X375834Y318610D03*
X382334Y318610D03*
X388834Y318610D03*
X395334Y318610D03*
X401834Y318610D03*
X408334Y318610D03*
X408334Y376044D03*
X401834Y376044D03*
X395334Y376044D03*
X388834Y376044D03*
X382334Y376044D03*
X375834Y376044D03*
X369334Y376044D03*
X362834Y376044D03*
D13*
X405484Y347327D03*
X365684Y347327D03*
D14*
X351939Y279306D03*
X351939Y295610D03*
D15*
X380368Y283714D03*
X364368Y283714D03*
D16*
X391555Y402402D03*
X407047Y402402D03*
X364854Y396700D03*
X380346Y396700D03*
D17*
X396848Y301000D03*
X413152Y301000D03*
X386800Y298000D03*
X370496Y298000D03*
X396920Y289261D03*
X413224Y289261D03*
D16*
X150421Y269634D03*
X134929Y269634D03*
D20*
X436238Y72200D03*
X436238Y112200D03*
X436238Y213500D03*
X436238Y253500D03*
X434974Y325603D03*
X434974Y365603D03*
D16*
X292373Y327900D03*
X307865Y327900D03*
D18*
X94180Y291854D03*
X94180Y307346D03*
D16*
X180063Y408643D03*
X164571Y408643D03*
D21*
X217480Y173150D03*
X217480Y160450D03*
X217480Y147750D03*
X217480Y135050D03*
X271720Y135050D03*
X271720Y147750D03*
X271720Y160450D03*
X271720Y173150D03*
D18*
X196900Y185946D03*
X196900Y170454D03*
X284100Y173854D03*
X284100Y189346D03*
D22*
X408403Y434988D03*
X421103Y434988D03*
X433803Y434988D03*
X446503Y434988D03*
D23*
X427453Y474238D03*
D20*
X376762Y481569D03*
X336762Y481569D03*
D14*
X109900Y278952D03*
X109900Y295256D03*
D24*
X124700Y297400D03*
X124700Y281400D03*
D25*
X152000Y444000D03*
X145500Y444000D03*
X139000Y444000D03*
X132500Y444000D03*
X126000Y444000D03*
M02*
