M48
;GenerationSoftware,Autodesk,EAGLE,9.7.0*%
;CreationDate,2021-01-23T19:48:26Z*%
FMAT,2
ICI,OFF
METRIC,TZ,000.000
T8C0.200
T7C0.300
T6C0.350
T5C0.550
T4C0.800
T3C0.850
T2C1.550
T1C3.000
%
G90
M71
T1
X25000Y9000
X25000Y38000
T2
X33280Y2550
X7224Y2550
X24460Y2550
X15980Y2450
T3
X23060Y4350
X31880Y4350
X30610Y1810
X29340Y4350
X28070Y1810
X21790Y1810
X20520Y4350
X19250Y1810
X5824Y4350
X4554Y1810
X3284Y4350
X2014Y1810
X14580Y4250
X13310Y1710
X12040Y4250
X10770Y1710
X17625Y44400
X10175Y44400
T4
X16400Y45450
X11400Y45450
T5
X10025Y48200
X17775Y48200
T6
X31300Y46200
X44400Y42200
X37100Y35700
X37900Y35700
X37600Y33700
X36800Y34000
X38000Y34700
X37200Y9500
X36600Y7900
X37400Y7900
X38400Y7800
X32300Y32800
X28500Y20500
X43900Y28500
X28900Y13200
X41600Y2200
X43900Y15100
X33100Y48900
X34600Y48900
X33200Y47200
X34800Y47400
X37000Y22000
X37000Y23100
X44626Y16200
X36400Y9400
X38300Y9600
X26300Y49201
X26300Y48400
X26300Y47600
X29200Y34000
X35300Y12500
X34200Y17100
X30000Y17400
X35100Y26400
X38400Y33700
X35200Y3700
X27900Y41500
X33900Y29600
X18200Y17100
X20800Y34500
X8100Y47600
X22100Y49300
X16500Y40900
X18723Y38180
X7500Y30700
X9418Y30735
X28100Y44700
X39900Y42200
X40800Y42300
X41800Y42300
X42900Y42200
X42400Y41200
X41100Y41100
X41300Y43200
X40000Y43400
X14300Y37200
X1100Y19200
X11800Y16100
X13500Y38900
X1700Y40000
X20200Y43800
X11900Y24100
X22000Y27000
X20000Y13000
X21300Y18700
X5400Y30900
X5500Y48946
X1700Y48900
X21800Y42600
X21600Y40400
X35400Y37700
X20900Y35900
X19600Y40900
X20500Y39965
X18800Y36431
X6800Y33500
X4300Y48900
X12100Y44300
X7500Y29200
X9500Y29200
X26500Y27200
X36900Y20900
X38100Y23100
X37900Y20900
X38100Y21800
X11400Y26500
T7
X44476Y29400
X44500Y40900
T8
X41100Y27600
X41100Y14700
X40600Y14400
X13800Y47900
X44600Y44317
X16400Y47300
X40500Y27400
X14650Y45850
X13500Y46400
M30