G04 EAGLE Gerber RS-274X export*
G75*
%MOMM*%
%FSLAX34Y34*%
%LPD*%
%INSoldermask Bottom*%
%IPPOS*%
%AMOC8*
5,1,8,0,0,1.08239X$1,22.5*%
G01*
G04 Define Apertures*
%ADD10C,3.200000*%
%ADD11R,1.120900X1.170200*%
%ADD12R,1.170200X1.120900*%
%ADD13R,1.300000X0.800000*%
%ADD14R,1.475000X1.475000*%
%ADD15C,1.475000*%
%ADD16C,1.750000*%
%ADD17R,0.800000X1.400000*%
%ADD18R,1.364600X2.015300*%
%ADD19R,1.173900X0.998700*%
%ADD20R,0.711800X1.111800*%
%ADD21C,1.475000*%
%ADD22C,1.100000*%
%ADD23C,1.000000*%
%ADD24C,0.850000*%
%ADD25C,0.700000*%
%ADD26C,0.800000*%
D10*
X250000Y90000D03*
X250000Y380000D03*
D11*
X217646Y439300D03*
X202154Y439300D03*
D12*
X221700Y463354D03*
X221700Y478846D03*
D13*
X151800Y483700D03*
X151800Y474200D03*
X151800Y464700D03*
X126800Y464700D03*
X126800Y483700D03*
D14*
X318800Y43500D03*
D15*
X306100Y18100D03*
X293400Y43500D03*
X280700Y18100D03*
D16*
X332800Y25500D03*
D14*
X230600Y43500D03*
D15*
X217900Y18100D03*
X205200Y43500D03*
X192500Y18100D03*
D16*
X244600Y25500D03*
D14*
X58238Y43500D03*
D15*
X45538Y18100D03*
X32838Y43500D03*
X20138Y18100D03*
D16*
X72238Y25500D03*
D14*
X145800Y42500D03*
D15*
X133100Y17100D03*
X120400Y42500D03*
X107700Y17100D03*
D16*
X159800Y24500D03*
D17*
X304100Y465500D03*
X294600Y465500D03*
X285100Y465500D03*
X285100Y490500D03*
X304100Y490500D03*
D11*
X292554Y446649D03*
X308046Y446649D03*
D12*
X263249Y451554D03*
X263249Y467046D03*
D18*
X414246Y270500D03*
X443754Y270500D03*
X414246Y311347D03*
X443754Y311347D03*
X397754Y288500D03*
X368246Y288500D03*
X397754Y313500D03*
X368246Y313500D03*
X414246Y336500D03*
X443754Y336500D03*
X397754Y449500D03*
X368246Y449500D03*
X397754Y420500D03*
X368246Y420500D03*
X414246Y433500D03*
X443754Y433500D03*
X414246Y411500D03*
X443754Y411500D03*
X414246Y458500D03*
X443754Y458500D03*
X397754Y183300D03*
X368246Y183300D03*
X414246Y178700D03*
X443754Y178700D03*
X414246Y144547D03*
X443754Y144547D03*
X414246Y202700D03*
X443754Y202700D03*
X397754Y159453D03*
X368246Y159453D03*
D19*
X265148Y426872D03*
X265148Y410568D03*
D20*
X307100Y428200D03*
X291100Y428200D03*
D17*
X207300Y455500D03*
X197800Y455500D03*
X188300Y455500D03*
X188300Y480500D03*
X207300Y480500D03*
D11*
X380028Y404000D03*
X395520Y404000D03*
X382028Y270000D03*
X397520Y270000D03*
X382028Y141000D03*
X397520Y141000D03*
D21*
X176250Y437625D02*
X176250Y450375D01*
X101750Y450375D02*
X101750Y437625D01*
D22*
X177750Y477500D02*
X177750Y486500D01*
X100250Y486500D02*
X100250Y477500D01*
D23*
X164000Y454500D03*
X114000Y454500D03*
D24*
X119000Y241000D03*
X220000Y270000D03*
X200000Y130000D03*
X213000Y187000D03*
X54000Y309000D03*
X55000Y489456D03*
X17000Y489000D03*
X218000Y426000D03*
X216000Y404000D03*
X209000Y359000D03*
X196000Y409000D03*
X205000Y399646D03*
X188000Y364314D03*
X68000Y335000D03*
X43000Y489000D03*
D25*
X164000Y473000D03*
D24*
X121000Y443000D03*
X75000Y292000D03*
X95000Y292000D03*
X265000Y272000D03*
X369000Y209000D03*
X381000Y231000D03*
X379000Y209000D03*
X381000Y218000D03*
X313000Y462000D03*
X444000Y422000D03*
X371000Y357000D03*
X379000Y357000D03*
X376000Y337000D03*
X368000Y340000D03*
X384000Y337000D03*
X380000Y347000D03*
X372000Y95000D03*
X366000Y79000D03*
X374000Y79000D03*
X384000Y78000D03*
X323000Y328000D03*
X285000Y205000D03*
X439000Y285000D03*
X289000Y132000D03*
X416000Y22000D03*
X439000Y151000D03*
X331000Y489000D03*
X346000Y489000D03*
X332000Y472000D03*
X348000Y474000D03*
X370000Y220000D03*
X370000Y231000D03*
X446262Y162000D03*
D25*
X446000Y443175D03*
D26*
X445000Y409000D03*
X444762Y294000D03*
D24*
X364000Y94000D03*
X383000Y96000D03*
X263000Y492012D03*
X263000Y484000D03*
X263000Y476000D03*
X292000Y340000D03*
X353000Y125000D03*
X342000Y171000D03*
X300000Y174000D03*
X351000Y264000D03*
X354000Y377000D03*
X352000Y37000D03*
X279000Y415000D03*
X339000Y296000D03*
X182000Y171000D03*
X208000Y345000D03*
X81000Y476000D03*
X221000Y493000D03*
X165000Y409000D03*
X187231Y381800D03*
X75000Y307000D03*
X94180Y307346D03*
X281000Y447000D03*
X399000Y422000D03*
X408000Y423000D03*
X418000Y423000D03*
X429000Y422000D03*
X424000Y412000D03*
X411000Y411000D03*
D25*
X405000Y274000D03*
X411000Y276000D03*
X411000Y147000D03*
X406000Y144000D03*
D24*
X413000Y432000D03*
X400000Y434000D03*
X143000Y372000D03*
X11000Y192000D03*
X118000Y161000D03*
D25*
X146500Y458500D03*
X135000Y464000D03*
D24*
X135000Y389000D03*
X17000Y400000D03*
X114000Y265000D03*
X202000Y438000D03*
D25*
X138000Y479000D03*
M02*
