G04 EAGLE Gerber RS-274X export*
G75*
%MOMM*%
%FSLAX34Y34*%
%LPD*%
%INInner Copper Layer 1*%
%IPPOS*%
%AMOC8*
5,1,8,0,0,1.08239X$1,22.5*%
G01*
G04 Define Apertures*
%ADD10C,1.275000*%
%ADD11C,0.850000*%
%ADD12C,0.650000*%
%ADD13C,0.304800*%
%ADD14C,0.500000*%
%ADD15C,0.600000*%
G36*
X98281Y6937D02*
X98609Y7162D01*
X98824Y7498D01*
X98891Y7890D01*
X98799Y8277D01*
X98598Y8565D01*
X97128Y10036D01*
X95229Y14619D01*
X95229Y19581D01*
X97128Y24164D01*
X100636Y27672D01*
X105219Y29571D01*
X110181Y29571D01*
X114764Y27672D01*
X118272Y24164D01*
X119476Y21258D01*
X119699Y20928D01*
X120032Y20711D01*
X120424Y20641D01*
X120812Y20730D01*
X121135Y20963D01*
X121324Y21258D01*
X122528Y24164D01*
X126036Y27672D01*
X130619Y29571D01*
X135581Y29571D01*
X140164Y27672D01*
X143672Y24164D01*
X144030Y23301D01*
X144253Y22971D01*
X144586Y22753D01*
X144978Y22684D01*
X145366Y22772D01*
X145689Y23005D01*
X145895Y23345D01*
X145954Y23683D01*
X145954Y27660D01*
X147144Y30132D01*
X147167Y30183D01*
X147813Y31742D01*
X147889Y32133D01*
X147807Y32522D01*
X147579Y32849D01*
X147242Y33061D01*
X146889Y33125D01*
X146562Y33125D01*
X146562Y41738D01*
X155175Y41738D01*
X155175Y40635D01*
X154567Y39167D01*
X154491Y38776D01*
X154573Y38387D01*
X154801Y38060D01*
X155138Y37849D01*
X155531Y37785D01*
X155873Y37860D01*
X157046Y38346D01*
X158127Y38346D01*
X158350Y38371D01*
X159800Y38702D01*
X161250Y38371D01*
X161473Y38346D01*
X162554Y38346D01*
X163942Y37771D01*
X164102Y37720D01*
X165962Y37296D01*
X166794Y36632D01*
X167035Y36490D01*
X167643Y36238D01*
X169001Y34880D01*
X169085Y34805D01*
X170904Y33355D01*
X171180Y32780D01*
X171374Y32507D01*
X171538Y32343D01*
X172433Y30183D01*
X172456Y30132D01*
X173646Y27660D01*
X173646Y21340D01*
X172456Y18868D01*
X172433Y18817D01*
X171538Y16657D01*
X171374Y16493D01*
X171180Y16220D01*
X170904Y15645D01*
X169085Y14195D01*
X169001Y14120D01*
X167643Y12762D01*
X167035Y12510D01*
X166794Y12368D01*
X165962Y11704D01*
X164102Y11280D01*
X163942Y11229D01*
X162554Y10654D01*
X161473Y10654D01*
X161250Y10629D01*
X159800Y10298D01*
X158350Y10629D01*
X158127Y10654D01*
X157046Y10654D01*
X155658Y11229D01*
X155498Y11280D01*
X153638Y11704D01*
X152806Y12368D01*
X152565Y12510D01*
X151957Y12762D01*
X150599Y14120D01*
X150515Y14195D01*
X148696Y15645D01*
X148420Y16220D01*
X148226Y16493D01*
X148062Y16657D01*
X147495Y18026D01*
X147272Y18356D01*
X146939Y18573D01*
X146547Y18643D01*
X146159Y18554D01*
X145836Y18322D01*
X145630Y17981D01*
X145571Y17643D01*
X145571Y14619D01*
X143672Y10036D01*
X142202Y8565D01*
X141982Y8233D01*
X141909Y7842D01*
X141994Y7453D01*
X142225Y7129D01*
X142563Y6920D01*
X142909Y6858D01*
X183691Y6858D01*
X184081Y6937D01*
X184409Y7162D01*
X184624Y7498D01*
X184691Y7890D01*
X184599Y8277D01*
X184398Y8565D01*
X181928Y11036D01*
X180029Y15619D01*
X180029Y20581D01*
X181928Y25164D01*
X185436Y28672D01*
X190019Y30571D01*
X194981Y30571D01*
X199564Y28672D01*
X203072Y25164D01*
X204276Y22258D01*
X204499Y21928D01*
X204832Y21711D01*
X205224Y21641D01*
X205612Y21730D01*
X205935Y21963D01*
X206124Y22258D01*
X207328Y25164D01*
X210836Y28672D01*
X215419Y30571D01*
X220381Y30571D01*
X224964Y28672D01*
X227293Y26344D01*
X227625Y26124D01*
X228016Y26051D01*
X228405Y26136D01*
X228729Y26367D01*
X228938Y26705D01*
X229000Y27051D01*
X229000Y33347D01*
X228921Y33737D01*
X228696Y34065D01*
X228383Y34271D01*
X225289Y35552D01*
X222652Y38189D01*
X221225Y41635D01*
X221225Y42738D01*
X231362Y42738D01*
X231362Y44262D01*
X221225Y44262D01*
X221225Y45365D01*
X222652Y48811D01*
X225289Y51448D01*
X228383Y52729D01*
X228713Y52951D01*
X228930Y53285D01*
X229000Y53653D01*
X229000Y85373D01*
X228924Y85756D01*
X228904Y85804D01*
X228904Y94196D01*
X228924Y94244D01*
X229000Y94627D01*
X229000Y375373D01*
X228924Y375756D01*
X228904Y375804D01*
X228904Y384196D01*
X228924Y384244D01*
X229000Y384627D01*
X229000Y485369D01*
X228921Y485759D01*
X228696Y486087D01*
X228361Y486301D01*
X227968Y486368D01*
X227581Y486276D01*
X227293Y486076D01*
X226294Y485077D01*
X222859Y483654D01*
X219141Y483654D01*
X215706Y485077D01*
X213077Y487706D01*
X211654Y491141D01*
X211654Y492142D01*
X211575Y492532D01*
X211350Y492860D01*
X211015Y493075D01*
X210654Y493142D01*
X7858Y493142D01*
X7468Y493063D01*
X7140Y492838D01*
X6925Y492503D01*
X6858Y492142D01*
X6858Y404965D01*
X6937Y404575D01*
X7162Y404246D01*
X7498Y404032D01*
X7890Y403965D01*
X8277Y404057D01*
X8598Y404292D01*
X8782Y404582D01*
X9077Y405294D01*
X11706Y407923D01*
X15141Y409346D01*
X18859Y409346D01*
X22294Y407923D01*
X24923Y405294D01*
X26346Y401859D01*
X26346Y398141D01*
X24923Y394706D01*
X22294Y392077D01*
X18859Y390654D01*
X15141Y390654D01*
X11706Y392077D01*
X9077Y394706D01*
X8782Y395418D01*
X8559Y395748D01*
X8226Y395965D01*
X7834Y396035D01*
X7446Y395947D01*
X7123Y395714D01*
X6917Y395373D01*
X6858Y395035D01*
X6858Y201897D01*
X6937Y201507D01*
X7162Y201179D01*
X7498Y200964D01*
X7890Y200897D01*
X8241Y200973D01*
X9141Y201346D01*
X12859Y201346D01*
X16294Y199923D01*
X18923Y197294D01*
X20346Y193859D01*
X20346Y190141D01*
X18923Y186706D01*
X16294Y184077D01*
X12859Y182654D01*
X9141Y182654D01*
X8241Y183027D01*
X7850Y183103D01*
X7461Y183021D01*
X7134Y182793D01*
X6922Y182456D01*
X6858Y182103D01*
X6858Y23655D01*
X6937Y23265D01*
X7162Y22937D01*
X7498Y22722D01*
X7890Y22655D01*
X8277Y22747D01*
X8598Y22982D01*
X8782Y23272D01*
X9566Y25164D01*
X13074Y28672D01*
X17657Y30571D01*
X22619Y30571D01*
X27202Y28672D01*
X30710Y25164D01*
X31914Y22258D01*
X32137Y21928D01*
X32470Y21711D01*
X32862Y21641D01*
X33250Y21730D01*
X33573Y21963D01*
X33762Y22258D01*
X34966Y25164D01*
X38474Y28672D01*
X43057Y30571D01*
X48019Y30571D01*
X52602Y28672D01*
X56110Y25164D01*
X56468Y24301D01*
X56691Y23971D01*
X57024Y23753D01*
X57416Y23684D01*
X57804Y23772D01*
X58127Y24005D01*
X58333Y24345D01*
X58392Y24683D01*
X58392Y28660D01*
X59582Y31132D01*
X59605Y31183D01*
X60251Y32742D01*
X60327Y33133D01*
X60245Y33522D01*
X60017Y33849D01*
X59680Y34061D01*
X59327Y34125D01*
X59000Y34125D01*
X59000Y42738D01*
X67613Y42738D01*
X67613Y41635D01*
X67005Y40167D01*
X66929Y39776D01*
X67011Y39387D01*
X67239Y39060D01*
X67576Y38849D01*
X67969Y38785D01*
X68311Y38860D01*
X69484Y39346D01*
X70565Y39346D01*
X70788Y39371D01*
X72238Y39702D01*
X73688Y39371D01*
X73911Y39346D01*
X74992Y39346D01*
X76380Y38771D01*
X76540Y38720D01*
X78400Y38296D01*
X79232Y37632D01*
X79473Y37490D01*
X80081Y37238D01*
X81439Y35880D01*
X81523Y35805D01*
X83342Y34355D01*
X83618Y33780D01*
X83812Y33507D01*
X83976Y33343D01*
X84871Y31183D01*
X84894Y31132D01*
X86084Y28660D01*
X86084Y22340D01*
X84894Y19868D01*
X84871Y19817D01*
X83976Y17657D01*
X83812Y17493D01*
X83618Y17220D01*
X83342Y16645D01*
X81523Y15195D01*
X81439Y15120D01*
X80081Y13762D01*
X79473Y13510D01*
X79232Y13368D01*
X78400Y12704D01*
X76540Y12280D01*
X76380Y12229D01*
X74992Y11654D01*
X73911Y11654D01*
X73688Y11629D01*
X72238Y11298D01*
X70788Y11629D01*
X70565Y11654D01*
X69484Y11654D01*
X68096Y12229D01*
X67936Y12280D01*
X66076Y12704D01*
X65244Y13368D01*
X65003Y13510D01*
X64395Y13762D01*
X63037Y15120D01*
X62953Y15195D01*
X61134Y16645D01*
X60858Y17220D01*
X60664Y17493D01*
X60500Y17657D01*
X59933Y19026D01*
X59710Y19356D01*
X59377Y19573D01*
X58985Y19643D01*
X58597Y19554D01*
X58274Y19322D01*
X58068Y18981D01*
X58009Y18643D01*
X58009Y15619D01*
X56110Y11036D01*
X53640Y8565D01*
X53420Y8233D01*
X53347Y7842D01*
X53432Y7453D01*
X53663Y7129D01*
X54001Y6920D01*
X54347Y6858D01*
X97891Y6858D01*
X98281Y6937D01*
G37*
%LPC*%
G36*
X170500Y482762D02*
X170500Y483442D01*
X171604Y486107D01*
X173643Y488146D01*
X176308Y489250D01*
X176988Y489250D01*
X176988Y482762D01*
X170500Y482762D01*
G37*
G36*
X93000Y482762D02*
X93000Y483442D01*
X94104Y486107D01*
X96143Y488146D01*
X98808Y489250D01*
X99488Y489250D01*
X99488Y482762D01*
X93000Y482762D01*
G37*
G36*
X101012Y482762D02*
X101012Y489250D01*
X101692Y489250D01*
X104357Y488146D01*
X106396Y486107D01*
X107500Y483442D01*
X107500Y482762D01*
X101012Y482762D01*
G37*
G36*
X178512Y482762D02*
X178512Y489250D01*
X179192Y489250D01*
X181857Y488146D01*
X183896Y486107D01*
X185000Y483442D01*
X185000Y482762D01*
X178512Y482762D01*
G37*
G36*
X166236Y444337D02*
X165875Y444404D01*
X161295Y444404D01*
X159582Y445393D01*
X159465Y445451D01*
X158281Y445941D01*
X157894Y446328D01*
X157687Y446487D01*
X156609Y447109D01*
X155987Y448187D01*
X155828Y448394D01*
X155441Y448781D01*
X154951Y449965D01*
X154893Y450082D01*
X153841Y451904D01*
X153577Y452202D01*
X153218Y452374D01*
X152821Y452392D01*
X152448Y452254D01*
X152268Y452111D01*
X151369Y451213D01*
X148210Y449904D01*
X144790Y449904D01*
X141631Y451213D01*
X139213Y453631D01*
X138602Y455105D01*
X138379Y455435D01*
X138046Y455653D01*
X137654Y455722D01*
X137295Y455647D01*
X136710Y455404D01*
X133290Y455404D01*
X130131Y456713D01*
X127713Y459131D01*
X126404Y462290D01*
X126404Y465710D01*
X127713Y468869D01*
X130131Y471287D01*
X131170Y471718D01*
X131500Y471940D01*
X131717Y472274D01*
X131787Y472666D01*
X131699Y473054D01*
X131495Y473349D01*
X130713Y474131D01*
X129404Y477290D01*
X129404Y480710D01*
X130713Y483869D01*
X133131Y486287D01*
X136290Y487596D01*
X139710Y487596D01*
X142869Y486287D01*
X145287Y483869D01*
X146596Y480710D01*
X146596Y477290D01*
X145287Y474131D01*
X142869Y471713D01*
X141830Y471282D01*
X141500Y471060D01*
X141283Y470726D01*
X141213Y470334D01*
X141301Y469946D01*
X141505Y469651D01*
X142287Y468869D01*
X142898Y467395D01*
X143121Y467065D01*
X143454Y466848D01*
X143846Y466778D01*
X144205Y466854D01*
X144790Y467096D01*
X148210Y467096D01*
X151369Y465787D01*
X153787Y463369D01*
X154547Y461536D01*
X154769Y461206D01*
X155103Y460989D01*
X155495Y460919D01*
X155883Y461007D01*
X156205Y461240D01*
X156337Y461419D01*
X156609Y461891D01*
X157687Y462513D01*
X157894Y462672D01*
X158281Y463059D01*
X159465Y463549D01*
X159582Y463607D01*
X161295Y464596D01*
X166705Y464596D01*
X168418Y463607D01*
X168535Y463549D01*
X169719Y463059D01*
X170106Y462672D01*
X170313Y462513D01*
X171391Y461891D01*
X172013Y460813D01*
X172172Y460606D01*
X172559Y460219D01*
X173049Y459035D01*
X173107Y458918D01*
X174096Y457205D01*
X174096Y454375D01*
X174175Y453985D01*
X174400Y453657D01*
X174736Y453442D01*
X175096Y453375D01*
X175488Y453375D01*
X175488Y444762D01*
X166494Y444762D01*
X166494Y444171D01*
X166236Y444337D01*
G37*
G36*
X79141Y466654D02*
X75706Y468077D01*
X73077Y470706D01*
X71654Y474141D01*
X71654Y477859D01*
X73077Y481294D01*
X75706Y483923D01*
X79141Y485346D01*
X82859Y485346D01*
X86294Y483923D01*
X88923Y481294D01*
X90346Y477859D01*
X90346Y474141D01*
X88923Y470706D01*
X86294Y468077D01*
X82859Y466654D01*
X79141Y466654D01*
G37*
G36*
X176308Y474750D02*
X173643Y475854D01*
X171604Y477893D01*
X170500Y480558D01*
X170500Y481238D01*
X176988Y481238D01*
X176988Y474750D01*
X176308Y474750D01*
G37*
G36*
X178512Y474750D02*
X178512Y481238D01*
X185000Y481238D01*
X185000Y480558D01*
X183896Y477893D01*
X181857Y475854D01*
X179192Y474750D01*
X178512Y474750D01*
G37*
G36*
X101012Y474750D02*
X101012Y481238D01*
X107500Y481238D01*
X107500Y480558D01*
X106396Y477893D01*
X104357Y475854D01*
X101692Y474750D01*
X101012Y474750D01*
G37*
G36*
X98808Y474750D02*
X96143Y475854D01*
X94104Y477893D01*
X93000Y480558D01*
X93000Y481238D01*
X99488Y481238D01*
X99488Y474750D01*
X98808Y474750D01*
G37*
G36*
X111506Y444762D02*
X102512Y444762D01*
X102512Y453375D01*
X102904Y453375D01*
X103294Y453454D01*
X103622Y453679D01*
X103837Y454015D01*
X103904Y454375D01*
X103904Y457205D01*
X104893Y458918D01*
X104951Y459035D01*
X105441Y460219D01*
X105828Y460606D01*
X105987Y460813D01*
X106609Y461891D01*
X107687Y462513D01*
X107894Y462672D01*
X108281Y463059D01*
X109465Y463549D01*
X109582Y463607D01*
X111295Y464596D01*
X116705Y464596D01*
X118418Y463607D01*
X118535Y463549D01*
X119719Y463059D01*
X120106Y462672D01*
X120313Y462513D01*
X121391Y461891D01*
X122013Y460813D01*
X122172Y460606D01*
X122559Y460219D01*
X123049Y459035D01*
X123107Y458918D01*
X124096Y457205D01*
X124096Y451795D01*
X123107Y450082D01*
X123049Y449965D01*
X122559Y448781D01*
X122172Y448394D01*
X122013Y448187D01*
X121391Y447109D01*
X120313Y446487D01*
X120106Y446328D01*
X119719Y445941D01*
X118535Y445451D01*
X118418Y445393D01*
X116705Y444404D01*
X112125Y444404D01*
X111735Y444325D01*
X111506Y444168D01*
X111506Y444762D01*
G37*
G36*
X92375Y444762D02*
X92375Y445865D01*
X93802Y449311D01*
X96439Y451948D01*
X99885Y453375D01*
X100988Y453375D01*
X100988Y444762D01*
X92375Y444762D01*
G37*
G36*
X177012Y444762D02*
X177012Y453375D01*
X178115Y453375D01*
X181561Y451948D01*
X184198Y449311D01*
X185625Y445865D01*
X185625Y444762D01*
X177012Y444762D01*
G37*
G36*
X200141Y428654D02*
X196706Y430077D01*
X194077Y432706D01*
X192654Y436141D01*
X192654Y439859D01*
X194077Y443294D01*
X196706Y445923D01*
X200141Y447346D01*
X203859Y447346D01*
X207294Y445923D01*
X209923Y443294D01*
X211346Y439859D01*
X211346Y436141D01*
X209923Y432706D01*
X207294Y430077D01*
X203859Y428654D01*
X200141Y428654D01*
G37*
G36*
X177012Y434625D02*
X177012Y443238D01*
X185625Y443238D01*
X185625Y442135D01*
X184198Y438689D01*
X181561Y436052D01*
X178115Y434625D01*
X177012Y434625D01*
G37*
G36*
X99885Y434625D02*
X96439Y436052D01*
X93802Y438689D01*
X92375Y442135D01*
X92375Y443238D01*
X100988Y443238D01*
X100988Y434625D01*
X99885Y434625D01*
G37*
G36*
X102512Y434625D02*
X102512Y443238D01*
X111125Y443238D01*
X111125Y442135D01*
X109698Y438689D01*
X107061Y436052D01*
X103615Y434625D01*
X102512Y434625D01*
G37*
G36*
X174385Y434625D02*
X170939Y436052D01*
X168302Y438689D01*
X166875Y442135D01*
X166875Y443238D01*
X175488Y443238D01*
X175488Y434625D01*
X174385Y434625D01*
G37*
G36*
X163141Y399654D02*
X159706Y401077D01*
X157077Y403706D01*
X155654Y407141D01*
X155654Y410859D01*
X157077Y414294D01*
X159706Y416923D01*
X163141Y418346D01*
X166859Y418346D01*
X170294Y416923D01*
X172923Y414294D01*
X174346Y410859D01*
X174346Y407141D01*
X172923Y403706D01*
X170294Y401077D01*
X166859Y399654D01*
X163141Y399654D01*
G37*
G36*
X141141Y362654D02*
X137706Y364077D01*
X135077Y366706D01*
X133654Y370141D01*
X133654Y373859D01*
X135077Y377294D01*
X135730Y377947D01*
X135949Y378279D01*
X136022Y378670D01*
X135937Y379059D01*
X135707Y379383D01*
X135368Y379592D01*
X135023Y379654D01*
X133141Y379654D01*
X129706Y381077D01*
X127077Y383706D01*
X125654Y387141D01*
X125654Y390859D01*
X127077Y394294D01*
X129706Y396923D01*
X133141Y398346D01*
X136859Y398346D01*
X140294Y396923D01*
X142923Y394294D01*
X144346Y390859D01*
X144346Y387141D01*
X142923Y383706D01*
X142270Y383053D01*
X142051Y382721D01*
X141978Y382330D01*
X142063Y381941D01*
X142293Y381617D01*
X142632Y381408D01*
X142977Y381346D01*
X144859Y381346D01*
X148294Y379923D01*
X150923Y377294D01*
X152346Y373859D01*
X152346Y370141D01*
X150923Y366706D01*
X148294Y364077D01*
X144859Y362654D01*
X141141Y362654D01*
G37*
G36*
X185372Y372454D02*
X181937Y373877D01*
X179308Y376506D01*
X177885Y379941D01*
X177885Y383659D01*
X179308Y387094D01*
X181937Y389723D01*
X185372Y391146D01*
X189090Y391146D01*
X192525Y389723D01*
X195154Y387094D01*
X196577Y383659D01*
X196577Y379941D01*
X195154Y376506D01*
X192525Y373877D01*
X189090Y372454D01*
X185372Y372454D01*
G37*
G36*
X206141Y335654D02*
X202706Y337077D01*
X200077Y339706D01*
X198654Y343141D01*
X198654Y346859D01*
X200077Y350294D01*
X202706Y352923D01*
X206141Y354346D01*
X209859Y354346D01*
X213294Y352923D01*
X215923Y350294D01*
X217346Y346859D01*
X217346Y343141D01*
X215923Y339706D01*
X213294Y337077D01*
X209859Y335654D01*
X206141Y335654D01*
G37*
G36*
X73141Y297654D02*
X69706Y299077D01*
X67077Y301706D01*
X65654Y305141D01*
X65654Y308859D01*
X67077Y312294D01*
X69706Y314923D01*
X73141Y316346D01*
X76859Y316346D01*
X80294Y314923D01*
X82923Y312294D01*
X83594Y310674D01*
X83817Y310344D01*
X84150Y310127D01*
X84542Y310057D01*
X84930Y310145D01*
X85253Y310378D01*
X85442Y310674D01*
X86256Y312640D01*
X88885Y315269D01*
X92320Y316692D01*
X96039Y316692D01*
X99474Y315269D01*
X102103Y312640D01*
X103526Y309205D01*
X103526Y305487D01*
X102103Y302052D01*
X99474Y299423D01*
X96039Y298000D01*
X92320Y298000D01*
X88885Y299423D01*
X86256Y302052D01*
X85585Y303672D01*
X85363Y304002D01*
X85029Y304219D01*
X84638Y304289D01*
X84249Y304201D01*
X83927Y303968D01*
X83738Y303672D01*
X82923Y301706D01*
X80294Y299077D01*
X76859Y297654D01*
X73141Y297654D01*
G37*
G36*
X112141Y255654D02*
X108706Y257077D01*
X106077Y259706D01*
X104654Y263141D01*
X104654Y266859D01*
X106077Y270294D01*
X108706Y272923D01*
X112141Y274346D01*
X115859Y274346D01*
X119294Y272923D01*
X121923Y270294D01*
X123346Y266859D01*
X123346Y263141D01*
X121923Y259706D01*
X119294Y257077D01*
X115859Y255654D01*
X112141Y255654D01*
G37*
G36*
X180141Y161654D02*
X176706Y163077D01*
X174077Y165706D01*
X172654Y169141D01*
X172654Y172859D01*
X174077Y176294D01*
X176706Y178923D01*
X180141Y180346D01*
X183859Y180346D01*
X187294Y178923D01*
X189923Y176294D01*
X191346Y172859D01*
X191346Y169141D01*
X189923Y165706D01*
X187294Y163077D01*
X183859Y161654D01*
X180141Y161654D01*
G37*
G36*
X116141Y151654D02*
X112706Y153077D01*
X110077Y155706D01*
X108654Y159141D01*
X108654Y162859D01*
X110077Y166294D01*
X112706Y168923D01*
X116141Y170346D01*
X119859Y170346D01*
X123294Y168923D01*
X125923Y166294D01*
X127346Y162859D01*
X127346Y159141D01*
X125923Y155706D01*
X123294Y153077D01*
X119859Y151654D01*
X116141Y151654D01*
G37*
G36*
X202719Y31029D02*
X198136Y32928D01*
X194628Y36436D01*
X192729Y41019D01*
X192729Y45981D01*
X194628Y50564D01*
X198136Y54072D01*
X202719Y55971D01*
X207681Y55971D01*
X212264Y54072D01*
X215772Y50564D01*
X217671Y45981D01*
X217671Y41019D01*
X215772Y36436D01*
X212264Y32928D01*
X207681Y31029D01*
X202719Y31029D01*
G37*
G36*
X30357Y31029D02*
X25774Y32928D01*
X22266Y36436D01*
X20367Y41019D01*
X20367Y45981D01*
X22266Y50564D01*
X25774Y54072D01*
X30357Y55971D01*
X35319Y55971D01*
X39902Y54072D01*
X43410Y50564D01*
X45309Y45981D01*
X45309Y41019D01*
X43410Y36436D01*
X39902Y32928D01*
X35319Y31029D01*
X30357Y31029D01*
G37*
G36*
X117919Y30029D02*
X113336Y31928D01*
X109828Y35436D01*
X107929Y40019D01*
X107929Y44981D01*
X109828Y49564D01*
X113336Y53072D01*
X117919Y54971D01*
X122881Y54971D01*
X127464Y53072D01*
X130972Y49564D01*
X132871Y44981D01*
X132871Y40019D01*
X130972Y35436D01*
X127464Y31928D01*
X122881Y30029D01*
X117919Y30029D01*
G37*
G36*
X48863Y44262D02*
X48863Y45365D01*
X50290Y48811D01*
X52927Y51448D01*
X56373Y52875D01*
X57476Y52875D01*
X57476Y44262D01*
X48863Y44262D01*
G37*
G36*
X59000Y44262D02*
X59000Y52875D01*
X60103Y52875D01*
X63549Y51448D01*
X66186Y48811D01*
X67613Y45365D01*
X67613Y44262D01*
X59000Y44262D01*
G37*
G36*
X136425Y43262D02*
X136425Y44365D01*
X137852Y47811D01*
X140489Y50448D01*
X143935Y51875D01*
X145038Y51875D01*
X145038Y43262D01*
X136425Y43262D01*
G37*
G36*
X146562Y43262D02*
X146562Y51875D01*
X147665Y51875D01*
X151111Y50448D01*
X153748Y47811D01*
X155175Y44365D01*
X155175Y43262D01*
X146562Y43262D01*
G37*
G36*
X56373Y34125D02*
X52927Y35552D01*
X50290Y38189D01*
X48863Y41635D01*
X48863Y42738D01*
X57476Y42738D01*
X57476Y34125D01*
X56373Y34125D01*
G37*
G36*
X143935Y33125D02*
X140489Y34552D01*
X137852Y37189D01*
X136425Y40635D01*
X136425Y41738D01*
X145038Y41738D01*
X145038Y33125D01*
X143935Y33125D01*
G37*
%LPD*%
G36*
X455923Y3403D02*
X456340Y3688D01*
X456613Y4114D01*
X456698Y4572D01*
X456698Y495428D01*
X456597Y495923D01*
X456312Y496340D01*
X455886Y496613D01*
X455428Y496698D01*
X269227Y496698D01*
X268731Y496597D01*
X268315Y496312D01*
X268042Y495886D01*
X267957Y495388D01*
X268053Y494942D01*
X268790Y493164D01*
X268790Y490860D01*
X267812Y488499D01*
X267812Y488499D01*
X267801Y488483D01*
X267709Y487986D01*
X267812Y487513D01*
X267812Y487513D01*
X267813Y487511D01*
X267817Y487492D01*
X267826Y487479D01*
X268790Y485152D01*
X268790Y482848D01*
X267812Y480487D01*
X267814Y480486D01*
X267807Y480477D01*
X267715Y479980D01*
X267817Y479515D01*
X267812Y479513D01*
X267823Y479487D01*
X267823Y479486D01*
X267823Y479486D01*
X268790Y477152D01*
X268790Y474848D01*
X267909Y472720D01*
X266280Y471091D01*
X264152Y470210D01*
X261848Y470210D01*
X259720Y471091D01*
X259168Y471644D01*
X258747Y471923D01*
X258250Y472016D01*
X257756Y471907D01*
X257344Y471615D01*
X257078Y471185D01*
X257000Y470746D01*
X257000Y396934D01*
X257101Y396439D01*
X257386Y396022D01*
X257784Y395761D01*
X259936Y394870D01*
X264870Y389936D01*
X267540Y383489D01*
X267540Y376511D01*
X264870Y370064D01*
X259936Y365130D01*
X257784Y364239D01*
X257365Y363957D01*
X257089Y363533D01*
X257000Y363066D01*
X257000Y106934D01*
X257101Y106439D01*
X257386Y106022D01*
X257784Y105761D01*
X259936Y104870D01*
X264870Y99936D01*
X267540Y93489D01*
X267540Y86511D01*
X264870Y80064D01*
X259936Y75130D01*
X257784Y74239D01*
X257365Y73957D01*
X257089Y73533D01*
X257000Y73066D01*
X257000Y4572D01*
X257101Y4077D01*
X257386Y3660D01*
X257812Y3387D01*
X258270Y3302D01*
X455428Y3302D01*
X455923Y3403D01*
G37*
%LPC*%
G36*
X279848Y441210D02*
X277720Y442091D01*
X276091Y443720D01*
X275210Y445848D01*
X275210Y448152D01*
X276091Y450280D01*
X277720Y451909D01*
X279848Y452790D01*
X282152Y452790D01*
X284280Y451909D01*
X285909Y450280D01*
X286790Y448152D01*
X286790Y445848D01*
X285909Y443720D01*
X284280Y442091D01*
X282152Y441210D01*
X279848Y441210D01*
G37*
G36*
X409848Y405210D02*
X407720Y406091D01*
X406091Y407720D01*
X405210Y409848D01*
X405210Y412152D01*
X406091Y414280D01*
X407041Y415229D01*
X407320Y415651D01*
X407413Y416148D01*
X407305Y416641D01*
X407012Y417054D01*
X406629Y417301D01*
X404487Y418188D01*
X404486Y418187D01*
X404477Y418193D01*
X403980Y418286D01*
X403486Y418177D01*
X403102Y417914D01*
X402280Y417091D01*
X400152Y416210D01*
X397848Y416210D01*
X395720Y417091D01*
X394091Y418720D01*
X393210Y420848D01*
X393210Y423152D01*
X394091Y425280D01*
X395720Y426909D01*
X396215Y427113D01*
X396634Y427396D01*
X396910Y427820D01*
X396999Y428317D01*
X396886Y428810D01*
X396627Y429185D01*
X395091Y430720D01*
X394210Y432848D01*
X394210Y435152D01*
X395091Y437280D01*
X396720Y438909D01*
X398848Y439790D01*
X401152Y439790D01*
X403280Y438909D01*
X404909Y437280D01*
X405741Y435270D01*
X406023Y434851D01*
X406447Y434575D01*
X406945Y434487D01*
X407437Y434599D01*
X407847Y434895D01*
X408088Y435270D01*
X408091Y435280D01*
X409720Y436909D01*
X411848Y437790D01*
X414152Y437790D01*
X416280Y436909D01*
X417909Y435280D01*
X418790Y433152D01*
X418790Y430848D01*
X418601Y430393D01*
X418505Y429896D01*
X418609Y429402D01*
X418898Y428987D01*
X419289Y428733D01*
X421280Y427909D01*
X423078Y426110D01*
X423104Y426073D01*
X423527Y425797D01*
X424025Y425709D01*
X424518Y425821D01*
X424892Y426080D01*
X425720Y426909D01*
X427848Y427790D01*
X430152Y427790D01*
X432280Y426909D01*
X433909Y425280D01*
X434790Y423152D01*
X434790Y420848D01*
X433909Y418720D01*
X432280Y417092D01*
X429935Y416120D01*
X429516Y415838D01*
X429240Y415414D01*
X429151Y414917D01*
X429248Y414461D01*
X429790Y413152D01*
X429790Y410848D01*
X428909Y408720D01*
X427280Y407091D01*
X425152Y406210D01*
X422848Y406210D01*
X420720Y407091D01*
X419091Y408720D01*
X418880Y409230D01*
X418598Y409649D01*
X418174Y409925D01*
X417677Y410013D01*
X417184Y409901D01*
X416774Y409605D01*
X416534Y409230D01*
X415909Y407720D01*
X414280Y406091D01*
X412152Y405210D01*
X409848Y405210D01*
G37*
G36*
X277848Y409210D02*
X275720Y410091D01*
X274091Y411720D01*
X273210Y413848D01*
X273210Y416152D01*
X274091Y418280D01*
X275720Y419909D01*
X277848Y420790D01*
X280152Y420790D01*
X282280Y419909D01*
X283909Y418280D01*
X284790Y416152D01*
X284790Y413848D01*
X283909Y411720D01*
X282280Y410091D01*
X280152Y409210D01*
X277848Y409210D01*
G37*
G36*
X352848Y371210D02*
X350720Y372091D01*
X349091Y373720D01*
X348210Y375848D01*
X348210Y378152D01*
X349091Y380280D01*
X350720Y381909D01*
X352848Y382790D01*
X355152Y382790D01*
X357280Y381909D01*
X358909Y380280D01*
X359790Y378152D01*
X359790Y375848D01*
X358909Y373720D01*
X357280Y372091D01*
X355152Y371210D01*
X352848Y371210D01*
G37*
G36*
X290848Y334210D02*
X288720Y335091D01*
X287091Y336720D01*
X286210Y338848D01*
X286210Y341152D01*
X287091Y343280D01*
X288720Y344909D01*
X290848Y345790D01*
X293152Y345790D01*
X295280Y344909D01*
X296909Y343280D01*
X297790Y341152D01*
X297790Y338848D01*
X296909Y336720D01*
X295280Y335091D01*
X293152Y334210D01*
X290848Y334210D01*
G37*
G36*
X337848Y290210D02*
X335720Y291091D01*
X334091Y292720D01*
X333210Y294848D01*
X333210Y297152D01*
X334091Y299280D01*
X335720Y300909D01*
X337848Y301790D01*
X340152Y301790D01*
X342280Y300909D01*
X343909Y299280D01*
X344790Y297152D01*
X344790Y294848D01*
X343909Y292720D01*
X342280Y291091D01*
X340152Y290210D01*
X337848Y290210D01*
G37*
G36*
X403998Y268960D02*
X402145Y269727D01*
X400727Y271145D01*
X399960Y272998D01*
X399960Y275002D01*
X400727Y276855D01*
X402145Y278273D01*
X403998Y279040D01*
X406161Y279040D01*
X406358Y279002D01*
X406852Y279106D01*
X407246Y279374D01*
X408145Y280273D01*
X409998Y281040D01*
X412002Y281040D01*
X413855Y280273D01*
X415273Y278855D01*
X416040Y277002D01*
X416040Y274998D01*
X415273Y273145D01*
X413855Y271727D01*
X412002Y270960D01*
X409839Y270960D01*
X409642Y270998D01*
X409148Y270894D01*
X408754Y270626D01*
X407855Y269727D01*
X406002Y268960D01*
X403998Y268960D01*
G37*
G36*
X349848Y258210D02*
X347720Y259091D01*
X346091Y260720D01*
X345210Y262848D01*
X345210Y265152D01*
X346091Y267280D01*
X347720Y268909D01*
X349848Y269790D01*
X352152Y269790D01*
X354280Y268909D01*
X355909Y267280D01*
X356790Y265152D01*
X356790Y262848D01*
X355909Y260720D01*
X354280Y259091D01*
X352152Y258210D01*
X349848Y258210D01*
G37*
G36*
X298848Y168210D02*
X296720Y169091D01*
X295091Y170720D01*
X294210Y172848D01*
X294210Y175152D01*
X295091Y177280D01*
X296720Y178909D01*
X298848Y179790D01*
X301152Y179790D01*
X303280Y178909D01*
X304909Y177280D01*
X305790Y175152D01*
X305790Y172848D01*
X304909Y170720D01*
X303280Y169091D01*
X301152Y168210D01*
X298848Y168210D01*
G37*
G36*
X340848Y165210D02*
X338720Y166091D01*
X337091Y167720D01*
X336210Y169848D01*
X336210Y172152D01*
X337091Y174280D01*
X338720Y175909D01*
X340848Y176790D01*
X343152Y176790D01*
X345280Y175909D01*
X346909Y174280D01*
X347790Y172152D01*
X347790Y169848D01*
X346909Y167720D01*
X345280Y166091D01*
X343152Y165210D01*
X340848Y165210D01*
G37*
G36*
X404998Y138960D02*
X403145Y139727D01*
X401727Y141145D01*
X400960Y142998D01*
X400960Y145002D01*
X401727Y146855D01*
X403145Y148273D01*
X404998Y149040D01*
X405541Y149040D01*
X406037Y149141D01*
X406453Y149426D01*
X406715Y149824D01*
X406727Y149855D01*
X408145Y151273D01*
X409998Y152040D01*
X412002Y152040D01*
X413855Y151273D01*
X415273Y149855D01*
X416040Y148002D01*
X416040Y145998D01*
X415273Y144145D01*
X413855Y142727D01*
X412002Y141960D01*
X411459Y141960D01*
X410964Y141859D01*
X410547Y141574D01*
X410286Y141176D01*
X410273Y141145D01*
X408855Y139727D01*
X407002Y138960D01*
X404998Y138960D01*
G37*
G36*
X351848Y119210D02*
X349720Y120091D01*
X348091Y121720D01*
X347210Y123848D01*
X347210Y126152D01*
X348091Y128280D01*
X349720Y129909D01*
X351848Y130790D01*
X354152Y130790D01*
X356280Y129909D01*
X357909Y128280D01*
X358790Y126152D01*
X358790Y123848D01*
X357909Y121720D01*
X356280Y120091D01*
X354152Y119210D01*
X351848Y119210D01*
G37*
G36*
X309425Y44262D02*
X309425Y45365D01*
X310852Y48810D01*
X313490Y51448D01*
X316935Y52875D01*
X318038Y52875D01*
X318038Y44262D01*
X309425Y44262D01*
G37*
G36*
X319562Y44262D02*
X319562Y52875D01*
X320665Y52875D01*
X324110Y51448D01*
X326748Y48810D01*
X328175Y45365D01*
X328175Y44262D01*
X319562Y44262D01*
G37*
G36*
X291627Y34585D02*
X288350Y35942D01*
X285842Y38450D01*
X284485Y41727D01*
X284485Y45273D01*
X285842Y48550D01*
X288350Y51058D01*
X291627Y52415D01*
X295173Y52415D01*
X298450Y51058D01*
X300958Y48550D01*
X302315Y45273D01*
X302315Y41727D01*
X300958Y38450D01*
X298450Y35942D01*
X295173Y34585D01*
X291627Y34585D01*
G37*
G36*
X350848Y31210D02*
X348720Y32091D01*
X347091Y33720D01*
X346210Y35848D01*
X346210Y38152D01*
X347091Y40280D01*
X348720Y41909D01*
X350848Y42790D01*
X353152Y42790D01*
X355280Y41909D01*
X356909Y40280D01*
X357790Y38152D01*
X357790Y35848D01*
X356909Y33720D01*
X355280Y32091D01*
X353152Y31210D01*
X350848Y31210D01*
G37*
G36*
X319562Y34125D02*
X319562Y42738D01*
X328175Y42738D01*
X328175Y41635D01*
X326748Y38190D01*
X324110Y35552D01*
X320665Y34125D01*
X319562Y34125D01*
G37*
G36*
X316935Y34125D02*
X313490Y35552D01*
X310852Y38190D01*
X309425Y41635D01*
X309425Y42738D01*
X318038Y42738D01*
X318038Y34125D01*
X316935Y34125D01*
G37*
G36*
X330043Y15210D02*
X328311Y16210D01*
X328162Y16283D01*
X326971Y16777D01*
X326600Y17148D01*
X326337Y17350D01*
X325267Y17967D01*
X324650Y19037D01*
X324448Y19300D01*
X324077Y19671D01*
X323583Y20862D01*
X323510Y21011D01*
X322510Y22743D01*
X322510Y28257D01*
X323510Y29989D01*
X323583Y30138D01*
X324077Y31329D01*
X324448Y31700D01*
X324650Y31963D01*
X325267Y33033D01*
X326337Y33650D01*
X326600Y33852D01*
X326971Y34223D01*
X328162Y34717D01*
X328311Y34790D01*
X330043Y35790D01*
X335557Y35790D01*
X337289Y34790D01*
X337438Y34717D01*
X338629Y34223D01*
X339000Y33852D01*
X339263Y33650D01*
X340333Y33033D01*
X340950Y31963D01*
X341152Y31700D01*
X341523Y31329D01*
X342017Y30138D01*
X342090Y29989D01*
X343090Y28257D01*
X343090Y22743D01*
X342090Y21011D01*
X342017Y20862D01*
X341523Y19671D01*
X341152Y19300D01*
X340950Y19037D01*
X340333Y17967D01*
X339263Y17350D01*
X339000Y17148D01*
X338629Y16777D01*
X337438Y16283D01*
X337289Y16210D01*
X335557Y15210D01*
X330043Y15210D01*
G37*
G36*
X304327Y9185D02*
X301050Y10542D01*
X298542Y13050D01*
X297185Y16327D01*
X297185Y19873D01*
X298542Y23150D01*
X301050Y25658D01*
X304327Y27015D01*
X307873Y27015D01*
X311150Y25658D01*
X313658Y23150D01*
X315015Y19873D01*
X315015Y16327D01*
X313658Y13050D01*
X311150Y10542D01*
X307873Y9185D01*
X304327Y9185D01*
G37*
G36*
X278927Y9185D02*
X275650Y10542D01*
X273142Y13050D01*
X271785Y16327D01*
X271785Y19873D01*
X273142Y23150D01*
X275650Y25658D01*
X278927Y27015D01*
X282473Y27015D01*
X285750Y25658D01*
X288258Y23150D01*
X289615Y19873D01*
X289615Y16327D01*
X288258Y13050D01*
X285750Y10542D01*
X282473Y9185D01*
X278927Y9185D01*
G37*
%LPD*%
D10*
X318800Y43500D03*
X306100Y18100D03*
X293400Y43500D03*
X280700Y18100D03*
X230600Y43500D03*
X217900Y18100D03*
X205200Y43500D03*
X192500Y18100D03*
X58238Y43500D03*
X45538Y18100D03*
X32838Y43500D03*
X20138Y18100D03*
X145800Y42500D03*
X133100Y17100D03*
X120400Y42500D03*
X107700Y17100D03*
X176250Y444000D03*
X101750Y444000D03*
D11*
X177750Y482000D03*
X100250Y482000D03*
D12*
X119000Y241000D03*
X220000Y270000D03*
X200000Y130000D03*
X213000Y187000D03*
X54000Y309000D03*
X55000Y489456D03*
X17000Y489000D03*
X218000Y426000D03*
D13*
X205000Y399646D02*
X193646Y399646D01*
X193000Y399000D01*
X188000Y364314D02*
X185000Y364314D01*
X188365Y369000D02*
X188365Y370979D01*
X185030Y374314D01*
D12*
X216000Y404000D03*
X209000Y359000D03*
X196000Y409000D03*
X205000Y399646D03*
X188000Y364314D03*
X68000Y335000D03*
X43000Y489000D03*
D14*
X164000Y473000D03*
D12*
X121000Y443000D03*
X75000Y292000D03*
X95000Y292000D03*
X265000Y272000D03*
X369000Y209000D03*
X381000Y231000D03*
X379000Y209000D03*
X381000Y218000D03*
X313000Y462000D03*
X444000Y422000D03*
X371000Y357000D03*
X379000Y357000D03*
X376000Y337000D03*
X368000Y340000D03*
X384000Y337000D03*
X380000Y347000D03*
X372000Y95000D03*
X366000Y79000D03*
X374000Y79000D03*
X384000Y78000D03*
X323000Y328000D03*
X285000Y205000D03*
X439000Y285000D03*
X289000Y132000D03*
X416000Y22000D03*
X439000Y151000D03*
X331000Y489000D03*
X346000Y489000D03*
X332000Y472000D03*
X348000Y474000D03*
X370000Y220000D03*
X370000Y231000D03*
X446262Y162000D03*
D14*
X446000Y443175D03*
D15*
X445000Y409000D03*
X444762Y294000D03*
D12*
X364000Y94000D03*
X383000Y96000D03*
X263000Y492012D03*
X263000Y484000D03*
X263000Y476000D03*
X292000Y340000D03*
X353000Y125000D03*
X342000Y171000D03*
X300000Y174000D03*
X351000Y264000D03*
X354000Y377000D03*
X352000Y37000D03*
X279000Y415000D03*
X339000Y296000D03*
X182000Y171000D03*
X208000Y345000D03*
X81000Y476000D03*
X221000Y493000D03*
X165000Y409000D03*
X187231Y381800D03*
X75000Y307000D03*
X94180Y307346D03*
X281000Y447000D03*
X399000Y422000D03*
X408000Y423000D03*
X418000Y423000D03*
X429000Y422000D03*
X424000Y412000D03*
X411000Y411000D03*
D14*
X405000Y274000D03*
X411000Y276000D03*
X411000Y147000D03*
X406000Y144000D03*
D12*
X413000Y432000D03*
X400000Y434000D03*
X143000Y372000D03*
X11000Y192000D03*
X118000Y161000D03*
D14*
X146500Y458500D03*
X135000Y464000D03*
D12*
X135000Y389000D03*
X17000Y400000D03*
X114000Y265000D03*
X202000Y438000D03*
D14*
X138000Y479000D03*
M02*
