G04 EAGLE Gerber RS-274X export*
G75*
%MOMM*%
%FSLAX34Y34*%
%LPD*%
%INBoard Outline*%
%IPPOS*%
%AMOC8*
5,1,8,0,0,1.08239X$1,22.5*%
G01*
G04 Define Apertures*
%ADD10C,0.152400*%
%ADD11C,0.000000*%
%ADD12C,0.010000*%
%ADD13C,0.254000*%
D10*
X0Y0D02*
X460000Y0D01*
X460000Y500000D01*
X0Y500000D01*
X0Y0D01*
D11*
X235000Y90000D02*
X235005Y90368D01*
X235018Y90736D01*
X235041Y91103D01*
X235072Y91470D01*
X235113Y91836D01*
X235162Y92201D01*
X235221Y92564D01*
X235288Y92926D01*
X235364Y93287D01*
X235450Y93645D01*
X235543Y94001D01*
X235646Y94354D01*
X235757Y94705D01*
X235877Y95053D01*
X236005Y95398D01*
X236142Y95740D01*
X236287Y96079D01*
X236440Y96413D01*
X236602Y96744D01*
X236771Y97071D01*
X236949Y97393D01*
X237134Y97712D01*
X237327Y98025D01*
X237528Y98334D01*
X237736Y98637D01*
X237952Y98935D01*
X238175Y99228D01*
X238405Y99516D01*
X238642Y99798D01*
X238886Y100073D01*
X239136Y100343D01*
X239393Y100607D01*
X239657Y100864D01*
X239927Y101114D01*
X240202Y101358D01*
X240484Y101595D01*
X240772Y101825D01*
X241065Y102048D01*
X241363Y102264D01*
X241666Y102472D01*
X241975Y102673D01*
X242288Y102866D01*
X242607Y103051D01*
X242929Y103229D01*
X243256Y103398D01*
X243587Y103560D01*
X243921Y103713D01*
X244260Y103858D01*
X244602Y103995D01*
X244947Y104123D01*
X245295Y104243D01*
X245646Y104354D01*
X245999Y104457D01*
X246355Y104550D01*
X246713Y104636D01*
X247074Y104712D01*
X247436Y104779D01*
X247799Y104838D01*
X248164Y104887D01*
X248530Y104928D01*
X248897Y104959D01*
X249264Y104982D01*
X249632Y104995D01*
X250000Y105000D01*
X250368Y104995D01*
X250736Y104982D01*
X251103Y104959D01*
X251470Y104928D01*
X251836Y104887D01*
X252201Y104838D01*
X252564Y104779D01*
X252926Y104712D01*
X253287Y104636D01*
X253645Y104550D01*
X254001Y104457D01*
X254354Y104354D01*
X254705Y104243D01*
X255053Y104123D01*
X255398Y103995D01*
X255740Y103858D01*
X256079Y103713D01*
X256413Y103560D01*
X256744Y103398D01*
X257071Y103229D01*
X257393Y103051D01*
X257712Y102866D01*
X258025Y102673D01*
X258334Y102472D01*
X258637Y102264D01*
X258935Y102048D01*
X259228Y101825D01*
X259516Y101595D01*
X259798Y101358D01*
X260073Y101114D01*
X260343Y100864D01*
X260607Y100607D01*
X260864Y100343D01*
X261114Y100073D01*
X261358Y99798D01*
X261595Y99516D01*
X261825Y99228D01*
X262048Y98935D01*
X262264Y98637D01*
X262472Y98334D01*
X262673Y98025D01*
X262866Y97712D01*
X263051Y97393D01*
X263229Y97071D01*
X263398Y96744D01*
X263560Y96413D01*
X263713Y96079D01*
X263858Y95740D01*
X263995Y95398D01*
X264123Y95053D01*
X264243Y94705D01*
X264354Y94354D01*
X264457Y94001D01*
X264550Y93645D01*
X264636Y93287D01*
X264712Y92926D01*
X264779Y92564D01*
X264838Y92201D01*
X264887Y91836D01*
X264928Y91470D01*
X264959Y91103D01*
X264982Y90736D01*
X264995Y90368D01*
X265000Y90000D01*
X264995Y89632D01*
X264982Y89264D01*
X264959Y88897D01*
X264928Y88530D01*
X264887Y88164D01*
X264838Y87799D01*
X264779Y87436D01*
X264712Y87074D01*
X264636Y86713D01*
X264550Y86355D01*
X264457Y85999D01*
X264354Y85646D01*
X264243Y85295D01*
X264123Y84947D01*
X263995Y84602D01*
X263858Y84260D01*
X263713Y83921D01*
X263560Y83587D01*
X263398Y83256D01*
X263229Y82929D01*
X263051Y82607D01*
X262866Y82288D01*
X262673Y81975D01*
X262472Y81666D01*
X262264Y81363D01*
X262048Y81065D01*
X261825Y80772D01*
X261595Y80484D01*
X261358Y80202D01*
X261114Y79927D01*
X260864Y79657D01*
X260607Y79393D01*
X260343Y79136D01*
X260073Y78886D01*
X259798Y78642D01*
X259516Y78405D01*
X259228Y78175D01*
X258935Y77952D01*
X258637Y77736D01*
X258334Y77528D01*
X258025Y77327D01*
X257712Y77134D01*
X257393Y76949D01*
X257071Y76771D01*
X256744Y76602D01*
X256413Y76440D01*
X256079Y76287D01*
X255740Y76142D01*
X255398Y76005D01*
X255053Y75877D01*
X254705Y75757D01*
X254354Y75646D01*
X254001Y75543D01*
X253645Y75450D01*
X253287Y75364D01*
X252926Y75288D01*
X252564Y75221D01*
X252201Y75162D01*
X251836Y75113D01*
X251470Y75072D01*
X251103Y75041D01*
X250736Y75018D01*
X250368Y75005D01*
X250000Y75000D01*
X249632Y75005D01*
X249264Y75018D01*
X248897Y75041D01*
X248530Y75072D01*
X248164Y75113D01*
X247799Y75162D01*
X247436Y75221D01*
X247074Y75288D01*
X246713Y75364D01*
X246355Y75450D01*
X245999Y75543D01*
X245646Y75646D01*
X245295Y75757D01*
X244947Y75877D01*
X244602Y76005D01*
X244260Y76142D01*
X243921Y76287D01*
X243587Y76440D01*
X243256Y76602D01*
X242929Y76771D01*
X242607Y76949D01*
X242288Y77134D01*
X241975Y77327D01*
X241666Y77528D01*
X241363Y77736D01*
X241065Y77952D01*
X240772Y78175D01*
X240484Y78405D01*
X240202Y78642D01*
X239927Y78886D01*
X239657Y79136D01*
X239393Y79393D01*
X239136Y79657D01*
X238886Y79927D01*
X238642Y80202D01*
X238405Y80484D01*
X238175Y80772D01*
X237952Y81065D01*
X237736Y81363D01*
X237528Y81666D01*
X237327Y81975D01*
X237134Y82288D01*
X236949Y82607D01*
X236771Y82929D01*
X236602Y83256D01*
X236440Y83587D01*
X236287Y83921D01*
X236142Y84260D01*
X236005Y84602D01*
X235877Y84947D01*
X235757Y85295D01*
X235646Y85646D01*
X235543Y85999D01*
X235450Y86355D01*
X235364Y86713D01*
X235288Y87074D01*
X235221Y87436D01*
X235162Y87799D01*
X235113Y88164D01*
X235072Y88530D01*
X235041Y88897D01*
X235018Y89264D01*
X235005Y89632D01*
X235000Y90000D01*
X235000Y380000D02*
X235005Y380368D01*
X235018Y380736D01*
X235041Y381103D01*
X235072Y381470D01*
X235113Y381836D01*
X235162Y382201D01*
X235221Y382564D01*
X235288Y382926D01*
X235364Y383287D01*
X235450Y383645D01*
X235543Y384001D01*
X235646Y384354D01*
X235757Y384705D01*
X235877Y385053D01*
X236005Y385398D01*
X236142Y385740D01*
X236287Y386079D01*
X236440Y386413D01*
X236602Y386744D01*
X236771Y387071D01*
X236949Y387393D01*
X237134Y387712D01*
X237327Y388025D01*
X237528Y388334D01*
X237736Y388637D01*
X237952Y388935D01*
X238175Y389228D01*
X238405Y389516D01*
X238642Y389798D01*
X238886Y390073D01*
X239136Y390343D01*
X239393Y390607D01*
X239657Y390864D01*
X239927Y391114D01*
X240202Y391358D01*
X240484Y391595D01*
X240772Y391825D01*
X241065Y392048D01*
X241363Y392264D01*
X241666Y392472D01*
X241975Y392673D01*
X242288Y392866D01*
X242607Y393051D01*
X242929Y393229D01*
X243256Y393398D01*
X243587Y393560D01*
X243921Y393713D01*
X244260Y393858D01*
X244602Y393995D01*
X244947Y394123D01*
X245295Y394243D01*
X245646Y394354D01*
X245999Y394457D01*
X246355Y394550D01*
X246713Y394636D01*
X247074Y394712D01*
X247436Y394779D01*
X247799Y394838D01*
X248164Y394887D01*
X248530Y394928D01*
X248897Y394959D01*
X249264Y394982D01*
X249632Y394995D01*
X250000Y395000D01*
X250368Y394995D01*
X250736Y394982D01*
X251103Y394959D01*
X251470Y394928D01*
X251836Y394887D01*
X252201Y394838D01*
X252564Y394779D01*
X252926Y394712D01*
X253287Y394636D01*
X253645Y394550D01*
X254001Y394457D01*
X254354Y394354D01*
X254705Y394243D01*
X255053Y394123D01*
X255398Y393995D01*
X255740Y393858D01*
X256079Y393713D01*
X256413Y393560D01*
X256744Y393398D01*
X257071Y393229D01*
X257393Y393051D01*
X257712Y392866D01*
X258025Y392673D01*
X258334Y392472D01*
X258637Y392264D01*
X258935Y392048D01*
X259228Y391825D01*
X259516Y391595D01*
X259798Y391358D01*
X260073Y391114D01*
X260343Y390864D01*
X260607Y390607D01*
X260864Y390343D01*
X261114Y390073D01*
X261358Y389798D01*
X261595Y389516D01*
X261825Y389228D01*
X262048Y388935D01*
X262264Y388637D01*
X262472Y388334D01*
X262673Y388025D01*
X262866Y387712D01*
X263051Y387393D01*
X263229Y387071D01*
X263398Y386744D01*
X263560Y386413D01*
X263713Y386079D01*
X263858Y385740D01*
X263995Y385398D01*
X264123Y385053D01*
X264243Y384705D01*
X264354Y384354D01*
X264457Y384001D01*
X264550Y383645D01*
X264636Y383287D01*
X264712Y382926D01*
X264779Y382564D01*
X264838Y382201D01*
X264887Y381836D01*
X264928Y381470D01*
X264959Y381103D01*
X264982Y380736D01*
X264995Y380368D01*
X265000Y380000D01*
X264995Y379632D01*
X264982Y379264D01*
X264959Y378897D01*
X264928Y378530D01*
X264887Y378164D01*
X264838Y377799D01*
X264779Y377436D01*
X264712Y377074D01*
X264636Y376713D01*
X264550Y376355D01*
X264457Y375999D01*
X264354Y375646D01*
X264243Y375295D01*
X264123Y374947D01*
X263995Y374602D01*
X263858Y374260D01*
X263713Y373921D01*
X263560Y373587D01*
X263398Y373256D01*
X263229Y372929D01*
X263051Y372607D01*
X262866Y372288D01*
X262673Y371975D01*
X262472Y371666D01*
X262264Y371363D01*
X262048Y371065D01*
X261825Y370772D01*
X261595Y370484D01*
X261358Y370202D01*
X261114Y369927D01*
X260864Y369657D01*
X260607Y369393D01*
X260343Y369136D01*
X260073Y368886D01*
X259798Y368642D01*
X259516Y368405D01*
X259228Y368175D01*
X258935Y367952D01*
X258637Y367736D01*
X258334Y367528D01*
X258025Y367327D01*
X257712Y367134D01*
X257393Y366949D01*
X257071Y366771D01*
X256744Y366602D01*
X256413Y366440D01*
X256079Y366287D01*
X255740Y366142D01*
X255398Y366005D01*
X255053Y365877D01*
X254705Y365757D01*
X254354Y365646D01*
X254001Y365543D01*
X253645Y365450D01*
X253287Y365364D01*
X252926Y365288D01*
X252564Y365221D01*
X252201Y365162D01*
X251836Y365113D01*
X251470Y365072D01*
X251103Y365041D01*
X250736Y365018D01*
X250368Y365005D01*
X250000Y365000D01*
X249632Y365005D01*
X249264Y365018D01*
X248897Y365041D01*
X248530Y365072D01*
X248164Y365113D01*
X247799Y365162D01*
X247436Y365221D01*
X247074Y365288D01*
X246713Y365364D01*
X246355Y365450D01*
X245999Y365543D01*
X245646Y365646D01*
X245295Y365757D01*
X244947Y365877D01*
X244602Y366005D01*
X244260Y366142D01*
X243921Y366287D01*
X243587Y366440D01*
X243256Y366602D01*
X242929Y366771D01*
X242607Y366949D01*
X242288Y367134D01*
X241975Y367327D01*
X241666Y367528D01*
X241363Y367736D01*
X241065Y367952D01*
X240772Y368175D01*
X240484Y368405D01*
X240202Y368642D01*
X239927Y368886D01*
X239657Y369136D01*
X239393Y369393D01*
X239136Y369657D01*
X238886Y369927D01*
X238642Y370202D01*
X238405Y370484D01*
X238175Y370772D01*
X237952Y371065D01*
X237736Y371363D01*
X237528Y371666D01*
X237327Y371975D01*
X237134Y372288D01*
X236949Y372607D01*
X236771Y372929D01*
X236602Y373256D01*
X236440Y373587D01*
X236287Y373921D01*
X236142Y374260D01*
X236005Y374602D01*
X235877Y374947D01*
X235757Y375295D01*
X235646Y375646D01*
X235543Y375999D01*
X235450Y376355D01*
X235364Y376713D01*
X235288Y377074D01*
X235221Y377436D01*
X235162Y377799D01*
X235113Y378164D01*
X235072Y378530D01*
X235041Y378897D01*
X235018Y379264D01*
X235005Y379632D01*
X235000Y380000D01*
X325050Y25500D02*
X325052Y25690D01*
X325059Y25880D01*
X325071Y26070D01*
X325087Y26260D01*
X325108Y26449D01*
X325134Y26637D01*
X325164Y26825D01*
X325199Y27012D01*
X325238Y27198D01*
X325282Y27383D01*
X325331Y27567D01*
X325384Y27750D01*
X325441Y27931D01*
X325503Y28111D01*
X325569Y28289D01*
X325640Y28466D01*
X325715Y28641D01*
X325794Y28814D01*
X325878Y28984D01*
X325965Y29153D01*
X326057Y29320D01*
X326153Y29484D01*
X326252Y29646D01*
X326356Y29806D01*
X326464Y29963D01*
X326575Y30117D01*
X326690Y30268D01*
X326809Y30417D01*
X326932Y30562D01*
X327058Y30705D01*
X327187Y30844D01*
X327320Y30980D01*
X327456Y31113D01*
X327595Y31242D01*
X327738Y31368D01*
X327883Y31491D01*
X328032Y31610D01*
X328183Y31725D01*
X328337Y31836D01*
X328494Y31944D01*
X328654Y32048D01*
X328816Y32147D01*
X328980Y32243D01*
X329147Y32335D01*
X329316Y32422D01*
X329486Y32506D01*
X329659Y32585D01*
X329834Y32660D01*
X330011Y32731D01*
X330189Y32797D01*
X330369Y32859D01*
X330550Y32916D01*
X330733Y32969D01*
X330917Y33018D01*
X331102Y33062D01*
X331288Y33101D01*
X331475Y33136D01*
X331663Y33166D01*
X331851Y33192D01*
X332040Y33213D01*
X332230Y33229D01*
X332420Y33241D01*
X332610Y33248D01*
X332800Y33250D01*
X332990Y33248D01*
X333180Y33241D01*
X333370Y33229D01*
X333560Y33213D01*
X333749Y33192D01*
X333937Y33166D01*
X334125Y33136D01*
X334312Y33101D01*
X334498Y33062D01*
X334683Y33018D01*
X334867Y32969D01*
X335050Y32916D01*
X335231Y32859D01*
X335411Y32797D01*
X335589Y32731D01*
X335766Y32660D01*
X335941Y32585D01*
X336114Y32506D01*
X336284Y32422D01*
X336453Y32335D01*
X336620Y32243D01*
X336784Y32147D01*
X336946Y32048D01*
X337106Y31944D01*
X337263Y31836D01*
X337417Y31725D01*
X337568Y31610D01*
X337717Y31491D01*
X337862Y31368D01*
X338005Y31242D01*
X338144Y31113D01*
X338280Y30980D01*
X338413Y30844D01*
X338542Y30705D01*
X338668Y30562D01*
X338791Y30417D01*
X338910Y30268D01*
X339025Y30117D01*
X339136Y29963D01*
X339244Y29806D01*
X339348Y29646D01*
X339447Y29484D01*
X339543Y29320D01*
X339635Y29153D01*
X339722Y28984D01*
X339806Y28814D01*
X339885Y28641D01*
X339960Y28466D01*
X340031Y28289D01*
X340097Y28111D01*
X340159Y27931D01*
X340216Y27750D01*
X340269Y27567D01*
X340318Y27383D01*
X340362Y27198D01*
X340401Y27012D01*
X340436Y26825D01*
X340466Y26637D01*
X340492Y26449D01*
X340513Y26260D01*
X340529Y26070D01*
X340541Y25880D01*
X340548Y25690D01*
X340550Y25500D01*
X340548Y25310D01*
X340541Y25120D01*
X340529Y24930D01*
X340513Y24740D01*
X340492Y24551D01*
X340466Y24363D01*
X340436Y24175D01*
X340401Y23988D01*
X340362Y23802D01*
X340318Y23617D01*
X340269Y23433D01*
X340216Y23250D01*
X340159Y23069D01*
X340097Y22889D01*
X340031Y22711D01*
X339960Y22534D01*
X339885Y22359D01*
X339806Y22186D01*
X339722Y22016D01*
X339635Y21847D01*
X339543Y21680D01*
X339447Y21516D01*
X339348Y21354D01*
X339244Y21194D01*
X339136Y21037D01*
X339025Y20883D01*
X338910Y20732D01*
X338791Y20583D01*
X338668Y20438D01*
X338542Y20295D01*
X338413Y20156D01*
X338280Y20020D01*
X338144Y19887D01*
X338005Y19758D01*
X337862Y19632D01*
X337717Y19509D01*
X337568Y19390D01*
X337417Y19275D01*
X337263Y19164D01*
X337106Y19056D01*
X336946Y18952D01*
X336784Y18853D01*
X336620Y18757D01*
X336453Y18665D01*
X336284Y18578D01*
X336114Y18494D01*
X335941Y18415D01*
X335766Y18340D01*
X335589Y18269D01*
X335411Y18203D01*
X335231Y18141D01*
X335050Y18084D01*
X334867Y18031D01*
X334683Y17982D01*
X334498Y17938D01*
X334312Y17899D01*
X334125Y17864D01*
X333937Y17834D01*
X333749Y17808D01*
X333560Y17787D01*
X333370Y17771D01*
X333180Y17759D01*
X332990Y17752D01*
X332800Y17750D01*
X332610Y17752D01*
X332420Y17759D01*
X332230Y17771D01*
X332040Y17787D01*
X331851Y17808D01*
X331663Y17834D01*
X331475Y17864D01*
X331288Y17899D01*
X331102Y17938D01*
X330917Y17982D01*
X330733Y18031D01*
X330550Y18084D01*
X330369Y18141D01*
X330189Y18203D01*
X330011Y18269D01*
X329834Y18340D01*
X329659Y18415D01*
X329486Y18494D01*
X329316Y18578D01*
X329147Y18665D01*
X328980Y18757D01*
X328816Y18853D01*
X328654Y18952D01*
X328494Y19056D01*
X328337Y19164D01*
X328183Y19275D01*
X328032Y19390D01*
X327883Y19509D01*
X327738Y19632D01*
X327595Y19758D01*
X327456Y19887D01*
X327320Y20020D01*
X327187Y20156D01*
X327058Y20295D01*
X326932Y20438D01*
X326809Y20583D01*
X326690Y20732D01*
X326575Y20883D01*
X326464Y21037D01*
X326356Y21194D01*
X326252Y21354D01*
X326153Y21516D01*
X326057Y21680D01*
X325965Y21847D01*
X325878Y22016D01*
X325794Y22186D01*
X325715Y22359D01*
X325640Y22534D01*
X325569Y22711D01*
X325503Y22889D01*
X325441Y23069D01*
X325384Y23250D01*
X325331Y23433D01*
X325282Y23617D01*
X325238Y23802D01*
X325199Y23988D01*
X325164Y24175D01*
X325134Y24363D01*
X325108Y24551D01*
X325087Y24740D01*
X325071Y24930D01*
X325059Y25120D01*
X325052Y25310D01*
X325050Y25500D01*
X236850Y25500D02*
X236852Y25690D01*
X236859Y25880D01*
X236871Y26070D01*
X236887Y26260D01*
X236908Y26449D01*
X236934Y26637D01*
X236964Y26825D01*
X236999Y27012D01*
X237038Y27198D01*
X237082Y27383D01*
X237131Y27567D01*
X237184Y27750D01*
X237241Y27931D01*
X237303Y28111D01*
X237369Y28289D01*
X237440Y28466D01*
X237515Y28641D01*
X237594Y28814D01*
X237678Y28984D01*
X237765Y29153D01*
X237857Y29320D01*
X237953Y29484D01*
X238052Y29646D01*
X238156Y29806D01*
X238264Y29963D01*
X238375Y30117D01*
X238490Y30268D01*
X238609Y30417D01*
X238732Y30562D01*
X238858Y30705D01*
X238987Y30844D01*
X239120Y30980D01*
X239256Y31113D01*
X239395Y31242D01*
X239538Y31368D01*
X239683Y31491D01*
X239832Y31610D01*
X239983Y31725D01*
X240137Y31836D01*
X240294Y31944D01*
X240454Y32048D01*
X240616Y32147D01*
X240780Y32243D01*
X240947Y32335D01*
X241116Y32422D01*
X241286Y32506D01*
X241459Y32585D01*
X241634Y32660D01*
X241811Y32731D01*
X241989Y32797D01*
X242169Y32859D01*
X242350Y32916D01*
X242533Y32969D01*
X242717Y33018D01*
X242902Y33062D01*
X243088Y33101D01*
X243275Y33136D01*
X243463Y33166D01*
X243651Y33192D01*
X243840Y33213D01*
X244030Y33229D01*
X244220Y33241D01*
X244410Y33248D01*
X244600Y33250D01*
X244790Y33248D01*
X244980Y33241D01*
X245170Y33229D01*
X245360Y33213D01*
X245549Y33192D01*
X245737Y33166D01*
X245925Y33136D01*
X246112Y33101D01*
X246298Y33062D01*
X246483Y33018D01*
X246667Y32969D01*
X246850Y32916D01*
X247031Y32859D01*
X247211Y32797D01*
X247389Y32731D01*
X247566Y32660D01*
X247741Y32585D01*
X247914Y32506D01*
X248084Y32422D01*
X248253Y32335D01*
X248420Y32243D01*
X248584Y32147D01*
X248746Y32048D01*
X248906Y31944D01*
X249063Y31836D01*
X249217Y31725D01*
X249368Y31610D01*
X249517Y31491D01*
X249662Y31368D01*
X249805Y31242D01*
X249944Y31113D01*
X250080Y30980D01*
X250213Y30844D01*
X250342Y30705D01*
X250468Y30562D01*
X250591Y30417D01*
X250710Y30268D01*
X250825Y30117D01*
X250936Y29963D01*
X251044Y29806D01*
X251148Y29646D01*
X251247Y29484D01*
X251343Y29320D01*
X251435Y29153D01*
X251522Y28984D01*
X251606Y28814D01*
X251685Y28641D01*
X251760Y28466D01*
X251831Y28289D01*
X251897Y28111D01*
X251959Y27931D01*
X252016Y27750D01*
X252069Y27567D01*
X252118Y27383D01*
X252162Y27198D01*
X252201Y27012D01*
X252236Y26825D01*
X252266Y26637D01*
X252292Y26449D01*
X252313Y26260D01*
X252329Y26070D01*
X252341Y25880D01*
X252348Y25690D01*
X252350Y25500D01*
X252348Y25310D01*
X252341Y25120D01*
X252329Y24930D01*
X252313Y24740D01*
X252292Y24551D01*
X252266Y24363D01*
X252236Y24175D01*
X252201Y23988D01*
X252162Y23802D01*
X252118Y23617D01*
X252069Y23433D01*
X252016Y23250D01*
X251959Y23069D01*
X251897Y22889D01*
X251831Y22711D01*
X251760Y22534D01*
X251685Y22359D01*
X251606Y22186D01*
X251522Y22016D01*
X251435Y21847D01*
X251343Y21680D01*
X251247Y21516D01*
X251148Y21354D01*
X251044Y21194D01*
X250936Y21037D01*
X250825Y20883D01*
X250710Y20732D01*
X250591Y20583D01*
X250468Y20438D01*
X250342Y20295D01*
X250213Y20156D01*
X250080Y20020D01*
X249944Y19887D01*
X249805Y19758D01*
X249662Y19632D01*
X249517Y19509D01*
X249368Y19390D01*
X249217Y19275D01*
X249063Y19164D01*
X248906Y19056D01*
X248746Y18952D01*
X248584Y18853D01*
X248420Y18757D01*
X248253Y18665D01*
X248084Y18578D01*
X247914Y18494D01*
X247741Y18415D01*
X247566Y18340D01*
X247389Y18269D01*
X247211Y18203D01*
X247031Y18141D01*
X246850Y18084D01*
X246667Y18031D01*
X246483Y17982D01*
X246298Y17938D01*
X246112Y17899D01*
X245925Y17864D01*
X245737Y17834D01*
X245549Y17808D01*
X245360Y17787D01*
X245170Y17771D01*
X244980Y17759D01*
X244790Y17752D01*
X244600Y17750D01*
X244410Y17752D01*
X244220Y17759D01*
X244030Y17771D01*
X243840Y17787D01*
X243651Y17808D01*
X243463Y17834D01*
X243275Y17864D01*
X243088Y17899D01*
X242902Y17938D01*
X242717Y17982D01*
X242533Y18031D01*
X242350Y18084D01*
X242169Y18141D01*
X241989Y18203D01*
X241811Y18269D01*
X241634Y18340D01*
X241459Y18415D01*
X241286Y18494D01*
X241116Y18578D01*
X240947Y18665D01*
X240780Y18757D01*
X240616Y18853D01*
X240454Y18952D01*
X240294Y19056D01*
X240137Y19164D01*
X239983Y19275D01*
X239832Y19390D01*
X239683Y19509D01*
X239538Y19632D01*
X239395Y19758D01*
X239256Y19887D01*
X239120Y20020D01*
X238987Y20156D01*
X238858Y20295D01*
X238732Y20438D01*
X238609Y20583D01*
X238490Y20732D01*
X238375Y20883D01*
X238264Y21037D01*
X238156Y21194D01*
X238052Y21354D01*
X237953Y21516D01*
X237857Y21680D01*
X237765Y21847D01*
X237678Y22016D01*
X237594Y22186D01*
X237515Y22359D01*
X237440Y22534D01*
X237369Y22711D01*
X237303Y22889D01*
X237241Y23069D01*
X237184Y23250D01*
X237131Y23433D01*
X237082Y23617D01*
X237038Y23802D01*
X236999Y23988D01*
X236964Y24175D01*
X236934Y24363D01*
X236908Y24551D01*
X236887Y24740D01*
X236871Y24930D01*
X236859Y25120D01*
X236852Y25310D01*
X236850Y25500D01*
X64488Y25500D02*
X64490Y25690D01*
X64497Y25880D01*
X64509Y26070D01*
X64525Y26260D01*
X64546Y26449D01*
X64572Y26637D01*
X64602Y26825D01*
X64637Y27012D01*
X64676Y27198D01*
X64720Y27383D01*
X64769Y27567D01*
X64822Y27750D01*
X64879Y27931D01*
X64941Y28111D01*
X65007Y28289D01*
X65078Y28466D01*
X65153Y28641D01*
X65232Y28814D01*
X65316Y28984D01*
X65403Y29153D01*
X65495Y29320D01*
X65591Y29484D01*
X65690Y29646D01*
X65794Y29806D01*
X65902Y29963D01*
X66013Y30117D01*
X66128Y30268D01*
X66247Y30417D01*
X66370Y30562D01*
X66496Y30705D01*
X66625Y30844D01*
X66758Y30980D01*
X66894Y31113D01*
X67033Y31242D01*
X67176Y31368D01*
X67321Y31491D01*
X67470Y31610D01*
X67621Y31725D01*
X67775Y31836D01*
X67932Y31944D01*
X68092Y32048D01*
X68254Y32147D01*
X68418Y32243D01*
X68585Y32335D01*
X68754Y32422D01*
X68924Y32506D01*
X69097Y32585D01*
X69272Y32660D01*
X69449Y32731D01*
X69627Y32797D01*
X69807Y32859D01*
X69988Y32916D01*
X70171Y32969D01*
X70355Y33018D01*
X70540Y33062D01*
X70726Y33101D01*
X70913Y33136D01*
X71101Y33166D01*
X71289Y33192D01*
X71478Y33213D01*
X71668Y33229D01*
X71858Y33241D01*
X72048Y33248D01*
X72238Y33250D01*
X72428Y33248D01*
X72618Y33241D01*
X72808Y33229D01*
X72998Y33213D01*
X73187Y33192D01*
X73375Y33166D01*
X73563Y33136D01*
X73750Y33101D01*
X73936Y33062D01*
X74121Y33018D01*
X74305Y32969D01*
X74488Y32916D01*
X74669Y32859D01*
X74849Y32797D01*
X75027Y32731D01*
X75204Y32660D01*
X75379Y32585D01*
X75552Y32506D01*
X75722Y32422D01*
X75891Y32335D01*
X76058Y32243D01*
X76222Y32147D01*
X76384Y32048D01*
X76544Y31944D01*
X76701Y31836D01*
X76855Y31725D01*
X77006Y31610D01*
X77155Y31491D01*
X77300Y31368D01*
X77443Y31242D01*
X77582Y31113D01*
X77718Y30980D01*
X77851Y30844D01*
X77980Y30705D01*
X78106Y30562D01*
X78229Y30417D01*
X78348Y30268D01*
X78463Y30117D01*
X78574Y29963D01*
X78682Y29806D01*
X78786Y29646D01*
X78885Y29484D01*
X78981Y29320D01*
X79073Y29153D01*
X79160Y28984D01*
X79244Y28814D01*
X79323Y28641D01*
X79398Y28466D01*
X79469Y28289D01*
X79535Y28111D01*
X79597Y27931D01*
X79654Y27750D01*
X79707Y27567D01*
X79756Y27383D01*
X79800Y27198D01*
X79839Y27012D01*
X79874Y26825D01*
X79904Y26637D01*
X79930Y26449D01*
X79951Y26260D01*
X79967Y26070D01*
X79979Y25880D01*
X79986Y25690D01*
X79988Y25500D01*
X79986Y25310D01*
X79979Y25120D01*
X79967Y24930D01*
X79951Y24740D01*
X79930Y24551D01*
X79904Y24363D01*
X79874Y24175D01*
X79839Y23988D01*
X79800Y23802D01*
X79756Y23617D01*
X79707Y23433D01*
X79654Y23250D01*
X79597Y23069D01*
X79535Y22889D01*
X79469Y22711D01*
X79398Y22534D01*
X79323Y22359D01*
X79244Y22186D01*
X79160Y22016D01*
X79073Y21847D01*
X78981Y21680D01*
X78885Y21516D01*
X78786Y21354D01*
X78682Y21194D01*
X78574Y21037D01*
X78463Y20883D01*
X78348Y20732D01*
X78229Y20583D01*
X78106Y20438D01*
X77980Y20295D01*
X77851Y20156D01*
X77718Y20020D01*
X77582Y19887D01*
X77443Y19758D01*
X77300Y19632D01*
X77155Y19509D01*
X77006Y19390D01*
X76855Y19275D01*
X76701Y19164D01*
X76544Y19056D01*
X76384Y18952D01*
X76222Y18853D01*
X76058Y18757D01*
X75891Y18665D01*
X75722Y18578D01*
X75552Y18494D01*
X75379Y18415D01*
X75204Y18340D01*
X75027Y18269D01*
X74849Y18203D01*
X74669Y18141D01*
X74488Y18084D01*
X74305Y18031D01*
X74121Y17982D01*
X73936Y17938D01*
X73750Y17899D01*
X73563Y17864D01*
X73375Y17834D01*
X73187Y17808D01*
X72998Y17787D01*
X72808Y17771D01*
X72618Y17759D01*
X72428Y17752D01*
X72238Y17750D01*
X72048Y17752D01*
X71858Y17759D01*
X71668Y17771D01*
X71478Y17787D01*
X71289Y17808D01*
X71101Y17834D01*
X70913Y17864D01*
X70726Y17899D01*
X70540Y17938D01*
X70355Y17982D01*
X70171Y18031D01*
X69988Y18084D01*
X69807Y18141D01*
X69627Y18203D01*
X69449Y18269D01*
X69272Y18340D01*
X69097Y18415D01*
X68924Y18494D01*
X68754Y18578D01*
X68585Y18665D01*
X68418Y18757D01*
X68254Y18853D01*
X68092Y18952D01*
X67932Y19056D01*
X67775Y19164D01*
X67621Y19275D01*
X67470Y19390D01*
X67321Y19509D01*
X67176Y19632D01*
X67033Y19758D01*
X66894Y19887D01*
X66758Y20020D01*
X66625Y20156D01*
X66496Y20295D01*
X66370Y20438D01*
X66247Y20583D01*
X66128Y20732D01*
X66013Y20883D01*
X65902Y21037D01*
X65794Y21194D01*
X65690Y21354D01*
X65591Y21516D01*
X65495Y21680D01*
X65403Y21847D01*
X65316Y22016D01*
X65232Y22186D01*
X65153Y22359D01*
X65078Y22534D01*
X65007Y22711D01*
X64941Y22889D01*
X64879Y23069D01*
X64822Y23250D01*
X64769Y23433D01*
X64720Y23617D01*
X64676Y23802D01*
X64637Y23988D01*
X64602Y24175D01*
X64572Y24363D01*
X64546Y24551D01*
X64525Y24740D01*
X64509Y24930D01*
X64497Y25120D01*
X64490Y25310D01*
X64488Y25500D01*
X152050Y24500D02*
X152052Y24690D01*
X152059Y24880D01*
X152071Y25070D01*
X152087Y25260D01*
X152108Y25449D01*
X152134Y25637D01*
X152164Y25825D01*
X152199Y26012D01*
X152238Y26198D01*
X152282Y26383D01*
X152331Y26567D01*
X152384Y26750D01*
X152441Y26931D01*
X152503Y27111D01*
X152569Y27289D01*
X152640Y27466D01*
X152715Y27641D01*
X152794Y27814D01*
X152878Y27984D01*
X152965Y28153D01*
X153057Y28320D01*
X153153Y28484D01*
X153252Y28646D01*
X153356Y28806D01*
X153464Y28963D01*
X153575Y29117D01*
X153690Y29268D01*
X153809Y29417D01*
X153932Y29562D01*
X154058Y29705D01*
X154187Y29844D01*
X154320Y29980D01*
X154456Y30113D01*
X154595Y30242D01*
X154738Y30368D01*
X154883Y30491D01*
X155032Y30610D01*
X155183Y30725D01*
X155337Y30836D01*
X155494Y30944D01*
X155654Y31048D01*
X155816Y31147D01*
X155980Y31243D01*
X156147Y31335D01*
X156316Y31422D01*
X156486Y31506D01*
X156659Y31585D01*
X156834Y31660D01*
X157011Y31731D01*
X157189Y31797D01*
X157369Y31859D01*
X157550Y31916D01*
X157733Y31969D01*
X157917Y32018D01*
X158102Y32062D01*
X158288Y32101D01*
X158475Y32136D01*
X158663Y32166D01*
X158851Y32192D01*
X159040Y32213D01*
X159230Y32229D01*
X159420Y32241D01*
X159610Y32248D01*
X159800Y32250D01*
X159990Y32248D01*
X160180Y32241D01*
X160370Y32229D01*
X160560Y32213D01*
X160749Y32192D01*
X160937Y32166D01*
X161125Y32136D01*
X161312Y32101D01*
X161498Y32062D01*
X161683Y32018D01*
X161867Y31969D01*
X162050Y31916D01*
X162231Y31859D01*
X162411Y31797D01*
X162589Y31731D01*
X162766Y31660D01*
X162941Y31585D01*
X163114Y31506D01*
X163284Y31422D01*
X163453Y31335D01*
X163620Y31243D01*
X163784Y31147D01*
X163946Y31048D01*
X164106Y30944D01*
X164263Y30836D01*
X164417Y30725D01*
X164568Y30610D01*
X164717Y30491D01*
X164862Y30368D01*
X165005Y30242D01*
X165144Y30113D01*
X165280Y29980D01*
X165413Y29844D01*
X165542Y29705D01*
X165668Y29562D01*
X165791Y29417D01*
X165910Y29268D01*
X166025Y29117D01*
X166136Y28963D01*
X166244Y28806D01*
X166348Y28646D01*
X166447Y28484D01*
X166543Y28320D01*
X166635Y28153D01*
X166722Y27984D01*
X166806Y27814D01*
X166885Y27641D01*
X166960Y27466D01*
X167031Y27289D01*
X167097Y27111D01*
X167159Y26931D01*
X167216Y26750D01*
X167269Y26567D01*
X167318Y26383D01*
X167362Y26198D01*
X167401Y26012D01*
X167436Y25825D01*
X167466Y25637D01*
X167492Y25449D01*
X167513Y25260D01*
X167529Y25070D01*
X167541Y24880D01*
X167548Y24690D01*
X167550Y24500D01*
X167548Y24310D01*
X167541Y24120D01*
X167529Y23930D01*
X167513Y23740D01*
X167492Y23551D01*
X167466Y23363D01*
X167436Y23175D01*
X167401Y22988D01*
X167362Y22802D01*
X167318Y22617D01*
X167269Y22433D01*
X167216Y22250D01*
X167159Y22069D01*
X167097Y21889D01*
X167031Y21711D01*
X166960Y21534D01*
X166885Y21359D01*
X166806Y21186D01*
X166722Y21016D01*
X166635Y20847D01*
X166543Y20680D01*
X166447Y20516D01*
X166348Y20354D01*
X166244Y20194D01*
X166136Y20037D01*
X166025Y19883D01*
X165910Y19732D01*
X165791Y19583D01*
X165668Y19438D01*
X165542Y19295D01*
X165413Y19156D01*
X165280Y19020D01*
X165144Y18887D01*
X165005Y18758D01*
X164862Y18632D01*
X164717Y18509D01*
X164568Y18390D01*
X164417Y18275D01*
X164263Y18164D01*
X164106Y18056D01*
X163946Y17952D01*
X163784Y17853D01*
X163620Y17757D01*
X163453Y17665D01*
X163284Y17578D01*
X163114Y17494D01*
X162941Y17415D01*
X162766Y17340D01*
X162589Y17269D01*
X162411Y17203D01*
X162231Y17141D01*
X162050Y17084D01*
X161867Y17031D01*
X161683Y16982D01*
X161498Y16938D01*
X161312Y16899D01*
X161125Y16864D01*
X160937Y16834D01*
X160749Y16808D01*
X160560Y16787D01*
X160370Y16771D01*
X160180Y16759D01*
X159990Y16752D01*
X159800Y16750D01*
X159610Y16752D01*
X159420Y16759D01*
X159230Y16771D01*
X159040Y16787D01*
X158851Y16808D01*
X158663Y16834D01*
X158475Y16864D01*
X158288Y16899D01*
X158102Y16938D01*
X157917Y16982D01*
X157733Y17031D01*
X157550Y17084D01*
X157369Y17141D01*
X157189Y17203D01*
X157011Y17269D01*
X156834Y17340D01*
X156659Y17415D01*
X156486Y17494D01*
X156316Y17578D01*
X156147Y17665D01*
X155980Y17757D01*
X155816Y17853D01*
X155654Y17952D01*
X155494Y18056D01*
X155337Y18164D01*
X155183Y18275D01*
X155032Y18390D01*
X154883Y18509D01*
X154738Y18632D01*
X154595Y18758D01*
X154456Y18887D01*
X154320Y19020D01*
X154187Y19156D01*
X154058Y19295D01*
X153932Y19438D01*
X153809Y19583D01*
X153690Y19732D01*
X153575Y19883D01*
X153464Y20037D01*
X153356Y20194D01*
X153252Y20354D01*
X153153Y20516D01*
X153057Y20680D01*
X152965Y20847D01*
X152878Y21016D01*
X152794Y21186D01*
X152715Y21359D01*
X152640Y21534D01*
X152569Y21711D01*
X152503Y21889D01*
X152441Y22069D01*
X152384Y22250D01*
X152331Y22433D01*
X152282Y22617D01*
X152238Y22802D01*
X152199Y22988D01*
X152164Y23175D01*
X152134Y23363D01*
X152108Y23551D01*
X152087Y23740D01*
X152071Y23930D01*
X152059Y24120D01*
X152052Y24310D01*
X152050Y24500D01*
D12*
X180500Y439750D02*
X180500Y448250D01*
X172000Y448250D02*
X172000Y439750D01*
X180500Y478750D02*
X180500Y485250D01*
X175000Y485250D02*
X175000Y478750D01*
X175002Y478646D01*
X175008Y478542D01*
X175018Y478438D01*
X175031Y478335D01*
X175049Y478233D01*
X175071Y478131D01*
X175096Y478030D01*
X175125Y477930D01*
X175158Y477831D01*
X175195Y477734D01*
X175235Y477638D01*
X175279Y477543D01*
X175326Y477451D01*
X175377Y477360D01*
X175431Y477271D01*
X175489Y477185D01*
X175550Y477100D01*
X175614Y477018D01*
X175681Y476938D01*
X175751Y476861D01*
X175824Y476787D01*
X175900Y476716D01*
X175978Y476647D01*
X176059Y476582D01*
X176142Y476519D01*
X176228Y476460D01*
X176315Y476404D01*
X176405Y476351D01*
X176497Y476302D01*
X176590Y476256D01*
X176686Y476214D01*
X176782Y476176D01*
X176880Y476141D01*
X176980Y476110D01*
X177080Y476083D01*
X177182Y476059D01*
X177284Y476040D01*
X177387Y476024D01*
X177490Y476012D01*
X177594Y476004D01*
X177698Y476000D01*
X177802Y476000D01*
X177906Y476004D01*
X178010Y476012D01*
X178113Y476024D01*
X178216Y476040D01*
X178318Y476059D01*
X178420Y476083D01*
X178520Y476110D01*
X178620Y476141D01*
X178718Y476176D01*
X178814Y476214D01*
X178910Y476256D01*
X179003Y476302D01*
X179095Y476351D01*
X179185Y476404D01*
X179272Y476460D01*
X179358Y476519D01*
X179441Y476582D01*
X179522Y476647D01*
X179600Y476716D01*
X179676Y476787D01*
X179749Y476861D01*
X179819Y476938D01*
X179886Y477018D01*
X179950Y477100D01*
X180011Y477185D01*
X180069Y477271D01*
X180123Y477360D01*
X180174Y477451D01*
X180221Y477543D01*
X180265Y477638D01*
X180305Y477734D01*
X180342Y477831D01*
X180375Y477930D01*
X180404Y478030D01*
X180429Y478131D01*
X180451Y478233D01*
X180469Y478335D01*
X180482Y478438D01*
X180492Y478542D01*
X180498Y478646D01*
X180500Y478750D01*
X180500Y485250D02*
X180498Y485354D01*
X180492Y485458D01*
X180482Y485562D01*
X180469Y485665D01*
X180451Y485767D01*
X180429Y485869D01*
X180404Y485970D01*
X180375Y486070D01*
X180342Y486169D01*
X180305Y486266D01*
X180265Y486362D01*
X180221Y486457D01*
X180174Y486549D01*
X180123Y486640D01*
X180069Y486729D01*
X180011Y486815D01*
X179950Y486900D01*
X179886Y486982D01*
X179819Y487062D01*
X179749Y487139D01*
X179676Y487213D01*
X179600Y487284D01*
X179522Y487353D01*
X179441Y487418D01*
X179358Y487481D01*
X179272Y487540D01*
X179185Y487596D01*
X179095Y487649D01*
X179003Y487698D01*
X178910Y487744D01*
X178814Y487786D01*
X178718Y487824D01*
X178620Y487859D01*
X178520Y487890D01*
X178420Y487917D01*
X178318Y487941D01*
X178216Y487960D01*
X178113Y487976D01*
X178010Y487988D01*
X177906Y487996D01*
X177802Y488000D01*
X177698Y488000D01*
X177594Y487996D01*
X177490Y487988D01*
X177387Y487976D01*
X177284Y487960D01*
X177182Y487941D01*
X177080Y487917D01*
X176980Y487890D01*
X176880Y487859D01*
X176782Y487824D01*
X176686Y487786D01*
X176590Y487744D01*
X176497Y487698D01*
X176405Y487649D01*
X176315Y487596D01*
X176228Y487540D01*
X176142Y487481D01*
X176059Y487418D01*
X175978Y487353D01*
X175900Y487284D01*
X175824Y487213D01*
X175751Y487139D01*
X175681Y487062D01*
X175614Y486982D01*
X175550Y486900D01*
X175489Y486815D01*
X175431Y486729D01*
X175377Y486640D01*
X175326Y486549D01*
X175279Y486457D01*
X175235Y486362D01*
X175195Y486266D01*
X175158Y486169D01*
X175125Y486070D01*
X175096Y485970D01*
X175071Y485869D01*
X175049Y485767D01*
X175031Y485665D01*
X175018Y485562D01*
X175008Y485458D01*
X175002Y485354D01*
X175000Y485250D01*
X103000Y485250D02*
X103000Y478750D01*
X97500Y478750D02*
X97500Y485250D01*
X97500Y478750D02*
X97502Y478646D01*
X97508Y478542D01*
X97518Y478438D01*
X97531Y478335D01*
X97549Y478233D01*
X97571Y478131D01*
X97596Y478030D01*
X97625Y477930D01*
X97658Y477831D01*
X97695Y477734D01*
X97735Y477638D01*
X97779Y477543D01*
X97826Y477451D01*
X97877Y477360D01*
X97931Y477271D01*
X97989Y477185D01*
X98050Y477100D01*
X98114Y477018D01*
X98181Y476938D01*
X98251Y476861D01*
X98324Y476787D01*
X98400Y476716D01*
X98478Y476647D01*
X98559Y476582D01*
X98642Y476519D01*
X98728Y476460D01*
X98815Y476404D01*
X98905Y476351D01*
X98997Y476302D01*
X99090Y476256D01*
X99186Y476214D01*
X99282Y476176D01*
X99380Y476141D01*
X99480Y476110D01*
X99580Y476083D01*
X99682Y476059D01*
X99784Y476040D01*
X99887Y476024D01*
X99990Y476012D01*
X100094Y476004D01*
X100198Y476000D01*
X100302Y476000D01*
X100406Y476004D01*
X100510Y476012D01*
X100613Y476024D01*
X100716Y476040D01*
X100818Y476059D01*
X100920Y476083D01*
X101020Y476110D01*
X101120Y476141D01*
X101218Y476176D01*
X101314Y476214D01*
X101410Y476256D01*
X101503Y476302D01*
X101595Y476351D01*
X101685Y476404D01*
X101772Y476460D01*
X101858Y476519D01*
X101941Y476582D01*
X102022Y476647D01*
X102100Y476716D01*
X102176Y476787D01*
X102249Y476861D01*
X102319Y476938D01*
X102386Y477018D01*
X102450Y477100D01*
X102511Y477185D01*
X102569Y477271D01*
X102623Y477360D01*
X102674Y477451D01*
X102721Y477543D01*
X102765Y477638D01*
X102805Y477734D01*
X102842Y477831D01*
X102875Y477930D01*
X102904Y478030D01*
X102929Y478131D01*
X102951Y478233D01*
X102969Y478335D01*
X102982Y478438D01*
X102992Y478542D01*
X102998Y478646D01*
X103000Y478750D01*
X103000Y485250D02*
X102998Y485354D01*
X102992Y485458D01*
X102982Y485562D01*
X102969Y485665D01*
X102951Y485767D01*
X102929Y485869D01*
X102904Y485970D01*
X102875Y486070D01*
X102842Y486169D01*
X102805Y486266D01*
X102765Y486362D01*
X102721Y486457D01*
X102674Y486549D01*
X102623Y486640D01*
X102569Y486729D01*
X102511Y486815D01*
X102450Y486900D01*
X102386Y486982D01*
X102319Y487062D01*
X102249Y487139D01*
X102176Y487213D01*
X102100Y487284D01*
X102022Y487353D01*
X101941Y487418D01*
X101858Y487481D01*
X101772Y487540D01*
X101685Y487596D01*
X101595Y487649D01*
X101503Y487698D01*
X101410Y487744D01*
X101314Y487786D01*
X101218Y487824D01*
X101120Y487859D01*
X101020Y487890D01*
X100920Y487917D01*
X100818Y487941D01*
X100716Y487960D01*
X100613Y487976D01*
X100510Y487988D01*
X100406Y487996D01*
X100302Y488000D01*
X100198Y488000D01*
X100094Y487996D01*
X99990Y487988D01*
X99887Y487976D01*
X99784Y487960D01*
X99682Y487941D01*
X99580Y487917D01*
X99480Y487890D01*
X99380Y487859D01*
X99282Y487824D01*
X99186Y487786D01*
X99090Y487744D01*
X98997Y487698D01*
X98905Y487649D01*
X98815Y487596D01*
X98728Y487540D01*
X98642Y487481D01*
X98559Y487418D01*
X98478Y487353D01*
X98400Y487284D01*
X98324Y487213D01*
X98251Y487139D01*
X98181Y487062D01*
X98114Y486982D01*
X98050Y486900D01*
X97989Y486815D01*
X97931Y486729D01*
X97877Y486640D01*
X97826Y486549D01*
X97779Y486457D01*
X97735Y486362D01*
X97695Y486266D01*
X97658Y486169D01*
X97625Y486070D01*
X97596Y485970D01*
X97571Y485869D01*
X97549Y485767D01*
X97531Y485665D01*
X97518Y485562D01*
X97508Y485458D01*
X97502Y485354D01*
X97500Y485250D01*
X172000Y439750D02*
X172002Y439620D01*
X172008Y439491D01*
X172018Y439362D01*
X172032Y439233D01*
X172049Y439104D01*
X172071Y438977D01*
X172097Y438849D01*
X172126Y438723D01*
X172159Y438598D01*
X172196Y438474D01*
X172237Y438351D01*
X172282Y438229D01*
X172330Y438109D01*
X172382Y437990D01*
X172437Y437873D01*
X172496Y437757D01*
X172559Y437644D01*
X172625Y437532D01*
X172694Y437423D01*
X172767Y437315D01*
X172842Y437210D01*
X172921Y437107D01*
X173004Y437007D01*
X173089Y436909D01*
X173177Y436814D01*
X173268Y436722D01*
X173362Y436632D01*
X173458Y436546D01*
X173557Y436462D01*
X173658Y436382D01*
X173762Y436304D01*
X173869Y436230D01*
X173977Y436159D01*
X174088Y436091D01*
X174200Y436027D01*
X174315Y435966D01*
X174431Y435909D01*
X174549Y435855D01*
X174669Y435805D01*
X174790Y435759D01*
X174912Y435716D01*
X175036Y435677D01*
X175160Y435642D01*
X175286Y435611D01*
X175413Y435583D01*
X175540Y435560D01*
X175669Y435540D01*
X175797Y435524D01*
X175926Y435512D01*
X176056Y435504D01*
X176185Y435500D01*
X176315Y435500D01*
X176444Y435504D01*
X176574Y435512D01*
X176703Y435524D01*
X176831Y435540D01*
X176960Y435560D01*
X177087Y435583D01*
X177214Y435611D01*
X177340Y435642D01*
X177464Y435677D01*
X177588Y435716D01*
X177710Y435759D01*
X177831Y435805D01*
X177951Y435855D01*
X178069Y435909D01*
X178185Y435966D01*
X178300Y436027D01*
X178412Y436091D01*
X178523Y436159D01*
X178631Y436230D01*
X178738Y436304D01*
X178842Y436382D01*
X178943Y436462D01*
X179042Y436546D01*
X179138Y436632D01*
X179232Y436722D01*
X179323Y436814D01*
X179411Y436909D01*
X179496Y437007D01*
X179579Y437107D01*
X179658Y437210D01*
X179733Y437315D01*
X179806Y437423D01*
X179875Y437532D01*
X179941Y437644D01*
X180004Y437757D01*
X180063Y437873D01*
X180118Y437990D01*
X180170Y438109D01*
X180218Y438229D01*
X180263Y438351D01*
X180304Y438474D01*
X180341Y438598D01*
X180374Y438723D01*
X180403Y438849D01*
X180429Y438977D01*
X180451Y439104D01*
X180468Y439233D01*
X180482Y439362D01*
X180492Y439491D01*
X180498Y439620D01*
X180500Y439750D01*
X180500Y448250D02*
X180498Y448380D01*
X180492Y448509D01*
X180482Y448638D01*
X180468Y448767D01*
X180451Y448896D01*
X180429Y449023D01*
X180403Y449151D01*
X180374Y449277D01*
X180341Y449402D01*
X180304Y449526D01*
X180263Y449649D01*
X180218Y449771D01*
X180170Y449891D01*
X180118Y450010D01*
X180063Y450127D01*
X180004Y450243D01*
X179941Y450356D01*
X179875Y450468D01*
X179806Y450577D01*
X179733Y450685D01*
X179658Y450790D01*
X179579Y450893D01*
X179496Y450993D01*
X179411Y451091D01*
X179323Y451186D01*
X179232Y451278D01*
X179138Y451368D01*
X179042Y451454D01*
X178943Y451538D01*
X178842Y451618D01*
X178738Y451696D01*
X178631Y451770D01*
X178523Y451841D01*
X178412Y451909D01*
X178300Y451973D01*
X178185Y452034D01*
X178069Y452091D01*
X177951Y452145D01*
X177831Y452195D01*
X177710Y452241D01*
X177588Y452284D01*
X177464Y452323D01*
X177340Y452358D01*
X177214Y452389D01*
X177087Y452417D01*
X176960Y452440D01*
X176831Y452460D01*
X176703Y452476D01*
X176574Y452488D01*
X176444Y452496D01*
X176315Y452500D01*
X176185Y452500D01*
X176056Y452496D01*
X175926Y452488D01*
X175797Y452476D01*
X175669Y452460D01*
X175540Y452440D01*
X175413Y452417D01*
X175286Y452389D01*
X175160Y452358D01*
X175036Y452323D01*
X174912Y452284D01*
X174790Y452241D01*
X174669Y452195D01*
X174549Y452145D01*
X174431Y452091D01*
X174315Y452034D01*
X174200Y451973D01*
X174088Y451909D01*
X173977Y451841D01*
X173869Y451770D01*
X173762Y451696D01*
X173658Y451618D01*
X173557Y451538D01*
X173458Y451454D01*
X173362Y451368D01*
X173268Y451278D01*
X173177Y451186D01*
X173089Y451091D01*
X173004Y450993D01*
X172921Y450893D01*
X172842Y450790D01*
X172767Y450685D01*
X172694Y450577D01*
X172625Y450468D01*
X172559Y450356D01*
X172496Y450243D01*
X172437Y450127D01*
X172382Y450010D01*
X172330Y449891D01*
X172282Y449771D01*
X172237Y449649D01*
X172196Y449526D01*
X172159Y449402D01*
X172126Y449277D01*
X172097Y449151D01*
X172071Y449023D01*
X172049Y448896D01*
X172032Y448767D01*
X172018Y448638D01*
X172008Y448509D01*
X172002Y448380D01*
X172000Y448250D01*
X106000Y448250D02*
X106000Y439750D01*
X97500Y439750D02*
X97500Y448250D01*
X97500Y439750D02*
X97502Y439620D01*
X97508Y439491D01*
X97518Y439362D01*
X97532Y439233D01*
X97549Y439104D01*
X97571Y438977D01*
X97597Y438849D01*
X97626Y438723D01*
X97659Y438598D01*
X97696Y438474D01*
X97737Y438351D01*
X97782Y438229D01*
X97830Y438109D01*
X97882Y437990D01*
X97937Y437873D01*
X97996Y437757D01*
X98059Y437644D01*
X98125Y437532D01*
X98194Y437423D01*
X98267Y437315D01*
X98342Y437210D01*
X98421Y437107D01*
X98504Y437007D01*
X98589Y436909D01*
X98677Y436814D01*
X98768Y436722D01*
X98862Y436632D01*
X98958Y436546D01*
X99057Y436462D01*
X99158Y436382D01*
X99262Y436304D01*
X99369Y436230D01*
X99477Y436159D01*
X99588Y436091D01*
X99700Y436027D01*
X99815Y435966D01*
X99931Y435909D01*
X100049Y435855D01*
X100169Y435805D01*
X100290Y435759D01*
X100412Y435716D01*
X100536Y435677D01*
X100660Y435642D01*
X100786Y435611D01*
X100913Y435583D01*
X101040Y435560D01*
X101169Y435540D01*
X101297Y435524D01*
X101426Y435512D01*
X101556Y435504D01*
X101685Y435500D01*
X101815Y435500D01*
X101944Y435504D01*
X102074Y435512D01*
X102203Y435524D01*
X102331Y435540D01*
X102460Y435560D01*
X102587Y435583D01*
X102714Y435611D01*
X102840Y435642D01*
X102964Y435677D01*
X103088Y435716D01*
X103210Y435759D01*
X103331Y435805D01*
X103451Y435855D01*
X103569Y435909D01*
X103685Y435966D01*
X103800Y436027D01*
X103912Y436091D01*
X104023Y436159D01*
X104131Y436230D01*
X104238Y436304D01*
X104342Y436382D01*
X104443Y436462D01*
X104542Y436546D01*
X104638Y436632D01*
X104732Y436722D01*
X104823Y436814D01*
X104911Y436909D01*
X104996Y437007D01*
X105079Y437107D01*
X105158Y437210D01*
X105233Y437315D01*
X105306Y437423D01*
X105375Y437532D01*
X105441Y437644D01*
X105504Y437757D01*
X105563Y437873D01*
X105618Y437990D01*
X105670Y438109D01*
X105718Y438229D01*
X105763Y438351D01*
X105804Y438474D01*
X105841Y438598D01*
X105874Y438723D01*
X105903Y438849D01*
X105929Y438977D01*
X105951Y439104D01*
X105968Y439233D01*
X105982Y439362D01*
X105992Y439491D01*
X105998Y439620D01*
X106000Y439750D01*
X106000Y448250D02*
X105998Y448380D01*
X105992Y448509D01*
X105982Y448638D01*
X105968Y448767D01*
X105951Y448896D01*
X105929Y449023D01*
X105903Y449151D01*
X105874Y449277D01*
X105841Y449402D01*
X105804Y449526D01*
X105763Y449649D01*
X105718Y449771D01*
X105670Y449891D01*
X105618Y450010D01*
X105563Y450127D01*
X105504Y450243D01*
X105441Y450356D01*
X105375Y450468D01*
X105306Y450577D01*
X105233Y450685D01*
X105158Y450790D01*
X105079Y450893D01*
X104996Y450993D01*
X104911Y451091D01*
X104823Y451186D01*
X104732Y451278D01*
X104638Y451368D01*
X104542Y451454D01*
X104443Y451538D01*
X104342Y451618D01*
X104238Y451696D01*
X104131Y451770D01*
X104023Y451841D01*
X103912Y451909D01*
X103800Y451973D01*
X103685Y452034D01*
X103569Y452091D01*
X103451Y452145D01*
X103331Y452195D01*
X103210Y452241D01*
X103088Y452284D01*
X102964Y452323D01*
X102840Y452358D01*
X102714Y452389D01*
X102587Y452417D01*
X102460Y452440D01*
X102331Y452460D01*
X102203Y452476D01*
X102074Y452488D01*
X101944Y452496D01*
X101815Y452500D01*
X101685Y452500D01*
X101556Y452496D01*
X101426Y452488D01*
X101297Y452476D01*
X101169Y452460D01*
X101040Y452440D01*
X100913Y452417D01*
X100786Y452389D01*
X100660Y452358D01*
X100536Y452323D01*
X100412Y452284D01*
X100290Y452241D01*
X100169Y452195D01*
X100049Y452145D01*
X99931Y452091D01*
X99815Y452034D01*
X99700Y451973D01*
X99588Y451909D01*
X99477Y451841D01*
X99369Y451770D01*
X99262Y451696D01*
X99158Y451618D01*
X99057Y451538D01*
X98958Y451454D01*
X98862Y451368D01*
X98768Y451278D01*
X98677Y451186D01*
X98589Y451091D01*
X98504Y450993D01*
X98421Y450893D01*
X98342Y450790D01*
X98267Y450685D01*
X98194Y450577D01*
X98125Y450468D01*
X98059Y450356D01*
X97996Y450243D01*
X97937Y450127D01*
X97882Y450010D01*
X97830Y449891D01*
X97782Y449771D01*
X97737Y449649D01*
X97696Y449526D01*
X97659Y449402D01*
X97626Y449277D01*
X97597Y449151D01*
X97571Y449023D01*
X97549Y448896D01*
X97532Y448767D01*
X97518Y448638D01*
X97508Y448509D01*
X97502Y448380D01*
X97500Y448250D01*
D11*
X160000Y454500D02*
X160002Y454626D01*
X160008Y454752D01*
X160018Y454878D01*
X160032Y455004D01*
X160050Y455129D01*
X160072Y455253D01*
X160097Y455377D01*
X160127Y455500D01*
X160160Y455621D01*
X160198Y455742D01*
X160239Y455861D01*
X160284Y455980D01*
X160332Y456096D01*
X160384Y456211D01*
X160440Y456324D01*
X160500Y456436D01*
X160563Y456545D01*
X160629Y456653D01*
X160698Y456758D01*
X160771Y456861D01*
X160848Y456962D01*
X160927Y457060D01*
X161009Y457156D01*
X161095Y457249D01*
X161183Y457340D01*
X161274Y457427D01*
X161368Y457512D01*
X161464Y457593D01*
X161563Y457672D01*
X161664Y457747D01*
X161768Y457819D01*
X161874Y457888D01*
X161982Y457954D01*
X162092Y458016D01*
X162204Y458074D01*
X162317Y458129D01*
X162433Y458180D01*
X162550Y458228D01*
X162668Y458272D01*
X162788Y458312D01*
X162909Y458348D01*
X163031Y458381D01*
X163154Y458410D01*
X163278Y458434D01*
X163402Y458455D01*
X163527Y458472D01*
X163653Y458485D01*
X163779Y458494D01*
X163905Y458499D01*
X164032Y458500D01*
X164158Y458497D01*
X164284Y458490D01*
X164410Y458479D01*
X164535Y458464D01*
X164660Y458445D01*
X164784Y458422D01*
X164908Y458396D01*
X165030Y458365D01*
X165152Y458331D01*
X165272Y458292D01*
X165391Y458250D01*
X165509Y458205D01*
X165625Y458155D01*
X165740Y458102D01*
X165852Y458045D01*
X165963Y457985D01*
X166072Y457921D01*
X166179Y457854D01*
X166284Y457784D01*
X166387Y457710D01*
X166487Y457633D01*
X166585Y457553D01*
X166680Y457470D01*
X166772Y457384D01*
X166862Y457295D01*
X166949Y457203D01*
X167032Y457109D01*
X167113Y457012D01*
X167191Y456912D01*
X167266Y456810D01*
X167337Y456706D01*
X167405Y456599D01*
X167469Y456491D01*
X167530Y456380D01*
X167588Y456268D01*
X167642Y456154D01*
X167692Y456038D01*
X167739Y455921D01*
X167782Y455802D01*
X167821Y455682D01*
X167857Y455561D01*
X167888Y455438D01*
X167916Y455315D01*
X167940Y455191D01*
X167960Y455066D01*
X167976Y454941D01*
X167988Y454815D01*
X167996Y454689D01*
X168000Y454563D01*
X168000Y454437D01*
X167996Y454311D01*
X167988Y454185D01*
X167976Y454059D01*
X167960Y453934D01*
X167940Y453809D01*
X167916Y453685D01*
X167888Y453562D01*
X167857Y453439D01*
X167821Y453318D01*
X167782Y453198D01*
X167739Y453079D01*
X167692Y452962D01*
X167642Y452846D01*
X167588Y452732D01*
X167530Y452620D01*
X167469Y452509D01*
X167405Y452401D01*
X167337Y452294D01*
X167266Y452190D01*
X167191Y452088D01*
X167113Y451988D01*
X167032Y451891D01*
X166949Y451797D01*
X166862Y451705D01*
X166772Y451616D01*
X166680Y451530D01*
X166585Y451447D01*
X166487Y451367D01*
X166387Y451290D01*
X166284Y451216D01*
X166179Y451146D01*
X166072Y451079D01*
X165963Y451015D01*
X165852Y450955D01*
X165740Y450898D01*
X165625Y450845D01*
X165509Y450795D01*
X165391Y450750D01*
X165272Y450708D01*
X165152Y450669D01*
X165030Y450635D01*
X164908Y450604D01*
X164784Y450578D01*
X164660Y450555D01*
X164535Y450536D01*
X164410Y450521D01*
X164284Y450510D01*
X164158Y450503D01*
X164032Y450500D01*
X163905Y450501D01*
X163779Y450506D01*
X163653Y450515D01*
X163527Y450528D01*
X163402Y450545D01*
X163278Y450566D01*
X163154Y450590D01*
X163031Y450619D01*
X162909Y450652D01*
X162788Y450688D01*
X162668Y450728D01*
X162550Y450772D01*
X162433Y450820D01*
X162317Y450871D01*
X162204Y450926D01*
X162092Y450984D01*
X161982Y451046D01*
X161874Y451112D01*
X161768Y451181D01*
X161664Y451253D01*
X161563Y451328D01*
X161464Y451407D01*
X161368Y451488D01*
X161274Y451573D01*
X161183Y451660D01*
X161095Y451751D01*
X161009Y451844D01*
X160927Y451940D01*
X160848Y452038D01*
X160771Y452139D01*
X160698Y452242D01*
X160629Y452347D01*
X160563Y452455D01*
X160500Y452564D01*
X160440Y452676D01*
X160384Y452789D01*
X160332Y452904D01*
X160284Y453020D01*
X160239Y453139D01*
X160198Y453258D01*
X160160Y453379D01*
X160127Y453500D01*
X160097Y453623D01*
X160072Y453747D01*
X160050Y453871D01*
X160032Y453996D01*
X160018Y454122D01*
X160008Y454248D01*
X160002Y454374D01*
X160000Y454500D01*
X110000Y454500D02*
X110002Y454626D01*
X110008Y454752D01*
X110018Y454878D01*
X110032Y455004D01*
X110050Y455129D01*
X110072Y455253D01*
X110097Y455377D01*
X110127Y455500D01*
X110160Y455621D01*
X110198Y455742D01*
X110239Y455861D01*
X110284Y455980D01*
X110332Y456096D01*
X110384Y456211D01*
X110440Y456324D01*
X110500Y456436D01*
X110563Y456545D01*
X110629Y456653D01*
X110698Y456758D01*
X110771Y456861D01*
X110848Y456962D01*
X110927Y457060D01*
X111009Y457156D01*
X111095Y457249D01*
X111183Y457340D01*
X111274Y457427D01*
X111368Y457512D01*
X111464Y457593D01*
X111563Y457672D01*
X111664Y457747D01*
X111768Y457819D01*
X111874Y457888D01*
X111982Y457954D01*
X112092Y458016D01*
X112204Y458074D01*
X112317Y458129D01*
X112433Y458180D01*
X112550Y458228D01*
X112668Y458272D01*
X112788Y458312D01*
X112909Y458348D01*
X113031Y458381D01*
X113154Y458410D01*
X113278Y458434D01*
X113402Y458455D01*
X113527Y458472D01*
X113653Y458485D01*
X113779Y458494D01*
X113905Y458499D01*
X114032Y458500D01*
X114158Y458497D01*
X114284Y458490D01*
X114410Y458479D01*
X114535Y458464D01*
X114660Y458445D01*
X114784Y458422D01*
X114908Y458396D01*
X115030Y458365D01*
X115152Y458331D01*
X115272Y458292D01*
X115391Y458250D01*
X115509Y458205D01*
X115625Y458155D01*
X115740Y458102D01*
X115852Y458045D01*
X115963Y457985D01*
X116072Y457921D01*
X116179Y457854D01*
X116284Y457784D01*
X116387Y457710D01*
X116487Y457633D01*
X116585Y457553D01*
X116680Y457470D01*
X116772Y457384D01*
X116862Y457295D01*
X116949Y457203D01*
X117032Y457109D01*
X117113Y457012D01*
X117191Y456912D01*
X117266Y456810D01*
X117337Y456706D01*
X117405Y456599D01*
X117469Y456491D01*
X117530Y456380D01*
X117588Y456268D01*
X117642Y456154D01*
X117692Y456038D01*
X117739Y455921D01*
X117782Y455802D01*
X117821Y455682D01*
X117857Y455561D01*
X117888Y455438D01*
X117916Y455315D01*
X117940Y455191D01*
X117960Y455066D01*
X117976Y454941D01*
X117988Y454815D01*
X117996Y454689D01*
X118000Y454563D01*
X118000Y454437D01*
X117996Y454311D01*
X117988Y454185D01*
X117976Y454059D01*
X117960Y453934D01*
X117940Y453809D01*
X117916Y453685D01*
X117888Y453562D01*
X117857Y453439D01*
X117821Y453318D01*
X117782Y453198D01*
X117739Y453079D01*
X117692Y452962D01*
X117642Y452846D01*
X117588Y452732D01*
X117530Y452620D01*
X117469Y452509D01*
X117405Y452401D01*
X117337Y452294D01*
X117266Y452190D01*
X117191Y452088D01*
X117113Y451988D01*
X117032Y451891D01*
X116949Y451797D01*
X116862Y451705D01*
X116772Y451616D01*
X116680Y451530D01*
X116585Y451447D01*
X116487Y451367D01*
X116387Y451290D01*
X116284Y451216D01*
X116179Y451146D01*
X116072Y451079D01*
X115963Y451015D01*
X115852Y450955D01*
X115740Y450898D01*
X115625Y450845D01*
X115509Y450795D01*
X115391Y450750D01*
X115272Y450708D01*
X115152Y450669D01*
X115030Y450635D01*
X114908Y450604D01*
X114784Y450578D01*
X114660Y450555D01*
X114535Y450536D01*
X114410Y450521D01*
X114284Y450510D01*
X114158Y450503D01*
X114032Y450500D01*
X113905Y450501D01*
X113779Y450506D01*
X113653Y450515D01*
X113527Y450528D01*
X113402Y450545D01*
X113278Y450566D01*
X113154Y450590D01*
X113031Y450619D01*
X112909Y450652D01*
X112788Y450688D01*
X112668Y450728D01*
X112550Y450772D01*
X112433Y450820D01*
X112317Y450871D01*
X112204Y450926D01*
X112092Y450984D01*
X111982Y451046D01*
X111874Y451112D01*
X111768Y451181D01*
X111664Y451253D01*
X111563Y451328D01*
X111464Y451407D01*
X111368Y451488D01*
X111274Y451573D01*
X111183Y451660D01*
X111095Y451751D01*
X111009Y451844D01*
X110927Y451940D01*
X110848Y452038D01*
X110771Y452139D01*
X110698Y452242D01*
X110629Y452347D01*
X110563Y452455D01*
X110500Y452564D01*
X110440Y452676D01*
X110384Y452789D01*
X110332Y452904D01*
X110284Y453020D01*
X110239Y453139D01*
X110198Y453258D01*
X110160Y453379D01*
X110127Y453500D01*
X110097Y453623D01*
X110072Y453747D01*
X110050Y453871D01*
X110032Y453996D01*
X110018Y454122D01*
X110008Y454248D01*
X110002Y454374D01*
X110000Y454500D01*
D13*
X0Y0D02*
X460000Y0D01*
X460000Y500000D01*
X0Y500000D01*
X0Y0D01*
X97500Y439750D02*
X97516Y439380D01*
X97565Y439012D01*
X97645Y438650D01*
X97756Y438296D01*
X97898Y437954D01*
X98069Y437625D01*
X98269Y437312D01*
X98494Y437018D01*
X98745Y436745D01*
X99018Y436494D01*
X99312Y436269D01*
X99625Y436069D01*
X99954Y435898D01*
X100296Y435756D01*
X100650Y435645D01*
X101012Y435565D01*
X101380Y435516D01*
X101750Y435500D01*
X102120Y435516D01*
X102488Y435565D01*
X102850Y435645D01*
X103204Y435756D01*
X103546Y435898D01*
X103875Y436069D01*
X104188Y436269D01*
X104482Y436494D01*
X104755Y436745D01*
X105006Y437018D01*
X105231Y437312D01*
X105431Y437625D01*
X105602Y437954D01*
X105744Y438296D01*
X105855Y438650D01*
X105935Y439012D01*
X105984Y439380D01*
X106000Y439750D01*
X106000Y448250D01*
X105984Y448620D01*
X105935Y448988D01*
X105855Y449350D01*
X105744Y449704D01*
X105602Y450046D01*
X105431Y450375D01*
X105231Y450688D01*
X105006Y450982D01*
X104755Y451255D01*
X104482Y451506D01*
X104188Y451731D01*
X103875Y451931D01*
X103546Y452102D01*
X103204Y452244D01*
X102850Y452355D01*
X102488Y452435D01*
X102120Y452484D01*
X101750Y452500D01*
X101380Y452484D01*
X101012Y452435D01*
X100650Y452355D01*
X100296Y452244D01*
X99954Y452102D01*
X99625Y451931D01*
X99312Y451731D01*
X99018Y451506D01*
X98745Y451255D01*
X98494Y450982D01*
X98269Y450688D01*
X98069Y450375D01*
X97898Y450046D01*
X97756Y449704D01*
X97645Y449350D01*
X97565Y448988D01*
X97516Y448620D01*
X97500Y448250D01*
X97500Y439750D01*
X97500Y478750D02*
X97510Y478510D01*
X97542Y478272D01*
X97594Y478038D01*
X97666Y477809D01*
X97758Y477588D01*
X97868Y477375D01*
X97997Y477173D01*
X98143Y476982D01*
X98305Y476805D01*
X98482Y476643D01*
X98673Y476497D01*
X98875Y476368D01*
X99088Y476258D01*
X99309Y476166D01*
X99538Y476094D01*
X99772Y476042D01*
X100010Y476010D01*
X100250Y476000D01*
X100490Y476010D01*
X100728Y476042D01*
X100962Y476094D01*
X101191Y476166D01*
X101412Y476258D01*
X101625Y476368D01*
X101827Y476497D01*
X102018Y476643D01*
X102195Y476805D01*
X102357Y476982D01*
X102503Y477173D01*
X102632Y477375D01*
X102742Y477588D01*
X102834Y477809D01*
X102906Y478038D01*
X102958Y478272D01*
X102990Y478510D01*
X103000Y478750D01*
X103000Y485250D01*
X102990Y485490D01*
X102958Y485728D01*
X102906Y485962D01*
X102834Y486191D01*
X102742Y486412D01*
X102632Y486625D01*
X102503Y486827D01*
X102357Y487018D01*
X102195Y487195D01*
X102018Y487357D01*
X101827Y487503D01*
X101625Y487632D01*
X101412Y487742D01*
X101191Y487834D01*
X100962Y487906D01*
X100728Y487958D01*
X100490Y487990D01*
X100250Y488000D01*
X100010Y487990D01*
X99772Y487958D01*
X99538Y487906D01*
X99309Y487834D01*
X99088Y487742D01*
X98875Y487632D01*
X98673Y487503D01*
X98482Y487357D01*
X98305Y487195D01*
X98143Y487018D01*
X97997Y486827D01*
X97868Y486625D01*
X97758Y486412D01*
X97666Y486191D01*
X97594Y485962D01*
X97542Y485728D01*
X97510Y485490D01*
X97500Y485250D01*
X97500Y478750D01*
X172000Y439750D02*
X172016Y439380D01*
X172065Y439012D01*
X172145Y438650D01*
X172256Y438296D01*
X172398Y437954D01*
X172569Y437625D01*
X172769Y437312D01*
X172994Y437018D01*
X173245Y436745D01*
X173518Y436494D01*
X173812Y436269D01*
X174125Y436069D01*
X174454Y435898D01*
X174796Y435756D01*
X175150Y435645D01*
X175512Y435565D01*
X175880Y435516D01*
X176250Y435500D01*
X176620Y435516D01*
X176988Y435565D01*
X177350Y435645D01*
X177704Y435756D01*
X178046Y435898D01*
X178375Y436069D01*
X178688Y436269D01*
X178982Y436494D01*
X179255Y436745D01*
X179506Y437018D01*
X179731Y437312D01*
X179931Y437625D01*
X180102Y437954D01*
X180244Y438296D01*
X180355Y438650D01*
X180435Y439012D01*
X180484Y439380D01*
X180500Y439750D01*
X180500Y448250D01*
X180484Y448620D01*
X180435Y448988D01*
X180355Y449350D01*
X180244Y449704D01*
X180102Y450046D01*
X179931Y450375D01*
X179731Y450688D01*
X179506Y450982D01*
X179255Y451255D01*
X178982Y451506D01*
X178688Y451731D01*
X178375Y451931D01*
X178046Y452102D01*
X177704Y452244D01*
X177350Y452355D01*
X176988Y452435D01*
X176620Y452484D01*
X176250Y452500D01*
X175880Y452484D01*
X175512Y452435D01*
X175150Y452355D01*
X174796Y452244D01*
X174454Y452102D01*
X174125Y451931D01*
X173812Y451731D01*
X173518Y451506D01*
X173245Y451255D01*
X172994Y450982D01*
X172769Y450688D01*
X172569Y450375D01*
X172398Y450046D01*
X172256Y449704D01*
X172145Y449350D01*
X172065Y448988D01*
X172016Y448620D01*
X172000Y448250D01*
X172000Y439750D01*
X175000Y478750D02*
X175010Y478510D01*
X175042Y478272D01*
X175094Y478038D01*
X175166Y477809D01*
X175258Y477588D01*
X175368Y477375D01*
X175497Y477173D01*
X175643Y476982D01*
X175805Y476805D01*
X175982Y476643D01*
X176173Y476497D01*
X176375Y476368D01*
X176588Y476258D01*
X176809Y476166D01*
X177038Y476094D01*
X177272Y476042D01*
X177510Y476010D01*
X177750Y476000D01*
X177990Y476010D01*
X178228Y476042D01*
X178462Y476094D01*
X178691Y476166D01*
X178912Y476258D01*
X179125Y476368D01*
X179327Y476497D01*
X179518Y476643D01*
X179695Y476805D01*
X179857Y476982D01*
X180003Y477173D01*
X180132Y477375D01*
X180242Y477588D01*
X180334Y477809D01*
X180406Y478038D01*
X180458Y478272D01*
X180490Y478510D01*
X180500Y478750D01*
X180500Y485250D01*
X180490Y485490D01*
X180458Y485728D01*
X180406Y485962D01*
X180334Y486191D01*
X180242Y486412D01*
X180132Y486625D01*
X180003Y486827D01*
X179857Y487018D01*
X179695Y487195D01*
X179518Y487357D01*
X179327Y487503D01*
X179125Y487632D01*
X178912Y487742D01*
X178691Y487834D01*
X178462Y487906D01*
X178228Y487958D01*
X177990Y487990D01*
X177750Y488000D01*
X177510Y487990D01*
X177272Y487958D01*
X177038Y487906D01*
X176809Y487834D01*
X176588Y487742D01*
X176375Y487632D01*
X176173Y487503D01*
X175982Y487357D01*
X175805Y487195D01*
X175643Y487018D01*
X175497Y486827D01*
X175368Y486625D01*
X175258Y486412D01*
X175166Y486191D01*
X175094Y485962D01*
X175042Y485728D01*
X175010Y485490D01*
X175000Y485250D01*
X175000Y478750D01*
X265000Y89464D02*
X264924Y88396D01*
X264771Y87335D01*
X264543Y86288D01*
X264241Y85260D01*
X263867Y84256D01*
X263422Y83281D01*
X262908Y82341D01*
X262329Y81440D01*
X261687Y80582D01*
X260985Y79772D01*
X260228Y79015D01*
X259418Y78313D01*
X258560Y77671D01*
X257659Y77092D01*
X256719Y76578D01*
X255744Y76133D01*
X254740Y75759D01*
X253712Y75457D01*
X252665Y75229D01*
X251604Y75076D01*
X250536Y75000D01*
X249464Y75000D01*
X248396Y75076D01*
X247335Y75229D01*
X246288Y75457D01*
X245260Y75759D01*
X244256Y76133D01*
X243281Y76578D01*
X242341Y77092D01*
X241440Y77671D01*
X240582Y78313D01*
X239772Y79015D01*
X239015Y79772D01*
X238313Y80582D01*
X237671Y81440D01*
X237092Y82341D01*
X236578Y83281D01*
X236133Y84256D01*
X235759Y85260D01*
X235457Y86288D01*
X235229Y87335D01*
X235076Y88396D01*
X235000Y89464D01*
X235000Y90536D01*
X235076Y91604D01*
X235229Y92665D01*
X235457Y93712D01*
X235759Y94740D01*
X236133Y95744D01*
X236578Y96719D01*
X237092Y97659D01*
X237671Y98560D01*
X238313Y99418D01*
X239015Y100228D01*
X239772Y100985D01*
X240582Y101687D01*
X241440Y102329D01*
X242341Y102908D01*
X243281Y103422D01*
X244256Y103867D01*
X245260Y104241D01*
X246288Y104543D01*
X247335Y104771D01*
X248396Y104924D01*
X249464Y105000D01*
X250536Y105000D01*
X251604Y104924D01*
X252665Y104771D01*
X253712Y104543D01*
X254740Y104241D01*
X255744Y103867D01*
X256719Y103422D01*
X257659Y102908D01*
X258560Y102329D01*
X259418Y101687D01*
X260228Y100985D01*
X260985Y100228D01*
X261687Y99418D01*
X262329Y98560D01*
X262908Y97659D01*
X263422Y96719D01*
X263867Y95744D01*
X264241Y94740D01*
X264543Y93712D01*
X264771Y92665D01*
X264924Y91604D01*
X265000Y90536D01*
X265000Y89464D01*
X265000Y379464D02*
X264924Y378396D01*
X264771Y377335D01*
X264543Y376288D01*
X264241Y375260D01*
X263867Y374256D01*
X263422Y373281D01*
X262908Y372341D01*
X262329Y371440D01*
X261687Y370582D01*
X260985Y369772D01*
X260228Y369015D01*
X259418Y368313D01*
X258560Y367671D01*
X257659Y367092D01*
X256719Y366578D01*
X255744Y366133D01*
X254740Y365759D01*
X253712Y365457D01*
X252665Y365229D01*
X251604Y365076D01*
X250536Y365000D01*
X249464Y365000D01*
X248396Y365076D01*
X247335Y365229D01*
X246288Y365457D01*
X245260Y365759D01*
X244256Y366133D01*
X243281Y366578D01*
X242341Y367092D01*
X241440Y367671D01*
X240582Y368313D01*
X239772Y369015D01*
X239015Y369772D01*
X238313Y370582D01*
X237671Y371440D01*
X237092Y372341D01*
X236578Y373281D01*
X236133Y374256D01*
X235759Y375260D01*
X235457Y376288D01*
X235229Y377335D01*
X235076Y378396D01*
X235000Y379464D01*
X235000Y380536D01*
X235076Y381604D01*
X235229Y382665D01*
X235457Y383712D01*
X235759Y384740D01*
X236133Y385744D01*
X236578Y386719D01*
X237092Y387659D01*
X237671Y388560D01*
X238313Y389418D01*
X239015Y390228D01*
X239772Y390985D01*
X240582Y391687D01*
X241440Y392329D01*
X242341Y392908D01*
X243281Y393422D01*
X244256Y393867D01*
X245260Y394241D01*
X246288Y394543D01*
X247335Y394771D01*
X248396Y394924D01*
X249464Y395000D01*
X250536Y395000D01*
X251604Y394924D01*
X252665Y394771D01*
X253712Y394543D01*
X254740Y394241D01*
X255744Y393867D01*
X256719Y393422D01*
X257659Y392908D01*
X258560Y392329D01*
X259418Y391687D01*
X260228Y390985D01*
X260985Y390228D01*
X261687Y389418D01*
X262329Y388560D01*
X262908Y387659D01*
X263422Y386719D01*
X263867Y385744D01*
X264241Y384740D01*
X264543Y383712D01*
X264771Y382665D01*
X264924Y381604D01*
X265000Y380536D01*
X265000Y379464D01*
X340550Y25119D02*
X340475Y24361D01*
X340327Y23615D01*
X340106Y22886D01*
X339814Y22182D01*
X339455Y21511D01*
X339032Y20878D01*
X338549Y20289D01*
X338011Y19751D01*
X337422Y19268D01*
X336789Y18845D01*
X336118Y18486D01*
X335414Y18194D01*
X334685Y17973D01*
X333939Y17825D01*
X333181Y17750D01*
X332419Y17750D01*
X331661Y17825D01*
X330915Y17973D01*
X330186Y18194D01*
X329482Y18486D01*
X328811Y18845D01*
X328178Y19268D01*
X327589Y19751D01*
X327051Y20289D01*
X326568Y20878D01*
X326145Y21511D01*
X325786Y22182D01*
X325494Y22886D01*
X325273Y23615D01*
X325125Y24361D01*
X325050Y25119D01*
X325050Y25881D01*
X325125Y26639D01*
X325273Y27385D01*
X325494Y28114D01*
X325786Y28818D01*
X326145Y29489D01*
X326568Y30122D01*
X327051Y30711D01*
X327589Y31249D01*
X328178Y31732D01*
X328811Y32155D01*
X329482Y32514D01*
X330186Y32806D01*
X330915Y33027D01*
X331661Y33175D01*
X332419Y33250D01*
X333181Y33250D01*
X333939Y33175D01*
X334685Y33027D01*
X335414Y32806D01*
X336118Y32514D01*
X336789Y32155D01*
X337422Y31732D01*
X338011Y31249D01*
X338549Y30711D01*
X339032Y30122D01*
X339455Y29489D01*
X339814Y28818D01*
X340106Y28114D01*
X340327Y27385D01*
X340475Y26639D01*
X340550Y25881D01*
X340550Y25119D01*
X252350Y25119D02*
X252275Y24361D01*
X252127Y23615D01*
X251906Y22886D01*
X251614Y22182D01*
X251255Y21511D01*
X250832Y20878D01*
X250349Y20289D01*
X249811Y19751D01*
X249222Y19268D01*
X248589Y18845D01*
X247918Y18486D01*
X247214Y18194D01*
X246485Y17973D01*
X245739Y17825D01*
X244981Y17750D01*
X244219Y17750D01*
X243461Y17825D01*
X242715Y17973D01*
X241986Y18194D01*
X241282Y18486D01*
X240611Y18845D01*
X239978Y19268D01*
X239389Y19751D01*
X238851Y20289D01*
X238368Y20878D01*
X237945Y21511D01*
X237586Y22182D01*
X237294Y22886D01*
X237073Y23615D01*
X236925Y24361D01*
X236850Y25119D01*
X236850Y25881D01*
X236925Y26639D01*
X237073Y27385D01*
X237294Y28114D01*
X237586Y28818D01*
X237945Y29489D01*
X238368Y30122D01*
X238851Y30711D01*
X239389Y31249D01*
X239978Y31732D01*
X240611Y32155D01*
X241282Y32514D01*
X241986Y32806D01*
X242715Y33027D01*
X243461Y33175D01*
X244219Y33250D01*
X244981Y33250D01*
X245739Y33175D01*
X246485Y33027D01*
X247214Y32806D01*
X247918Y32514D01*
X248589Y32155D01*
X249222Y31732D01*
X249811Y31249D01*
X250349Y30711D01*
X250832Y30122D01*
X251255Y29489D01*
X251614Y28818D01*
X251906Y28114D01*
X252127Y27385D01*
X252275Y26639D01*
X252350Y25881D01*
X252350Y25119D01*
X79988Y25119D02*
X79913Y24361D01*
X79765Y23615D01*
X79544Y22886D01*
X79252Y22182D01*
X78893Y21511D01*
X78470Y20878D01*
X77987Y20289D01*
X77449Y19751D01*
X76860Y19268D01*
X76227Y18845D01*
X75556Y18486D01*
X74852Y18194D01*
X74123Y17973D01*
X73377Y17825D01*
X72619Y17750D01*
X71857Y17750D01*
X71099Y17825D01*
X70353Y17973D01*
X69624Y18194D01*
X68920Y18486D01*
X68249Y18845D01*
X67616Y19268D01*
X67027Y19751D01*
X66489Y20289D01*
X66006Y20878D01*
X65583Y21511D01*
X65224Y22182D01*
X64932Y22886D01*
X64711Y23615D01*
X64563Y24361D01*
X64488Y25119D01*
X64488Y25881D01*
X64563Y26639D01*
X64711Y27385D01*
X64932Y28114D01*
X65224Y28818D01*
X65583Y29489D01*
X66006Y30122D01*
X66489Y30711D01*
X67027Y31249D01*
X67616Y31732D01*
X68249Y32155D01*
X68920Y32514D01*
X69624Y32806D01*
X70353Y33027D01*
X71099Y33175D01*
X71857Y33250D01*
X72619Y33250D01*
X73377Y33175D01*
X74123Y33027D01*
X74852Y32806D01*
X75556Y32514D01*
X76227Y32155D01*
X76860Y31732D01*
X77449Y31249D01*
X77987Y30711D01*
X78470Y30122D01*
X78893Y29489D01*
X79252Y28818D01*
X79544Y28114D01*
X79765Y27385D01*
X79913Y26639D01*
X79988Y25881D01*
X79988Y25119D01*
X167550Y24119D02*
X167475Y23361D01*
X167327Y22615D01*
X167106Y21886D01*
X166814Y21182D01*
X166455Y20511D01*
X166032Y19878D01*
X165549Y19289D01*
X165011Y18751D01*
X164422Y18268D01*
X163789Y17845D01*
X163118Y17486D01*
X162414Y17194D01*
X161685Y16973D01*
X160939Y16825D01*
X160181Y16750D01*
X159419Y16750D01*
X158661Y16825D01*
X157915Y16973D01*
X157186Y17194D01*
X156482Y17486D01*
X155811Y17845D01*
X155178Y18268D01*
X154589Y18751D01*
X154051Y19289D01*
X153568Y19878D01*
X153145Y20511D01*
X152786Y21182D01*
X152494Y21886D01*
X152273Y22615D01*
X152125Y23361D01*
X152050Y24119D01*
X152050Y24881D01*
X152125Y25639D01*
X152273Y26385D01*
X152494Y27114D01*
X152786Y27818D01*
X153145Y28489D01*
X153568Y29122D01*
X154051Y29711D01*
X154589Y30249D01*
X155178Y30732D01*
X155811Y31155D01*
X156482Y31514D01*
X157186Y31806D01*
X157915Y32027D01*
X158661Y32175D01*
X159419Y32250D01*
X160181Y32250D01*
X160939Y32175D01*
X161685Y32027D01*
X162414Y31806D01*
X163118Y31514D01*
X163789Y31155D01*
X164422Y30732D01*
X165011Y30249D01*
X165549Y29711D01*
X166032Y29122D01*
X166455Y28489D01*
X166814Y27818D01*
X167106Y27114D01*
X167327Y26385D01*
X167475Y25639D01*
X167550Y24881D01*
X167550Y24119D01*
X160000Y454762D02*
X160068Y455282D01*
X160204Y455789D01*
X160405Y456273D01*
X160667Y456727D01*
X160986Y457143D01*
X161357Y457514D01*
X161773Y457833D01*
X162227Y458095D01*
X162711Y458296D01*
X163218Y458432D01*
X163738Y458500D01*
X164262Y458500D01*
X164782Y458432D01*
X165289Y458296D01*
X165773Y458095D01*
X166227Y457833D01*
X166643Y457514D01*
X167014Y457143D01*
X167333Y456727D01*
X167595Y456273D01*
X167796Y455789D01*
X167932Y455282D01*
X168000Y454762D01*
X168000Y454238D01*
X167932Y453718D01*
X167796Y453211D01*
X167595Y452727D01*
X167333Y452273D01*
X167014Y451857D01*
X166643Y451486D01*
X166227Y451167D01*
X165773Y450905D01*
X165289Y450704D01*
X164782Y450568D01*
X164262Y450500D01*
X163738Y450500D01*
X163218Y450568D01*
X162711Y450704D01*
X162227Y450905D01*
X161773Y451167D01*
X161357Y451486D01*
X160986Y451857D01*
X160667Y452273D01*
X160405Y452727D01*
X160204Y453211D01*
X160068Y453718D01*
X160000Y454238D01*
X160000Y454762D01*
X110000Y454762D02*
X110068Y455282D01*
X110204Y455789D01*
X110405Y456273D01*
X110667Y456727D01*
X110986Y457143D01*
X111357Y457514D01*
X111773Y457833D01*
X112227Y458095D01*
X112711Y458296D01*
X113218Y458432D01*
X113738Y458500D01*
X114262Y458500D01*
X114782Y458432D01*
X115289Y458296D01*
X115773Y458095D01*
X116227Y457833D01*
X116643Y457514D01*
X117014Y457143D01*
X117333Y456727D01*
X117595Y456273D01*
X117796Y455789D01*
X117932Y455282D01*
X118000Y454762D01*
X118000Y454238D01*
X117932Y453718D01*
X117796Y453211D01*
X117595Y452727D01*
X117333Y452273D01*
X117014Y451857D01*
X116643Y451486D01*
X116227Y451167D01*
X115773Y450905D01*
X115289Y450704D01*
X114782Y450568D01*
X114262Y450500D01*
X113738Y450500D01*
X113218Y450568D01*
X112711Y450704D01*
X112227Y450905D01*
X111773Y451167D01*
X111357Y451486D01*
X110986Y451857D01*
X110667Y452273D01*
X110405Y452727D01*
X110204Y453211D01*
X110068Y453718D01*
X110000Y454238D01*
X110000Y454762D01*
M02*
